<svg width="3187" height="1500" xmlns="http://www.w3.org/2000/svg" xmlns:xlink="http://www.w3.org/1999/xlink" xml:space="preserve" overflow="hidden"><defs><clipPath id="clip0"><rect x="389" y="479" width="3187" height="1500"/></clipPath><clipPath id="clip1"><rect x="1084" y="1215" width="165" height="166"/></clipPath><clipPath id="clip2"><rect x="1084" y="1215" width="165" height="166"/></clipPath><clipPath id="clip3"><rect x="1084" y="1215" width="165" height="166"/></clipPath><clipPath id="clip4"><rect x="1416" y="1013" width="73" height="71"/></clipPath><clipPath id="clip5"><rect x="1416" y="1013" width="73" height="71"/></clipPath><clipPath id="clip6"><rect x="1416" y="1013" width="73" height="71"/></clipPath><clipPath id="clip7"><rect x="1024" y="885" width="98" height="100"/></clipPath><clipPath id="clip8"><rect x="1024" y="885" width="98" height="100"/></clipPath><clipPath id="clip9"><rect x="1024" y="885" width="98" height="100"/></clipPath></defs><g clip-path="url(#clip0)" transform="translate(-389 -479)"><rect x="391.5" y="802.5" width="201" height="90.9998" stroke="#0BB5DD" stroke-width="4.58333" stroke-miterlimit="8" stroke-opacity="0.14902" fill="#0BB5DD" fill-opacity="0.0509804"/><path d="M592 848 751.5 848" stroke="#0BB5DD" stroke-width="2.29167" stroke-miterlimit="8" stroke-opacity="0.14902" fill="#0BB5DD" fill-rule="evenodd" fill-opacity="0.0509804"/><path d="M752 848 819.39 1122.01" stroke="#0BB5DD" stroke-width="2.29167" stroke-miterlimit="8" stroke-opacity="0.14902" fill="#0BB5DD" fill-rule="evenodd" fill-opacity="0.0509804"/><rect x="539.5" y="1721.5" width="201" height="91.0001" stroke="#0BB5DD" stroke-width="4.58333" stroke-miterlimit="8" stroke-opacity="0.14902" fill="#0BB5DD" fill-opacity="0.0509804"/><path d="M740 1767 883.47 1767" stroke="#0BB5DD" stroke-width="2.29167" stroke-miterlimit="8" stroke-opacity="0.14902" fill="#0BB5DD" fill-rule="evenodd" fill-opacity="0.0509804"/><path d="M0 0 67.3894 274.014" stroke="#0BB5DD" stroke-width="2.29167" stroke-miterlimit="8" stroke-opacity="0.14902" fill="#0BB5DD" fill-rule="evenodd" fill-opacity="0.0509804" transform="matrix(1 0 0 -1 883 1767.01)"/><rect x="1613.5" y="978.5" width="201" height="89.9997" stroke="#0BB5DD" stroke-width="4.58333" stroke-miterlimit="8" stroke-opacity="0.14902" fill="#0BB5DD" fill-opacity="0.0509804"/><path d="M1505 1023 1609.79 1023" stroke="#0BB5DD" stroke-width="2.29167" stroke-miterlimit="8" stroke-opacity="0.14902" fill="#0BB5DD" fill-rule="evenodd" fill-opacity="0.0509804"/><path d="M0 0 295.438 157.341" stroke="#0BB5DD" stroke-width="2.29167" stroke-miterlimit="8" stroke-opacity="0.14902" fill="#0BB5DD" fill-rule="evenodd" fill-opacity="0.0509804" transform="matrix(1 0 0 -1 1210 1180.34)"/><path d="M1088.1 1733.8C848.941 1737.96 651.695 1547.45 647.539 1308.29 643.383 1069.13 833.891 871.882 1073.05 867.726 1312.21 863.57 1509.46 1054.08 1513.61 1293.24 1513.8 1304.1 1513.58 1314.96 1512.95 1325.8" stroke="#0BB5DD" stroke-width="27.5" stroke-linecap="round" stroke-miterlimit="8" stroke-opacity="0.0509804" fill="none" fill-rule="evenodd"/><path d="M0 0 86.459 95.5495" stroke="#0BB5DD" stroke-width="27.5" stroke-linecap="round" stroke-miterlimit="8" stroke-opacity="0.0509804" fill="none" fill-rule="evenodd" transform="matrix(1 0 0 -1 1506 1347.55)"/><path d="M0 0 86.459 95.5495" stroke="#0BB5DD" stroke-width="27.5" stroke-linecap="round" stroke-miterlimit="8" stroke-opacity="0.0509804" fill="none" fill-rule="evenodd" transform="matrix(-1.83697e-16 -1 -1 1.83697e-16 1505.55 1347.46)"/><path d="M897.537 1399.8C878.036 1365.68 877.875 1289.97 898.755 1244.68 919.636 1199.4 958.432 1135.71 1066.37 1134.14 1103.86 1133.6 1158.84 1124.87 1194.12 1116.34 1229.41 1107.82 1262.46 1082.46 1278.09 1083.01 1293.71 1083.55 1290.37 1098.11 1287.85 1119.61 1285.32 1141.11 1273.88 1184.52 1262.94 1212.03 1251.99 1239.53 1221.94 1319.55 1199.23 1356.08 1176.52 1392.61 1157.23 1415.67 1126.65 1431.22 1096.08 1446.77 1053.95 1454.62 1015.77 1449.38 977.579 1444.14 917.039 1433.91 897.537 1399.8Z" stroke="#0BB5DD" stroke-width="27.5" stroke-linecap="round" stroke-miterlimit="8" stroke-opacity="0.0509804" fill="none" fill-rule="evenodd"/><path d="M856 1507C874.333 1428 892.667 1348.99 1054 1297" stroke="#0BB5DD" stroke-width="27.5" stroke-linecap="round" stroke-miterlimit="8" stroke-opacity="0.0509804" fill="none" fill-rule="evenodd"/><path d="M1583.83 492.756C1603.69 492.805 1623.76 498.369 1641.51 509.817 1665.43 526.533 1680.22 550.855 1684.85 576.978 1689.48 603.101 1683.95 631.026 1667.24 654.946L1517.99 868.519C1497.69 897.563 1465.85 912.189 1432.9 912.045L1410.7 943.798 1400.02 934.085C1385.76 922.322 1370.94 911.229 1355.58 900.856L1315.38 876.431 1337.21 845.181C1325.75 814.282 1328.54 779.358 1348.84 750.313L1498.09 536.74C1518.24 507.908 1550.73 492.674 1583.83 492.756Z" stroke="#0BB5DD" stroke-width="27.5" stroke-linecap="round" stroke-miterlimit="8" stroke-opacity="0.0509804" fill="none" fill-rule="evenodd"/><path d="M2383.5 1819C2383.5 1732.02 2454.02 1661.5 2541 1661.5 2627.98 1661.5 2698.5 1732.02 2698.5 1819 2698.5 1905.98 2627.98 1976.5 2541 1976.5 2454.02 1976.5 2383.5 1905.98 2383.5 1819Z" stroke="#2D3E50" stroke-width="4.58333" stroke-miterlimit="8" fill="#FFFFFF" fill-rule="evenodd"/><path d="M2383.5 1338C2383.5 1251.02 2454.02 1180.5 2541 1180.5 2627.98 1180.5 2698.5 1251.02 2698.5 1338 2698.5 1424.98 2627.98 1495.5 2541 1495.5 2454.02 1495.5 2383.5 1424.98 2383.5 1338Z" stroke="#2D3E50" stroke-width="4.58333" stroke-miterlimit="8" fill="#FFFFFF" fill-rule="evenodd"/><path d="M2383.5 854C2383.5 767.015 2454.02 696.5 2541 696.5 2627.98 696.5 2698.5 767.015 2698.5 854 2698.5 940.985 2627.98 1011.5 2541 1011.5 2454.02 1011.5 2383.5 940.985 2383.5 854Z" stroke="#2D3E50" stroke-width="4.58333" stroke-miterlimit="8" fill="#FFFFFF" fill-rule="evenodd"/><text fill="#2D3E50" font-family="Calibri,Calibri_MSFontService,sans-serif" font-weight="400" font-size="110" transform="matrix(1 0 0 1 2896.82 868)">software<tspan font-size="110" x="0" y="492">service</tspan><tspan font-size="110" x="0" y="1003">infrastructure</tspan></text><path d="M2571 837.653C2560.65 837.653 2552.51 829.253 2552.51 819.124 2552.51 808.994 2560.89 800.594 2571 800.594 2581.35 800.594 2589.49 808.994 2589.49 819.124 2589.49 829.253 2581.11 837.653 2571 837.653ZM2612.66 807.512C2611.67 804.053 2610.44 800.841 2608.71 797.876L2612.66 786.265 2603.78 777.371 2592.2 781.324C2589.24 779.594 2586.04 778.359 2582.58 777.371L2577.16 766.5 2564.84 766.5 2559.42 777.371C2555.97 778.359 2552.76 779.594 2549.8 781.324L2538.22 777.371 2529.35 786.265 2533.29 797.876C2531.56 800.841 2530.33 804.053 2529.35 807.512L2518.5 812.947 2518.5 825.3 2529.35 830.735C2530.33 834.194 2531.56 837.406 2533.29 840.371L2529.35 851.982 2537.97 860.629 2549.56 856.676C2552.51 858.406 2555.72 859.641 2559.17 860.629L2564.59 871.5 2576.92 871.5 2582.34 860.629C2585.79 859.641 2588.99 858.406 2591.95 856.676L2603.54 860.629 2612.41 851.982 2608.46 840.371C2610.19 837.406 2611.67 833.947 2612.66 830.735L2623.5 825.3 2623.5 812.947 2612.66 807.512Z" stroke="#0684A2" stroke-width="4.58333" stroke-miterlimit="8" fill="#0BB5DD" fill-rule="evenodd"/><path d="M2515 927.653C2504.65 927.653 2496.51 919.253 2496.51 909.124 2496.51 898.747 2504.89 890.594 2515 890.594 2525.35 890.594 2533.49 898.994 2533.49 909.124 2533.49 919.253 2525.35 927.653 2515 927.653L2515 927.653ZM2552.71 887.876 2556.66 876.265 2547.78 867.371 2536.2 871.324C2533.24 869.594 2529.79 868.359 2526.58 867.371L2521.16 856.5 2508.84 856.5 2503.42 867.371C2499.97 868.359 2496.76 869.594 2493.8 871.324L2482.22 867.371 2473.59 876.018 2477.29 887.629C2475.56 890.594 2474.33 894.053 2473.35 897.265L2462.5 902.7 2462.5 915.053 2473.35 920.488C2474.33 923.947 2475.56 927.159 2477.29 930.124L2473.59 941.736 2482.22 950.382 2493.8 946.676C2496.76 948.406 2499.97 949.641 2503.42 950.629L2508.84 961.5 2521.16 961.5 2526.58 950.629C2530.04 949.641 2533.24 948.406 2536.2 946.676L2547.78 950.629 2556.41 941.736 2552.71 930.371C2554.44 927.406 2555.67 924.194 2556.66 920.735L2567.5 915.3 2567.5 902.947 2556.66 897.512C2555.67 894.053 2554.44 890.841 2552.71 887.876Z" stroke="#0684A2" stroke-width="4.58333" stroke-miterlimit="8" fill="#0BB5DD" fill-rule="evenodd"/><path d="M2456.5 1258.28C2456.5 1251.73 2487.24 1246.5 2524.5 1246.5 2561.76 1246.5 2592.5 1251.73 2592.5 1258.28 2592.5 1304.72 2592.5 1304.72 2592.5 1304.72 2592.5 1311.27 2561.76 1316.5 2524.5 1316.5 2487.24 1316.5 2456.5 1311.27 2456.5 1304.72L2456.5 1258.28Z" stroke="#0684A2" stroke-width="4.58333" stroke-miterlimit="8" fill="#0BB5DD" fill-rule="evenodd"/><path d="M2456.5 1342.11C2456.5 1335.66 2487.24 1330.5 2524.5 1330.5 2561.76 1330.5 2592.5 1335.66 2592.5 1342.11 2592.5 1387.89 2592.5 1387.89 2592.5 1387.89 2592.5 1394.34 2561.76 1399.5 2524.5 1399.5 2487.24 1399.5 2456.5 1394.34 2456.5 1387.89L2456.5 1342.11Z" stroke="#0684A2" stroke-width="4.58333" stroke-miterlimit="8" fill="#0BB5DD" fill-rule="evenodd"/><path d="M2592.5 1341.5C2592.5 1347.5 2561.76 1353.5 2524.5 1353.5 2487.24 1353.5 2456.5 1347.5 2456.5 1341.5" stroke="#0684A2" stroke-width="4.58333" stroke-miterlimit="8" fill="#0BB5DD" fill-rule="evenodd"/><path d="M2456.5 1342.11C2456.5 1335.66 2487.24 1330.5 2524.5 1330.5 2561.76 1330.5 2592.5 1335.66 2592.5 1342.11 2592.5 1387.89 2592.5 1387.89 2592.5 1387.89 2592.5 1394.34 2561.76 1399.5 2524.5 1399.5 2487.24 1399.5 2456.5 1394.34 2456.5 1387.89L2456.5 1342.11Z" stroke="#0684A2" stroke-width="4.58333" stroke-miterlimit="8" fill="#0BB5DD" fill-rule="evenodd"/><path d="M2456.5 1300.17C2456.5 1293.69 2487.24 1288.5 2524.5 1288.5 2561.76 1288.5 2592.5 1293.69 2592.5 1300.17 2592.5 1346.83 2592.5 1346.83 2592.5 1346.83 2592.5 1353.31 2561.76 1358.5 2524.5 1358.5 2487.24 1358.5 2456.5 1353.31 2456.5 1346.83L2456.5 1300.17Z" stroke="#0684A2" stroke-width="4.58333" stroke-miterlimit="8" fill="#0BB5DD" fill-rule="evenodd"/><path d="M2592.5 1299.5C2592.5 1306.17 2561.76 1311.5 2524.5 1311.5 2487.24 1311.5 2456.5 1306.17 2456.5 1299.5" stroke="#0684A2" stroke-width="4.58333" stroke-miterlimit="8" fill="#0BB5DD" fill-rule="evenodd"/><path d="M2456.5 1300.17C2456.5 1293.69 2487.24 1288.5 2524.5 1288.5 2561.76 1288.5 2592.5 1293.69 2592.5 1300.17 2592.5 1346.83 2592.5 1346.83 2592.5 1346.83 2592.5 1353.31 2561.76 1358.5 2524.5 1358.5 2487.24 1358.5 2456.5 1353.31 2456.5 1346.83L2456.5 1300.17Z" stroke="#0684A2" stroke-width="4.58333" stroke-miterlimit="8" fill="#0BB5DD" fill-rule="evenodd"/><path d="M2456.5 1258.28C2456.5 1251.73 2487.24 1246.5 2524.5 1246.5 2561.76 1246.5 2592.5 1251.73 2592.5 1258.28 2592.5 1304.72 2592.5 1304.72 2592.5 1304.72 2592.5 1311.27 2561.76 1316.5 2524.5 1316.5 2487.24 1316.5 2456.5 1311.27 2456.5 1304.72L2456.5 1258.28Z" stroke="#0684A2" stroke-width="4.58333" stroke-miterlimit="8" fill="#0BB5DD" fill-rule="evenodd"/><path d="M2592.5 1258.5C2592.5 1264.61 2561.76 1269.5 2524.5 1269.5 2487.24 1269.5 2456.5 1264.61 2456.5 1258.5" stroke="#0684A2" stroke-width="4.58333" stroke-miterlimit="8" fill="#0BB5DD" fill-rule="evenodd"/><path d="M2602.5 1381.98 2590.74 1393.5 2578.95 1381.98 2585.53 1381.98C2583.3 1377.74 2578.85 1375.07 2573.98 1375.06 2570.84 1375.06 2567.81 1376.2 2565.46 1378.24L2553.5 1378.24C2558.83 1367.16 2572.33 1362.4 2583.65 1367.62 2589.69 1370.4 2594.17 1375.66 2595.89 1381.98Z" stroke="#0BB5DD" stroke-width="4.58333" stroke-miterlimit="8" fill="#FFFFFF" fill-rule="evenodd"/><path d="M2545.5 1393.43 2557.28 1381.5 2569.05 1393.43 2562.42 1393.43C2564.64 1397.82 2569.09 1400.58 2573.95 1400.59 2577.1 1400.59 2580.13 1399.42 2582.48 1397.3L2594.5 1397.3C2589.15 1408.79 2575.63 1413.72 2564.29 1408.29 2558.26 1405.41 2553.78 1399.97 2552.05 1393.43Z" stroke="#0BB5DD" stroke-width="4.58333" stroke-miterlimit="8" fill="#FFFFFF" fill-rule="evenodd"/><path d="M2629.11 1429.5C2644.6 1429.14 2656.86 1416.34 2656.49 1400.91 2656.17 1387.3 2646.04 1375.91 2632.52 1373.93 2631.09 1365.2 2626.27 1357.37 2619.1 1352.14 2611.68 1346.91 2602.41 1344.97 2593.5 1346.78 2584.74 1333.31 2568.39 1326.8 2552.71 1330.55 2537.43 1334.47 2526.01 1347.15 2523.76 1362.7 2513.58 1362.97 2504.09 1367.87 2498 1376.01 2490.79 1385.98 2489.48 1399.03 2494.56 1410.23 2499.74 1421.27 2510.58 1428.59 2522.79 1429.3ZM2523.28 1418.21C2515.16 1417.7 2507.96 1412.84 2504.5 1405.51 2501.13 1398.05 2502 1389.36 2506.77 1382.7 2511.66 1376.16 2519.78 1372.86 2527.87 1374.13L2534.24 1375.18 2534.24 1368.18C2534.3 1355.53 2542.93 1344.52 2555.24 1341.39 2567.59 1338.42 2580.36 1344.35 2586.02 1355.68L2588.19 1359.98 2592.7 1358.39C2599.43 1356.02 2606.91 1357.06 2612.73 1361.18 2618.53 1365.41 2621.96 1372.12 2621.97 1379.27L2621.97 1384.85 2629.29 1384.85C2638.58 1385.19 2645.84 1392.98 2645.49 1402.24 2645.16 1411.07 2637.99 1418.14 2629.11 1418.37Z" stroke="#0BB5DD" stroke-width="4.58333" stroke-miterlimit="8" fill="#FFFFFF" fill-rule="evenodd"/><path d="M2533.5 1861.5 2548.5 1861.5 2548.5 1879.5 2533.5 1879.5Z" stroke="#0684A2" stroke-width="4.58333" stroke-miterlimit="8" fill="#0BB5DD" fill-rule="evenodd"/><path d="M2533.5 1888.5 2548.5 1888.5 2548.5 1902.5 2533.5 1902.5Z" stroke="#0684A2" stroke-width="4.58333" stroke-miterlimit="8" fill="#0BB5DD" fill-rule="evenodd"/><path d="M2558.5 1888.5 2629.5 1888.5 2629.5 1902.5 2558.5 1902.5Z" stroke="#0684A2" stroke-width="4.58333" stroke-miterlimit="8" fill="#0BB5DD" fill-rule="evenodd"/><path d="M2453.5 1888.5 2524.5 1888.5 2524.5 1902.5 2453.5 1902.5Z" stroke="#0684A2" stroke-width="4.58333" stroke-miterlimit="8" fill="#0BB5DD" fill-rule="evenodd"/><path d="M2610.72 1825.5 2471.28 1825.5C2466.43 1825.5 2462.5 1829.11 2462.5 1833.56L2462.5 1853.45C2462.5 1857.89 2466.43 1861.5 2471.28 1861.5L2610.72 1861.5C2615.57 1861.5 2619.5 1857.89 2619.5 1853.45L2619.5 1833.56C2619.5 1829.11 2615.57 1825.5 2610.72 1825.5ZM2487.03 1848C2484.32 1848 2482.13 1845.99 2482.13 1843.5 2482.13 1841.01 2484.32 1839 2487.03 1839 2489.74 1839 2491.94 1841.01 2491.94 1843.5 2491.94 1845.99 2489.74 1848 2487.03 1848ZM2511.56 1848C2508.85 1848 2506.66 1845.99 2506.66 1843.5 2506.66 1841.01 2508.85 1839 2511.56 1839 2514.27 1839 2516.47 1841.01 2516.47 1843.5 2516.47 1845.99 2514.27 1848 2511.56 1848ZM2536.09 1848C2533.38 1848 2531.19 1845.99 2531.19 1843.5 2531.19 1841.01 2533.38 1839 2536.09 1839 2538.8 1839 2541 1841.01 2541 1843.5 2541 1845.99 2538.8 1848 2536.09 1848Z" stroke="#0684A2" stroke-width="4.58333" stroke-miterlimit="8" fill="#0BB5DD" fill-rule="evenodd"/><path d="M2610.72 1780.5 2471.28 1780.5C2466.43 1780.5 2462.5 1784.11 2462.5 1788.56L2462.5 1808.45C2462.5 1812.89 2466.43 1816.5 2471.28 1816.5L2610.72 1816.5C2615.57 1816.5 2619.5 1812.89 2619.5 1808.45L2619.5 1788.56C2619.5 1784.11 2615.57 1780.5 2610.72 1780.5ZM2487.03 1803C2484.32 1803 2482.13 1800.99 2482.13 1798.5 2482.13 1796.01 2484.32 1794 2487.03 1794 2489.74 1794 2491.94 1796.01 2491.94 1798.5 2491.94 1800.99 2489.74 1803 2487.03 1803ZM2511.56 1803C2508.85 1803 2506.66 1800.99 2506.66 1798.5 2506.66 1796.01 2508.85 1794 2511.56 1794 2514.27 1794 2516.47 1796.01 2516.47 1798.5 2516.47 1800.99 2514.27 1803 2511.56 1803ZM2536.09 1803C2533.38 1803 2531.19 1800.99 2531.19 1798.5 2531.19 1796.01 2533.38 1794 2536.09 1794 2538.8 1794 2541 1796.01 2541 1798.5 2541 1800.99 2538.8 1803 2536.09 1803Z" stroke="#0684A2" stroke-width="4.58333" stroke-miterlimit="8" fill="#0BB5DD" fill-rule="evenodd"/><path d="M2610.72 1735.5 2471.28 1735.5C2466.43 1735.5 2462.5 1739.11 2462.5 1743.56L2462.5 1763.45C2462.5 1767.89 2466.43 1771.5 2471.28 1771.5L2610.72 1771.5C2615.57 1771.5 2619.5 1767.89 2619.5 1763.45L2619.5 1743.56C2619.5 1739.11 2615.57 1735.5 2610.72 1735.5ZM2487.03 1758C2484.32 1758 2482.13 1755.99 2482.13 1753.5 2482.13 1751.01 2484.32 1749 2487.03 1749 2489.74 1749 2491.94 1751.01 2491.94 1753.5 2491.94 1755.99 2489.74 1758 2487.03 1758ZM2511.56 1758C2508.85 1758 2506.66 1755.99 2506.66 1753.5 2506.66 1751.01 2508.85 1749 2511.56 1749 2514.27 1749 2516.47 1751.01 2516.47 1753.5 2516.47 1755.99 2514.27 1758 2511.56 1758ZM2536.09 1758C2533.38 1758 2531.19 1755.99 2531.19 1753.5 2531.19 1751.01 2533.38 1749 2536.09 1749 2538.8 1749 2541 1751.01 2541 1753.5 2541 1755.99 2538.8 1758 2536.09 1758Z" stroke="#0684A2" stroke-width="4.58333" stroke-miterlimit="8" fill="#0BB5DD" fill-rule="evenodd"/><path d="M685 1298C685 1030.14 902.142 813 1170 813 1437.86 813 1655 1030.14 1655 1298 1655 1565.86 1437.86 1783 1170 1783 902.142 1783 685 1565.86 685 1298Z" stroke="#2D3E50" stroke-width="13.75" stroke-miterlimit="8" fill="#2D3E50" fill-rule="evenodd"/><path d="M958 1306C958 1189.47 1052.69 1095 1169.5 1095 1286.31 1095 1381 1189.47 1381 1306 1381 1422.53 1286.31 1517 1169.5 1517 1052.69 1517 958 1422.53 958 1306Z" fill="#FFFFFF" fill-rule="evenodd"/><path d="M957 1304.5C957 1187.69 1051.69 1093 1168.5 1093 1285.31 1093 1380 1187.69 1380 1304.5 1380 1421.31 1285.31 1516 1168.5 1516 1051.69 1516 957 1421.31 957 1304.5Z" stroke="#1FC2A7" stroke-width="13.75" stroke-miterlimit="8" fill="none" fill-rule="evenodd"/><path d="M1238.43 1234.37C1235.17 1228.63 1235.14 1215.87 1238.63 1208.24 1242.12 1200.61 1248.6 1189.88 1266.64 1189.62 1272.9 1189.52 1282.09 1188.05 1287.98 1186.62 1293.88 1185.18 1299.4 1180.91 1302.01 1181 1304.62 1181.09 1304.06 1183.54 1303.64 1187.17 1303.22 1190.79 1301.31 1198.1 1299.48 1202.74 1297.65 1207.37 1292.63 1220.85 1288.83 1227.01 1285.04 1233.16 1281.82 1237.05 1276.71 1239.67 1271.6 1242.29 1264.56 1243.61 1258.18 1242.73 1251.8 1241.84 1241.69 1240.12 1238.43 1234.37Z" stroke="#2D3E50" stroke-width="13.75" stroke-linecap="round" stroke-miterlimit="8" fill="none" fill-rule="evenodd"/><path d="M1227 1262C1230.06 1248.83 1233.11 1235.66 1260 1227" stroke="#2D3E50" stroke-width="13.75" stroke-linecap="round" stroke-miterlimit="8" fill="none" fill-rule="evenodd"/><g clip-path="url(#clip1)"><g clip-path="url(#clip2)"><g clip-path="url(#clip3)"><path d="M109.333 51.25C109.333 66.3458 97.0958 78.5833 82 78.5833 66.9042 78.5833 54.6667 66.3458 54.6667 51.25 54.6667 36.1542 66.9042 23.9167 82 23.9167 97.0958 23.9167 109.333 36.1542 109.333 51.25Z" fill="#2D3E50" transform="matrix(-1 0 0 1 1249 1216)"/><path d="M52.275 139.4 41 113.946 41 96.6916C41 94.6417 42.1958 92.5917 43.9042 91.5667 44.9292 91.0541 45.2708 89.8583 44.7583 89.0042 44.4167 88.3208 43.7333 87.8083 42.8792 87.9791L23.4042 87.9791C22.3792 87.9791 21.3542 88.6625 21.3542 89.8583 21.3542 90.7125 21.6958 91.3958 22.3792 91.7375 24.2583 92.7625 25.2833 94.8125 25.2833 96.8625L25.2833 114.117 14.1792 139.4C12.8125 142.304 14.1792 145.892 17.2542 147.087 17.9375 147.429 18.7917 147.6 19.6458 147.6L46.9792 147.6C50.225 147.6 52.7875 145.037 52.7875 141.792 52.7875 140.937 52.6167 140.083 52.275 139.4L52.275 139.4ZM29.3833 100.621 29.3833 96.6916C29.3833 94.9833 29.0417 93.275 28.0167 91.7375L38.4375 91.7375C37.5833 93.275 37.0708 94.9833 37.0708 96.6916L37.0708 100.621 29.3833 100.621Z" fill="#2D3E50" transform="matrix(-1 0 0 1 1249 1216)"/><path d="M38.0958 64.4042C38.0958 66.0081 36.7956 67.3083 35.1917 67.3083 33.5877 67.3083 32.2875 66.0081 32.2875 64.4042 32.2875 62.8002 33.5877 61.5 35.1917 61.5 36.7956 61.5 38.0958 62.8002 38.0958 64.4042Z" fill="#2D3E50" transform="matrix(-1 0 0 1 1249 1216)"/><path d="M43.05 73.2875C43.05 74.8914 41.7498 76.1917 40.1458 76.1917 38.5419 76.1917 37.2417 74.8914 37.2417 73.2875 37.2417 71.6836 38.5419 70.3833 40.1458 70.3833 41.7498 70.3833 43.05 71.6836 43.05 73.2875Z" fill="#2D3E50" transform="matrix(-1 0 0 1 1249 1216)"/><path d="M32.2875 71.2375C32.2875 72.8414 30.9873 74.1417 29.3833 74.1417 27.7794 74.1417 26.4792 72.8414 26.4792 71.2375 26.4792 69.6336 27.7794 68.3333 29.3833 68.3333 30.9873 68.3333 32.2875 69.6336 32.2875 71.2375Z" fill="#2D3E50" transform="matrix(-1 0 0 1 1249 1216)"/><path d="M35.1917 82C35.1917 84.17 33.4325 85.9291 31.2625 85.9291 29.0925 85.9291 27.3333 84.17 27.3333 82 27.3333 79.83 29.0925 78.0708 31.2625 78.0708 33.4325 78.0708 35.1917 79.83 35.1917 82Z" fill="#2D3E50" transform="matrix(-1 0 0 1 1249 1216)"/><path d="M73.4583 124.537 61.1583 111.554 67.9917 103.012 67.9917 102.842 57.5708 103.867 57.9125 89.3458C53.8125 90.7125 49.7125 92.25 45.7833 94.1291 45.1 94.8125 44.5875 95.8375 44.4167 96.8625L44.4167 113.262 55.35 138.033C55.6917 138.717 55.8625 139.4 56.0333 140.083L73.4583 140.083 73.4583 124.537Z" fill="#2D3E50" transform="matrix(-1 0 0 1 1249 1216)"/><path d="M76.875 123 76.875 140.083 87.125 140.083 87.125 123 99.425 87.4667C93.6166 86.1 87.8083 85.4166 82 85.4166 76.1917 85.4166 70.3833 86.1 64.7458 87.4667L76.875 123Z" fill="#2D3E50" transform="matrix(-1 0 0 1 1249 1216)"/><path d="M131.2 101.817C123.683 96.0083 115.142 91.9083 106.087 89.3458L106.429 103.867 96.0083 102.842 96.0083 103.012 102.842 111.554 90.5416 124.537 90.5416 140.083 136.667 140.083 136.667 112.75C136.496 108.479 134.617 104.379 131.2 101.817Z" fill="#2D3E50" transform="matrix(-1 0 0 1 1249 1216)"/></g></g></g><path d="M1059.96 1301.43C1057.33 1297.73 1057.31 1289.5 1060.13 1284.57 1062.95 1279.65 1068.19 1272.73 1082.78 1272.56 1087.85 1272.5 1095.28 1271.55 1100.04 1270.62 1104.81 1269.7 1109.28 1266.94 1111.39 1267 1113.5 1267.06 1113.05 1268.64 1112.71 1270.98 1112.37 1273.32 1110.82 1278.04 1109.34 1281.02 1107.86 1284.01 1103.8 1292.71 1100.73 1296.68 1097.66 1300.65 1095.06 1303.16 1090.93 1304.85 1086.79 1306.54 1081.1 1307.39 1075.94 1306.82 1070.78 1306.25 1062.6 1305.14 1059.96 1301.43Z" stroke="#2D3E50" stroke-width="13.75" stroke-linecap="round" stroke-miterlimit="8" fill="none" fill-rule="evenodd"/><path d="M1051 1320C1053.41 1311.35 1055.81 1302.69 1077 1297" stroke="#2D3E50" stroke-width="13.75" stroke-linecap="round" stroke-miterlimit="8" fill="none" fill-rule="evenodd"/><path d="M1144.96 1426.43C1142.33 1422.73 1142.31 1414.5 1145.13 1409.57 1147.95 1404.65 1153.19 1397.73 1167.78 1397.56 1172.85 1397.5 1180.28 1396.55 1185.04 1395.62 1189.81 1394.7 1194.28 1391.94 1196.39 1392 1198.5 1392.06 1198.05 1393.64 1197.71 1395.98 1197.37 1398.32 1195.82 1403.04 1194.34 1406.02 1192.86 1409.01 1188.8 1417.71 1185.73 1421.68 1182.66 1425.65 1180.06 1428.16 1175.93 1429.85 1171.79 1431.54 1166.1 1432.39 1160.94 1431.82 1155.78 1431.25 1147.6 1430.14 1144.96 1426.43Z" stroke="#2D3E50" stroke-width="13.75" stroke-linecap="round" stroke-miterlimit="8" fill="none" fill-rule="evenodd"/><path d="M1136 1445C1138.5 1435.97 1141 1426.94 1163 1421" stroke="#2D3E50" stroke-width="13.75" stroke-linecap="round" stroke-miterlimit="8" fill="none" fill-rule="evenodd"/><path d="M1138.2 925.076C1349.68 909.251 1534.01 1066.97 1549.92 1277.35 1551.68 1300.66 1551.29 1324.08 1548.75 1347.32" stroke="#FFC000" stroke-width="13.75" stroke-miterlimit="8" fill="none" fill-rule="evenodd"/><path d="M1008 935.5C1008 899.878 1036.88 871 1072.5 871 1108.12 871 1137 899.878 1137 935.5 1137 971.122 1108.12 1000 1072.5 1000 1036.88 1000 1008 971.122 1008 935.5Z" stroke="#FFC000" stroke-width="13.75" stroke-miterlimit="8" fill="#FFFFFF" fill-rule="evenodd"/><path d="M1372 1031C1372 995.101 1400.88 966 1436.5 966 1472.12 966 1501 995.101 1501 1031 1501 1066.9 1472.12 1096 1436.5 1096 1400.88 1096 1372 1066.9 1372 1031Z" stroke="#FFC000" stroke-width="13.75" stroke-miterlimit="8" fill="#FFFFFF" fill-rule="evenodd"/><path d="M1475 1406.5C1475 1370.88 1504.1 1342 1540 1342 1575.9 1342 1605 1370.88 1605 1406.5 1605 1442.12 1575.9 1471 1540 1471 1504.1 1471 1475 1442.12 1475 1406.5Z" stroke="#FFC000" stroke-width="13.75" stroke-miterlimit="8" fill="#FFFFFF" fill-rule="evenodd"/><path d="M1404.5 998.378C1404.5 995.668 1417.16 993.5 1432.5 993.5 1447.84 993.5 1460.5 995.668 1460.5 998.378 1460.5 1017.62 1460.5 1017.62 1460.5 1017.62 1460.5 1020.33 1447.84 1022.5 1432.5 1022.5 1417.16 1022.5 1404.5 1020.33 1404.5 1017.62L1404.5 998.378Z" stroke="#BC8C00" stroke-width="4.58333" stroke-miterlimit="8" fill="#FFC000" fill-rule="evenodd"/><path d="M1404.5 1033.38C1404.5 1030.67 1417.16 1028.5 1432.5 1028.5 1447.84 1028.5 1460.5 1030.67 1460.5 1033.38 1460.5 1052.62 1460.5 1052.62 1460.5 1052.62 1460.5 1055.33 1447.84 1057.5 1432.5 1057.5 1417.16 1057.5 1404.5 1055.33 1404.5 1052.62L1404.5 1033.38Z" stroke="#BC8C00" stroke-width="4.58333" stroke-miterlimit="8" fill="#FFC000" fill-rule="evenodd"/><path d="M1460.5 1033.5C1460.5 1035.5 1447.84 1037.5 1432.5 1037.5 1417.16 1037.5 1404.5 1035.5 1404.5 1033.5" stroke="#BC8C00" stroke-width="4.58333" stroke-miterlimit="8" fill="#FFC000" fill-rule="evenodd"/><path d="M1404.5 1033.38C1404.5 1030.67 1417.16 1028.5 1432.5 1028.5 1447.84 1028.5 1460.5 1030.67 1460.5 1033.38 1460.5 1052.62 1460.5 1052.62 1460.5 1052.62 1460.5 1055.33 1447.84 1057.5 1432.5 1057.5 1417.16 1057.5 1404.5 1055.33 1404.5 1052.62L1404.5 1033.38Z" stroke="#BC8C00" stroke-width="4.58333" stroke-miterlimit="8" fill="#FFC000" fill-rule="evenodd"/><path d="M1404.5 1015.33C1404.5 1012.65 1417.16 1010.5 1432.5 1010.5 1447.84 1010.5 1460.5 1012.65 1460.5 1015.33 1460.5 1034.67 1460.5 1034.67 1460.5 1034.67 1460.5 1037.35 1447.84 1039.5 1432.5 1039.5 1417.16 1039.5 1404.5 1037.35 1404.5 1034.67L1404.5 1015.33Z" stroke="#BC8C00" stroke-width="4.58333" stroke-miterlimit="8" fill="#FFC000" fill-rule="evenodd"/><path d="M1460.5 1015.5C1460.5 1018.28 1447.84 1020.5 1432.5 1020.5 1417.16 1020.5 1404.5 1018.28 1404.5 1015.5" stroke="#BC8C00" stroke-width="4.58333" stroke-miterlimit="8" fill="#FFC000" fill-rule="evenodd"/><path d="M1404.5 1015.33C1404.5 1012.65 1417.16 1010.5 1432.5 1010.5 1447.84 1010.5 1460.5 1012.65 1460.5 1015.33 1460.5 1034.67 1460.5 1034.67 1460.5 1034.67 1460.5 1037.35 1447.84 1039.5 1432.5 1039.5 1417.16 1039.5 1404.5 1037.35 1404.5 1034.67L1404.5 1015.33Z" stroke="#BC8C00" stroke-width="4.58333" stroke-miterlimit="8" fill="#FFC000" fill-rule="evenodd"/><path d="M1404.5 998.378C1404.5 995.668 1417.16 993.5 1432.5 993.5 1447.84 993.5 1460.5 995.668 1460.5 998.378 1460.5 1017.62 1460.5 1017.62 1460.5 1017.62 1460.5 1020.33 1447.84 1022.5 1432.5 1022.5 1417.16 1022.5 1404.5 1020.33 1404.5 1017.62L1404.5 998.378Z" stroke="#BC8C00" stroke-width="4.58333" stroke-miterlimit="8" fill="#FFC000" fill-rule="evenodd"/><path d="M1460.5 998.5C1460.5 1001.28 1447.84 1003.5 1432.5 1003.5 1417.16 1003.5 1404.5 1001.28 1404.5 998.5" stroke="#BC8C00" stroke-width="4.58333" stroke-miterlimit="8" fill="#FFC000" fill-rule="evenodd"/><g clip-path="url(#clip4)"><g clip-path="url(#clip5)"><g clip-path="url(#clip6)"><path d="M46.9856 36.4318 42.1931 41.2243 37.3932 36.4318 40.0705 36.4318C39.1649 34.6677 37.3497 33.5575 35.3668 33.5548 34.0874 33.5562 32.8531 34.0273 31.8981 34.8787L27.0243 34.8787C29.1955 30.2666 34.6944 28.2879 39.3065 30.4591 41.7678 31.6178 43.5926 33.8032 44.2935 36.4318Z" stroke="#BC8C00" stroke-width="1.89333" fill="#FFC000" transform="matrix(1.00001 0 0 1 1417 1013)"/><path d="M23.7775 41.2243 28.5774 36.4318 33.3699 41.2243 30.6704 41.2243C31.5735 42.9871 33.386 44.0975 35.3668 44.1012 36.6485 44.1009 37.8856 43.6298 38.8428 42.7774L43.7388 42.7774C41.5605 47.3951 36.0513 49.3727 31.4335 47.1945 28.9744 46.0344 27.1506 43.8507 26.4474 41.2243Z" stroke="#BC8C00" stroke-width="1.89333" fill="#FFC000" transform="matrix(1.00001 0 0 1 1417 1013)"/><path d="M58.2272 56.2082C64.6137 56.057 69.6685 50.7572 69.5174 44.3707 69.384 38.7361 65.209 34.0179 59.6324 33.1998 59.0431 29.583 57.0564 26.3426 54.1004 24.1769 51.041 22.0088 47.22 21.2055 43.5465 21.9582 39.9326 16.3785 33.1929 13.6843 26.7285 15.2354 20.428 16.8579 15.7201 22.1084 14.7916 28.5478 10.5944 28.6605 6.68038 30.6911 4.17124 34.0577 1.19823 38.1875 0.656806 43.5905 2.75124 48.2281 4.88622 52.7993 9.35563 55.832 14.3923 56.1268ZM14.5919 51.534C11.2454 51.3232 8.27858 49.3085 6.84852 46.2756 5.46088 43.1842 5.81847 39.5887 7.78779 36.8311 9.80123 34.1225 13.1515 32.7551 16.4853 33.2812L19.1108 33.7175 19.1108 30.8184C19.1364 25.5804 22.6961 21.0206 27.7713 19.7246 32.8637 18.4968 38.1289 20.9514 40.4625 25.6413L41.3574 27.4237 43.2137 26.7654C45.9912 25.7841 49.0725 26.2145 51.4749 27.9192 53.8634 29.6689 55.2775 32.4503 55.2837 35.4112L55.2837 37.7186 58.3012 37.7186C62.1339 37.8626 65.1244 41.0863 64.9804 44.919 64.8431 48.5783 61.8879 51.5022 58.2272 51.6006Z" stroke="#BC8C00" stroke-width="1.89333" fill="#FFC000" transform="matrix(1.00001 0 0 1 1417 1013)"/></g></g></g><g clip-path="url(#clip7)"><g clip-path="url(#clip8)"><g clip-path="url(#clip9)"><path d="M60.5354 38.0771C56.2479 38.0771 52.8792 34.6062 52.8792 30.4208 52.8792 26.2354 56.35 22.7646 60.5354 22.7646 64.8229 22.7646 68.1917 26.2354 68.1917 30.4208 68.1917 34.6062 64.7208 38.0771 60.5354 38.0771ZM77.7875 25.6229C77.3791 24.1937 76.8687 22.8667 76.1541 21.6417L77.7875 16.8437 74.1125 13.1687 69.3146 14.8021C68.0896 14.0875 66.7625 13.5771 65.3333 13.1687L63.0875 8.67708 57.9833 8.67708 55.7375 13.1687C54.3083 13.5771 52.9812 14.0875 51.7562 14.8021L46.9583 13.1687 43.2833 16.8437 44.9167 21.6417C44.2021 22.8667 43.6917 24.1937 43.2833 25.6229L38.7917 27.8687 38.7917 32.9729 43.2833 35.2187C43.6917 36.6479 44.2021 37.975 44.9167 39.2L43.2833 43.9979 46.8562 47.5708 51.6541 45.9375C52.8792 46.6521 54.2062 47.1625 55.6354 47.5708L57.8812 52.0625 62.9854 52.0625 65.2312 47.5708C66.6604 47.1625 67.9875 46.6521 69.2125 45.9375L74.0104 47.5708 77.6854 43.9979 76.0521 39.2C76.7666 37.975 77.3791 36.5458 77.7875 35.2187L82.2791 32.9729 82.2791 27.8687 77.7875 25.6229Z" stroke="#BC8C00" stroke-width="1.92156" fill="#FFC000" transform="matrix(1 0 0 1 1024 886)"/><path d="M37.4646 75.2354C33.1771 75.2354 29.8083 71.7646 29.8083 67.5791 29.8083 63.2916 33.2792 59.9229 37.4646 59.9229 41.7521 59.9229 45.1208 63.3937 45.1208 67.5791 45.1208 71.7646 41.7521 75.2354 37.4646 75.2354L37.4646 75.2354ZM53.0833 58.8 54.7166 54.0021 51.0416 50.3271 46.2437 51.9604C45.0187 51.2458 43.5896 50.7354 42.2625 50.3271L40.0167 45.8354 34.9125 45.8354 32.6667 50.3271C31.2375 50.7354 29.9104 51.2458 28.6854 51.9604L23.8875 50.3271 20.3146 53.9 21.8458 58.6979C21.1312 59.9229 20.6208 61.3521 20.2125 62.6791L15.7208 64.925 15.7208 70.0291 20.2125 72.275C20.6208 73.7041 21.1312 75.0312 21.8458 76.2562L20.3146 81.0541 23.8875 84.6271 28.6854 83.0958C29.9104 83.8104 31.2375 84.3208 32.6667 84.7291L34.9125 89.2208 40.0167 89.2208 42.2625 84.7291C43.6917 84.3208 45.0187 83.8104 46.2437 83.0958L51.0416 84.7291 54.6146 81.0541 53.0833 76.3583C53.7979 75.1333 54.3083 73.8062 54.7166 72.3771L59.2083 70.1312 59.2083 65.0271 54.7166 62.7812C54.3083 61.3521 53.7979 60.025 53.0833 58.8Z" stroke="#BC8C00" stroke-width="1.92156" fill="#FFC000" transform="matrix(1 0 0 1 1024 886)"/></g></g></g><path d="M1536.5 1424.5 1542.5 1424.5 1542.5 1431.5 1536.5 1431.5Z" stroke="#BC8C00" stroke-width="4.58333" stroke-miterlimit="8" fill="#FFC000" fill-rule="evenodd"/><path d="M1536.5 1435.5 1542.5 1435.5 1542.5 1440.5 1536.5 1440.5Z" stroke="#BC8C00" stroke-width="4.58333" stroke-miterlimit="8" fill="#FFC000" fill-rule="evenodd"/><path d="M1546.5 1435.5 1575.5 1435.5 1575.5 1440.5 1546.5 1440.5Z" stroke="#BC8C00" stroke-width="4.58333" stroke-miterlimit="8" fill="#FFC000" fill-rule="evenodd"/><path d="M1503.5 1435.5 1532.5 1435.5 1532.5 1440.5 1503.5 1440.5Z" stroke="#BC8C00" stroke-width="4.58333" stroke-miterlimit="8" fill="#FFC000" fill-rule="evenodd"/><path d="M1567.92 1409.5 1511.08 1409.5C1509.1 1409.5 1507.5 1411 1507.5 1412.86L1507.5 1421.14C1507.5 1423 1509.1 1424.5 1511.08 1424.5L1567.92 1424.5C1569.9 1424.5 1571.5 1423 1571.5 1421.14L1571.5 1412.86C1571.5 1411 1569.9 1409.5 1567.92 1409.5ZM1517.5 1418.88C1516.4 1418.88 1515.5 1418.04 1515.5 1417 1515.5 1415.96 1516.4 1415.12 1517.5 1415.12 1518.6 1415.12 1519.5 1415.96 1519.5 1417 1519.5 1418.04 1518.6 1418.88 1517.5 1418.88ZM1527.5 1418.88C1526.4 1418.88 1525.5 1418.04 1525.5 1417 1525.5 1415.96 1526.4 1415.12 1527.5 1415.12 1528.6 1415.12 1529.5 1415.96 1529.5 1417 1529.5 1418.04 1528.6 1418.88 1527.5 1418.88ZM1537.5 1418.88C1536.4 1418.88 1535.5 1418.04 1535.5 1417 1535.5 1415.96 1536.4 1415.12 1537.5 1415.12 1538.6 1415.12 1539.5 1415.96 1539.5 1417 1539.5 1418.04 1538.6 1418.88 1537.5 1418.88Z" stroke="#BC8C00" stroke-width="4.58333" stroke-miterlimit="8" fill="#FFC000" fill-rule="evenodd"/><path d="M1567.92 1390.5 1511.08 1390.5C1509.1 1390.5 1507.5 1392 1507.5 1393.86L1507.5 1402.14C1507.5 1404 1509.1 1405.5 1511.08 1405.5L1567.92 1405.5C1569.9 1405.5 1571.5 1404 1571.5 1402.14L1571.5 1393.86C1571.5 1392 1569.9 1390.5 1567.92 1390.5ZM1517.5 1399.88C1516.4 1399.88 1515.5 1399.04 1515.5 1398 1515.5 1396.96 1516.4 1396.13 1517.5 1396.13 1518.6 1396.13 1519.5 1396.96 1519.5 1398 1519.5 1399.04 1518.6 1399.88 1517.5 1399.88ZM1527.5 1399.88C1526.4 1399.88 1525.5 1399.04 1525.5 1398 1525.5 1396.96 1526.4 1396.13 1527.5 1396.13 1528.6 1396.13 1529.5 1396.96 1529.5 1398 1529.5 1399.04 1528.6 1399.88 1527.5 1399.88ZM1537.5 1399.88C1536.4 1399.88 1535.5 1399.04 1535.5 1398 1535.5 1396.96 1536.4 1396.13 1537.5 1396.13 1538.6 1396.13 1539.5 1396.96 1539.5 1398 1539.5 1399.04 1538.6 1399.88 1537.5 1399.88Z" stroke="#BC8C00" stroke-width="4.58333" stroke-miterlimit="8" fill="#FFC000" fill-rule="evenodd"/><path d="M1567.92 1371.5 1511.08 1371.5C1509.1 1371.5 1507.5 1373 1507.5 1374.86L1507.5 1383.14C1507.5 1385 1509.1 1386.5 1511.08 1386.5L1567.92 1386.5C1569.9 1386.5 1571.5 1385 1571.5 1383.14L1571.5 1374.86C1571.5 1373 1569.9 1371.5 1567.92 1371.5ZM1517.5 1380.88C1516.4 1380.88 1515.5 1380.04 1515.5 1379 1515.5 1377.96 1516.4 1377.13 1517.5 1377.13 1518.6 1377.13 1519.5 1377.96 1519.5 1379 1519.5 1380.04 1518.6 1380.88 1517.5 1380.88ZM1527.5 1380.88C1526.4 1380.88 1525.5 1380.04 1525.5 1379 1525.5 1377.96 1526.4 1377.13 1527.5 1377.13 1528.6 1377.13 1529.5 1377.96 1529.5 1379 1529.5 1380.04 1528.6 1380.88 1527.5 1380.88ZM1537.5 1380.88C1536.4 1380.88 1535.5 1380.04 1535.5 1379 1535.5 1377.96 1536.4 1377.13 1537.5 1377.13 1538.6 1377.13 1539.5 1377.96 1539.5 1379 1539.5 1380.04 1538.6 1380.88 1537.5 1380.88Z" stroke="#BC8C00" stroke-width="4.58333" stroke-miterlimit="8" fill="#FFC000" fill-rule="evenodd"/></g></svg>