<svg width="3916" height="1573" xmlns="http://www.w3.org/2000/svg" xmlns:xlink="http://www.w3.org/1999/xlink" xml:space="preserve" overflow="hidden"><defs><clipPath id="clip0"><rect x="242" y="526" width="3916" height="1573"/></clipPath><clipPath id="clip1"><rect x="2876" y="1010" width="749" height="750"/></clipPath><clipPath id="clip2"><rect x="2876" y="1010" width="749" height="750"/></clipPath><clipPath id="clip3"><rect x="2876" y="1010" width="749" height="750"/></clipPath><clipPath id="clip4"><rect x="2165" y="1041" width="679" height="680"/></clipPath><clipPath id="clip5"><rect x="2165" y="1041" width="679" height="680"/></clipPath><clipPath id="clip6"><rect x="2165" y="1041" width="679" height="680"/></clipPath></defs><g clip-path="url(#clip0)" transform="translate(-242 -526)"><text fill="#44546A" font-family="Wingdings 3,Wingdings 3_MSFontService,sans-serif" font-weight="400" font-size="110" transform="matrix(1 0 0 1 440.49 962)"><tspan fill="#ED7D31" font-family="Trebuchet MS,Trebuchet MS_MSFontService,sans-serif" font-weight="700" font-size="138" x="144.375" y="0">F</tspan><tspan fill="#595959" font-family="Trebuchet MS,Trebuchet MS_MSFontService,sans-serif" font-size="119" x="224.583" y="0">indable</tspan><tspan font-size="110" x="0" y="323"></tspan><tspan fill="#ED7D31" font-family="Trebuchet MS,Trebuchet MS_MSFontService,sans-serif" font-weight="700" font-size="138" x="136.79" y="323">A</tspan><tspan fill="#595959" font-family="Trebuchet MS,Trebuchet MS_MSFontService,sans-serif" font-size="119" x="223.873" y="323">ccessible</tspan><tspan font-size="110" x="0" y="646"></tspan><tspan fill="#ED7D31" font-family="Trebuchet MS,Trebuchet MS_MSFontService,sans-serif" font-weight="700" font-size="138" x="144.375" y="646">I</tspan><tspan fill="#595959" font-family="Trebuchet MS,Trebuchet MS_MSFontService,sans-serif" font-size="119" x="182.76" y="646">nteroperable</tspan><tspan font-size="110" x="0" y="969"></tspan><tspan fill="#ED7D31" font-family="Trebuchet MS,Trebuchet MS_MSFontService,sans-serif" font-weight="700" font-size="138" x="144.375" y="969">R</tspan><tspan fill="#595959" font-family="Trebuchet MS,Trebuchet MS_MSFontService,sans-serif" font-size="119" x="228.594" y="969">e</tspan><tspan fill="#595959" font-family="Trebuchet MS,Trebuchet MS_MSFontService,sans-serif" font-size="119" x="293.333" y="969">-</tspan><tspan fill="#595959" font-family="Trebuchet MS,Trebuchet MS_MSFontService,sans-serif" font-size="119" x="336.875" y="969">usable</tspan></text><g clip-path="url(#clip1)"><g clip-path="url(#clip2)"><g clip-path="url(#clip3)"><path d="M569.505 465.004 569.505 393.911C569.488 378.886 557.309 366.711 542.284 366.698L507.088 366.698 507.088 327.687 418.66 327.687 418.66 304.281 441.637 304.281C464.849 304.259 483.66 285.448 483.682 262.236L483.682 174.681C483.66 151.469 464.849 132.657 441.637 132.635L382.255 132.635 382.255 108.121C398.944 103.812 408.98 86.7903 404.67 70.1018 400.361 53.4133 383.34 43.3776 366.651 47.6865 349.962 51.9956 339.926 69.0174 344.236 85.7058 347.074 96.699 355.658 105.283 366.651 108.121L366.651 132.635 307.262 132.635C284.053 132.661 265.246 151.472 265.224 174.681L265.224 262.236C265.246 285.445 284.053 304.255 307.262 304.281L332.837 304.281 332.837 327.687 241.818 327.687 241.818 374.445 192.306 374.445C185.899 374.441 180.705 369.251 180.696 362.844L180.696 291.743C203.998 287.421 219.384 265.027 215.062 241.726 213.638 234.051 210.148 226.91 204.968 221.072L193.312 231.449C203.325 242.727 202.3 259.986 191.022 269.999 179.745 280.012 162.485 278.987 152.472 267.71 143.344 257.429 143.283 241.966 152.328 231.613L140.578 221.337C124.996 239.195 126.841 266.301 144.698 281.883 150.49 286.937 157.533 290.343 165.092 291.743L165.092 362.844C165.109 377.865 177.284 390.036 192.306 390.049L241.818 390.049 241.818 554.143C205.277 556.317 177.419 587.701 179.593 624.241 181.675 659.241 210.657 686.564 245.719 686.583L503.187 686.583C539.792 686.563 569.45 656.873 569.43 620.268 569.411 585.207 542.089 556.225 507.088 554.143L507.088 382.302 542.284 382.302C548.693 382.31 553.888 387.502 553.901 393.911L553.901 465.004C530.599 469.326 515.213 491.719 519.534 515.022 520.957 522.693 524.444 529.83 529.621 535.667L541.277 525.291C531.266 514.011 532.295 496.751 543.574 486.741 554.853 476.73 572.113 477.758 582.124 489.037 591.25 499.32 591.309 514.784 582.261 525.135L594.011 535.402C609.59 517.542 607.741 490.436 589.881 474.857 584.093 469.808 577.057 466.406 569.505 465.004ZM358.849 78.0208C358.849 69.4028 365.835 62.4166 374.453 62.4166 383.071 62.4166 390.057 69.4028 390.057 78.0208 390.057 86.639 383.071 93.625 374.453 93.625 365.835 93.6296 358.846 86.6468 358.841 78.0286 358.841 78.0263 358.841 78.0231 358.841 78.0208ZM257.422 460.869 321.204 460.869 346.623 406.839 370.505 498.342 402.736 432.025 423.021 480.163 438.75 464.083C440.832 462.174 443.512 461.046 446.334 460.892L491.461 460.892 491.461 553.948 257.398 553.948ZM307.262 288.677C292.668 288.655 280.845 276.829 280.828 262.236L280.828 174.681C280.845 160.088 292.668 148.261 307.262 148.24L441.637 148.24C456.231 148.261 468.056 160.086 468.078 174.681L468.078 262.236C468.056 276.83 456.231 288.655 441.637 288.677L307.262 288.677ZM348.441 304.281 403.055 304.281 403.055 327.687 348.441 327.687ZM332.837 343.292 491.484 343.292 491.484 445.265 446.357 445.265C439.667 445.402 433.254 447.964 428.311 452.474L403.734 394.223 374.937 453.519 350.844 361.236 311.303 445.265 257.422 445.265 257.422 343.292ZM553.901 620.265C553.867 648.259 531.181 670.945 503.187 670.979L245.719 670.979C217.71 670.979 195.005 648.274 195.005 620.265 195.005 592.257 217.71 569.552 245.719 569.552L503.187 569.552C531.181 569.586 553.867 592.271 553.901 620.265Z" stroke="#ED7D31" stroke-width="4.60215" fill="#FFFFFF" transform="matrix(1 0 0 1 2876 1011)"/><path d="M447.005 218.458C447.005 199.93 431.984 184.909 413.456 184.909 394.927 184.909 379.907 199.93 379.907 218.458 379.907 236.987 394.927 252.007 413.456 252.007 431.984 252.007 447.005 236.987 447.005 218.458ZM413.456 241.864C400.528 241.864 390.049 231.385 390.049 218.458 390.049 205.531 400.528 195.052 413.456 195.052 426.383 195.052 436.862 205.531 436.862 218.458 436.862 231.385 426.383 241.864 413.456 241.864Z" stroke="#ED7D31" stroke-width="4.60215" fill="#FFFFFF" transform="matrix(1 0 0 1 2876 1011)"/><path d="M425.159 218.458C425.159 224.922 419.919 230.161 413.456 230.161 406.992 230.161 401.753 224.922 401.753 218.458 401.753 211.995 406.992 206.755 413.456 206.755 419.919 206.755 425.159 211.995 425.159 218.458Z" stroke="#ED7D31" stroke-width="4.60215" fill="#FFFFFF" transform="matrix(1 0 0 1 2876 1011)"/><path d="M335.435 184.909C316.906 184.909 301.886 199.93 301.886 218.458 301.886 236.987 316.906 252.007 335.435 252.007 353.963 252.007 368.984 236.987 368.984 218.458 368.984 199.93 353.963 184.909 335.435 184.909ZM335.435 241.864C322.508 241.864 312.029 231.385 312.029 218.458 312.029 205.531 322.508 195.052 335.435 195.052 348.362 195.052 358.841 205.531 358.841 218.458 358.841 231.385 348.362 241.864 335.435 241.864Z" stroke="#ED7D31" stroke-width="4.60215" fill="#FFFFFF" transform="matrix(1 0 0 1 2876 1011)"/><path d="M347.138 218.458C347.138 224.922 341.898 230.161 335.435 230.161 328.971 230.161 323.732 224.922 323.732 218.458 323.732 211.995 328.971 206.755 335.435 206.755 341.898 206.755 347.138 211.995 347.138 218.458Z" stroke="#ED7D31" stroke-width="4.60215" fill="#FFFFFF" transform="matrix(1 0 0 1 2876 1011)"/><path d="M390.057 620.265C390.057 628.883 383.071 635.87 374.453 635.87 365.835 635.87 358.849 628.883 358.849 620.265 358.849 611.647 365.835 604.661 374.453 604.661 383.071 604.661 390.057 611.647 390.057 620.265Z" stroke="#ED7D31" stroke-width="4.60215" fill="#FFFFFF" transform="matrix(1 0 0 1 2876 1011)"/><path d="M276.927 620.265C276.927 628.883 269.941 635.87 261.323 635.87 252.705 635.87 245.719 628.883 245.719 620.265 245.719 611.647 252.705 604.661 261.323 604.661 269.941 604.661 276.927 611.647 276.927 620.265Z" stroke="#ED7D31" stroke-width="4.60215" fill="#FFFFFF" transform="matrix(1 0 0 1 2876 1011)"/><path d="M503.187 620.265C503.187 628.883 496.201 635.87 487.583 635.87 478.965 635.87 471.979 628.883 471.979 620.265 471.979 611.647 478.965 604.661 487.583 604.661 496.201 604.661 503.187 611.647 503.187 620.265Z" stroke="#ED7D31" stroke-width="4.60215" fill="#FFFFFF" transform="matrix(1 0 0 1 2876 1011)"/></g></g></g><g clip-path="url(#clip4)"><g clip-path="url(#clip5)"><g clip-path="url(#clip6)"><path d="M401.016 240.125 401.016 240.125C397.115 240.125 393.953 243.287 393.953 247.187L395.5 642.687 346.062 642.687 346.062 402.562 331.937 402.562 331.937 642.687 282.5 642.687 282.5 247.187C282.5 243.287 279.338 240.125 275.437 240.125 271.537 240.125 268.375 243.287 268.375 247.187L268.375 656.812 409.625 656.812 408.05 247.187C408.05 243.298 404.905 240.141 401.016 240.125Z" stroke="#ED7D31" stroke-width="4.65979" fill="#FFFFFF" transform="matrix(1 0 0 1 2166 1042)"/><path d="M339 134.187C370.204 134.187 395.5 108.892 395.5 77.6875 395.5 46.4834 370.204 21.1875 339 21.1875 307.796 21.1875 282.5 46.4834 282.5 77.6875 282.535 108.877 307.811 134.152 339 134.187ZM339 35.3125C362.403 35.3125 381.375 54.2844 381.375 77.6875 381.375 101.09 362.403 120.062 339 120.062 315.597 120.062 296.625 101.09 296.625 77.6875 296.648 54.2941 315.607 35.3359 339 35.3125Z" stroke="#ED7D31" stroke-width="4.65979" fill="#FFFFFF" transform="matrix(1 0 0 1 2166 1042)"/><path d="M472.884 372.504 450.686 215.131C450.052 209.816 448.453 204.66 445.969 199.918 444.399 197.059 442.544 194.366 440.432 191.881 424.915 175.35 405.537 162.928 384.037 155.728 369.783 150.777 354.795 148.269 339.706 148.312 339.241 148.51 338.716 148.51 338.251 148.312 323.206 148.262 308.26 150.758 294.047 155.693 272.391 162.952 252.887 175.497 237.3 192.192 235.299 194.59 233.537 197.178 232.038 199.918 229.553 204.662 227.954 209.82 227.321 215.138L205.081 372.829C202.962 395.507 213.754 405.048 223.182 409.06 224.054 409.434 224.994 409.626 225.943 409.625 229.844 409.625 233.006 406.464 233.007 402.563 233.007 399.732 231.317 397.174 228.712 396.065 223.917 394.024 217.702 389.532 219.107 374.475L241.297 217.115C241.703 213.486 242.761 209.96 244.419 206.705 245.412 204.883 246.567 203.156 247.873 201.543 261.838 186.671 279.284 175.507 298.638 169.055 311.138 164.667 324.29 162.43 337.538 162.437 337.771 162.437 338.004 162.437 338.244 162.437 338.499 162.4 338.751 162.348 339 162.282 339.251 162.348 339.506 162.4 339.763 162.437L339.805 162.437C353.31 162.372 366.725 164.625 379.468 169.097 398.657 175.492 415.967 186.531 429.859 201.232 431.272 202.932 432.519 204.765 433.581 206.705 435.238 209.957 436.296 213.481 436.703 217.108L458.858 374.15C460.27 389.532 454.083 394.024 449.288 396.044 445.687 397.545 443.985 401.68 445.486 405.28 446.59 407.928 449.187 409.645 452.056 409.625 453.006 409.626 453.946 409.434 454.818 409.06 464.246 405.048 475.045 395.5 472.884 372.504Z" stroke="#ED7D31" stroke-width="4.65979" fill="#FFFFFF" transform="matrix(1 0 0 1 2166 1042)"/></g></g></g><text fill="#595959" font-family="Trebuchet MS,Trebuchet MS_MSFontService,sans-serif" font-weight="400" font-size="128" transform="matrix(1 0 0 1 2069.08 1993)">… for humans and machines</text></g></svg>