<svg width="1436" height="1527" xmlns="http://www.w3.org/2000/svg" xmlns:xlink="http://www.w3.org/1999/xlink" xml:space="preserve" overflow="hidden"><defs><clipPath id="clip0"><rect x="2557" y="462" width="1436" height="1527"/></clipPath><clipPath id="clip1"><rect x="3118" y="462" width="763" height="764"/></clipPath><clipPath id="clip2"><rect x="3118" y="462" width="763" height="764"/></clipPath><clipPath id="clip3"><rect x="3118" y="462" width="763" height="764"/></clipPath></defs><g clip-path="url(#clip0)" transform="translate(-2557 -462)"><g clip-path="url(#clip1)"><g clip-path="url(#clip2)"><g clip-path="url(#clip3)"><path d="M307.181 228.656 307.181 227.068 261.144 227.068 261.144 181.824 259.556 181.824 259.556 227.068 213.519 227.068 213.519 182.618 211.931 182.618 211.931 274.271 165.471 274.271 165.471 275.858 211.931 275.858 211.931 314.381 213.519 314.381 213.519 275.858 259.556 275.858 259.556 292.156 261.144 292.156 261.144 275.858 306.759 275.858 306.759 274.271 261.144 274.271 261.144 228.656 307.181 228.656ZM259.556 274.271 213.519 274.271 213.519 228.656 259.556 228.656 259.556 274.271Z" fill="#E4E4E4" transform="matrix(1 0 0 1.00131 3119 462)"/><path d="M332.064 191.273C332.064 203.186 322.407 212.843 310.494 212.843 298.582 212.843 288.925 203.186 288.925 191.273 288.925 179.361 298.582 169.704 310.494 169.704 322.407 169.704 332.064 179.361 332.064 191.273Z" fill="#E6E6E6" transform="matrix(1 0 0 1.00131 3119 462)"/><path d="M327.75 192.86C326.873 192.86 326.162 192.149 326.162 191.272 326.162 182.633 319.134 175.605 310.494 175.605 309.618 175.605 308.907 174.893 308.907 174.017 308.907 173.141 309.618 172.43 310.494 172.43 320.885 172.43 329.337 180.882 329.337 191.272 329.337 192.149 328.626 192.86 327.75 192.86Z" fill="#FFFFFF" transform="matrix(1 0 0 1.00131 3119 462)"/><path d="M544.513 453.745 539.75 453.745 539.75 143.389C539.75 136.604 534.231 131.085 527.447 131.085L473.472 131.085C466.688 131.085 461.169 136.604 461.169 143.389L461.169 171.814 473.472 171.814C482.882 171.814 490.538 179.469 490.538 188.879L490.538 199.198C490.538 208.608 482.882 216.264 473.472 216.264 464.062 216.264 456.406 208.608 456.406 199.198L456.406 176.576 383.778 176.576C376.994 176.576 371.475 182.095 371.475 188.879L371.475 327.539 366.713 327.539 366.713 188.879C366.713 179.469 374.368 171.814 383.778 171.814L456.406 171.814 456.406 143.389C456.406 133.979 464.062 126.323 473.472 126.323L527.447 126.323C536.857 126.323 544.513 133.979 544.513 143.389L544.513 453.745ZM461.169 176.576 461.169 199.198C461.169 205.982 466.688 211.501 473.472 211.501 480.256 211.501 485.775 205.982 485.775 199.198L485.775 188.879C485.775 182.095 480.256 176.576 473.472 176.576L461.169 176.576Z" fill="#E4E4E4" transform="matrix(1 0 0 1.00131 3119 462)"/><path d="M482.607 454.293C482.606 454.376 482.6 454.456 482.6 454.539L482.6 454.539C482.6 487.417 509.253 514.07 542.131 514.07L542.131 514.07C575.01 514.07 601.663 487.417 601.663 454.539L601.663 454.539C601.663 454.456 601.657 454.376 601.657 454.293 601.657 454.293 576.104 447.939 542.131 447.939 508.159 447.939 482.607 454.293 482.607 454.293Z" fill="#C4C4C4" transform="matrix(1 0 0 1.00131 3119 462)"/><path d="M618.662 386.701 615.634 383.673C610.658 378.697 602.59 378.697 597.615 383.673L575.821 405.467C571.572 402.542 566.924 400.159 561.975 398.409L561.975 337.401 522.288 337.401 522.288 398.409C499.244 406.557 482.711 428.483 482.607 454.294L601.657 454.294C601.619 444.837 599.365 435.907 595.405 427.978L618.662 404.721C623.638 399.744 623.638 391.677 618.662 386.701Z" fill="#E4E4E4" transform="matrix(1 0 0 1.00131 3119 462)"/><path d="M3738.45 833.784 3750.03 845.375 3720.98 874.458 3709.41 862.867Z" fill="#C4C4C4"/><path d="M625.56 399.717 602.618 376.775C601.688 375.845 601.688 374.337 602.618 373.407L603.46 372.565C604.391 371.635 605.898 371.635 606.828 372.565L629.77 395.507C630.7 396.437 630.7 397.944 629.77 398.875L628.928 399.717C627.998 400.647 626.49 400.647 625.56 399.717Z" fill="#E4E4E4" transform="matrix(1 0 0 1.00131 3119 462)"/><path d="M542.131 507.277C540.816 507.277 539.75 506.211 539.75 504.896L539.75 454.294C539.75 452.979 540.816 451.913 542.131 451.913 543.447 451.913 544.513 452.979 544.513 454.294L544.513 504.896C544.513 506.21 543.447 507.277 542.131 507.277Z" fill="#FFFFFF" transform="matrix(1 0 0 1.00131 3119 462)"/><path d="M587.375 433.229C587.375 435.421 585.598 437.198 583.406 437.198 581.214 437.198 579.438 435.421 579.438 433.229 579.438 431.037 581.214 429.26 583.406 429.26 585.598 429.26 587.375 431.037 587.375 433.229Z" fill="#E6E6E6" transform="matrix(1 0 0 1.00131 3119 462)"/><path d="M573.881 439.976C573.881 443.264 571.216 445.929 567.928 445.929 564.64 445.929 561.975 443.264 561.975 439.976 561.975 436.688 564.64 434.023 567.928 434.023 571.216 434.023 573.881 436.688 573.881 439.976Z" fill="#FFFFFF" transform="matrix(1 0 0 1.00131 3119 462)"/><path d="M533.4 420.926C533.4 424.214 530.735 426.879 527.447 426.879 524.159 426.879 521.494 424.214 521.494 420.926 521.494 417.638 524.159 414.973 527.447 414.973 530.735 414.973 533.4 417.638 533.4 420.926Z" fill="#FFFFFF" transform="matrix(1 0 0 1.00131 3119 462)"/><path d="M531.019 327.534 552.847 327.534 552.847 377.148 531.019 377.148Z" fill="#C4C4C4" transform="matrix(1 0 0 1.00131 3119 462)"/><path d="M563.761 343.168 520.502 343.168C518.748 343.168 517.327 341.747 517.327 339.993L517.327 338.406C517.327 336.652 518.748 335.231 520.502 335.231L563.761 335.231C565.514 335.231 566.936 336.652 566.936 338.406L566.936 339.993C566.936 341.747 565.514 343.168 563.761 343.168Z" fill="#E4E4E4" transform="matrix(1 0 0 1.00131 3119 462)"/><path d="M423.536 376.076 409.326 335.466C409.326 335.466 389.837 328.771 369.093 328.771 348.349 328.771 328.543 335.466 328.543 335.466L314.334 376.076C311.829 386.095 319.407 395.801 329.735 395.801L408.134 395.801C418.463 395.801 426.041 386.095 423.536 376.076Z" fill="#0BB5DD" transform="matrix(1 0 0 1.00131 3119 462)"/><path d="M388.78 276.739 388.78 219.131 349.092 219.131 349.092 276.739 328.544 335.466 409.327 335.466Z" fill="#E4E4E4" transform="matrix(1 0 0 1.00131 3119 462)"/><path d="M369.078 388.449C367.763 388.449 366.697 387.383 366.697 386.067L366.697 335.466C366.697 334.151 367.763 333.085 369.078 333.085 370.393 333.085 371.459 334.151 371.459 335.466L371.459 386.067C371.459 387.383 370.393 388.449 369.078 388.449Z" fill="#FFFFFF" transform="matrix(1 0 0 1.00131 3119 462)"/><path d="M404.797 353.325C404.797 355.517 403.02 357.294 400.828 357.294 398.636 357.294 396.859 355.517 396.859 353.325 396.859 351.133 398.636 349.356 400.828 349.356 403.02 349.356 404.797 351.133 404.797 353.325Z" fill="#FFFFFF" transform="matrix(1 0 0 1.00131 3119 462)"/><path d="M396.859 367.216C396.859 370.504 394.194 373.169 390.906 373.169 387.618 373.169 384.953 370.504 384.953 367.216 384.953 363.928 387.618 361.263 390.906 361.263 394.194 361.263 396.859 363.928 396.859 367.216Z" fill="#FFFFFF" transform="matrix(1 0 0 1.00131 3119 462)"/><path d="M357.981 208.868 379.809 208.868 379.809 258.482 357.981 258.482Z" fill="#737373" transform="matrix(1 0 0 1.00131 3119 462)"/><path d="M390.566 224.341 347.306 224.341C345.553 224.341 344.131 222.919 344.131 221.166L344.131 219.578C344.131 217.825 345.553 216.403 347.306 216.403L390.566 216.403C392.319 216.403 393.741 217.825 393.741 219.578L393.741 221.166C393.741 222.919 392.319 224.341 390.566 224.341Z" fill="#E4E4E4" transform="matrix(1 0 0 1.00131 3119 462)"/><path d="M202.261 562.728 216.471 522.118C216.471 522.118 235.225 515.461 256.651 515.461 278.077 515.461 297.252 522.118 297.252 522.118L311.462 562.728C313.967 572.748 306.388 582.454 296.061 582.454L217.662 582.454C207.335 582.454 199.757 572.748 202.261 562.728Z" fill="#505050" transform="matrix(1 0 0 1.00131 3119 462)"/><path d="M276.705 463.391 276.705 405.784 237.018 405.784 237.018 463.391 216.471 522.118 297.252 522.118Z" fill="#E4E4E4" transform="matrix(1 0 0 1.00131 3119 462)"/><path d="M256.719 575.101C255.403 575.101 254.337 574.035 254.337 572.72L254.337 524.51C254.337 523.195 255.403 522.129 256.719 522.129 258.034 522.129 259.1 523.195 259.1 524.51L259.1 572.72C259.1 574.035 258.034 575.101 256.719 575.101Z" fill="#737373" transform="matrix(1 0 0 1.00131 3119 462)"/><path d="M277.019 498.316C277.019 500.508 275.242 502.285 273.05 502.285 270.858 502.285 269.081 500.508 269.081 498.316 269.081 496.124 270.858 494.348 273.05 494.348 275.242 494.348 277.019 496.124 277.019 498.316Z" fill="#D2D2D2" transform="matrix(1 0 0 1.00131 3119 462)"/><path d="M269.875 483.632C269.875 486.92 267.21 489.585 263.922 489.585 260.634 489.585 257.969 486.92 257.969 483.632 257.969 480.344 260.634 477.679 263.922 477.679 267.21 477.679 269.875 480.344 269.875 483.632Z" fill="#D2D2D2" transform="matrix(1 0 0 1.00131 3119 462)"/><path d="M259.085 473.985 254.322 473.985 254.322 375.532C254.322 368.748 248.803 363.229 242.019 363.229L230.981 363.229 230.981 385.851C230.981 395.261 223.326 402.916 213.916 402.916 204.506 402.916 196.85 395.261 196.85 385.851L196.85 375.532C196.85 366.122 204.506 358.466 213.916 358.466L226.219 358.466 226.219 348.767C226.219 339.357 233.874 331.701 243.284 331.701L305.956 331.701 305.956 336.464 243.284 336.464C236.5 336.464 230.981 341.982 230.981 348.767L230.981 358.466 242.019 358.466C251.429 358.466 259.085 366.122 259.085 375.532L259.085 473.985ZM213.916 363.229C207.131 363.229 201.613 368.748 201.613 375.532L201.613 385.851C201.613 392.635 207.131 398.154 213.916 398.154 220.7 398.154 226.219 392.635 226.219 385.851L226.219 363.229 213.916 363.229Z" fill="#E4E4E4" transform="matrix(1 0 0 1.00131 3119 462)"/><path d="M245.988 395.521 267.816 395.521 267.816 445.135 245.988 445.135Z" fill="#737373" transform="matrix(-1 -4.47728e-11 4.47141e-11 -1.00131 3632.8 1303.76)"/><path d="M235.232 410.993 278.491 410.993C280.245 410.993 281.666 409.572 281.666 407.818L281.666 406.231C281.666 404.478 280.245 403.056 278.491 403.056L235.232 403.056C233.478 403.056 232.057 404.478 232.057 406.231L232.057 407.818C232.057 409.572 233.478 410.993 235.232 410.993Z" fill="#E4E4E4" transform="matrix(1 0 0 1.00131 3119 462)"/><path d="M337.344 602.681C337.344 608.978 342.448 614.082 348.745 614.082 355.042 614.082 360.147 608.978 360.147 602.681L360.147 518.934C360.147 518.934 354.698 516.731 348.745 516.731 342.792 516.731 337.344 518.934 337.344 518.934L337.344 602.681Z" fill="#0BB5DD" transform="matrix(1 0 0 1.00131 3119 462)"/><path d="M337.344 452.157 360.147 452.157 360.147 518.934 337.344 518.934Z" fill="#E6E6E6" transform="matrix(1 0 0 1.00131 3119 462)"/><path d="M342.241 556.617C341.365 556.617 340.654 555.905 340.654 555.029L340.654 541.337C340.654 540.461 341.365 539.749 342.241 539.749 343.118 539.749 343.829 540.461 343.829 541.337L343.829 555.029C343.829 555.905 343.118 556.617 342.241 556.617Z" fill="#FFFFFF" transform="matrix(1 0 0 1.00131 3119 462)"/><path d="M373.726 602.681C373.726 608.978 378.831 614.082 385.128 614.082 391.424 614.082 396.529 608.978 396.529 602.681L396.529 564.54C396.529 564.54 390.446 562.213 385.128 562.213 379.809 562.213 373.726 564.54 373.726 564.54L373.726 602.681Z" fill="#0BB5DD" transform="matrix(1 0 0 1.00131 3119 462)"/><path d="M373.726 452.157 396.53 452.157 396.53 564.54 373.726 564.54Z" fill="#E6E6E6" transform="matrix(1 0 0 1.00131 3119 462)"/><path d="M378.992 514.349C378.116 514.349 377.404 513.638 377.404 512.762L377.404 467.518C377.404 466.642 378.116 465.931 378.992 465.931 379.868 465.931 380.579 466.642 380.579 467.518L380.579 512.762C380.579 513.638 379.869 514.349 378.992 514.349Z" fill="#FFFFFF" transform="matrix(1 0 0 1.00131 3119 462)"/><path d="M378.992 588.763C378.116 588.763 377.404 588.052 377.404 587.176L377.404 573.484C377.404 572.607 378.116 571.896 378.992 571.896 379.868 571.896 380.579 572.607 380.579 573.484L380.579 587.176C380.579 588.052 379.869 588.763 378.992 588.763Z" fill="#FFFFFF" transform="matrix(1 0 0 1.00131 3119 462)"/><path d="M409.893 602.681C409.893 608.978 414.998 614.082 421.295 614.082 427.592 614.082 432.696 608.978 432.696 602.681L432.696 542.497C432.696 542.497 428.042 539.591 421.295 539.591 414.548 539.591 409.893 542.497 409.893 542.497L409.893 602.681Z" fill="#737373" transform="matrix(1 0 0 1.00131 3119 462)"/><path d="M409.893 452.157 432.697 452.157 432.697 542.497 409.893 542.497Z" fill="#E6E6E6" transform="matrix(1 0 0 1.00131 3119 462)"/><path d="M416.5 514.349C415.623 514.349 414.912 513.638 414.912 512.762L414.912 467.518C414.912 466.642 415.623 465.931 416.5 465.931 417.376 465.931 418.087 466.642 418.087 467.518L418.087 512.762C418.087 513.638 417.377 514.349 416.5 514.349Z" fill="#FFFFFF" transform="matrix(1 0 0 1.00131 3119 462)"/><path d="M416.5 563.165C415.623 563.165 414.912 562.454 414.912 561.577L414.912 547.885C414.912 547.009 415.623 546.298 416.5 546.298 417.376 546.298 418.087 547.009 418.087 547.885L418.087 561.577C418.087 562.454 417.377 563.165 416.5 563.165Z" fill="#FFFFFF" transform="matrix(1 0 0 1.00131 3119 462)"/><path d="M446.303 519.589 446.303 602.681C446.303 608.978 451.407 614.082 457.704 614.082 464.001 614.082 469.106 608.978 469.106 602.681L469.106 519.569C469.106 519.569 464.611 517.525 457.705 517.525 450.799 517.525 446.303 519.589 446.303 519.589Z" fill="#C4C4C4" transform="matrix(1 0 0 1.00131 3119 462)"/><path d="M446.303 452.157 469.106 452.157 469.106 519.626 446.303 519.626Z" fill="#E6E6E6" transform="matrix(1 0 0 1.00131 3119 462)"/><path d="M452.405 514.349C451.529 514.349 450.818 513.638 450.818 512.762L450.818 467.518C450.818 466.642 451.529 465.931 452.405 465.931 453.281 465.931 453.992 466.642 453.992 467.518L453.992 512.762C453.992 513.638 453.281 514.349 452.405 514.349Z" fill="#FFFFFF" transform="matrix(1 0 0 1.00131 3119 462)"/><path d="M452.405 556.617C451.529 556.617 450.818 555.905 450.818 555.029L450.818 541.337C450.818 540.461 451.529 539.749 452.405 539.749 453.281 539.749 453.992 540.461 453.992 541.337L453.992 555.029C453.992 555.905 453.281 556.617 452.405 556.617Z" fill="#FFFFFF" transform="matrix(1 0 0 1.00131 3119 462)"/><path d="M328.613 517.366 476.25 517.366 476.25 523.716 328.613 523.716Z" fill="#C4C4C4" transform="matrix(1 0 0 1.00131 3119 462)"/><path d="M573.088 612.098 509.588 612.098 509.588 604.111C509.588 598.878 513.83 594.635 519.063 594.635L563.611 594.635C568.844 594.635 573.087 598.878 573.087 604.111L573.087 612.098Z" fill="#E4E4E4" transform="matrix(1 0 0 1.00131 3119 462)"/><path d="M525.463 570.498C525.463 561.731 541.338 541.923 541.338 541.923 541.338 541.923 557.213 561.731 557.213 570.498 557.213 579.266 550.105 586.373 541.338 586.373 532.57 586.373 525.463 579.265 525.463 570.498Z" fill="#0BB5DD" transform="matrix(1 0 0 1.00131 3119 462)"/><path d="M531.813 577.642C531.813 572.382 541.338 561.767 541.338 561.767 541.338 561.767 550.863 572.382 550.863 577.642 550.863 582.902 546.598 587.167 541.338 587.167 536.077 587.167 531.813 582.902 531.813 577.642Z" fill="#FFFFFF" transform="matrix(1 0 0 1.00131 3119 462)"/><path d="M527.447 587.564 555.228 587.564 555.228 595.501 527.447 595.501Z" fill="#505050" transform="matrix(1 0 0 1.00131 3119 462)"/><path d="M540.88 584.786 539.75 573.673C539.661 572.796 540.299 572.014 541.176 571.924 542.053 571.835 542.835 572.473 542.925 573.35 542.936 573.457 542.935 573.571 542.925 573.673L541.795 584.786C541.769 585.038 541.544 585.222 541.292 585.196 541.07 585.174 540.902 584.999 540.88 584.786Z" fill="#D2D2D2" transform="matrix(1 0 0 1.00131 3119 462)"/><path d="M564.356 601.454 525.463 601.454C525.024 601.454 524.669 601.098 524.669 600.66 524.669 600.222 525.024 599.866 525.463 599.866L564.356 599.866C564.794 599.866 565.15 600.222 565.15 600.66 565.15 601.098 564.794 601.454 564.356 601.454Z" fill="#FFFFFF" transform="matrix(1 0 0 1.00131 3119 462)"/><path d="M570.861 392.626 474.633 392.626C472.801 386.998 468.063 382.681 462.183 381.464L462.183 292.266C469.76 290.697 475.456 283.987 475.456 275.945 475.456 267.903 469.76 261.192 462.183 259.624L462.183 226.732 455.833 226.732 455.833 259.553C448.846 260.805 443.383 266.403 442.324 273.456L316.724 272.77 316.689 279.12 442.587 279.808C444.108 286.206 449.306 291.167 455.833 292.337L455.833 381.394C448.039 382.79 442.119 389.59 442.119 397.785 442.119 405.982 448.039 412.781 455.833 414.177L455.833 437.076 462.183 437.076 462.183 414.107C469.382 412.617 474.865 406.481 475.396 398.976L570.861 398.976 570.861 392.626Z" fill="#C4C4C4" transform="matrix(1 0 0 1.00131 3119 462)"/><path d="M452.438 283.882C451.828 283.882 451.218 283.65 450.754 283.185 449.824 282.255 449.824 280.747 450.754 279.818L463.851 266.721C464.78 265.79 466.289 265.79 467.218 266.721 468.148 267.65 468.148 269.158 467.218 270.088L454.121 283.185C453.657 283.65 453.047 283.882 452.438 283.882Z" fill="#E6E6E6" transform="matrix(1 0 0 1.00131 3119 462)"/><path d="M466.328 406.914C465.719 406.914 465.109 406.681 464.645 406.216L451.548 393.119C450.617 392.19 450.617 390.681 451.548 389.752 452.477 388.822 453.985 388.822 454.915 389.752L468.012 402.849C468.942 403.778 468.942 405.286 468.012 406.216 467.547 406.681 466.938 406.914 466.328 406.914Z" fill="#E6E6E6" transform="matrix(1 0 0 1.00131 3119 462)"/><path d="M167.415 602.298 167.415 473.265C174.677 471.822 180.225 465.661 180.76 458.11L282.575 458.11 282.575 451.76 179.996 451.76C178.151 446.09 173.355 441.755 167.415 440.575L167.415 185.579 161.065 185.579 161.065 440.548C153.336 441.997 147.482 448.77 147.482 456.92 147.482 465.07 153.335 471.843 161.065 473.292L161.065 602.298 131.763 602.298 131.763 608.648 140.494 608.648 140.494 614.998 165.1 614.998 165.1 608.648 280.194 608.648 280.194 614.998 304.8 614.998 304.8 608.648 314.325 608.648 314.325 602.298 167.415 602.298Z" fill="#C4C4C4" transform="matrix(1 0 0 1.00131 3119 462)"/><path d="M171.692 466.048C171.083 466.048 170.473 465.815 170.009 465.35L156.912 452.253C155.981 451.324 155.981 449.816 156.912 448.886 157.841 447.956 159.349 447.956 160.279 448.886L173.376 461.983C174.306 462.913 174.306 464.421 173.376 465.35 172.911 465.815 172.301 466.048 171.692 466.048Z" fill="#E6E6E6" transform="matrix(1 0 0 1.00131 3119 462)"/></g></g></g><path d="M3157.98 1989 3157.98 1834.05C3158.59 1809.49 3147.27 1786.23 3127.8 1772.04 3084.46 1737.37 3034.25 1712.97 2980.72 1700.55 2940.55 1688.13 2898.97 1681.22 2857.05 1680 2815.32 1679.9 2773.83 1686.54 2734.08 1699.66 2681.32 1714.28 2631.51 1738.49 2587.01 1771.15 2568.21 1785.9 2557.12 1808.81 2557 1833.16L2557 1989Z" fill="#75797C" fill-rule="evenodd"/><path d="M3007 1482.5C3007 1567.83 2939.62 1637 2856.5 1637 2773.38 1637 2706 1567.83 2706 1482.5 2706 1397.17 2773.38 1328 2856.5 1328 2939.62 1328 3007 1397.17 3007 1482.5Z" fill="#75797C" fill-rule="evenodd"/><path d="M3142.55 770.054C3131.72 695.315 3187.5 626.485 3267.14 616.319 3299.41 612.199 3332.22 618.358 3360.32 633.808 3390.1 581.134 3459.68 561.115 3515.74 589.095 3525.54 593.987 3534.54 600.188 3542.45 607.505 3565.64 563.842 3622.13 546.102 3668.62 567.883 3681.48 573.911 3692.71 582.63 3701.43 593.369 3738.81 552.077 3804.86 546.977 3848.96 581.976 3867.49 596.686 3879.98 616.976 3884.29 639.366 3945.53 655.049 3981.67 714.453 3964.99 772.05 3963.59 776.892 3961.83 781.637 3959.72 786.249 4008.84 846.264 3996.82 932.283 3932.87 978.378 3912.96 992.726 3889.45 1002.02 3864.6 1005.35 3864.05 1069.92 3807.78 1121.84 3738.93 1121.32 3715.93 1121.15 3693.42 1115.01 3673.91 1103.59 3650.62 1175.97 3569.39 1216.89 3492.47 1194.97 3460.24 1185.79 3432.39 1166.36 3413.67 1140.01 3334.92 1184.59 3232.7 1160.61 3185.36 1086.45 3184.76 1085.51 3184.18 1084.57 3183.6 1083.62 3132.06 1089.29 3085.38 1054.77 3079.33 1006.53 3076.1 980.814 3085.15 955.077 3104.05 936.175 3059.42 911.518 3044.43 857.396 3070.57 815.29 3085.64 790.999 3112.09 774.941 3141.76 772.054Z" stroke="#75797C" stroke-width="4.58333" stroke-miterlimit="8" fill="none" fill-rule="evenodd"/><path d="M3159.64 945.519C3140.59 946.919 3121.54 942.786 3105.05 933.675M3207.8 1075.14C3200.14 1078 3192.11 1079.91 3183.92 1080.81M3413.62 1137.42C3407.85 1129.31 3403.03 1120.64 3399.22 1111.56M3679.75 1072.94C3678.9 1082.56 3676.97 1092.07 3674 1101.31M3794.01 897.622C3837.21 917.354 3864.47 958.609 3864.08 1003.67M3959.29 784.678C3952.29 800.02 3941.61 813.631 3928.08 824.441M3884.42 637.136C3885.61 643.332 3886.16 649.621 3886.06 655.916M3685.16 615.231C3689.22 606.567 3694.61 598.501 3701.14 591.282M3535.66 626.645C3537.32 619.485 3539.92 612.547 3543.4 605.99M3360.21 633.659C3370.38 639.249 3379.79 645.978 3388.23 653.697M3147.44 791.142C3145.22 784.247 3143.59 777.197 3142.55 770.059" stroke="#75797C" stroke-width="4.58333" stroke-miterlimit="8" fill="none" fill-rule="evenodd"/><path d="M3174.5 1237C3174.5 1204.69 3200.69 1178.5 3233 1178.5 3265.31 1178.5 3291.5 1204.69 3291.5 1237 3291.5 1269.31 3265.31 1295.5 3233 1295.5 3200.69 1295.5 3174.5 1269.31 3174.5 1237Z" stroke="#75797C" stroke-width="4.58333" stroke-miterlimit="8" fill="none" fill-rule="evenodd"/><path d="M3102.5 1341C3102.5 1315.87 3122.65 1295.5 3147.5 1295.5 3172.35 1295.5 3192.5 1315.87 3192.5 1341 3192.5 1366.13 3172.35 1386.5 3147.5 1386.5 3122.65 1386.5 3102.5 1366.13 3102.5 1341Z" stroke="#75797C" stroke-width="4.58333" stroke-miterlimit="8" fill="none" fill-rule="evenodd"/><path d="M3026.5 1402C3026.5 1384.05 3041.05 1369.5 3059 1369.5 3076.95 1369.5 3091.5 1384.05 3091.5 1402 3091.5 1419.95 3076.95 1434.5 3059 1434.5 3041.05 1434.5 3026.5 1419.95 3026.5 1402Z" stroke="#75797C" stroke-width="4.58333" stroke-miterlimit="8" fill="none" fill-rule="evenodd"/></g></svg>