<?xml version="1.0" encoding="UTF-8" standalone="no"?>
<svg
   width="1199.5946"
   height="1102.0325"
   xml:space="preserve"
   overflow="hidden"
   version="1.1"
   id="svg316"
   sodipodi:docname="arc-prototypic-assay-sop-proteomics.svg"
   inkscape:version="1.2.1 (9c6d41e4, 2022-07-14)"
   xmlns:inkscape="http://www.inkscape.org/namespaces/inkscape"
   xmlns:sodipodi="http://sodipodi.sourceforge.net/DTD/sodipodi-0.dtd"
   xmlns="http://www.w3.org/2000/svg"
   xmlns:svg="http://www.w3.org/2000/svg"><defs
     id="defs320" /><sodipodi:namedview
     id="namedview318"
     pagecolor="#ffffff"
     bordercolor="#000000"
     borderopacity="0.25"
     inkscape:showpageshadow="2"
     inkscape:pageopacity="0.0"
     inkscape:pagecheckerboard="0"
     inkscape:deskcolor="#d1d1d1"
     showgrid="false"
     inkscape:zoom="0.14631122"
     inkscape:cx="1387.4534"
     inkscape:cy="690.30932"
     inkscape:window-width="1309"
     inkscape:window-height="456"
     inkscape:window-x="0"
     inkscape:window-y="25"
     inkscape:window-maximized="0"
     inkscape:current-layer="svg316" /><g
     id="g1515"
     transform="translate(-29.197109,-113.32666)"><path
       d="m 415.978,1176.21 c -3.429,3.18 -5.75,4.53 -9.93,6.27 -4.181,1.74 -12.436,7.54 -15.151,4.17"
       stroke="#ffc000"
       stroke-width="10.3125"
       stroke-linecap="round"
       stroke-linejoin="miter"
       stroke-miterlimit="8"
       stroke-opacity="1"
       fill="none"
       fill-rule="evenodd"
       id="path2" /><path
       d="m 407.906,1147.04 c 1.331,2.45 1.526,4.02 1.274,6.77 -0.252,2.74 1.318,8.44 -2.786,9.72"
       stroke="#ffc000"
       stroke-width="10.3125"
       stroke-linecap="round"
       stroke-linejoin="miter"
       stroke-miterlimit="8"
       stroke-opacity="1"
       fill="none"
       fill-rule="evenodd"
       id="path4" /><path
       d="m 390.939,1121.64 c 2.339,1.19 5.328,6.97 9.25,8.48 3.922,1.52 3.633,-2.28 14.285,0.62"
       stroke="#ffc000"
       stroke-width="10.3125"
       stroke-linecap="round"
       stroke-linejoin="miter"
       stroke-miterlimit="8"
       stroke-opacity="1"
       fill="none"
       fill-rule="evenodd"
       id="path6" /><path
       d="m 368.857,1145.87 c 2.392,-4.16 6.465,-5.76 10.682,-5.04 4.216,0.72 8.576,3.77 14.616,9.38"
       stroke="#ffc000"
       stroke-width="10.3125"
       stroke-linecap="round"
       stroke-linejoin="miter"
       stroke-miterlimit="8"
       stroke-opacity="1"
       fill="none"
       fill-rule="evenodd"
       id="path8" /><path
       d="m 380.669,1175.03 c 1.647,-4.39 4.59,-7.33 7.697,-8.39 3.106,-1.06 6.377,-0.24 10.943,2.04"
       stroke="#ffc000"
       stroke-width="10.3125"
       stroke-linecap="round"
       stroke-linejoin="miter"
       stroke-miterlimit="8"
       stroke-opacity="1"
       fill="none"
       fill-rule="evenodd"
       id="path10" /><rect
       x="222.5"
       y="966.5"
       width="644"
       height="7.9998798"
       stroke="#787878"
       stroke-width="4.58333"
       stroke-linecap="butt"
       stroke-linejoin="miter"
       stroke-miterlimit="8"
       stroke-opacity="1"
       fill="#a5a5a5"
       fill-opacity="1"
       id="rect12" /><rect
       x="222.5"
       y="997.5"
       width="644"
       height="8.0002403"
       stroke="#787878"
       stroke-width="4.58333"
       stroke-linecap="butt"
       stroke-linejoin="miter"
       stroke-miterlimit="8"
       stroke-opacity="1"
       fill="#a5a5a5"
       fill-opacity="1"
       id="rect14" /><path
       d="m 231.5,1208.43 c 13.917,1.01 27.626,4.12 36.045,-3.05 8.419,-7.16 9.829,-39.77 14.468,-39.94 4.639,-0.17 8.57,32.61 13.367,38.93 4.798,6.32 11.447,3.04 15.419,-1.01 3.971,-4.06 6.608,-24.01 8.41,-23.34 1.802,0.68 -2.403,23.5 2.403,27.39 4.806,3.89 18.623,12.35 26.433,-4.05 7.809,-16.4 12.215,-68.82 20.425,-94.35 8.21,-25.53 17.222,-63.06 28.836,-58.83 11.614,4.22 31.639,59.85 40.851,84.19 9.211,24.35 10.117,49.39 14.418,61.88 4.301,12.5 6.582,13.15 11.387,13.09 4.806,-0.07 12.738,2.45 17.448,-1.93 4.71,-4.38 6.83,-17.58 10.81,-24.34 3.99,-6.77 8.71,-17.94 13.12,-16.25 4.41,1.69 7.89,19.63 13.32,26.39 5.42,6.77 11.01,12.01 19.22,14.2 8.21,2.2 23.43,5.08 30.04,-1.01 6.61,-6.09 5.6,-25.45 9.61,-35.51 4.01,-10.05 7.74,-24.59 14.43,-24.83 6.68,-0.23 9.5,22.47 12,34.98 2.51,12.5 4.37,27.46 14.42,30.43 10.05,2.97 27.5,-0.19 45.89,-12.62 18.88,-21.63 19.87,-179.82 31.73,-179.35 11.86,0.47 8.03,173.81 39.44,182.17 31.4,8.36 91.48,6.81 114.83,8.79 23.34,1.97 25.03,1.77 25.23,3.04"
       stroke="#595959"
       stroke-width="4.58333"
       stroke-linecap="butt"
       stroke-linejoin="miter"
       stroke-miterlimit="8"
       stroke-opacity="1"
       fill="none"
       fill-rule="evenodd"
       id="path16" /><path
       d="m 405.534,1099.01 c -3.429,3.18 -5.75,4.53 -9.93,6.27 -4.18,1.74 -12.435,7.54 -15.151,4.17"
       stroke="#ffc000"
       stroke-width="10.3125"
       stroke-linecap="round"
       stroke-linejoin="miter"
       stroke-miterlimit="8"
       stroke-opacity="1"
       fill="none"
       fill-rule="evenodd"
       id="path18" /><path
       d="m 388.322,1089.85 c 1.647,-4.39 4.59,-7.33 7.697,-8.39 3.106,-1.06 6.377,-0.24 10.943,2.04"
       stroke="#ffc000"
       stroke-width="10.3125"
       stroke-linecap="round"
       stroke-linejoin="miter"
       stroke-miterlimit="8"
       stroke-opacity="1"
       fill="none"
       fill-rule="evenodd"
       id="path20" /><path
       d="m 434.312,1167.52 c -0.813,-2.49 1.157,-8.69 -0.545,-12.54 -1.701,-3.84 -4.181,-0.95 -9.662,-10.54"
       stroke="#ffc000"
       stroke-width="10.3125"
       stroke-linecap="round"
       stroke-linejoin="miter"
       stroke-miterlimit="8"
       stroke-opacity="1"
       fill="none"
       fill-rule="evenodd"
       id="path22" /><path
       d="m 425.547,1133.02 c -0.813,-2.49 1.156,-8.69 -0.545,-12.53 -1.702,-3.85 -4.182,-0.96 -9.663,-10.54"
       stroke="#ffc000"
       stroke-width="10.3125"
       stroke-linecap="round"
       stroke-linejoin="miter"
       stroke-miterlimit="8"
       stroke-opacity="1"
       fill="none"
       fill-rule="evenodd"
       id="path24" /><path
       d="m 389.449,1200.41 c -4.805,0.04 -7.279,-1.07 -11.067,-4.03 -3.788,-2.96 -13.552,-5.49 -11.661,-13.74"
       stroke="#ffc000"
       stroke-width="10.3125"
       stroke-linecap="round"
       stroke-linejoin="miter"
       stroke-miterlimit="8"
       stroke-opacity="1"
       fill="none"
       fill-rule="evenodd"
       id="path26" /><path
       d="m 416.096,1200.56 c 1.647,-4.4 4.59,-7.34 7.697,-8.39 3.106,-1.06 6.377,-0.24 10.943,2.04"
       stroke="#ffc000"
       stroke-width="10.3125"
       stroke-linecap="round"
       stroke-linejoin="miter"
       stroke-miterlimit="8"
       stroke-opacity="1"
       fill="none"
       fill-rule="evenodd"
       id="path28" /><path
       d="m 702.49,1168.61 c -3.42,3.18 -5.75,4.53 -9.93,6.27 -4.18,1.74 -12.43,7.54 -15.15,4.17"
       stroke="#70ad47"
       stroke-width="10.3125"
       stroke-linecap="round"
       stroke-linejoin="miter"
       stroke-miterlimit="8"
       stroke-opacity="1"
       fill="none"
       fill-rule="evenodd"
       id="path30" /><path
       d="m 692.6,1144.28 c 1.33,2.45 1.53,4.02 1.27,6.76 -0.25,2.75 1.32,8.44 -2.78,9.73"
       stroke="#70ad47"
       stroke-width="10.3125"
       stroke-linecap="round"
       stroke-linejoin="miter"
       stroke-miterlimit="8"
       stroke-opacity="1"
       fill="none"
       fill-rule="evenodd"
       id="path32" /><path
       d="m 686.65,1114.07 c 1.33,2.26 0.76,8.74 3.25,12.12 2.5,3.39 4.29,0.03 11.72,8.19"
       stroke="#70ad47"
       stroke-width="10.3125"
       stroke-linecap="round"
       stroke-linejoin="miter"
       stroke-miterlimit="8"
       stroke-opacity="1"
       fill="none"
       fill-rule="evenodd"
       id="path34" /><path
       d="m 704.27,1115.47 c -0.81,-2.49 1.16,-8.69 -0.54,-12.53 -1.7,-3.85 -4.18,-0.96 -9.67,-10.54"
       stroke="#70ad47"
       stroke-width="10.3125"
       stroke-linecap="round"
       stroke-linejoin="miter"
       stroke-miterlimit="8"
       stroke-opacity="1"
       fill="none"
       fill-rule="evenodd"
       id="path36" /><path
       d="m 700.79,1197.8 c 1.65,-4.4 4.59,-7.34 7.69,-8.4 3.11,-1.05 6.38,-0.24 10.95,2.04"
       stroke="#70ad47"
       stroke-width="10.3125"
       stroke-linecap="round"
       stroke-linejoin="miter"
       stroke-miterlimit="8"
       stroke-opacity="1"
       fill="none"
       fill-rule="evenodd"
       id="path38" /><path
       d="m 695.77417,1079.8869 c 2.71339,-3.296 3.68721,-6.948 3.10833,-9.8757 -0.57893,-2.9276 -2.7106,-5.1309 -6.58202,-7.6902"
       stroke="#70ad47"
       stroke-width="10.3125"
       stroke-linecap="round"
       stroke-linejoin="miter"
       stroke-miterlimit="8"
       stroke-opacity="1"
       fill="none"
       fill-rule="evenodd"
       id="path40" /><path
       d="m 707.63,1157 c 0.64,4.53 0.43,7.15 -0.51,11.49 -0.94,4.33 -0.9,14.21 -5.12,14.51"
       stroke="#70ad47"
       stroke-width="10.3125"
       stroke-linecap="round"
       stroke-linejoin="miter"
       stroke-miterlimit="8"
       stroke-opacity="1"
       fill="none"
       fill-rule="evenodd"
       id="path42" /><path
       d="m 585.84,1193.29 c 0.89,1.64 1.02,2.7 0.85,4.54 -0.17,1.84 0.88,5.66 -1.87,6.52"
       stroke="#4472c4"
       stroke-width="10.3125"
       stroke-linecap="round"
       stroke-linejoin="miter"
       stroke-miterlimit="8"
       stroke-opacity="1"
       fill="none"
       fill-rule="evenodd"
       id="path44" /><path
       d="m 581.89,1176.53 c 1.57,0.8 3.57,4.67 6.2,5.68 2.63,1.02 2.44,-1.52 9.58,0.42"
       stroke="#4472c4"
       stroke-width="10.3125"
       stroke-linecap="round"
       stroke-linejoin="miter"
       stroke-miterlimit="8"
       stroke-opacity="1"
       fill="none"
       fill-rule="evenodd"
       id="path46" /><path
       d="m 603.54,1207.03 c -0.54,-1.68 0.78,-5.83 -0.36,-8.41 -1.14,-2.58 -2.81,-0.64 -6.48,-7.07"
       stroke="#4472c4"
       stroke-width="10.3125"
       stroke-linecap="round"
       stroke-linejoin="miter"
       stroke-miterlimit="8"
       stroke-opacity="1"
       fill="none"
       fill-rule="evenodd"
       id="path48" /><path
       d="m 594.93,1172.44 c -0.54,-1.67 0.78,-5.83 -0.36,-8.41 -1.14,-2.58 -2.81,-0.64 -6.48,-7.06"
       stroke="#4472c4"
       stroke-width="10.3125"
       stroke-linecap="round"
       stroke-linejoin="miter"
       stroke-miterlimit="8"
       stroke-opacity="1"
       fill="none"
       fill-rule="evenodd"
       id="path50" /><path
       d="m 507.62,1204.28 c -0.37,-2.7 2.49,-10.04 1.48,-14.13 -1,-4.09 -3.82,-0.42 -7.49,-10.41"
       stroke="#e7e6e6"
       stroke-width="10.3125"
       stroke-linecap="round"
       stroke-linejoin="miter"
       stroke-miterlimit="8"
       stroke-opacity="1"
       fill="none"
       fill-rule="evenodd"
       id="path52" /><path
       d="m 493.88,1200.54 c 1.27,-3.6 3.75,-5.93 6.45,-6.68 2.7,-0.75 5.63,0.07 9.77,2.17"
       stroke="#e7e6e6"
       stroke-width="10.3125"
       stroke-linecap="round"
       stroke-linejoin="miter"
       stroke-miterlimit="8"
       stroke-opacity="1"
       fill="none"
       fill-rule="evenodd"
       id="path54" /><path
       d="m 284.52135,1187.6247 c -2.5147,0.055 -3.24429,1.1273 -3.72419,3.9451 -0.47991,2.8178 -4.28035,5.348 0.84498,12.962"
       stroke="#5b9bd5"
       stroke-width="10.3125"
       stroke-linecap="round"
       stroke-linejoin="miter"
       stroke-miterlimit="8"
       stroke-opacity="1"
       fill="none"
       fill-rule="evenodd"
       id="path56" /><path
       d="m 868.5,970.5 69.93,4.24"
       stroke="#7f7f7f"
       stroke-width="6.875"
       stroke-linecap="butt"
       stroke-linejoin="miter"
       stroke-miterlimit="8"
       stroke-opacity="1"
       fill="none"
       fill-rule="evenodd"
       id="path58" /><path
       d="m 868.5,1001.74 69.9326,-4.23615"
       stroke="#7f7f7f"
       stroke-width="6.875"
       stroke-linecap="butt"
       stroke-linejoin="miter"
       stroke-miterlimit="8"
       stroke-opacity="1"
       fill="none"
       fill-rule="evenodd"
       id="path60" /><path
       d="m 219,979.84 h 723.7 v 10.32 H 219 Z m 718.54,-10.31 30.94,15.47 -30.94,15.47 z"
       fill="#4472c4"
       fill-rule="nonzero"
       fill-opacity="1"
       id="path62" /><path
       d="m 744.4999,633.5 c 19.33,0 35.0001,-96.0349 35.0001,-214.5 0,-118.465 -15.6701,-214.5 -35.0001,-214.5 -19.33,0 -35,96.035 -35,214.5 0,118.4651 15.67,214.5 35,214.5 z"
       stroke="#787878"
       stroke-width="4.58333"
       stroke-linecap="butt"
       stroke-linejoin="miter"
       stroke-miterlimit="8"
       stroke-opacity="1"
       fill="#a5a5a5"
       fill-rule="evenodd"
       fill-opacity="1"
       id="path64" /><rect
       x="-1086.5"
       y="533.5"
       width="13.0001"
       height="342"
       stroke="#787878"
       stroke-width="4.58333"
       stroke-linecap="butt"
       stroke-linejoin="miter"
       stroke-miterlimit="8"
       stroke-opacity="1"
       fill="#a5a5a5"
       fill-opacity="1"
       transform="scale(-1,1)"
       id="rect66" /><rect
       x="-1019.5"
       y="533.5"
       width="12"
       height="342"
       stroke="#787878"
       stroke-width="4.58333"
       stroke-linecap="butt"
       stroke-linejoin="miter"
       stroke-miterlimit="8"
       stroke-opacity="1"
       fill="#a5a5a5"
       fill-opacity="1"
       transform="scale(-1,1)"
       id="rect68" /><path
       d="m 934.5,750.5 c 24.8528,0 45,-20.1472 45,-45 0,-24.8529 -20.1472,-45.0001 -45,-45.0001 -24.8529,0 -45.0001,20.1472 -45.0001,45.0001 0,24.8528 20.1472,45 45.0001,45 z"
       stroke="#787878"
       stroke-width="4.58333"
       stroke-linecap="butt"
       stroke-linejoin="miter"
       stroke-miterlimit="8"
       stroke-opacity="1"
       fill="#a5a5a5"
       fill-rule="evenodd"
       fill-opacity="1"
       id="path70" /><path
       d="m 1145.5001,750.5 c 24.8528,0 44.9999,-20.1472 44.9999,-45 0,-24.8529 -20.1471,-45.0001 -44.9999,-45.0001 -24.8527,0 -44.9998,20.1472 -44.9998,45.0001 0,24.8528 20.1471,45 44.9998,45 z"
       stroke="#787878"
       stroke-width="4.58333"
       stroke-linecap="butt"
       stroke-linejoin="miter"
       stroke-miterlimit="8"
       stroke-opacity="1"
       fill="#a5a5a5"
       fill-rule="evenodd"
       fill-opacity="1"
       id="path72" /><path
       d="m 1112.2087,469.9833 c 77.1703,-60.51327 90.6732,-172.12736 30.1606,-249.29797 -9.8253,-12.52923 -21.2903,-23.68031 -34.0875,-33.15272"
       stroke="#a5a5a5"
       stroke-width="13.75"
       stroke-linecap="butt"
       stroke-linejoin="miter"
       stroke-miterlimit="8"
       stroke-opacity="1"
       fill="none"
       fill-rule="evenodd"
       id="path74" /><path
       d="m 703.789,364 c -6.614,-4.04626 -32.936,-4.16185 -31.75,-19.4224 1.186,-15.2606 33.302,-11.6529 32.298,-12.208 -1.004,-0.5551 237.628,-1.9424 411.663,-1.1102"
       stroke="#4472c4"
       stroke-width="10.3125"
       stroke-linecap="round"
       stroke-linejoin="miter"
       stroke-miterlimit="8"
       stroke-opacity="1"
       fill="none"
       fill-rule="evenodd"
       id="path76" /><path
       d="m 1051.1563,946.6 -4e-4,-479.818 h -10.3125 l 4e-4,479.818 z m 10.3121,-474.662 -15.4688,-30.937 -15.4687,30.937 z"
       fill="#4472c4"
       fill-rule="nonzero"
       fill-opacity="1"
       id="path78" /><path
       d="M 1226.5,907.5 V 907.074 893.498 138.5013 125.66125 124.5 h -610 v 1.16125 12.84005 768.5727 h 0.0602 v 0.425 H 1019.901 V 893.498 H 630.4797 V 138.5013 H 1212.52 V 893.498 H 1070.036 V 907.5 Z"
       stroke="#787878"
       stroke-width="4.58333"
       stroke-linecap="butt"
       stroke-linejoin="miter"
       stroke-miterlimit="8"
       stroke-opacity="1"
       fill="#a5a5a5"
       fill-rule="evenodd"
       fill-opacity="1"
       id="path80" /><path
       d="m 781.2527,505 c 12.2873,-2.20254 25.0313,-4.40507 30.69519,-8.25957 5.66394,-3.85453 13.06393,-11.01273 3.28889,-14.86723 -9.77508,-3.8545 -40.28768,-4.2214 -61.93868,-8.2593 -21.651,-4.0379 -54.8131,-10.0033 -67.9681,-15.9686 -13.155,-5.9652 -13.794,-13.2152 -10.962,-19.8228 2.832,-6.6076 15.393,-13.2152 27.954,-19.8228"
       stroke="#4472c4"
       stroke-width="10.3125"
       stroke-linecap="round"
       stroke-linejoin="miter"
       stroke-miterlimit="8"
       stroke-opacity="1"
       fill="none"
       fill-rule="evenodd"
       id="path82" /><path
       d="m 706.008,507.5516 c -11.145,4.9289 -22.654,9.4923 -27.84,14.7862 -5.186,5.2939 -6.824,11.2264 -3.276,16.97661 3.549,5.75016 10.918,4.7463 18.015,4.3811 7.096,-0.36521 13.192,-1.64297 24.564,-6.57165 11.3724,-4.92866 29.3865,-11.13516 43.6702,-23.00066 14.2837,-11.8655 33.5714,-33.8623 42.03244,-48.1921 8.46101,-14.3297 11.73639,-25.4651 8.73403,-37.7871 C 808.90532,415.822 794.8946,397.111 785.16,392"
       stroke="#4472c4"
       stroke-width="10.3125"
       stroke-linecap="round"
       stroke-linejoin="miter"
       stroke-miterlimit="8"
       stroke-opacity="1"
       fill="none"
       fill-rule="evenodd"
       id="path84" /><text
       fill="#595959"
       fill-opacity="1"
       font-family="Arial, Arial_MSFontService, sans-serif"
       font-style="normal"
       font-variant="normal"
       font-weight="400"
       font-stretch="normal"
       font-size="49px"
       text-anchor="start"
       direction="ltr"
       writing-mode="lr-tb"
       unicode-bidi="normal"
       text-decoration="none"
       id="text86"
       style="text-decoration:none;text-decoration-line:none"
       x="354.52802"
       y="149">MS/MS</text><path
       d="m 131.79167,431.073 3.3e-4,-242.657 h -4.58334 l -3.3e-4,242.657 z M 143.2503,193 129.50036,165.5 115.7503,193 Z"
       fill="#7f7f7f"
       fill-rule="nonzero"
       fill-opacity="1"
       id="path88" /><path
       d="m 129.5,432.79167 426.532,-3.5e-4 v -4.58333 l -426.532,3.4e-4 z m 421.949,11.45803 27.5,-13.75006 -27.5,-13.74994 z"
       fill="#7f7f7f"
       fill-rule="nonzero"
       fill-opacity="1"
       id="path90" /><text
       fill="#595959"
       fill-opacity="1"
       font-family="Arial, Arial_MSFontService, sans-serif"
       font-style="normal"
       font-variant="normal"
       font-weight="400"
       font-stretch="normal"
       font-size="34px"
       text-anchor="start"
       direction="ltr"
       writing-mode="lr-tb"
       unicode-bidi="normal"
       text-decoration="none"
       id="text92"
       style="text-decoration:none;text-decoration-line:none"
       x="265.362"
       y="472">m/z</text><text
       fill="#595959"
       fill-opacity="1"
       font-family="Arial, Arial_MSFontService, sans-serif"
       font-style="normal"
       font-variant="normal"
       font-weight="400"
       font-stretch="normal"
       font-size="34px"
       text-anchor="start"
       direction="ltr"
       writing-mode="lr-tb"
       unicode-bidi="normal"
       text-decoration="none"
       transform="rotate(-90)"
       id="text94"
       style="text-decoration:none;text-decoration-line:none"
       x="-486"
       y="59.622002">intensity</text><path
       d="M 155.5,431.674 155.50036,254.5"
       stroke="#4472c4"
       stroke-width="4.58333"
       stroke-linecap="butt"
       stroke-linejoin="miter"
       stroke-miterlimit="8"
       stroke-opacity="1"
       fill="none"
       fill-rule="evenodd"
       id="path96" /><path
       d="m 178.5,357.5 v 73.951"
       stroke="#4472c4"
       stroke-width="4.58333"
       stroke-linecap="butt"
       stroke-linejoin="miter"
       stroke-miterlimit="8"
       stroke-opacity="1"
       fill="none"
       fill-rule="evenodd"
       id="path98" /><path
       d="m 237.5,357.5 v 73.951"
       stroke="#4472c4"
       stroke-width="4.58333"
       stroke-linecap="butt"
       stroke-linejoin="miter"
       stroke-miterlimit="8"
       stroke-opacity="1"
       fill="none"
       fill-rule="evenodd"
       id="path100" /><path
       d="m 371.5,357.5 v 73.951"
       stroke="#4472c4"
       stroke-width="4.58333"
       stroke-linecap="butt"
       stroke-linejoin="miter"
       stroke-miterlimit="8"
       stroke-opacity="1"
       fill="none"
       fill-rule="evenodd"
       id="path102" /><path
       d="M 216.5,283.5 V 432.032"
       stroke="#4472c4"
       stroke-width="4.58333"
       stroke-linecap="butt"
       stroke-linejoin="miter"
       stroke-miterlimit="8"
       stroke-opacity="1"
       fill="none"
       fill-rule="evenodd"
       id="path104" /><path
       d="M 354.5,283.5 V 432.032"
       stroke="#4472c4"
       stroke-width="4.58333"
       stroke-linecap="butt"
       stroke-linejoin="miter"
       stroke-miterlimit="8"
       stroke-opacity="1"
       fill="none"
       fill-rule="evenodd"
       id="path106" /><path
       d="M 461.5,283.5 V 432.032"
       stroke="#4472c4"
       stroke-width="4.58333"
       stroke-linecap="butt"
       stroke-linejoin="miter"
       stroke-miterlimit="8"
       stroke-opacity="1"
       fill="none"
       fill-rule="evenodd"
       id="path108" /><path
       d="M 529.5,283.5 V 432.032"
       stroke="#4472c4"
       stroke-width="4.58333"
       stroke-linecap="butt"
       stroke-linejoin="miter"
       stroke-miterlimit="8"
       stroke-opacity="1"
       fill="none"
       fill-rule="evenodd"
       id="path110" /><path
       d="M 290.5,229.5 V 431.325"
       stroke="#4472c4"
       stroke-width="4.58333"
       stroke-linecap="butt"
       stroke-linejoin="miter"
       stroke-miterlimit="8"
       stroke-opacity="1"
       fill="none"
       fill-rule="evenodd"
       id="path112" /><path
       d="M 398.5,194.5 V 431.76"
       stroke="#4472c4"
       stroke-width="4.58333"
       stroke-linecap="butt"
       stroke-linejoin="miter"
       stroke-miterlimit="8"
       stroke-opacity="1"
       fill="none"
       fill-rule="evenodd"
       id="path114" /><path
       d="M 430.5,194.5 V 431.76"
       stroke="#4472c4"
       stroke-width="4.58333"
       stroke-linecap="butt"
       stroke-linejoin="miter"
       stroke-miterlimit="8"
       stroke-opacity="1"
       fill="none"
       fill-rule="evenodd"
       id="path116" /><path
       d="M 443.5,253.5 V 431.648"
       stroke="#4472c4"
       stroke-width="4.58333"
       stroke-linecap="butt"
       stroke-linejoin="miter"
       stroke-miterlimit="8"
       stroke-opacity="1"
       fill="none"
       fill-rule="evenodd"
       id="path118" /><path
       d="m 147.5,412.5 v 16.706"
       stroke="#4472c4"
       stroke-width="4.58333"
       stroke-linecap="butt"
       stroke-linejoin="miter"
       stroke-miterlimit="8"
       stroke-opacity="1"
       fill="none"
       fill-rule="evenodd"
       id="path120" /><path
       d="m 141.5,399.5 v 30.33"
       stroke="#4472c4"
       stroke-width="4.58333"
       stroke-linecap="butt"
       stroke-linejoin="miter"
       stroke-miterlimit="8"
       stroke-opacity="1"
       fill="none"
       fill-rule="evenodd"
       id="path122" /><path
       d="m 187.5,399.5 -3.6e-4,30.3301"
       stroke="#4472c4"
       stroke-width="4.58333"
       stroke-linecap="butt"
       stroke-linejoin="miter"
       stroke-miterlimit="8"
       stroke-opacity="1"
       fill="none"
       fill-rule="evenodd"
       id="path124" /><path
       d="m 163.5,412.5 -3.6e-4,16.7064"
       stroke="#4472c4"
       stroke-width="4.58333"
       stroke-linecap="butt"
       stroke-linejoin="miter"
       stroke-miterlimit="8"
       stroke-opacity="1"
       fill="none"
       fill-rule="evenodd"
       id="path126" /><path
       d="m 173.5,412.5 -3.6e-4,16.7064"
       stroke="#4472c4"
       stroke-width="4.58333"
       stroke-linecap="butt"
       stroke-linejoin="miter"
       stroke-miterlimit="8"
       stroke-opacity="1"
       fill="none"
       fill-rule="evenodd"
       id="path128" /><path
       d="m 206.5,412.5 -3.6e-4,16.7064"
       stroke="#4472c4"
       stroke-width="4.58333"
       stroke-linecap="butt"
       stroke-linejoin="miter"
       stroke-miterlimit="8"
       stroke-opacity="1"
       fill="none"
       fill-rule="evenodd"
       id="path130" /><path
       d="m 194.5,412.5 -3.6e-4,16.7064"
       stroke="#4472c4"
       stroke-width="4.58333"
       stroke-linecap="butt"
       stroke-linejoin="miter"
       stroke-miterlimit="8"
       stroke-opacity="1"
       fill="none"
       fill-rule="evenodd"
       id="path132" /><path
       d="m 200.5,399.5 -3.6e-4,30.3301"
       stroke="#4472c4"
       stroke-width="4.58333"
       stroke-linecap="butt"
       stroke-linejoin="miter"
       stroke-miterlimit="8"
       stroke-opacity="1"
       fill="none"
       fill-rule="evenodd"
       id="path134" /><path
       d="m 282.5,412.5 v 16.706"
       stroke="#4472c4"
       stroke-width="4.58333"
       stroke-linecap="butt"
       stroke-linejoin="miter"
       stroke-miterlimit="8"
       stroke-opacity="1"
       fill="none"
       fill-rule="evenodd"
       id="path136" /><path
       d="m 276.5,399.5 v 30.33"
       stroke="#4472c4"
       stroke-width="4.58333"
       stroke-linecap="butt"
       stroke-linejoin="miter"
       stroke-miterlimit="8"
       stroke-opacity="1"
       fill="none"
       fill-rule="evenodd"
       id="path138" /><path
       d="m 322.5,399.5 -3.6e-4,30.3301"
       stroke="#4472c4"
       stroke-width="4.58333"
       stroke-linecap="butt"
       stroke-linejoin="miter"
       stroke-miterlimit="8"
       stroke-opacity="1"
       fill="none"
       fill-rule="evenodd"
       id="path140" /><path
       d="m 298.5,412.5 -3.6e-4,16.7064"
       stroke="#4472c4"
       stroke-width="4.58333"
       stroke-linecap="butt"
       stroke-linejoin="miter"
       stroke-miterlimit="8"
       stroke-opacity="1"
       fill="none"
       fill-rule="evenodd"
       id="path142" /><path
       d="m 308.5,412.5 -3.6e-4,16.7064"
       stroke="#4472c4"
       stroke-width="4.58333"
       stroke-linecap="butt"
       stroke-linejoin="miter"
       stroke-miterlimit="8"
       stroke-opacity="1"
       fill="none"
       fill-rule="evenodd"
       id="path144" /><path
       d="m 341.5,412.5 -3.6e-4,16.7064"
       stroke="#4472c4"
       stroke-width="4.58333"
       stroke-linecap="butt"
       stroke-linejoin="miter"
       stroke-miterlimit="8"
       stroke-opacity="1"
       fill="none"
       fill-rule="evenodd"
       id="path146" /><path
       d="m 330.5,412.5 -3.6e-4,16.7064"
       stroke="#4472c4"
       stroke-width="4.58333"
       stroke-linecap="butt"
       stroke-linejoin="miter"
       stroke-miterlimit="8"
       stroke-opacity="1"
       fill="none"
       fill-rule="evenodd"
       id="path148" /><path
       d="m 335.5,399.5 -3.6e-4,30.3301"
       stroke="#4472c4"
       stroke-width="4.58333"
       stroke-linecap="butt"
       stroke-linejoin="miter"
       stroke-miterlimit="8"
       stroke-opacity="1"
       fill="none"
       fill-rule="evenodd"
       id="path150" /><path
       d="m 264.5,412.5 -3.6e-4,16.7064"
       stroke="#4472c4"
       stroke-width="4.58333"
       stroke-linecap="butt"
       stroke-linejoin="miter"
       stroke-miterlimit="8"
       stroke-opacity="1"
       fill="none"
       fill-rule="evenodd"
       id="path152" /><path
       d="m 269.5,399.5 -3.6e-4,30.3301"
       stroke="#4472c4"
       stroke-width="4.58333"
       stroke-linecap="butt"
       stroke-linejoin="miter"
       stroke-miterlimit="8"
       stroke-opacity="1"
       fill="none"
       fill-rule="evenodd"
       id="path154" /><path
       d="m 231.5,412.5 0.001,16.706"
       stroke="#4472c4"
       stroke-width="4.58333"
       stroke-linecap="butt"
       stroke-linejoin="miter"
       stroke-miterlimit="8"
       stroke-opacity="1"
       fill="none"
       fill-rule="evenodd"
       id="path156" /><path
       d="m 225.5,399.5 v 30.33"
       stroke="#4472c4"
       stroke-width="4.58333"
       stroke-linecap="butt"
       stroke-linejoin="miter"
       stroke-miterlimit="8"
       stroke-opacity="1"
       fill="none"
       fill-rule="evenodd"
       id="path158" /><path
       d="m 247.5,412.5 -3.6e-4,16.7064"
       stroke="#4472c4"
       stroke-width="4.58333"
       stroke-linecap="butt"
       stroke-linejoin="miter"
       stroke-miterlimit="8"
       stroke-opacity="1"
       fill="none"
       fill-rule="evenodd"
       id="path160" /><path
       d="m 257.5,412.5 -3.6e-4,16.7064"
       stroke="#4472c4"
       stroke-width="4.58333"
       stroke-linecap="butt"
       stroke-linejoin="miter"
       stroke-miterlimit="8"
       stroke-opacity="1"
       fill="none"
       fill-rule="evenodd"
       id="path162" /><path
       d="m 398.5,412.5 v 16.706"
       stroke="#4472c4"
       stroke-width="4.58333"
       stroke-linecap="butt"
       stroke-linejoin="miter"
       stroke-miterlimit="8"
       stroke-opacity="1"
       fill="none"
       fill-rule="evenodd"
       id="path164" /><path
       d="m 392.5,399.5 v 30.33"
       stroke="#4472c4"
       stroke-width="4.58333"
       stroke-linecap="butt"
       stroke-linejoin="miter"
       stroke-miterlimit="8"
       stroke-opacity="1"
       fill="none"
       fill-rule="evenodd"
       id="path166" /><path
       d="m 438.5,399.5 -3.6e-4,30.3301"
       stroke="#4472c4"
       stroke-width="4.58333"
       stroke-linecap="butt"
       stroke-linejoin="miter"
       stroke-miterlimit="8"
       stroke-opacity="1"
       fill="none"
       fill-rule="evenodd"
       id="path168" /><path
       d="m 414.5,412.5 -3.6e-4,16.7064"
       stroke="#4472c4"
       stroke-width="4.58333"
       stroke-linecap="butt"
       stroke-linejoin="miter"
       stroke-miterlimit="8"
       stroke-opacity="1"
       fill="none"
       fill-rule="evenodd"
       id="path170" /><path
       d="m 424.5,412.5 -3.6e-4,16.7064"
       stroke="#4472c4"
       stroke-width="4.58333"
       stroke-linecap="butt"
       stroke-linejoin="miter"
       stroke-miterlimit="8"
       stroke-opacity="1"
       fill="none"
       fill-rule="evenodd"
       id="path172" /><path
       d="m 457.5,412.5 -3.6e-4,16.7064"
       stroke="#4472c4"
       stroke-width="4.58333"
       stroke-linecap="butt"
       stroke-linejoin="miter"
       stroke-miterlimit="8"
       stroke-opacity="1"
       fill="none"
       fill-rule="evenodd"
       id="path174" /><path
       d="m 445.5,412.5 -3.6e-4,16.7064"
       stroke="#4472c4"
       stroke-width="4.58333"
       stroke-linecap="butt"
       stroke-linejoin="miter"
       stroke-miterlimit="8"
       stroke-opacity="1"
       fill="none"
       fill-rule="evenodd"
       id="path176" /><path
       d="m 451.5,399.5 -3.6e-4,30.3301"
       stroke="#4472c4"
       stroke-width="4.58333"
       stroke-linecap="butt"
       stroke-linejoin="miter"
       stroke-miterlimit="8"
       stroke-opacity="1"
       fill="none"
       fill-rule="evenodd"
       id="path178" /><path
       d="m 533.5,412.5 v 16.706"
       stroke="#4472c4"
       stroke-width="4.58333"
       stroke-linecap="butt"
       stroke-linejoin="miter"
       stroke-miterlimit="8"
       stroke-opacity="1"
       fill="none"
       fill-rule="evenodd"
       id="path180" /><path
       d="m 527.5,399.5 v 30.33"
       stroke="#4472c4"
       stroke-width="4.58333"
       stroke-linecap="butt"
       stroke-linejoin="miter"
       stroke-miterlimit="8"
       stroke-opacity="1"
       fill="none"
       fill-rule="evenodd"
       id="path182" /><path
       d="m 515.5,412.5 -3.6e-4,16.7064"
       stroke="#4472c4"
       stroke-width="4.58333"
       stroke-linecap="butt"
       stroke-linejoin="miter"
       stroke-miterlimit="8"
       stroke-opacity="1"
       fill="none"
       fill-rule="evenodd"
       id="path184" /><path
       d="m 520.5,399.5 -3.6e-4,30.3301"
       stroke="#4472c4"
       stroke-width="4.58333"
       stroke-linecap="butt"
       stroke-linejoin="miter"
       stroke-miterlimit="8"
       stroke-opacity="1"
       fill="none"
       fill-rule="evenodd"
       id="path186" /><path
       d="m 482.5,412.5 v 16.706"
       stroke="#4472c4"
       stroke-width="4.58333"
       stroke-linecap="butt"
       stroke-linejoin="miter"
       stroke-miterlimit="8"
       stroke-opacity="1"
       fill="none"
       fill-rule="evenodd"
       id="path188" /><path
       d="m 476.5,399.5 v 30.33"
       stroke="#4472c4"
       stroke-width="4.58333"
       stroke-linecap="butt"
       stroke-linejoin="miter"
       stroke-miterlimit="8"
       stroke-opacity="1"
       fill="none"
       fill-rule="evenodd"
       id="path190" /><path
       d="m 498.5,412.5 -3.6e-4,16.7064"
       stroke="#4472c4"
       stroke-width="4.58333"
       stroke-linecap="butt"
       stroke-linejoin="miter"
       stroke-miterlimit="8"
       stroke-opacity="1"
       fill="none"
       fill-rule="evenodd"
       id="path192" /><path
       d="m 508.5,412.5 -3.6e-4,16.7064"
       stroke="#4472c4"
       stroke-width="4.58333"
       stroke-linecap="butt"
       stroke-linejoin="miter"
       stroke-miterlimit="8"
       stroke-opacity="1"
       fill="none"
       fill-rule="evenodd"
       id="path194" /><path
       d="m 366.5,412.5 v 16.706"
       stroke="#4472c4"
       stroke-width="4.58333"
       stroke-linecap="butt"
       stroke-linejoin="miter"
       stroke-miterlimit="8"
       stroke-opacity="1"
       fill="none"
       fill-rule="evenodd"
       id="path196" /><path
       d="m 361.5,399.5 v 30.33"
       stroke="#4472c4"
       stroke-width="4.58333"
       stroke-linecap="butt"
       stroke-linejoin="miter"
       stroke-miterlimit="8"
       stroke-opacity="1"
       fill="none"
       fill-rule="evenodd"
       id="path198" /><path
       d="m 382.5,412.5 -3.6e-4,16.7064"
       stroke="#4472c4"
       stroke-width="4.58333"
       stroke-linecap="butt"
       stroke-linejoin="miter"
       stroke-miterlimit="8"
       stroke-opacity="1"
       fill="none"
       fill-rule="evenodd"
       id="path200" /><path
       d="m 392.5,412.5 -3.6e-4,16.7064"
       stroke="#4472c4"
       stroke-width="4.58333"
       stroke-linecap="butt"
       stroke-linejoin="miter"
       stroke-miterlimit="8"
       stroke-opacity="1"
       fill="none"
       fill-rule="evenodd"
       id="path202" /><path
       d="m 269.5,770.5 v 94.68"
       stroke="#4472c4"
       stroke-width="6.875"
       stroke-linecap="butt"
       stroke-linejoin="miter"
       stroke-miterlimit="8"
       stroke-opacity="1"
       fill="none"
       fill-rule="evenodd"
       id="path204" /><path
       d="m 281.5,792.5 v 72.21"
       stroke="#4472c4"
       stroke-width="6.875"
       stroke-linecap="butt"
       stroke-linejoin="miter"
       stroke-miterlimit="8"
       stroke-opacity="1"
       fill="none"
       fill-rule="evenodd"
       id="path206" /><path
       d="m 294.5,812.5 v 52.62"
       stroke="#4472c4"
       stroke-width="6.875"
       stroke-linecap="butt"
       stroke-linejoin="miter"
       stroke-miterlimit="8"
       stroke-opacity="1"
       fill="none"
       fill-rule="evenodd"
       id="path208" /><path
       d="m 305.5,828.5 v 36"
       stroke="#4472c4"
       stroke-width="6.875"
       stroke-linecap="butt"
       stroke-linejoin="miter"
       stroke-miterlimit="8"
       stroke-opacity="1"
       fill="none"
       fill-rule="evenodd"
       id="path210" /><path
       d="M 172.5,643.5 V 864.41"
       stroke="#4472c4"
       stroke-width="6.875"
       stroke-linecap="butt"
       stroke-linejoin="miter"
       stroke-miterlimit="8"
       stroke-opacity="1"
       fill="none"
       fill-rule="evenodd"
       id="path212" /><path
       d="M 185.5,696.5 V 864.98"
       stroke="#4472c4"
       stroke-width="6.875"
       stroke-linecap="butt"
       stroke-linejoin="miter"
       stroke-miterlimit="8"
       stroke-opacity="1"
       fill="none"
       fill-rule="evenodd"
       id="path214" /><path
       d="M 197.5,741.5 V 864.27"
       stroke="#4472c4"
       stroke-width="6.875"
       stroke-linecap="butt"
       stroke-linejoin="miter"
       stroke-miterlimit="8"
       stroke-opacity="1"
       fill="none"
       fill-rule="evenodd"
       id="path216" /><path
       d="m 209.5,780.5 0.001,84"
       stroke="#4472c4"
       stroke-width="6.875"
       stroke-linecap="butt"
       stroke-linejoin="miter"
       stroke-miterlimit="8"
       stroke-opacity="1"
       fill="none"
       fill-rule="evenodd"
       id="path218" /><path
       d="m 363.5,675.5 10e-4,189.36"
       stroke="#4472c4"
       stroke-width="6.875"
       stroke-linecap="butt"
       stroke-linejoin="miter"
       stroke-miterlimit="8"
       stroke-opacity="1"
       fill="none"
       fill-rule="evenodd"
       id="path220" /><path
       d="M 375.5,720.5 V 864.91"
       stroke="#4472c4"
       stroke-width="6.875"
       stroke-linecap="butt"
       stroke-linejoin="miter"
       stroke-miterlimit="8"
       stroke-opacity="1"
       fill="none"
       fill-rule="evenodd"
       id="path222" /><path
       d="M 388.5,759.5 V 864.73"
       stroke="#4472c4"
       stroke-width="6.875"
       stroke-linecap="butt"
       stroke-linejoin="miter"
       stroke-miterlimit="8"
       stroke-opacity="1"
       fill="none"
       fill-rule="evenodd"
       id="path224" /><path
       d="m 399.5,792.5 v 72"
       stroke="#4472c4"
       stroke-width="6.875"
       stroke-linecap="butt"
       stroke-linejoin="miter"
       stroke-miterlimit="8"
       stroke-opacity="1"
       fill="none"
       fill-rule="evenodd"
       id="path226" /><path
       d="m 125.79167,867.07 3.3e-4,-242.658 h -4.58334 l -3.3e-4,242.658 z m 11.45863,-238.074 -13.74994,-27.5 -13.75006,27.5 z"
       fill="#7f7f7f"
       fill-rule="nonzero"
       fill-opacity="1"
       id="path228" /><path
       d="m 123.5,869.79167 426.531,-3.5e-4 v -4.58333 l -426.531,3.4e-4 z m 421.948,11.45803 27.5,-13.75006 -27.5,-13.74994 z"
       fill="#7f7f7f"
       fill-rule="nonzero"
       fill-opacity="1"
       id="path230" /><text
       fill="#595959"
       fill-opacity="1"
       font-family="Arial, Arial_MSFontService, sans-serif"
       font-style="normal"
       font-variant="normal"
       font-weight="400"
       font-stretch="normal"
       font-size="34px"
       text-anchor="start"
       direction="ltr"
       writing-mode="lr-tb"
       unicode-bidi="normal"
       text-decoration="none"
       id="text232"
       style="text-decoration:none;text-decoration-line:none"
       x="272.59698"
       y="911">m/z</text><text
       fill="#595959"
       fill-opacity="1"
       font-family="Arial, Arial_MSFontService, sans-serif"
       font-style="normal"
       font-variant="normal"
       font-weight="400"
       font-stretch="normal"
       font-size="34px"
       text-anchor="start"
       direction="ltr"
       writing-mode="lr-tb"
       unicode-bidi="normal"
       text-decoration="none"
       transform="rotate(-90)"
       id="text234"
       style="text-decoration:none;text-decoration-line:none"
       x="-923"
       y="53.535">intensity</text><path
       d="M 445.5,643.5 V 864.41"
       stroke="#4472c4"
       stroke-width="6.875"
       stroke-linecap="butt"
       stroke-linejoin="miter"
       stroke-miterlimit="8"
       stroke-opacity="1"
       fill="none"
       fill-rule="evenodd"
       id="path236" /><path
       d="M 457.5,696.5 V 864.98"
       stroke="#4472c4"
       stroke-width="6.875"
       stroke-linecap="butt"
       stroke-linejoin="miter"
       stroke-miterlimit="8"
       stroke-opacity="1"
       fill="none"
       fill-rule="evenodd"
       id="path238" /><path
       d="M 470.5,741.5 V 864.27"
       stroke="#4472c4"
       stroke-width="6.875"
       stroke-linecap="butt"
       stroke-linejoin="miter"
       stroke-miterlimit="8"
       stroke-opacity="1"
       fill="none"
       fill-rule="evenodd"
       id="path240" /><path
       d="m 481.5,780.5 v 84"
       stroke="#4472c4"
       stroke-width="6.875"
       stroke-linecap="butt"
       stroke-linejoin="miter"
       stroke-miterlimit="8"
       stroke-opacity="1"
       fill="none"
       fill-rule="evenodd"
       id="path242" /><rect
       x="436.5"
       y="613.5"
       width="69.000099"
       height="247"
       stroke="#a5a5a5"
       stroke-width="4.58333"
       stroke-linecap="butt"
       stroke-linejoin="miter"
       stroke-miterlimit="8"
       stroke-dasharray="4.58333, 4.58333"
       stroke-opacity="1"
       fill="none"
       id="rect244" /><path
       d="m 527.27637,620.51008 5.29258,-4.38797 -4.38802,-5.29255 -5.29258,4.38799 z m 10.20088,-10.02164 0.56312,-0.66458 3.37139,-5.63777 -5.90048,-3.52846 -3.22638,5.39529 0.32763,-0.45798 -0.38049,0.44907 z m 6.92225,-13.04338 0.78719,-1.91094 1.34864,-5.08447 -6.64471,-1.76327 -1.29104,4.86612 0.14416,-0.42774 -0.70108,1.70176 z m 3.54021,-14.12003 0.68307,-4.72197 0.10202,-2.45244 -6.8691,-0.2864 -0.095,2.27734 0.0329,-0.34923 -0.65809,4.54833 z m 1.05128,-14.35501 -0.33703,-6.86651 -6.86662,0.33651 0.33702,6.8665 z m -1.06698,-13.97954 -0.7146,-5.44276 -0.33446,-1.60659 -6.73077,1.39855 0.30806,1.48177 -0.0432,-0.25162 0.69778,5.31597 z m -2.44749,-13.78081 -0.4272,-2.05549 -1.35463,-4.82575 -6.61944,1.85857 1.32251,4.71203 -0.0561,-0.22977 0.40327,1.93953 z m -3.76603,-13.69318 -2.28157,-6.48552 -6.48502,2.28159 2.28152,6.48543 z m -4.83766,-13.09133 -2.67638,-6.3325 -6.33271,2.67591 2.67638,6.33251 z m -5.73692,-12.71352 -2.91052,-5.88947 -0.24966,-0.43879 -5.97645,3.39846 0.20008,0.3526 -0.0932,-0.176 2.867,5.79974 z m -6.5586,-12.30413 -2.56801,-4.51466 -1.01932,-1.57703 -5.77306,3.7347 0.96707,1.49402 -0.10259,-0.16854 2.51907,4.42939 z m -7.32146,-11.86393 -2.28236,-3.52775 -1.83524,-2.34846 -5.4174,4.23407 1.74055,2.22669 -0.17755,-0.24928 2.19894,3.39943 z m 5.28688,-10.62216 -27.8264,-13.0772 6.23503,30.10776 z"
       fill="#ffc000"
       fill-rule="nonzero"
       fill-opacity="1"
       id="path246" /><text
       fill="#595959"
       fill-opacity="1"
       font-family="Arial, Arial_MSFontService, sans-serif"
       font-style="normal"
       font-variant="normal"
       font-weight="400"
       font-stretch="normal"
       font-size="49px"
       text-anchor="start"
       direction="ltr"
       writing-mode="lr-tb"
       unicode-bidi="normal"
       text-decoration="none"
       id="text248"
       style="text-decoration:none;text-decoration-line:none"
       x="355.319"
       y="574">full MS</text><path
       d="m 1074.5,969 c 0,-8.01 6.49,-14.5 14.5,-14.5 8.01,0 14.5,6.49 14.5,14.5 0,8.01 -6.49,14.5 -14.5,14.5 -8.01,0 -14.5,-6.49 -14.5,-14.5 z"
       stroke="#2f528f"
       stroke-width="4.58333"
       stroke-linecap="butt"
       stroke-linejoin="miter"
       stroke-miterlimit="8"
       stroke-opacity="1"
       fill="#4472c4"
       fill-rule="evenodd"
       fill-opacity="1"
       id="path250" /><path
       d="m 1026.5,1005 c 0,-8.01 6.27,-14.5 14,-14.5 7.73,0 14,6.49 14,14.5 0,8.01 -6.27,14.5 -14,14.5 -7.73,0 -14,-6.49 -14,-14.5 z"
       stroke="#2f528f"
       stroke-width="4.58333"
       stroke-linecap="butt"
       stroke-linejoin="miter"
       stroke-miterlimit="8"
       stroke-opacity="1"
       fill="#4472c4"
       fill-rule="evenodd"
       fill-opacity="1"
       id="path252" /><path
       d="m 1000.5,1006 c 0,-4.14 3.13,-7.5 7,-7.5 3.87,0 7,3.36 7,7.5 0,4.14 -3.13,7.5 -7,7.5 -3.87,0 -7,-3.36 -7,-7.5 z"
       stroke="#2f528f"
       stroke-width="4.58333"
       stroke-linecap="butt"
       stroke-linejoin="miter"
       stroke-miterlimit="8"
       stroke-opacity="1"
       fill="#4472c4"
       fill-rule="evenodd"
       fill-opacity="1"
       id="path254" /><path
       d="m 1039.5,970.5 c 0,-3.87 3.13,-7 7,-7 3.87,0 7,3.13 7,7 0,3.87 -3.13,7 -7,7 -3.87,0 -7,-3.13 -7,-7 z"
       stroke="#2f528f"
       stroke-width="4.58333"
       stroke-linecap="butt"
       stroke-linejoin="miter"
       stroke-miterlimit="8"
       stroke-opacity="1"
       fill="#4472c4"
       fill-rule="evenodd"
       fill-opacity="1"
       id="path256" /><path
       d="m 994.5,966.5 c 0,-7.73 6.27,-14 14,-14 7.73,0 14,6.27 14,14 0,7.73 -6.27,14 -14,14 -7.73,0 -14,-6.27 -14,-14 z"
       stroke="#2f528f"
       stroke-width="4.58333"
       stroke-linecap="butt"
       stroke-linejoin="miter"
       stroke-miterlimit="8"
       stroke-opacity="1"
       fill="#4472c4"
       fill-rule="evenodd"
       fill-opacity="1"
       id="path258" /></g></svg>
