<svg width="3488" height="1137" xmlns="http://www.w3.org/2000/svg" xmlns:xlink="http://www.w3.org/1999/xlink" xml:space="preserve" overflow="hidden"><g transform="translate(-490 -687)"><g><rect x="496.5" y="690.5" width="3477" height="1118" stroke="#148E7A" stroke-width="4.58333" stroke-linecap="butt" stroke-linejoin="miter" stroke-miterlimit="8" stroke-opacity="1" fill="#9DEFE2" fill-opacity="1"/><path d="M1992.5 788.333C1992.5 779.589 1999.59 772.5 2008.33 772.5L2565.67 772.5C2574.41 772.5 2581.5 779.589 2581.5 788.333L2581.5 851.667C2581.5 860.411 2574.41 867.5 2565.67 867.5L2008.33 867.5C1999.59 867.5 1992.5 860.411 1992.5 851.667Z" stroke="#0684A2" stroke-width="4.58333" stroke-linecap="butt" stroke-linejoin="miter" stroke-miterlimit="8" stroke-opacity="1" fill="#0BB5DD" fill-rule="evenodd" fill-opacity="1"/><rect x="496.5" y="1683.5" width="253" height="125" stroke="#148E7A" stroke-width="4.58333" stroke-linecap="butt" stroke-linejoin="miter" stroke-miterlimit="8" stroke-opacity="1" fill="#1FC2A7" fill-opacity="1"/><text fill="#FFFFFF" fill-opacity="1" font-family="Calibri,Calibri_MSFontService,sans-serif" font-style="normal" font-variant="normal" font-weight="400" font-stretch="normal" font-size="64" text-anchor="start" direction="ltr" writing-mode="lr-tb" unicode-bidi="normal" text-decoration="none" transform="matrix(1 0 0 1 603.922 1767)">A</text><rect x="749.5" y="1683.5" width="254" height="125" stroke="#148E7A" stroke-width="4.58333" stroke-linecap="butt" stroke-linejoin="miter" stroke-miterlimit="8" stroke-opacity="1" fill="#6CE7D3" fill-opacity="1"/><text fill="#106153" fill-opacity="1" font-family="Calibri,Calibri_MSFontService,sans-serif" font-style="normal" font-variant="normal" font-weight="400" font-stretch="normal" font-size="64" text-anchor="start" direction="ltr" writing-mode="lr-tb" unicode-bidi="normal" text-decoration="none" transform="matrix(1 0 0 1 858.443 1767)">B</text><rect x="1003.5" y="1683.5" width="253" height="125" stroke="#148E7A" stroke-width="4.58333" stroke-linecap="butt" stroke-linejoin="miter" stroke-miterlimit="8" stroke-opacity="1" fill="#6CE7D3" fill-opacity="1"/><text fill="#106153" fill-opacity="1" font-family="Calibri,Calibri_MSFontService,sans-serif" font-style="normal" font-variant="normal" font-weight="400" font-stretch="normal" font-size="64" text-anchor="start" direction="ltr" writing-mode="lr-tb" unicode-bidi="normal" text-decoration="none" transform="matrix(1 0 0 1 1112.11 1767)">C</text><path d="M560.5 788.333C560.5 779.589 567.589 772.5 576.334 772.5L1142.67 772.5C1151.41 772.5 1158.5 779.589 1158.5 788.333L1158.5 851.667C1158.5 860.411 1151.41 867.5 1142.67 867.5L576.334 867.5C567.589 867.5 560.5 860.411 560.5 851.667Z" stroke="#0684A2" stroke-width="4.58333" stroke-linecap="butt" stroke-linejoin="miter" stroke-miterlimit="8" stroke-opacity="1" fill="#0BB5DD" fill-rule="evenodd" fill-opacity="1"/><path d="M560.5 919.333C560.5 910.589 567.589 903.5 576.334 903.5L1142.67 903.5C1151.41 903.5 1158.5 910.589 1158.5 919.333L1158.5 982.667C1158.5 991.411 1151.41 998.5 1142.67 998.5L576.334 998.5C567.589 998.5 560.5 991.411 560.5 982.667Z" stroke="#148E7A" stroke-width="4.58333" stroke-linecap="butt" stroke-linejoin="miter" stroke-miterlimit="8" stroke-opacity="1" fill="#1FC2A7" fill-rule="evenodd" fill-opacity="1"/><path d="M560.5 1050.5C560.5 1041.66 567.664 1034.5 576.5 1034.5L1142.5 1034.5C1151.34 1034.5 1158.5 1041.66 1158.5 1050.5L1158.5 1114.5C1158.5 1123.34 1151.34 1130.5 1142.5 1130.5L576.5 1130.5C567.664 1130.5 560.5 1123.34 560.5 1114.5Z" stroke="#148E7A" stroke-width="4.58333" stroke-linecap="butt" stroke-linejoin="miter" stroke-miterlimit="8" stroke-opacity="1" fill="#1FC2A7" fill-rule="evenodd" fill-opacity="1"/><rect x="1256.5" y="1683.5" width="253" height="125" stroke="#148E7A" stroke-width="4.58333" stroke-linecap="butt" stroke-linejoin="miter" stroke-miterlimit="8" stroke-opacity="1" fill="#6CE7D3" fill-opacity="1"/><text fill="#106153" fill-opacity="1" font-family="Calibri,Calibri_MSFontService,sans-serif" font-style="normal" font-variant="normal" font-weight="400" font-stretch="normal" font-size="64" text-anchor="start" direction="ltr" writing-mode="lr-tb" unicode-bidi="normal" text-decoration="none" transform="matrix(1 0 0 1 1362.9 1767)">D</text><path d="M560.5 1179.5C560.5 1170.66 567.664 1163.5 576.5 1163.5L1142.5 1163.5C1151.34 1163.5 1158.5 1170.66 1158.5 1179.5L1158.5 1243.5C1158.5 1252.34 1151.34 1259.5 1142.5 1259.5L576.5 1259.5C567.664 1259.5 560.5 1252.34 560.5 1243.5Z" stroke="#148E7A" stroke-width="4.58333" stroke-linecap="butt" stroke-linejoin="miter" stroke-miterlimit="8" stroke-opacity="1" fill="#1FC2A7" fill-rule="evenodd" fill-opacity="1"/><path d="M560.5 1311.5C560.5 1302.66 567.664 1295.5 576.5 1295.5L1142.5 1295.5C1151.34 1295.5 1158.5 1302.66 1158.5 1311.5L1158.5 1375.5C1158.5 1384.34 1151.34 1391.5 1142.5 1391.5L576.5 1391.5C567.664 1391.5 560.5 1384.34 560.5 1375.5Z" stroke="#148E7A" stroke-width="4.58333" stroke-linecap="butt" stroke-linejoin="miter" stroke-miterlimit="8" stroke-opacity="1" fill="#1FC2A7" fill-rule="evenodd" fill-opacity="1"/><path d="M560.5 1437.5C560.5 1428.66 567.664 1421.5 576.5 1421.5L1142.5 1421.5C1151.34 1421.5 1158.5 1428.66 1158.5 1437.5L1158.5 1501.5C1158.5 1510.34 1151.34 1517.5 1142.5 1517.5L576.5 1517.5C567.664 1517.5 560.5 1510.34 560.5 1501.5Z" stroke="#148E7A" stroke-width="4.58333" stroke-linecap="butt" stroke-linejoin="miter" stroke-miterlimit="8" stroke-opacity="1" fill="#1FC2A7" fill-rule="evenodd" fill-opacity="1"/><path d="M1194.5 788.334C1194.5 779.589 1201.59 772.5 1210.33 772.5L1936.67 772.5C1945.41 772.5 1952.5 779.589 1952.5 788.334L1952.5 851.666C1952.5 860.411 1945.41 867.5 1936.67 867.5L1210.33 867.5C1201.59 867.5 1194.5 860.411 1194.5 851.666Z" stroke="#0684A2" stroke-width="4.58333" stroke-linecap="butt" stroke-linejoin="miter" stroke-miterlimit="8" stroke-opacity="1" fill="#0BB5DD" fill-rule="evenodd" fill-opacity="1"/><path d="M1194.5 919.334C1194.5 910.589 1201.59 903.5 1210.33 903.5L1936.67 903.5C1945.41 903.5 1952.5 910.589 1952.5 919.334L1952.5 982.666C1952.5 991.411 1945.41 998.5 1936.67 998.5L1210.33 998.5C1201.59 998.5 1194.5 991.411 1194.5 982.666Z" stroke="#148E7A" stroke-width="4.58333" stroke-linecap="butt" stroke-linejoin="miter" stroke-miterlimit="8" stroke-opacity="1" fill="#1FC2A7" fill-rule="evenodd" fill-opacity="1"/><path d="M1194.5 1051.17C1194.5 1042.51 1201.51 1035.5 1210.17 1035.5L1936.83 1035.5C1945.49 1035.5 1952.5 1042.51 1952.5 1051.17L1952.5 1113.83C1952.5 1122.49 1945.49 1129.5 1936.83 1129.5L1210.17 1129.5C1201.51 1129.5 1194.5 1122.49 1194.5 1113.83Z" stroke="#148E7A" stroke-width="4.58333" stroke-linecap="butt" stroke-linejoin="miter" stroke-miterlimit="8" stroke-opacity="1" fill="#1FC2A7" fill-rule="evenodd" fill-opacity="1"/><path d="M1194.5 1180.17C1194.5 1171.51 1201.51 1164.5 1210.17 1164.5L1936.83 1164.5C1945.49 1164.5 1952.5 1171.51 1952.5 1180.17L1952.5 1242.83C1952.5 1251.49 1945.49 1258.5 1936.83 1258.5L1210.17 1258.5C1201.51 1258.5 1194.5 1251.49 1194.5 1242.83Z" stroke="#148E7A" stroke-width="4.58333" stroke-linecap="butt" stroke-linejoin="miter" stroke-miterlimit="8" stroke-opacity="1" fill="#1FC2A7" fill-rule="evenodd" fill-opacity="1"/><path d="M1194.5 1312.17C1194.5 1303.51 1201.51 1296.5 1210.17 1296.5L1936.83 1296.5C1945.49 1296.5 1952.5 1303.51 1952.5 1312.17L1952.5 1374.83C1952.5 1383.49 1945.49 1390.5 1936.83 1390.5L1210.17 1390.5C1201.51 1390.5 1194.5 1383.49 1194.5 1374.83Z" stroke="#148E7A" stroke-width="4.58333" stroke-linecap="butt" stroke-linejoin="miter" stroke-miterlimit="8" stroke-opacity="1" fill="#1FC2A7" fill-rule="evenodd" fill-opacity="1"/><path d="M1194.5 1438.17C1194.5 1429.51 1201.51 1422.5 1210.17 1422.5L1936.83 1422.5C1945.49 1422.5 1952.5 1429.51 1952.5 1438.17L1952.5 1500.83C1952.5 1509.49 1945.49 1516.5 1936.83 1516.5L1210.17 1516.5C1201.51 1516.5 1194.5 1509.49 1194.5 1500.83Z" stroke="#148E7A" stroke-width="4.58333" stroke-linecap="butt" stroke-linejoin="miter" stroke-miterlimit="8" stroke-opacity="1" fill="#1FC2A7" fill-rule="evenodd" fill-opacity="1"/><text fill="#595959" fill-opacity="1" font-family="Calibri,Calibri_MSFontService,sans-serif" font-style="normal" font-variant="normal" font-weight="400" font-stretch="normal" font-size="64" text-anchor="start" direction="ltr" writing-mode="lr-tb" unicode-bidi="normal" text-decoration="none" transform="matrix(1 0 0 1 597.698 840)">Input[Source Name]</text><text fill="#595959" fill-opacity="1" font-family="Calibri,Calibri_MSFontService,sans-serif" font-style="normal" font-variant="normal" font-weight="400" font-stretch="normal" font-size="64" text-anchor="start" direction="ltr" writing-mode="lr-tb" unicode-bidi="normal" text-decoration="none" transform="matrix(1 0 0 1 724.107 972)">leaf_nrm</text><text fill="#595959" fill-opacity="1" font-family="Calibri,Calibri_MSFontService,sans-serif" font-style="normal" font-variant="normal" font-weight="400" font-stretch="normal" font-size="64" text-anchor="start" direction="ltr" writing-mode="lr-tb" unicode-bidi="normal" text-decoration="none" transform="matrix(1 0 0 1 719.325 1103)">leaf_cold</text><text fill="#595959" fill-opacity="1" font-family="Calibri,Calibri_MSFontService,sans-serif" font-style="normal" font-variant="normal" font-weight="400" font-stretch="normal" font-size="64" text-anchor="start" direction="ltr" writing-mode="lr-tb" unicode-bidi="normal" text-decoration="none" transform="matrix(1 0 0 1 1227.16 840)">Characteristic</text><text fill="#595959" fill-opacity="1" font-family="Calibri,Calibri_MSFontService,sans-serif" font-style="normal" font-variant="normal" font-weight="400" font-stretch="normal" font-size="64" text-anchor="start" direction="ltr" writing-mode="lr-tb" unicode-bidi="normal" text-decoration="none" transform="matrix(1 0 0 1 1598 840)">[</text><text fill="#595959" fill-opacity="1" font-family="Calibri,Calibri_MSFontService,sans-serif" font-style="normal" font-variant="normal" font-weight="400" font-stretch="normal" font-size="64" text-anchor="start" direction="ltr" writing-mode="lr-tb" unicode-bidi="normal" text-decoration="none" transform="matrix(1 0 0 1 1617.48 840)">organism</text><text fill="#595959" fill-opacity="1" font-family="Calibri,Calibri_MSFontService,sans-serif" font-style="normal" font-variant="normal" font-weight="400" font-stretch="normal" font-size="64" text-anchor="start" direction="ltr" writing-mode="lr-tb" unicode-bidi="normal" text-decoration="none" transform="matrix(1 0 0 1 1857.76 840)">]</text><path d="M1992.5 919.333C1992.5 910.589 1999.59 903.5 2008.33 903.5L2565.67 903.5C2574.41 903.5 2581.5 910.589 2581.5 919.333L2581.5 982.667C2581.5 991.411 2574.41 998.5 2565.67 998.5L2008.33 998.5C1999.59 998.5 1992.5 991.411 1992.5 982.667Z" stroke="#148E7A" stroke-width="4.58333" stroke-linecap="butt" stroke-linejoin="miter" stroke-miterlimit="8" stroke-opacity="1" fill="#1FC2A7" fill-rule="evenodd" fill-opacity="1"/><path d="M1992.5 1051.17C1992.5 1042.51 1999.51 1035.5 2008.17 1035.5L2565.83 1035.5C2574.49 1035.5 2581.5 1042.51 2581.5 1051.17L2581.5 1113.83C2581.5 1122.49 2574.49 1129.5 2565.83 1129.5L2008.17 1129.5C1999.51 1129.5 1992.5 1122.49 1992.5 1113.83Z" stroke="#148E7A" stroke-width="4.58333" stroke-linecap="butt" stroke-linejoin="miter" stroke-miterlimit="8" stroke-opacity="1" fill="#1FC2A7" fill-rule="evenodd" fill-opacity="1"/><path d="M1992.5 1180.17C1992.5 1171.51 1999.51 1164.5 2008.17 1164.5L2565.83 1164.5C2574.49 1164.5 2581.5 1171.51 2581.5 1180.17L2581.5 1242.83C2581.5 1251.49 2574.49 1258.5 2565.83 1258.5L2008.17 1258.5C1999.51 1258.5 1992.5 1251.49 1992.5 1242.83Z" stroke="#148E7A" stroke-width="4.58333" stroke-linecap="butt" stroke-linejoin="miter" stroke-miterlimit="8" stroke-opacity="1" fill="#1FC2A7" fill-rule="evenodd" fill-opacity="1"/><path d="M1992.5 1312.17C1992.5 1303.51 1999.51 1296.5 2008.17 1296.5L2565.83 1296.5C2574.49 1296.5 2581.5 1303.51 2581.5 1312.17L2581.5 1374.83C2581.5 1383.49 2574.49 1390.5 2565.83 1390.5L2008.17 1390.5C1999.51 1390.5 1992.5 1383.49 1992.5 1374.83Z" stroke="#148E7A" stroke-width="4.58333" stroke-linecap="butt" stroke-linejoin="miter" stroke-miterlimit="8" stroke-opacity="1" fill="#1FC2A7" fill-rule="evenodd" fill-opacity="1"/><path d="M1992.5 1438.17C1992.5 1429.51 1999.51 1422.5 2008.17 1422.5L2565.83 1422.5C2574.49 1422.5 2581.5 1429.51 2581.5 1438.17L2581.5 1500.83C2581.5 1509.49 2574.49 1516.5 2565.83 1516.5L2008.17 1516.5C1999.51 1516.5 1992.5 1509.49 1992.5 1500.83Z" stroke="#148E7A" stroke-width="4.58333" stroke-linecap="butt" stroke-linejoin="miter" stroke-miterlimit="8" stroke-opacity="1" fill="#1FC2A7" fill-rule="evenodd" fill-opacity="1"/><text fill="#595959" fill-opacity="1" font-family="Calibri,Calibri_MSFontService,sans-serif" font-style="normal" font-variant="normal" font-weight="400" font-stretch="normal" font-size="64" text-anchor="start" direction="ltr" writing-mode="lr-tb" unicode-bidi="normal" text-decoration="none" transform="matrix(1 0 0 1 2008.45 840)">TSR(OBI:0100026)</text><text fill="#595959" fill-opacity="1" font-family="Calibri,Calibri_MSFontService,sans-serif" font-style="normal" font-variant="normal" font-weight="400" font-stretch="normal" font-size="64" text-anchor="start" direction="ltr" writing-mode="lr-tb" unicode-bidi="normal" text-decoration="none" transform="matrix(1 0 0 1 2024.65 972)">NCBITaxon</text><text fill="#595959" fill-opacity="1" font-family="Calibri,Calibri_MSFontService,sans-serif" font-style="normal" font-variant="normal" font-weight="400" font-stretch="normal" font-size="64" text-anchor="start" direction="ltr" writing-mode="lr-tb" unicode-bidi="normal" text-decoration="none" transform="matrix(1 0 0 1 1306.42 973)">Arabidopsis</text><text fill="#595959" fill-opacity="1" font-family="Calibri,Calibri_MSFontService,sans-serif" font-style="normal" font-variant="normal" font-weight="400" font-stretch="normal" font-size="64" text-anchor="start" direction="ltr" writing-mode="lr-tb" unicode-bidi="normal" text-decoration="none" transform="matrix(1 0 0 1 1625.05 973)">thaliana</text><path d="M3236.5 788.333C3236.5 779.589 3243.59 772.5 3252.33 772.5L3879.67 772.5C3888.41 772.5 3895.5 779.589 3895.5 788.333L3895.5 851.667C3895.5 860.411 3888.41 867.5 3879.67 867.5L3252.33 867.5C3243.59 867.5 3236.5 860.411 3236.5 851.667Z" stroke="#0684A2" stroke-width="4.58333" stroke-linecap="butt" stroke-linejoin="miter" stroke-miterlimit="8" stroke-opacity="1" fill="#0BB5DD" fill-rule="evenodd" fill-opacity="1"/><path d="M3236.5 919.333C3236.5 910.589 3243.59 903.5 3252.33 903.5L3879.67 903.5C3888.41 903.5 3895.5 910.589 3895.5 919.333L3895.5 982.667C3895.5 991.411 3888.41 998.5 3879.67 998.5L3252.33 998.5C3243.59 998.5 3236.5 991.411 3236.5 982.667Z" stroke="#148E7A" stroke-width="4.58333" stroke-linecap="butt" stroke-linejoin="miter" stroke-miterlimit="8" stroke-opacity="1" fill="#1FC2A7" fill-rule="evenodd" fill-opacity="1"/><path d="M3236.5 1051.17C3236.5 1042.51 3243.51 1035.5 3252.17 1035.5L3879.83 1035.5C3888.49 1035.5 3895.5 1042.51 3895.5 1051.17L3895.5 1113.83C3895.5 1122.49 3888.49 1129.5 3879.83 1129.5L3252.17 1129.5C3243.51 1129.5 3236.5 1122.49 3236.5 1113.83Z" stroke="#148E7A" stroke-width="4.58333" stroke-linecap="butt" stroke-linejoin="miter" stroke-miterlimit="8" stroke-opacity="1" fill="#1FC2A7" fill-rule="evenodd" fill-opacity="1"/><path d="M3236.5 1180.17C3236.5 1171.51 3243.51 1164.5 3252.17 1164.5L3879.83 1164.5C3888.49 1164.5 3895.5 1171.51 3895.5 1180.17L3895.5 1242.83C3895.5 1251.49 3888.49 1258.5 3879.83 1258.5L3252.17 1258.5C3243.51 1258.5 3236.5 1251.49 3236.5 1242.83Z" stroke="#148E7A" stroke-width="4.58333" stroke-linecap="butt" stroke-linejoin="miter" stroke-miterlimit="8" stroke-opacity="1" fill="#1FC2A7" fill-rule="evenodd" fill-opacity="1"/><path d="M3236.5 1312.17C3236.5 1303.51 3243.51 1296.5 3252.17 1296.5L3879.83 1296.5C3888.49 1296.5 3895.5 1303.51 3895.5 1312.17L3895.5 1374.83C3895.5 1383.49 3888.49 1390.5 3879.83 1390.5L3252.17 1390.5C3243.51 1390.5 3236.5 1383.49 3236.5 1374.83Z" stroke="#148E7A" stroke-width="4.58333" stroke-linecap="butt" stroke-linejoin="miter" stroke-miterlimit="8" stroke-opacity="1" fill="#1FC2A7" fill-rule="evenodd" fill-opacity="1"/><path d="M3236.5 1438.17C3236.5 1429.51 3243.51 1422.5 3252.17 1422.5L3879.83 1422.5C3888.49 1422.5 3895.5 1429.51 3895.5 1438.17L3895.5 1500.83C3895.5 1509.49 3888.49 1516.5 3879.83 1516.5L3252.17 1516.5C3243.51 1516.5 3236.5 1509.49 3236.5 1500.83Z" stroke="#148E7A" stroke-width="4.58333" stroke-linecap="butt" stroke-linejoin="miter" stroke-miterlimit="8" stroke-opacity="1" fill="#1FC2A7" fill-rule="evenodd" fill-opacity="1"/><text fill="#595959" fill-opacity="1" font-family="Calibri,Calibri_MSFontService,sans-serif" font-style="normal" font-variant="normal" font-weight="400" font-stretch="normal" font-size="64" text-anchor="start" direction="ltr" writing-mode="lr-tb" unicode-bidi="normal" text-decoration="none" transform="matrix(1 0 0 1 3267.87 840)">Output[Sample Name]</text><text fill="#595959" fill-opacity="1" font-family="Calibri,Calibri_MSFontService,sans-serif" font-style="normal" font-variant="normal" font-weight="400" font-stretch="normal" font-size="64" text-anchor="start" direction="ltr" writing-mode="lr-tb" unicode-bidi="normal" text-decoration="none" transform="matrix(1 0 0 1 3433.87 972)">spl_nrm</text><text fill="#595959" fill-opacity="1" font-family="Calibri,Calibri_MSFontService,sans-serif" font-style="normal" font-variant="normal" font-weight="400" font-stretch="normal" font-size="64" text-anchor="start" direction="ltr" writing-mode="lr-tb" unicode-bidi="normal" text-decoration="none" transform="matrix(1 0 0 1 3439.24 1103)">spl_cold</text><path d="M2616.5 788.333C2616.5 779.589 2623.59 772.5 2632.33 772.5L3189.67 772.5C3198.41 772.5 3205.5 779.589 3205.5 788.333L3205.5 851.667C3205.5 860.411 3198.41 867.5 3189.67 867.5L2632.33 867.5C2623.59 867.5 2616.5 860.411 2616.5 851.667Z" stroke="#0684A2" stroke-width="4.58333" stroke-linecap="butt" stroke-linejoin="miter" stroke-miterlimit="8" stroke-opacity="1" fill="#0BB5DD" fill-rule="evenodd" fill-opacity="1"/><path d="M2616.5 919.333C2616.5 910.589 2623.59 903.5 2632.33 903.5L3189.67 903.5C3198.41 903.5 3205.5 910.589 3205.5 919.333L3205.5 982.667C3205.5 991.411 3198.41 998.5 3189.67 998.5L2632.33 998.5C2623.59 998.5 2616.5 991.411 2616.5 982.667Z" stroke="#148E7A" stroke-width="4.58333" stroke-linecap="butt" stroke-linejoin="miter" stroke-miterlimit="8" stroke-opacity="1" fill="#1FC2A7" fill-rule="evenodd" fill-opacity="1"/><path d="M2616.5 1051.17C2616.5 1042.51 2623.51 1035.5 2632.17 1035.5L3189.83 1035.5C3198.49 1035.5 3205.5 1042.51 3205.5 1051.17L3205.5 1113.83C3205.5 1122.49 3198.49 1129.5 3189.83 1129.5L2632.17 1129.5C2623.51 1129.5 2616.5 1122.49 2616.5 1113.83Z" stroke="#148E7A" stroke-width="4.58333" stroke-linecap="butt" stroke-linejoin="miter" stroke-miterlimit="8" stroke-opacity="1" fill="#1FC2A7" fill-rule="evenodd" fill-opacity="1"/><path d="M2616.5 1180.17C2616.5 1171.51 2623.51 1164.5 2632.17 1164.5L3189.83 1164.5C3198.49 1164.5 3205.5 1171.51 3205.5 1180.17L3205.5 1242.83C3205.5 1251.49 3198.49 1258.5 3189.83 1258.5L2632.17 1258.5C2623.51 1258.5 2616.5 1251.49 2616.5 1242.83Z" stroke="#148E7A" stroke-width="4.58333" stroke-linecap="butt" stroke-linejoin="miter" stroke-miterlimit="8" stroke-opacity="1" fill="#1FC2A7" fill-rule="evenodd" fill-opacity="1"/><path d="M2616.5 1312.17C2616.5 1303.51 2623.51 1296.5 2632.17 1296.5L3189.83 1296.5C3198.49 1296.5 3205.5 1303.51 3205.5 1312.17L3205.5 1374.83C3205.5 1383.49 3198.49 1390.5 3189.83 1390.5L2632.17 1390.5C2623.51 1390.5 2616.5 1383.49 2616.5 1374.83Z" stroke="#148E7A" stroke-width="4.58333" stroke-linecap="butt" stroke-linejoin="miter" stroke-miterlimit="8" stroke-opacity="1" fill="#1FC2A7" fill-rule="evenodd" fill-opacity="1"/><path d="M2616.5 1438.17C2616.5 1429.51 2623.51 1422.5 2632.17 1422.5L3189.83 1422.5C3198.49 1422.5 3205.5 1429.51 3205.5 1438.17L3205.5 1500.83C3205.5 1509.49 3198.49 1516.5 3189.83 1516.5L2632.17 1516.5C2623.51 1516.5 2616.5 1509.49 2616.5 1500.83Z" stroke="#148E7A" stroke-width="4.58333" stroke-linecap="butt" stroke-linejoin="miter" stroke-miterlimit="8" stroke-opacity="1" fill="#1FC2A7" fill-rule="evenodd" fill-opacity="1"/><text fill="#595959" fill-opacity="1" font-family="Calibri,Calibri_MSFontService,sans-serif" font-style="normal" font-variant="normal" font-weight="400" font-stretch="normal" font-size="64" text-anchor="start" direction="ltr" writing-mode="lr-tb" unicode-bidi="normal" text-decoration="none" transform="matrix(1 0 0 1 2632.34 840)">TAN(OBI:0100026)</text><text fill="#595959" fill-opacity="1" font-family="Calibri,Calibri_MSFontService,sans-serif" font-style="normal" font-variant="normal" font-weight="400" font-stretch="normal" font-size="64" text-anchor="start" direction="ltr" writing-mode="lr-tb" unicode-bidi="normal" text-decoration="none" transform="matrix(1 0 0 1 2648.54 972)">NCBITaxon:3702</text><text fill="#595959" fill-opacity="1" font-family="Calibri,Calibri_MSFontService,sans-serif" font-style="normal" font-variant="normal" font-weight="400" font-stretch="normal" font-size="64" text-anchor="start" direction="ltr" writing-mode="lr-tb" unicode-bidi="normal" text-decoration="none" transform="matrix(1 0 0 1 1306.67 1107)">Arabidopsis</text><text fill="#595959" fill-opacity="1" font-family="Calibri,Calibri_MSFontService,sans-serif" font-style="normal" font-variant="normal" font-weight="400" font-stretch="normal" font-size="64" text-anchor="start" direction="ltr" writing-mode="lr-tb" unicode-bidi="normal" text-decoration="none" transform="matrix(1 0 0 1 1625.31 1107)">thaliana</text><text fill="#595959" fill-opacity="1" font-family="Calibri,Calibri_MSFontService,sans-serif" font-style="normal" font-variant="normal" font-weight="400" font-stretch="normal" font-size="64" text-anchor="start" direction="ltr" writing-mode="lr-tb" unicode-bidi="normal" text-decoration="none" transform="matrix(1 0 0 1 2647.86 1109)">NCBITaxon:3702</text><text fill="#595959" fill-opacity="1" font-family="Calibri,Calibri_MSFontService,sans-serif" font-style="normal" font-variant="normal" font-weight="400" font-stretch="normal" font-size="64" text-anchor="start" direction="ltr" writing-mode="lr-tb" unicode-bidi="normal" text-decoration="none" transform="matrix(1 0 0 1 2024.65 1106)">NCBITaxon</text></g></g></svg>