<svg width="4070" height="1838" xmlns="http://www.w3.org/2000/svg" xmlns:xlink="http://www.w3.org/1999/xlink" xml:space="preserve" overflow="hidden"><g transform="translate(-215 -577)"><g><path d="M1769.5 1266.14C1769.5 1247.56 1784.56 1232.5 1803.14 1232.5L2411.86 1232.5C2430.44 1232.5 2445.5 1247.56 2445.5 1266.14L2445.5 2309.86C2445.5 2328.44 2430.44 2343.5 2411.86 2343.5L1803.14 2343.5C1784.56 2343.5 1769.5 2328.44 1769.5 2309.86Z" stroke="#2D3E50" stroke-width="4.58333" stroke-linecap="butt" stroke-linejoin="miter" stroke-miterlimit="8" stroke-opacity="1" fill="#FFFFFF" fill-rule="evenodd" fill-opacity="1"/><path d="M2377.53 2398.4 2377.53 2272.6 2429.02 2272.6 2429.02 2311.45 2469.47 2311.45 2469.47 2398.4 2377.53 2398.4ZM2440.05 2277.23 2463.03 2300.35 2440.05 2300.35 2440.05 2277.23ZM2440.05 2261.5 2366.5 2261.5 2366.5 2409.5 2480.5 2409.5 2480.5 2302.2 2440.05 2261.5Z" stroke="#FFFFFF" stroke-width="6.875" stroke-linecap="butt" stroke-linejoin="miter" stroke-miterlimit="8" stroke-opacity="1" fill="#2D3E50" fill-rule="evenodd" fill-opacity="1"/><path d="M1918.5 1991.67C1918.5 1981.08 1927.08 1972.5 1937.67 1972.5L2386.33 1972.5C2396.92 1972.5 2405.5 1981.08 2405.5 1991.67L2405.5 2212.33C2405.5 2222.92 2396.92 2231.5 2386.33 2231.5L1937.67 2231.5C1927.08 2231.5 1918.5 2222.92 1918.5 2212.33Z" stroke="#595959" stroke-width="4.58333" stroke-linecap="butt" stroke-linejoin="miter" stroke-miterlimit="8" stroke-dasharray="4.58333 4.58333" stroke-opacity="1" fill="#DEDEDE" fill-rule="evenodd" fill-opacity="1"/><path d="M1918.5 1604.83C1918.5 1592.5 1928.5 1582.5 1940.83 1582.5L2383.17 1582.5C2395.5 1582.5 2405.5 1592.5 2405.5 1604.83L2405.5 1694.17C2405.5 1706.5 2395.5 1716.5 2383.17 1716.5L1940.83 1716.5C1928.5 1716.5 1918.5 1706.5 1918.5 1694.17Z" stroke="#595959" stroke-width="4.58333" stroke-linecap="butt" stroke-linejoin="miter" stroke-miterlimit="8" stroke-dasharray="4.58333 4.58333" stroke-opacity="1" fill="#DEDEDE" fill-rule="evenodd" fill-opacity="1"/><path d="M0 0 452.616 0.000360892" stroke="#2D3E50" stroke-width="20.625" stroke-linecap="butt" stroke-linejoin="miter" stroke-miterlimit="8" stroke-opacity="1" fill="none" fill-rule="evenodd" transform="matrix(-1 0 0 1 2292.12 1340.5)"/><path d="M0 0 404.027 0.000360892" stroke="#2D3E50" stroke-width="20.625" stroke-linecap="butt" stroke-linejoin="miter" stroke-miterlimit="8" stroke-opacity="1" fill="none" fill-rule="evenodd" transform="matrix(-1 0 0 1 2248.53 1788.5)"/><rect x="1949" y="1870" width="81.9998" height="82.9999" fill="#FFC000" fill-opacity="0.501961"/><rect x="2138.5" y="1881.5" width="229" height="61.0002" stroke="#0D141D" stroke-width="4.58333" stroke-linecap="butt" stroke-linejoin="miter" stroke-miterlimit="8" stroke-opacity="1" fill="#2D3E50" fill-opacity="1"/><path d="M0 0 106.433 0.000360892" stroke="#2D3E50" stroke-width="10.3125" stroke-linecap="butt" stroke-linejoin="miter" stroke-miterlimit="8" stroke-opacity="1" fill="none" fill-rule="evenodd" transform="matrix(-1 0 0 1 2137.43 1912)"/><rect x="1949" y="1994" width="81.9998" height="81.9998" fill="#FFC000" fill-opacity="0.501961"/><rect x="2138.5" y="2005.5" width="229" height="60.0001" stroke="#0D141D" stroke-width="4.58333" stroke-linecap="butt" stroke-linejoin="miter" stroke-miterlimit="8" stroke-opacity="1" fill="#2D3E50" fill-opacity="1"/><path d="M0 0 106.433 0.000360892" stroke="#2D3E50" stroke-width="10.3125" stroke-linecap="butt" stroke-linejoin="miter" stroke-miterlimit="8" stroke-opacity="1" fill="none" fill-rule="evenodd" transform="matrix(-1 0 0 1 2137.43 2035)"/><rect x="1949" y="2117" width="81.9998" height="82.9998" fill="#FFC000" fill-opacity="0.501961"/><rect x="2138.5" y="2128.5" width="229" height="60.9998" stroke="#0D141D" stroke-width="4.58333" stroke-linecap="butt" stroke-linejoin="miter" stroke-miterlimit="8" stroke-opacity="1" fill="#2D3E50" fill-opacity="1"/><path d="M0 0 106.433 0.000360892" stroke="#2D3E50" stroke-width="10.3125" stroke-linecap="butt" stroke-linejoin="miter" stroke-miterlimit="8" stroke-opacity="1" fill="none" fill-rule="evenodd" transform="matrix(-1 0 0 1 2137.43 2159)"/><path d="M1852.5 1784.5 1852.5 2232.28" stroke="#2D3E50" stroke-width="20.625" stroke-linecap="butt" stroke-linejoin="miter" stroke-miterlimit="8" stroke-opacity="1" fill="none" fill-rule="evenodd"/><rect x="1811.5" y="1749.5" width="81.9998" height="83.0002" stroke="#0B334F" stroke-width="4.58333" stroke-linecap="butt" stroke-linejoin="miter" stroke-miterlimit="8" stroke-opacity="1" fill="#2981BE" fill-opacity="1"/><path d="M1851.5 1375.5 1852.81 1749.81" stroke="#2D3E50" stroke-width="20.625" stroke-linecap="butt" stroke-linejoin="miter" stroke-miterlimit="8" stroke-opacity="1" fill="none" fill-rule="evenodd"/><rect x="1811.5" y="1299.5" width="81.9998" height="82.0001" stroke="#0B334F" stroke-width="4.58333" stroke-linecap="butt" stroke-linejoin="miter" stroke-miterlimit="8" stroke-opacity="1" fill="#2981BE" fill-opacity="1"/><rect x="1949" y="1483" width="81.9998" height="82.0001" fill="#FFC000" fill-opacity="0.501961"/><rect x="2138.5" y="1493.5" width="229" height="60.9999" stroke="#0D141D" stroke-width="4.58333" stroke-linecap="butt" stroke-linejoin="miter" stroke-miterlimit="8" stroke-opacity="1" fill="#2D3E50" fill-opacity="1"/><path d="M0 0 106.433 0.000360892" stroke="#2D3E50" stroke-width="10.3125" stroke-linecap="butt" stroke-linejoin="miter" stroke-miterlimit="8" stroke-opacity="1" fill="none" fill-rule="evenodd" transform="matrix(-1 0 0 1 2137.43 1524)"/><rect x="1949" y="1606" width="81.9998" height="82.0001" fill="#FFC000" fill-opacity="0.501961"/><rect x="2138.5" y="1617.5" width="229" height="61.0002" stroke="#0D141D" stroke-width="4.58333" stroke-linecap="butt" stroke-linejoin="miter" stroke-miterlimit="8" stroke-opacity="1" fill="#2D3E50" fill-opacity="1"/><path d="M0 0 106.433 0.000360892" stroke="#2D3E50" stroke-width="10.3125" stroke-linecap="butt" stroke-linejoin="miter" stroke-miterlimit="8" stroke-opacity="1" fill="none" fill-rule="evenodd" transform="matrix(-1 0 0 1 2137.43 1647)"/><rect x="2858" y="833" width="115" height="115" fill="#FFC000" fill-opacity="0.501961"/><path d="M3212.5 889.5C3212.5 921.532 3186.53 947.5 3154.5 947.5 3122.47 947.5 3096.5 921.532 3096.5 889.5 3096.5 857.467 3122.47 831.5 3154.5 831.5 3186.53 831.5 3212.5 857.467 3212.5 889.5Z" stroke="#1E2B38" stroke-width="4.58333" stroke-linecap="butt" stroke-linejoin="miter" stroke-miterlimit="8" stroke-opacity="1" fill="#2D3E50" fill-rule="evenodd" fill-opacity="1"/><path d="M2970.5 650.5C2970.5 682.532 2944.53 708.5 2912.5 708.5 2880.47 708.5 2854.5 682.532 2854.5 650.5 2854.5 618.468 2880.47 592.5 2912.5 592.5 2944.53 592.5 2970.5 618.468 2970.5 650.5Z" stroke="#1E2B38" stroke-width="4.58333" stroke-linecap="butt" stroke-linejoin="miter" stroke-miterlimit="8" stroke-opacity="1" fill="#2D3E50" fill-rule="evenodd" fill-opacity="1"/><rect x="3096" y="1075" width="116" height="115" fill="#FFC000" fill-opacity="0.501961"/><rect x="2616" y="596" width="115" height="115" fill="#FFC000" fill-opacity="0.501961"/><path d="M0 0 0.00108268 424.778" stroke="#2D3E50" stroke-width="20.625" stroke-linecap="butt" stroke-linejoin="miter" stroke-miterlimit="8" stroke-opacity="1" fill="none" fill-rule="evenodd" transform="matrix(1 -1.22465e-16 -1.22465e-16 -1 3154.5 1075.28)"/><path d="M2914.5 831.686 2914.5 654.5" stroke="#2D3E50" stroke-width="20.625" stroke-linecap="butt" stroke-linejoin="miter" stroke-miterlimit="8" stroke-opacity="1" fill="none" fill-rule="evenodd"/><path d="M3157.06 654.5 2736.5 654.5" stroke="#2D3E50" stroke-width="20.625" stroke-linecap="butt" stroke-linejoin="miter" stroke-miterlimit="8" stroke-opacity="1" fill="none" fill-rule="evenodd"/><path d="M0 0 182.727 1.83189" stroke="#2D3E50" stroke-width="20.625" stroke-linecap="butt" stroke-linejoin="miter" stroke-miterlimit="8" stroke-opacity="1" fill="none" fill-rule="evenodd" transform="matrix(-1 1.22465e-16 1.22465e-16 1 3156.23 889.5)"/><path d="M2797.66 1164.76C2768.21 1177.35 2706.92 1170.34 2672.25 1149.16 2637.57 1127.98 2589.69 1090.54 2598.6 1002.95 2601.7 972.522 2599.82 927.16 2596.26 897.769 2592.69 868.378 2575.29 839.208 2577.2 826.604 2579.11 814 2590.58 818.073 2607.74 822.145 2624.9 826.217 2658.96 839.579 2680.18 851.036 2701.4 862.493 2763.32 894.379 2790.74 916.223 2818.16 938.068 2835 955.866 2844.7 982.104 2854.4 1008.34 2856.78 1043.21 2848.94 1073.65 2841.1 1104.1 2827.11 1152.18 2797.66 1164.76Z" stroke="#2D3E50" stroke-width="13.75" stroke-linecap="round" stroke-linejoin="miter" stroke-miterlimit="8" stroke-opacity="1" fill="none" fill-rule="evenodd"/><path d="M2880.98 1208.73C2818.69 1186.4 2756.39 1164.06 2729.51 1028.21" stroke="#2D3E50" stroke-width="13.75" stroke-linecap="round" stroke-linejoin="miter" stroke-miterlimit="8" stroke-opacity="1" fill="none" fill-rule="evenodd"/><text fill="#595959" fill-opacity="1" font-family="Calibri,Calibri_MSFontService,sans-serif" font-style="normal" font-variant="normal" font-weight="700" font-stretch="normal" font-size="275" text-anchor="start" direction="ltr" writing-mode="lr-tb" unicode-bidi="normal" text-decoration="none" transform="matrix(1 0 0 1 3454.8 1016)">…</text><text fill="#FFC000" fill-opacity="1" font-family="Calibri,Calibri_MSFontService,sans-serif" font-style="normal" font-variant="normal" font-weight="700" font-stretch="normal" font-size="110" text-anchor="start" direction="ltr" writing-mode="lr-tb" unicode-bidi="normal" text-decoration="none" transform="matrix(1 0 0 1 3280.76 715)">‘biological’</text><text fill="#FFC000" fill-opacity="1" font-family="Calibri,Calibri_MSFontService,sans-serif" font-style="normal" font-variant="normal" font-weight="700" font-stretch="normal" font-size="110" text-anchor="start" direction="ltr" writing-mode="lr-tb" unicode-bidi="normal" text-decoration="none" transform="matrix(1 0 0 1 3280.76 847)">ontologies</text><path d="M1290.37 1609.1 1302.28 1615.98 1295.4 1627.89 1283.49 1621.01ZM1314.18 1622.73 1317.55 1624.64 1317.49 1624.6 1326.14 1629.38 1319.49 1641.42 1310.81 1636.62 1307.42 1634.7ZM1338.15 1635.91 1343.54 1638.81 1343.47 1638.78 1350.23 1642.32 1343.86 1654.5 1337.06 1650.94 1331.64 1648.02ZM1362.38 1648.57 1368.57 1651.71 1368.43 1651.64 1374.57 1654.59 1368.62 1666.99 1362.41 1664 1356.16 1660.83ZM1386.97 1660.55 1392.87 1663.39 1392.67 1663.3 1399.26 1666.21 1393.7 1678.78 1387.02 1675.83 1381.01 1672.94ZM1411.83 1671.76 1416.57 1673.86 1416.34 1673.76 1424.3 1676.95 1419.19 1689.71 1411.12 1686.48 1406.28 1684.34ZM1437.07 1682.06 1439.88 1683.18 1439.63 1683.09 1449.73 1686.69 1445.12 1699.64 1434.9 1696 1431.96 1694.82ZM1462.69 1691.3 1463.02 1691.42 1462.75 1691.33 1475.55 1695.31 1471.46 1708.44 1458.54 1704.42 1458.07 1704.25ZM1488.43 1699.21 1501.72 1702.74 1498.19 1716.03 1484.9 1712.5ZM1514.78 1705.97 1528.21 1708.94 1525.24 1722.36 1511.81 1719.39ZM1541.43 1711.51 1554.96 1713.93 1552.54 1727.47 1539.01 1725.05ZM1568.3 1715.89 1581.92 1717.79 1580.03 1731.4 1566.41 1729.51ZM1595.35 1719.2 1609.03 1720.61 1607.62 1734.29 1593.94 1732.88ZM1622.57 1721.67 1622.78 1721.69 1622.67 1721.68 1636.19 1722.53 1635.32 1736.25 1621.76 1735.4 1621.5 1735.38ZM1649.82 1723.2 1650.95 1723.25 1650.86 1723.25 1663.47 1723.7 1662.99 1737.44 1650.33 1736.99 1649.15 1736.93ZM1677.13 1724.04 1680.65 1724.12 1680.57 1724.12 1682.51 1724.14 1682.35 1737.89 1680.37 1737.87 1676.82 1737.78ZM1645 1700.57 1696.07 1731.18 1644.29 1760.56 1644.29 1760.56C1640.99 1762.44 1636.79 1761.28 1634.92 1757.98 1633.04 1754.68 1634.2 1750.48 1637.5 1748.61L1637.5 1748.61 1679.04 1725.04 1678.9 1736.91 1637.93 1712.36C1634.68 1710.41 1633.62 1706.19 1635.57 1702.93 1637.52 1699.67 1641.75 1698.61 1645 1700.57Z" fill="#595959" fill-rule="nonzero" fill-opacity="1"/><path d="M1466.32 1321.35 1480.04 1322.26 1479.13 1335.98 1465.41 1335.07ZM1493.72 1323.13 1507.44 1323.95 1506.62 1337.68 1492.89 1336.86ZM1521.12 1324.69 1529.9 1325.14 1529.84 1325.14 1534.79 1325.35 1534.2 1339.09 1529.22 1338.88 1520.4 1338.42ZM1548.52 1325.94 1548.83 1325.95 1548.75 1325.95 1562.19 1326.38 1561.76 1340.12 1548.28 1339.69 1547.94 1339.68ZM1575.85 1326.7 1584.04 1326.85 1583.95 1326.85 1589.5 1326.88 1589.43 1340.63 1583.82 1340.6 1575.59 1340.44ZM1603.15 1326.91 1616.58 1326.78 1616.47 1326.78 1616.78 1326.77 1617.15 1340.52 1616.78 1340.53 1603.29 1340.66ZM1630.53 1326.4 1632.17 1326.36 1632.05 1326.37 1644.15 1325.83 1644.75 1339.57 1632.59 1340.1 1630.9 1340.15ZM1657.68 1324.96 1671.4 1323.99 1672.37 1337.7 1658.66 1338.67ZM1684.86 1322.78 1698.53 1321.34 1699.98 1335.01 1686.3 1336.45ZM1712.03 1319.82 1724.11 1318.25 1724.02 1318.27 1725.57 1318.04 1727.53 1331.66 1725.93 1331.88 1713.8 1333.46ZM1686.21 1300.33 1741.38 1322.72 1694.74 1359.72 1694.74 1359.72C1691.76 1362.08 1687.44 1361.58 1685.08 1358.61 1682.72 1355.64 1683.22 1351.31 1686.19 1348.95L1723.6 1319.27 1725.29 1331.03 1681.04 1313.07C1677.52 1311.64 1675.83 1307.63 1677.26 1304.11 1678.69 1300.6 1682.69 1298.9 1686.21 1300.33Z" fill="#595959" fill-rule="nonzero" fill-opacity="1"/><path d="M5.89154-3.54337 12.9783 8.2397 1.1952 15.3264-5.89154 3.54337ZM20.1079 19.8893 25.9712 29.3504 25.9177 29.2655 27.3298 31.4716 15.7492 38.8845 14.31 36.6361 8.42027 27.1324ZM34.7428 43.0522 36.0028 45.0206 35.9432 44.9292 42.2479 54.4426 30.7864 62.0383 24.4515 52.4795 23.1621 50.4651ZM49.8744 65.7414 56.2362 74.9932 56.1639 74.8901 57.6307 76.9418 46.4453 84.9386 44.9419 82.8358 38.5445 73.5322ZM65.6276 88.1271 66.4959 89.3417 66.4171 89.2337 73.7381 99.0641 62.7103 107.277 55.3494 97.3929 54.4422 96.124ZM82.0038 109.875 87.447 116.88 87.3072 116.706 90.4243 120.459 79.8468 129.244 76.6582 125.405 71.1465 118.312ZM99.2094 131.036 107.995 141.614 97.417 150.399 88.6319 139.821ZM116.981 151.6 126.24 161.765 116.075 171.024 106.816 160.859ZM135.455 171.524 145.184 181.24 135.467 190.969 125.738 181.253ZM154.913 190.957 155.931 191.974 155.755 191.804 164.77 200.187 155.406 210.256 146.301 201.789 145.196 200.685ZM174.858 209.289 181.334 215.033 181.214 214.929 185.101 218.22 176.218 228.715 172.269 225.372 165.734 219.575ZM195.494 226.984 206.187 235.628 197.543 246.321 186.85 237.677ZM216.908 243.993 222.839 248.577 222.723 248.489 227.752 252.207 219.576 263.263 214.49 259.501 208.5 254.873ZM238.711 260.278 249.93 268.228 241.98 279.447 230.761 271.497ZM261.149 275.945 269.044 281.314 268.94 281.244 272.457 283.543 264.934 295.053 261.364 292.719 253.417 287.315ZM283.967 291.066 285.63 292.153 285.53 292.089 295.486 298.355 288.162 309.992 278.156 303.695 276.444 302.576ZM307.072 305.551 318.826 312.686 311.691 324.44 299.937 317.305ZM330.579 319.619 339.352 324.765 339.269 324.717 342.381 326.485 335.59 338.441 332.436 336.65 323.622 331.479ZM354.337 333.276 358.68 335.742 358.602 335.699 366.271 339.924 359.635 351.967 351.928 347.72 347.546 345.232ZM378.314 346.56 378.767 346.809 378.695 346.77 390.36 353.018 383.868 365.139 372.167 358.872 371.678 358.603ZM402.431 359.444 414.622 365.803 408.263 377.994 396.072 371.635ZM426.781 372.076 439.035 378.313 432.797 390.567 420.543 384.33ZM451.267 384.455 455.096 386.361 448.97 398.671 445.141 396.765ZM431.571 348.822 464.249 398.595 404.839 402.54C401.05 402.792 397.775 399.925 397.523 396.136 397.272 392.348 400.139 389.072 403.927 388.821L451.578 385.656 446.286 396.289 420.077 356.369C417.993 353.195 418.876 348.932 422.05 346.849 425.224 344.765 429.487 345.648 431.571 348.822Z" fill="#595959" fill-rule="nonzero" fill-opacity="1" transform="matrix(-0.928613 0.37105 0.37105 0.928613 2851.73 1359.14)"/><path d="M2420.5 1647.5C2453.36 1647.5 2480 1651.94 2480 1657.42L2480 1897.34C2480 1902.82 2506.64 1907.26 2539.5 1907.26 2506.64 1907.26 2480 1911.7 2480 1917.18L2480 2129.58C2480 2135.06 2453.36 2139.5 2420.5 2139.5" stroke="#595959" stroke-width="6.875" stroke-linecap="butt" stroke-linejoin="miter" stroke-miterlimit="8" stroke-opacity="1" fill="none" fill-rule="evenodd"/><path d="M217 1194.54C217 1174.36 233.361 1158 253.543 1158L325.457 1158C345.639 1158 362 1174.36 362 1194.54L362 1268.46C362 1288.64 345.639 1305 325.457 1305L253.543 1305C233.361 1305 217 1288.64 217 1268.46Z" fill="#2D3E50" fill-rule="evenodd" fill-opacity="1"/><path d="M315 1240.79C315 1220.47 331.473 1204 351.795 1204L424.205 1204C444.526 1204 461 1220.47 461 1240.79L461 1313.21C461 1333.53 444.526 1350 424.205 1350L351.795 1350C331.473 1350 315 1333.53 315 1313.21Z" fill="#1FC2A7" fill-rule="evenodd" fill-opacity="1"/><path d="M239 1302.54C239 1282.36 255.361 1266 275.543 1266L347.457 1266C367.639 1266 384 1282.36 384 1302.54L384 1375.46C384 1395.64 367.639 1412 347.457 1412L275.543 1412C255.361 1412 239 1395.64 239 1375.46Z" fill="#AFABAB" fill-rule="evenodd" fill-opacity="0.898039"/><text fill="#595959" fill-opacity="1" font-family="Calibri,Calibri_MSFontService,sans-serif" font-style="normal" font-variant="normal" font-weight="400" font-stretch="normal" font-size="165" text-anchor="start" direction="ltr" writing-mode="lr-tb" unicode-bidi="normal" text-decoration="none" transform="matrix(1 0 0 1 530.337 1345)">isa</text><path d="M463.587 1459.1 499.294 1422.75 509.73 1433 474.022 1469.35Z" fill="#ED7D31" fill-rule="nonzero" fill-opacity="1"/><path d="M462.151 1510.71 499.359 1472.83 509.795 1483.08 472.587 1520.96Z" fill="#ED7D31" fill-rule="nonzero" fill-opacity="1"/><path d="M461.617 1563.94 498.652 1526.23 509.088 1536.48 472.053 1574.19Z" fill="#ED7D31" fill-rule="nonzero" fill-opacity="1"/><path d="M497.621 1492.81 465.255 1461.01 476.487 1449.58 508.854 1481.37Z" fill="#ED7D31" fill-rule="nonzero" fill-opacity="1"/><path d="M497.37 1545.87 463.18 1512.28 474.413 1500.85 508.603 1534.43Z" fill="#ED7D31" fill-rule="nonzero" fill-opacity="1"/><path d="M486.642 1588.04 463.161 1564.98 474.393 1553.54 497.875 1576.61Z" fill="#ED7D31" fill-rule="nonzero" fill-opacity="1"/><text fill="#595959" fill-opacity="1" font-family="Calibri,Calibri_MSFontService,sans-serif" font-style="normal" font-variant="normal" font-weight="400" font-stretch="normal" font-size="110" text-anchor="start" direction="ltr" writing-mode="lr-tb" unicode-bidi="normal" text-decoration="none" transform="matrix(1 0 0 1 577.585 1541)">CWL</text><text fill="#2981BE" fill-opacity="1" font-family="Calibri,Calibri_MSFontService,sans-serif" font-style="normal" font-variant="normal" font-weight="700" font-stretch="normal" font-size="83" text-anchor="start" direction="ltr" writing-mode="lr-tb" unicode-bidi="normal" text-decoration="none" transform="matrix(1 0 0 1 1063.72 1553)">Parameter[]</text><text fill="#2981BE" fill-opacity="1" font-family="Calibri,Calibri_MSFontService,sans-serif" font-style="normal" font-variant="normal" font-weight="700" font-stretch="normal" font-size="83" text-anchor="start" direction="ltr" writing-mode="lr-tb" unicode-bidi="normal" text-decoration="none" transform="matrix(1 0 0 1 1063.72 1258)">Characteristic</text><text fill="#2981BE" fill-opacity="1" font-family="Calibri,Calibri_MSFontService,sans-serif" font-style="normal" font-variant="normal" font-weight="700" font-stretch="normal" font-size="83" text-anchor="start" direction="ltr" writing-mode="lr-tb" unicode-bidi="normal" text-decoration="none" transform="matrix(1 0 0 1 1527.48 1258)">[]</text><text fill="#595959" fill-opacity="1" font-family="Calibri,Calibri_MSFontService,sans-serif" font-style="normal" font-variant="normal" font-weight="400" font-stretch="normal" font-size="83" text-anchor="start" direction="ltr" writing-mode="lr-tb" unicode-bidi="normal" text-decoration="none" transform="matrix(1 0 0 1 2703.96 2188)">Arabidopsis thaliana</text><text fill="#595959" fill-opacity="1" font-family="Calibri,Calibri_MSFontService,sans-serif" font-style="normal" font-variant="normal" font-weight="400" font-stretch="normal" font-size="83" text-anchor="start" direction="ltr" writing-mode="lr-tb" unicode-bidi="normal" text-decoration="none" transform="matrix(1 0 0 1 3402.53 2188)">| </text><text fill="#595959" fill-opacity="1" font-family="Calibri,Calibri_MSFontService,sans-serif" font-style="normal" font-variant="normal" font-weight="400" font-stretch="normal" font-size="83" text-anchor="start" direction="ltr" writing-mode="lr-tb" unicode-bidi="normal" text-decoration="none" transform="matrix(1 0 0 1 3459.25 2188)">NCBITaxo</text><text fill="#595959" fill-opacity="1" font-family="Calibri,Calibri_MSFontService,sans-serif" font-style="normal" font-variant="normal" font-weight="400" font-stretch="normal" font-size="83" text-anchor="start" direction="ltr" writing-mode="lr-tb" unicode-bidi="normal" text-decoration="none" transform="matrix(1 0 0 1 3771.24 2188)">n | </text><text fill="#595959" fill-opacity="1" font-family="Calibri,Calibri_MSFontService,sans-serif" font-style="normal" font-variant="normal" font-weight="400" font-stretch="normal" font-size="73" text-anchor="start" direction="ltr" writing-mode="lr-tb" unicode-bidi="normal" text-decoration="none" transform="matrix(1 0 0 1 2703.96 2279)">http://purl.obolibrary.org/obo/NCBITaxon_</text><text fill="#595959" fill-opacity="1" font-family="Calibri,Calibri_MSFontService,sans-serif" font-style="normal" font-variant="normal" font-weight="400" font-stretch="normal" font-size="73" text-anchor="start" direction="ltr" writing-mode="lr-tb" unicode-bidi="normal" text-decoration="none" transform="matrix(1 0 0 1 3985.88 2279)">3702</text><rect x="2702.5" y="2040.5" width="230" height="60.9998" stroke="#0D141D" stroke-width="4.58333" stroke-linecap="butt" stroke-linejoin="miter" stroke-miterlimit="8" stroke-opacity="1" fill="#2D3E50" fill-opacity="1"/><text fill="#FFFFFF" fill-opacity="1" font-family="Calibri,Calibri_MSFontService,sans-serif" font-style="normal" font-variant="normal" font-weight="400" font-stretch="normal" font-size="55" text-anchor="start" direction="ltr" writing-mode="lr-tb" unicode-bidi="normal" text-decoration="none" transform="matrix(1 0 0 1 2750.11 2088)">value:</text><rect x="2697" y="1814" width="230" height="61.0002" fill="#FFC000" fill-opacity="1"/><text fill="#FFFFFF" fill-opacity="1" font-family="Calibri,Calibri_MSFontService,sans-serif" font-style="normal" font-variant="normal" font-weight="400" font-stretch="normal" font-size="55" text-anchor="start" direction="ltr" writing-mode="lr-tb" unicode-bidi="normal" text-decoration="none" transform="matrix(1 0 0 1 2766.75 1862)">key:</text><text fill="#595959" fill-opacity="1" font-family="Calibri,Calibri_MSFontService,sans-serif" font-style="normal" font-variant="normal" font-weight="400" font-stretch="normal" font-size="83" text-anchor="start" direction="ltr" writing-mode="lr-tb" unicode-bidi="normal" text-decoration="none" transform="matrix(1 0 0 1 2706.58 1945)">Organism</text><text fill="#595959" fill-opacity="1" font-family="Calibri,Calibri_MSFontService,sans-serif" font-style="normal" font-variant="normal" font-weight="400" font-stretch="normal" font-size="83" text-anchor="start" direction="ltr" writing-mode="lr-tb" unicode-bidi="normal" text-decoration="none" transform="matrix(1 0 0 1 3044.81 1945)">| NFDI4PSO | </text><text fill="#595959" fill-opacity="1" font-family="Calibri,Calibri_MSFontService,sans-serif" font-style="normal" font-variant="normal" font-weight="400" font-stretch="normal" font-size="48" text-anchor="start" direction="ltr" writing-mode="lr-tb" unicode-bidi="normal" text-decoration="none" transform="matrix(1 0 0 1 3516.32 1945)">NFDI4PSO:0000030</text><path d="M875 1157C887.703 1157 898 1158.72 898 1160.83L898 1371.17C898 1373.28 908.298 1375 921 1375 908.298 1375 898 1376.72 898 1378.83L898 1589.17C898 1591.28 887.703 1593 875 1593" stroke="#595959" stroke-width="10.3125" stroke-linecap="butt" stroke-linejoin="miter" stroke-miterlimit="8" stroke-opacity="1" fill="none" fill-rule="evenodd"/></g></g></svg>