<svg width="2223" height="1407" xmlns="http://www.w3.org/2000/svg" xmlns:xlink="http://www.w3.org/1999/xlink" xml:space="preserve" overflow="hidden"><g transform="translate(-861 -527)"><g><rect x="867.5" y="530.5" width="2211" height="1380" stroke="#148E7A" stroke-width="4.58333" stroke-linecap="butt" stroke-linejoin="miter" stroke-miterlimit="8" stroke-opacity="1" fill="#9DEFE2" fill-opacity="1"/><rect x="867.5" y="1756.5" width="313" height="155" stroke="#148E7A" stroke-width="4.58333" stroke-linecap="butt" stroke-linejoin="miter" stroke-miterlimit="8" stroke-opacity="1" fill="#1FC2A7" fill-opacity="1"/><text fill="#FFFFFF" fill-opacity="1" font-family="Calibri,Calibri_MSFontService,sans-serif" font-style="normal" font-variant="normal" font-weight="400" font-stretch="normal" font-size="83" text-anchor="start" direction="ltr" writing-mode="lr-tb" unicode-bidi="normal" text-decoration="none" transform="matrix(1 0 0 1 1000.12 1861)">A</text><rect x="1180.5" y="1756.5" width="313" height="155" stroke="#148E7A" stroke-width="4.58333" stroke-linecap="butt" stroke-linejoin="miter" stroke-miterlimit="8" stroke-opacity="1" fill="#6CE7D3" fill-opacity="1"/><text fill="#106153" fill-opacity="1" font-family="Calibri,Calibri_MSFontService,sans-serif" font-style="normal" font-variant="normal" font-weight="400" font-stretch="normal" font-size="83" text-anchor="start" direction="ltr" writing-mode="lr-tb" unicode-bidi="normal" text-decoration="none" transform="matrix(1 0 0 1 1314.49 1861)">B</text><rect x="1493.5" y="1756.5" width="313" height="155" stroke="#148E7A" stroke-width="4.58333" stroke-linecap="butt" stroke-linejoin="miter" stroke-miterlimit="8" stroke-opacity="1" fill="#6CE7D3" fill-opacity="1"/><text fill="#106153" fill-opacity="1" font-family="Calibri,Calibri_MSFontService,sans-serif" font-style="normal" font-variant="normal" font-weight="400" font-stretch="normal" font-size="83" text-anchor="start" direction="ltr" writing-mode="lr-tb" unicode-bidi="normal" text-decoration="none" transform="matrix(1 0 0 1 1627.71 1861)">C</text><path d="M947.5 649.167C947.5 638.305 956.305 629.5 967.167 629.5L1665.83 629.5C1676.69 629.5 1685.5 638.305 1685.5 649.167L1685.5 727.833C1685.5 738.695 1676.69 747.5 1665.83 747.5L967.167 747.5C956.305 747.5 947.5 738.695 947.5 727.833Z" stroke="#0684A2" stroke-width="4.58333" stroke-linecap="butt" stroke-linejoin="miter" stroke-miterlimit="8" stroke-opacity="1" fill="#0BB5DD" fill-rule="evenodd" fill-opacity="1"/><path d="M947.5 809.167C947.5 798.305 956.305 789.5 967.167 789.5L1665.83 789.5C1676.69 789.5 1685.5 798.305 1685.5 809.167L1685.5 887.834C1685.5 898.695 1676.69 907.501 1665.83 907.501L967.167 907.501C956.305 907.501 947.5 898.695 947.5 887.834Z" stroke="#148E7A" stroke-width="4.58333" stroke-linecap="butt" stroke-linejoin="miter" stroke-miterlimit="8" stroke-opacity="1" fill="#1FC2A7" fill-rule="evenodd" fill-opacity="1"/><path d="M947.5 969.167C947.5 958.305 956.305 949.5 967.167 949.5L1665.83 949.5C1676.69 949.5 1685.5 958.305 1685.5 969.167L1685.5 1047.83C1685.5 1058.7 1676.69 1067.5 1665.83 1067.5L967.167 1067.5C956.305 1067.5 947.5 1058.7 947.5 1047.83Z" stroke="#148E7A" stroke-width="4.58333" stroke-linecap="butt" stroke-linejoin="miter" stroke-miterlimit="8" stroke-opacity="1" fill="#1FC2A7" fill-rule="evenodd" fill-opacity="1"/><rect x="1806.5" y="1756.5" width="313" height="155" stroke="#148E7A" stroke-width="4.58333" stroke-linecap="butt" stroke-linejoin="miter" stroke-miterlimit="8" stroke-opacity="1" fill="#6CE7D3" fill-opacity="1"/><text fill="#106153" fill-opacity="1" font-family="Calibri,Calibri_MSFontService,sans-serif" font-style="normal" font-variant="normal" font-weight="400" font-stretch="normal" font-size="83" text-anchor="start" direction="ltr" writing-mode="lr-tb" unicode-bidi="normal" text-decoration="none" transform="matrix(1 0 0 1 1937.21 1861)">D</text><path d="M947.5 1132.33C947.5 1121.38 956.38 1112.5 967.333 1112.5L1665.67 1112.5C1676.62 1112.5 1685.5 1121.38 1685.5 1132.33L1685.5 1211.67C1685.5 1222.62 1676.62 1231.5 1665.67 1231.5L967.333 1231.5C956.38 1231.5 947.5 1222.62 947.5 1211.67Z" stroke="#148E7A" stroke-width="4.58333" stroke-linecap="butt" stroke-linejoin="miter" stroke-miterlimit="8" stroke-opacity="1" fill="#1FC2A7" fill-rule="evenodd" fill-opacity="1"/><path d="M947.5 1292.33C947.5 1281.38 956.38 1272.5 967.333 1272.5L1665.67 1272.5C1676.62 1272.5 1685.5 1281.38 1685.5 1292.33L1685.5 1371.67C1685.5 1382.62 1676.62 1391.5 1665.67 1391.5L967.333 1391.5C956.38 1391.5 947.5 1382.62 947.5 1371.67Z" stroke="#148E7A" stroke-width="4.58333" stroke-linecap="butt" stroke-linejoin="miter" stroke-miterlimit="8" stroke-opacity="1" fill="#1FC2A7" fill-rule="evenodd" fill-opacity="1"/><path d="M947.5 1453.17C947.5 1442.31 956.305 1433.5 967.167 1433.5L1665.83 1433.5C1676.69 1433.5 1685.5 1442.31 1685.5 1453.17L1685.5 1531.83C1685.5 1542.7 1676.69 1551.5 1665.83 1551.5L967.167 1551.5C956.305 1551.5 947.5 1542.7 947.5 1531.83Z" stroke="#148E7A" stroke-width="4.58333" stroke-linecap="butt" stroke-linejoin="miter" stroke-miterlimit="8" stroke-opacity="1" fill="#1FC2A7" fill-rule="evenodd" fill-opacity="1"/><path d="M1730.5 648.834C1730.5 638.156 1739.16 629.5 1749.83 629.5L2094.17 629.5C2104.84 629.5 2113.5 638.156 2113.5 648.834L2113.5 726.166C2113.5 736.844 2104.84 745.5 2094.17 745.5L1749.83 745.5C1739.16 745.5 1730.5 736.844 1730.5 726.166Z" stroke="#0684A2" stroke-width="4.58333" stroke-linecap="butt" stroke-linejoin="miter" stroke-miterlimit="8" stroke-opacity="1" fill="#0BB5DD" fill-rule="evenodd" fill-opacity="1"/><path d="M1730.5 808.834C1730.5 798.156 1739.16 789.5 1749.83 789.5L2094.17 789.5C2104.84 789.5 2113.5 798.156 2113.5 808.834L2113.5 886.166C2113.5 896.844 2104.84 905.5 2094.17 905.5L1749.83 905.5C1739.16 905.5 1730.5 896.844 1730.5 886.166Z" stroke="#148E7A" stroke-width="4.58333" stroke-linecap="butt" stroke-linejoin="miter" stroke-miterlimit="8" stroke-opacity="1" fill="#1FC2A7" fill-rule="evenodd" fill-opacity="1"/><path d="M1730.5 968.834C1730.5 958.156 1739.16 949.5 1749.83 949.5L2094.17 949.5C2104.84 949.5 2113.5 958.156 2113.5 968.834L2113.5 1046.17C2113.5 1056.84 2104.84 1065.5 2094.17 1065.5L1749.83 1065.5C1739.16 1065.5 1730.5 1056.84 1730.5 1046.17Z" stroke="#148E7A" stroke-width="4.58333" stroke-linecap="butt" stroke-linejoin="miter" stroke-miterlimit="8" stroke-opacity="1" fill="#1FC2A7" fill-rule="evenodd" fill-opacity="1"/><path d="M1730.5 1132C1730.5 1121.23 1739.23 1112.5 1750 1112.5L2094 1112.5C2104.77 1112.5 2113.5 1121.23 2113.5 1132L2113.5 1210C2113.5 1220.77 2104.77 1229.5 2094 1229.5L1750 1229.5C1739.23 1229.5 1730.5 1220.77 1730.5 1210Z" stroke="#148E7A" stroke-width="4.58333" stroke-linecap="butt" stroke-linejoin="miter" stroke-miterlimit="8" stroke-opacity="1" fill="#1FC2A7" fill-rule="evenodd" fill-opacity="1"/><path d="M1730.5 1292C1730.5 1281.23 1739.23 1272.5 1750 1272.5L2094 1272.5C2104.77 1272.5 2113.5 1281.23 2113.5 1292L2113.5 1370C2113.5 1380.77 2104.77 1389.5 2094 1389.5L1750 1389.5C1739.23 1389.5 1730.5 1380.77 1730.5 1370Z" stroke="#148E7A" stroke-width="4.58333" stroke-linecap="butt" stroke-linejoin="miter" stroke-miterlimit="8" stroke-opacity="1" fill="#1FC2A7" fill-rule="evenodd" fill-opacity="1"/><path d="M1730.5 1452.83C1730.5 1442.16 1739.16 1433.5 1749.83 1433.5L2094.17 1433.5C2104.84 1433.5 2113.5 1442.16 2113.5 1452.83L2113.5 1530.17C2113.5 1540.84 2104.84 1549.5 2094.17 1549.5L1749.83 1549.5C1739.16 1549.5 1730.5 1540.84 1730.5 1530.17Z" stroke="#148E7A" stroke-width="4.58333" stroke-linecap="butt" stroke-linejoin="miter" stroke-miterlimit="8" stroke-opacity="1" fill="#1FC2A7" fill-rule="evenodd" fill-opacity="1"/><text fill="#595959" fill-opacity="1" font-family="Calibri,Calibri_MSFontService,sans-serif" font-style="normal" font-variant="normal" font-weight="400" font-stretch="normal" font-size="83" text-anchor="start" direction="ltr" writing-mode="lr-tb" unicode-bidi="normal" text-decoration="none" transform="matrix(1 0 0 1 979.144 712)">Input[Source Name]</text><path d="M2157.5 651.167C2157.5 640.305 2166.3 631.5 2177.17 631.5L2972.83 631.5C2983.69 631.5 2992.5 640.305 2992.5 651.167L2992.5 729.833C2992.5 740.695 2983.69 749.5 2972.83 749.5L2177.17 749.5C2166.3 749.5 2157.5 740.695 2157.5 729.833Z" stroke="#0684A2" stroke-width="4.58333" stroke-linecap="butt" stroke-linejoin="miter" stroke-miterlimit="8" stroke-opacity="1" fill="#0BB5DD" fill-rule="evenodd" fill-opacity="1"/><path d="M2157.5 811.167C2157.5 800.305 2166.3 791.5 2177.17 791.5L2972.83 791.5C2983.69 791.5 2992.5 800.305 2992.5 811.167L2992.5 889.833C2992.5 900.695 2983.69 909.5 2972.83 909.5L2177.17 909.5C2166.3 909.5 2157.5 900.695 2157.5 889.833Z" stroke="#148E7A" stroke-width="4.58333" stroke-linecap="butt" stroke-linejoin="miter" stroke-miterlimit="8" stroke-opacity="1" fill="#1FC2A7" fill-rule="evenodd" fill-opacity="1"/><path d="M2157.5 971.334C2157.5 960.38 2166.38 951.5 2177.33 951.5L2972.67 951.5C2983.62 951.5 2992.5 960.38 2992.5 971.334L2992.5 1050.67C2992.5 1061.62 2983.62 1070.5 2972.67 1070.5L2177.33 1070.5C2166.38 1070.5 2157.5 1061.62 2157.5 1050.67Z" stroke="#148E7A" stroke-width="4.58333" stroke-linecap="butt" stroke-linejoin="miter" stroke-miterlimit="8" stroke-opacity="1" fill="#1FC2A7" fill-rule="evenodd" fill-opacity="1"/><path d="M2157.5 1134.33C2157.5 1123.38 2166.38 1114.5 2177.33 1114.5L2972.67 1114.5C2983.62 1114.5 2992.5 1123.38 2992.5 1134.33L2992.5 1213.67C2992.5 1224.62 2983.62 1233.5 2972.67 1233.5L2177.33 1233.5C2166.38 1233.5 2157.5 1224.62 2157.5 1213.67Z" stroke="#148E7A" stroke-width="4.58333" stroke-linecap="butt" stroke-linejoin="miter" stroke-miterlimit="8" stroke-opacity="1" fill="#1FC2A7" fill-rule="evenodd" fill-opacity="1"/><path d="M2157.5 1295.17C2157.5 1284.31 2166.3 1275.5 2177.17 1275.5L2972.83 1275.5C2983.69 1275.5 2992.5 1284.31 2992.5 1295.17L2992.5 1373.83C2992.5 1384.69 2983.69 1393.5 2972.83 1393.5L2177.17 1393.5C2166.3 1393.5 2157.5 1384.69 2157.5 1373.83Z" stroke="#148E7A" stroke-width="4.58333" stroke-linecap="butt" stroke-linejoin="miter" stroke-miterlimit="8" stroke-opacity="1" fill="#1FC2A7" fill-rule="evenodd" fill-opacity="1"/><path d="M2157.5 1455.17C2157.5 1444.31 2166.3 1435.5 2177.17 1435.5L2972.83 1435.5C2983.69 1435.5 2992.5 1444.31 2992.5 1455.17L2992.5 1533.83C2992.5 1544.69 2983.69 1553.5 2972.83 1553.5L2177.17 1553.5C2166.3 1553.5 2157.5 1544.69 2157.5 1533.83Z" stroke="#148E7A" stroke-width="4.58333" stroke-linecap="butt" stroke-linejoin="miter" stroke-miterlimit="8" stroke-opacity="1" fill="#1FC2A7" fill-rule="evenodd" fill-opacity="1"/><text fill="#595959" fill-opacity="1" font-family="Calibri,Calibri_MSFontService,sans-serif" font-style="normal" font-variant="normal" font-weight="400" font-stretch="normal" font-size="83" text-anchor="start" direction="ltr" writing-mode="lr-tb" unicode-bidi="normal" text-decoration="none" transform="matrix(1 0 0 1 2194.4 715)">Output[Sample Name]</text><text fill="#595959" fill-opacity="1" font-family="Calibri,Calibri_MSFontService,sans-serif" font-style="normal" font-variant="normal" font-weight="400" font-stretch="normal" font-size="83" text-anchor="start" direction="ltr" writing-mode="lr-tb" unicode-bidi="normal" text-decoration="none" transform="matrix(1 0 0 1 1143.36 875)">leaf_nrm</text><text fill="#595959" fill-opacity="1" font-family="Calibri,Calibri_MSFontService,sans-serif" font-style="normal" font-variant="normal" font-weight="400" font-stretch="normal" font-size="83" text-anchor="start" direction="ltr" writing-mode="lr-tb" unicode-bidi="normal" text-decoration="none" transform="matrix(1 0 0 1 1148.52 1043)">leaf_cold</text><text fill="#595959" fill-opacity="1" font-family="Calibri,Calibri_MSFontService,sans-serif" font-style="normal" font-variant="normal" font-weight="400" font-stretch="normal" font-size="83" text-anchor="start" direction="ltr" writing-mode="lr-tb" unicode-bidi="normal" text-decoration="none" transform="matrix(1 0 0 1 2397.58 876)">spl_nrm</text><text fill="#595959" fill-opacity="1" font-family="Calibri,Calibri_MSFontService,sans-serif" font-style="normal" font-variant="normal" font-weight="400" font-stretch="normal" font-size="83" text-anchor="start" direction="ltr" writing-mode="lr-tb" unicode-bidi="normal" text-decoration="none" transform="matrix(1 0 0 1 2402.74 1044)">spl_cold</text></g></g></svg>