<svg width="2810" height="1408" xmlns="http://www.w3.org/2000/svg" xmlns:xlink="http://www.w3.org/1999/xlink" xml:space="preserve" overflow="hidden"><g transform="translate(-861 -462)"><g><rect x="867.5" y="467.5" width="2800" height="1380" stroke="#148E7A" stroke-width="4.58333" stroke-linecap="butt" stroke-linejoin="miter" stroke-miterlimit="8" stroke-opacity="1" fill="#9DEFE2" fill-opacity="1"/><rect x="867.5" y="1693.5" width="313" height="155" stroke="#148E7A" stroke-width="4.58333" stroke-linecap="butt" stroke-linejoin="miter" stroke-miterlimit="8" stroke-opacity="1" fill="#1FC2A7" fill-opacity="1"/><text fill="#FFFFFF" fill-opacity="1" font-family="Calibri,Calibri_MSFontService,sans-serif" font-style="normal" font-variant="normal" font-weight="400" font-stretch="normal" font-size="83" text-anchor="start" direction="ltr" writing-mode="lr-tb" unicode-bidi="normal" text-decoration="none" transform="matrix(1 0 0 1 1000.12 1798)">A</text><rect x="1180.5" y="1693.5" width="313" height="155" stroke="#148E7A" stroke-width="4.58333" stroke-linecap="butt" stroke-linejoin="miter" stroke-miterlimit="8" stroke-opacity="1" fill="#6CE7D3" fill-opacity="1"/><text fill="#106153" fill-opacity="1" font-family="Calibri,Calibri_MSFontService,sans-serif" font-style="normal" font-variant="normal" font-weight="400" font-stretch="normal" font-size="83" text-anchor="start" direction="ltr" writing-mode="lr-tb" unicode-bidi="normal" text-decoration="none" transform="matrix(1 0 0 1 1314.49 1798)">B</text><rect x="1493.5" y="1693.5" width="313" height="155" stroke="#148E7A" stroke-width="4.58333" stroke-linecap="butt" stroke-linejoin="miter" stroke-miterlimit="8" stroke-opacity="1" fill="#6CE7D3" fill-opacity="1"/><text fill="#106153" fill-opacity="1" font-family="Calibri,Calibri_MSFontService,sans-serif" font-style="normal" font-variant="normal" font-weight="400" font-stretch="normal" font-size="83" text-anchor="start" direction="ltr" writing-mode="lr-tb" unicode-bidi="normal" text-decoration="none" transform="matrix(1 0 0 1 1627.71 1798)">C</text><path d="M947.5 586.167C947.5 575.305 956.305 566.5 967.167 566.5L1665.83 566.5C1676.69 566.5 1685.5 575.305 1685.5 586.167L1685.5 664.833C1685.5 675.695 1676.69 684.501 1665.83 684.501L967.167 684.501C956.305 684.501 947.5 675.695 947.5 664.833Z" stroke="#0684A2" stroke-width="4.58333" stroke-linecap="butt" stroke-linejoin="miter" stroke-miterlimit="8" stroke-opacity="1" fill="#0BB5DD" fill-rule="evenodd" fill-opacity="1"/><path d="M947.5 746.167C947.5 735.305 956.305 726.5 967.167 726.5L1665.83 726.5C1676.69 726.5 1685.5 735.305 1685.5 746.167L1685.5 824.833C1685.5 835.695 1676.69 844.5 1665.83 844.5L967.167 844.5C956.305 844.5 947.5 835.695 947.5 824.833Z" stroke="#148E7A" stroke-width="4.58333" stroke-linecap="butt" stroke-linejoin="miter" stroke-miterlimit="8" stroke-opacity="1" fill="#1FC2A7" fill-rule="evenodd" fill-opacity="1"/><path d="M947.5 906.333C947.5 895.38 956.38 886.5 967.333 886.5L1665.67 886.5C1676.62 886.5 1685.5 895.38 1685.5 906.333L1685.5 985.667C1685.5 996.621 1676.62 1005.5 1665.67 1005.5L967.333 1005.5C956.38 1005.5 947.5 996.621 947.5 985.667Z" stroke="#148E7A" stroke-width="4.58333" stroke-linecap="butt" stroke-linejoin="miter" stroke-miterlimit="8" stroke-opacity="1" fill="#1FC2A7" fill-rule="evenodd" fill-opacity="1"/><rect x="1806.5" y="1693.5" width="313" height="155" stroke="#148E7A" stroke-width="4.58333" stroke-linecap="butt" stroke-linejoin="miter" stroke-miterlimit="8" stroke-opacity="1" fill="#6CE7D3" fill-opacity="1"/><text fill="#106153" fill-opacity="1" font-family="Calibri,Calibri_MSFontService,sans-serif" font-style="normal" font-variant="normal" font-weight="400" font-stretch="normal" font-size="83" text-anchor="start" direction="ltr" writing-mode="lr-tb" unicode-bidi="normal" text-decoration="none" transform="matrix(1 0 0 1 1937.21 1798)">D</text><path d="M947.5 1070.17C947.5 1059.31 956.305 1050.5 967.167 1050.5L1665.83 1050.5C1676.69 1050.5 1685.5 1059.31 1685.5 1070.17L1685.5 1148.83C1685.5 1159.7 1676.69 1168.5 1665.83 1168.5L967.167 1168.5C956.305 1168.5 947.5 1159.7 947.5 1148.83Z" stroke="#148E7A" stroke-width="4.58333" stroke-linecap="butt" stroke-linejoin="miter" stroke-miterlimit="8" stroke-opacity="1" fill="#1FC2A7" fill-rule="evenodd" fill-opacity="1"/><path d="M947.5 1230.17C947.5 1219.31 956.305 1210.5 967.167 1210.5L1665.83 1210.5C1676.69 1210.5 1685.5 1219.31 1685.5 1230.17L1685.5 1308.83C1685.5 1319.69 1676.69 1328.5 1665.83 1328.5L967.167 1328.5C956.305 1328.5 947.5 1319.69 947.5 1308.83Z" stroke="#148E7A" stroke-width="4.58333" stroke-linecap="butt" stroke-linejoin="miter" stroke-miterlimit="8" stroke-opacity="1" fill="#1FC2A7" fill-rule="evenodd" fill-opacity="1"/><path d="M947.5 1390.17C947.5 1379.31 956.305 1370.5 967.167 1370.5L1665.83 1370.5C1676.69 1370.5 1685.5 1379.31 1685.5 1390.17L1685.5 1468.83C1685.5 1479.7 1676.69 1488.5 1665.83 1488.5L967.167 1488.5C956.305 1488.5 947.5 1479.7 947.5 1468.83Z" stroke="#148E7A" stroke-width="4.58333" stroke-linecap="butt" stroke-linejoin="miter" stroke-miterlimit="8" stroke-opacity="1" fill="#1FC2A7" fill-rule="evenodd" fill-opacity="1"/><path d="M1730.5 585.833C1730.5 575.156 1739.16 566.5 1749.83 566.5L2667.17 566.5C2677.84 566.5 2686.5 575.156 2686.5 585.833L2686.5 663.167C2686.5 673.844 2677.84 682.5 2667.17 682.5L1749.83 682.5C1739.16 682.5 1730.5 673.844 1730.5 663.167Z" stroke="#0684A2" stroke-width="4.58333" stroke-linecap="butt" stroke-linejoin="miter" stroke-miterlimit="8" stroke-opacity="1" fill="#0BB5DD" fill-rule="evenodd" fill-opacity="1"/><path d="M1730.5 746C1730.5 735.231 1739.23 726.5 1750 726.5L2667 726.5C2677.77 726.5 2686.5 735.231 2686.5 746L2686.5 824C2686.5 834.769 2677.77 843.5 2667 843.5L1750 843.5C1739.23 843.5 1730.5 834.769 1730.5 824Z" stroke="#148E7A" stroke-width="4.58333" stroke-linecap="butt" stroke-linejoin="miter" stroke-miterlimit="8" stroke-opacity="1" fill="#1FC2A7" fill-rule="evenodd" fill-opacity="1"/><path d="M1730.5 906.001C1730.5 895.231 1739.23 886.5 1750 886.5L2667 886.5C2677.77 886.5 2686.5 895.231 2686.5 906.001L2686.5 984C2686.5 994.77 2677.77 1003.5 2667 1003.5L1750 1003.5C1739.23 1003.5 1730.5 994.77 1730.5 984Z" stroke="#148E7A" stroke-width="4.58333" stroke-linecap="butt" stroke-linejoin="miter" stroke-miterlimit="8" stroke-opacity="1" fill="#1FC2A7" fill-rule="evenodd" fill-opacity="1"/><path d="M1730.5 1069.83C1730.5 1059.16 1739.16 1050.5 1749.83 1050.5L2667.17 1050.5C2677.84 1050.5 2686.5 1059.16 2686.5 1069.83L2686.5 1147.17C2686.5 1157.84 2677.84 1166.5 2667.17 1166.5L1749.83 1166.5C1739.16 1166.5 1730.5 1157.84 1730.5 1147.17Z" stroke="#148E7A" stroke-width="4.58333" stroke-linecap="butt" stroke-linejoin="miter" stroke-miterlimit="8" stroke-opacity="1" fill="#1FC2A7" fill-rule="evenodd" fill-opacity="1"/><path d="M1730.5 1229.83C1730.5 1219.16 1739.16 1210.5 1749.83 1210.5L2667.17 1210.5C2677.84 1210.5 2686.5 1219.16 2686.5 1229.83L2686.5 1307.17C2686.5 1317.84 2677.84 1326.5 2667.17 1326.5L1749.83 1326.5C1739.16 1326.5 1730.5 1317.84 1730.5 1307.17Z" stroke="#148E7A" stroke-width="4.58333" stroke-linecap="butt" stroke-linejoin="miter" stroke-miterlimit="8" stroke-opacity="1" fill="#1FC2A7" fill-rule="evenodd" fill-opacity="1"/><path d="M1730.5 1390C1730.5 1379.23 1739.23 1370.5 1750 1370.5L2667 1370.5C2677.77 1370.5 2686.5 1379.23 2686.5 1390L2686.5 1468C2686.5 1478.77 2677.77 1487.5 2667 1487.5L1750 1487.5C1739.23 1487.5 1730.5 1478.77 1730.5 1468Z" stroke="#148E7A" stroke-width="4.58333" stroke-linecap="butt" stroke-linejoin="miter" stroke-miterlimit="8" stroke-opacity="1" fill="#1FC2A7" fill-rule="evenodd" fill-opacity="1"/><text fill="#595959" fill-opacity="1" font-family="Calibri,Calibri_MSFontService,sans-serif" font-style="normal" font-variant="normal" font-weight="400" font-stretch="normal" font-size="83" text-anchor="start" direction="ltr" writing-mode="lr-tb" unicode-bidi="normal" text-decoration="none" transform="matrix(1 0 0 1 979.144 650)">Input[Source Name]</text><path d="M2725.5 588.167C2725.5 577.305 2734.31 568.5 2745.17 568.5L3540.83 568.5C3551.69 568.5 3560.5 577.305 3560.5 588.167L3560.5 666.833C3560.5 677.695 3551.69 686.5 3540.83 686.5L2745.17 686.5C2734.31 686.5 2725.5 677.695 2725.5 666.833Z" stroke="#0684A2" stroke-width="4.58333" stroke-linecap="butt" stroke-linejoin="miter" stroke-miterlimit="8" stroke-opacity="1" fill="#0BB5DD" fill-rule="evenodd" fill-opacity="1"/><path d="M2725.5 748.334C2725.5 737.38 2734.38 728.5 2745.33 728.5L3540.67 728.5C3551.62 728.5 3560.5 737.38 3560.5 748.334L3560.5 827.666C3560.5 838.62 3551.62 847.5 3540.67 847.5L2745.33 847.5C2734.38 847.5 2725.5 838.62 2725.5 827.666Z" stroke="#148E7A" stroke-width="4.58333" stroke-linecap="butt" stroke-linejoin="miter" stroke-miterlimit="8" stroke-opacity="1" fill="#1FC2A7" fill-rule="evenodd" fill-opacity="1"/><path d="M2725.5 909.167C2725.5 898.305 2734.31 889.5 2745.17 889.5L3540.83 889.5C3551.69 889.5 3560.5 898.305 3560.5 909.167L3560.5 987.833C3560.5 998.695 3551.69 1007.5 3540.83 1007.5L2745.17 1007.5C2734.31 1007.5 2725.5 998.695 2725.5 987.833Z" stroke="#148E7A" stroke-width="4.58333" stroke-linecap="butt" stroke-linejoin="miter" stroke-miterlimit="8" stroke-opacity="1" fill="#1FC2A7" fill-rule="evenodd" fill-opacity="1"/><path d="M2725.5 1072.17C2725.5 1061.31 2734.31 1052.5 2745.17 1052.5L3540.83 1052.5C3551.69 1052.5 3560.5 1061.31 3560.5 1072.17L3560.5 1150.83C3560.5 1161.69 3551.69 1170.5 3540.83 1170.5L2745.17 1170.5C2734.31 1170.5 2725.5 1161.69 2725.5 1150.83Z" stroke="#148E7A" stroke-width="4.58333" stroke-linecap="butt" stroke-linejoin="miter" stroke-miterlimit="8" stroke-opacity="1" fill="#1FC2A7" fill-rule="evenodd" fill-opacity="1"/><path d="M2725.5 1232.17C2725.5 1221.31 2734.31 1212.5 2745.17 1212.5L3540.83 1212.5C3551.69 1212.5 3560.5 1221.31 3560.5 1232.17L3560.5 1310.83C3560.5 1321.69 3551.69 1330.5 3540.83 1330.5L2745.17 1330.5C2734.31 1330.5 2725.5 1321.69 2725.5 1310.83Z" stroke="#148E7A" stroke-width="4.58333" stroke-linecap="butt" stroke-linejoin="miter" stroke-miterlimit="8" stroke-opacity="1" fill="#1FC2A7" fill-rule="evenodd" fill-opacity="1"/><path d="M2725.5 1392.33C2725.5 1381.38 2734.38 1372.5 2745.33 1372.5L3540.67 1372.5C3551.62 1372.5 3560.5 1381.38 3560.5 1392.33L3560.5 1471.67C3560.5 1482.62 3551.62 1491.5 3540.67 1491.5L2745.33 1491.5C2734.38 1491.5 2725.5 1482.62 2725.5 1471.67Z" stroke="#148E7A" stroke-width="4.58333" stroke-linecap="butt" stroke-linejoin="miter" stroke-miterlimit="8" stroke-opacity="1" fill="#1FC2A7" fill-rule="evenodd" fill-opacity="1"/><text fill="#595959" fill-opacity="1" font-family="Calibri,Calibri_MSFontService,sans-serif" font-style="normal" font-variant="normal" font-weight="400" font-stretch="normal" font-size="83" text-anchor="start" direction="ltr" writing-mode="lr-tb" unicode-bidi="normal" text-decoration="none" transform="matrix(1 0 0 1 2762.61 652)">Output[Sample Name]</text><text fill="#595959" fill-opacity="1" font-family="Calibri,Calibri_MSFontService,sans-serif" font-style="normal" font-variant="normal" font-weight="400" font-stretch="normal" font-size="83" text-anchor="start" direction="ltr" writing-mode="lr-tb" unicode-bidi="normal" text-decoration="none" transform="matrix(1 0 0 1 1143.36 813)">leaf_nrm</text><text fill="#595959" fill-opacity="1" font-family="Calibri,Calibri_MSFontService,sans-serif" font-style="normal" font-variant="normal" font-weight="400" font-stretch="normal" font-size="83" text-anchor="start" direction="ltr" writing-mode="lr-tb" unicode-bidi="normal" text-decoration="none" transform="matrix(1 0 0 1 1148.52 981)">leaf_cold</text><text fill="#595959" fill-opacity="1" font-family="Calibri,Calibri_MSFontService,sans-serif" font-style="normal" font-variant="normal" font-weight="400" font-stretch="normal" font-size="83" text-anchor="start" direction="ltr" writing-mode="lr-tb" unicode-bidi="normal" text-decoration="none" transform="matrix(1 0 0 1 2965.79 813)">spl_nrm</text><text fill="#595959" fill-opacity="1" font-family="Calibri,Calibri_MSFontService,sans-serif" font-style="normal" font-variant="normal" font-weight="400" font-stretch="normal" font-size="83" text-anchor="start" direction="ltr" writing-mode="lr-tb" unicode-bidi="normal" text-decoration="none" transform="matrix(1 0 0 1 2970.95 981)">spl_cold</text><text fill="#595959" fill-opacity="1" font-family="Calibri,Calibri_MSFontService,sans-serif" font-style="normal" font-variant="normal" font-weight="400" font-stretch="normal" font-size="83" text-anchor="start" direction="ltr" writing-mode="lr-tb" unicode-bidi="normal" text-decoration="none" transform="matrix(1 0 0 1 1800.41 650)">Protocol REF</text><text fill="#595959" fill-opacity="1" font-family="Calibri,Calibri_MSFontService,sans-serif" font-style="normal" font-variant="normal" font-weight="400" font-stretch="normal" font-size="83" text-anchor="start" direction="ltr" writing-mode="lr-tb" unicode-bidi="normal" text-decoration="none" transform="matrix(1 0 0 1 1782.45 807)">growth_protocol.txt</text><text fill="#595959" fill-opacity="1" font-family="Calibri,Calibri_MSFontService,sans-serif" font-style="normal" font-variant="normal" font-weight="400" font-stretch="normal" font-size="83" text-anchor="start" direction="ltr" writing-mode="lr-tb" unicode-bidi="normal" text-decoration="none" transform="matrix(1 0 0 1 1782.45 971)">growth_protocol.txt</text></g></g></svg>