<svg width="2796" height="1333" xmlns="http://www.w3.org/2000/svg" xmlns:xlink="http://www.w3.org/1999/xlink" xml:space="preserve" overflow="hidden"><g transform="translate(-568 -550)"><g><path d="M1146.5 587.667C1146.5 574.872 1156.87 564.5 1169.67 564.5L1861.33 564.5C1874.13 564.5 1884.5 574.872 1884.5 587.667L1884.5 680.333C1884.5 693.128 1874.13 703.5 1861.33 703.5L1169.67 703.5C1156.87 703.5 1146.5 693.128 1146.5 680.333Z" stroke="#1FC2A7" stroke-width="4.58333" stroke-linecap="butt" stroke-linejoin="miter" stroke-miterlimit="8" stroke-opacity="1" fill="#1FC2A7" fill-rule="evenodd" fill-opacity="1"/><rect x="2443" y="1183" width="174" height="144" fill="#595959" fill-opacity="0.501961"/><rect x="2626" y="1183" width="173" height="144" fill="#595959" fill-opacity="0.501961"/><rect x="2808" y="1183" width="174" height="144" fill="#595959" fill-opacity="0.501961"/><rect x="2443" y="1336" width="174" height="144" fill="#595959" fill-opacity="0.501961"/><rect x="2626" y="1336" width="173" height="144" fill="#595959" fill-opacity="0.501961"/><rect x="2808" y="1336" width="174" height="144" fill="#595959" fill-opacity="0.501961"/><rect x="2443" y="1485" width="174" height="144" fill="#595959" fill-opacity="0.501961"/><rect x="2626" y="1485" width="173" height="144" fill="#595959" fill-opacity="0.501961"/><rect x="2808" y="1485" width="174" height="144" fill="#595959" fill-opacity="0.501961"/><rect x="2448" y="1087" width="173" height="71.0001" fill="#1FC2A7" fill-opacity="1"/><rect x="2805" y="1087" width="174" height="71.0001" fill="#0BB5DD" fill-opacity="1"/><rect x="2626" y="1087" width="174" height="71.0001" fill="#2981BE" fill-opacity="1"/><text fill="#0BB5DD" fill-opacity="1" font-family="Calibri,Calibri_MSFontService,sans-serif" font-style="normal" font-variant="normal" font-weight="400" font-stretch="normal" font-size="64" text-anchor="start" direction="ltr" writing-mode="lr-tb" unicode-bidi="normal" text-decoration="none" transform="matrix(1 0 0 1 922.8 1490)">material</text><text fill="#0BB5DD" fill-opacity="1" font-family="Calibri,Calibri_MSFontService,sans-serif" font-style="normal" font-variant="normal" font-weight="400" font-stretch="normal" font-size="64" text-anchor="start" direction="ltr" writing-mode="lr-tb" unicode-bidi="normal" text-decoration="none" transform="matrix(1 0 0 1 1968.26 1475)">samples</text><path d="M1209.5 1247.06 1873.62 1247.06 1873.62 1253.94 1209.5 1253.94ZM1873.62 1236.75C1881.22 1236.75 1887.37 1242.91 1887.37 1250.5 1887.37 1258.09 1881.22 1264.25 1873.62 1264.25 1866.03 1264.25 1859.87 1258.09 1859.87 1250.5 1859.87 1242.91 1866.03 1236.75 1873.62 1236.75Z" fill="#7F7F7F" fill-rule="nonzero" fill-opacity="1"/><rect x="1666" y="1237" width="22" height="25.9998" fill="#FFFFFF" fill-opacity="1"/><path d="M1286.5 1232.5C1286.5 1227.53 1290.53 1223.5 1295.5 1223.5L1347.5 1223.5C1352.47 1223.5 1356.5 1227.53 1356.5 1232.5L1356.5 1268.5C1356.5 1273.47 1352.47 1277.5 1347.5 1277.5L1295.5 1277.5C1290.53 1277.5 1286.5 1273.47 1286.5 1268.5Z" stroke="#024A5D" stroke-width="4.58333" stroke-linecap="butt" stroke-linejoin="miter" stroke-miterlimit="8" stroke-opacity="1" fill="#0BB5DD" fill-rule="evenodd" fill-opacity="1"/><path d="M1369.5 1232.5C1369.5 1227.53 1373.53 1223.5 1378.5 1223.5L1431.5 1223.5C1436.47 1223.5 1440.5 1227.53 1440.5 1232.5L1440.5 1268.5C1440.5 1273.47 1436.47 1277.5 1431.5 1277.5L1378.5 1277.5C1373.53 1277.5 1369.5 1273.47 1369.5 1268.5Z" stroke="#024A5D" stroke-width="4.58333" stroke-linecap="butt" stroke-linejoin="miter" stroke-miterlimit="8" stroke-opacity="1" fill="#0BB5DD" fill-rule="evenodd" fill-opacity="1"/><path d="M1452.5 1232.5C1452.5 1227.53 1456.53 1223.5 1461.5 1223.5L1514.5 1223.5C1519.47 1223.5 1523.5 1227.53 1523.5 1232.5L1523.5 1268.5C1523.5 1273.47 1519.47 1277.5 1514.5 1277.5L1461.5 1277.5C1456.53 1277.5 1452.5 1273.47 1452.5 1268.5Z" stroke="#024A5D" stroke-width="4.58333" stroke-linecap="butt" stroke-linejoin="miter" stroke-miterlimit="8" stroke-opacity="1" fill="#0BB5DD" fill-rule="evenodd" fill-opacity="1"/><path d="M1538.5 1232.5C1538.5 1227.53 1542.53 1223.5 1547.5 1223.5L1677.5 1223.5C1682.47 1223.5 1686.5 1227.53 1686.5 1232.5L1686.5 1268.5C1686.5 1273.47 1682.47 1277.5 1677.5 1277.5L1547.5 1277.5C1542.53 1277.5 1538.5 1273.47 1538.5 1268.5Z" stroke="#024A5D" stroke-width="4.58333" stroke-linecap="butt" stroke-linejoin="miter" stroke-miterlimit="8" stroke-opacity="1" fill="#0BB5DD" fill-rule="evenodd" fill-opacity="1"/><path d="M1701.5 1232.5C1701.5 1227.53 1705.53 1223.5 1710.5 1223.5L1763.5 1223.5C1768.47 1223.5 1772.5 1227.53 1772.5 1232.5L1772.5 1268.5C1772.5 1273.47 1768.47 1277.5 1763.5 1277.5L1710.5 1277.5C1705.53 1277.5 1701.5 1273.47 1701.5 1268.5Z" stroke="#024A5D" stroke-width="4.58333" stroke-linecap="butt" stroke-linejoin="miter" stroke-miterlimit="8" stroke-opacity="1" fill="#0BB5DD" fill-rule="evenodd" fill-opacity="1"/><text fill="#FFFFFF" fill-opacity="1" font-family="Calibri,Calibri_MSFontService,sans-serif" font-style="normal" font-variant="normal" font-weight="400" font-stretch="normal" font-size="46" text-anchor="start" direction="ltr" writing-mode="lr-tb" unicode-bidi="normal" text-decoration="none" transform="matrix(1 0 0 1 1306.13 1264)">P</text><text fill="#FFFFFF" fill-opacity="1" font-family="Calibri,Calibri_MSFontService,sans-serif" font-style="normal" font-variant="normal" font-weight="400" font-stretch="normal" font-size="31" text-anchor="start" direction="ltr" writing-mode="lr-tb" unicode-bidi="normal" text-decoration="none" transform="matrix(1 0 0 1 1329.62 1274)">1</text><text fill="#FFFFFF" fill-opacity="1" font-family="Calibri,Calibri_MSFontService,sans-serif" font-style="normal" font-variant="normal" font-weight="400" font-stretch="normal" font-size="46" text-anchor="start" direction="ltr" writing-mode="lr-tb" unicode-bidi="normal" text-decoration="none" transform="matrix(1 0 0 1 1386.34 1266)">P</text><text fill="#FFFFFF" fill-opacity="1" font-family="Calibri,Calibri_MSFontService,sans-serif" font-style="normal" font-variant="normal" font-weight="400" font-stretch="normal" font-size="31" text-anchor="start" direction="ltr" writing-mode="lr-tb" unicode-bidi="normal" text-decoration="none" transform="matrix(1 0 0 1 1409.83 1276)">2</text><text fill="#FFFFFF" fill-opacity="1" font-family="Calibri,Calibri_MSFontService,sans-serif" font-style="normal" font-variant="normal" font-weight="400" font-stretch="normal" font-size="46" text-anchor="start" direction="ltr" writing-mode="lr-tb" unicode-bidi="normal" text-decoration="none" transform="matrix(1 0 0 1 1468.5 1266)">P</text><text fill="#FFFFFF" fill-opacity="1" font-family="Calibri,Calibri_MSFontService,sans-serif" font-style="normal" font-variant="normal" font-weight="400" font-stretch="normal" font-size="31" text-anchor="start" direction="ltr" writing-mode="lr-tb" unicode-bidi="normal" text-decoration="none" transform="matrix(1 0 0 1 1491.99 1276)">3</text><text fill="#FFFFFF" fill-opacity="1" font-family="Calibri,Calibri_MSFontService,sans-serif" font-style="normal" font-variant="normal" font-weight="400" font-stretch="normal" font-size="46" text-anchor="start" direction="ltr" writing-mode="lr-tb" unicode-bidi="normal" text-decoration="none" transform="matrix(1 0 0 1 1718.54 1266)">P</text><text fill="#FFFFFF" fill-opacity="1" font-family="Calibri,Calibri_MSFontService,sans-serif" font-style="normal" font-variant="normal" font-weight="400" font-stretch="normal" font-size="31" text-anchor="start" direction="ltr" writing-mode="lr-tb" unicode-bidi="normal" text-decoration="none" transform="matrix(1 0 0 1 1742.03 1276)">n</text><path d="M1905.5 1396.5 1934.5 1396.5 1934.5 1441.84 1934.5 1441.84 1934.49 1442.02C1934.42 1442.92 1934.24 1444.28 1933.9 1446.55 1932.55 1455.65 1927.73 1479.66 1925.93 1485.25 1924.12 1490.85 1919.3 1497.77 1915.84 1490.09 1912.81 1483.37 1908.28 1461.6 1905.99 1445.59L1905.5 1441.84 1905.5 1441.84Z" stroke="#024A5D" stroke-width="4.58333" stroke-linecap="butt" stroke-linejoin="miter" stroke-miterlimit="8" stroke-opacity="1" fill="#0BB5DD" fill-rule="evenodd" fill-opacity="1"/><path d="M1889.5 1388.5C1891.44 1390.09 1893.37 1391.68 1895.87 1392.24 1898.37 1392.8 1901.43 1392.34 1904.5 1391.87" stroke="#024A5D" stroke-width="4.58333" stroke-linecap="butt" stroke-linejoin="miter" stroke-miterlimit="8" stroke-opacity="1" fill="#0BB5DD" fill-rule="evenodd" fill-opacity="1"/><rect x="1903.5" y="1390.5" width="33" height="6.00024" stroke="#024A5D" stroke-width="4.58333" stroke-linecap="butt" stroke-linejoin="miter" stroke-miterlimit="8" stroke-opacity="1" fill="#0BB5DD" fill-opacity="1"/><path d="M1869.35 1363.23 1891.78 1377.8 1887.17 1384.9 1864.74 1370.33Z" stroke="#024A5D" stroke-width="4.58333" stroke-linecap="butt" stroke-linejoin="miter" stroke-miterlimit="8" stroke-opacity="1" fill="#0BB5DD" fill-rule="nonzero" fill-opacity="1"/><path d="M1862.05 1368.58 1889.86 1386.65 1886.87 1391.25 1859.05 1373.19Z" stroke="#024A5D" stroke-width="4.58333" stroke-linecap="butt" stroke-linejoin="miter" stroke-miterlimit="8" stroke-opacity="1" fill="#0BB5DD" fill-rule="nonzero" fill-opacity="1"/><path d="M1888.5 1390.5C1890.44 1392.09 1892.37 1393.68 1894.87 1394.24 1897.37 1394.81 1900.43 1394.34 1903.5 1393.87" stroke="#024A5D" stroke-width="4.58333" stroke-linecap="butt" stroke-linejoin="miter" stroke-miterlimit="8" stroke-opacity="1" fill="#0BB5DD" fill-rule="evenodd" fill-opacity="1"/><path d="M1906.5 1404.5 1921.48 1404.5" stroke="#024A5D" stroke-width="4.58333" stroke-linecap="butt" stroke-linejoin="miter" stroke-miterlimit="8" stroke-opacity="1" fill="#0BB5DD" fill-rule="evenodd" fill-opacity="1"/><path d="M1906.5 1428.5 1921.48 1428.5" stroke="#024A5D" stroke-width="4.58333" stroke-linecap="butt" stroke-linejoin="miter" stroke-miterlimit="8" stroke-opacity="1" fill="#0BB5DD" fill-rule="evenodd" fill-opacity="1"/><path d="M1906 1443 1933 1443 1932.99 1443.17C1932.92 1444.05 1932.76 1445.37 1932.45 1447.57 1931.18 1456.37 1926.7 1479.61 1925.02 1485.02 1923.34 1490.43 1918.85 1497.14 1915.63 1489.7 1912.81 1483.19 1908.59 1462.12 1906.45 1446.64Z" fill="#1FC2A7" fill-rule="evenodd" fill-opacity="1"/><path d="M1897.5 1206.5 1926.5 1206.5 1926.5 1251.84 1926.5 1251.84 1926.49 1252.02C1926.42 1252.92 1926.24 1254.28 1925.9 1256.55 1924.55 1265.65 1919.73 1289.66 1917.93 1295.25 1916.12 1300.85 1911.3 1307.77 1907.84 1300.09 1904.81 1293.37 1900.28 1271.6 1897.99 1255.59L1897.5 1251.84 1897.5 1251.84Z" stroke="#024A5D" stroke-width="4.58333" stroke-linecap="butt" stroke-linejoin="miter" stroke-miterlimit="8" stroke-opacity="1" fill="#0BB5DD" fill-rule="evenodd" fill-opacity="1"/><path d="M1881.5 1198.5C1883.43 1200.09 1885.37 1201.68 1887.87 1202.24 1890.37 1202.8 1893.43 1202.34 1896.5 1201.87" stroke="#024A5D" stroke-width="4.58333" stroke-linecap="butt" stroke-linejoin="miter" stroke-miterlimit="8" stroke-opacity="1" fill="#0BB5DD" fill-rule="evenodd" fill-opacity="1"/><rect x="1895.5" y="1200.5" width="33" height="5.00012" stroke="#024A5D" stroke-width="4.58333" stroke-linecap="butt" stroke-linejoin="miter" stroke-miterlimit="8" stroke-opacity="1" fill="#0BB5DD" fill-opacity="1"/><path d="M1861.43 1172.85 1883.86 1187.42 1879.25 1194.52 1856.82 1179.95Z" stroke="#024A5D" stroke-width="4.58333" stroke-linecap="butt" stroke-linejoin="miter" stroke-miterlimit="8" stroke-opacity="1" fill="#0BB5DD" fill-rule="nonzero" fill-opacity="1"/><path d="M1854.13 1178.2 1881.94 1196.27 1878.95 1200.88 1851.14 1182.81Z" stroke="#024A5D" stroke-width="4.58333" stroke-linecap="butt" stroke-linejoin="miter" stroke-miterlimit="8" stroke-opacity="1" fill="#0BB5DD" fill-rule="nonzero" fill-opacity="1"/><path d="M1880.5 1199.5C1882.44 1201.09 1884.37 1202.68 1886.87 1203.24 1889.37 1203.8 1892.43 1203.34 1895.5 1202.87" stroke="#024A5D" stroke-width="4.58333" stroke-linecap="butt" stroke-linejoin="miter" stroke-miterlimit="8" stroke-opacity="1" fill="#0BB5DD" fill-rule="evenodd" fill-opacity="1"/><path d="M1898.5 1214.5 1913.48 1214.5" stroke="#024A5D" stroke-width="4.58333" stroke-linecap="butt" stroke-linejoin="miter" stroke-miterlimit="8" stroke-opacity="1" fill="#0BB5DD" fill-rule="evenodd" fill-opacity="1"/><path d="M1898.5 1237.5 1913.48 1237.5" stroke="#024A5D" stroke-width="4.58333" stroke-linecap="butt" stroke-linejoin="miter" stroke-miterlimit="8" stroke-opacity="1" fill="#0BB5DD" fill-rule="evenodd" fill-opacity="1"/><path d="M1898.5 1253.5 1925.5 1253.5 1925.49 1253.67C1925.42 1254.53 1925.26 1255.82 1924.95 1257.98 1923.68 1266.6 1919.2 1289.37 1917.52 1294.68 1915.84 1299.98 1911.35 1306.55 1908.13 1299.27 1905.31 1292.89 1901.09 1272.24 1898.95 1257.06Z" stroke="#024A5D" stroke-width="4.58333" stroke-linecap="butt" stroke-linejoin="miter" stroke-miterlimit="8" stroke-opacity="1" fill="#0BB5DD" fill-rule="evenodd" fill-opacity="1"/><path d="M1977.5 1291.5 2007.5 1291.5 2007.5 1336.84 2007.5 1336.84 2007.49 1337.02C2007.42 1337.92 2007.23 1339.28 2006.88 1341.55 2005.48 1350.65 2000.5 1374.66 1998.63 1380.25 1996.76 1385.85 1991.78 1392.77 1988.2 1385.09 1985.06 1378.37 1980.38 1356.6 1978 1340.59L1977.5 1336.84 1977.5 1336.84Z" stroke="#024A5D" stroke-width="4.58333" stroke-linecap="butt" stroke-linejoin="miter" stroke-miterlimit="8" stroke-opacity="1" fill="#0BB5DD" fill-rule="evenodd" fill-opacity="1"/><path d="M1962.5 1283.5C1964.31 1285.09 1966.11 1286.68 1968.45 1287.24 1970.78 1287.8 1973.64 1287.34 1976.5 1286.87" stroke="#024A5D" stroke-width="4.58333" stroke-linecap="butt" stroke-linejoin="miter" stroke-miterlimit="8" stroke-opacity="1" fill="#0BB5DD" fill-rule="evenodd" fill-opacity="1"/><rect x="1975.5" y="1286.5" width="33" height="4.99976" stroke="#024A5D" stroke-width="4.58333" stroke-linecap="butt" stroke-linejoin="miter" stroke-miterlimit="8" stroke-opacity="1" fill="#0BB5DD" fill-opacity="1"/><path d="M1941.86 1258.52 1964.29 1273.08 1959.68 1280.18 1937.25 1265.62Z" stroke="#024A5D" stroke-width="4.58333" stroke-linecap="butt" stroke-linejoin="miter" stroke-miterlimit="8" stroke-opacity="1" fill="#0BB5DD" fill-rule="nonzero" fill-opacity="1"/><path d="M1934.56 1263.87 1962.37 1281.93 1959.38 1286.54 1931.57 1268.47Z" stroke="#024A5D" stroke-width="4.58333" stroke-linecap="butt" stroke-linejoin="miter" stroke-miterlimit="8" stroke-opacity="1" fill="#0BB5DD" fill-rule="nonzero" fill-opacity="1"/><path d="M1961.5 1285.5C1963.31 1287.09 1965.11 1288.68 1967.45 1289.24 1969.78 1289.8 1972.64 1289.34 1975.5 1288.87" stroke="#024A5D" stroke-width="4.58333" stroke-linecap="butt" stroke-linejoin="miter" stroke-miterlimit="8" stroke-opacity="1" fill="#0BB5DD" fill-rule="evenodd" fill-opacity="1"/><path d="M1978.5 1299.5 1993.48 1299.5" stroke="#024A5D" stroke-width="4.58333" stroke-linecap="butt" stroke-linejoin="miter" stroke-miterlimit="8" stroke-opacity="1" fill="#0BB5DD" fill-rule="evenodd" fill-opacity="1"/><path d="M1978.5 1323.5 1993.48 1323.5" stroke="#024A5D" stroke-width="4.58333" stroke-linecap="butt" stroke-linejoin="miter" stroke-miterlimit="8" stroke-opacity="1" fill="#0BB5DD" fill-rule="evenodd" fill-opacity="1"/><path d="M1978 1338 2006 1338 2005.99 1338.17C2005.92 1339.05 2005.75 1340.37 2005.43 1342.57 2004.12 1351.37 1999.47 1374.61 1997.72 1380.02 1995.98 1385.43 1991.33 1392.14 1987.98 1384.7 1985.06 1378.19 1980.69 1357.12 1978.47 1341.64Z" fill="#2981BE" fill-rule="evenodd" fill-opacity="1"/><path d="M1122.5 1292.17C1122.5 1288.48 1125.48 1285.5 1129.17 1285.5L1188.83 1285.5C1192.52 1285.5 1195.5 1288.48 1195.5 1292.17L1195.5 1318.83C1195.5 1322.52 1192.52 1325.5 1188.83 1325.5L1129.17 1325.5C1125.48 1325.5 1122.5 1322.52 1122.5 1318.83Z" stroke="#212121" stroke-width="4.58333" stroke-linecap="butt" stroke-linejoin="miter" stroke-miterlimit="8" stroke-opacity="1" fill="#595959" fill-rule="evenodd" fill-opacity="1"/><text fill="#FFFFFF" fill-opacity="1" font-family="Calibri,Calibri_MSFontService,sans-serif" font-style="normal" font-variant="normal" font-weight="400" font-stretch="normal" font-size="41" text-anchor="start" direction="ltr" writing-mode="lr-tb" unicode-bidi="normal" text-decoration="none" transform="matrix(1 0 0 1 1143.63 1316)">c</text><text fill="#FFFFFF" fill-opacity="1" font-family="Calibri,Calibri_MSFontService,sans-serif" font-style="normal" font-variant="normal" font-weight="400" font-stretch="normal" font-size="28" text-anchor="start" direction="ltr" writing-mode="lr-tb" unicode-bidi="normal" text-decoration="none" transform="matrix(1 0 0 1 1160.81 1325)">1</text><path d="M1122.5 1390.33C1122.5 1386.56 1125.56 1383.5 1129.33 1383.5L1188.67 1383.5C1192.44 1383.5 1195.5 1386.56 1195.5 1390.33L1195.5 1417.67C1195.5 1421.44 1192.44 1424.5 1188.67 1424.5L1129.33 1424.5C1125.56 1424.5 1122.5 1421.44 1122.5 1417.67Z" stroke="#212121" stroke-width="4.58333" stroke-linecap="butt" stroke-linejoin="miter" stroke-miterlimit="8" stroke-opacity="1" fill="#595959" fill-rule="evenodd" fill-opacity="1"/><text fill="#FFFFFF" fill-opacity="1" font-family="Calibri,Calibri_MSFontService,sans-serif" font-style="normal" font-variant="normal" font-weight="400" font-stretch="normal" font-size="41" text-anchor="start" direction="ltr" writing-mode="lr-tb" unicode-bidi="normal" text-decoration="none" transform="matrix(1 0 0 1 1143.75 1414)">c</text><text fill="#FFFFFF" fill-opacity="1" font-family="Calibri,Calibri_MSFontService,sans-serif" font-style="normal" font-variant="normal" font-weight="400" font-stretch="normal" font-size="28" text-anchor="start" direction="ltr" writing-mode="lr-tb" unicode-bidi="normal" text-decoration="none" transform="matrix(1 0 0 1 1160.94 1424)">n</text><path d="M1123.5 1341.33C1123.5 1337.56 1126.56 1334.5 1130.33 1334.5L1189.67 1334.5C1193.44 1334.5 1196.5 1337.56 1196.5 1341.33L1196.5 1368.67C1196.5 1372.44 1193.44 1375.5 1189.67 1375.5L1130.33 1375.5C1126.56 1375.5 1123.5 1372.44 1123.5 1368.67Z" stroke="#212121" stroke-width="4.58333" stroke-linecap="butt" stroke-linejoin="miter" stroke-miterlimit="8" stroke-opacity="1" fill="#595959" fill-rule="evenodd" fill-opacity="1"/><text fill="#FFFFFF" fill-opacity="1" font-family="Calibri,Calibri_MSFontService,sans-serif" font-style="normal" font-variant="normal" font-weight="400" font-stretch="normal" font-size="41" text-anchor="start" direction="ltr" writing-mode="lr-tb" unicode-bidi="normal" text-decoration="none" transform="matrix(1 0 0 1 1147.58 1366)">…</text><path d="M984.29 1226.38 984.763 1219.05 980.182 1207.05 979.179 1186.83 983.637 1175.75 997.08 1162.39 1013.48 1155.09 1027.29 1153.63 1041.83 1155 1050.3 1159.33 1057.56 1166.9 1064.1 1178.85 1065.2 1194.86 1063.5 1209.77 1061 1219.53 1055 1228.24 1047.65 1236.82 1042.14 1241.99 1032.63 1244.95 1020.21 1243.8 1008.62 1241.27 1000.24 1238.33 991.798 1241.58 984.902 1245.92 969.289 1260.54 953.556 1274.33 944.265 1282.04 986.318 1284.71 991.421 1283.21 996.079 1277.81 1000.52 1271.09 1007.78 1265.81 1013.58 1263.01 1021.34 1261.42 1029.58 1263.17 1038.83 1262.89 1052.39 1266.64 1060.15 1269.75 1064.17 1272.32 1067.21 1275.08 1073.8 1279.6 1079.21 1283.35 1083.04 1287.47 1086.39 1292.95 1087.36 1297.45 1089.18 1305.62 1089.16 1313.41 1087.71 1319.68 1082.87 1327.9 1078.87 1332.56 1067.28 1338.17 1053.33 1341.88 1039.36 1343.07 1029.76 1340.84 1019.85 1337.15 1012.93 1333.01 1002.74 1329.13 996.317 1322.71 992.459 1315.71 989.915 1307.23 989.663 1303.04 990.455 1297.52 989.045 1295.07 942.436 1290.15 946.294 1297.15 946.268 1295.54 942.629 1289.86 941.781 1282.75C943.202 1281.87 944.623 1280.99 946.043 1280.11L948.772 1277.63 951.229 1275.31 952.616 1272.7 953.111 1270.42 952.744 1266.66 951.434 1264.7 958.253 1260.22 965.774 1252.26 974.658 1244.78 978.795 1240.04 984.104 1232.64 984.29 1226.38Z" stroke="#767171" stroke-width="1.14583" stroke-linecap="butt" stroke-linejoin="miter" stroke-miterlimit="8" stroke-opacity="1" fill="#E2F0D9" fill-rule="evenodd" fill-opacity="1"/><path d="M930.657 1267.41 930.657 1267.41 928.153 1254.81 927.256 1248.44 927.893 1244.5 929.242 1243.85 934.368 1241.02 936.886 1237.58 938.081 1230.93 937.983 1225.02 938.363 1217.65 936.407 1209.9 934.799 1203.67 932.779 1197.42 931.857 1194.9 930.709 1192.92C930.219 1191.83 930.427 1192.2 930.177 1191.77L929.933 1191.11 929.271 1189.51 928.138 1187.78 927.236 1186.44 926.406 1185.46 925.32 1184.5 924.647 1183.56 923.66 1182.54 922.903 1181.92 922.188 1181.14 921.029 1179.82 920.287 1179.45 919.159 1178.65 918.131 1177.78 916.746 1176.99 915.833 1176.33 915.19 1175.91 914.005 1175 913.248 1174.38 912.177 1173.67 911.592 1173.34 910.693 1172.94 909.325 1172.4 908.269 1171.95 906.916 1171.67 906.075 1171.36 904.863 1170.87 903.238 1170.35 901.785 1170.13 900.359 1169.49 899.376 1169.4 898.138 1169.32 896.471 1168.96C895.45 1168.86 895.773 1168.7 895.389 1168.92L894.349 1168.72 892.912 1168.76 891.161 1168.71 889.326 1168.97 888.301 1169.04 887.277 1169.1 886.21 1169.32 884.459 1169.27 883.278 1169.29 882.238 1169.09C881.175 1169.16 881.51 1168.98 881.114 1169.21L880.602 1169.24 878.939 1169.8 877.574 1170.19 875.885 1171.17 875.545 1171.5 874.524 1172.48 873.588 1173.16 872.384 1174.52 871.353 1176.17 869.877 1177.29 868.517 1178.6 867.909 1179.62 867.547 1181.28 866.271 1185.73 865.652 1187.41 865.941 1191.35 865.873 1195.37 867.542 1202.62 868.201 1206.74 869.365 1212.43 870.789 1219.03 872.45 1224.43 873.418 1227.72 875.369 1231.09 880.168 1234.82 883.514 1238.32 887.117 1241.8 891.518 1245.75 894.145 1247.55 896.443 1249.01 899.766 1250.4 903.409 1250.28 906.666 1249.73C907.718 1249.55 907.307 1249.59 907.889 1249.55L910.55 1249.34 912.871 1249.46 915.333 1249.36 917.286 1250.22 919.076 1252.63 919.593 1253.53 921 1256.43C921.433 1257.8 921.142 1257.13 921.892 1258.43L922.255 1260.21C922.4 1260.61 922.556 1261.01 922.688 1261.41 922.725 1261.53 922.712 1261.66 922.761 1261.77 922.853 1261.98 922.99 1262.17 923.105 1262.37L923.484 1264.4C923.836 1265.52 923.625 1265.1 923.974 1265.71L924.322 1267.23 924.64 1268.24 924.957 1269.25C925.063 1269.58 925.196 1269.91 925.275 1270.26 925.313 1270.42 925.306 1270.77 925.306 1270.77L925.754 1272.23 926.171 1273.18 926.274 1274.05C926.626 1275.17 926.415 1274.76 926.764 1275.36L926.737 1275.77 926.913 1277 927.808 1276.48 928.928 1275.43 929.336 1274.54 929.546 1273.75 930.139 1272.48 930.657 1267.41Z" stroke="#767171" stroke-width="1.14583" stroke-linecap="butt" stroke-linejoin="miter" stroke-miterlimit="8" stroke-opacity="1" fill="#E2F0D9" fill-rule="evenodd" fill-opacity="1"/><path d="M875.942 1232.09 878.544 1237.74 879.967 1240.89 882.216 1244.1 884.472 1245.71 885.329 1246.28 887.757 1248.19 889.47 1249.32 890.64 1249.97 892.024 1250.76 892.881 1251.33 894.307 1251.96 900.714 1252.5 902.339 1253.02 904.675 1253.4 906.583 1253.49 908.422 1254.15 910.296 1256.25 910.912 1257.08 913.035 1260.76 914.871 1263.94 916.634 1266.76 918.501 1270.46 919.58 1273.01 921.071 1275.6 922.234 1277.84 924.643 1278.57 926.352 1278.78 927.044 1277.45 927.253 1276.67 922.171 1260.52 920.243 1255.8 919.968 1254.64 918.246 1251.66 915.703 1249.55 912.071 1248.99 904.433 1250.22 899.766 1250.4 894.73 1247.87 887.288 1242.1 875.942 1232.09Z" stroke="#767171" stroke-width="1.14583" stroke-linecap="butt" stroke-linejoin="miter" stroke-miterlimit="8" stroke-opacity="1" fill="#E2F0D9" fill-rule="evenodd" fill-opacity="1"/><path d="M918.025 1278.81 905.779 1274.36 892.619 1269.23 882.211 1265.44 873.268 1261.19 870.071 1259.33 867.134 1254.93 865.038 1250.84 863.213 1246.99 861.476 1243.75 859.698 1240.67 857.694 1238.12 855.648 1235.72 852.818 1233.12 849.147 1230.2 843.182 1226.75 836.464 1223.61 831.119 1221.93 829.008 1221.02 825.414 1219.39 818.705 1218.09 811.204 1218.19 803.968 1220.11 794.305 1223.57 790.857 1226.09 785.857 1228.45 781.363 1232.37 778.856 1235.14 776.464 1238.11 772.822 1241.67 770.579 1246.28 767.995 1257.18 767.367 1266.42 769.018 1275.93 772.947 1285.72 775.368 1289.23 787.356 1299.66 802.1 1308.91 813.23 1311.89 822.18 1314.54 831.818 1314.94 840.167 1313.56 851.072 1307.66 859.732 1299.48 863.477 1293.35 866.44 1284.48 870.005 1279.64 875.032 1276.87 881.928 1275.27 889.991 1276.85 913.941 1285.28 915.618 1281.53 918.025 1278.81Z" stroke="#767171" stroke-width="1.14583" stroke-linecap="butt" stroke-linejoin="miter" stroke-miterlimit="8" stroke-opacity="1" fill="#E2F0D9" fill-rule="evenodd" fill-opacity="1"/><path d="M943.41 1306.03 949.631 1322.31 955.238 1328.35 958.774 1329.89 963.902 1333.95 966.33 1335.86 968.982 1343.21 970.135 1349.56 968.968 1359.25 965.067 1365.34 957.006 1370.66 954.308 1371.95 949.9 1373.04 946.314 1373.25 943.263 1372.1 940.097 1370.75 936.958 1368.98 935 1367.2 932.323 1363.71 931.16 1361.46 930.472 1360.27 929.706 1357.8 929.159 1356.39 929.025 1355.01 928.749 1353.85 928.332 1352.89 928.573 1352.62 928.297 1351.46 928.225 1351.1 927.892 1349.84 927.819 1349.48 927.872 1348.66 927.811 1347.63 927.948 1346.49 928.399 1345.44C928.589 1344.06 928.796 1344.52 928.463 1343.94L928.547 1343.63 928.669 1342.23 928.577 1340.7 929.028 1339.64 931.278 1336.88 934.691 1332.93 937.825 1330.32 939.64 1328.88 940.568 1326.35 940.606 1325.27 940.226 1319.79 939.755 1316.22C939.309 1314.98 939.536 1315.38 939.265 1314.91L938.343 1312.4 943.41 1306.03Z" stroke="#767171" stroke-width="1.14583" stroke-linecap="butt" stroke-linejoin="miter" stroke-miterlimit="8" stroke-opacity="1" fill="#E2F0D9" fill-rule="evenodd" fill-opacity="1"/><path d="M945.658 1257.43 950.037 1262.72 952.42 1267.3 952.219 1273.38 947.828 1278.17C946.352 1278.98 944.875 1279.79 943.398 1280.59L940.746 1282.66 936.95 1283.66 934.071 1282.8 931.261 1281.37 928.863 1279.98 926.722 1278.56 927.226 1276.68 929.806 1274.26 931.189 1271.61 931.26 1268.52 931.596 1267.27 932.739 1264.89 933.686 1263.54 934.676 1262.04 935.624 1260.7 936.189 1259.85 937.267 1258.96 938.857 1258.04 940.248 1257.24 945.658 1257.43Z" stroke="#767171" stroke-width="1.14583" stroke-linecap="butt" stroke-linejoin="miter" stroke-miterlimit="8" stroke-opacity="1" fill="#E2F0D9" fill-rule="evenodd" fill-opacity="1"/><path d="M918.712 1321.08 926.029 1321.36C927.009 1320.84 927.988 1320.32 928.968 1319.8L930.987 1319.16 932.676 1318.19 934.006 1316.36 935.079 1314.55 936.34 1313.29 937.926 1311.45 943.426 1306.29 944.595 1303.49 945.381 1301.18 945.671 1299.16 946.118 1297.18 946.481 1295.51 945.474 1293.31C945.027 1292.29 945.231 1292.66 944.943 1292.16L944.197 1290.87 943.68 1289.97 942.762 1288.38 942.074 1287.19 941.098 1285.5 940.483 1284.66 938.984 1283.67 936.977 1283.64 935.482 1283.58 930.905 1281.85 926.535 1278.41 922.536 1278.59 920.299 1278.16 917.926 1278.87 915.449 1282.16 914.124 1284.91 912.993 1286.62 912.641 1287.62 912.562 1288.86 912.249 1292.22 912.41 1293.19 912.56 1294.82 912.721 1295.79 912.881 1296.76C912.74 1297.93 912.553 1297.56 912.802 1297.99L912.649 1298.88 912.443 1300.59 912.107 1301.84 911.656 1302.9 911.623 1304.9C911.75 1306.1 911.553 1305.7 911.856 1306.23L911.73 1306.7 912.006 1307.86C911.903 1308.92 911.746 1308.56 912.025 1309.04L911.915 1309.77C912.324 1310.98 912.391 1310.5 912.206 1311.19L912.351 1311.9 912.344 1313.5 912.849 1315.06 913.324 1316.11 913.611 1316.61 914.586 1318.3 915.102 1319.19 918.712 1321.08Z" stroke="#767171" stroke-width="1.14583" stroke-linecap="butt" stroke-linejoin="miter" stroke-miterlimit="8" stroke-opacity="1" fill="#E2F0D9" fill-rule="evenodd" fill-opacity="1"/><rect x="1672" y="1323" width="22" height="25.9998" fill="#FFFFFF" fill-opacity="1"/><path d="M1209.5 1423.06 1873.62 1423.06 1873.62 1429.94 1209.5 1429.94ZM1873.62 1412.75C1881.22 1412.75 1887.37 1418.91 1887.37 1426.5 1887.37 1434.09 1881.22 1440.25 1873.62 1440.25 1866.03 1440.25 1859.87 1434.09 1859.87 1426.5 1859.87 1418.91 1866.03 1412.75 1873.62 1412.75Z" fill="#7F7F7F" fill-rule="nonzero" fill-opacity="1"/><rect x="1666" y="1413" width="22" height="25.9998" fill="#FFFFFF" fill-opacity="1"/><path d="M1285.5 1408.5C1285.5 1403.53 1289.53 1399.5 1294.5 1399.5L1347.5 1399.5C1352.47 1399.5 1356.5 1403.53 1356.5 1408.5L1356.5 1444.5C1356.5 1449.47 1352.47 1453.5 1347.5 1453.5L1294.5 1453.5C1289.53 1453.5 1285.5 1449.47 1285.5 1444.5Z" stroke="#075044" stroke-width="4.58333" stroke-linecap="butt" stroke-linejoin="miter" stroke-miterlimit="8" stroke-opacity="1" fill="#1FC2A7" fill-rule="evenodd" fill-opacity="1"/><text fill="#FFFFFF" fill-opacity="1" font-family="Calibri,Calibri_MSFontService,sans-serif" font-style="normal" font-variant="normal" font-weight="400" font-stretch="normal" font-size="46" text-anchor="start" direction="ltr" writing-mode="lr-tb" unicode-bidi="normal" text-decoration="none" transform="matrix(1 0 0 1 1304.51 1438)">P</text><text fill="#FFFFFF" fill-opacity="1" font-family="Calibri,Calibri_MSFontService,sans-serif" font-style="normal" font-variant="normal" font-weight="400" font-stretch="normal" font-size="31" text-anchor="start" direction="ltr" writing-mode="lr-tb" unicode-bidi="normal" text-decoration="none" transform="matrix(1 0 0 1 1328 1448)">1</text><path d="M1368.5 1408.5C1368.5 1403.53 1372.53 1399.5 1377.5 1399.5L1430.5 1399.5C1435.47 1399.5 1439.5 1403.53 1439.5 1408.5L1439.5 1444.5C1439.5 1449.47 1435.47 1453.5 1430.5 1453.5L1377.5 1453.5C1372.53 1453.5 1368.5 1449.47 1368.5 1444.5Z" stroke="#075044" stroke-width="4.58333" stroke-linecap="butt" stroke-linejoin="miter" stroke-miterlimit="8" stroke-opacity="1" fill="#1FC2A7" fill-rule="evenodd" fill-opacity="1"/><path d="M1452.5 1408.5C1452.5 1403.53 1456.53 1399.5 1461.5 1399.5L1513.5 1399.5C1518.47 1399.5 1522.5 1403.53 1522.5 1408.5L1522.5 1444.5C1522.5 1449.47 1518.47 1453.5 1513.5 1453.5L1461.5 1453.5C1456.53 1453.5 1452.5 1449.47 1452.5 1444.5Z" stroke="#075044" stroke-width="4.58333" stroke-linecap="butt" stroke-linejoin="miter" stroke-miterlimit="8" stroke-opacity="1" fill="#1FC2A7" fill-rule="evenodd" fill-opacity="1"/><path d="M1538.5 1408.5C1538.5 1403.53 1542.53 1399.5 1547.5 1399.5L1677.5 1399.5C1682.47 1399.5 1686.5 1403.53 1686.5 1408.5L1686.5 1444.5C1686.5 1449.47 1682.47 1453.5 1677.5 1453.5L1547.5 1453.5C1542.53 1453.5 1538.5 1449.47 1538.5 1444.5Z" stroke="#075044" stroke-width="4.58333" stroke-linecap="butt" stroke-linejoin="miter" stroke-miterlimit="8" stroke-opacity="1" fill="#1FC2A7" fill-rule="evenodd" fill-opacity="1"/><path d="M1701.5 1408.5C1701.5 1403.53 1705.53 1399.5 1710.5 1399.5L1763.5 1399.5C1768.47 1399.5 1772.5 1403.53 1772.5 1408.5L1772.5 1444.5C1772.5 1449.47 1768.47 1453.5 1763.5 1453.5L1710.5 1453.5C1705.53 1453.5 1701.5 1449.47 1701.5 1444.5Z" stroke="#075044" stroke-width="4.58333" stroke-linecap="butt" stroke-linejoin="miter" stroke-miterlimit="8" stroke-opacity="1" fill="#1FC2A7" fill-rule="evenodd" fill-opacity="1"/><text fill="#FFFFFF" fill-opacity="1" font-family="Calibri,Calibri_MSFontService,sans-serif" font-style="normal" font-variant="normal" font-weight="400" font-stretch="normal" font-size="46" text-anchor="start" direction="ltr" writing-mode="lr-tb" unicode-bidi="normal" text-decoration="none" transform="matrix(1 0 0 1 1384.72 1439)">P</text><text fill="#FFFFFF" fill-opacity="1" font-family="Calibri,Calibri_MSFontService,sans-serif" font-style="normal" font-variant="normal" font-weight="400" font-stretch="normal" font-size="31" text-anchor="start" direction="ltr" writing-mode="lr-tb" unicode-bidi="normal" text-decoration="none" transform="matrix(1 0 0 1 1408.21 1449)">2</text><text fill="#FFFFFF" fill-opacity="1" font-family="Calibri,Calibri_MSFontService,sans-serif" font-style="normal" font-variant="normal" font-weight="400" font-stretch="normal" font-size="46" text-anchor="start" direction="ltr" writing-mode="lr-tb" unicode-bidi="normal" text-decoration="none" transform="matrix(1 0 0 1 1466.88 1439)">P</text><text fill="#FFFFFF" fill-opacity="1" font-family="Calibri,Calibri_MSFontService,sans-serif" font-style="normal" font-variant="normal" font-weight="400" font-stretch="normal" font-size="31" text-anchor="start" direction="ltr" writing-mode="lr-tb" unicode-bidi="normal" text-decoration="none" transform="matrix(1 0 0 1 1490.37 1449)">3</text><text fill="#FFFFFF" fill-opacity="1" font-family="Calibri,Calibri_MSFontService,sans-serif" font-style="normal" font-variant="normal" font-weight="400" font-stretch="normal" font-size="46" text-anchor="start" direction="ltr" writing-mode="lr-tb" unicode-bidi="normal" text-decoration="none" transform="matrix(1 0 0 1 1716.92 1439)">P</text><text fill="#FFFFFF" fill-opacity="1" font-family="Calibri,Calibri_MSFontService,sans-serif" font-style="normal" font-variant="normal" font-weight="400" font-stretch="normal" font-size="31" text-anchor="start" direction="ltr" writing-mode="lr-tb" unicode-bidi="normal" text-decoration="none" transform="matrix(1 0 0 1 1740.41 1449)">n</text><path d="M2117.5 1298.75 2284 1298.75 2284 1271.5 2338.5 1326 2284 1380.5 2284 1353.25 2117.5 1353.25Z" stroke="#212121" stroke-width="4.58333" stroke-linecap="butt" stroke-linejoin="miter" stroke-miterlimit="8" stroke-opacity="1" fill="#595959" fill-rule="evenodd" fill-opacity="1"/><path d="M1960.17 1571.93 1964.37 1576.41 1968.94 1581.6 1973.85 1587.4 1979.08 1593.79 1984.62 1600.7 1990.46 1608.09 1996.58 1615.9 2002.97 1624.09 2016.5 1641.4 2016.49 1641.38 2030.93 1659.59 2030.91 1659.57 2046.14 1678.27 2046.11 1678.24 2062.01 1697.02 2061.97 1696.98 2078.42 1715.43 2078.37 1715.38 2095.24 1733.09 2095.19 1733.04 2103.75 1741.49 2103.71 1741.46 2112.33 1749.57 2112.29 1749.53 2120.96 1757.25 2120.9 1757.2 2129.61 1764.48 2129.54 1764.43 2138.26 1771.22 2138.19 1771.17 2146.91 1777.41 2146.83 1777.35 2155.54 1783 2155.43 1782.94 2164.12 1787.94 2163.99 1787.88 2172.63 1792.18 2172.49 1792.11 2181.07 1795.67 2180.9 1795.61 2189.41 1798.36 2189.21 1798.31 2197.64 1800.21 2197.45 1800.18 2205.87 1801.37 2205.73 1801.36 2214.23 1802.03 2214.1 1802.03 2222.68 1802.2 2222.55 1802.21 2231.21 1801.9 2231.09 1801.91 2239.82 1801.13 2239.71 1801.15 2248.52 1799.92 2248.41 1799.94 2257.29 1798.28 2257.19 1798.3 2266.14 1796.23 2266.05 1796.25 2275.06 1793.77 2274.97 1793.8 2284.05 1790.94 2283.94 1790.98 2302.25 1784.17 2302.13 1784.22 2320.66 1776.09 2320.56 1776.13 2339.29 1766.8 2339.2 1766.84 2358.1 1756.43 2358.03 1756.47 2377.08 1745.13 2377.03 1745.16 2396.21 1733.02 2396.16 1733.05 2415.45 1720.24 2415.42 1720.26 2434.79 1706.92 2434.76 1706.94 2454.2 1693.19 2454.18 1693.21 2489.48 1667.71 2492.16 1671.42 2456.85 1696.93 2437.4 1710.69 2418 1724.05 2398.68 1736.88 2379.45 1749.05 2360.34 1760.43 2341.37 1770.88 2322.56 1780.26 2303.91 1788.45 2285.48 1795.29 2276.31 1798.18 2267.22 1800.68 2258.18 1802.78 2249.2 1804.45 2240.28 1805.69 2231.43 1806.48 2222.65 1806.79 2213.93 1806.61 2205.3 1805.92 2196.72 1804.7 2188.1 1802.75 2179.4 1799.94 2170.66 1796.32 2161.89 1791.95 2153.09 1786.88 2144.29 1781.17 2135.49 1774.87 2126.7 1768.03 2117.94 1760.7 2109.22 1752.93 2100.55 1744.78 2091.95 1736.28 2075.02 1718.51 2058.53 1700.01 2042.6 1681.18 2027.35 1662.45 2012.9 1644.22 1999.36 1626.91 1992.97 1618.72 1986.85 1610.92 1986.86 1610.92 1981.03 1603.55 1981.04 1603.56 1975.51 1596.67 1975.53 1596.68 1970.31 1590.32 1970.34 1590.35 1965.46 1584.57 1965.49 1584.61 1960.95 1579.47 1961 1579.52 1956.83 1575.07ZM2458.91 1670.38 2494.51 1666.9 2480.02 1699.6C2479.5 1700.76 2478.15 1701.28 2476.99 1700.77 2475.84 1700.25 2475.31 1698.9 2475.83 1697.74L2488.73 1668.64 2491.04 1671.85 2459.36 1674.94C2458.1 1675.07 2456.98 1674.15 2456.86 1672.89 2456.73 1671.63 2457.65 1670.51 2458.91 1670.38Z" fill="#1FC2A7" fill-rule="nonzero" fill-opacity="1"/><path d="M1.75186-1.47741 6.76793 4.47047 12.3478 11.0909 18.4623 18.3292 25.0856 26.1342 32.1913 34.4546 32.1854 34.4477 39.7531 43.2388 39.7462 43.2307 47.7448 52.4352 47.7367 52.426 56.1397 61.9923 56.1306 61.982 64.9115 71.8584 64.9013 71.847 74.0335 81.9817 74.0159 81.9623 93.2285 102.8 93.2008 102.77 113.501 124.021 113.467 123.986 134.643 145.236 134.602 145.195 156.442 166.03 156.39 165.983 178.682 185.99 178.636 185.949 189.885 195.513 189.849 195.483 201.131 204.684 201.09 204.651 212.38 213.439 212.334 213.404 223.604 221.725 223.551 221.687 234.775 229.492 234.714 229.451 245.865 236.686 245.795 236.642 256.847 243.257 256.765 243.21 267.692 249.152 267.596 249.102 278.371 254.32 278.258 254.269 288.855 258.711 288.722 258.66 299.114 262.274 298.956 262.226 309.117 264.961 308.994 264.931 320.713 267.401 320.642 267.387 332.171 269.437 332.097 269.425 343.443 271.065 343.368 271.056 354.539 272.296 354.462 272.289 365.466 273.138 365.388 273.134 376.232 273.603 376.115 273.601 397.357 273.436 397.201 273.442 417.9 271.872 417.749 271.888 437.968 268.989 437.823 269.015 457.626 264.866 457.491 264.898 476.941 259.577 476.818 259.614 495.977 253.198 495.868 253.238 514.8 245.804 514.704 245.845 533.473 237.472 533.39 237.511 552.058 228.277 551.989 228.313 570.619 218.296 570.562 218.327 589.218 207.604 589.173 207.631 607.917 196.28 607.883 196.301 622.939 186.818 625.382 190.696 610.308 200.19 591.524 211.565 572.818 222.317 554.125 232.368 535.381 241.639 516.524 250.052 497.488 257.525 478.213 263.981 458.634 269.337 438.691 273.516 418.323 276.436 397.471 278.018 376.093 278.184 365.151 277.711 354.071 276.855 342.825 275.607 331.405 273.956 319.804 271.893 307.987 269.403 297.686 266.63 287.149 262.966 276.429 258.472 265.55 253.204 254.534 247.214 243.405 240.554 232.188 233.276 220.907 225.432 209.588 217.073 198.255 208.252 186.934 199.02 175.644 189.421 153.303 169.371 131.417 148.492 110.204 127.204 89.8726 105.922 70.6374 85.0595 61.4912 74.9094 52.7007 65.0222 44.2892 55.4462 36.2831 46.233 28.7089 37.4345 21.5909 29.0998 14.961 21.2869 8.84315 14.0447 3.26421 7.42528-1.75186 1.47741ZM592.264 187.548 628.009 186.333 611.472 218.046C610.887 219.168 609.503 219.603 608.381 219.018 607.259 218.433 606.823 217.049 607.408 215.927L622.129 187.697 624.238 191.047 592.42 192.129C591.155 192.172 590.095 191.182 590.052 189.917 590.009 188.652 590.999 187.591 592.264 187.548Z" fill="#2981BE" fill-rule="nonzero" fill-opacity="1" transform="matrix(1 0 0 -1 2060.5 1262.5)"/><path d="M1.76196-1.46534 6.80088 4.59357 12.4498 11.5214 18.7003 19.2374 25.5557 27.6757 25.5485 27.6669 33.0162 36.7661 33.0048 36.7523 41.0834 46.4407 41.0684 46.4228 49.7588 56.6314 49.7403 56.61 59.0433 67.2694 59.0217 67.245 68.9381 78.286 68.9133 78.2589 79.4439 89.6125 79.4159 89.5829 90.5615 101.18 90.5303 101.148 102.292 112.919 102.257 112.885 114.635 124.761 114.597 124.726 127.592 136.637 127.55 136.6 141.164 148.478 141.118 148.439 155.351 160.215 155.301 160.175 170.153 171.779 170.099 171.738 185.572 183.101 185.512 183.059 201.607 194.112 201.543 194.069 218.259 204.743 218.19 204.701 235.53 214.926 235.455 214.883 253.419 224.591 253.338 224.55 271.927 233.67 271.841 233.63 291.054 242.095 290.963 242.057 310.803 249.796 310.707 249.761 331.173 256.706 331.072 256.674 352.167 262.755 352.06 262.727 373.783 267.876 373.673 267.852 396.026 271.999 395.912 271.981 418.895 275.056 418.778 275.043 442.392 276.978 442.273 276.971 466.519 277.697 466.44 277.696 493.058 277.569 493.016 277.57 518.352 276.977 518.305 276.979 542.4 275.927 542.35 275.93 565.244 274.425 565.19 274.43 586.926 272.48 586.867 272.486 607.485 270.097 607.422 270.106 626.964 267.285 626.896 267.296 645.404 264.049 645.33 264.063 662.845 260.398 662.766 260.416 679.329 256.339 679.245 256.361 694.897 251.879 694.809 251.906 709.592 247.024 709.5 247.057 723.454 241.784 723.359 241.822 736.527 236.164 736.43 236.208 748.852 230.171 748.754 230.222 760.471 223.814 760.373 223.87 771.428 217.097 771.332 217.159 781.765 210.027 781.673 210.094 791.526 202.611 791.437 202.681 800.751 194.853 800.668 194.926 809.485 186.76 809.409 186.834 817.769 178.337 817.7 178.41 825.645 169.588 825.583 169.659 833.154 160.519 833.076 160.619 847.264 141.412 847.182 141.529 860.371 121.13 860.315 121.222 872.835 99.6856 872.799 99.7507 882.831 81.1253 886.866 83.2986 876.817 101.957 864.25 123.573 850.993 144.077 836.725 163.394 829.082 172.62 821.071 181.515 812.638 190.087 803.742 198.326 794.343 206.227 784.399 213.779 773.871 220.975 762.72 227.808 750.904 234.27 738.385 240.354 725.122 246.053 711.075 251.361 696.203 256.272 680.466 260.779 663.823 264.876 646.232 268.557 627.653 271.816 608.045 274.647 587.365 277.042 565.572 278.997 542.625 280.505 518.482 281.559 493.102 282.152 466.422 282.279 442.077 281.551 418.345 279.606 395.247 276.516 372.781 272.349 350.95 267.174 329.751 261.063 309.185 254.085 289.252 246.309 269.95 237.806 251.279 228.645 233.238 218.895 215.827 208.628 199.044 197.912 182.888 186.817 167.358 175.412 152.454 163.767 138.173 151.952 124.516 140.035 111.481 128.087 99.0665 116.176 87.2723 104.372 76.0973 92.7442 65.5404 81.3623 55.6009 70.2954 46.2779 59.6131 37.5708 49.3849 29.4789 39.6806 22.002 30.5701 15.1388 22.1224 8.8907 14.4092 8.89535 14.415 3.25576 7.49859 3.26987 7.51573-1.76196 1.46534ZM856.489 96.8615 887.005 78.2077 888.222 113.952C888.265 115.217 887.274 116.278 886.009 116.321 884.744 116.364 883.684 115.373 883.641 114.108L882.558 82.2899 886.044 84.1672 858.88 100.772C857.8 101.432 856.389 101.092 855.729 100.012 855.069 98.9322 855.409 97.5216 856.489 96.8615Z" fill="#0BB5DD" fill-rule="nonzero" fill-opacity="1" transform="matrix(1 0 0 -1 1978.5 1134.5)"/><text fill="#595959" fill-opacity="1" font-family="Calibri,Calibri_MSFontService,sans-serif" font-style="normal" font-variant="normal" font-weight="400" font-stretch="normal" font-size="83" text-anchor="start" direction="ltr" writing-mode="lr-tb" unicode-bidi="normal" text-decoration="none" transform="matrix(1 0 0 1 1247.92 656)">Fragment selector</text><path d="M1403 690C1403 677.297 1413.3 667 1426 667L2491 667C2503.7 667 2514 677.297 2514 690L2514 782C2514 794.703 2503.7 805 2491 805L1426 805C1413.3 805 1403 794.703 1403 782Z" fill="#595959" fill-rule="evenodd" fill-opacity="1"/><g><g><g><path d="M85.4999 75.4874 62.775 52.7737 82.7999 45.5625C83.8282 45.2091 84.3754 44.0891 84.0219 43.0608 83.8247 42.4868 83.3738 42.0359 82.7999 41.8387L25.0987 22.6012C24.8918 22.5331 24.6753 22.4989 24.4575 22.5 23.3766 22.5232 22.5192 23.4181 22.5424 24.499 22.5467 24.6994 22.5817 24.8978 22.6462 25.0875L41.8387 82.8449C42.201 83.8702 43.3257 84.4075 44.351 84.0452 44.9119 83.847 45.353 83.4059 45.5512 82.8449L52.7737 62.7975 75.4762 85.4999Z" fill="#FFC000" fill-rule="nonzero" fill-opacity="1" transform="matrix(1 0 0 1.00926 1152 572)"/></g></g></g><path d="M2132.5 1765.33C2132.5 1754.38 2141.38 1745.5 2152.33 1745.5L2244.67 1745.5C2255.62 1745.5 2264.5 1754.38 2264.5 1765.33L2264.5 1844.67C2264.5 1855.62 2255.62 1864.5 2244.67 1864.5L2152.33 1864.5C2141.38 1864.5 2132.5 1855.62 2132.5 1844.67Z" stroke="#7F7F7F" stroke-width="6.875" stroke-linecap="square" stroke-linejoin="miter" stroke-miterlimit="8" stroke-dasharray="20.625 6.875" stroke-opacity="1" fill="#1FC2A7" fill-rule="evenodd" fill-opacity="1"/><g><g><g><path d="M2235.29 1826.19 2212.36 1803.26 2232.57 1795.98C2233.6 1795.63 2234.16 1794.5 2233.8 1793.46 2233.6 1792.88 2233.15 1792.43 2232.57 1792.23L2174.33 1772.81C2174.12 1772.74 2173.9 1772.71 2173.68 1772.71 2172.59 1772.73 2171.73 1773.63 2171.75 1774.73 2171.76 1774.93 2171.79 1775.13 2171.86 1775.32L2191.23 1833.61C2191.59 1834.65 2192.73 1835.19 2193.76 1834.82 2194.33 1834.62 2194.77 1834.18 2194.97 1833.61L2202.26 1813.38 2225.18 1836.29Z" fill="#FFC000" fill-rule="nonzero" fill-opacity="1"/></g></g></g><path d="M2289.5 972.334C2289.5 961.38 2298.38 952.5 2309.33 952.5L2401.67 952.5C2412.62 952.5 2421.5 961.38 2421.5 972.334L2421.5 1051.67C2421.5 1062.62 2412.62 1071.5 2401.67 1071.5L2309.33 1071.5C2298.38 1071.5 2289.5 1062.62 2289.5 1051.67Z" stroke="#7F7F7F" stroke-width="6.875" stroke-linecap="square" stroke-linejoin="miter" stroke-miterlimit="8" stroke-dasharray="20.625 6.875" stroke-opacity="1" fill="#1FC2A7" fill-rule="evenodd" fill-opacity="1"/><g><g><g><path d="M85.4999 75.4874 62.775 52.7737 82.7999 45.5625C83.8282 45.2091 84.3754 44.0891 84.0219 43.0608 83.8247 42.4868 83.3738 42.0359 82.7999 41.8387L25.0987 22.6012C24.8918 22.5331 24.6753 22.4989 24.4575 22.5 23.3766 22.5232 22.5192 23.4181 22.5424 24.499 22.5467 24.6994 22.5817 24.8978 22.6462 25.0875L41.8387 82.8449C42.201 83.8702 43.3257 84.4075 44.351 84.0452 44.9119 83.847 45.353 83.4059 45.5512 82.8449L52.7737 62.7975 75.4762 85.4999Z" fill="#FFC000" fill-rule="nonzero" fill-opacity="1" transform="matrix(1 0 0 1.00926 2307 957)"/></g></g></g><path d="M2547.5 848.167C2547.5 837.305 2556.31 828.5 2567.17 828.5L2659.83 828.5C2670.69 828.5 2679.5 837.305 2679.5 848.167L2679.5 926.833C2679.5 937.695 2670.69 946.5 2659.83 946.5L2567.17 946.5C2556.31 946.5 2547.5 937.695 2547.5 926.833Z" stroke="#7F7F7F" stroke-width="6.875" stroke-linecap="square" stroke-linejoin="miter" stroke-miterlimit="8" stroke-dasharray="20.625 6.875" stroke-opacity="1" fill="#1FC2A7" fill-rule="evenodd" fill-opacity="1"/><g><g><g><path d="M85.4999 75.4874 62.775 52.7737 82.7999 45.5625C83.8282 45.2091 84.3754 44.0891 84.0219 43.0608 83.8247 42.4868 83.3738 42.0359 82.7999 41.8387L25.0987 22.6012C24.8918 22.5331 24.6753 22.4989 24.4575 22.5 23.3766 22.5232 22.5192 23.4181 22.5424 24.499 22.5467 24.6994 22.5817 24.8978 22.6462 25.0875L41.8387 82.8449C42.201 83.8702 43.3257 84.4075 44.351 84.0452 44.9119 83.847 45.353 83.4059 45.5512 82.8449L52.7737 62.7975 75.4762 85.4999Z" fill="#FFC000" fill-rule="nonzero" fill-opacity="1" transform="matrix(1.00926 0 0 1 2564 833)"/></g></g></g><text fill="#FFFFFF" fill-opacity="1" font-family="Calibri,Calibri_MSFontService,sans-serif" font-style="normal" font-variant="normal" font-weight="400" font-stretch="normal" font-size="83" text-anchor="start" direction="ltr" writing-mode="lr-tb" unicode-bidi="normal" text-decoration="none" transform="matrix(1 0 0 1 1552.5 762)">#cell=4,1</text><text fill="#FFFFFF" fill-opacity="1" font-family="Calibri,Calibri_MSFontService,sans-serif" font-style="normal" font-variant="normal" font-weight="400" font-stretch="normal" font-size="83" text-anchor="start" direction="ltr" writing-mode="lr-tb" unicode-bidi="normal" text-decoration="none" transform="matrix(1 0 0 1 1853.28 762)">-</text><text fill="#FFFFFF" fill-opacity="1" font-family="Calibri,Calibri_MSFontService,sans-serif" font-style="normal" font-variant="normal" font-weight="400" font-stretch="normal" font-size="83" text-anchor="start" direction="ltr" writing-mode="lr-tb" unicode-bidi="normal" text-decoration="none" transform="matrix(1 0 0 1 1878.49 762)">6,2</text><text fill="#0BB5DD" fill-opacity="1" font-family="Calibri,Calibri_MSFontService,sans-serif" font-style="normal" font-variant="normal" font-weight="400" font-stretch="normal" font-size="64" text-anchor="start" direction="ltr" writing-mode="lr-tb" unicode-bidi="normal" text-decoration="none" transform="matrix(1 0 0 1 2876.01 1710)">result.csv</text><path d="M1211.5 1338.06 1875.62 1338.06 1875.62 1344.94 1211.5 1344.94ZM1875.62 1327.75C1883.22 1327.75 1889.37 1333.91 1889.37 1341.5 1889.37 1349.09 1883.22 1355.25 1875.62 1355.25 1868.03 1355.25 1861.87 1349.09 1861.87 1341.5 1861.87 1333.91 1868.03 1327.75 1875.62 1327.75Z" fill="#7F7F7F" fill-rule="nonzero" fill-opacity="1"/><rect x="1668.5" y="1328.5" width="22" height="25.9998" stroke="#0B334F" stroke-width="4.58333" stroke-linecap="butt" stroke-linejoin="miter" stroke-miterlimit="8" stroke-opacity="1" fill="#2981BE" fill-opacity="1"/><path d="M1287.5 1323.5C1287.5 1318.53 1291.53 1314.5 1296.5 1314.5L1349.5 1314.5C1354.47 1314.5 1358.5 1318.53 1358.5 1323.5L1358.5 1359.5C1358.5 1364.47 1354.47 1368.5 1349.5 1368.5L1296.5 1368.5C1291.53 1368.5 1287.5 1364.47 1287.5 1359.5Z" stroke="#0B334F" stroke-width="4.58333" stroke-linecap="butt" stroke-linejoin="miter" stroke-miterlimit="8" stroke-opacity="1" fill="#2981BE" fill-rule="evenodd" fill-opacity="1"/><path d="M1370.5 1323.5C1370.5 1318.53 1374.53 1314.5 1379.5 1314.5L1432.5 1314.5C1437.47 1314.5 1441.5 1318.53 1441.5 1323.5L1441.5 1359.5C1441.5 1364.47 1437.47 1368.5 1432.5 1368.5L1379.5 1368.5C1374.53 1368.5 1370.5 1364.47 1370.5 1359.5Z" stroke="#0B334F" stroke-width="4.58333" stroke-linecap="butt" stroke-linejoin="miter" stroke-miterlimit="8" stroke-opacity="1" fill="#2981BE" fill-rule="evenodd" fill-opacity="1"/><path d="M1454.5 1323.5C1454.5 1318.53 1458.53 1314.5 1463.5 1314.5L1516.5 1314.5C1521.47 1314.5 1525.5 1318.53 1525.5 1323.5L1525.5 1359.5C1525.5 1364.47 1521.47 1368.5 1516.5 1368.5L1463.5 1368.5C1458.53 1368.5 1454.5 1364.47 1454.5 1359.5Z" stroke="#0B334F" stroke-width="4.58333" stroke-linecap="butt" stroke-linejoin="miter" stroke-miterlimit="8" stroke-opacity="1" fill="#2981BE" fill-rule="evenodd" fill-opacity="1"/><path d="M1540.5 1323.5C1540.5 1318.53 1544.53 1314.5 1549.5 1314.5L1679.5 1314.5C1684.47 1314.5 1688.5 1318.53 1688.5 1323.5L1688.5 1359.5C1688.5 1364.47 1684.47 1368.5 1679.5 1368.5L1549.5 1368.5C1544.53 1368.5 1540.5 1364.47 1540.5 1359.5Z" stroke="#0B334F" stroke-width="4.58333" stroke-linecap="butt" stroke-linejoin="miter" stroke-miterlimit="8" stroke-opacity="1" fill="#2981BE" fill-rule="evenodd" fill-opacity="1"/><path d="M1703.5 1323.5C1703.5 1318.53 1707.53 1314.5 1712.5 1314.5L1765.5 1314.5C1770.47 1314.5 1774.5 1318.53 1774.5 1323.5L1774.5 1359.5C1774.5 1364.47 1770.47 1368.5 1765.5 1368.5L1712.5 1368.5C1707.53 1368.5 1703.5 1364.47 1703.5 1359.5Z" stroke="#0B334F" stroke-width="4.58333" stroke-linecap="butt" stroke-linejoin="miter" stroke-miterlimit="8" stroke-opacity="1" fill="#2981BE" fill-rule="evenodd" fill-opacity="1"/><text fill="#FFFFFF" fill-opacity="1" font-family="Calibri,Calibri_MSFontService,sans-serif" font-style="normal" font-variant="normal" font-weight="400" font-stretch="normal" font-size="46" text-anchor="start" direction="ltr" writing-mode="lr-tb" unicode-bidi="normal" text-decoration="none" transform="matrix(1 0 0 1 1307.61 1353)">P</text><text fill="#FFFFFF" fill-opacity="1" font-family="Calibri,Calibri_MSFontService,sans-serif" font-style="normal" font-variant="normal" font-weight="400" font-stretch="normal" font-size="31" text-anchor="start" direction="ltr" writing-mode="lr-tb" unicode-bidi="normal" text-decoration="none" transform="matrix(1 0 0 1 1331.1 1363)">1</text><text fill="#FFFFFF" fill-opacity="1" font-family="Calibri,Calibri_MSFontService,sans-serif" font-style="normal" font-variant="normal" font-weight="400" font-stretch="normal" font-size="46" text-anchor="start" direction="ltr" writing-mode="lr-tb" unicode-bidi="normal" text-decoration="none" transform="matrix(1 0 0 1 1387.82 1355)">P</text><text fill="#FFFFFF" fill-opacity="1" font-family="Calibri,Calibri_MSFontService,sans-serif" font-style="normal" font-variant="normal" font-weight="400" font-stretch="normal" font-size="31" text-anchor="start" direction="ltr" writing-mode="lr-tb" unicode-bidi="normal" text-decoration="none" transform="matrix(1 0 0 1 1411.31 1365)">2</text><text fill="#FFFFFF" fill-opacity="1" font-family="Calibri,Calibri_MSFontService,sans-serif" font-style="normal" font-variant="normal" font-weight="400" font-stretch="normal" font-size="46" text-anchor="start" direction="ltr" writing-mode="lr-tb" unicode-bidi="normal" text-decoration="none" transform="matrix(1 0 0 1 1469.97 1355)">P</text><text fill="#FFFFFF" fill-opacity="1" font-family="Calibri,Calibri_MSFontService,sans-serif" font-style="normal" font-variant="normal" font-weight="400" font-stretch="normal" font-size="31" text-anchor="start" direction="ltr" writing-mode="lr-tb" unicode-bidi="normal" text-decoration="none" transform="matrix(1 0 0 1 1493.46 1365)">3</text><text fill="#FFFFFF" fill-opacity="1" font-family="Calibri,Calibri_MSFontService,sans-serif" font-style="normal" font-variant="normal" font-weight="400" font-stretch="normal" font-size="46" text-anchor="start" direction="ltr" writing-mode="lr-tb" unicode-bidi="normal" text-decoration="none" transform="matrix(1 0 0 1 1720.02 1355)">P</text><text fill="#FFFFFF" fill-opacity="1" font-family="Calibri,Calibri_MSFontService,sans-serif" font-style="normal" font-variant="normal" font-weight="400" font-stretch="normal" font-size="31" text-anchor="start" direction="ltr" writing-mode="lr-tb" unicode-bidi="normal" text-decoration="none" transform="matrix(1 0 0 1 1743.51 1365)">n</text></g></g></svg>