<svg width="3887" height="1802" xmlns="http://www.w3.org/2000/svg" xmlns:xlink="http://www.w3.org/1999/xlink" xml:space="preserve" overflow="hidden"><g transform="translate(-265 -517)"><g><rect x="1511.5" y="551.5" width="2562" height="1445" stroke="#148E7A" stroke-width="4.58333" stroke-linecap="butt" stroke-linejoin="miter" stroke-miterlimit="8" stroke-opacity="1" fill="#9DEFE2" fill-opacity="1"/><rect x="1511.5" y="1842.5" width="527" height="154" stroke="#148E7A" stroke-width="4.58333" stroke-linecap="butt" stroke-linejoin="miter" stroke-miterlimit="8" stroke-opacity="1" fill="#1FC2A7" fill-opacity="1"/><text fill="#FFC000" fill-opacity="1" font-family="Calibri,Calibri_MSFontService,sans-serif" font-style="normal" font-variant="normal" font-weight="400" font-stretch="normal" font-size="83" text-anchor="start" direction="ltr" writing-mode="lr-tb" unicode-bidi="normal" text-decoration="none" transform="matrix(1 0 0 1 1559.95 1947)">isa_datamap</text><path d="M1590.5 670.167C1590.5 659.305 1599.31 650.5 1610.17 650.5L2260.83 650.5C2271.69 650.5 2280.5 659.305 2280.5 670.167L2280.5 748.833C2280.5 759.695 2271.69 768.5 2260.83 768.5L1610.17 768.5C1599.31 768.5 1590.5 759.695 1590.5 748.833Z" stroke="#0684A2" stroke-width="4.58333" stroke-linecap="butt" stroke-linejoin="miter" stroke-miterlimit="8" stroke-opacity="1" fill="#BED6D2" fill-rule="evenodd" fill-opacity="1"/><path d="M1590.5 830.167C1590.5 819.305 1599.31 810.5 1610.17 810.5L2260.83 810.5C2271.69 810.5 2280.5 819.305 2280.5 830.167L2280.5 908.834C2280.5 919.695 2271.69 928.501 2260.83 928.501L1610.17 928.501C1599.31 928.501 1590.5 919.695 1590.5 908.834Z" stroke="#148E7A" stroke-width="4.58333" stroke-linecap="butt" stroke-linejoin="miter" stroke-miterlimit="8" stroke-opacity="1" fill="#F2F8F5" fill-rule="evenodd" fill-opacity="1"/><text fill="#767171" fill-opacity="1" font-family="Calibri,Calibri_MSFontService,sans-serif" font-style="normal" font-variant="normal" font-weight="400" font-stretch="normal" font-size="83" text-anchor="start" direction="ltr" writing-mode="lr-tb" unicode-bidi="normal" text-decoration="none" transform="matrix(1 0 0 1 1646.17 896)">result1.csv#col=1</text><path d="M1590.5 990.167C1590.5 979.305 1599.31 970.5 1610.17 970.5L2260.83 970.5C2271.69 970.5 2280.5 979.305 2280.5 990.167L2280.5 1068.83C2280.5 1079.69 2271.69 1088.5 2260.83 1088.5L1610.17 1088.5C1599.31 1088.5 1590.5 1079.69 1590.5 1068.83Z" stroke="#148E7A" stroke-width="4.58333" stroke-linecap="butt" stroke-linejoin="miter" stroke-miterlimit="8" stroke-opacity="1" fill="#F2F8F5" fill-rule="evenodd" fill-opacity="1"/><text fill="#767171" fill-opacity="1" font-family="Calibri,Calibri_MSFontService,sans-serif" font-style="normal" font-variant="normal" font-weight="400" font-stretch="normal" font-size="83" text-anchor="start" direction="ltr" writing-mode="lr-tb" unicode-bidi="normal" text-decoration="none" transform="matrix(1 0 0 1 1646.17 1057)">result1.csv#col=2</text><path d="M1590.5 1153.17C1590.5 1142.31 1599.31 1133.5 1610.17 1133.5L2260.83 1133.5C2271.69 1133.5 2280.5 1142.31 2280.5 1153.17L2280.5 1231.83C2280.5 1242.69 2271.69 1251.5 2260.83 1251.5L1610.17 1251.5C1599.31 1251.5 1590.5 1242.69 1590.5 1231.83Z" stroke="#148E7A" stroke-width="4.58333" stroke-linecap="butt" stroke-linejoin="miter" stroke-miterlimit="8" stroke-opacity="1" fill="#F2F8F5" fill-rule="evenodd" fill-opacity="1"/><text fill="#767171" fill-opacity="1" font-family="Calibri,Calibri_MSFontService,sans-serif" font-style="normal" font-variant="normal" font-weight="400" font-stretch="normal" font-size="83" text-anchor="start" direction="ltr" writing-mode="lr-tb" unicode-bidi="normal" text-decoration="none" transform="matrix(1 0 0 1 1646.17 1220)">result1.csv#col=3</text><path d="M1590.5 1313.33C1590.5 1302.38 1599.38 1293.5 1610.33 1293.5L2260.67 1293.5C2271.62 1293.5 2280.5 1302.38 2280.5 1313.33L2280.5 1392.67C2280.5 1403.62 2271.62 1412.5 2260.67 1412.5L1610.33 1412.5C1599.38 1412.5 1590.5 1403.62 1590.5 1392.67Z" stroke="#148E7A" stroke-width="4.58333" stroke-linecap="butt" stroke-linejoin="miter" stroke-miterlimit="8" stroke-opacity="1" fill="#F2F8F5" fill-rule="evenodd" fill-opacity="1"/><text fill="#767171" fill-opacity="1" font-family="Calibri,Calibri_MSFontService,sans-serif" font-style="normal" font-variant="normal" font-weight="400" font-stretch="normal" font-size="83" text-anchor="start" direction="ltr" writing-mode="lr-tb" unicode-bidi="normal" text-decoration="none" transform="matrix(1 0 0 1 1646.17 1380)">result2.csv#col=1</text><path d="M1590.5 1474.17C1590.5 1463.31 1599.31 1454.5 1610.17 1454.5L2260.83 1454.5C2271.69 1454.5 2280.5 1463.31 2280.5 1474.17L2280.5 1552.83C2280.5 1563.69 2271.69 1572.5 2260.83 1572.5L1610.17 1572.5C1599.31 1572.5 1590.5 1563.69 1590.5 1552.83Z" stroke="#148E7A" stroke-width="4.58333" stroke-linecap="butt" stroke-linejoin="miter" stroke-miterlimit="8" stroke-opacity="1" fill="#F2F8F5" fill-rule="evenodd" fill-opacity="1"/><text fill="#767171" fill-opacity="1" font-family="Calibri,Calibri_MSFontService,sans-serif" font-style="normal" font-variant="normal" font-weight="400" font-stretch="normal" font-size="83" text-anchor="start" direction="ltr" writing-mode="lr-tb" unicode-bidi="normal" text-decoration="none" transform="matrix(1 0 0 1 1646.17 1540)">result2.csv#col=2</text><text fill="#2D3E50" fill-opacity="1" font-family="Calibri,Calibri_MSFontService,sans-serif" font-style="normal" font-variant="normal" font-weight="400" font-stretch="normal" font-size="83" text-anchor="start" direction="ltr" writing-mode="lr-tb" unicode-bidi="normal" text-decoration="none" transform="matrix(1 0 0 1 1856.95 733)">Data</text><text fill="#0BB5DD" fill-opacity="1" font-family="Calibri,Calibri_MSFontService,sans-serif" font-style="normal" font-variant="normal" font-weight="400" font-stretch="normal" font-size="64" text-anchor="start" direction="ltr" writing-mode="lr-tb" unicode-bidi="normal" text-decoration="none" transform="matrix(1 0 0 1 772.542 1466)">result1.csv</text><text fill="#0BB5DD" fill-opacity="1" font-family="Calibri,Calibri_MSFontService,sans-serif" font-style="normal" font-variant="normal" font-weight="400" font-stretch="normal" font-size="64" text-anchor="start" direction="ltr" writing-mode="lr-tb" unicode-bidi="normal" text-decoration="none" transform="matrix(1 0 0 1 957.81 2262)">result2.csv</text><path d="M1592.5 1637.17C1592.5 1626.31 1601.31 1617.5 1612.17 1617.5L2262.83 1617.5C2273.69 1617.5 2282.5 1626.31 2282.5 1637.17L2282.5 1715.83C2282.5 1726.69 2273.69 1735.5 2262.83 1735.5L1612.17 1735.5C1601.31 1735.5 1592.5 1726.69 1592.5 1715.83Z" stroke="#148E7A" stroke-width="4.58333" stroke-linecap="butt" stroke-linejoin="miter" stroke-miterlimit="8" stroke-opacity="1" fill="#F2F8F5" fill-rule="evenodd" fill-opacity="1"/><text fill="#767171" fill-opacity="1" font-family="Calibri,Calibri_MSFontService,sans-serif" font-style="normal" font-variant="normal" font-weight="400" font-stretch="normal" font-size="83" text-anchor="start" direction="ltr" writing-mode="lr-tb" unicode-bidi="normal" text-decoration="none" transform="matrix(1 0 0 1 1648.62 1703)">result2.csv#col=3</text><path d="M2335.5 668.167C2335.5 657.305 2344.31 648.5 2355.17 648.5L2797.83 648.5C2808.69 648.5 2817.5 657.305 2817.5 668.167L2817.5 746.833C2817.5 757.695 2808.69 766.5 2797.83 766.5L2355.17 766.5C2344.31 766.5 2335.5 757.695 2335.5 746.833Z" stroke="#0684A2" stroke-width="4.58333" stroke-linecap="butt" stroke-linejoin="miter" stroke-miterlimit="8" stroke-opacity="1" fill="#BED6D2" fill-rule="evenodd" fill-opacity="1"/><path d="M2335.5 828.167C2335.5 817.305 2344.31 808.5 2355.17 808.5L2797.83 808.5C2808.69 808.5 2817.5 817.305 2817.5 828.167L2817.5 906.833C2817.5 917.695 2808.69 926.5 2797.83 926.5L2355.17 926.5C2344.31 926.5 2335.5 917.695 2335.5 906.833Z" stroke="#148E7A" stroke-width="4.58333" stroke-linecap="butt" stroke-linejoin="miter" stroke-miterlimit="8" stroke-opacity="1" fill="#F2F8F5" fill-rule="evenodd" fill-opacity="1"/><text fill="#767171" fill-opacity="1" font-family="Calibri,Calibri_MSFontService,sans-serif" font-style="normal" font-variant="normal" font-weight="400" font-stretch="normal" font-size="83" text-anchor="start" direction="ltr" writing-mode="lr-tb" unicode-bidi="normal" text-decoration="none" transform="matrix(1 0 0 1 2441.84 895)">Gene ID</text><path d="M2335.5 988.333C2335.5 977.38 2344.38 968.5 2355.33 968.5L2797.67 968.5C2808.62 968.5 2817.5 977.38 2817.5 988.333L2817.5 1067.67C2817.5 1078.62 2808.62 1087.5 2797.67 1087.5L2355.33 1087.5C2344.38 1087.5 2335.5 1078.62 2335.5 1067.67Z" stroke="#148E7A" stroke-width="4.58333" stroke-linecap="butt" stroke-linejoin="miter" stroke-miterlimit="8" stroke-opacity="1" fill="#F2F8F5" fill-rule="evenodd" fill-opacity="1"/><text fill="#767171" fill-opacity="1" font-family="Calibri,Calibri_MSFontService,sans-serif" font-style="normal" font-variant="normal" font-weight="400" font-stretch="normal" font-size="83" text-anchor="start" direction="ltr" writing-mode="lr-tb" unicode-bidi="normal" text-decoration="none" transform="matrix(1 0 0 1 2385.69 1055)">Abundance</text><path d="M2335.5 1152.17C2335.5 1141.31 2344.31 1132.5 2355.17 1132.5L2797.83 1132.5C2808.69 1132.5 2817.5 1141.31 2817.5 1152.17L2817.5 1230.83C2817.5 1241.69 2808.69 1250.5 2797.83 1250.5L2355.17 1250.5C2344.31 1250.5 2335.5 1241.69 2335.5 1230.83Z" stroke="#148E7A" stroke-width="4.58333" stroke-linecap="butt" stroke-linejoin="miter" stroke-miterlimit="8" stroke-opacity="1" fill="#F2F8F5" fill-rule="evenodd" fill-opacity="1"/><text fill="#767171" fill-opacity="1" font-family="Calibri,Calibri_MSFontService,sans-serif" font-style="normal" font-variant="normal" font-weight="400" font-stretch="normal" font-size="83" text-anchor="start" direction="ltr" writing-mode="lr-tb" unicode-bidi="normal" text-decoration="none" transform="matrix(1 0 0 1 2385.69 1218)">Abundance</text><path d="M2335.5 1312.17C2335.5 1301.31 2344.31 1292.5 2355.17 1292.5L2797.83 1292.5C2808.69 1292.5 2817.5 1301.31 2817.5 1312.17L2817.5 1390.83C2817.5 1401.69 2808.69 1410.5 2797.83 1410.5L2355.17 1410.5C2344.31 1410.5 2335.5 1401.69 2335.5 1390.83Z" stroke="#148E7A" stroke-width="4.58333" stroke-linecap="butt" stroke-linejoin="miter" stroke-miterlimit="8" stroke-opacity="1" fill="#F2F8F5" fill-rule="evenodd" fill-opacity="1"/><text fill="#767171" fill-opacity="1" font-family="Calibri,Calibri_MSFontService,sans-serif" font-style="normal" font-variant="normal" font-weight="400" font-stretch="normal" font-size="83" text-anchor="start" direction="ltr" writing-mode="lr-tb" unicode-bidi="normal" text-decoration="none" transform="matrix(1 0 0 1 2441.84 1379)">Gene ID</text><path d="M2335.5 1472.17C2335.5 1461.31 2344.31 1452.5 2355.17 1452.5L2797.83 1452.5C2808.69 1452.5 2817.5 1461.31 2817.5 1472.17L2817.5 1550.83C2817.5 1561.69 2808.69 1570.5 2797.83 1570.5L2355.17 1570.5C2344.31 1570.5 2335.5 1561.69 2335.5 1550.83Z" stroke="#148E7A" stroke-width="4.58333" stroke-linecap="butt" stroke-linejoin="miter" stroke-miterlimit="8" stroke-opacity="1" fill="#F2F8F5" fill-rule="evenodd" fill-opacity="1"/><text fill="#767171" fill-opacity="1" font-family="Calibri,Calibri_MSFontService,sans-serif" font-style="normal" font-variant="normal" font-weight="400" font-stretch="normal" font-size="83" text-anchor="start" direction="ltr" writing-mode="lr-tb" unicode-bidi="normal" text-decoration="none" transform="matrix(1 0 0 1 2385.69 1539)">Abundance</text><text fill="#2D3E50" fill-opacity="1" font-family="Calibri,Calibri_MSFontService,sans-serif" font-style="normal" font-variant="normal" font-weight="400" font-stretch="normal" font-size="83" text-anchor="start" direction="ltr" writing-mode="lr-tb" unicode-bidi="normal" text-decoration="none" transform="matrix(1 0 0 1 2383.87 733)">Explication</text><path d="M2335.5 1633.33C2335.5 1622.38 2344.38 1613.5 2355.33 1613.5L2797.67 1613.5C2808.62 1613.5 2817.5 1622.38 2817.5 1633.33L2817.5 1712.67C2817.5 1723.62 2808.62 1732.5 2797.67 1732.5L2355.33 1732.5C2344.38 1732.5 2335.5 1723.62 2335.5 1712.67Z" stroke="#148E7A" stroke-width="4.58333" stroke-linecap="butt" stroke-linejoin="miter" stroke-miterlimit="8" stroke-opacity="1" fill="#F2F8F5" fill-rule="evenodd" fill-opacity="1"/><text fill="#767171" fill-opacity="1" font-family="Calibri,Calibri_MSFontService,sans-serif" font-style="normal" font-variant="normal" font-weight="400" font-stretch="normal" font-size="83" text-anchor="start" direction="ltr" writing-mode="lr-tb" unicode-bidi="normal" text-decoration="none" transform="matrix(1 0 0 1 2385.69 1700)">Abundance</text><path d="M2.38097-2.47939 8.68233 3.57183 15.7472 10.4915 23.5605 18.1947 32.1279 26.6168 32.1155 26.6046 41.4491 35.6874 41.4294 35.6684 51.5266 45.3394 51.5009 45.3149 62.3627 55.505 62.3314 55.476 73.9589 66.1162 73.9225 66.0833 86.3166 77.1045 86.2753 77.0684 99.4371 88.4015 99.3911 88.3626 113.322 99.9386 113.271 99.8972 127.971 111.647 127.915 111.604 143.386 123.458 143.326 123.413 159.568 135.303 159.503 135.257 176.518 147.114 176.448 147.066 194.237 158.821 194.161 158.772 212.725 170.355 212.644 170.307 231.983 181.649 231.897 181.6 252.013 192.633 251.921 192.585 272.815 203.239 272.718 203.192 294.39 213.398 294.288 213.352 316.74 223.042 316.632 222.998 339.864 232.102 339.751 232.06 363.765 240.509 363.647 240.469 388.444 248.195 388.32 248.159 413.901 255.091 413.773 255.059 440.139 261.129 440.007 261.102 467.158 266.241 467.022 266.218 494.96 270.357 494.822 270.339 523.548 273.409 523.407 273.397 552.921 275.328 552.779 275.322 583.083 276.046 583 276.045 599.838 276.04 599.814 276.04 616.245 275.918 616.219 275.919 632.25 275.68 632.223 275.681 647.859 275.327 647.831 275.328 663.08 274.86 663.051 274.861 677.918 274.279 677.872 274.281 706.487 272.78 706.422 272.784 733.589 270.838 733.518 270.844 759.288 268.459 759.211 268.467 783.637 265.652 783.553 265.662 806.686 262.422 806.596 262.435 828.487 258.777 828.39 258.794 849.091 254.725 848.988 254.747 868.55 250.272 868.44 250.299 886.916 245.427 886.799 245.46 904.24 240.196 904.117 240.236 920.574 234.588 920.446 234.635 935.972 228.609 935.84 228.663 950.485 222.267 950.35 222.329 964.167 215.568 964.031 215.638 977.071 208.52 976.935 208.598 989.25 201.128 989.117 201.213 1000.76 193.399 1000.63 193.489 1011.65 185.338 1011.53 185.433 1021.98 176.95 1021.86 177.047 1031.79 168.241 1031.69 168.338 1041.15 159.214 1041.06 159.309 1050.1 149.875 1050.02 149.966 1058.7 140.228 1058.6 140.353 1075.08 119.99 1074.97 120.13 1090.62 98.6324 1090.55 98.7335 1101.98 81.7969 1107.68 85.6408 1096.22 102.629 1080.48 124.248 1063.89 144.742 1055.11 154.588 1045.97 164.117 1036.41 173.337 1026.37 182.241 1015.8 190.819 1004.66 199.063 992.883 206.965 980.434 214.516 967.258 221.709 953.305 228.537 938.526 234.992 922.87 241.069 906.288 246.76 888.727 252.059 870.138 256.961 850.469 261.46 829.668 265.55 807.684 269.224 784.466 272.477 759.96 275.302 734.115 277.693 706.88 279.644 678.209 281.148 663.305 281.731 648.029 282.2 632.365 282.555 616.309 282.793 599.852 282.915 582.96 282.92 552.543 282.193 522.887 280.252 494.022 277.168 465.947 273.008 438.662 267.844 412.167 261.744 386.46 254.778 361.542 247.015 337.412 238.525 314.069 229.377 291.512 219.642 269.74 209.388 248.752 198.686 228.548 187.604 209.125 176.213 190.484 164.581 172.622 152.779 155.54 140.874 139.234 128.938 123.706 117.039 108.953 105.247 94.974 93.631 81.7686 82.2603 69.3357 71.2046 57.6744 60.5335 46.7841 50.3167 36.6641 40.624 27.3145 31.5256 18.7338 23.0905 10.9245 15.3912 10.9325 15.3991 3.8838 8.49525 3.90815 8.51886-2.38097 2.47939ZM1074.66 94.4533 1108.64 78.0627 1106.18 115.712C1106.06 117.607 1104.42 119.042 1102.53 118.918 1100.63 118.794 1099.2 117.158 1099.32 115.264L1101.4 83.4947 1106.32 86.815 1077.64 100.646C1075.93 101.47 1073.88 100.753 1073.05 99.0428 1072.23 97.3328 1072.95 95.278 1074.66 94.4533Z" fill="#595959" fill-rule="nonzero" fill-opacity="1" transform="matrix(0.995035 0.0995267 0.0995267 -0.995035 457.94 801.224)"/><path d="M934.5 543.5C934.5 535.216 941.216 528.5 949.5 528.5L1020.5 528.5C1028.78 528.5 1035.5 535.216 1035.5 543.5L1035.5 603.5C1035.5 611.784 1028.78 618.5 1020.5 618.5L949.5 618.5C941.216 618.5 934.5 611.784 934.5 603.5Z" stroke="#7F7F7F" stroke-width="6.875" stroke-linecap="square" stroke-linejoin="miter" stroke-miterlimit="8" stroke-dasharray="20.625 6.875" stroke-opacity="1" fill="#1FC2A7" fill-rule="evenodd" fill-opacity="1"/><g><g><g><path d="M65.7082 58.0134 48.2437 40.5575 63.6332 35.0156C64.4234 34.744 64.844 33.8832 64.5723 33.093 64.4208 32.6519 64.0742 32.3054 63.6332 32.1538L19.2888 17.3694C19.1298 17.3171 18.9634 17.2908 18.796 17.2916 17.9653 17.3094 17.3064 17.9972 17.3242 18.8279 17.3275 18.9819 17.3544 19.1344 17.404 19.2802L32.1538 63.6678C32.4322 64.4557 33.2966 64.8686 34.0845 64.5902 34.5156 64.4379 34.8546 64.0989 35.0069 63.6678L40.5575 48.2609 58.0048 65.7082Z" fill="#FFC000" fill-rule="nonzero" fill-opacity="1" transform="matrix(1 0 0 1.01205 947 531)"/></g></g></g><path d="M2873.5 669.167C2873.5 658.305 2882.31 649.5 2893.17 649.5L3334.83 649.5C3345.7 649.5 3354.5 658.305 3354.5 669.167L3354.5 747.833C3354.5 758.695 3345.7 767.5 3334.83 767.5L2893.17 767.5C2882.31 767.5 2873.5 758.695 2873.5 747.833Z" stroke="#0684A2" stroke-width="4.58333" stroke-linecap="butt" stroke-linejoin="miter" stroke-miterlimit="8" stroke-opacity="1" fill="#BED6D2" fill-rule="evenodd" fill-opacity="1"/><path d="M2873.5 829.167C2873.5 818.305 2882.31 809.5 2893.17 809.5L3334.83 809.5C3345.7 809.5 3354.5 818.305 3354.5 829.167L3354.5 907.833C3354.5 918.695 3345.7 927.5 3334.83 927.5L2893.17 927.5C2882.31 927.5 2873.5 918.695 2873.5 907.833Z" stroke="#148E7A" stroke-width="4.58333" stroke-linecap="butt" stroke-linejoin="miter" stroke-miterlimit="8" stroke-opacity="1" fill="#F2F8F5" fill-rule="evenodd" fill-opacity="1"/><text fill="#767171" fill-opacity="1" font-family="Calibri,Calibri_MSFontService,sans-serif" font-style="normal" font-variant="normal" font-weight="400" font-stretch="normal" font-size="83" text-anchor="start" direction="ltr" writing-mode="lr-tb" unicode-bidi="normal" text-decoration="none" transform="matrix(1 0 0 1 3019 896)">string</text><path d="M2873.5 989.167C2873.5 978.305 2882.31 969.5 2893.17 969.5L3334.83 969.5C3345.7 969.5 3354.5 978.305 3354.5 989.167L3354.5 1067.83C3354.5 1078.69 3345.7 1087.5 3334.83 1087.5L2893.17 1087.5C2882.31 1087.5 2873.5 1078.69 2873.5 1067.83Z" stroke="#148E7A" stroke-width="4.58333" stroke-linecap="butt" stroke-linejoin="miter" stroke-miterlimit="8" stroke-opacity="1" fill="#F2F8F5" fill-rule="evenodd" fill-opacity="1"/><text fill="#767171" fill-opacity="1" font-family="Calibri,Calibri_MSFontService,sans-serif" font-style="normal" font-variant="normal" font-weight="400" font-stretch="normal" font-size="83" text-anchor="start" direction="ltr" writing-mode="lr-tb" unicode-bidi="normal" text-decoration="none" transform="matrix(1 0 0 1 2994.5 1056)">integer</text><path d="M2873.5 1152.33C2873.5 1141.38 2882.38 1132.5 2893.33 1132.5L3334.67 1132.5C3345.62 1132.5 3354.5 1141.38 3354.5 1152.33L3354.5 1231.67C3354.5 1242.62 3345.62 1251.5 3334.67 1251.5L2893.33 1251.5C2882.38 1251.5 2873.5 1242.62 2873.5 1231.67Z" stroke="#148E7A" stroke-width="4.58333" stroke-linecap="butt" stroke-linejoin="miter" stroke-miterlimit="8" stroke-opacity="1" fill="#F2F8F5" fill-rule="evenodd" fill-opacity="1"/><text fill="#767171" fill-opacity="1" font-family="Calibri,Calibri_MSFontService,sans-serif" font-style="normal" font-variant="normal" font-weight="400" font-stretch="normal" font-size="83" text-anchor="start" direction="ltr" writing-mode="lr-tb" unicode-bidi="normal" text-decoration="none" transform="matrix(1 0 0 1 2994.5 1219)">integer</text><path d="M2873.5 1313.17C2873.5 1302.31 2882.31 1293.5 2893.17 1293.5L3334.83 1293.5C3345.7 1293.5 3354.5 1302.31 3354.5 1313.17L3354.5 1391.83C3354.5 1402.7 3345.7 1411.5 3334.83 1411.5L2893.17 1411.5C2882.31 1411.5 2873.5 1402.7 2873.5 1391.83Z" stroke="#148E7A" stroke-width="4.58333" stroke-linecap="butt" stroke-linejoin="miter" stroke-miterlimit="8" stroke-opacity="1" fill="#F2F8F5" fill-rule="evenodd" fill-opacity="1"/><text fill="#767171" fill-opacity="1" font-family="Calibri,Calibri_MSFontService,sans-serif" font-style="normal" font-variant="normal" font-weight="400" font-stretch="normal" font-size="83" text-anchor="start" direction="ltr" writing-mode="lr-tb" unicode-bidi="normal" text-decoration="none" transform="matrix(1 0 0 1 3019 1379)">string</text><path d="M2873.5 1473.17C2873.5 1462.31 2882.31 1453.5 2893.17 1453.5L3334.83 1453.5C3345.7 1453.5 3354.5 1462.31 3354.5 1473.17L3354.5 1551.83C3354.5 1562.69 3345.7 1571.5 3334.83 1571.5L2893.17 1571.5C2882.31 1571.5 2873.5 1562.69 2873.5 1551.83Z" stroke="#148E7A" stroke-width="4.58333" stroke-linecap="butt" stroke-linejoin="miter" stroke-miterlimit="8" stroke-opacity="1" fill="#F2F8F5" fill-rule="evenodd" fill-opacity="1"/><text fill="#767171" fill-opacity="1" font-family="Calibri,Calibri_MSFontService,sans-serif" font-style="normal" font-variant="normal" font-weight="400" font-stretch="normal" font-size="83" text-anchor="start" direction="ltr" writing-mode="lr-tb" unicode-bidi="normal" text-decoration="none" transform="matrix(1 0 0 1 2994.5 1540)">integer</text><text fill="#2D3E50" fill-opacity="1" font-family="Calibri,Calibri_MSFontService,sans-serif" font-style="normal" font-variant="normal" font-weight="400" font-stretch="normal" font-size="83" text-anchor="start" direction="ltr" writing-mode="lr-tb" unicode-bidi="normal" text-decoration="none" transform="matrix(1 0 0 1 2921.04 734)">Object Type</text><path d="M2873.5 1634.17C2873.5 1623.31 2882.31 1614.5 2893.17 1614.5L3334.83 1614.5C3345.7 1614.5 3354.5 1623.31 3354.5 1634.17L3354.5 1712.83C3354.5 1723.7 3345.7 1732.5 3334.83 1732.5L2893.17 1732.5C2882.31 1732.5 2873.5 1723.7 2873.5 1712.83Z" stroke="#148E7A" stroke-width="4.58333" stroke-linecap="butt" stroke-linejoin="miter" stroke-miterlimit="8" stroke-opacity="1" fill="#F2F8F5" fill-rule="evenodd" fill-opacity="1"/><text fill="#767171" fill-opacity="1" font-family="Calibri,Calibri_MSFontService,sans-serif" font-style="normal" font-variant="normal" font-weight="400" font-stretch="normal" font-size="83" text-anchor="start" direction="ltr" writing-mode="lr-tb" unicode-bidi="normal" text-decoration="none" transform="matrix(1 0 0 1 2994.5 1701)">integer</text><path d="M3406.5 671.333C3406.5 660.38 3415.38 651.5 3426.33 651.5L3868.67 651.5C3879.62 651.5 3888.5 660.38 3888.5 671.333L3888.5 750.666C3888.5 761.62 3879.62 770.5 3868.67 770.5L3426.33 770.5C3415.38 770.5 3406.5 761.62 3406.5 750.666Z" stroke="#0684A2" stroke-width="4.58333" stroke-linecap="butt" stroke-linejoin="miter" stroke-miterlimit="8" stroke-opacity="1" fill="#BED6D2" fill-rule="evenodd" fill-opacity="1"/><path d="M3406.5 832.167C3406.5 821.305 3415.31 812.5 3426.17 812.5L3868.83 812.5C3879.69 812.5 3888.5 821.305 3888.5 832.167L3888.5 910.833C3888.5 921.695 3879.69 930.5 3868.83 930.5L3426.17 930.5C3415.31 930.5 3406.5 921.695 3406.5 910.833Z" stroke="#148E7A" stroke-width="4.58333" stroke-linecap="butt" stroke-linejoin="miter" stroke-miterlimit="8" stroke-opacity="1" fill="#F2F8F5" fill-rule="evenodd" fill-opacity="1"/><path d="M3406.5 992.167C3406.5 981.305 3415.31 972.5 3426.17 972.5L3868.83 972.5C3879.69 972.5 3888.5 981.305 3888.5 992.167L3888.5 1070.83C3888.5 1081.69 3879.69 1090.5 3868.83 1090.5L3426.17 1090.5C3415.31 1090.5 3406.5 1081.69 3406.5 1070.83Z" stroke="#148E7A" stroke-width="4.58333" stroke-linecap="butt" stroke-linejoin="miter" stroke-miterlimit="8" stroke-opacity="1" fill="#F2F8F5" fill-rule="evenodd" fill-opacity="1"/><text fill="#767171" fill-opacity="1" font-family="Calibri,Calibri_MSFontService,sans-serif" font-style="normal" font-variant="normal" font-weight="400" font-stretch="normal" font-size="83" text-anchor="start" direction="ltr" writing-mode="lr-tb" unicode-bidi="normal" text-decoration="none" transform="matrix(1 0 0 1 3555.26 1059)">µg/µl</text><path d="M3406.5 1155.17C3406.5 1144.31 3415.31 1135.5 3426.17 1135.5L3868.83 1135.5C3879.69 1135.5 3888.5 1144.31 3888.5 1155.17L3888.5 1233.83C3888.5 1244.69 3879.69 1253.5 3868.83 1253.5L3426.17 1253.5C3415.31 1253.5 3406.5 1244.69 3406.5 1233.83Z" stroke="#148E7A" stroke-width="4.58333" stroke-linecap="butt" stroke-linejoin="miter" stroke-miterlimit="8" stroke-opacity="1" fill="#F2F8F5" fill-rule="evenodd" fill-opacity="1"/><text fill="#767171" fill-opacity="1" font-family="Calibri,Calibri_MSFontService,sans-serif" font-style="normal" font-variant="normal" font-weight="400" font-stretch="normal" font-size="83" text-anchor="start" direction="ltr" writing-mode="lr-tb" unicode-bidi="normal" text-decoration="none" transform="matrix(1 0 0 1 3555.26 1222)">µg/µl</text><path d="M3406.5 1315.33C3406.5 1304.38 3415.38 1295.5 3426.33 1295.5L3868.67 1295.5C3879.62 1295.5 3888.5 1304.38 3888.5 1315.33L3888.5 1394.67C3888.5 1405.62 3879.62 1414.5 3868.67 1414.5L3426.33 1414.5C3415.38 1414.5 3406.5 1405.62 3406.5 1394.67Z" stroke="#148E7A" stroke-width="4.58333" stroke-linecap="butt" stroke-linejoin="miter" stroke-miterlimit="8" stroke-opacity="1" fill="#F2F8F5" fill-rule="evenodd" fill-opacity="1"/><path d="M3406.5 1476.17C3406.5 1465.31 3415.31 1456.5 3426.17 1456.5L3868.83 1456.5C3879.69 1456.5 3888.5 1465.31 3888.5 1476.17L3888.5 1554.83C3888.5 1565.69 3879.69 1574.5 3868.83 1574.5L3426.17 1574.5C3415.31 1574.5 3406.5 1565.69 3406.5 1554.83Z" stroke="#148E7A" stroke-width="4.58333" stroke-linecap="butt" stroke-linejoin="miter" stroke-miterlimit="8" stroke-opacity="1" fill="#F2F8F5" fill-rule="evenodd" fill-opacity="1"/><text fill="#767171" fill-opacity="1" font-family="Calibri,Calibri_MSFontService,sans-serif" font-style="normal" font-variant="normal" font-weight="400" font-stretch="normal" font-size="83" text-anchor="start" direction="ltr" writing-mode="lr-tb" unicode-bidi="normal" text-decoration="none" transform="matrix(1 0 0 1 3555.26 1542)">µg/µl</text><text fill="#2D3E50" fill-opacity="1" font-family="Calibri,Calibri_MSFontService,sans-serif" font-style="normal" font-variant="normal" font-weight="400" font-stretch="normal" font-size="83" text-anchor="start" direction="ltr" writing-mode="lr-tb" unicode-bidi="normal" text-decoration="none" transform="matrix(1 0 0 1 3570.93 736)">Unit</text><path d="M3406.5 1637.17C3406.5 1626.31 3415.31 1617.5 3426.17 1617.5L3868.83 1617.5C3879.69 1617.5 3888.5 1626.31 3888.5 1637.17L3888.5 1715.83C3888.5 1726.69 3879.69 1735.5 3868.83 1735.5L3426.17 1735.5C3415.31 1735.5 3406.5 1726.69 3406.5 1715.83Z" stroke="#148E7A" stroke-width="4.58333" stroke-linecap="butt" stroke-linejoin="miter" stroke-miterlimit="8" stroke-opacity="1" fill="#F2F8F5" fill-rule="evenodd" fill-opacity="1"/><text fill="#767171" fill-opacity="1" font-family="Calibri,Calibri_MSFontService,sans-serif" font-style="normal" font-variant="normal" font-weight="400" font-stretch="normal" font-size="83" text-anchor="start" direction="ltr" writing-mode="lr-tb" unicode-bidi="normal" text-decoration="none" transform="matrix(1 0 0 1 3555.26 1703)">µg/µl</text><path d="M2.49267-2.36706 8.23946 3.68467 14.6827 10.6051 21.808 18.3085 29.6205 26.7303 29.6087 26.7176 38.1201 35.8004 38.1014 35.7806 47.3092 45.4516 47.2845 45.4259 57.1896 55.616 57.1596 55.5855 67.7629 66.2257 67.7278 66.191 79.0302 77.2122 78.9903 77.1739 90.9927 88.507 90.9481 88.4656 103.651 100.042 103.602 99.9973 117.007 111.747 116.953 111.7 131.061 123.555 131.001 123.506 145.813 135.396 145.748 135.346 161.264 147.203 161.194 147.151 177.416 158.905 177.34 158.852 194.268 170.435 194.187 170.381 211.822 181.723 211.735 181.669 230.079 192.702 229.984 192.647 249.038 203.301 248.937 203.247 268.7 213.454 268.594 213.401 289.068 223.091 288.954 223.04 310.141 232.144 310.021 232.095 331.92 240.544 331.794 240.498 354.406 248.224 354.274 248.182 377.602 255.114 377.464 255.076 401.507 261.146 401.364 261.113 426.124 266.252 425.976 266.225 451.453 270.364 451.302 270.343 477.498 273.413 477.344 273.398 504.258 275.33 504.102 275.322 531.737 276.046 531.646 276.045 547.001 276.04 546.974 276.04 561.958 275.918 561.916 275.919 590.793 275.327 590.732 275.329 618.194 274.279 618.128 274.282 644.223 272.781 644.151 272.786 668.925 270.84 668.847 270.847 692.348 268.462 692.263 268.472 714.538 265.656 714.447 265.669 735.541 262.428 735.444 262.445 755.406 258.786 755.301 258.807 774.179 254.737 774.067 254.763 791.906 250.289 791.788 250.321 808.636 245.449 808.511 245.487 824.415 240.224 824.284 240.27 839.292 234.622 839.157 234.676 853.314 228.651 853.176 228.713 866.531 222.316 866.391 222.388 878.99 215.627 878.85 215.706 890.742 208.587 890.604 208.675 901.834 201.205 901.7 201.299 912.316 193.484 912.188 193.583 922.237 185.432 922.117 185.534 931.645 177.051 931.534 177.155 940.59 168.348 940.489 168.45 949.119 159.327 949.029 159.426 957.28 149.991 957.201 150.085 965.12 140.347 965.022 140.474 980.054 120.112 979.956 120.252 994.227 98.7543 994.162 98.8547 1004.48 82.0728 1010.34 85.6743 999.987 102.507 985.636 124.126 970.505 144.622 962.496 154.471 954.16 164.002 945.435 173.227 936.273 182.136 926.629 190.721 916.456 198.973 905.709 206.884 894.343 214.444 882.312 221.646 869.572 228.483 856.077 234.947 841.782 241.031 826.641 246.729 810.609 252.035 793.638 256.942 775.684 261.446 756.698 265.539 736.634 269.216 715.445 272.471 693.084 275.298 669.502 277.691 644.653 279.643 618.49 281.148 590.964 282.2 562.035 282.793 547.017 282.915 531.602 282.92 503.844 282.192 476.774 280.25 450.426 277.162 424.8 272.999 399.895 267.83 375.712 261.724 352.249 254.752 329.508 246.983 307.486 238.486 286.183 229.332 265.599 219.59 245.732 209.33 226.582 198.621 208.147 187.533 190.427 176.136 173.42 164.499 157.125 152.692 141.541 140.783 126.667 128.843 112.502 116.941 99.0453 105.146 86.2949 93.5267 74.2503 82.1537 62.9104 71.096 52.2747 60.4233 42.3423 50.2051 33.1128 40.5114 24.5862 31.4123 16.7609 22.9767 9.63945 15.2775 9.6471 15.2857 3.21927 8.38186 3.24247 8.40653-2.49267 2.36706ZM977.719 95.8642 1010.98 78.0623 1010.11 115.782C1010.06 117.68 1008.49 119.183 1006.59 119.138 1004.69 119.094 1003.19 117.52 1003.23 115.622L1003.97 83.7935 1009.03 86.9044 980.963 101.926C979.289 102.822 977.206 102.191 976.31 100.517 975.414 98.843 976.045 96.7599 977.719 95.8642Z" fill="#595959" fill-rule="nonzero" fill-opacity="1" transform="matrix(0.969377 0.245578 0.245578 -0.969377 573.627 825.439)"/><path d="M2.31721-2.53909 7.047 1.77738 12.3506 6.71401 18.2123 12.2061 24.6375 18.2086 24.6248 18.1968 31.6257 24.6712 31.6056 24.6528 39.1793 31.5465 39.153 31.5228 47.3002 38.7866 47.2683 38.7585 55.9898 46.3431 55.9528 46.3114 65.2493 54.1675 65.2075 54.1328 75.0798 62.2113 75.0333 62.1739 85.4822 70.4256 85.431 70.3859 96.4572 78.7615 96.4014 78.72 108.006 87.1703 107.945 87.1273 120.128 95.603 120.063 95.5588 132.826 104.011 132.756 103.966 146.099 112.345 146.024 112.299 159.948 120.556 159.868 120.51 174.374 128.595 174.289 128.549 189.378 136.414 189.288 136.369 204.959 143.963 204.865 143.919 221.12 151.195 221.021 151.152 237.861 158.059 237.756 158.018 255.183 164.508 255.073 164.469 273.086 170.492 272.971 170.456 291.571 175.963 291.452 175.93 310.64 180.871 310.517 180.842 330.293 185.169 330.167 185.144 350.533 188.807 350.403 188.787 371.359 191.737 371.227 191.721 392.773 193.909 392.639 193.898 414.777 195.275 414.642 195.269 437.372 195.785 437.282 195.784 462.237 195.694 462.188 195.695 485.94 195.273 485.888 195.274 508.476 194.526 508.419 194.528 529.882 193.458 529.82 193.462 550.197 192.074 550.13 192.08 569.46 190.38 569.386 190.387 587.707 188.38 587.628 188.39 604.979 186.08 604.893 186.092 621.313 183.484 621.221 183.5 636.748 180.599 636.649 180.619 651.323 177.43 651.217 177.454 665.075 173.981 664.963 174.011 678.045 170.259 677.927 170.296 690.271 166.27 690.147 166.313 701.793 162.017 701.664 162.068 712.65 157.508 712.518 157.566 722.882 152.746 722.748 152.812 732.529 147.737 732.395 147.81 741.633 142.486 741.501 142.566 750.232 136.996 750.104 137.082 758.37 131.271 758.247 131.362 766.084 125.315 765.969 125.408 773.418 119.131 773.311 119.225 780.409 112.721 780.268 112.858 793.569 99.1911 793.415 99.3595 805.78 84.8447 805.668 84.9835 817.406 69.6594 817.331 69.7604 824.814 59.2158 830.421 63.1945 822.902 73.7902 811.071 89.235 798.575 103.904 785.126 117.724 777.902 124.342 770.343 130.713 762.386 136.852 753.995 142.75 745.133 148.404 735.763 153.805 725.848 158.949 715.352 163.83 704.236 168.444 692.465 172.786 680 176.851 666.803 180.636 652.836 184.136 638.06 187.348 622.438 190.267 605.929 192.889 588.496 195.21 570.098 197.225 550.698 198.931 530.256 200.323 508.732 201.396 486.089 202.146 462.286 202.569 437.262 202.66 414.418 202.141 392.146 200.756 370.466 198.554 349.38 195.585 328.887 191.899 308.986 187.545 289.678 182.572 270.962 177.031 252.838 170.971 235.304 164.441 218.361 157.492 202.008 150.173 186.244 142.534 171.069 134.624 156.481 126.493 142.48 118.19 129.064 109.766 116.234 101.269 103.989 92.7497 92.3263 84.2572 81.2467 75.841 70.749 67.5508 60.8326 59.4362 51.4967 51.5468 42.7408 43.9323 34.5646 36.6427 26.9678 29.7279 19.9505 23.2383 13.5117 17.223 7.65409 11.7348 7.66231 11.7425 2.37524 6.82125 2.40011 6.84417-2.31721 2.53909ZM797.201 71.2178 831.566 55.6414 828.209 93.2215C828.04 95.1125 826.37 96.5085 824.479 96.3396 822.589 96.1707 821.193 94.5009 821.361 92.6099L824.194 60.8993 829.037 64.336 800.039 77.4795C798.31 78.2633 796.273 77.4969 795.489 75.7678 794.706 74.0386 795.472 72.0015 797.201 71.2178Z" fill="#595959" fill-rule="nonzero" fill-opacity="1" transform="matrix(0.905487 0.424373 0.424373 -0.905487 779.781 826.888)"/><path d="M573.28 1620.07 658.188 1614.62 700.397 1611.81 700.386 1611.81 742.319 1608.87 742.304 1608.87 783.86 1605.78 783.841 1605.78 824.923 1602.49 824.899 1602.49 865.414 1598.97 865.386 1598.97 905.238 1595.18 905.205 1595.18 944.3 1591.08 944.261 1591.08 982.505 1586.62 982.46 1586.63 1019.76 1581.78 1019.71 1581.79 1055.96 1576.51 1055.9 1576.52 1091.02 1570.78 1090.95 1570.79 1124.85 1564.54 1124.77 1564.55 1157.33 1557.76 1157.27 1557.77 1173.02 1554.15 1172.98 1554.17 1188.37 1550.4 1188.27 1550.42 1218.21 1542.18 1218.08 1542.22 1247.07 1532.96 1246.95 1533.01 1274.98 1522.87 1274.87 1522.91 1301.93 1512.04 1301.82 1512.08 1327.89 1500.61 1327.8 1500.65 1352.86 1488.71 1352.78 1488.76 1376.82 1476.49 1376.75 1476.53 1399.76 1464.09 1399.7 1464.12 1421.66 1451.63 1421.61 1451.66 1442.51 1439.26 1442.46 1439.29 1462.28 1427.12 1462.25 1427.14 1480.98 1415.34 1480.96 1415.35 1498.58 1404.06 1515.07 1393.42 1530.45 1383.54 1538.91 1378.22 1542.57 1384.03 1534.12 1389.35 1534.15 1389.33 1518.79 1399.19 1502.29 1409.85 1484.65 1421.15 1465.9 1432.97 1446.04 1445.16 1425.09 1457.59 1403.07 1470.12 1379.98 1482.6 1355.86 1494.9 1330.71 1506.88 1304.54 1518.4 1277.37 1529.32 1249.22 1539.49 1220.1 1548.79 1190.05 1557.07 1174.59 1560.85 1158.77 1564.48 1126.13 1571.29 1092.17 1577.56 1056.98 1583.31 1020.67 1588.6 983.323 1593.45 945.037 1597.91 905.906 1602.02 866.023 1605.82 825.483 1609.34 784.38 1612.63 742.807 1615.73 700.86 1618.66 658.628 1621.49 573.72 1626.93ZM1508.81 1378.76 1546.51 1377.49 1529.05 1410.94C1528.18 1412.62 1526.1 1413.27 1524.42 1412.4 1522.73 1411.52 1522.08 1409.44 1522.96 1407.76L1537.69 1379.53 1540.85 1384.56 1509.04 1385.63C1507.14 1385.69 1505.55 1384.21 1505.48 1382.31 1505.42 1380.41 1506.91 1378.82 1508.81 1378.76Z" fill="#595959" fill-rule="nonzero" fill-opacity="1"/><path d="M768.363 1634.07 837.04 1631.32 905.096 1628.42 905.083 1628.42 938.694 1626.86 938.682 1626.86 971.911 1625.2 971.896 1625.21 1004.67 1623.43 1004.65 1623.43 1036.88 1621.52 1036.86 1621.52 1068.48 1619.45 1068.46 1619.45 1099.39 1617.2 1099.36 1617.21 1129.53 1614.76 1129.5 1614.77 1158.82 1612.11 1158.79 1612.11 1187.19 1609.21 1187.15 1609.22 1214.56 1606.07 1214.51 1606.07 1240.85 1602.65 1240.79 1602.66 1265.99 1598.94 1265.91 1598.95 1290.12 1594.79 1290.03 1594.81 1313.48 1590.14 1313.4 1590.16 1336.07 1585.05 1335.99 1585.07 1357.88 1579.59 1357.81 1579.61 1378.89 1573.83 1378.82 1573.85 1399.1 1567.83 1399.03 1567.85 1418.48 1561.67 1418.42 1561.69 1437.04 1555.41 1436.99 1555.43 1454.75 1549.13 1454.71 1549.15 1471.61 1542.9 1471.58 1542.91 1487.61 1536.78 1487.58 1536.79 1502.73 1530.84 1502.71 1530.85 1516.96 1525.15 1530.3 1519.79 1542.74 1514.81 1547.91 1512.78 1550.42 1519.18 1545.26 1521.21 1545.28 1521.2 1532.86 1526.17 1519.51 1531.54 1505.25 1537.23 1490.08 1543.19 1474.01 1549.34 1457.07 1555.6 1439.26 1561.92 1420.59 1568.21 1401.08 1574.41 1380.74 1580.45 1359.59 1586.25 1337.62 1591.75 1314.87 1596.88 1291.33 1601.56 1267.03 1605.73 1241.77 1609.46 1215.37 1612.9 1187.91 1616.05 1159.46 1618.95 1130.1 1621.61 1099.9 1624.06 1068.94 1626.31 1037.3 1628.38 1005.05 1630.29 972.261 1632.07 939.019 1633.73 905.395 1635.29 837.314 1638.19 768.637 1640.93ZM1518.23 1507.69 1555.51 1513.49 1532.11 1543.09 1532.11 1543.09C1530.94 1544.58 1528.78 1544.83 1527.29 1543.66 1525.8 1542.48 1525.54 1540.32 1526.72 1538.83L1526.72 1538.83 1546.47 1513.85 1548.64 1519.38 1517.18 1514.49C1515.3 1514.19 1514.02 1512.44 1514.31 1510.56 1514.6 1508.69 1516.36 1507.4 1518.23 1507.69Z" fill="#595959" fill-rule="nonzero" fill-opacity="1"/><path d="M-0.0247769 12.5624 49.1051 12.2083 97.7953 11.8339 145.608 11.4189 169.047 11.1899 192.103 10.9431 214.72 10.6761 236.845 10.3862 258.421 10.071 279.394 9.7279 299.709 9.35441 319.311 8.94799 338.145 8.50612 338.134 8.50639 356.157 8.02627 356.142 8.02669 373.465 7.49065 373.448 7.49122 390.225 6.8891 390.208 6.88972 406.429 6.23052 406.413 6.23119 422.07 5.52392 422.055 5.52462 437.139 4.77828 437.125 4.779 451.628 4.00261 451.615 4.00333 465.529 3.20589 465.517 3.2066 478.832 2.39712 491.529 1.58529 503.613 0.779375 515.074-0.0116327 525.905-0.778755 536.096-1.51301 545.641-2.20544 554.531-2.84707 555.968-2.94874 556.453 3.90913 555.026 4.01009 546.139 4.65154 536.59 5.34421 526.39 6.07906 515.547 6.84705 504.07 7.63914 491.968 8.44628 479.249 9.25945 465.928 10.0693 452.002 10.8674 437.486 11.6445 422.388 12.3916 406.716 13.0995 390.479 13.7594 373.687 14.3621 356.348 14.8986 338.312 15.3791 319.453 15.8215 299.835 16.2283 279.506 16.602 258.521 16.9453 236.935 17.2606 214.802 17.5506 192.176 17.8177 169.114 18.0646 145.668 18.2936 97.8482 18.7087 49.1546 19.0831 0.0247769 19.4372ZM529.166-16.6654 563.016-0.0011233 531.848 21.2617C530.28 22.3316 528.141 21.9276 527.071 20.3593 526.002 18.791 526.406 16.6523 527.974 15.5824L554.274-2.35945 554.693 3.56423 526.129-10.4973C524.426-11.3358 523.725-13.3963 524.563-15.0996 525.402-16.8029 527.463-17.5039 529.166-16.6654Z" fill="#595959" fill-rule="nonzero" fill-opacity="1" transform="matrix(1 0 0 -1 1016.5 1694.5)"/><path d="M1006.5 642.667C1006.5 634.29 1013.29 627.5 1021.67 627.5L1092.33 627.5C1100.71 627.5 1107.5 634.29 1107.5 642.667L1107.5 703.333C1107.5 711.709 1100.71 718.5 1092.33 718.5L1021.67 718.5C1013.29 718.5 1006.5 711.709 1006.5 703.333Z" stroke="#7F7F7F" stroke-width="6.875" stroke-linecap="square" stroke-linejoin="miter" stroke-miterlimit="8" stroke-dasharray="20.625 6.875" stroke-opacity="1" fill="#1FC2A7" fill-rule="evenodd" fill-opacity="1"/><g><g><g><path d="M65.7082 58.0134 48.2437 40.5575 63.6332 35.0156C64.4234 34.744 64.844 33.8832 64.5723 33.093 64.4208 32.6519 64.0742 32.3054 63.6332 32.1538L19.2888 17.3694C19.1298 17.3171 18.9634 17.2908 18.796 17.2916 17.9653 17.3094 17.3064 17.9972 17.3242 18.8279 17.3275 18.9819 17.3544 19.1344 17.404 19.2802L32.1538 63.6678C32.4322 64.4557 33.2966 64.8686 34.0845 64.5902 34.5156 64.4379 34.8546 64.0989 35.0069 63.6678L40.5575 48.2609 58.0048 65.7082Z" fill="#FFC000" fill-rule="nonzero" fill-opacity="1" transform="matrix(1 0 0 1 1019 631)"/></g></g></g><path d="M1080.5 747.667C1080.5 739.291 1087.29 732.5 1095.67 732.5L1166.33 732.5C1174.71 732.5 1181.5 739.291 1181.5 747.667L1181.5 808.333C1181.5 816.71 1174.71 823.5 1166.33 823.5L1095.67 823.5C1087.29 823.5 1080.5 816.71 1080.5 808.333Z" stroke="#7F7F7F" stroke-width="6.875" stroke-linecap="square" stroke-linejoin="miter" stroke-miterlimit="8" stroke-dasharray="20.625 6.875" stroke-opacity="1" fill="#1FC2A7" fill-rule="evenodd" fill-opacity="1"/><g><g><g><path d="M65.7085 58.0137 48.2439 40.5577 63.6335 35.0157C64.4237 34.7441 64.8442 33.8834 64.5726 33.0931 64.421 32.652 64.0745 32.3055 63.6335 32.1539L19.2889 17.3695C19.1299 17.3171 18.9635 17.2908 18.7961 17.2917 17.9654 17.3095 17.3065 17.9973 17.3243 18.828 17.3276 18.982 17.3545 19.1345 17.4041 19.2803L32.1539 63.6681C32.4323 64.456 33.2967 64.8689 34.0846 64.5905 34.5157 64.4382 34.8547 64.0992 35.0071 63.6681L40.5577 48.2612 58.005 65.7085Z" fill="#FFC000" fill-rule="nonzero" fill-opacity="1" transform="matrix(1.01204 0 0 1 1093 736)"/></g></g></g><path d="M1109.5 1659.67C1109.5 1651.29 1116.29 1644.5 1124.67 1644.5L1195.33 1644.5C1203.71 1644.5 1210.5 1651.29 1210.5 1659.67L1210.5 1720.33C1210.5 1728.71 1203.71 1735.5 1195.33 1735.5L1124.67 1735.5C1116.29 1735.5 1109.5 1728.71 1109.5 1720.33Z" stroke="#7F7F7F" stroke-width="6.875" stroke-linecap="square" stroke-linejoin="miter" stroke-miterlimit="8" stroke-dasharray="20.625 6.875" stroke-opacity="1" fill="#1FC2A7" fill-rule="evenodd" fill-opacity="1"/><g><g><g><path d="M65.7082 58.0134 48.2437 40.5575 63.6332 35.0156C64.4234 34.744 64.844 33.8832 64.5723 33.093 64.4208 32.6519 64.0742 32.3054 63.6332 32.1538L19.2888 17.3694C19.1298 17.3171 18.9634 17.2908 18.796 17.2916 17.9653 17.3094 17.3064 17.9972 17.3242 18.8279 17.3275 18.9819 17.3544 19.1344 17.404 19.2802L32.1538 63.6678C32.4322 64.4557 33.2966 64.8686 34.0845 64.5902 34.5156 64.4379 34.8546 64.0989 35.0069 63.6678L40.5575 48.2609 58.0048 65.7082Z" fill="#FFC000" fill-rule="nonzero" fill-opacity="1" transform="matrix(1 0 0 1 1122 1648)"/></g></g></g><path d="M1214.5 1575.67C1214.5 1567.29 1221.29 1560.5 1229.67 1560.5L1300.33 1560.5C1308.71 1560.5 1315.5 1567.29 1315.5 1575.67L1315.5 1636.33C1315.5 1644.71 1308.71 1651.5 1300.33 1651.5L1229.67 1651.5C1221.29 1651.5 1214.5 1644.71 1214.5 1636.33Z" stroke="#7F7F7F" stroke-width="6.875" stroke-linecap="square" stroke-linejoin="miter" stroke-miterlimit="8" stroke-dasharray="20.625 6.875" stroke-opacity="1" fill="#1FC2A7" fill-rule="evenodd" fill-opacity="1"/><g><g><g><path d="M65.7082 58.0134 48.2437 40.5575 63.6332 35.0156C64.4234 34.744 64.844 33.8832 64.5723 33.093 64.4208 32.6519 64.0742 32.3054 63.6332 32.1538L19.2888 17.3694C19.1298 17.3171 18.9634 17.2908 18.796 17.2916 17.9653 17.3094 17.3064 17.9972 17.3242 18.8279 17.3275 18.9819 17.3544 19.1344 17.404 19.2802L32.1538 63.6678C32.4322 64.4557 33.2966 64.8686 34.0845 64.5902 34.5156 64.4379 34.8546 64.0989 35.0069 63.6678L40.5575 48.2609 58.0048 65.7082Z" fill="#FFC000" fill-rule="nonzero" fill-opacity="1" transform="matrix(1 0 0 1 1227 1564)"/></g></g></g><path d="M1273.5 1468.5C1273.5 1460.22 1280.22 1453.5 1288.5 1453.5L1359.5 1453.5C1367.78 1453.5 1374.5 1460.22 1374.5 1468.5L1374.5 1528.5C1374.5 1536.78 1367.78 1543.5 1359.5 1543.5L1288.5 1543.5C1280.22 1543.5 1273.5 1536.78 1273.5 1528.5Z" stroke="#7F7F7F" stroke-width="6.875" stroke-linecap="square" stroke-linejoin="miter" stroke-miterlimit="8" stroke-dasharray="20.625 6.875" stroke-opacity="1" fill="#1FC2A7" fill-rule="evenodd" fill-opacity="1"/><g><g><g><path d="M65.7082 58.0134 48.2437 40.5575 63.6332 35.0156C64.4234 34.744 64.844 33.8832 64.5723 33.093 64.4208 32.6519 64.0742 32.3054 63.6332 32.1538L19.2888 17.3694C19.1298 17.3171 18.9634 17.2908 18.796 17.2916 17.9653 17.3094 17.3064 17.9972 17.3242 18.8279 17.3275 18.9819 17.3544 19.1344 17.404 19.2802L32.1538 63.6678C32.4322 64.4557 33.2966 64.8686 34.0845 64.5902 34.5156 64.4379 34.8546 64.0989 35.0069 63.6678L40.5575 48.2609 58.0048 65.7082Z" fill="#FFC000" fill-rule="nonzero" fill-opacity="1" transform="matrix(1 0 0 1 1286 1457)"/></g></g></g><rect x="299" y="964" width="173" height="144" fill="#595959" fill-opacity="0.501961"/><rect x="481" y="964" width="174" height="144" fill="#595959" fill-opacity="0.501961"/><rect x="663" y="964" width="174" height="144" fill="#595959" fill-opacity="0.501961"/><rect x="299" y="1116" width="173" height="144" fill="#595959" fill-opacity="0.501961"/><rect x="481" y="1116" width="174" height="144" fill="#595959" fill-opacity="0.501961"/><rect x="663" y="1116" width="174" height="144" fill="#595959" fill-opacity="0.501961"/><rect x="299" y="1266" width="173" height="144" fill="#595959" fill-opacity="0.501961"/><rect x="481" y="1266" width="174" height="144" fill="#595959" fill-opacity="0.501961"/><rect x="663" y="1266" width="174" height="144" fill="#595959" fill-opacity="0.501961"/><rect x="303" y="868" width="174" height="70.0001" fill="#1FC2A7" fill-opacity="1"/><rect x="660" y="868" width="174" height="70.0001" fill="#0BB5DD" fill-opacity="1"/><rect x="482" y="868" width="174" height="70.0001" fill="#2981BE" fill-opacity="1"/><rect x="452" y="1753" width="174" height="144" fill="#595959" fill-opacity="0.501961"/><rect x="634" y="1753" width="174" height="144" fill="#595959" fill-opacity="0.501961"/><rect x="817" y="1753" width="174" height="144" fill="#595959" fill-opacity="0.501961"/><rect x="452" y="1905" width="174" height="144" fill="#595959" fill-opacity="0.501961"/><rect x="634" y="1905" width="174" height="144" fill="#595959" fill-opacity="0.501961"/><rect x="817" y="1905" width="174" height="144" fill="#595959" fill-opacity="0.501961"/><rect x="452" y="2055" width="174" height="144" fill="#595959" fill-opacity="0.501961"/><rect x="634" y="2055" width="174" height="144" fill="#595959" fill-opacity="0.501961"/><rect x="817" y="2055" width="174" height="144" fill="#595959" fill-opacity="0.501961"/><rect x="456" y="1657" width="174" height="70.0001" fill="#1FC2A7" fill-opacity="1"/><rect x="813" y="1657" width="174" height="70.0001" fill="#0BB5DD" fill-opacity="1"/><rect x="635" y="1657" width="174" height="70.0001" fill="#2981BE" fill-opacity="1"/></g></g></svg>