<svg width="2637" height="1421" xmlns="http://www.w3.org/2000/svg" xmlns:xlink="http://www.w3.org/1999/xlink" xml:space="preserve" overflow="hidden"><defs><clipPath id="clip0"><rect x="880" y="780" width="2637" height="1421"/></clipPath></defs><g clip-path="url(#clip0)" transform="translate(-880 -780)"><text font-family="Arial,Arial_MSFontService,sans-serif" font-weight="400" font-size="83" transform="matrix(1 0 0 1 2118.08 1770)">Additional<tspan font-size="83" x="-91.6668" y="99">measurements </tspan><tspan font-size="64" x="1057.23" y="-908">genotype</tspan></text><rect x="3071.5" y="1389.75" width="90.75" height="94.7501" fill="#0BB5DD"/><path d="M3162.25 1389.75 3192.5 1359.5 3192.5 1454.25 3162.25 1484.5Z" fill="#0992B2" fill-rule="evenodd"/><path d="M3071.5 1389.75 3101.75 1359.5 3192.5 1359.5 3162.25 1389.75Z" fill="#3BC4E4" fill-rule="evenodd"/><path d="M3071.5 1389.75 3101.75 1359.5 3192.5 1359.5 3192.5 1454.25 3162.25 1484.5 3071.5 1484.5ZM3071.5 1389.75 3162.25 1389.75 3192.5 1359.5M3162.25 1389.75 3162.25 1484.5" stroke="#0684A2" stroke-width="9.16667" stroke-miterlimit="8" fill="none" fill-rule="evenodd"/><rect x="3175.5" y="1389.75" width="90.75" height="94.7501" fill="#0BB5DD"/><path d="M3266.25 1389.75 3296.5 1359.5 3296.5 1454.25 3266.25 1484.5Z" fill="#0992B2" fill-rule="evenodd"/><path d="M3175.5 1389.75 3205.75 1359.5 3296.5 1359.5 3266.25 1389.75Z" fill="#3BC4E4" fill-rule="evenodd"/><path d="M3175.5 1389.75 3205.75 1359.5 3296.5 1359.5 3296.5 1454.25 3266.25 1484.5 3175.5 1484.5ZM3175.5 1389.75 3266.25 1389.75 3296.5 1359.5M3266.25 1389.75 3266.25 1484.5" stroke="#0684A2" stroke-width="9.16667" stroke-miterlimit="8" fill="none" fill-rule="evenodd"/><rect x="3279.5" y="1389.75" width="90.75" height="94.7501" fill="#0BB5DD"/><path d="M3370.25 1389.75 3400.5 1359.5 3400.5 1454.25 3370.25 1484.5Z" fill="#0992B2" fill-rule="evenodd"/><path d="M3279.5 1389.75 3309.75 1359.5 3400.5 1359.5 3370.25 1389.75Z" fill="#3BC4E4" fill-rule="evenodd"/><path d="M3279.5 1389.75 3309.75 1359.5 3400.5 1359.5 3400.5 1454.25 3370.25 1484.5 3279.5 1484.5ZM3279.5 1389.75 3370.25 1389.75 3400.5 1359.5M3370.25 1389.75 3370.25 1484.5" stroke="#0684A2" stroke-width="9.16667" stroke-miterlimit="8" fill="none" fill-rule="evenodd"/><rect x="3383.5" y="1389.75" width="90.75" height="94.7501" fill="#0BB5DD"/><path d="M3474.25 1389.75 3504.5 1359.5 3504.5 1454.25 3474.25 1484.5Z" fill="#0992B2" fill-rule="evenodd"/><path d="M3383.5 1389.75 3413.75 1359.5 3504.5 1359.5 3474.25 1389.75Z" fill="#3BC4E4" fill-rule="evenodd"/><path d="M3383.5 1389.75 3413.75 1359.5 3504.5 1359.5 3504.5 1454.25 3474.25 1484.5 3383.5 1484.5ZM3383.5 1389.75 3474.25 1389.75 3504.5 1359.5M3474.25 1389.75 3474.25 1484.5" stroke="#0684A2" stroke-width="9.16667" stroke-miterlimit="8" fill="none" fill-rule="evenodd"/><rect x="3007.5" y="1449.75" width="90.75" height="93.7501" fill="#0BB5DD"/><path d="M3098.25 1449.75 3128.5 1419.5 3128.5 1513.25 3098.25 1543.5Z" fill="#0992B2" fill-rule="evenodd"/><path d="M3007.5 1449.75 3037.75 1419.5 3128.5 1419.5 3098.25 1449.75Z" fill="#3BC4E4" fill-rule="evenodd"/><path d="M3007.5 1449.75 3037.75 1419.5 3128.5 1419.5 3128.5 1513.25 3098.25 1543.5 3007.5 1543.5ZM3007.5 1449.75 3098.25 1449.75 3128.5 1419.5M3098.25 1449.75 3098.25 1543.5" stroke="#0684A2" stroke-width="9.16667" stroke-miterlimit="8" fill="none" fill-rule="evenodd"/><rect x="3112.5" y="1449.5" width="90" height="94.0001" fill="#0BB5DD"/><path d="M3202.5 1449.5 3232.5 1419.5 3232.5 1513.5 3202.5 1543.5Z" fill="#0992B2" fill-rule="evenodd"/><path d="M3112.5 1449.5 3142.5 1419.5 3232.5 1419.5 3202.5 1449.5Z" fill="#3BC4E4" fill-rule="evenodd"/><path d="M3112.5 1449.5 3142.5 1419.5 3232.5 1419.5 3232.5 1513.5 3202.5 1543.5 3112.5 1543.5ZM3112.5 1449.5 3202.5 1449.5 3232.5 1419.5M3202.5 1449.5 3202.5 1543.5" stroke="#0684A2" stroke-width="9.16667" stroke-miterlimit="8" fill="none" fill-rule="evenodd"/><rect x="3216.5" y="1449.5" width="90" height="94.0001" fill="#0BB5DD"/><path d="M3306.5 1449.5 3336.5 1419.5 3336.5 1513.5 3306.5 1543.5Z" fill="#0992B2" fill-rule="evenodd"/><path d="M3216.5 1449.5 3246.5 1419.5 3336.5 1419.5 3306.5 1449.5Z" fill="#3BC4E4" fill-rule="evenodd"/><path d="M3216.5 1449.5 3246.5 1419.5 3336.5 1419.5 3336.5 1513.5 3306.5 1543.5 3216.5 1543.5ZM3216.5 1449.5 3306.5 1449.5 3336.5 1419.5M3306.5 1449.5 3306.5 1543.5" stroke="#0684A2" stroke-width="9.16667" stroke-miterlimit="8" fill="none" fill-rule="evenodd"/><rect x="3320.5" y="1449.75" width="90.75" height="93.7501" fill="#0BB5DD"/><path d="M3411.25 1449.75 3441.5 1419.5 3441.5 1513.25 3411.25 1543.5Z" fill="#0992B2" fill-rule="evenodd"/><path d="M3320.5 1449.75 3350.75 1419.5 3441.5 1419.5 3411.25 1449.75Z" fill="#3BC4E4" fill-rule="evenodd"/><path d="M3320.5 1449.75 3350.75 1419.5 3441.5 1419.5 3441.5 1513.25 3411.25 1543.5 3320.5 1543.5ZM3320.5 1449.75 3411.25 1449.75 3441.5 1419.5M3411.25 1449.75 3411.25 1543.5" stroke="#0684A2" stroke-width="9.16667" stroke-miterlimit="8" fill="none" fill-rule="evenodd"/><rect x="2949.5" y="1508.75" width="90.75" height="94.7501" fill="#1FC2A7"/><path d="M3040.25 1508.75 3070.5 1478.5 3070.5 1573.25 3040.25 1603.5Z" fill="#199C86" fill-rule="evenodd"/><path d="M2949.5 1508.75 2979.75 1478.5 3070.5 1478.5 3040.25 1508.75Z" fill="#4BCEB8" fill-rule="evenodd"/><path d="M2949.5 1508.75 2979.75 1478.5 3070.5 1478.5 3070.5 1573.25 3040.25 1603.5 2949.5 1603.5ZM2949.5 1508.75 3040.25 1508.75 3070.5 1478.5M3040.25 1508.75 3040.25 1603.5" stroke="#148E7A" stroke-width="9.16667" stroke-miterlimit="8" fill="none" fill-rule="evenodd"/><rect x="3054.5" y="1508.5" width="90" height="95.0001" fill="#1FC2A7"/><path d="M3144.5 1508.5 3174.5 1478.5 3174.5 1573.5 3144.5 1603.5Z" fill="#199C86" fill-rule="evenodd"/><path d="M3054.5 1508.5 3084.5 1478.5 3174.5 1478.5 3144.5 1508.5Z" fill="#4BCEB8" fill-rule="evenodd"/><path d="M3054.5 1508.5 3084.5 1478.5 3174.5 1478.5 3174.5 1573.5 3144.5 1603.5 3054.5 1603.5ZM3054.5 1508.5 3144.5 1508.5 3174.5 1478.5M3144.5 1508.5 3144.5 1603.5" stroke="#148E7A" stroke-width="9.16667" stroke-miterlimit="8" fill="none" fill-rule="evenodd"/><rect x="3158.5" y="1508.5" width="90" height="95.0001" fill="#2D3E50"/><path d="M3248.5 1508.5 3278.5 1478.5 3278.5 1573.5 3248.5 1603.5Z" fill="#243240" fill-rule="evenodd"/><path d="M3158.5 1508.5 3188.5 1478.5 3278.5 1478.5 3248.5 1508.5Z" fill="#566472" fill-rule="evenodd"/><path d="M3158.5 1508.5 3188.5 1478.5 3278.5 1478.5 3278.5 1573.5 3248.5 1603.5 3158.5 1603.5ZM3158.5 1508.5 3248.5 1508.5 3278.5 1478.5M3248.5 1508.5 3248.5 1603.5" stroke="#1E2B38" stroke-width="9.16667" stroke-miterlimit="8" fill="none" fill-rule="evenodd"/><rect x="3262.5" y="1508.75" width="90.75" height="94.7501" fill="#2D3E50"/><path d="M3353.25 1508.75 3383.5 1478.5 3383.5 1573.25 3353.25 1603.5Z" fill="#243240" fill-rule="evenodd"/><path d="M3262.5 1508.75 3292.75 1478.5 3383.5 1478.5 3353.25 1508.75Z" fill="#566472" fill-rule="evenodd"/><path d="M3262.5 1508.75 3292.75 1478.5 3383.5 1478.5 3383.5 1573.25 3353.25 1603.5 3262.5 1603.5ZM3262.5 1508.75 3353.25 1508.75 3383.5 1478.5M3353.25 1508.75 3353.25 1603.5" stroke="#1E2B38" stroke-width="9.16667" stroke-miterlimit="8" fill="none" fill-rule="evenodd"/><rect x="3073.5" y="1275.75" width="90.75" height="94.7501" fill="#0BB5DD"/><path d="M3164.25 1275.75 3194.5 1245.5 3194.5 1340.25 3164.25 1370.5Z" fill="#0992B2" fill-rule="evenodd"/><path d="M3073.5 1275.75 3103.75 1245.5 3194.5 1245.5 3164.25 1275.75Z" fill="#3BC4E4" fill-rule="evenodd"/><path d="M3073.5 1275.75 3103.75 1245.5 3194.5 1245.5 3194.5 1340.25 3164.25 1370.5 3073.5 1370.5ZM3073.5 1275.75 3164.25 1275.75 3194.5 1245.5M3164.25 1275.75 3164.25 1370.5" stroke="#0684A2" stroke-width="9.16667" stroke-miterlimit="8" fill="none" fill-rule="evenodd"/><rect x="3177.5" y="1275.75" width="90.75" height="94.7501" fill="#0BB5DD"/><path d="M3268.25 1275.75 3298.5 1245.5 3298.5 1340.25 3268.25 1370.5Z" fill="#0992B2" fill-rule="evenodd"/><path d="M3177.5 1275.75 3207.75 1245.5 3298.5 1245.5 3268.25 1275.75Z" fill="#3BC4E4" fill-rule="evenodd"/><path d="M3177.5 1275.75 3207.75 1245.5 3298.5 1245.5 3298.5 1340.25 3268.25 1370.5 3177.5 1370.5ZM3177.5 1275.75 3268.25 1275.75 3298.5 1245.5M3268.25 1275.75 3268.25 1370.5" stroke="#0684A2" stroke-width="9.16667" stroke-miterlimit="8" fill="none" fill-rule="evenodd"/><rect x="3281.5" y="1275.75" width="90.75" height="94.7501" fill="#0BB5DD"/><path d="M3372.25 1275.75 3402.5 1245.5 3402.5 1340.25 3372.25 1370.5Z" fill="#0992B2" fill-rule="evenodd"/><path d="M3281.5 1275.75 3311.75 1245.5 3402.5 1245.5 3372.25 1275.75Z" fill="#3BC4E4" fill-rule="evenodd"/><path d="M3281.5 1275.75 3311.75 1245.5 3402.5 1245.5 3402.5 1340.25 3372.25 1370.5 3281.5 1370.5ZM3281.5 1275.75 3372.25 1275.75 3402.5 1245.5M3372.25 1275.75 3372.25 1370.5" stroke="#0684A2" stroke-width="9.16667" stroke-miterlimit="8" fill="none" fill-rule="evenodd"/><rect x="3385.5" y="1275.75" width="90.75" height="94.7501" fill="#0BB5DD"/><path d="M3476.25 1275.75 3506.5 1245.5 3506.5 1340.25 3476.25 1370.5Z" fill="#0992B2" fill-rule="evenodd"/><path d="M3385.5 1275.75 3415.75 1245.5 3506.5 1245.5 3476.25 1275.75Z" fill="#3BC4E4" fill-rule="evenodd"/><path d="M3385.5 1275.75 3415.75 1245.5 3506.5 1245.5 3506.5 1340.25 3476.25 1370.5 3385.5 1370.5ZM3385.5 1275.75 3476.25 1275.75 3506.5 1245.5M3476.25 1275.75 3476.25 1370.5" stroke="#0684A2" stroke-width="9.16667" stroke-miterlimit="8" fill="none" fill-rule="evenodd"/><rect x="3009.5" y="1335.75" width="90.75" height="94.7498" fill="#0BB5DD"/><path d="M3100.25 1335.75 3130.5 1305.5 3130.5 1400.25 3100.25 1430.5Z" fill="#0992B2" fill-rule="evenodd"/><path d="M3009.5 1335.75 3039.75 1305.5 3130.5 1305.5 3100.25 1335.75Z" fill="#3BC4E4" fill-rule="evenodd"/><path d="M3009.5 1335.75 3039.75 1305.5 3130.5 1305.5 3130.5 1400.25 3100.25 1430.5 3009.5 1430.5ZM3009.5 1335.75 3100.25 1335.75 3130.5 1305.5M3100.25 1335.75 3100.25 1430.5" stroke="#0684A2" stroke-width="9.16667" stroke-miterlimit="8" fill="none" fill-rule="evenodd"/><rect x="3114.5" y="1335.5" width="90" height="94.9998" fill="#0BB5DD"/><path d="M3204.5 1335.5 3234.5 1305.5 3234.5 1400.5 3204.5 1430.5Z" fill="#0992B2" fill-rule="evenodd"/><path d="M3114.5 1335.5 3144.5 1305.5 3234.5 1305.5 3204.5 1335.5Z" fill="#3BC4E4" fill-rule="evenodd"/><path d="M3114.5 1335.5 3144.5 1305.5 3234.5 1305.5 3234.5 1400.5 3204.5 1430.5 3114.5 1430.5ZM3114.5 1335.5 3204.5 1335.5 3234.5 1305.5M3204.5 1335.5 3204.5 1430.5" stroke="#0684A2" stroke-width="9.16667" stroke-miterlimit="8" fill="none" fill-rule="evenodd"/><rect x="3218.5" y="1335.5" width="90" height="94.9998" fill="#0BB5DD"/><path d="M3308.5 1335.5 3338.5 1305.5 3338.5 1400.5 3308.5 1430.5Z" fill="#0992B2" fill-rule="evenodd"/><path d="M3218.5 1335.5 3248.5 1305.5 3338.5 1305.5 3308.5 1335.5Z" fill="#3BC4E4" fill-rule="evenodd"/><path d="M3218.5 1335.5 3248.5 1305.5 3338.5 1305.5 3338.5 1400.5 3308.5 1430.5 3218.5 1430.5ZM3218.5 1335.5 3308.5 1335.5 3338.5 1305.5M3308.5 1335.5 3308.5 1430.5" stroke="#0684A2" stroke-width="9.16667" stroke-miterlimit="8" fill="none" fill-rule="evenodd"/><rect x="3322.5" y="1335.75" width="90.75" height="94.7498" fill="#0BB5DD"/><path d="M3413.25 1335.75 3443.5 1305.5 3443.5 1400.25 3413.25 1430.5Z" fill="#0992B2" fill-rule="evenodd"/><path d="M3322.5 1335.75 3352.75 1305.5 3443.5 1305.5 3413.25 1335.75Z" fill="#3BC4E4" fill-rule="evenodd"/><path d="M3322.5 1335.75 3352.75 1305.5 3443.5 1305.5 3443.5 1400.25 3413.25 1430.5 3322.5 1430.5ZM3322.5 1335.75 3413.25 1335.75 3443.5 1305.5M3413.25 1335.75 3413.25 1430.5" stroke="#0684A2" stroke-width="9.16667" stroke-miterlimit="8" fill="none" fill-rule="evenodd"/><rect x="2951.5" y="1395.75" width="90.75" height="93.7501" fill="#1FC2A7"/><path d="M3042.25 1395.75 3072.5 1365.5 3072.5 1459.25 3042.25 1489.5Z" fill="#199C86" fill-rule="evenodd"/><path d="M2951.5 1395.75 2981.75 1365.5 3072.5 1365.5 3042.25 1395.75Z" fill="#4BCEB8" fill-rule="evenodd"/><path d="M2951.5 1395.75 2981.75 1365.5 3072.5 1365.5 3072.5 1459.25 3042.25 1489.5 2951.5 1489.5ZM2951.5 1395.75 3042.25 1395.75 3072.5 1365.5M3042.25 1395.75 3042.25 1489.5" stroke="#148E7A" stroke-width="9.16667" stroke-miterlimit="8" fill="none" fill-rule="evenodd"/><rect x="3056.5" y="1395.5" width="90" height="94.0001" fill="#1FC2A7"/><path d="M3146.5 1395.5 3176.5 1365.5 3176.5 1459.5 3146.5 1489.5Z" fill="#199C86" fill-rule="evenodd"/><path d="M3056.5 1395.5 3086.5 1365.5 3176.5 1365.5 3146.5 1395.5Z" fill="#4BCEB8" fill-rule="evenodd"/><path d="M3056.5 1395.5 3086.5 1365.5 3176.5 1365.5 3176.5 1459.5 3146.5 1489.5 3056.5 1489.5ZM3056.5 1395.5 3146.5 1395.5 3176.5 1365.5M3146.5 1395.5 3146.5 1489.5" stroke="#148E7A" stroke-width="9.16667" stroke-miterlimit="8" fill="none" fill-rule="evenodd"/><rect x="3160.5" y="1395.5" width="90" height="94.0001" fill="#2D3E50"/><path d="M3250.5 1395.5 3280.5 1365.5 3280.5 1459.5 3250.5 1489.5Z" fill="#243240" fill-rule="evenodd"/><path d="M3160.5 1395.5 3190.5 1365.5 3280.5 1365.5 3250.5 1395.5Z" fill="#566472" fill-rule="evenodd"/><path d="M3160.5 1395.5 3190.5 1365.5 3280.5 1365.5 3280.5 1459.5 3250.5 1489.5 3160.5 1489.5ZM3160.5 1395.5 3250.5 1395.5 3280.5 1365.5M3250.5 1395.5 3250.5 1489.5" stroke="#1E2B38" stroke-width="9.16667" stroke-miterlimit="8" fill="none" fill-rule="evenodd"/><rect x="3264.5" y="1395.75" width="90.75" height="93.7501" fill="#2D3E50"/><path d="M3355.25 1395.75 3385.5 1365.5 3385.5 1459.25 3355.25 1489.5Z" fill="#243240" fill-rule="evenodd"/><path d="M3264.5 1395.75 3294.75 1365.5 3385.5 1365.5 3355.25 1395.75Z" fill="#566472" fill-rule="evenodd"/><path d="M3264.5 1395.75 3294.75 1365.5 3385.5 1365.5 3385.5 1459.25 3355.25 1489.5 3264.5 1489.5ZM3264.5 1395.75 3355.25 1395.75 3385.5 1365.5M3355.25 1395.75 3355.25 1489.5" stroke="#1E2B38" stroke-width="9.16667" stroke-miterlimit="8" fill="none" fill-rule="evenodd"/><rect x="3073.5" y="1160.75" width="90.7498" height="93.7499" fill="#0BB5DD"/><path d="M3164.25 1160.75 3194.5 1130.5 3194.5 1224.25 3164.25 1254.5Z" fill="#0992B2" fill-rule="evenodd"/><path d="M3073.5 1160.75 3103.75 1130.5 3194.5 1130.5 3164.25 1160.75Z" fill="#3BC4E4" fill-rule="evenodd"/><path d="M3073.5 1160.75 3103.75 1130.5 3194.5 1130.5 3194.5 1224.25 3164.25 1254.5 3073.5 1254.5ZM3073.5 1160.75 3164.25 1160.75 3194.5 1130.5M3164.25 1160.75 3164.25 1254.5" stroke="#0684A2" stroke-width="9.16667" stroke-miterlimit="8" fill="none" fill-rule="evenodd"/><rect x="3177.5" y="1160.75" width="90.7498" height="93.7499" fill="#0BB5DD"/><path d="M3268.25 1160.75 3298.5 1130.5 3298.5 1224.25 3268.25 1254.5Z" fill="#0992B2" fill-rule="evenodd"/><path d="M3177.5 1160.75 3207.75 1130.5 3298.5 1130.5 3268.25 1160.75Z" fill="#3BC4E4" fill-rule="evenodd"/><path d="M3177.5 1160.75 3207.75 1130.5 3298.5 1130.5 3298.5 1224.25 3268.25 1254.5 3177.5 1254.5ZM3177.5 1160.75 3268.25 1160.75 3298.5 1130.5M3268.25 1160.75 3268.25 1254.5" stroke="#0684A2" stroke-width="9.16667" stroke-miterlimit="8" fill="none" fill-rule="evenodd"/><rect x="3281.5" y="1160.75" width="90.7498" height="93.7499" fill="#0BB5DD"/><path d="M3372.25 1160.75 3402.5 1130.5 3402.5 1224.25 3372.25 1254.5Z" fill="#0992B2" fill-rule="evenodd"/><path d="M3281.5 1160.75 3311.75 1130.5 3402.5 1130.5 3372.25 1160.75Z" fill="#3BC4E4" fill-rule="evenodd"/><path d="M3281.5 1160.75 3311.75 1130.5 3402.5 1130.5 3402.5 1224.25 3372.25 1254.5 3281.5 1254.5ZM3281.5 1160.75 3372.25 1160.75 3402.5 1130.5M3372.25 1160.75 3372.25 1254.5" stroke="#0684A2" stroke-width="9.16667" stroke-miterlimit="8" fill="none" fill-rule="evenodd"/><rect x="3386.5" y="1160.5" width="89.9998" height="93.9998" fill="#0BB5DD"/><path d="M3476.5 1160.5 3506.5 1130.5 3506.5 1224.5 3476.5 1254.5Z" fill="#0992B2" fill-rule="evenodd"/><path d="M3386.5 1160.5 3416.5 1130.5 3506.5 1130.5 3476.5 1160.5Z" fill="#3BC4E4" fill-rule="evenodd"/><path d="M3386.5 1160.5 3416.5 1130.5 3506.5 1130.5 3506.5 1224.5 3476.5 1254.5 3386.5 1254.5ZM3386.5 1160.5 3476.5 1160.5 3506.5 1130.5M3476.5 1160.5 3476.5 1254.5" stroke="#0684A2" stroke-width="9.16667" stroke-miterlimit="8" fill="none" fill-rule="evenodd"/><rect x="3010.5" y="1219.5" width="90" height="95.0001" fill="#0BB5DD"/><path d="M3100.5 1219.5 3130.5 1189.5 3130.5 1284.5 3100.5 1314.5Z" fill="#0992B2" fill-rule="evenodd"/><path d="M3010.5 1219.5 3040.5 1189.5 3130.5 1189.5 3100.5 1219.5Z" fill="#3BC4E4" fill-rule="evenodd"/><path d="M3010.5 1219.5 3040.5 1189.5 3130.5 1189.5 3130.5 1284.5 3100.5 1314.5 3010.5 1314.5ZM3010.5 1219.5 3100.5 1219.5 3130.5 1189.5M3100.5 1219.5 3100.5 1314.5" stroke="#0684A2" stroke-width="9.16667" stroke-miterlimit="8" fill="none" fill-rule="evenodd"/><rect x="3114.5" y="1219.5" width="90" height="95.0001" fill="#0BB5DD"/><path d="M3204.5 1219.5 3234.5 1189.5 3234.5 1284.5 3204.5 1314.5Z" fill="#0992B2" fill-rule="evenodd"/><path d="M3114.5 1219.5 3144.5 1189.5 3234.5 1189.5 3204.5 1219.5Z" fill="#3BC4E4" fill-rule="evenodd"/><path d="M3114.5 1219.5 3144.5 1189.5 3234.5 1189.5 3234.5 1284.5 3204.5 1314.5 3114.5 1314.5ZM3114.5 1219.5 3204.5 1219.5 3234.5 1189.5M3204.5 1219.5 3204.5 1314.5" stroke="#0684A2" stroke-width="9.16667" stroke-miterlimit="8" fill="none" fill-rule="evenodd"/><rect x="3218.5" y="1219.75" width="90.75" height="94.7501" fill="#0BB5DD"/><path d="M3309.25 1219.75 3339.5 1189.5 3339.5 1284.25 3309.25 1314.5Z" fill="#0992B2" fill-rule="evenodd"/><path d="M3218.5 1219.75 3248.75 1189.5 3339.5 1189.5 3309.25 1219.75Z" fill="#3BC4E4" fill-rule="evenodd"/><path d="M3218.5 1219.75 3248.75 1189.5 3339.5 1189.5 3339.5 1284.25 3309.25 1314.5 3218.5 1314.5ZM3218.5 1219.75 3309.25 1219.75 3339.5 1189.5M3309.25 1219.75 3309.25 1314.5" stroke="#0684A2" stroke-width="9.16667" stroke-miterlimit="8" fill="none" fill-rule="evenodd"/><rect x="3322.5" y="1219.75" width="90.75" height="94.7501" fill="#0BB5DD"/><path d="M3413.25 1219.75 3443.5 1189.5 3443.5 1284.25 3413.25 1314.5Z" fill="#0992B2" fill-rule="evenodd"/><path d="M3322.5 1219.75 3352.75 1189.5 3443.5 1189.5 3413.25 1219.75Z" fill="#3BC4E4" fill-rule="evenodd"/><path d="M3322.5 1219.75 3352.75 1189.5 3443.5 1189.5 3443.5 1284.25 3413.25 1314.5 3322.5 1314.5ZM3322.5 1219.75 3413.25 1219.75 3443.5 1189.5M3413.25 1219.75 3413.25 1314.5" stroke="#0684A2" stroke-width="9.16667" stroke-miterlimit="8" fill="none" fill-rule="evenodd"/><rect x="2952.5" y="1279.5" width="90" height="95.0001" fill="#1FC2A7"/><path d="M3042.5 1279.5 3072.5 1249.5 3072.5 1344.5 3042.5 1374.5Z" fill="#199C86" fill-rule="evenodd"/><path d="M2952.5 1279.5 2982.5 1249.5 3072.5 1249.5 3042.5 1279.5Z" fill="#4BCEB8" fill-rule="evenodd"/><path d="M2952.5 1279.5 2982.5 1249.5 3072.5 1249.5 3072.5 1344.5 3042.5 1374.5 2952.5 1374.5ZM2952.5 1279.5 3042.5 1279.5 3072.5 1249.5M3042.5 1279.5 3042.5 1374.5" stroke="#148E7A" stroke-width="9.16667" stroke-miterlimit="8" fill="none" fill-rule="evenodd"/><rect x="3056.5" y="1279.5" width="90" height="95.0001" fill="#1FC2A7"/><path d="M3146.5 1279.5 3176.5 1249.5 3176.5 1344.5 3146.5 1374.5Z" fill="#199C86" fill-rule="evenodd"/><path d="M3056.5 1279.5 3086.5 1249.5 3176.5 1249.5 3146.5 1279.5Z" fill="#4BCEB8" fill-rule="evenodd"/><path d="M3056.5 1279.5 3086.5 1249.5 3176.5 1249.5 3176.5 1344.5 3146.5 1374.5 3056.5 1374.5ZM3056.5 1279.5 3146.5 1279.5 3176.5 1249.5M3146.5 1279.5 3146.5 1374.5" stroke="#148E7A" stroke-width="9.16667" stroke-miterlimit="8" fill="none" fill-rule="evenodd"/><rect x="3160.5" y="1279.75" width="90.75" height="94.7501" fill="#2D3E50"/><path d="M3251.25 1279.75 3281.5 1249.5 3281.5 1344.25 3251.25 1374.5Z" fill="#243240" fill-rule="evenodd"/><path d="M3160.5 1279.75 3190.75 1249.5 3281.5 1249.5 3251.25 1279.75Z" fill="#566472" fill-rule="evenodd"/><path d="M3160.5 1279.75 3190.75 1249.5 3281.5 1249.5 3281.5 1344.25 3251.25 1374.5 3160.5 1374.5ZM3160.5 1279.75 3251.25 1279.75 3281.5 1249.5M3251.25 1279.75 3251.25 1374.5" stroke="#1E2B38" stroke-width="9.16667" stroke-miterlimit="8" fill="none" fill-rule="evenodd"/><rect x="3264.5" y="1279.75" width="90.75" height="94.7501" fill="#2D3E50"/><path d="M3355.25 1279.75 3385.5 1249.5 3385.5 1344.25 3355.25 1374.5Z" fill="#243240" fill-rule="evenodd"/><path d="M3264.5 1279.75 3294.75 1249.5 3385.5 1249.5 3355.25 1279.75Z" fill="#566472" fill-rule="evenodd"/><path d="M3264.5 1279.75 3294.75 1249.5 3385.5 1249.5 3385.5 1344.25 3355.25 1374.5 3264.5 1374.5ZM3264.5 1279.75 3355.25 1279.75 3385.5 1249.5M3355.25 1279.75 3355.25 1374.5" stroke="#1E2B38" stroke-width="9.16667" stroke-miterlimit="8" fill="none" fill-rule="evenodd"/><rect x="3075.5" y="1042.75" width="90.75" height="93.7501" fill="#0BB5DD"/><path d="M3166.25 1042.75 3196.5 1012.5 3196.5 1106.25 3166.25 1136.5Z" fill="#0992B2" fill-rule="evenodd"/><path d="M3075.5 1042.75 3105.75 1012.5 3196.5 1012.5 3166.25 1042.75Z" fill="#3BC4E4" fill-rule="evenodd"/><path d="M3075.5 1042.75 3105.75 1012.5 3196.5 1012.5 3196.5 1106.25 3166.25 1136.5 3075.5 1136.5ZM3075.5 1042.75 3166.25 1042.75 3196.5 1012.5M3166.25 1042.75 3166.25 1136.5" stroke="#0684A2" stroke-width="9.16667" stroke-miterlimit="8" fill="none" fill-rule="evenodd"/><rect x="3179.5" y="1042.75" width="90.75" height="93.7501" fill="#0BB5DD"/><path d="M3270.25 1042.75 3300.5 1012.5 3300.5 1106.25 3270.25 1136.5Z" fill="#0992B2" fill-rule="evenodd"/><path d="M3179.5 1042.75 3209.75 1012.5 3300.5 1012.5 3270.25 1042.75Z" fill="#3BC4E4" fill-rule="evenodd"/><path d="M3179.5 1042.75 3209.75 1012.5 3300.5 1012.5 3300.5 1106.25 3270.25 1136.5 3179.5 1136.5ZM3179.5 1042.75 3270.25 1042.75 3300.5 1012.5M3270.25 1042.75 3270.25 1136.5" stroke="#0684A2" stroke-width="9.16667" stroke-miterlimit="8" fill="none" fill-rule="evenodd"/><rect x="3283.5" y="1042.75" width="90.75" height="93.7501" fill="#0BB5DD"/><path d="M3374.25 1042.75 3404.5 1012.5 3404.5 1106.25 3374.25 1136.5Z" fill="#0992B2" fill-rule="evenodd"/><path d="M3283.5 1042.75 3313.75 1012.5 3404.5 1012.5 3374.25 1042.75Z" fill="#3BC4E4" fill-rule="evenodd"/><path d="M3283.5 1042.75 3313.75 1012.5 3404.5 1012.5 3404.5 1106.25 3374.25 1136.5 3283.5 1136.5ZM3283.5 1042.75 3374.25 1042.75 3404.5 1012.5M3374.25 1042.75 3374.25 1136.5" stroke="#0684A2" stroke-width="9.16667" stroke-miterlimit="8" fill="none" fill-rule="evenodd"/><rect x="3387.5" y="1042.75" width="90.75" height="93.7501" fill="#0BB5DD"/><path d="M3478.25 1042.75 3508.5 1012.5 3508.5 1106.25 3478.25 1136.5Z" fill="#0992B2" fill-rule="evenodd"/><path d="M3387.5 1042.75 3417.75 1012.5 3508.5 1012.5 3478.25 1042.75Z" fill="#3BC4E4" fill-rule="evenodd"/><path d="M3387.5 1042.75 3417.75 1012.5 3508.5 1012.5 3508.5 1106.25 3478.25 1136.5 3387.5 1136.5ZM3387.5 1042.75 3478.25 1042.75 3508.5 1012.5M3478.25 1042.75 3478.25 1136.5" stroke="#0684A2" stroke-width="9.16667" stroke-miterlimit="8" fill="none" fill-rule="evenodd"/><rect x="3011.5" y="1101.75" width="90.75" height="94.7501" fill="#0BB5DD"/><path d="M3102.25 1101.75 3132.5 1071.5 3132.5 1166.25 3102.25 1196.5Z" fill="#0992B2" fill-rule="evenodd"/><path d="M3011.5 1101.75 3041.75 1071.5 3132.5 1071.5 3102.25 1101.75Z" fill="#3BC4E4" fill-rule="evenodd"/><path d="M3011.5 1101.75 3041.75 1071.5 3132.5 1071.5 3132.5 1166.25 3102.25 1196.5 3011.5 1196.5ZM3011.5 1101.75 3102.25 1101.75 3132.5 1071.5M3102.25 1101.75 3102.25 1196.5" stroke="#0684A2" stroke-width="9.16667" stroke-miterlimit="8" fill="none" fill-rule="evenodd"/><rect x="3116.5" y="1101.5" width="90" height="95.0001" fill="#0BB5DD"/><path d="M3206.5 1101.5 3236.5 1071.5 3236.5 1166.5 3206.5 1196.5Z" fill="#0992B2" fill-rule="evenodd"/><path d="M3116.5 1101.5 3146.5 1071.5 3236.5 1071.5 3206.5 1101.5Z" fill="#3BC4E4" fill-rule="evenodd"/><path d="M3116.5 1101.5 3146.5 1071.5 3236.5 1071.5 3236.5 1166.5 3206.5 1196.5 3116.5 1196.5ZM3116.5 1101.5 3206.5 1101.5 3236.5 1071.5M3206.5 1101.5 3206.5 1196.5" stroke="#0684A2" stroke-width="9.16667" stroke-miterlimit="8" fill="none" fill-rule="evenodd"/><rect x="3220.5" y="1101.5" width="90" height="95.0001" fill="#0BB5DD"/><path d="M3310.5 1101.5 3340.5 1071.5 3340.5 1166.5 3310.5 1196.5Z" fill="#0992B2" fill-rule="evenodd"/><path d="M3220.5 1101.5 3250.5 1071.5 3340.5 1071.5 3310.5 1101.5Z" fill="#3BC4E4" fill-rule="evenodd"/><path d="M3220.5 1101.5 3250.5 1071.5 3340.5 1071.5 3340.5 1166.5 3310.5 1196.5 3220.5 1196.5ZM3220.5 1101.5 3310.5 1101.5 3340.5 1071.5M3310.5 1101.5 3310.5 1196.5" stroke="#0684A2" stroke-width="9.16667" stroke-miterlimit="8" fill="none" fill-rule="evenodd"/><rect x="3324.5" y="1101.75" width="90.75" height="94.7501" fill="#0BB5DD"/><path d="M3415.25 1101.75 3445.5 1071.5 3445.5 1166.25 3415.25 1196.5Z" fill="#0992B2" fill-rule="evenodd"/><path d="M3324.5 1101.75 3354.75 1071.5 3445.5 1071.5 3415.25 1101.75Z" fill="#3BC4E4" fill-rule="evenodd"/><path d="M3324.5 1101.75 3354.75 1071.5 3445.5 1071.5 3445.5 1166.25 3415.25 1196.5 3324.5 1196.5ZM3324.5 1101.75 3415.25 1101.75 3445.5 1071.5M3415.25 1101.75 3415.25 1196.5" stroke="#0684A2" stroke-width="9.16667" stroke-miterlimit="8" fill="none" fill-rule="evenodd"/><rect x="2953.5" y="1161.75" width="90.75" height="94.7498" fill="#1FC2A7"/><path d="M3044.25 1161.75 3074.5 1131.5 3074.5 1226.25 3044.25 1256.5Z" fill="#199C86" fill-rule="evenodd"/><path d="M2953.5 1161.75 2983.75 1131.5 3074.5 1131.5 3044.25 1161.75Z" fill="#4BCEB8" fill-rule="evenodd"/><path d="M2953.5 1161.75 2983.75 1131.5 3074.5 1131.5 3074.5 1226.25 3044.25 1256.5 2953.5 1256.5ZM2953.5 1161.75 3044.25 1161.75 3074.5 1131.5M3044.25 1161.75 3044.25 1256.5" stroke="#148E7A" stroke-width="9.16667" stroke-miterlimit="8" fill="none" fill-rule="evenodd"/><rect x="3058.5" y="1161.5" width="90" height="94.9998" fill="#1FC2A7"/><path d="M3148.5 1161.5 3178.5 1131.5 3178.5 1226.5 3148.5 1256.5Z" fill="#199C86" fill-rule="evenodd"/><path d="M3058.5 1161.5 3088.5 1131.5 3178.5 1131.5 3148.5 1161.5Z" fill="#4BCEB8" fill-rule="evenodd"/><path d="M3058.5 1161.5 3088.5 1131.5 3178.5 1131.5 3178.5 1226.5 3148.5 1256.5 3058.5 1256.5ZM3058.5 1161.5 3148.5 1161.5 3178.5 1131.5M3148.5 1161.5 3148.5 1256.5" stroke="#148E7A" stroke-width="9.16667" stroke-miterlimit="8" fill="none" fill-rule="evenodd"/><rect x="3162.5" y="1161.5" width="90" height="94.9998" fill="#2D3E50"/><path d="M3252.5 1161.5 3282.5 1131.5 3282.5 1226.5 3252.5 1256.5Z" fill="#243240" fill-rule="evenodd"/><path d="M3162.5 1161.5 3192.5 1131.5 3282.5 1131.5 3252.5 1161.5Z" fill="#566472" fill-rule="evenodd"/><path d="M3162.5 1161.5 3192.5 1131.5 3282.5 1131.5 3282.5 1226.5 3252.5 1256.5 3162.5 1256.5ZM3162.5 1161.5 3252.5 1161.5 3282.5 1131.5M3252.5 1161.5 3252.5 1256.5" stroke="#1E2B38" stroke-width="9.16667" stroke-miterlimit="8" fill="none" fill-rule="evenodd"/><rect x="3266.5" y="1161.75" width="90.75" height="94.7498" fill="#2D3E50"/><path d="M3357.25 1161.75 3387.5 1131.5 3387.5 1226.25 3357.25 1256.5Z" fill="#243240" fill-rule="evenodd"/><path d="M3266.5 1161.75 3296.75 1131.5 3387.5 1131.5 3357.25 1161.75Z" fill="#566472" fill-rule="evenodd"/><path d="M3266.5 1161.75 3296.75 1131.5 3387.5 1131.5 3387.5 1226.25 3357.25 1256.5 3266.5 1256.5ZM3266.5 1161.75 3357.25 1161.75 3387.5 1131.5M3357.25 1161.75 3357.25 1256.5" stroke="#1E2B38" stroke-width="9.16667" stroke-miterlimit="8" fill="none" fill-rule="evenodd"/><text fill="#FFFFFF" font-family="Arial,Arial_MSFontService,sans-serif" font-weight="400" font-size="41" transform="matrix(1 0 0 1 2974.38 1225)">3.7<tspan font-size="41" x="107.641" y="0">3.2</tspan><tspan font-size="41" x="208.405" y="0">5.9</tspan><tspan font-size="41" x="312.608" y="0">6.1</tspan><tspan font-size="41" x="-1.82739" y="119">0.3</tspan><tspan font-size="41" x="100.874" y="119">0.5</tspan><tspan font-size="41" x="210.233" y="119">7.1</tspan><tspan font-size="41" x="314.436" y="119">7.3</tspan><tspan font-size="41" x="-1.82739" y="234">1.1</tspan><tspan font-size="41" x="102.701" y="234">1.2</tspan><tspan font-size="41" x="206.904" y="234">1.9</tspan><tspan font-size="41" x="312.825" y="234">1.1</tspan><tspan font-size="41" x="-3.65503" y="347">9.9</tspan><tspan font-size="41" x="102.701" y="347">8.7</tspan><tspan font-size="41" x="206.904" y="347">5.9</tspan><tspan font-size="41" x="312.825" y="347">4.9</tspan></text><path d="M3092.5 966.5C3092.5 954.35 3094.14 944.5 3096.17 944.5L3300.33 944.5C3302.36 944.5 3304 934.651 3304 922.5 3304 934.651 3305.64 944.5 3307.67 944.5L3511.83 944.5C3513.86 944.5 3515.5 954.35 3515.5 966.5" stroke="#05B4DD" stroke-width="3.4375" stroke-miterlimit="8" fill="none" fill-rule="evenodd"/><path d="M2909.5 1617.5C2899.56 1617.5 2891.5 1616.16 2891.5 1614.5L2891.5 1421.62C2891.5 1419.96 2883.44 1418.62 2873.5 1418.62 2883.44 1418.62 2891.5 1417.28 2891.5 1415.62L2891.5 1139.5C2891.5 1137.84 2899.56 1136.5 2909.5 1136.5" stroke="#05B4DD" stroke-width="3.4375" stroke-miterlimit="8" fill="none" fill-rule="evenodd"/><text font-family="Arial,Arial_MSFontService,sans-serif" font-weight="400" font-size="64" transform="matrix(1 0 0 1 2595.9 1438)">molecule</text><path d="M2924.23 1089.39C2921.24 1086.62 2919.19 1083.97 2919.65 1083.47L2967.28 1032C2967.74 1031.5 2965.69 1028.85 2962.7 1026.09 2965.69 1028.85 2968.49 1030.69 2968.95 1030.2L3016.58 978.725C3017.04 978.226 3019.84 980.066 3022.83 982.834" stroke="#05B4DD" stroke-width="3.4375" stroke-miterlimit="8" fill="none" fill-rule="evenodd"/><text font-family="Arial,Arial_MSFontService,sans-serif" font-weight="400" font-size="64" transform="matrix(0.698088 -0.716012 0.716012 0.698088 2818.49 1075)">condition</text><path d="M2200.5 1331.25 2350 1331.25 2350 1306.5 2399.5 1356 2350 1405.5 2350 1380.75 2200.5 1380.75Z" stroke="#1E2B38" stroke-width="9.16667" stroke-miterlimit="8" fill="#2D3E50" fill-rule="evenodd"/><rect x="1454.5" y="1508.75" width="90.7501" height="94.7501" fill="#1FC2A7"/><path d="M1545.25 1508.75 1575.5 1478.5 1575.5 1573.25 1545.25 1603.5Z" fill="#199C86" fill-rule="evenodd"/><path d="M1454.5 1508.75 1484.75 1478.5 1575.5 1478.5 1545.25 1508.75Z" fill="#4BCEB8" fill-rule="evenodd"/><path d="M1454.5 1508.75 1484.75 1478.5 1575.5 1478.5 1575.5 1573.25 1545.25 1603.5 1454.5 1603.5ZM1454.5 1508.75 1545.25 1508.75 1575.5 1478.5M1545.25 1508.75 1545.25 1603.5" stroke="#148E7A" stroke-width="9.16667" stroke-miterlimit="8" fill="none" fill-rule="evenodd"/><rect x="1558.5" y="1508.75" width="90.7501" height="94.7501" fill="#1FC2A7"/><path d="M1649.25 1508.75 1679.5 1478.5 1679.5 1573.25 1649.25 1603.5Z" fill="#199C86" fill-rule="evenodd"/><path d="M1558.5 1508.75 1588.75 1478.5 1679.5 1478.5 1649.25 1508.75Z" fill="#4BCEB8" fill-rule="evenodd"/><path d="M1558.5 1508.75 1588.75 1478.5 1679.5 1478.5 1679.5 1573.25 1649.25 1603.5 1558.5 1603.5ZM1558.5 1508.75 1649.25 1508.75 1679.5 1478.5M1649.25 1508.75 1649.25 1603.5" stroke="#148E7A" stroke-width="9.16667" stroke-miterlimit="8" fill="none" fill-rule="evenodd"/><rect x="1663.5" y="1508.5" width="90" height="95.0001" fill="#2D3E50"/><path d="M1753.5 1508.5 1783.5 1478.5 1783.5 1573.5 1753.5 1603.5Z" fill="#243240" fill-rule="evenodd"/><path d="M1663.5 1508.5 1693.5 1478.5 1783.5 1478.5 1753.5 1508.5Z" fill="#566472" fill-rule="evenodd"/><path d="M1663.5 1508.5 1693.5 1478.5 1783.5 1478.5 1783.5 1573.5 1753.5 1603.5 1663.5 1603.5ZM1663.5 1508.5 1753.5 1508.5 1783.5 1478.5M1753.5 1508.5 1753.5 1603.5" stroke="#1E2B38" stroke-width="9.16667" stroke-miterlimit="8" fill="none" fill-rule="evenodd"/><rect x="1767.5" y="1508.5" width="90" height="95.0001" fill="#2D3E50"/><path d="M1857.5 1508.5 1887.5 1478.5 1887.5 1573.5 1857.5 1603.5Z" fill="#243240" fill-rule="evenodd"/><path d="M1767.5 1508.5 1797.5 1478.5 1887.5 1478.5 1857.5 1508.5Z" fill="#566472" fill-rule="evenodd"/><path d="M1767.5 1508.5 1797.5 1478.5 1887.5 1478.5 1887.5 1573.5 1857.5 1603.5 1767.5 1603.5ZM1767.5 1508.5 1857.5 1508.5 1887.5 1478.5M1857.5 1508.5 1857.5 1603.5" stroke="#1E2B38" stroke-width="9.16667" stroke-miterlimit="8" fill="none" fill-rule="evenodd"/><rect x="1455.5" y="1395.5" width="90" height="94.0001" fill="#1FC2A7"/><path d="M1545.5 1395.5 1575.5 1365.5 1575.5 1459.5 1545.5 1489.5Z" fill="#199C86" fill-rule="evenodd"/><path d="M1455.5 1395.5 1485.5 1365.5 1575.5 1365.5 1545.5 1395.5Z" fill="#4BCEB8" fill-rule="evenodd"/><path d="M1455.5 1395.5 1485.5 1365.5 1575.5 1365.5 1575.5 1459.5 1545.5 1489.5 1455.5 1489.5ZM1455.5 1395.5 1545.5 1395.5 1575.5 1365.5M1545.5 1395.5 1545.5 1489.5" stroke="#148E7A" stroke-width="9.16667" stroke-miterlimit="8" fill="none" fill-rule="evenodd"/><rect x="1559.5" y="1395.5" width="90" height="94.0001" fill="#1FC2A7"/><path d="M1649.5 1395.5 1679.5 1365.5 1679.5 1459.5 1649.5 1489.5Z" fill="#199C86" fill-rule="evenodd"/><path d="M1559.5 1395.5 1589.5 1365.5 1679.5 1365.5 1649.5 1395.5Z" fill="#4BCEB8" fill-rule="evenodd"/><path d="M1559.5 1395.5 1589.5 1365.5 1679.5 1365.5 1679.5 1459.5 1649.5 1489.5 1559.5 1489.5ZM1559.5 1395.5 1649.5 1395.5 1679.5 1365.5M1649.5 1395.5 1649.5 1489.5" stroke="#148E7A" stroke-width="9.16667" stroke-miterlimit="8" fill="none" fill-rule="evenodd"/><rect x="1663.5" y="1395.75" width="90.75" height="93.7501" fill="#2D3E50"/><path d="M1754.25 1395.75 1784.5 1365.5 1784.5 1459.25 1754.25 1489.5Z" fill="#243240" fill-rule="evenodd"/><path d="M1663.5 1395.75 1693.75 1365.5 1784.5 1365.5 1754.25 1395.75Z" fill="#566472" fill-rule="evenodd"/><path d="M1663.5 1395.75 1693.75 1365.5 1784.5 1365.5 1784.5 1459.25 1754.25 1489.5 1663.5 1489.5ZM1663.5 1395.75 1754.25 1395.75 1784.5 1365.5M1754.25 1395.75 1754.25 1489.5" stroke="#1E2B38" stroke-width="9.16667" stroke-miterlimit="8" fill="none" fill-rule="evenodd"/><rect x="1767.5" y="1395.75" width="90.75" height="93.7501" fill="#2D3E50"/><path d="M1858.25 1395.75 1888.5 1365.5 1888.5 1459.25 1858.25 1489.5Z" fill="#243240" fill-rule="evenodd"/><path d="M1767.5 1395.75 1797.75 1365.5 1888.5 1365.5 1858.25 1395.75Z" fill="#566472" fill-rule="evenodd"/><path d="M1767.5 1395.75 1797.75 1365.5 1888.5 1365.5 1888.5 1459.25 1858.25 1489.5 1767.5 1489.5ZM1767.5 1395.75 1858.25 1395.75 1888.5 1365.5M1858.25 1395.75 1858.25 1489.5" stroke="#1E2B38" stroke-width="9.16667" stroke-miterlimit="8" fill="none" fill-rule="evenodd"/><rect x="1455.5" y="1279.5" width="90" height="95.0001" fill="#1FC2A7"/><path d="M1545.5 1279.5 1575.5 1249.5 1575.5 1344.5 1545.5 1374.5Z" fill="#199C86" fill-rule="evenodd"/><path d="M1455.5 1279.5 1485.5 1249.5 1575.5 1249.5 1545.5 1279.5Z" fill="#4BCEB8" fill-rule="evenodd"/><path d="M1455.5 1279.5 1485.5 1249.5 1575.5 1249.5 1575.5 1344.5 1545.5 1374.5 1455.5 1374.5ZM1455.5 1279.5 1545.5 1279.5 1575.5 1249.5M1545.5 1279.5 1545.5 1374.5" stroke="#148E7A" stroke-width="9.16667" stroke-miterlimit="8" fill="none" fill-rule="evenodd"/><rect x="1559.5" y="1279.75" width="90.7501" height="94.7501" fill="#1FC2A7"/><path d="M1650.25 1279.75 1680.5 1249.5 1680.5 1344.25 1650.25 1374.5Z" fill="#199C86" fill-rule="evenodd"/><path d="M1559.5 1279.75 1589.75 1249.5 1680.5 1249.5 1650.25 1279.75Z" fill="#4BCEB8" fill-rule="evenodd"/><path d="M1559.5 1279.75 1589.75 1249.5 1680.5 1249.5 1680.5 1344.25 1650.25 1374.5 1559.5 1374.5ZM1559.5 1279.75 1650.25 1279.75 1680.5 1249.5M1650.25 1279.75 1650.25 1374.5" stroke="#148E7A" stroke-width="9.16667" stroke-miterlimit="8" fill="none" fill-rule="evenodd"/><rect x="1663.5" y="1279.75" width="90.7501" height="94.7501" fill="#2D3E50"/><path d="M1754.25 1279.75 1784.5 1249.5 1784.5 1344.25 1754.25 1374.5Z" fill="#243240" fill-rule="evenodd"/><path d="M1663.5 1279.75 1693.75 1249.5 1784.5 1249.5 1754.25 1279.75Z" fill="#566472" fill-rule="evenodd"/><path d="M1663.5 1279.75 1693.75 1249.5 1784.5 1249.5 1784.5 1344.25 1754.25 1374.5 1663.5 1374.5ZM1663.5 1279.75 1754.25 1279.75 1784.5 1249.5M1754.25 1279.75 1754.25 1374.5" stroke="#1E2B38" stroke-width="9.16667" stroke-miterlimit="8" fill="none" fill-rule="evenodd"/><rect x="1767.5" y="1279.75" width="90.7501" height="94.7501" fill="#2D3E50"/><path d="M1858.25 1279.75 1888.5 1249.5 1888.5 1344.25 1858.25 1374.5Z" fill="#243240" fill-rule="evenodd"/><path d="M1767.5 1279.75 1797.75 1249.5 1888.5 1249.5 1858.25 1279.75Z" fill="#566472" fill-rule="evenodd"/><path d="M1767.5 1279.75 1797.75 1249.5 1888.5 1249.5 1888.5 1344.25 1858.25 1374.5 1767.5 1374.5ZM1767.5 1279.75 1858.25 1279.75 1888.5 1249.5M1858.25 1279.75 1858.25 1374.5" stroke="#1E2B38" stroke-width="9.16667" stroke-miterlimit="8" fill="none" fill-rule="evenodd"/><text font-family="Arial,Arial_MSFontService,sans-serif" font-weight="400" font-size="64" transform="matrix(1 0 0 1 1263.02 1236)">gene1</text><rect x="1457.5" y="1161.5" width="90" height="94.9998" fill="#1FC2A7"/><path d="M1547.5 1161.5 1577.5 1131.5 1577.5 1226.5 1547.5 1256.5Z" fill="#199C86" fill-rule="evenodd"/><path d="M1457.5 1161.5 1487.5 1131.5 1577.5 1131.5 1547.5 1161.5Z" fill="#4BCEB8" fill-rule="evenodd"/><path d="M1457.5 1161.5 1487.5 1131.5 1577.5 1131.5 1577.5 1226.5 1547.5 1256.5 1457.5 1256.5ZM1457.5 1161.5 1547.5 1161.5 1577.5 1131.5M1547.5 1161.5 1547.5 1256.5" stroke="#148E7A" stroke-width="9.16667" stroke-miterlimit="8" fill="none" fill-rule="evenodd"/><rect x="1561.5" y="1161.5" width="90" height="94.9998" fill="#1FC2A7"/><path d="M1651.5 1161.5 1681.5 1131.5 1681.5 1226.5 1651.5 1256.5Z" fill="#199C86" fill-rule="evenodd"/><path d="M1561.5 1161.5 1591.5 1131.5 1681.5 1131.5 1651.5 1161.5Z" fill="#4BCEB8" fill-rule="evenodd"/><path d="M1561.5 1161.5 1591.5 1131.5 1681.5 1131.5 1681.5 1226.5 1651.5 1256.5 1561.5 1256.5ZM1561.5 1161.5 1651.5 1161.5 1681.5 1131.5M1651.5 1161.5 1651.5 1256.5" stroke="#148E7A" stroke-width="9.16667" stroke-miterlimit="8" fill="none" fill-rule="evenodd"/><rect x="1665.5" y="1161.5" width="90" height="94.9998" fill="#2D3E50"/><path d="M1755.5 1161.5 1785.5 1131.5 1785.5 1226.5 1755.5 1256.5Z" fill="#243240" fill-rule="evenodd"/><path d="M1665.5 1161.5 1695.5 1131.5 1785.5 1131.5 1755.5 1161.5Z" fill="#566472" fill-rule="evenodd"/><path d="M1665.5 1161.5 1695.5 1131.5 1785.5 1131.5 1785.5 1226.5 1755.5 1256.5 1665.5 1256.5ZM1665.5 1161.5 1755.5 1161.5 1785.5 1131.5M1755.5 1161.5 1755.5 1256.5" stroke="#1E2B38" stroke-width="9.16667" stroke-miterlimit="8" fill="none" fill-rule="evenodd"/><rect x="1769.5" y="1161.75" width="90.75" height="94.7498" fill="#2D3E50"/><path d="M1860.25 1161.75 1890.5 1131.5 1890.5 1226.25 1860.25 1256.5Z" fill="#243240" fill-rule="evenodd"/><path d="M1769.5 1161.75 1799.75 1131.5 1890.5 1131.5 1860.25 1161.75Z" fill="#566472" fill-rule="evenodd"/><path d="M1769.5 1161.75 1799.75 1131.5 1890.5 1131.5 1890.5 1226.25 1860.25 1256.5 1769.5 1256.5ZM1769.5 1161.75 1860.25 1161.75 1890.5 1131.5M1860.25 1161.75 1860.25 1256.5" stroke="#1E2B38" stroke-width="9.16667" stroke-miterlimit="8" fill="none" fill-rule="evenodd"/><text font-family="Arial,Arial_MSFontService,sans-serif" font-weight="400" font-size="64" transform="matrix(1 0 0 1 1260.87 1354)">gene2<tspan font-size="64" x="-2.15588" y="118">gene3</tspan><tspan font-size="64" x="-4.31116" y="231">gene4</tspan><tspan fill="#FFFFFF" font-size="41" x="214.925" y="-129">3.7</tspan><tspan fill="#FFFFFF" font-size="41" x="315.689" y="-129">3.2</tspan><tspan fill="#FFFFFF" font-size="41" x="419.892" y="-129">5.9</tspan><tspan fill="#FFFFFF" font-size="41" x="525.813" y="-129">6.1</tspan><tspan fill="#FFFFFF" font-size="41" x="213.098" y="-10">0.3</tspan><tspan fill="#FFFFFF" font-size="41" x="317.517" y="-10">0.5</tspan><tspan fill="#FFFFFF" font-size="41" x="421.72" y="-10">7.1</tspan><tspan fill="#FFFFFF" font-size="41" x="527.642" y="-10">7.3</tspan><tspan fill="#FFFFFF" font-size="41" x="213.098" y="105">1.1</tspan><tspan fill="#FFFFFF" font-size="41" x="319.345" y="105">1.2</tspan><tspan fill="#FFFFFF" font-size="41" x="423.548" y="105">1.9</tspan><tspan fill="#FFFFFF" font-size="41" x="529.469" y="105">1.1</tspan><tspan fill="#FFFFFF" font-size="41" x="212.989" y="218">9.9</tspan><tspan fill="#FFFFFF" font-size="41" x="321.064" y="218">8.7</tspan><tspan fill="#FFFFFF" font-size="41" x="425.266" y="218">5.9</tspan><tspan fill="#FFFFFF" font-size="41" x="531.187" y="218">4.9</tspan><tspan font-size="64" x="290.605" y="-247">WT</tspan><tspan font-size="64" x="492.203" y="-247">Mut</tspan></text><path d="M1231.5 1637.5C1221.56 1637.5 1213.5 1636.16 1213.5 1634.5L1213.5 1441.62C1213.5 1439.96 1205.44 1438.62 1195.5 1438.62 1205.44 1438.62 1213.5 1437.28 1213.5 1435.62L1213.5 1159.5C1213.5 1157.84 1221.56 1156.5 1231.5 1156.5" stroke="#05B4DD" stroke-width="3.4375" stroke-miterlimit="8" fill="none" fill-rule="evenodd"/><text font-family="Arial,Arial_MSFontService,sans-serif" font-weight="400" font-size="64" transform="matrix(1 0 0 1 918.5 1457)">molecule<tspan font-size="64" x="640.684" y="-538">genotype</tspan></text><path d="M1476.5 1024.5C1476.5 1012.35 1478.14 1002.5 1480.17 1002.5L1683.83 1002.5C1685.86 1002.5 1687.5 992.65 1687.5 980.5 1687.5 992.65 1689.14 1002.5 1691.17 1002.5L1894.83 1002.5C1896.86 1002.5 1898.5 1012.35 1898.5 1024.5" stroke="#05B4DD" stroke-width="3.4375" stroke-miterlimit="8" fill="none" fill-rule="evenodd"/><text font-family="Arial,Arial_MSFontService,sans-serif" font-weight="400" font-size="83" transform="matrix(1 0 0 1 2275.06 2001)">=<tspan font-size="83" x="-269.271" y="131">Knowledge gain</tspan></text></g></svg>