<svg width="2040" height="1405" xmlns="http://www.w3.org/2000/svg" xmlns:xlink="http://www.w3.org/1999/xlink" overflow="hidden"><defs><clipPath id="clip0"><rect x="1077" y="465" width="2040" height="1405"/></clipPath></defs><g clip-path="url(#clip0)" transform="translate(-1077 -465)"><rect x="1079.5" y="467.5" width="2035" height="1380" stroke="#148E7A" stroke-width="4.58333" stroke-miterlimit="8" fill="#9DEFE2"/><rect x="1079.5" y="1693.5" width="313" height="154" stroke="#148E7A" stroke-width="4.58333" stroke-miterlimit="8" fill="#1FC2A7"/><text fill="#FFFFFF" font-family="Calibri,Calibri_MSFontService,sans-serif" font-weight="400" font-size="83" transform="matrix(1 0 0 1 1212.11 1798)">A</text><rect x="1392.5" y="1693.5" width="313" height="154" stroke="#148E7A" stroke-width="4.58333" stroke-miterlimit="8" fill="#6CE7D3"/><text fill="#106153" font-family="Calibri,Calibri_MSFontService,sans-serif" font-weight="400" font-size="83" transform="matrix(1 0 0 1 1526.48 1798)">B</text><rect x="1705.5" y="1693.5" width="313" height="154" stroke="#148E7A" stroke-width="4.58333" stroke-miterlimit="8" fill="#6CE7D3"/><text fill="#106153" font-family="Calibri,Calibri_MSFontService,sans-serif" font-weight="400" font-size="83" transform="matrix(1 0 0 1 1839.7 1798)">C</text><path d="M1159.5 585.167C1159.5 574.305 1168.31 565.5 1179.17 565.5L1522.83 565.5C1533.69 565.5 1542.5 574.305 1542.5 585.167L1542.5 663.833C1542.5 674.695 1533.69 683.5 1522.83 683.5L1179.17 683.5C1168.31 683.5 1159.5 674.695 1159.5 663.833Z" stroke="#0684A2" stroke-width="4.58333" stroke-miterlimit="8" fill="#0BB5DD" fill-rule="evenodd"/><path d="M2662.5 585.167C2662.5 574.305 2671.3 565.5 2682.17 565.5L3025.83 565.5C3036.69 565.5 3045.5 574.305 3045.5 585.167L3045.5 663.833C3045.5 674.695 3036.69 683.5 3025.83 683.5L2682.17 683.5C2671.3 683.5 2662.5 674.695 2662.5 663.833Z" stroke="#0684A2" stroke-width="4.58333" stroke-miterlimit="8" fill="#0BB5DD" fill-rule="evenodd"/><path d="M1159.5 745.334C1159.5 734.38 1168.38 725.5 1179.33 725.5L1522.67 725.5C1533.62 725.5 1542.5 734.38 1542.5 745.334L1542.5 824.667C1542.5 835.62 1533.62 844.5 1522.67 844.5L1179.33 844.5C1168.38 844.5 1159.5 835.62 1159.5 824.667Z" stroke="#148E7A" stroke-width="4.58333" stroke-miterlimit="8" fill="#1FC2A7" fill-rule="evenodd"/><path d="M2662.5 745.334C2662.5 734.38 2671.38 725.5 2682.33 725.5L3025.67 725.5C3036.62 725.5 3045.5 734.38 3045.5 745.334L3045.5 824.667C3045.5 835.62 3036.62 844.5 3025.67 844.5L2682.33 844.5C2671.38 844.5 2662.5 835.62 2662.5 824.667Z" stroke="#148E7A" stroke-width="4.58333" stroke-miterlimit="8" fill="#1FC2A7" fill-rule="evenodd"/><path d="M1159.5 906.167C1159.5 895.305 1168.31 886.5 1179.17 886.5L1522.83 886.5C1533.69 886.5 1542.5 895.305 1542.5 906.167L1542.5 984.833C1542.5 995.695 1533.69 1004.5 1522.83 1004.5L1179.17 1004.5C1168.31 1004.5 1159.5 995.695 1159.5 984.833Z" stroke="#148E7A" stroke-width="4.58333" stroke-miterlimit="8" fill="#1FC2A7" fill-rule="evenodd"/><path d="M2662.5 906.167C2662.5 895.305 2671.3 886.5 2682.17 886.5L3025.83 886.5C3036.69 886.5 3045.5 895.305 3045.5 906.167L3045.5 984.833C3045.5 995.695 3036.69 1004.5 3025.83 1004.5L2682.17 1004.5C2671.3 1004.5 2662.5 995.695 2662.5 984.833Z" stroke="#148E7A" stroke-width="4.58333" stroke-miterlimit="8" fill="#1FC2A7" fill-rule="evenodd"/><rect x="2018.5" y="1693.5" width="313" height="154" stroke="#148E7A" stroke-width="4.58333" stroke-miterlimit="8" fill="#6CE7D3"/><text fill="#106153" font-family="Calibri,Calibri_MSFontService,sans-serif" font-weight="400" font-size="83" transform="matrix(1 0 0 1 2149.2 1798)">D</text><path d="M1159.5 1069.17C1159.5 1058.31 1168.31 1049.5 1179.17 1049.5L1522.83 1049.5C1533.69 1049.5 1542.5 1058.31 1542.5 1069.17L1542.5 1147.83C1542.5 1158.69 1533.69 1167.5 1522.83 1167.5L1179.17 1167.5C1168.31 1167.5 1159.5 1158.69 1159.5 1147.83Z" stroke="#148E7A" stroke-width="4.58333" stroke-miterlimit="8" fill="#1FC2A7" fill-rule="evenodd"/><path d="M2662.5 1069.17C2662.5 1058.31 2671.3 1049.5 2682.17 1049.5L3025.83 1049.5C3036.69 1049.5 3045.5 1058.31 3045.5 1069.17L3045.5 1147.83C3045.5 1158.69 3036.69 1167.5 3025.83 1167.5L2682.17 1167.5C2671.3 1167.5 2662.5 1158.69 2662.5 1147.83Z" stroke="#148E7A" stroke-width="4.58333" stroke-miterlimit="8" fill="#1FC2A7" fill-rule="evenodd"/><path d="M1159.5 1229.17C1159.5 1218.31 1168.31 1209.5 1179.17 1209.5L1522.83 1209.5C1533.69 1209.5 1542.5 1218.31 1542.5 1229.17L1542.5 1307.83C1542.5 1318.69 1533.69 1327.5 1522.83 1327.5L1179.17 1327.5C1168.31 1327.5 1159.5 1318.69 1159.5 1307.83Z" stroke="#148E7A" stroke-width="4.58333" stroke-miterlimit="8" fill="#1FC2A7" fill-rule="evenodd"/><path d="M2662.5 1229.17C2662.5 1218.31 2671.3 1209.5 2682.17 1209.5L3025.83 1209.5C3036.69 1209.5 3045.5 1218.31 3045.5 1229.17L3045.5 1307.83C3045.5 1318.69 3036.69 1327.5 3025.83 1327.5L2682.17 1327.5C2671.3 1327.5 2662.5 1318.69 2662.5 1307.83Z" stroke="#148E7A" stroke-width="4.58333" stroke-miterlimit="8" fill="#1FC2A7" fill-rule="evenodd"/><path d="M1159.5 1389.33C1159.5 1378.38 1168.38 1369.5 1179.33 1369.5L1522.67 1369.5C1533.62 1369.5 1542.5 1378.38 1542.5 1389.33L1542.5 1468.67C1542.5 1479.62 1533.62 1488.5 1522.67 1488.5L1179.33 1488.5C1168.38 1488.5 1159.5 1479.62 1159.5 1468.67Z" stroke="#148E7A" stroke-width="4.58333" stroke-miterlimit="8" fill="#1FC2A7" fill-rule="evenodd"/><path d="M1562.5 585C1562.5 574.23 1571.23 565.5 1582 565.5L2610 565.5C2620.77 565.5 2629.5 574.23 2629.5 585L2629.5 663C2629.5 673.769 2620.77 682.5 2610 682.5L1582 682.5C1571.23 682.5 1562.5 673.769 1562.5 663Z" stroke="#0684A2" stroke-width="4.58333" stroke-miterlimit="8" fill="#0BB5DD" fill-rule="evenodd"/><path d="M1562.5 745C1562.5 734.231 1571.23 725.5 1582 725.5L2610 725.5C2620.77 725.5 2629.5 734.231 2629.5 745L2629.5 823C2629.5 833.77 2620.77 842.5 2610 842.5L1582 842.5C1571.23 842.5 1562.5 833.77 1562.5 823Z" stroke="#148E7A" stroke-width="4.58333" stroke-miterlimit="8" fill="#1FC2A7" fill-rule="evenodd"/><path d="M1562.5 905.833C1562.5 895.156 1571.16 886.5 1581.83 886.5L2610.17 886.5C2620.84 886.5 2629.5 895.156 2629.5 905.833L2629.5 983.167C2629.5 993.844 2620.84 1002.5 2610.17 1002.5L1581.83 1002.5C1571.16 1002.5 1562.5 993.844 1562.5 983.167Z" stroke="#148E7A" stroke-width="4.58333" stroke-miterlimit="8" fill="#1FC2A7" fill-rule="evenodd"/><path d="M1562.5 1068.83C1562.5 1058.16 1571.16 1049.5 1581.83 1049.5L2610.17 1049.5C2620.84 1049.5 2629.5 1058.16 2629.5 1068.83L2629.5 1146.17C2629.5 1156.84 2620.84 1165.5 2610.17 1165.5L1581.83 1165.5C1571.16 1165.5 1562.5 1156.84 1562.5 1146.17Z" stroke="#148E7A" stroke-width="4.58333" stroke-miterlimit="8" fill="#1FC2A7" fill-rule="evenodd"/><path d="M1562.5 1228.83C1562.5 1218.16 1571.16 1209.5 1581.83 1209.5L2610.17 1209.5C2620.84 1209.5 2629.5 1218.16 2629.5 1228.83L2629.5 1306.17C2629.5 1316.84 2620.84 1325.5 2610.17 1325.5L1581.83 1325.5C1571.16 1325.5 1562.5 1316.84 1562.5 1306.17Z" stroke="#148E7A" stroke-width="4.58333" stroke-miterlimit="8" fill="#1FC2A7" fill-rule="evenodd"/><path d="M1562.5 1389C1562.5 1378.23 1571.23 1369.5 1582 1369.5L2610 1369.5C2620.77 1369.5 2629.5 1378.23 2629.5 1389L2629.5 1467C2629.5 1477.77 2620.77 1486.5 2610 1486.5L1582 1486.5C1571.23 1486.5 1562.5 1477.77 1562.5 1467Z" stroke="#148E7A" stroke-width="4.58333" stroke-miterlimit="8" fill="#1FC2A7" fill-rule="evenodd"/><path d="M2662.5 1389.33C2662.5 1378.38 2671.38 1369.5 2682.33 1369.5L3025.67 1369.5C3036.62 1369.5 3045.5 1378.38 3045.5 1389.33L3045.5 1468.67C3045.5 1479.62 3036.62 1488.5 3025.67 1488.5L2682.33 1488.5C2671.38 1488.5 2662.5 1479.62 2662.5 1468.67Z" stroke="#148E7A" stroke-width="4.58333" stroke-miterlimit="8" fill="#1FC2A7" fill-rule="evenodd"/><text fill="#595959" font-family="Calibri,Calibri_MSFontService,sans-serif" font-weight="400" font-size="83" transform="matrix(1 0 0 1 1228.27 645)">Sample<tspan font-size="83" x="1542.11" y="0">Data</tspan><tspan font-size="83" x="366.881" y="3">Parameter [instrument model]</tspan><tspan font-size="83" x="573.956" y="166">´</tspan>TripleTOF4600 ’</text><path d="M273.924 9.6675 293.237 4.5425 312.923 0.280156 332.634-2.97131 352.332-5.26661 371.993-6.54814 391.491-6.93619 410.93-6.43515 430.208-4.98028 449.339-2.63614 468.204 0.532901 486.922 4.66211 505.27 9.54425 523.383 15.2566 541.206 21.8677 558.544 29.1642 575.588 37.2963 592.205 46.2637 608.273 55.8465 623.939 66.2797 639.073 77.3986 653.633 89.1521 667.649 101.691 681.065 114.842 693.805 128.653 705.855 143.175 717.236 158.232 727.883 173.962 737.756 190.252 746.81 207.128 755.033 224.572 762.421 242.51 768.925 261.038 769.92 264.372 756.734 268.271 755.95 265.587 749.704 247.74 742.592 230.428 734.69 213.622 725.994 197.373 716.492 181.663 706.264 166.518 695.27 151.95 683.695 137.972 671.435 124.658 658.476 111.934 644.992 99.8479 630.927 88.4763 616.311 77.7203 601.227 67.6535 585.67 58.3613 569.662 49.7037 553.206 41.8358 536.419 34.7573 519.242 28.3684 501.73 22.8307 483.953 18.0879 465.921 14.0921 447.661 11.0111 429.167 8.73028 410.57 7.31015 391.759 6.81119 372.882 7.17314 353.918 8.39161 334.866 10.5963 315.827 13.7198 296.763 17.8325 277.451 22.9575ZM781.381 221.579 767.196 279.406 723.843 238.594C721.078 235.992 720.947 231.641 723.549 228.876 726.152 226.111 730.503 225.98 733.267 228.582L768.04 261.315 756.65 264.683 768.027 218.303C768.932 214.616 772.655 212.359 776.342 213.264 780.03 214.169 782.286 217.891 781.381 221.579Z" fill="#595959" transform="matrix(0.707107 -0.707107 -0.707107 -0.707107 2072.96 1442.82)"/><text fill="#595959" font-family="Calibri,Calibri_MSFontService,sans-serif" font-weight="400" font-size="83" transform="matrix(1 0 0 1 1801.06 978)">´<tspan font-size="83" x="24.0625" y="0">TripleTOF4600 ’</tspan><tspan font-size="83" x="-1.17078" y="161">´</tspan><tspan font-size="83" x="22.8917" y="161">TripleTOF4600 ’</tspan><tspan font-size="83" x="-2.34155" y="317">´</tspan><tspan font-size="83" x="21.7209" y="317">TripleTOF4600 ’</tspan><tspan font-size="83" x="-3.51221" y="474">´</tspan><tspan font-size="83" x="20.5503" y="474">TripleTOF4600 ’</tspan></text></g></svg>