<svg width="4511" height="2166" xmlns="http://www.w3.org/2000/svg" xmlns:xlink="http://www.w3.org/1999/xlink" overflow="hidden"><defs><clipPath id="clip0"><rect x="-32" y="139" width="4511" height="2166"/></clipPath></defs><g clip-path="url(#clip0)" transform="translate(32 -139)"><text fill="#00C2A7" font-family="Avenir Next LT Pro Demi,Avenir Next LT Pro Demi_MSFontService,sans-serif" font-weight="600" font-size="110" transform="matrix(1 0 0 1 3777.8 944)">If<tspan font-size="110" x="99.3208" y="0">there</tspan><tspan font-size="110" x="390.294" y="0">is</tspan><tspan font-size="110" x="495.711" y="0">no</tspan><tspan font-size="110" x="-4.51465" y="106">value</tspan><tspan font-size="110" x="296.84" y="106">for</tspan><tspan font-size="110" x="466.996" y="106">the</tspan><tspan font-size="110" x="53.0979" y="211">respective</tspan><tspan font-size="110" x="146.483" y="317">source,</tspan><tspan font-size="110" x="-8.1355" y="423">always</tspan><tspan font-size="110" x="363.688" y="423">leave</tspan><tspan font-size="110" x="185.419" y="528">blank</tspan><tspan font-size="110" x="-140.416" y="-667">Characteristics</tspan><tspan font-size="110" x="26.5554" y="-561">name</tspan><tspan font-size="110" x="339.941" y="-561">in</tspan><tspan font-size="110" x="16.8845" y="-456">brackets</tspan><tspan font-size="165" x="-3147.36" y="1215">…</tspan><tspan font-size="202" x="-3687.99" y="-382">Source Name</tspan><tspan font-family="Avenir Next LT Pro,Avenir Next LT Pro_MSFontService,sans-serif" font-weight="400" font-size="183" x="-3550.6" y="40">Organism1</tspan><tspan font-family="Avenir Next LT Pro,Avenir Next LT Pro_MSFontService,sans-serif" font-weight="400" font-size="183" x="-3430.76" y="635">Sample 1</tspan><tspan font-family="Avenir Next LT Pro,Avenir Next LT Pro_MSFontService,sans-serif" font-weight="400" font-size="183" x="-1822.14" y="44">Col0</tspan><tspan font-family="Avenir Next LT Pro,Avenir Next LT Pro_MSFontService,sans-serif" font-weight="400" font-size="202" x="-848.631" y="633">smpl</tspan><tspan font-family="Avenir Next LT Pro,Avenir Next LT Pro_MSFontService,sans-serif" font-weight="400" font-size="202" x="-402.329" y="633">-</tspan><tspan font-family="Avenir Next LT Pro,Avenir Next LT Pro_MSFontService,sans-serif" font-weight="400" font-size="202" x="-337.589" y="633">1</tspan><tspan font-size="124" x="-2013.51" y="-470">Characteristic</tspan><tspan font-size="124" x="-1821.29" y="-368">[</tspan><tspan font-size="124" x="-1780.62" y="-368">strain</tspan><tspan font-size="124" x="-1468.26" y="-368">]</tspan><tspan font-size="124" x="-954.899" y="-470">Characteristic</tspan><tspan font-size="124" x="-888.292" y="-368">[Label </tspan><tspan font-size="124" x="-502.719" y="-368">text</tspan><tspan font-size="124" x="-284.048" y="-368">]</tspan><tspan font-size="165" x="-1707.69" y="1220">…</tspan><tspan font-size="165" x="-635.24" y="1220">…</tspan></text><path d="M3582.38 515.298 3543.17 549.655 3577.52 588.857 3582.38 515.298Z" stroke="#00C2A7" stroke-width="13.0791" stroke-linecap="round" stroke-miterlimit="8" fill="none" fill-rule="evenodd"/><path d="M3579.94 552.078C3607.96 552.754 3643.59 551.584 3672.09 544.046 3705.14 535.302 3714.47 460.39 3783.49 463.62" stroke="#00C2A7" stroke-width="13.0791" stroke-linecap="round" stroke-linejoin="round" stroke-miterlimit="10" stroke-dasharray="26.1582 26.1582" fill="none" fill-rule="evenodd"/><path d="M3302.7 886.048 3255.81 908.835 3278.61 955.716 3302.7 886.048Z" stroke="#00C2A7" stroke-width="13.0791" stroke-linecap="round" stroke-miterlimit="8" fill="none" fill-rule="evenodd"/><path d="M3290.65 920.882C3357.32 947.284 3482.95 999.117 3558.69 1025.6 3621.99 1047.74 3695.94 1067.72 3751.34 1051.57" stroke="#00C2A7" stroke-width="13.0791" stroke-linecap="round" stroke-linejoin="round" stroke-miterlimit="10" stroke-dasharray="26.1582 26.1582" fill="none" fill-rule="evenodd"/><path d="M13.1348 372.023C12.0367 372.023 10.9891 372.45 10.2232 373.231 9.45645 373.994 9.0222 375.034 9.0222 376.131 9.0222 460.038 9.0222 1801.71 9.0222 2172 9.0222 2196.93 18.9334 2220.85 36.559 2238.47 54.1845 2256.12 78.0938 2266.02 103.025 2266.02L1396.02 2266.02 1396.02 448.216C1396.02 408.4 1363.81 376.113 1324.01 375.982L13.1348 372.023Z" stroke="#00C2A7" stroke-width="18.5531" stroke-linecap="round" stroke-linejoin="round" stroke-miterlimit="10" fill="none" fill-rule="evenodd"/><path d="M9.01787 610.969 1396.02 610.969" stroke="#00C2A7" stroke-width="18.7978" stroke-linecap="round" stroke-linejoin="round" stroke-miterlimit="10" fill="none" fill-rule="evenodd"/><path d="M97.5071 931.067C90.4552 931.721 83.409 932.613 76.3564 931.157 54.3415 926.618 41.7999 907.054 46.5412 883.577 52.408 854.512 69.4267 833.358 94.5419 818.315 96.4957 817.128 98.573 816.107 100.589 815.008 102.012 812.783 104.27 811.877 106.608 810.959 126.483 802.891 148.431 801.407 169.212 806.725 174.268 807.992 178.027 807.258 181.646 803.563 191.08 793.94 201.287 785.102 210.991 775.166 198.227 775.689 186.267 772.991 174.154 772.151 157.389 770.967 140.574 770.675 123.778 771.275 121.351 771.333 118.836 771.879 116.652 770.088 104.187 769.018 91.6459 768.535 79.4986 765.029 68.9083 761.962 59.0387 757.539 51.012 749.771 41.4938 740.563 36.4932 729.59 40.4482 716.322 44.4027 703.054 54.6755 696.157 67.646 693.061 81.2167 689.763 94.1312 693.032 106.849 697.565 115.852 700.778 124.657 704.523 133.216 708.779 138.423 711.371 149.052 714.407 147.882 714.832 167.771 724.546 184.958 738.161 203.939 748.858 209.175 751.652 214.576 754.125 220.114 756.262 222.432 757.334 225.183 756.874 227.025 755.106 231.962 750.983 236.889 746.851 241.805 742.709 243.321 741.414 244.349 739.64 244.718 737.683 246.264 730.073 248.867 722.717 252.452 715.829 254.264 712.426 257.854 708.234 259.13 705.757 269.139 689.489 282.354 676.723 300.258 669.346 306.51 666.704 313.195 665.236 319.979 665.018 339.187 664.479 349.676 677.412 345.141 696.245 344.237 699.895 343.044 703.472 341.98 707.076 342.018 708.67 341.155 709.91 340.463 711.225 324.455 736.072 301.677 750.604 272.672 755.53 267.114 756.439 261.433 756.272 255.938 755.039 251.803 754.146 248.845 755.208 246.733 759.352 254.843 761.032 263.034 760.37 271.099 761.069 278.788 761.747 286.556 761.601 294.256 762.339 297.683 762.664 300.332 761.906 302.382 758.943 313.085 743.531 327.535 733.074 345.158 726.794 359.298 722.055 373.674 721.741 388.21 724.426 390.998 725.351 392.95 724.917 393.094 721.405 393.126 720.691 393.541 719.809 394.67 720.158 393.821 726.126 396.794 728.582 402.247 730.295 409.469 732.682 416.056 736.677 421.509 741.977 437.846 757.347 436.594 779.165 418.585 792.521 410.92 798.206 402.186 801.458 392.882 803.277 392.159 804.174 391.2 804.852 390.114 805.236 380.639 807.003 370.946 807.276 361.387 806.042 350.445 804.46 339.72 801.971 329.521 797.438 321.186 793.741 313.212 789.412 306.271 783.522 303.047 780.661 298.877 779.091 294.568 779.113 289.174 779.074 283.761 779.451 278.437 778.131 277.775 778.236 235.407 769.953 236.601 770.848 231.976 777.824 237.556 785.667 243.246 792.141 250.028 799.343 261.393 832.869 259.254 848.046 258.673 855.901 255.376 863.314 249.932 869.006 243.885 873.562 237.476 873.705 230.799 870.594 221.599 865.57 216.123 857.484 212.663 847.932 208.247 835.726 205.282 823.258 207.218 810.108 207.436 809.26 207.039 808.367 206.265 807.96 200.764 813.384 194.556 818.222 189.517 824.3 188.466 825.799 187.824 827.547 187.656 829.37 185.036 843.845 180.206 857.832 173.333 870.839 161.86 890.938 146.645 907.539 126.865 919.748 119.639 924.382 111.796 927.973 103.568 930.416 101.864 931.047 100.046 931.306 98.2336 931.178L97.5071 931.067Z" stroke="#00C2A7" stroke-width="2.86368" stroke-linejoin="round" stroke-miterlimit="10" fill="none" fill-rule="evenodd"/><path d="M88.3161 747.989C86.5583 751.59 84.591 755.126 85.0558 760.051 88.2913 757.317 87.6462 753.14 90.2884 750.876 90.425 750.793 90.5789 750.601 90.6984 750.618 95.2295 751.501 102.397 761.916 101.606 766.505 92.6751 766.124 83.9318 764.856 75.7058 761.177 73.8748 756.74 71.0581 752.942 68.2886 749.053 59.9106 737.359 51.5012 725.606 43.8826 713.348 46.2481 706.571 51.4538 702.501 57.4202 699.147 59.9621 698.094 61.4684 699.733 62.7665 701.378 67.7552 707.701 72.2863 714.383 76.7877 721.055 79.265 724.743 78.5548 725.721 74.2495 726.003 71.5079 726.178 68.6781 725.561 66.0081 726.656 64.2419 726.996 62.2105 726.192 59.9771 728.129 65.437 729.297 70.2292 728.24 74.9624 728.444 79.5177 734.897 84.2485 741.217 88.3161 747.989Z" stroke="#00C2A7" stroke-width="2.86368" stroke-linejoin="round" stroke-miterlimit="10" fill="none" fill-rule="evenodd"/><path d="M85.1899 827.347C91.436 821.607 98.8389 817.802 106.7 814.938 110.695 813.276 114.763 813.872 118.833 814.528 134.306 817.003 149.925 818.106 165.453 819.995 170.354 820.591 175.203 821.506 180.113 822.043 182.617 822.31 185.744 822.899 184.284 826.949 184.581 830.045 183.967 833.161 182.516 835.912 174.951 835.003 167.126 835.646 159.976 832.219 158.776 830.959 159.63 830.185 160.696 829.565 162.365 828.646 164.099 827.849 165.883 827.181 159.831 829.873 153.811 832.644 147.874 835.542 146.002 836.469 144.211 837.81 141.901 836.973 134.099 834.047 125.848 833.858 117.718 832.952 108.425 831.916 99.1903 830.422 89.8801 829.495 88.1119 829.329 86.3112 829.055 85.1899 827.347Z" stroke="#00C2A7" stroke-width="2.86368" stroke-linejoin="round" stroke-miterlimit="10" fill="none" fill-rule="evenodd"/><path d="M391.804 801.184C388.288 802.557 384.606 802.347 380.93 802.435 378.259 803.49 375.468 802.843 372.738 803.077 370.661 803.246 369.733 801.762 370.81 800.368 375.294 794.719 378.497 787.724 386.047 785.135 386.828 785.433 387.238 786.028 387.445 787.193 387.661 784.65 385.852 782.78 386.433 780.536 390.327 774.248 396.012 769.492 400.745 763.917 403.77 763.151 406.529 764.513 409.124 764.857 406.259 763.587 402.369 764.255 399.659 761.594 399.391 761.17 399.346 760.643 399.536 760.179 403.848 753.138 409.382 747.058 415.232 741.327 415.758 740.873 416.513 740.784 417.13 741.104 423.78 745.778 428.51 752.712 430.433 760.61 428.001 761.657 425.864 763.289 424.213 765.358 414.792 776.775 403.73 786.734 394.693 798.488 393.88 799.534 392.904 800.444 391.804 801.184Z" stroke="#00C2A7" stroke-width="2.86368" stroke-linejoin="round" stroke-miterlimit="10" fill="none" fill-rule="evenodd"/><path d="M124.999 916.513C114.272 923.907 102.497 928.946 89.566 929.95 74.6472 931.159 57.3666 925.635 50.4774 907.413 51.7675 905.399 53.7709 905.44 55.7683 905.65 77.4015 907.908 99.0766 909.848 120.545 913.498 122.376 913.801 124.638 913.875 124.999 916.513Z" stroke="#00C2A7" stroke-width="2.86368" stroke-linejoin="round" stroke-miterlimit="10" fill="none" fill-rule="evenodd"/><path d="M298.028 775.676 295.057 775.747C294.677 770.662 299.253 768.857 301.754 765.675 309.41 754.221 318.369 744.204 330.393 737.146 339.537 731.631 349.713 728.044 360.294 726.607 359.551 729.945 357.076 732.126 354.88 734.419 347.298 742.332 339.818 750.342 332.723 758.739 331.528 760.155 330.33 761.452 330.735 763.485 327.486 766.893 322.574 766.237 318.798 768.36 317.4 769.147 314.944 768.848 315.417 771.603 315.005 775.964 311.01 778.002 309.069 781.379 307.047 779.743 304.584 778.731 303.006 776.568 301.49 775.356 299.532 776.79 298.028 775.676Z" stroke="#00C2A7" stroke-width="2.86368" stroke-linejoin="round" stroke-miterlimit="10" fill="none" fill-rule="evenodd"/><path d="M184.301 826.96C183.639 822.079 179.517 823.367 176.652 822.96 166.845 821.579 157.005 820.456 147.165 819.343 133.688 817.822 120.193 816.41 106.717 814.948 115.902 810.258 125.899 808.393 135.976 807.409 148.757 806.13 161.666 807.509 173.889 811.458 176.266 812.224 177.796 811.949 179.558 810.163 182.083 807.604 184.965 805.394 187.693 803.029 192.346 800.291 196.852 802.195 201.317 803.605 202.585 804.001 203.562 805.038 202.638 806.637 197.569 811.456 192.613 816.392 187.37 821.018 185.469 822.739 185.746 825.2 184.301 826.96Z" stroke="#00C2A7" stroke-width="2.86368" stroke-linejoin="round" stroke-miterlimit="10" fill="none" fill-rule="evenodd"/><path d="M85.1945 827.345C96.0126 828.739 106.827 830.132 117.639 831.525 124.748 832.425 131.863 833.167 138.955 834.217 140.644 834.353 142.145 835.359 142.914 836.868 127.501 851.401 106.255 853.704 88.8592 843.801 88.5176 843.601 88.2501 843.191 87.7661 843.272 88.1609 843.566 88.4717 843.958 88.6659 844.411 88.9534 845.246 88.3067 845.559 87.7807 845.948 80.9223 846.816 74.106 847.376 67.7816 843.641 72.5968 837.241 78.4895 831.726 85.1945 827.345Z" stroke="#00C2A7" stroke-width="2.86368" stroke-linejoin="round" stroke-miterlimit="10" fill="none" fill-rule="evenodd"/><path d="M161.832 882.004C157.465 889.257 151.925 895.738 145.44 901.18 134.333 899.741 123.168 898.739 112.136 896.694 106.812 889.605 107.295 881.643 108.608 873.543 109.567 872.609 110.965 872.27 112.245 872.663 120.628 874.217 129.189 874.072 137.56 875.527 140.453 876.271 141.298 878.857 142.56 881.087 142.768 881.459 142.797 881.448 143.83 880.274 148.468 877.368 157.103 878.211 161.832 882.004Z" stroke="#00C2A7" stroke-width="2.86368" stroke-linejoin="round" stroke-miterlimit="10" fill="none" fill-rule="evenodd"/><path d="M190.873 770.313C183.169 770.25 175.605 768.974 168.016 767.887 171.063 766.376 171.293 764.409 169.276 761.731 167.711 759.667 165.871 757.778 164.491 755.601 163.11 753.423 160.681 751.301 162.589 748.192L170.446 752.603 171.122 751.457C167.457 747.441 161.707 746.577 157.517 743.347 153.272 736.144 148.625 729.187 143.596 722.507 142.202 720.558 140.155 718.714 142.003 715.963 152.628 719.674 161.535 726.519 171.135 732.118 178.215 741.335 184.476 751.117 191.176 760.602 192.314 762.21 193.434 763.829 194.415 765.481 195.149 766.762 196.085 768.177 195.207 769.595 194.149 771.375 192.454 770.93 190.873 770.313Z" stroke="#00C2A7" stroke-width="2.86368" stroke-linejoin="round" stroke-miterlimit="10" fill="none" fill-rule="evenodd"/><path d="M67.7943 843.619C74.6729 844.848 81.6625 845.346 88.6455 845.102 91.809 844.323 94.2977 846.434 97.0336 847.261 103.939 849.391 111.221 850.022 118.39 849.109 119.507 848.973 120.797 848.219 121.434 849.591 121.978 850.778 120.991 851.763 120.168 852.595 103.543 868.684 89.9075 872.153 66.6215 861.727 64.8481 860.937 63.229 859.548 61.0804 860.482 59.7566 860.951 58.2776 860.663 57.2265 859.731 59.7173 853.635 63.9016 848.718 67.7943 843.619Z" stroke="#00C2A7" stroke-width="2.86368" stroke-linejoin="round" stroke-miterlimit="10" fill="none" fill-rule="evenodd"/><path d="M124.998 916.515C117.835 913.366 110.053 913.305 102.514 912.276 86.8109 910.114 70.9902 908.847 55.2445 906.983 53.4849 906.768 52.0594 907.268 50.4771 907.415 47.802 902.086 48.2289 896.317 48.0926 890.621 50.5621 889.015 53.3273 889.831 55.8127 890.129 62.7711 890.953 69.9928 890.364 76.6261 893.338 78.314 896.351 75.6206 898.13 74.9394 900.317 73.952 900.479 75.1897 901.243 74.8879 900.655 74.8863 900.586 75.0141 900.543 75.3284 900.417 75.9612 900.187 76.6295 900.074 77.303 900.082 89.791 901.26 102.158 903.175 114.648 904.462 115.491 904.442 116.333 904.422 117.177 904.481 121.737 904.917 126.256 905.691 130.791 906.326 132.849 906.603 135.649 906.804 134.851 910.303L124.998 916.515Z" stroke="#00C2A7" stroke-width="2.86368" stroke-linejoin="round" stroke-miterlimit="10" fill="none" fill-rule="evenodd"/><path d="M330.431 763.008C327.011 762.158 329.287 760.745 330.204 759.722 337.128 752.043 344.112 744.421 351.076 736.771 354.147 733.394 357.215 730.015 360.28 726.639 368.319 726.644 376.371 725.56 384.406 727.052 385.402 727.227 386.39 727.104 387.075 727.98 384.276 731.556 380.91 734.61 377.756 737.857 376.556 739.085 375.204 740.555 373.149 739.207 372.639 739.001 372.529 737.745 372.39 738.124 369.482 746.664 363.389 753.762 355.388 757.93 347.788 762.142 339.073 763.915 330.431 763.008Z" stroke="#00C2A7" stroke-width="2.86368" stroke-linejoin="round" stroke-miterlimit="10" fill="none" fill-rule="evenodd"/><path d="M322.649 727.516C317.557 732.188 312.413 736.781 306.092 739.807 305.395 739.35 304.979 738.566 304.992 737.732 305.962 730.205 307.281 722.809 312.36 716.74 313.422 716.387 314.205 716.815 315.138 718.081 314.439 715.788 312.524 714.486 312.81 712.348 315.643 706.451 316.795 699.941 319.308 693.924 321.257 692.031 323.816 690.892 326.526 690.708 324.577 690.021 322.405 692.849 320.252 690.69 320.336 682.599 323.424 675.398 326.813 668.279 327.029 667.818 327.645 667.873 328.144 667.98 332.997 668.26 336.469 670.853 339.207 674.654 333.42 688.808 329.591 703.63 324.883 718.115 323.913 721.102 321.99 724.013 322.649 727.516Z" stroke="#00C2A7" stroke-width="2.86368" stroke-linejoin="round" stroke-miterlimit="10" fill="none" fill-rule="evenodd"/><path d="M190.868 770.312C194.727 770.428 195.664 769.394 193.152 765.886 186.619 756.745 180.32 747.449 174.011 738.153 172.758 736.32 170.817 734.74 171.121 732.136 184.062 740.212 196.411 749.264 210.192 755.982 214.435 758.062 216.855 762.266 218.818 766.441 220.166 769.324 217.999 771.14 215.656 771.394 207.392 772.459 199.008 772.093 190.868 770.312Z" stroke="#00C2A7" stroke-width="2.86368" stroke-linejoin="round" stroke-miterlimit="10" fill="none" fill-rule="evenodd"/><path d="M178.878 848.89C177.297 854.479 175.726 860.068 172.322 864.907 171.531 865.511 170.53 865.774 169.545 865.638 160.487 864.487 151.328 864.091 142.329 862.472 140.362 862.238 138.525 861.362 137.105 859.98 134.993 854.589 136.141 849.507 138.569 844.542 140.297 842.587 142.486 842.525 144.881 842.775 154.301 843.759 163.665 845.24 173.116 845.876 175.379 846 177.738 846.4 178.878 848.89Z" stroke="#00C2A7" stroke-width="2.86368" stroke-linejoin="round" stroke-miterlimit="10" fill="none" fill-rule="evenodd"/><path d="M65.9393 726.721C69.3356 724.489 73.3262 726.395 76.9447 725.169 76.9793 721.649 74.0704 719.796 72.4159 717.347 68.9912 712.176 65.3716 707.128 61.7035 702.13 60.6781 700.708 59.4427 699.211 57.3523 699.261 63.7134 695.411 70.7169 693.985 78.038 693.81 79.2677 694.662 81.0235 694.293 82.0483 695.696 84.0234 708.238 90.5162 718.193 100.18 726.447 88.5201 725.487 77.2488 726.698 65.9393 726.721Z" stroke="#00C2A7" stroke-width="2.86368" stroke-linejoin="round" stroke-miterlimit="10" fill="none" fill-rule="evenodd"/><path d="M82.0422 695.606C80.5009 695.567 79.0452 694.882 78.0319 693.72 86.8853 693.369 95.1669 696.056 103.52 698.413 105.485 698.884 106.984 700.492 107.315 702.485 109.518 713.474 115.518 723.345 124.258 730.36 102.794 730.616 91.2576 718.264 85.033 700.461 84.4676 698.8 85.7966 695.516 82.0422 695.606Z" stroke="#00C2A7" stroke-width="2.86368" stroke-linejoin="round" stroke-miterlimit="10" fill="none" fill-rule="evenodd"/><path d="M43.8162 713.368C46.9183 714.593 47.6202 717.827 49.2918 720.176 57.8854 732.172 66.2845 744.312 74.5953 756.514 75.4277 757.733 77.5041 759.18 75.6397 761.207 59.0966 757.103 40.9659 742.569 41.0657 724.774 41.047 720.805 41.9901 716.891 43.8162 713.368Z" stroke="#00C2A7" stroke-width="2.86368" stroke-linejoin="round" stroke-miterlimit="10" fill="none" fill-rule="evenodd"/><path d="M391.802 801.183C393.379 797.091 396.59 794.129 399.338 790.931 407.827 781.173 416.722 771.791 425.515 762.273 426.839 760.833 428.053 759 430.432 760.619 433.621 779.148 419.665 792.873 404.55 797.477 400.288 798.739 396.229 800.621 391.802 801.183Z" stroke="#00C2A7" stroke-width="2.86368" stroke-linejoin="round" stroke-miterlimit="10" fill="none" fill-rule="evenodd"/><path d="M57.2287 859.729 61.1912 859.634C63.0649 858.806 64.3079 860.214 65.6549 861.005 75.5984 866.853 86.3759 867.804 97.5046 866.428 98.6313 866.292 99.8324 865.539 100.681 866.619 101.705 867.973 100.655 869.257 99.7715 870.041 95.5695 873.799 93.0591 879.499 87.1041 881.248 76.7549 879.146 66.215 878.199 55.7892 877.041 53.8017 876.821 51.7703 876.849 50.6594 874.745 52.5075 869.546 54.076 864.265 57.2287 859.729Z" stroke="#00C2A7" stroke-width="2.86368" stroke-linejoin="round" stroke-miterlimit="10" fill="none" fill-rule="evenodd"/><path d="M256.831 751.886C248.024 748.776 244.986 756.451 240.093 760.751 238.888 761.771 238.259 764.463 235.971 763.288 233.361 761.943 235.406 759.981 235.659 758.161 236.507 752.134 239.869 748.069 244.676 744.742 246.416 743.471 247.551 741.533 247.809 739.394 250.273 725.566 256.472 713.276 263.954 701.568 264.982 700.288 266.152 699.126 267.439 698.105 270.603 699.02 268.794 701.284 268.433 702.799 266.446 711.273 263.26 719.397 260.724 727.765 260.053 729.961 259.083 732.086 259.754 734.459 260.758 737.032 256.097 738.62 258.534 741.427 260.231 745.262 258.277 748.53 256.831 751.886Z" stroke="#00C2A7" stroke-width="2.86368" stroke-linejoin="round" stroke-miterlimit="10" fill="none" fill-rule="evenodd"/><path d="M101.581 766.501C99.5271 760.263 95.5864 754.815 90.3041 750.912 92.5527 743.82 97.6788 739.306 103.818 735.72 105.928 736.085 107.154 737.622 108.303 739.22 111.805 743.904 115.004 748.794 118.497 753.488 119.21 754.181 119.473 755.219 119.176 756.168 117.957 759.528 116.729 762.878 115.531 766.247 115.253 767.027 114.96 768.055 113.98 767.712 109.962 766.301 105.598 768.685 101.581 766.501Z" stroke="#00C2A7" stroke-width="2.86368" stroke-linejoin="round" stroke-miterlimit="10" fill="none" fill-rule="evenodd"/><path d="M50.7105 874.751C59.4201 875.861 68.1391 876.941 76.8399 878.091 80.4896 878.579 84.404 878.128 87.5016 880.809 85.7465 886.592 82.0019 891.57 76.9339 894.861 75.3256 893.095 73.1972 893.215 71.0316 893.019 63.3618 892.291 55.7298 891.482 48.058 890.674 47.389 885.07 49.3976 879.957 50.7105 874.751Z" stroke="#00C2A7" stroke-width="2.86368" stroke-linejoin="round" stroke-miterlimit="10" fill="none" fill-rule="evenodd"/><path d="M373.472 739.179C377.033 738.46 378.329 735.019 380.79 733.057 382.911 731.38 383.99 728.421 387.101 727.95 391.616 728.348 396.016 729.587 400.075 731.604 400.634 733.871 398.984 734.505 397.415 735.197 395.138 736.163 394.858 738.519 393.92 740.365 391.217 745.647 387.476 750.328 382.92 754.129 375.887 760.146 367.717 759.628 359.483 759.339 357.786 759.28 355.619 758.202 358.094 756.398 364.241 751.9 368.581 746.047 372.141 739.479 372.319 739.039 372.934 739.044 373.472 739.179Z" stroke="#00C2A7" stroke-width="2.86368" stroke-linejoin="round" stroke-miterlimit="10" fill="none" fill-rule="evenodd"/><path d="M397.151 734.647C398.435 733.991 399.458 732.918 400.052 731.604 406.381 733.462 412.215 736.709 417.13 741.108 410.443 747.067 405.164 754.28 399.772 761.348 397.833 763.169 395.662 761.892 393.646 761.733 389.236 761.372 384.873 760.485 380.47 759.966 378.919 759.785 376.266 758.699 378.776 757.142 387.527 751.659 392.158 743.063 397.151 734.647Z" stroke="#00C2A7" stroke-width="2.86368" stroke-linejoin="round" stroke-miterlimit="10" fill="none" fill-rule="evenodd"/><path d="M137.508 859.79C147.106 862.811 157.206 862.362 167 864.04 168.761 864.345 170.533 864.63 172.304 864.905 169.476 871.019 166.386 876.941 161.809 882.007 157.416 880.278 152.683 880.49 148.132 879.608 146.512 879.37 144.89 880.085 143.973 881.442 140.664 880.679 140.27 877.457 139.392 875.158 137.55 870.246 134.715 865.278 137.508 859.79Z" stroke="#00C2A7" stroke-width="2.86368" stroke-linejoin="round" stroke-miterlimit="10" fill="none" fill-rule="evenodd"/><path d="M162.591 748.19C162.77 751.516 164.544 754.011 166.634 756.43 168.26 758.277 169.733 760.254 171.038 762.341 173.896 767.041 173.562 767.564 168.018 767.875L151.821 768.263C150.246 768.301 148.515 768.867 147.19 767.382 150.67 766.149 151.298 764.628 149.025 761.193 144.914 755.106 140.744 749.02 136.691 742.843 139.885 738.801 143.65 739.147 147.824 741.218 152.699 743.649 157.669 745.88 162.591 748.19Z" stroke="#00C2A7" stroke-width="2.86368" stroke-linejoin="round" stroke-miterlimit="10" fill="none" fill-rule="evenodd"/><path d="M322.647 727.517C321.143 726.789 320.246 725.74 320.997 723.988 327.306 709.265 330.587 693.526 336.226 678.571 336.85 676.921 336.922 674.917 339.263 674.593 345.008 680.641 344.766 687.913 343.187 695.256 340.292 708.469 332.608 718.744 322.647 727.517Z" stroke="#00C2A7" stroke-width="2.86368" stroke-linejoin="round" stroke-miterlimit="10" fill="none" fill-rule="evenodd"/><path d="M178.878 848.892C171.65 845.923 163.79 847.182 156.346 845.536 152.359 844.64 148.323 844.548 144.314 843.97 142.54 843.636 140.703 843.962 139.152 844.887 137.956 844.508 137.079 843.475 136.898 842.235 137.832 839.843 140.143 839.064 142.173 838.143 146.476 836.137 150.622 833.768 155.062 832.056 156.486 831.506 157.931 830.173 159.619 831.531 165.545 833.051 171.624 833.903 177.74 834.071 179.532 833.948 181.288 834.633 182.523 835.939 182.268 840.471 181.024 844.893 178.878 848.892Z" stroke="#00C2A7" stroke-width="2.86368" stroke-linejoin="round" stroke-miterlimit="10" fill="none" fill-rule="evenodd"/><path d="M356.146 802.036C352.496 801.132 348.62 801.115 345.177 799.325 346.681 793.014 353.151 786.634 357.844 786.819 358.692 787.473 358.629 788.585 359.135 789.415 358.866 788.53 358.893 787.587 358.594 786.712 357.53 783.645 355.746 780.773 355.932 777.339 358.375 771.73 363.165 768.136 367.39 764.06 368.412 763.191 369.79 762.86 371.096 763.168 376.012 765.668 380.454 768.624 381.658 774.573 375.303 780.137 369.525 786.33 364.416 793.055 361.954 796.227 358.462 798.6 356.146 802.036Z" stroke="#00C2A7" stroke-width="2.86368" stroke-linejoin="round" stroke-miterlimit="10" fill="none" fill-rule="evenodd"/><path d="M313.476 716.828C308.92 723.647 306.363 731.608 306.096 739.803 301.698 743.239 296.644 745.363 291.402 747.094 289.005 747.994 287.785 746.734 288.22 744.632 289.02 740.737 289.293 736.449 293.159 733.928 293.837 733.713 295.405 734.211 294.205 732.505 293.179 731.062 292.152 729.581 292.65 727.586 295.323 721.248 296.538 714.429 299.121 708.062 305.214 706.678 311.623 710.608 313.476 716.828Z" stroke="#00C2A7" stroke-width="2.86368" stroke-linejoin="round" stroke-miterlimit="10" fill="none" fill-rule="evenodd"/><path d="M259.397 734.977C256.646 732.703 258.552 730.328 259.231 728.042 262.089 718.781 264.98 709.537 267.904 700.308 268.181 699.419 268.214 698.724 267.397 698.159 269.556 692.675 274.568 689.611 278.305 685.478 279.727 684.141 281.267 682.936 282.907 681.878 284.592 683.533 284.103 685.468 283.564 687.364 281.078 696.147 278.812 705.003 275.367 713.481 274.572 715.277 274.258 717.249 274.453 719.203 274.51 721.59 272.869 723.017 271.438 724.538 267.88 728.51 263.833 732.018 259.397 734.977Z" stroke="#00C2A7" stroke-width="2.86368" stroke-linejoin="round" stroke-miterlimit="10" fill="none" fill-rule="evenodd"/><path d="M141.998 715.977C141.923 718.239 143.084 719.916 144.375 721.679 148.47 727.142 152.34 732.699 156.289 738.245 157.27 739.76 157.705 741.565 157.522 743.36L137.495 734.918C133.252 725.761 126.294 718.335 121.144 709.825 120.114 708.214 118.329 706.918 118.929 704.644 126.932 707.743 134.94 710.991 141.998 715.977Z" stroke="#00C2A7" stroke-width="2.86368" stroke-linejoin="round" stroke-miterlimit="10" fill="none" fill-rule="evenodd"/><path d="M336.194 796.566C331.231 795.031 326.506 792.808 322.159 789.963 320.727 788.114 321.54 786.459 322.846 785.119 329.125 778.665 334.562 771.418 341.297 765.388 347.767 766.929 351.674 771.167 353.813 777.281 346.552 782.441 341.844 789.918 336.194 796.566Z" stroke="#00C2A7" stroke-width="2.86368" stroke-linejoin="round" stroke-miterlimit="10" fill="none" fill-rule="evenodd"/><path d="M119.173 756.17 103.815 735.721C110.291 727.983 117.991 732.051 125.296 733.71 129.891 734.75 134.286 736.548 139.73 738.321 130.539 742.377 124.51 748.885 119.173 756.17Z" stroke="#00C2A7" stroke-width="2.86368" stroke-linejoin="round" stroke-miterlimit="10" fill="none" fill-rule="evenodd"/><path d="M256.828 751.884C255.658 748.155 259.631 744.77 257.558 740.963 256.831 739.167 258.338 738.328 259.204 737.247 262.977 732.527 267.561 728.581 271.679 724.191 274.945 720.693 278.339 720.869 282.311 724.482 279.414 733.472 276.727 742.547 273.669 751.452 268.109 753.974 262.455 752.156 256.828 751.884Z" stroke="#00C2A7" stroke-width="2.86368" stroke-linejoin="round" stroke-miterlimit="10" fill="none" fill-rule="evenodd"/><path d="M341.406 765.714C336.502 772.483 330.698 778.48 324.944 784.505 323.465 786.057 321.734 787.457 322.161 789.974 317.227 787.971 313.2 784.588 309.069 781.366 308.654 778.928 310.326 777.559 311.726 776.009 313.126 774.459 314.829 773.526 314.776 771.307 314.591 770.484 315.103 769.652 315.921 769.446 323.201 766.283 330.851 764.052 338.689 762.805 340.833 762.496 342.991 762.395 341.406 765.714Z" stroke="#00C2A7" stroke-width="2.86368" stroke-linejoin="round" stroke-miterlimit="10" fill="none" fill-rule="evenodd"/><path d="M297.549 672.61C303.183 670.022 309.141 668.212 315.263 667.23 314.819 670.185 313.15 672.822 310.668 674.487 308.787 675.384 309.87 677.162 309.614 678.477 308.144 686.589 305.014 694.311 300.423 701.158 298.115 704.564 294.366 706.111 291.118 708.32 290.045 709.039 288.619 709.539 287.51 708.337 286.585 707.367 287.101 706.146 287.591 705.103 290.921 698.015 292.077 690.395 293.103 682.738 295.119 679.607 295.934 675.94 297.549 672.61Z" stroke="#00C2A7" stroke-width="2.86368" stroke-linejoin="round" stroke-miterlimit="10" fill="none" fill-rule="evenodd"/><path d="M297.552 672.609C297.833 676.508 297.035 680.006 293.826 682.61 292.12 684.633 292.403 687.323 292.199 689.588 291.418 698.389 287.774 706 283.119 713.198 281.006 716.461 278.138 719.215 273.909 719.772 271.99 717.836 272.883 715.832 273.767 713.828 277.764 704.812 279.692 695.101 282.82 685.788 283.218 684.599 282.906 683.179 282.923 681.82 287.19 677.872 292.392 675.289 297.552 672.609Z" stroke="#00C2A7" stroke-width="2.86368" stroke-linejoin="round" stroke-miterlimit="10" fill="none" fill-rule="evenodd"/><path d="M356.144 802.034C357.863 795.154 364.508 791.991 368.182 786.481 370.653 783.096 373.454 779.964 376.543 777.132 377.792 775.802 379.456 774.934 381.262 774.67 384.875 777.369 387.126 780.705 386.476 785.449 380.349 788.728 377.147 794.901 372.512 799.66 371.951 800.229 371.213 800.871 371.571 801.745 372.045 802.923 373.217 802.578 374.138 802.575L381.014 802.411C377.544 804.476 373.756 803.576 370.134 803.395 365.401 803.22 360.765 802.479 356.144 802.034Z" stroke="#00C2A7" stroke-width="2.86368" stroke-linejoin="round" stroke-miterlimit="10" fill="none" fill-rule="evenodd"/><path d="M202.642 806.7C200.182 802.526 195.647 804.349 192.117 803.086 190.817 802.611 189.143 803.068 187.696 803.092 192.405 796.497 198.982 791.73 204.789 786.248 208.337 782.903 211.18 778.721 215.542 776.247 216.745 775.565 217.718 773.152 219.005 774.311 220.291 775.47 221.483 778.464 220.461 779.629 213.252 787.821 212.62 800.345 202.642 806.7Z" stroke="#00C2A7" stroke-width="2.86368" stroke-linejoin="round" stroke-miterlimit="10" fill="none" fill-rule="evenodd"/><path d="M136.694 742.862C142.196 746.626 144.457 752.866 148.187 757.981 148.987 759.007 149.677 760.113 150.249 761.282 151.033 762.998 153.66 764.244 152.59 766.311 151.519 768.379 148.988 767.012 147.145 767.433L135.306 767.716C131.403 762.853 128.602 757.221 125.02 752.102 128.061 747.886 131.778 744.556 136.694 742.862Z" stroke="#00C2A7" stroke-width="2.86368" stroke-linejoin="round" stroke-miterlimit="10" fill="none" fill-rule="evenodd"/><path d="M310.473 674.284C311.911 671.831 312.936 669.11 315.26 667.231 319.561 667.604 323.959 665.833 328.163 667.913 324.784 675.246 322.306 682.96 320.783 690.888 321.002 693.014 319.092 693.169 317.876 693.684 313.805 695.476 309.86 697.573 305.684 699.1 303.945 699.737 301.641 699.554 303.008 697.053 306.931 689.892 308.348 681.997 310.473 674.284Z" stroke="#00C2A7" stroke-width="2.86368" stroke-linejoin="round" stroke-miterlimit="10" fill="none" fill-rule="evenodd"/><path d="M273.667 751.482C272.893 747.277 274.967 743.64 276.195 739.883 277.895 734.698 278.584 729.101 281.933 724.52 287.527 723.811 292.922 728.084 294.059 734.142 290.159 736.883 290.578 741.571 289.064 745.374 288.549 746.645 290.233 746.991 291.405 747.082 285.862 749.765 279.821 751.264 273.667 751.482Z" stroke="#00C2A7" stroke-width="2.86368" stroke-linejoin="round" stroke-miterlimit="10" fill="none" fill-rule="evenodd"/><path d="M118.93 704.635C124.619 712.855 130.385 721.024 135.897 729.357 136.925 730.869 139.262 732.429 137.497 734.909 130.107 734.68 125.923 729.239 121.323 724.69 114.838 718.362 110.6 710.692 109.602 701.3 113.225 701.51 115.986 703.367 118.93 704.635Z" stroke="#00C2A7" stroke-width="2.86368" stroke-linejoin="round" stroke-miterlimit="10" fill="none" fill-rule="evenodd"/><path d="M88.3128 747.988C82.5345 742.502 77.9843 735.854 74.96 728.482 85.9811 728.011 96.9809 727.886 109.264 730.447 99.6031 734.326 93.6218 740.783 88.3128 747.988Z" stroke="#00C2A7" stroke-width="2.86368" stroke-linejoin="round" stroke-miterlimit="10" fill="none" fill-rule="evenodd"/><path d="M242.789 869.099C234.194 870.295 228.044 866.379 223.117 859.726 218.293 853.22 214.391 846.335 213.303 838.154 213.848 835.227 214.948 834.824 217.242 837.069 219.902 839.691 222.329 842.527 224.932 845.26 227.83 848.343 230.701 851.456 233.502 854.631 234.046 855.411 233.473 856.733 234.734 857.208 237.515 859.124 239.413 861.815 241.593 864.26 242.764 865.57 244.129 867.094 242.789 869.099Z" stroke="#00C2A7" stroke-width="2.86368" stroke-linejoin="round" stroke-miterlimit="10" fill="none" fill-rule="evenodd"/><path d="M211.038 826.319C208.49 819.659 210.264 813.015 211.126 806.373 211.241 805.379 211.388 804.464 211.513 803.499 211.847 803.128 212.319 802.912 212.817 802.9 213.316 802.888 213.797 803.082 214.148 803.436 217.684 807.049 222.231 809.834 223.922 815.037 222.79 816.621 220.988 816.684 219.244 817.132 220.238 817.247 221.122 816.918 222.045 816.966 228.049 819.34 231.395 824.107 233.692 829.821 232.144 833.466 229.651 835.716 225.441 835.45 221.268 830.881 218.074 825.407 212.669 821.571 211.562 822.946 212.626 825.171 211.038 826.319Z" stroke="#00C2A7" stroke-width="2.86368" stroke-linejoin="round" stroke-miterlimit="10" fill="none" fill-rule="evenodd"/><path d="M134.756 910.324C133.846 907.085 131.146 907.754 128.741 907.495 124.766 907.045 120.725 906.398 116.726 905.799 114.074 903.077 110.735 900.64 112.527 895.988 122.981 896.253 133.217 898.585 143.607 899.516 144.233 899.571 144.772 900.549 145.35 901.1L134.756 910.324Z" stroke="#00C2A7" stroke-width="2.86368" stroke-linejoin="round" stroke-miterlimit="10" fill="none" fill-rule="evenodd"/><path d="M211.038 826.316C211.218 823.913 210.476 821.452 211.572 818.373 216.579 823.834 222.699 827.732 225.131 834.9 224.293 836.357 222.403 835.629 221.446 836.693 223.833 836.588 226.112 837.723 227.466 839.691 229.797 843.055 233.623 845.134 235.429 848.957 235.716 851.408 235.543 853.702 233.604 855.523 227.547 850.95 223.04 844.872 218.011 839.343 215.628 836.703 215.186 836.436 213.364 838.185 211.371 834.426 211.047 830.399 211.038 826.316Z" stroke="#00C2A7" stroke-width="2.86368" stroke-linejoin="round" stroke-miterlimit="10" fill="none" fill-rule="evenodd"/><path d="M219.947 784.477C222.27 781.726 223.866 778.833 222.053 775.119 221.698 774.394 221.536 773.407 222.488 773.028 223.118 772.896 223.775 773.025 224.311 773.38 225.106 773.886 226.321 774.561 226.399 775.313 227.196 783.343 234.195 787.11 238.278 792.871 242.924 799.401 247.707 805.839 250.369 813.527 247.098 814.358 245.516 812.007 244.127 809.889 241.38 805.722 237.373 802.726 234.424 798.782 233.529 797.581 232.188 796.788 230.704 796.581 227.696 795.127 228.838 790.678 225.441 789.54 222.937 788.775 220.913 786.911 219.947 784.477Z" stroke="#00C2A7" stroke-width="2.86368" stroke-linejoin="round" stroke-miterlimit="10" fill="none" fill-rule="evenodd"/><path d="M336.193 796.565C338.219 789.687 344.171 785.718 348.286 780.416 349.574 778.74 351.03 777.039 353.555 777.316 356.933 779.733 358.183 783.063 357.755 787.128 355.001 786.797 353.612 788.813 352.166 790.523 349.747 793.386 347.498 796.384 345.18 799.314 342.1 798.604 338.948 798.194 336.193 796.565Z" stroke="#00C2A7" stroke-width="2.86368" stroke-linejoin="round" stroke-miterlimit="10" fill="none" fill-rule="evenodd"/><path d="M254.695 828.247C256.282 832.411 255.782 836.795 255.994 841.102 252.646 842.441 251.626 840.017 250.511 837.744 250.545 835.85 249.311 834.799 247.91 833.841 241.352 829.438 237.735 822.854 234.595 815.921 233.551 813.706 232.711 811.307 234.158 808.844 235.963 807.641 237.425 808.647 238.485 809.88 243.758 816.068 250.091 821.418 254.695 828.247Z" stroke="#00C2A7" stroke-width="2.86368" stroke-linejoin="round" stroke-miterlimit="10" fill="none" fill-rule="evenodd"/><path d="M254.696 828.249C248.645 823.943 244.531 817.737 239.371 812.528 237.889 811.037 236.86 809.049 234.408 808.92 231.266 805.178 229.523 801.107 231.128 796.112 232.553 794.373 233.502 795.887 234.266 796.741 237.758 800.622 241.319 804.442 244.461 808.56 246.118 810.701 247.739 812.585 250.338 813.485 252.324 818.225 254.361 822.974 254.696 828.249Z" stroke="#00C2A7" stroke-width="2.86368" stroke-linejoin="round" stroke-miterlimit="10" fill="none" fill-rule="evenodd"/><path d="M301.761 765.672C300.932 769.964 295.953 771.521 295.063 775.745L275.226 775.228C273.603 773.285 274.146 771.527 275.655 769.955 277.164 768.382 278.209 766.514 279.933 765.213 287.227 764.325 294.461 766.313 301.761 765.672Z" stroke="#00C2A7" stroke-width="2.86368" stroke-linejoin="round" stroke-miterlimit="10" fill="none" fill-rule="evenodd"/><path d="M223.656 815.116C219.599 811.248 217.079 805.807 211.484 803.512 212.251 799.707 213.495 796.014 215.185 792.52 215.56 792.145 216.064 791.929 216.594 791.917 217.249 791.901 217.872 792.197 218.273 792.714 222.753 798.069 228.418 802.463 231.274 809.115 230.553 813.355 227.881 815.233 223.656 815.116Z" stroke="#00C2A7" stroke-width="2.86368" stroke-linejoin="round" stroke-miterlimit="10" fill="none" fill-rule="evenodd"/><path d="M250.945 837.255C252.218 839.069 253.471 840.912 255.993 841.099 256.091 845.171 256.517 849.284 254.297 853.035L253.606 852.754C246.547 847.709 240.722 841.633 237.07 833.613 235.738 830.774 235.315 827.59 235.861 824.502 236.035 823.507 237.061 821.619 237.978 823.104 241.402 828.652 247.104 832.064 250.945 837.255Z" stroke="#00C2A7" stroke-width="2.86368" stroke-linejoin="round" stroke-miterlimit="10" fill="none" fill-rule="evenodd"/><path d="M125.021 752.062C130.271 756.06 132.906 761.786 135.307 767.676 130.413 767.793 125.518 767.84 120.625 768.027 118.071 768.147 117.525 767.288 118.27 764.881 119.656 760.206 121.95 755.85 125.021 752.062Z" stroke="#00C2A7" stroke-width="2.86368" stroke-linejoin="round" stroke-miterlimit="10" fill="none" fill-rule="evenodd"/><path d="M254.297 853.033C254.109 857.149 252.442 861.062 249.605 864.049 246.143 860.226 243.304 855.893 239.414 852.398 238.187 851.267 237.024 851.543 235.853 851.095 235.221 847.849 236.115 844.636 236.117 841.394 236.031 840.026 236.952 838.782 238.287 838.468 239.628 838.178 240.289 839.282 240.956 840.238 244.394 845.558 249.351 849.285 254.259 853.074L254.297 853.033Z" stroke="#00C2A7" stroke-width="2.86368" stroke-linejoin="round" stroke-miterlimit="10" fill="none" fill-rule="evenodd"/><path d="M279.946 765.203C279.706 767.191 279.048 769.12 277.199 770.126 274.986 771.269 275.182 773.247 275.23 775.228 271.073 775.09 267.892 772.638 264.485 770.698 260.854 768.774 257.332 766.652 253.935 764.339 262.666 764.249 271.32 763.853 279.946 765.203Z" stroke="#00C2A7" stroke-width="2.86368" stroke-linejoin="round" stroke-miterlimit="10" fill="none" fill-rule="evenodd"/><path d="M230.448 809.007C225.622 803.274 221.892 796.524 215.185 792.521L219.949 784.477C222.229 785.305 223.153 788.306 225.988 788.298 229.233 793.86 230.838 800.017 232.284 806.207 232.569 807.351 233.679 809.792 230.448 809.007Z" stroke="#00C2A7" stroke-width="2.86368" stroke-linejoin="round" stroke-miterlimit="10" fill="none" fill-rule="evenodd"/><path d="M236.418 851.477C237.282 851.129 237.632 849.178 239.105 850.669 243.107 854.727 247.995 858.089 249.575 864.039 248.013 866.693 245.918 868.636 242.759 869.158 241.317 864.008 236.957 861.168 233.56 857.562 235.073 855.742 234.412 852.952 236.418 851.477Z" stroke="#00C2A7" stroke-width="2.86368" stroke-linejoin="round" stroke-miterlimit="10" fill="none" fill-rule="evenodd"/><path d="M298.033 775.673C299.703 775.861 301.584 774.924 303.01 776.545 301.32 776.328 299.449 777.265 298.033 775.673Z" stroke="#00C2A7" stroke-width="2.86368" stroke-linejoin="round" stroke-miterlimit="10" fill="none" fill-rule="evenodd"/><path d="M159.635 831.507C151.778 834.53 143.676 837.281 137.111 842.95L136.758 843.553C134.219 845.527 131.236 846.837 128.748 848.879 122.235 853.426 115.753 857.992 109.976 863.483 109.677 863.821 109.353 864.137 109.008 864.428 99.7148 872.585 91.2124 881.6 83.6118 891.353 81.0501 894.487 79.3276 898.295 76.0684 900.871L72.1888 904.433C73.1736 900.028 75.2955 897.569 76.9162 894.874L87.4634 880.813 100.58 867.683C86.2565 869.721 73.2621 867.276 61.1845 859.635 61.3909 857.489 62.3488 857.753 63.7984 858.68 75.2047 866.01 87.5298 867.43 100.619 864.738 103.334 864.191 105.84 862.887 107.845 860.977 112.056 857.208 116.512 853.702 121.615 849.466 109.354 851.96 98.8198 849.605 88.5419 845.093 87.4378 843.276 84.3955 843.735 83.8402 841.241 84.7389 839.861 85.7119 840.74 86.3964 841.179 98.7331 849.3 112.191 850.009 125.893 846.39 130.286 845.234 134.088 841.743 138.071 839.16 139.604 838.191 140.994 837.028 142.852 836.795 151.489 832.386 160.021 827.721 169.334 825.05L169.96 826.373 159.635 831.507Z" stroke="#00C2A7" stroke-width="2.86368" stroke-linejoin="round" stroke-miterlimit="10" fill="none" fill-rule="evenodd"/><path d="M357.772 787.131C357.071 783.56 355.282 780.46 353.572 777.319 350.375 772.549 346.762 768.224 341.399 765.716 341.57 763.729 340.807 763.331 338.813 763.696 330.473 765.059 322.375 767.623 314.77 771.309 312.959 769.37 312.906 769.242 315.382 768.321 320.363 766.457 325.418 764.77 330.441 763.004 342.885 761.091 355.511 759.778 364.506 749.174 368.449 744.52 370.646 738.986 373.261 733.105 375.093 735.529 372.826 737.328 373.454 739.137 369.38 746.173 365.177 753.212 357.534 757.727 376.435 760.556 386.759 753.737 394.679 735.923 394.868 735.512 394.26 730.838 397.166 734.615 393.947 744.683 387.749 752.444 378.106 758.295L399.778 761.345C404.312 762.753 409.17 763.202 413.406 765.44L413.128 766.636 400.84 764.294C395.492 765.323 390.451 763.035 385.211 762.784 382.234 762.638 379.32 762.241 376.358 762.292 365.494 759.826 354.811 763.66 344.827 763.552 349.354 766.765 354.308 770.789 356.544 777.248 357.834 782.273 360.622 786.954 360.737 793.008 357.605 791.358 357.819 789.113 357.772 787.131Z" stroke="#00C2A7" stroke-width="2.86368" stroke-linejoin="round" stroke-miterlimit="10" fill="none" fill-rule="evenodd"/><path d="M375.974 760.922C384.383 760.792 392.765 761.927 400.836 764.292 398.464 769.999 393.119 773.22 389.484 777.886 388.802 778.775 388.059 779.625 387.346 780.485 386.009 780.953 385.567 779.893 385.2 779.059 382.702 773.261 378.548 768.672 374.403 764.053 374.03 762.545 374.781 761.625 375.974 760.922Z" stroke="#00C2A7" stroke-width="2.86368" stroke-linejoin="round" stroke-miterlimit="10" fill="none" fill-rule="evenodd"/><path d="M375.056 763.917C380.672 768.313 384.097 774.327 387.347 780.474 387.866 782.702 388.355 784.93 388.924 787.147 389.198 788.221 390.044 789.618 388.427 790.014 386.319 790.53 386.719 788.627 386.551 787.422 386.457 786.78 386.52 786.114 386.435 785.442 385.899 781.272 382.854 778.312 381.221 774.663 379.182 769.835 375.206 766.877 371.053 764.003 370.489 763.214 368.432 763.808 369.022 761.98 369.514 760.551 370.709 760.81 371.836 761.1 373.421 761.488 374.223 762.688 375.056 763.917Z" stroke="#00C2A7" stroke-width="2.86368" stroke-linejoin="round" stroke-miterlimit="10" fill="none" fill-rule="evenodd"/><path d="M108.854 863.451C114.342 857.075 121.322 852.586 128.312 848.117 131.848 846.743 134.619 847.371 136.224 851.099 136.574 859.07 136.103 867.151 139.24 874.817 139.45 875.43 139.324 876.112 138.907 876.609 128.979 876.004 118.948 875.58 109.151 873.356 106.812 870.082 110.3 866.687 108.854 863.451Z" stroke="#00C2A7" stroke-width="2.86368" stroke-linejoin="round" stroke-miterlimit="10" fill="none" fill-rule="evenodd"/><path d="M108.857 863.447C110.654 863.583 110.925 864.548 110.537 866.163 109.96 868.536 109.581 870.954 109.123 873.353 109.545 881.025 108.189 888.988 112.591 896.069 112.418 900.038 115.962 902.342 116.791 905.881L114.809 905.928C110.523 902.859 109.424 897.919 107.454 893.486 105.533 886.127 104.128 878.756 105.739 871.095 106.326 868.315 106.997 865.672 108.837 863.448L108.857 863.447Z" stroke="#00C2A7" stroke-width="2.86368" stroke-linejoin="round" stroke-miterlimit="10" fill="none" fill-rule="evenodd"/><path d="M138.904 876.609C135.416 868.376 135.296 859.666 135.315 850.923 135.248 848.109 134.792 845.215 137.107 842.95 137.162 842.943 137.218 842.939 137.273 842.938 138.273 842.914 139.116 843.717 139.14 844.717 139.141 844.772 139.139 844.828 139.136 844.884 137.63 849.699 137.078 854.764 137.51 859.791 137.697 867.578 139.32 874.963 143.976 881.444 144.34 882.585 145.663 883.633 144.066 885.238 141.588 882.73 140.665 879.372 138.904 876.609Z" stroke="#00C2A7" stroke-width="2.86368" stroke-linejoin="round" stroke-miterlimit="10" fill="none" fill-rule="evenodd"/><path d="M108.653 894.178 114.881 905.924C101.958 904.38 88.9078 903.314 76.1026 900.905 77.5059 896.985 80.4403 894.1 82.8598 890.831 91.5532 890.841 100.265 891.197 108.653 894.178Z" stroke="#00C2A7" stroke-width="2.86368" stroke-linejoin="round" stroke-miterlimit="10" fill="none" fill-rule="evenodd"/><path d="M294.067 734.147C291.468 729.124 287.571 725.748 281.941 724.525 277.568 722.38 273.958 722.278 270.467 726.782 266.564 731.832 261.893 736.305 257.564 740.968 256.133 740.814 255.248 740.3 256.352 738.797 257.312 737.485 258.373 736.25 259.393 734.977 263.315 729.035 270.189 725.907 273.898 719.761 286.427 711.482 290.356 698.78 291.896 684.836 292.083 683.156 292.083 683.156 293.825 682.619 294.038 691.535 291.538 699.733 287.317 708.477 295.65 705.453 300.46 700.173 303.727 692.958 306.986 685.969 308.687 678.356 308.714 670.645 311.036 671.581 310.172 673.168 310.497 674.3 310.446 682.955 307.411 690.749 302.932 699.113L320.786 690.885C323.863 690.236 326.781 688.709 331.454 688.895 327.166 691.971 323.228 692.283 319.877 693.9 313.929 698.85 306.267 700.54 300.439 704.684 305.127 705.89 310.581 707.237 313.392 712.859 314.805 715.155 316.855 717.147 317.208 720.311 314.581 720.285 314.439 718.107 313.447 716.823 309.905 712.11 305.732 708.404 299.364 708.239 290.836 708.076 286.519 714.92 280.064 719.386 284.832 722.305 290.452 723.102 292.894 728.218 293.997 729.996 295.139 731.753 296.194 733.571 296.649 734.363 297.329 735.447 295.812 735.85 294.532 736.208 294.239 735.134 294.067 734.147Z" stroke="#00C2A7" stroke-width="2.86368" stroke-linejoin="round" stroke-miterlimit="10" fill="none" fill-rule="evenodd"/><path d="M313.38 712.87C309.103 709.374 304.817 705.898 298.729 705.419 305.188 699.882 312.522 696.892 319.865 693.911 318.486 700.496 317.047 707.072 313.38 712.87Z" stroke="#00C2A7" stroke-width="2.86368" stroke-linejoin="round" stroke-miterlimit="10" fill="none" fill-rule="evenodd"/><path d="M375.059 763.918C373.963 763.261 372.886 762.563 371.77 761.935 371.057 761.526 370.087 761.193 369.795 762.25 369.688 762.719 370.607 763.43 371.057 764.034 364.638 765.437 362.398 771.666 357.977 775.37 357.435 775.945 356.956 776.574 356.545 777.247 352.024 772.648 348.928 766.715 342.948 763.299 354.092 761.734 364.864 758.74 375.998 760.912L375.059 763.918Z" stroke="#00C2A7" stroke-width="2.86368" stroke-linejoin="round" stroke-miterlimit="10" fill="none" fill-rule="evenodd"/><path d="M292.935 728.225C288.735 725.461 285.032 721.902 279.569 721.438 277.265 721.235 278.385 719.583 279.315 718.708 284.021 714.414 289.069 710.509 294.41 707.037 296.294 705.793 297.71 707.84 299.395 708.246 298.344 715.269 296.844 722.184 292.935 728.225Z" stroke="#00C2A7" stroke-width="2.86368" stroke-linejoin="round" stroke-miterlimit="10" fill="none" fill-rule="evenodd"/><path d="M236.419 851.483C236.048 853.782 236.539 856.496 233.59 857.498 232.464 856.851 233.488 856.152 233.542 855.517L234.367 848.558C233.688 844.203 233.869 839.778 233.591 834.769 228.723 838.444 223.464 837.817 218.231 837.01 219.6 833.329 222.848 835.69 225.118 834.863 228.629 834.531 231.07 832.569 232.925 829.72 234.658 824.266 232.474 819.164 231.597 813.178 228.985 817.096 225.306 817.462 221.733 818.093 219.663 818.142 217.498 818.412 215.622 815.414 218.842 816.576 221.16 815.281 223.643 815.063 226.209 813.366 229.967 812.999 230.435 808.953 233.384 807.892 231.272 805.801 230.934 804.54 229.505 799.053 227.702 793.714 225.975 788.244 230.113 789.255 228.532 794.011 231.118 796.051 231.453 800.513 233.305 804.602 234.398 808.858 235.303 818.898 240.627 826.393 248.235 832.446 251.611 835.141 251.888 835.134 250.936 837.199 245.69 833.359 240.832 829.164 236.99 822.724 235.922 832.344 240.746 838.414 245.807 844.468 248.399 847.559 252.51 849.106 254.287 852.978 247.063 850.544 243.06 844.425 237.912 837.629 237.331 843.184 236.884 847.318 236.419 851.483Z" stroke="#00C2A7" stroke-width="2.86368" stroke-linejoin="round" stroke-miterlimit="10" fill="none" fill-rule="evenodd"/><path d="M221.745 818.132C224.688 816.853 227.693 815.68 230.231 813.627 231.058 812.953 232.406 811.741 232.799 813.665 233.841 818.665 236.091 823.617 234.075 828.87 233.926 829.25 233.326 829.462 232.937 829.759 229.651 825.407 227.441 820.078 221.745 818.132Z" stroke="#00C2A7" stroke-width="2.86368" stroke-linejoin="round" stroke-miterlimit="10" fill="none" fill-rule="evenodd"/><path d="M218.231 836.987C228.142 836.889 228.142 836.889 234.963 831.988 234.706 837.842 236.321 843.176 234.368 848.536 231.933 846.195 228.835 844.346 227.374 841.259 225.401 837.113 221.099 838.772 218.231 836.987Z" stroke="#00C2A7" stroke-width="2.86368" stroke-linejoin="round" stroke-miterlimit="10" fill="none" fill-rule="evenodd"/><path d="M108.652 894.181C99.9803 893.398 91.2446 893.28 82.8002 890.835 90.4174 880.671 98.8259 871.251 108.908 863.447 105.553 873.618 106.374 883.867 108.652 894.181Z" stroke="#00C2A7" stroke-width="2.86368" stroke-linejoin="round" stroke-miterlimit="10" fill="none" fill-rule="evenodd"/><path d="M137.108 842.952C136.647 845.64 136.744 848.463 135.316 850.925 133.648 848.329 130.886 848.454 128.31 848.119 130.731 845.647 133.769 843.863 137.108 842.952Z" stroke="#00C2A7" stroke-width="2.86368" stroke-linejoin="round" stroke-miterlimit="10" fill="none" fill-rule="evenodd"/><path d="M88.8124 1348.72 115.47 1348.52C115.47 1345.84 115.51 1342.3 115.51 1340.07 115.51 1340.01 115.362 1340.05 115.287 1340.05L88.8124 1340.05C83.4352 1340.05 80.3315 1338.74 79.0911 1337.11 78.8838 1336.62 78.678 1336.13 78.678 1335.8 78.678 1335.31 78.8838 1334.82 79.0911 1334.33 80.3315 1332.69 83.4352 1331.39 88.8124 1331.39L109.914 1331.53C109.914 1333.82 109.841 1324.14 109.841 1322.72L88.8124 1322.72M88.8124 1322.72C79.0911 1322.72 72.6793 1325.83 69.5771 1329.91 68.3352 1331.71 67.5094 1333.67 67.5094 1335.8 67.5094 1337.76 68.3352 1339.73 69.5771 1341.52 72.6793 1345.61 79.0911 1348.72 88.8124 1348.72" stroke="#00C2A7" stroke-width="9.36949" stroke-miterlimit="8" fill="#FFFFFF" fill-rule="evenodd"/><path d="M281.505 1557.26C281.505 1598.27 241.694 1761.18 217.604 1779.39 210.254 1784.97 195.962 1785.3 188.204 1779.39 163.909 1761.34 124.301 1598.27 124.506 1557.26L124.506 1351.7 281.505 1351.7 281.505 1557.26Z" stroke="#00C2A7" stroke-width="13.0022" stroke-linejoin="round" stroke-miterlimit="10" fill="none" fill-rule="evenodd"/><path d="M115.505 1335.72 291.505 1335.72 291.505 1351.72 115.505 1351.72Z" stroke="#00C2A7" stroke-width="9.36949" stroke-linecap="round" stroke-linejoin="round" stroke-miterlimit="10" fill="none" fill-rule="evenodd"/><path d="M109.505 1319.72 297.505 1319.72 297.505 1335.72 109.505 1335.72Z" stroke="#00C2A7" stroke-width="9.36949" stroke-linecap="round" stroke-linejoin="round" stroke-miterlimit="10" fill="none" fill-rule="evenodd"/><path d="M136.506 1390.7 221.506 1390.7 136.506 1390.7ZM136.506 1497.12 221.506 1497.12 136.506 1497.12ZM136.506 1603.7 221.506 1603.7 136.506 1603.7Z" stroke="#00C2A7" stroke-width="13.0022" stroke-linejoin="round" stroke-miterlimit="10" stroke-opacity="0.8" fill="none" fill-rule="evenodd"/><path d="M1686.44 373.024C1685.34 373.005 1684.3 373.432 1683.51 374.213 1682.74 374.975 1682.31 376.033 1682.31 377.111 1682.31 461.049 1682.31 1801.95 1682.31 2172.05 1682.31 2196.97 1692.21 2220.88 1709.82 2238.49 1727.43 2256.12 1751.3 2266.02 1776.21 2266.02L2612.31 2266.02 2612.31 449.048C2612.31 409.308 2580.2 377.037 2540.5 376.851L1686.44 373.024Z" stroke="#00C2A7" stroke-width="18.7743" stroke-linecap="round" stroke-linejoin="round" stroke-miterlimit="10" fill="none" fill-rule="evenodd"/><path d="M1681.81 610.469 2611.81 610.469" stroke="#00C2A7" stroke-width="18.4373" stroke-linecap="round" stroke-linejoin="round" stroke-miterlimit="10" fill="none" fill-rule="evenodd"/><path d="M2734.64 372.023C2733.56 372.023 2732.5 372.45 2731.74 373.231 2730.95 373.994 2730.52 375.053 2730.52 376.131 2730.52 460.094 2730.52 1801.71 2730.52 2172 2730.52 2196.93 2740.42 2220.85 2758.05 2238.47 2775.68 2256.12 2799.59 2266.02 2824.51 2266.02L3698.52 2266.02 3698.52 448.124C3698.52 408.345 3666.38 376.057 3626.63 375.89L2734.64 372.023Z" stroke="#00C2A7" stroke-width="18.787" stroke-linecap="round" stroke-linejoin="round" stroke-miterlimit="10" fill="none" fill-rule="evenodd"/><path d="M2730.52 610.969 3698.52 610.969" stroke="#00C2A7" stroke-width="18.5022" stroke-linecap="round" stroke-linejoin="round" stroke-miterlimit="10" fill="none" fill-rule="evenodd"/></g></svg>