<svg width="4401" height="2033" xmlns="http://www.w3.org/2000/svg" xmlns:xlink="http://www.w3.org/1999/xlink" overflow="hidden"><defs><clipPath id="clip0"><rect x="0" y="187" width="4401" height="2033"/></clipPath></defs><g clip-path="url(#clip0)" transform="matrix(1 0 0 1 0 -187)"><text fill="#00B4DB" font-family="Avenir Next LT Pro Demi,Avenir Next LT Pro Demi_MSFontService,sans-serif" font-weight="600" font-size="110" transform="matrix(1 0 0 1 1226.18 907)">Parameter<tspan font-size="110" x="-17.2103" y="93">[</tspan><tspan font-size="110" x="18.8834" y="93">Extraction</tspan><tspan font-size="110" x="87.3584" y="185">buffer</tspan><tspan font-size="110" x="390.867" y="185">]</tspan><tspan font-family="Avenir Next LT Pro,Avenir Next LT Pro_MSFontService,sans-serif" font-weight="400" font-size="202" x="-101.979" y="699">Tris</tspan><tspan font-family="Avenir Next LT Pro,Avenir Next LT Pro_MSFontService,sans-serif" font-weight="400" font-size="202" x="207.602" y="699">-</tspan><tspan font-family="Avenir Next LT Pro,Avenir Next LT Pro_MSFontService,sans-serif" font-weight="400" font-size="202" x="272.342" y="699">HCl</tspan><tspan font-family="Avenir Next LT Pro,Avenir Next LT Pro_MSFontService,sans-serif" font-weight="400" font-size="202" x="833.135" y="699">10 ml</tspan><tspan font-family="Avenir Next LT Pro,Avenir Next LT Pro_MSFontService,sans-serif" font-weight="400" font-size="202" x="1676.61" y="700">30 </tspan></text><text fill="#00B4DB" font-family="Arial,Arial_MSFontService,sans-serif" font-weight="400" font-size="202" transform="translate(3186.96 1607)">°</text><text fill="#00B4DB" font-family="Avenir Next LT Pro,Avenir Next LT Pro_MSFontService,sans-serif" font-weight="400" font-size="202" transform="matrix(1 0 0 1 3267.74 1607)">C<tspan font-weight="700" font-size="202" x="651.865" y="-1">…</tspan><tspan font-family="Avenir Next LT Pro Demi,Avenir Next LT Pro Demi_MSFontService,sans-serif" font-weight="600" font-size="110" x="-1206.09" y="-700">Parameter</tspan><tspan font-family="Avenir Next LT Pro Demi,Avenir Next LT Pro Demi_MSFontService,sans-serif" font-weight="600" font-size="110" x="-1223.3" y="-607">[</tspan><tspan font-family="Avenir Next LT Pro Demi,Avenir Next LT Pro Demi_MSFontService,sans-serif" font-weight="600" font-size="110" x="-1187.2" y="-607">Extraction</tspan><tspan font-family="Avenir Next LT Pro Demi,Avenir Next LT Pro Demi_MSFontService,sans-serif" font-weight="600" font-size="110" x="-1321.54" y="-515">buffer</tspan><tspan font-family="Avenir Next LT Pro Demi,Avenir Next LT Pro Demi_MSFontService,sans-serif" font-weight="600" font-size="110" x="-990.532" y="-515">volume</tspan><tspan font-family="Avenir Next LT Pro Demi,Avenir Next LT Pro Demi_MSFontService,sans-serif" font-weight="600" font-size="110" x="-612.407" y="-515">]</tspan><tspan font-family="Avenir Next LT Pro Demi,Avenir Next LT Pro Demi_MSFontService,sans-serif" font-weight="600" font-size="110" x="-370.628" y="-700">Parameter</tspan><tspan font-family="Avenir Next LT Pro Demi,Avenir Next LT Pro Demi_MSFontService,sans-serif" font-weight="600" font-size="110" x="-464.976" y="-607">[</tspan><tspan font-family="Avenir Next LT Pro Demi,Avenir Next LT Pro Demi_MSFontService,sans-serif" font-weight="600" font-size="110" x="-428.882" y="-607">Temperature</tspan><tspan font-family="Avenir Next LT Pro Demi,Avenir Next LT Pro Demi_MSFontService,sans-serif" font-weight="600" font-size="110" x="201.945" y="-607">]</tspan><tspan font-family="Avenir Next LT Pro Demi,Avenir Next LT Pro Demi_MSFontService,sans-serif" font-weight="600" font-size="110" x="458.689" y="-700">Parameter</tspan><tspan font-family="Avenir Next LT Pro Demi,Avenir Next LT Pro Demi_MSFontService,sans-serif" font-weight="600" font-size="110" x="624.743" y="-607">[…]</tspan></text><text fill="#00B4DB" font-family="Avenir Next LT Pro Demi,Avenir Next LT Pro Demi_MSFontService,sans-serif" font-weight="600" font-size="110" transform="matrix(0.99672 0.0809241 -0.0809241 0.99672 2289 331)">Extraction<tspan font-size="110" x="540.111" y="-0.710323">protocol</tspan></text><text fill="#00B4DB" font-family="Avenir Next LT Pro Demi,Avenir Next LT Pro Demi_MSFontService,sans-serif" font-weight="600" font-size="110" transform="matrix(1 0 0 1 135.609 360)">Parameter name<tspan font-size="110" x="139.517" y="106">In </tspan>brackets</text><path d="M896.277 1032.11 941.797 1003.99 913.673 958.467 896.277 1032.11Z" stroke="#00B4DB" stroke-width="13.4259" stroke-linecap="round" stroke-miterlimit="8" fill="none" fill-rule="evenodd"/><path d="M904.975 995.289C488.87 895.932 497.884 864.214 538.986 552.517" stroke="#00B4DB" stroke-width="13.4259" stroke-linecap="round" stroke-linejoin="round" stroke-miterlimit="10" stroke-dasharray="26.8518 26.8518" fill="none" fill-rule="evenodd"/><path d="M866.946 1451.62C863.995 1449.65 860.203 1449.46 857.078 1451.14 853.951 1452.82 852 1456.09 852 1459.65L852 1633.35C852 1636.91 853.951 1640.18 857.078 1641.86 860.203 1643.54 863.995 1643.35 866.946 1641.38L996.72 1554.53C999.394 1552.74 1001 1549.73 1001 1546.5 1001 1543.27 999.394 1540.26 996.72 1538.47L866.946 1451.62ZM871.227 1477.68 974.059 1546.5C974.059 1546.5 871.227 1615.32 871.227 1615.32L871.227 1477.68Z" fill="#00B4DB" fill-rule="evenodd"/><path d="M729.629 1556 861.371 1556C866.685 1556 871 1551.52 871 1546 871 1540.48 866.685 1536 861.371 1536L729.629 1536C724.315 1536 720 1540.48 720 1546 720 1551.52 724.315 1556 729.629 1556Z" fill="#00B4DB" fill-rule="evenodd"/><path d="M334.603 1967C320.267 1976.07 306.176 1985.68 289.785 1989.82 238.629 2002.77 192.963 1970.55 180.183 1910.74 164.354 1836.69 179.901 1769.17 218.583 1707.24 221.577 1702.39 224.993 1697.78 228.203 1693.07 229.06 1686.36 232.972 1681.83 237.04 1677.19 271.387 1637.13 316.54 1610.21 365.835 1600.4 377.802 1597.95 385.068 1592.22 389.155 1579.74 399.821 1547.21 412.889 1515.69 423.823 1482.15 397.232 1497.01 369.216 1503.51 342.681 1514.49 305.937 1529.65 269.952 1546.94 234.876 1566.3 229.78 1569.03 224.973 1572.99 218.593 1571.14 191.086 1581.97 163.991 1594.25 134.79 1599.06 109.321 1603.23 84.0628 1603.47 59.4629 1593.93 30.2936 1582.63 8.99904 1562.39 4.48335 1527.22-0.0319862 1492.05 15.0658 1464.99 39.591 1443.91 65.1922 1421.71 95.7928 1415.53 127.203 1412.51 149.445 1410.37 171.783 1409.7 194.097 1410.47 207.673 1410.95 233.195 1406.67 231.125 1408.91 282.803 1410.3 332.541 1423.68 383.249 1428.34 397.084 1429.26 410.959 1429.25 424.796 1428.32 430.759 1428.34 436.153 1424.32 438.343 1418.23 444.813 1403.34 451.251 1388.44 457.658 1373.52 459.616 1368.89 460.072 1363.65 458.952 1358.69 454.828 1339.29 453.197 1319.36 454.105 1299.46 454.639 1289.59 458.183 1275.98 458.481 1268.84 463.9 1220.2 479.533 1176.31 510.365 1139.97 521.067 1127.12 533.833 1116.55 548.023 1108.8 588.277 1087.01 623.133 1105.95 631.831 1154.72 633.464 1164.2 634.411 1173.81 635.66 1183.35 637.293 1187.03 636.669 1190.85 636.479 1194.65 626.671 1269.71 592.453 1327.94 535.668 1370.43 524.753 1378.49 512.529 1384.17 499.662 1387.17 490.015 1389.51 484.768 1395.15 484.318 1407.07 503.168 1402.32 519.916 1392.02 537.72 1385.03 554.703 1378.39 571.053 1369.75 588.117 1363.24 595.71 1360.33 600.596 1355.73 602.065 1346.63 609.791 1299.25 630.294 1259.42 661.597 1225.94 687.006 1199.77 717.22 1183.68 750.695 1174.4 757.514 1173.58 761.237 1170.48 758.125 1162.13 757.498 1160.43 757.521 1157.93 760.257 1157.54 764.263 1172.37 772.965 1174.92 786.21 1173.08 803.865 1170.93 821.735 1173.2 838.472 1179.74 888.113 1198.11 906.686 1250.33 881.451 1300.73 870.709 1322.18 855.331 1339.1 837.347 1353.28 836.686 1356.15 835.31 1358.75 833.377 1360.81 814.981 1375.06 794.668 1386.05 773.173 1393.4 748.404 1401.4 723.211 1407.06 697.145 1407.39 675.851 1407.68 654.709 1406.11 634.24 1399.79 624.613 1396.57 614.231 1397.36 605.104 1402.02 593.615 1407.69 582.49 1414.36 569.901 1416.97 568.598 1417.93 470.588 1443.9 473.991 1444.71 470.962 1465.92 490.442 1478.24 508.821 1487.26 530.229 1496.8 586.983 1562.84 597.212 1600.52 603.623 1619.45 603.838 1640.26 597.818 1659.36 589.414 1676.44 575.945 1683.63 558.743 1683.51 534.322 1681.63 514.826 1668.63 498.184 1650.05 476.932 1626.31 458.504 1600.4 449.816 1567.67 449.455 1565.45 447.742 1563.8 445.701 1563.68 439.302 1582.2 430.829 1600.12 426.046 1619.68 425.275 1624.3 425.612 1629.06 427.028 1633.49 435.554 1670.05 438.909 1707.83 436.976 1745.51 432.177 1804.64 416.029 1859.61 385.916 1909.23 375.085 1927.76 361.928 1944.52 346.837 1959.01 343.833 1962.3 340.225 1964.85 336.253 1966.49L334.603 1967Z" stroke="#00B4DB" stroke-width="6.94393" stroke-linejoin="round" stroke-miterlimit="10" fill="none" fill-rule="evenodd"/><path d="M137.088 1550.04C136.86 1560.32 136.124 1570.68 141.905 1581.67 146.115 1571.83 140.679 1562.78 144.086 1554.67 144.296 1554.33 144.436 1553.72 144.706 1553.63 155.188 1550.84 180.548 1567.48 183.332 1579.03 163.997 1587.69 144.195 1594.08 123.145 1594.29 114.938 1585.9 105.26 1580.05 95.5929 1573.94 66.4177 1555.62 37.1189 1537.19 9.00839 1516.75 7.4349 1498.41 14.5286 1483.35 23.9338 1469.14 28.308 1463.97 33.1025 1466.18 37.4597 1468.63 54.2089 1478.05 70.3351 1488.79 86.3889 1499.54 95.2388 1505.5 94.6834 1508.54 85.8148 1513.8 80.1628 1517.14 73.5536 1518.72 68.949 1524.13 65.5291 1526.81 60.4324 1527.11 57.5746 1534.02 70.3063 1530.9 79.4547 1523.31 89.7045 1518.73 105.66 1528.91 121.858 1538.6 137.088 1550.04Z" stroke="#00B4DB" stroke-width="6.94393" stroke-linejoin="round" stroke-miterlimit="10" fill="none" fill-rule="evenodd"/><path d="M207.607 1738.56C215.264 1718.56 227.25 1701.82 241.121 1686.78 247.969 1678.66 257.165 1675.71 266.423 1672.89 301.6 1662.16 335.755 1648.07 370.48 1635.91 381.44 1632.07 392.6 1629.03 403.521 1625.05 409.084 1623 416.279 1621.04 417.12 1632.01 420.756 1638.89 422.48 1646.8 422.077 1654.74 405.17 1660.69 389.219 1670.53 370.748 1670.18 366.983 1668.53 368.041 1665.82 369.695 1663.24 372.338 1659.32 375.236 1655.62 378.367 1652.17 368.163 1664.88 358.102 1677.74 348.338 1690.8 345.275 1694.95 342.782 1699.98 337.077 1700.5 317.711 1702.01 300.049 1710.37 281.948 1716.93 261.258 1724.42 240.247 1730.79 219.627 1738.56 215.72 1740.06 211.64 1741.34 207.607 1738.56Z" stroke="#00B4DB" stroke-width="6.94393" stroke-linejoin="round" stroke-miterlimit="10" fill="none" fill-rule="evenodd"/><path d="M832.73 1349.82C826.594 1356.79 818.562 1360.24 810.835 1364.38 806.186 1369.7 799.624 1371.18 794.048 1374.65 789.796 1377.27 786.378 1374.79 787.309 1370.39 791.337 1352.4 791.329 1332.64 804.857 1318.51 806.806 1318.37 808.259 1319.32 809.832 1321.82 807.815 1315.65 802.148 1313.22 801.196 1307.36 803.346 1288.51 810.796 1271.32 815.427 1253.24 821.11 1248.21 828.299 1248.44 834.151 1246.46 826.824 1246.56 819.207 1252.29 810.854 1248.97 809.871 1248.27 809.261 1247.09 809.214 1245.8 811.518 1224.75 817.359 1204.63 824.21 1184.98 824.886 1183.36 826.403 1182.35 828.026 1182.43 846.715 1186.23 863.525 1197.36 875.308 1213.74 871.159 1218.79 868.207 1224.88 866.713 1231.48 857.81 1268.22 844 1303.32 836.245 1340.43 835.535 1343.75 834.348 1346.92 832.73 1349.82Z" stroke="#00B4DB" stroke-width="6.94393" stroke-linejoin="round" stroke-miterlimit="10" fill="none" fill-rule="evenodd"/><path d="M378.597 1903.69C363.091 1932.42 343.091 1956.78 316.735 1972.95 286.38 1991.73 244.512 1997.33 212.303 1962.17 213.08 1956.09 217.353 1954.05 221.777 1952.4 269.68 1934.53 317.363 1915.87 366.265 1901.42 370.428 1900.17 375.28 1897.92 378.597 1903.69Z" stroke="#00B4DB" stroke-width="6.94393" stroke-linejoin="round" stroke-miterlimit="10" fill="none" fill-rule="evenodd"/><path d="M609.399 1390.4 603.164 1393.74C597.415 1382.29 605.366 1373.2 607.577 1363.11 612.68 1328.23 621.943 1295.31 640.582 1266.01 654.615 1243.39 672.712 1224.15 693.757 1209.5 695.427 1218.08 692.296 1225.8 689.869 1233.49 681.481 1260.04 673.402 1286.7 666.518 1313.85 665.36 1318.43 664.08 1322.73 666.916 1327.04 663.338 1338.45 652.282 1342.17 646.337 1351.15 644.136 1354.48 638.638 1356.41 642.317 1362.33 645.685 1372.93 639.193 1381.95 638.359 1391.9 632.48 1390.24 626.273 1390.52 620.823 1387.16 616.429 1385.95 613.67 1391.39 609.399 1390.4Z" stroke="#00B4DB" stroke-width="6.94393" stroke-linejoin="round" stroke-miterlimit="10" fill="none" fill-rule="evenodd"/><path d="M417.217 1631.82C411.068 1621.17 403.578 1628.56 397.107 1630.67 374.967 1637.92 353.008 1645.8 331.058 1653.7 300.997 1664.54 271.006 1675.64 241.006 1686.61 255.927 1665.9 275.314 1650.91 295.728 1637.87 321.59 1621.26 350.305 1610.71 380.067 1606.86 385.853 1606.11 388.831 1603.84 390.829 1597.8 393.699 1589.16 397.661 1580.94 401.149 1572.53 408.355 1561.2 419.762 1560.83 430.601 1559.34 433.676 1558.91 436.754 1560.28 436.35 1564.99 430.285 1581.6 424.571 1598.37 417.95 1614.73 415.59 1620.76 418.571 1626.19 417.217 1631.82Z" stroke="#00B4DB" stroke-width="6.94393" stroke-linejoin="round" stroke-miterlimit="10" fill="none" fill-rule="evenodd"/><path d="M207.723 1738.69C231.957 1730.43 256.184 1722.18 280.403 1713.93 296.314 1708.46 312.083 1702.63 328.103 1697.53 331.806 1696.05 335.957 1696.79 339.048 1699.47 320.536 1749.5 277.827 1777.39 231.43 1772.92 230.513 1772.82 229.55 1772.15 228.605 1772.86 229.725 1773.12 230.762 1773.7 231.611 1774.54 233.03 1776.17 231.965 1777.58 231.23 1779.04 217.564 1788.33 203.689 1796.86 186.691 1794.93 190.67 1774.99 197.788 1755.96 207.723 1738.69Z" stroke="#00B4DB" stroke-width="6.94393" stroke-linejoin="round" stroke-miterlimit="10" fill="none" fill-rule="evenodd"/><path d="M423.243 1784.23C421.025 1805.85 415.561 1826.91 407.073 1846.56 382.048 1855.09 357.324 1864.7 331.867 1871.73 313.633 1860.88 306.9 1841.77 301.795 1821.45 302.923 1818.24 305.565 1815.95 308.672 1815.5 328.017 1810.15 346.083 1800.65 365.306 1795.09 372.183 1793.73 376.501 1798.87 381.361 1802.72 382.164 1803.37 382.216 1803.31 383.267 1799.46 390.3 1787.71 409.486 1780.44 423.243 1784.23Z" stroke="#00B4DB" stroke-width="6.94393" stroke-linejoin="round" stroke-miterlimit="10" fill="none" fill-rule="evenodd"/><path d="M376.002 1492.78C359.668 1500.86 342.454 1505.97 325.37 1511.55 330.344 1504.77 328.925 1499.93 322.072 1495.85 316.766 1492.71 311.052 1490.27 306.027 1486.67 301.003 1483.07 293.815 1480.71 294.836 1471.43L315.704 1473.32 316.023 1469.92C304.394 1464.47 291.411 1468.6 279.431 1465.55 263.491 1453.29 246.939 1442.04 229.848 1431.84 225.015 1428.79 218.907 1426.67 220.146 1418.29 246.184 1415.58 271.625 1422.02 297.326 1424.81 321.206 1438.74 343.903 1454.86 367.238 1469.81 371.201 1472.34 375.133 1474.92 378.805 1477.72 381.596 1479.93 384.943 1482.22 384.462 1486.47 383.951 1491.75 379.938 1492.53 376.002 1492.78Z" stroke="#00B4DB" stroke-width="6.94393" stroke-linejoin="round" stroke-miterlimit="10" fill="none" fill-rule="evenodd"/><path d="M186.529 1795.13C202.358 1790.62 217.71 1784.28 232.326 1776.2 238.294 1770.97 245.647 1773.25 252.272 1772.24 269.036 1769.82 285.14 1763.47 299.497 1753.62 301.74 1752.1 303.749 1748.95 306.443 1751.48 308.757 1753.68 307.617 1757.05 306.679 1759.89 287.004 1815.49 261.383 1838.28 201.689 1838.86 197.147 1838.92 192.349 1837.4 188.689 1841.9 186.33 1844.42 182.904 1845.34 179.76 1844.28 179.115 1827.31 183.221 1811.28 186.529 1795.13Z" stroke="#00B4DB" stroke-width="6.94393" stroke-linejoin="round" stroke-miterlimit="10" fill="none" fill-rule="evenodd"/><path d="M379.143 1903.8C360.856 1904.11 344.26 1912.28 327.241 1917.93 291.769 1929.66 256.919 1943.59 221.648 1956.06 217.699 1957.44 215.157 1960.13 211.938 1962.16 201.065 1952.6 196.353 1938.71 190.516 1925.59 194.199 1919.21 200.87 1918.16 206.44 1916.2 222.028 1910.69 236.799 1901.61 253.79 1901.46 260.31 1906.67 256.32 1913.69 257.003 1919.51 255.063 1920.94 258.436 1921.4 257.223 1920.35 257.152 1920.2 257.382 1919.96 257.926 1919.33 259.048 1918.12 260.358 1917.14 261.796 1916.44 289.478 1905.85 317.619 1897.11 345.413 1886.77 347.182 1885.83 348.952 1884.88 350.803 1884.12 360.917 1880.27 371.272 1877.24 381.527 1873.88 386.171 1872.33 392.317 1869.81 394.027 1878.81L379.143 1903.8Z" stroke="#00B4DB" stroke-width="6.94393" stroke-linejoin="round" stroke-miterlimit="10" fill="none" fill-rule="evenodd"/><path d="M665.738 1326.68C657.665 1328.35 661.115 1322.62 662.065 1319.24 669.278 1293.9 676.676 1268.62 684.001 1243.29 687.23 1232.12 690.45 1220.94 693.664 1209.78 710.705 1201.18 726.716 1190.03 745.193 1184.91 747.472 1184.25 749.447 1182.91 751.749 1184.22 749.291 1195.57 745.124 1206.31 741.595 1217.27 740.246 1221.42 738.807 1226.3 733.144 1225.35 731.862 1225.42 730.41 1222.6 730.483 1223.64 732.615 1246.7 726.598 1269.8 713.692 1288.1 701.678 1306.07 684.932 1319.54 665.738 1326.68Z" stroke="#00B4DB" stroke-width="6.94393" stroke-linejoin="round" stroke-miterlimit="10" fill="none" fill-rule="evenodd"/><path d="M614.935 1251.89C608.672 1268.25 602.223 1284.48 591.75 1298.32 589.825 1297.99 588.179 1296.61 587.395 1294.65 582.13 1276.03 577.735 1257.35 582.61 1237.74 584.522 1235.78 586.6 1235.94 589.812 1237.9 586.096 1233.29 580.766 1232.3 579.293 1227 579.568 1210.2 575.681 1193.76 575.159 1177.02 577.456 1170.52 581.778 1165.11 587.353 1161.78 582.547 1162.27 580.686 1171.19 574.016 1168.46 566.322 1149.47 565.873 1129.35 566.138 1109.1 566.15 1107.79 567.511 1107.26 568.672 1106.98 579.248 1102.44 589.141 1104.78 598.649 1110.72 600.137 1149.97 606.431 1188.68 610.53 1227.55 611.378 1235.56 610.129 1244.41 614.935 1251.89Z" stroke="#00B4DB" stroke-width="6.94393" stroke-linejoin="round" stroke-miterlimit="10" fill="none" fill-rule="evenodd"/><path d="M376.713 1492.51C385.023 1488.66 386.006 1485.25 377.253 1479.75 354.476 1465.42 332.045 1450.48 309.594 1435.55 305.146 1432.61 299.486 1431 297.597 1424.61 332.948 1429.61 367.994 1437.51 403.808 1438.45 414.844 1438.76 424.079 1445.98 432.315 1453.62 437.984 1458.9 435.149 1465.45 430.42 1468.54 413.904 1479.86 395.736 1487.97 376.713 1492.51Z" stroke="#00B4DB" stroke-width="6.94393" stroke-linejoin="round" stroke-miterlimit="10" fill="none" fill-rule="evenodd"/><path d="M427.461 1688.84C429.553 1703.58 431.665 1718.31 429.138 1733.25 428.04 1735.51 426.162 1737.2 423.927 1737.93 403.481 1744.94 383.559 1753.82 362.781 1759.67 358.355 1761.23 353.581 1761.15 349.202 1759.45 339.426 1749.12 336.904 1736.02 337.23 1721.83 339.004 1715.41 343.613 1712.92 348.965 1710.95 370.022 1703.16 391.441 1696.6 412.224 1687.96 417.173 1685.83 422.595 1684.24 427.461 1688.84Z" stroke="#00B4DB" stroke-width="6.94393" stroke-linejoin="round" stroke-miterlimit="10" fill="none" fill-rule="evenodd"/><path d="M68.7484 1524.32C73.8089 1515.47 84.183 1515.65 90.7006 1508.92 87.3345 1500.66 79.319 1499.45 73.3974 1495.5 61.0393 1487.1 48.3854 1479.18 35.6778 1471.44 32.101 1469.22 28.0036 1467.05 23.5946 1469.4 33.3965 1453.61 46.938 1442.78 62.3791 1434.54 65.8351 1435.21 69.2183 1432.47 72.7749 1434.65 89.2463 1461.82 112.824 1478.11 141.5 1487.04 115.696 1497.27 92.8442 1512.16 68.7484 1524.32Z" stroke="#00B4DB" stroke-width="6.94393" stroke-linejoin="round" stroke-miterlimit="10" fill="none" fill-rule="evenodd"/><path d="M72.87 1434.6C69.5544 1436.16 65.7919 1436.12 62.5051 1434.49 80.9872 1424.21 101.214 1421.62 121.272 1418.19 125.909 1417.18 130.664 1419.33 133.309 1423.63 148.702 1446.9 171.08 1463.51 196.5 1470.52 151.112 1494.06 114.545 1477.59 83.9605 1442.73 81.1394 1439.46 80.7656 1430.38 72.87 1434.6Z" stroke="#00B4DB" stroke-width="6.94393" stroke-linejoin="round" stroke-miterlimit="10" fill="none" fill-rule="evenodd"/><path d="M8.86047 1516.92C16.6281 1516.46 21.26 1523.26 27.0881 1526.95 56.9701 1545.77 86.5781 1565.12 116.06 1584.72 119.009 1586.67 124.819 1587.83 122.835 1594.56 83.7686 1602.68 31.1983 1588.15 14.1139 1546.49 10.2171 1537.25 8.41307 1527.1 8.86047 1516.92Z" stroke="#00B4DB" stroke-width="6.94393" stroke-linejoin="round" stroke-miterlimit="10" fill="none" fill-rule="evenodd"/><path d="M832.731 1349.5C832.098 1338.34 836.029 1328.06 838.75 1317.73 847.273 1286.09 857.021 1254.89 866.421 1223.48 867.829 1218.74 868.625 1213.2 875.244 1214.43 900.031 1253.99 883.77 1300.63 856.176 1327.37 848.36 1334.82 841.578 1343.49 832.731 1349.5Z" stroke="#00B4DB" stroke-width="6.94393" stroke-linejoin="round" stroke-miterlimit="10" fill="none" fill-rule="evenodd"/><path d="M179.364 1844.28 187.737 1839.81C190.928 1835.86 194.962 1837.82 198.614 1838.23 225.583 1841.24 249.538 1831.91 271.964 1816.76 274.238 1815.24 276.067 1812.19 278.938 1813.8 282.45 1815.87 281.464 1820 280.346 1822.78 275.049 1836.08 275.268 1852.11 264.258 1862.58 240.091 1868.76 216.647 1877.85 193.241 1886.32 188.779 1887.93 184.467 1890.18 180.033 1886.45 178.891 1872.3 177.071 1858.27 179.364 1844.28Z" stroke="#00B4DB" stroke-width="6.94393" stroke-linejoin="round" stroke-miterlimit="10" fill="none" fill-rule="evenodd"/><path d="M498.295 1379.4C476.57 1381.57 477.59 1402.73 471.386 1418.01 469.821 1421.68 471.104 1428.63 465.103 1428.34 458.254 1427.99 460.685 1421.22 459.453 1416.7 455.386 1401.73 458.568 1388.64 465.537 1375.73 467.994 1370.91 468.518 1365.17 466.984 1359.9 458.76 1324.98 459.959 1289.66 464.45 1254.33 465.389 1250.24 466.741 1246.28 468.48 1242.52 476.089 1241.27 474.45 1248.49 475.16 1252.41 479.185 1274.32 480.328 1296.69 483.087 1318.93 483.801 1324.78 483.809 1330.78 487.543 1335.6 492.177 1340.53 483.828 1349.22 491.731 1353.17 499.068 1360.3 498.1 1370.02 498.295 1379.4Z" stroke="#00B4DB" stroke-width="6.94393" stroke-linejoin="round" stroke-miterlimit="10" fill="none" fill-rule="evenodd"/><path d="M183.01 1579.59C172.545 1567.23 158.83 1558.73 143.767 1555.27 141.633 1536.32 148.145 1520.31 157.72 1505.38 162.573 1503.98 166.685 1506.25 170.692 1508.75 182.726 1515.93 194.316 1523.92 206.339 1531.14 208.535 1531.99 210.108 1534.13 210.401 1536.66 211.087 1545.8 211.741 1554.93 212.479 1564.07 212.646 1566.19 213.027 1568.9 210.605 1569.15 200.667 1570.16 193.7 1580.38 183.01 1579.59Z" stroke="#00B4DB" stroke-width="6.94393" stroke-linejoin="round" stroke-miterlimit="10" fill="none" fill-rule="evenodd"/><path d="M180.063 1885.92C199.697 1879.16 219.321 1872.32 238.975 1865.66 247.223 1862.89 255.121 1857.62 264.335 1860.58 266.243 1876.03 263.127 1891.72 255.545 1904.88 250.396 1902.47 245.981 1905.04 241.177 1906.91 224.131 1913.44 207.087 1919.75 189.959 1926.1 183.063 1913.68 182.349 1899.53 180.063 1885.92Z" stroke="#00B4DB" stroke-width="6.94393" stroke-linejoin="round" stroke-miterlimit="10" fill="none" fill-rule="evenodd"/><path d="M733.943 1224.93C740.762 1219.44 740.168 1210.01 743.464 1202.79 746.318 1196.61 745.732 1188.54 751.843 1184.11 761.757 1180.21 772.242 1178.39 782.76 1178.76 786.134 1183.45 783.264 1186.7 780.621 1190 776.751 1194.69 778.438 1200.49 778.246 1205.81 777.65 1221.04 774.283 1235.97 768.345 1249.73 759.322 1271.31 741.577 1278.85 723.919 1286.99 720.282 1288.67 714.665 1288.47 718.143 1281.61 726.765 1264.52 730.263 1246.2 731.423 1227.05 731.372 1225.83 732.674 1225.19 733.943 1224.93Z" stroke="#00B4DB" stroke-width="6.94393" stroke-linejoin="round" stroke-miterlimit="10" fill="none" fill-rule="evenodd"/><path d="M779.51 1188.79C781.599 1185.88 782.727 1182.26 782.711 1178.54 797.969 1176.1 813.532 1177.44 828.261 1182.47 819.854 1203.63 815.662 1226.21 811.089 1248.57 808.741 1254.93 802.884 1254.27 798.444 1256.06 788.722 1259.95 778.587 1262.56 768.723 1266.08 765.251 1267.32 758.556 1267.62 762.374 1261.28 775.628 1239.02 777.098 1213.89 779.51 1188.79Z" stroke="#00B4DB" stroke-width="6.94393" stroke-linejoin="round" stroke-miterlimit="10" fill="none" fill-rule="evenodd"/><path d="M350.217 1758.48C373.58 1755.27 394.626 1743.42 417.097 1736.87 421.142 1735.69 425.187 1734.46 429.222 1733.21 429.169 1750.5 428.371 1767.61 423.573 1784.32 412.543 1784.99 402.682 1790.54 392.141 1793.35 388.462 1794.53 385.71 1797.93 385.082 1802.08 377.298 1803.83 373.318 1796.74 369.21 1792.32 360.501 1782.83 349.627 1774.27 350.217 1758.48Z" stroke="#00B4DB" stroke-width="6.94393" stroke-linejoin="round" stroke-miterlimit="10" fill="none" fill-rule="evenodd"/><path d="M294.66 1471.3C298.271 1478.9 304.457 1482.84 311.237 1486.26 316.48 1488.85 321.523 1491.9 326.317 1495.39 336.942 1503.33 336.742 1504.91 325.293 1511.59L291.332 1529.9C288.03 1531.68 284.911 1534.86 280.661 1532.81 286.839 1526.18 286.691 1521.94 278.535 1516.33 263.907 1506.49 249.153 1496.71 234.558 1486.59 237.403 1473.69 245.72 1470.46 256.579 1470.83 269.277 1471.29 281.98 1471.17 294.66 1471.3Z" stroke="#00B4DB" stroke-width="6.94393" stroke-linejoin="round" stroke-miterlimit="10" fill="none" fill-rule="evenodd"/><path d="M614.258 1252.4C610.35 1252.31 607.42 1250.81 607.308 1245.91 606.374 1204.67 598.01 1164.31 595.426 1123.25 595.145 1118.72 593.343 1113.95 598.007 1110.68 616.118 1118.68 622.69 1135.96 626.49 1154.84 633.212 1188.88 626.887 1221.17 614.258 1252.4Z" stroke="#00B4DB" stroke-width="6.94393" stroke-linejoin="round" stroke-miterlimit="10" fill="none" fill-rule="evenodd"/><path d="M427.196 1688.48C408.953 1689.28 393.483 1700.62 376.068 1704.74 366.729 1706.92 358.066 1711.02 348.988 1713.95 344.894 1715.07 341.309 1717.79 338.915 1721.61 336.007 1722.01 333.138 1720.53 331.545 1717.83 331.201 1711.26 335.351 1706.97 338.766 1702.65 345.954 1693.37 352.454 1683.42 360.217 1674.68 362.707 1671.87 364.478 1667.22 369.385 1668.58 383.453 1665.79 397.195 1661.28 410.349 1655.13 414.036 1652.93 418.433 1652.65 422.327 1654.37 426.199 1665.22 427.862 1676.86 427.196 1688.48Z" stroke="#00B4DB" stroke-width="6.94393" stroke-linejoin="round" stroke-miterlimit="10" fill="none" fill-rule="evenodd"/><path d="M758.278 1390.22C749.602 1392.02 741.312 1396.13 732.209 1395.63 729.245 1379.28 736.813 1357.45 747.013 1352.85 749.463 1353.47 750.417 1356.14 752.31 1357.53 750.869 1355.75 750.004 1353.52 748.511 1351.8 743.236 1345.77 736.619 1340.97 733.654 1332.75 733.381 1317.03 740.092 1303.5 745.122 1289.46 746.453 1286.33 749.07 1284.08 752.16 1283.4 765.103 1283.98 777.479 1286.13 785.868 1298.74 777.747 1318.54 771.473 1339.2 767.146 1360.38 764.994 1370.43 759.862 1379.71 758.278 1390.22Z" stroke="#00B4DB" stroke-width="6.94393" stroke-linejoin="round" stroke-miterlimit="10" fill="none" fill-rule="evenodd"/><path d="M584.759 1237.02C581.718 1257.81 584.038 1279.12 591.458 1298.53 585.455 1311.26 576.779 1321.62 567.322 1331.26 563.103 1335.93 559.283 1334.29 558.16 1328.92 556.063 1318.98 552.467 1308.68 558.227 1298.66 559.461 1297.43 563.28 1296.92 559.065 1294.22 555.479 1291.95 551.851 1289.59 550.966 1284.41 550.472 1266.75 546.41 1249.54 545.699 1231.92 557.302 1222.17 574.757 1224.49 584.759 1237.02Z" stroke="#00B4DB" stroke-width="6.94393" stroke-linejoin="round" stroke-miterlimit="10" fill="none" fill-rule="evenodd"/><path d="M487.172 1336.95C479.118 1334.58 480.854 1326.99 480.07 1320.93 477.125 1296.23 474.266 1271.54 471.493 1246.85 471.214 1244.48 470.608 1242.82 468.324 1242.38 467.57 1227.25 475.231 1214.73 479.144 1201.07 480.863 1196.43 482.961 1191.96 485.414 1187.74 490.604 1189.8 491.449 1194.84 492.149 1199.85 495.418 1223.03 499.227 1246.14 500.164 1269.64 500.225 1274.68 501.475 1279.62 503.793 1283.98 506.238 1289.49 504.142 1294.59 502.584 1299.67 498.893 1312.76 493.714 1325.29 487.172 1336.95Z" stroke="#00B4DB" stroke-width="6.94393" stroke-linejoin="round" stroke-miterlimit="10" fill="none" fill-rule="evenodd"/><path d="M219.785 1418.7C221.826 1424.05 225.92 1426.73 230.376 1429.46 244.382 1437.82 258.002 1446.65 271.777 1455.37 275.333 1457.85 278.011 1461.6 279.369 1465.98L228.654 1467.7C210.74 1450.88 188.749 1440.99 169.541 1426.65 165.788 1423.99 160.738 1422.88 159.799 1416.93 179.801 1415.6 199.955 1414.61 219.785 1418.7Z" stroke="#00B4DB" stroke-width="6.94393" stroke-linejoin="round" stroke-miterlimit="10" fill="none" fill-rule="evenodd"/><path d="M710.684 1398.15C698.693 1399.87 686.54 1399.74 674.582 1397.76 669.758 1394.98 669.873 1390.27 671.338 1385.76 678.363 1364.06 682.839 1341.41 691.242 1320.21 706.426 1316.9 718.805 1322.59 729.261 1334.52 718.9 1354.26 716.191 1376.67 710.684 1398.15Z" stroke="#00B4DB" stroke-width="6.94393" stroke-linejoin="round" stroke-miterlimit="10" fill="none" fill-rule="evenodd"/><path d="M210.46 1536.67 157.953 1505.18C164.172 1480.04 184.479 1481.3 201.605 1477.34 212.372 1474.83 223.452 1474.33 236.737 1472.63 221.171 1492.05 214.702 1513.82 210.46 1536.67Z" stroke="#00B4DB" stroke-width="6.94393" stroke-linejoin="round" stroke-miterlimit="10" fill="none" fill-rule="evenodd"/><path d="M498.386 1379.66C492.263 1372.2 497.412 1360.03 489.292 1353.36 485.995 1349.94 488.381 1346.36 489.169 1342.91 492.592 1327.84 498.495 1313.71 502.972 1299.03 506.509 1287.36 513.9 1284.14 525.869 1288.32 528.471 1312.44 531.602 1336.52 533.779 1360.61 524.413 1372.46 510.617 1374.27 498.386 1379.66Z" stroke="#00B4DB" stroke-width="6.94393" stroke-linejoin="round" stroke-miterlimit="10" fill="none" fill-rule="evenodd"/><path d="M691.771 1321.23C687.928 1342.16 681.408 1362.26 675.024 1382.37 673.385 1387.55 671.06 1392.64 674.433 1398.03 661.943 1398.63 650.042 1395.06 638.074 1391.98 634.803 1386.76 637.033 1381.8 638.505 1376.71 639.977 1371.62 642.697 1367.65 640.414 1362.55 639.213 1360.84 639.493 1358.36 641.036 1357.01 653.479 1341.92 667.621 1328.6 683.129 1317.37 687.401 1314.37 691.909 1311.84 691.771 1321.23Z" stroke="#00B4DB" stroke-width="6.94393" stroke-linejoin="round" stroke-miterlimit="10" fill="none" fill-rule="evenodd"/><path d="M507.59 1151.02C517.079 1138.95 528.023 1128.35 540.123 1119.5 542.066 1126.88 541.084 1134.82 537.417 1141.36 534.28 1145.47 538.331 1148.47 539.07 1151.81 543.866 1172.33 544.74 1193.71 541.641 1214.61 540.049 1225.03 533.561 1232.66 528.792 1241.29 527.206 1244.12 524.654 1246.82 521.11 1245.19 518.189 1243.92 518.095 1240.52 518.122 1237.56 518.294 1217.44 513.307 1198.41 508.008 1179.43 509.249 1169.96 507.4 1160.53 507.59 1151.02Z" stroke="#00B4DB" stroke-width="6.94393" stroke-linejoin="round" stroke-miterlimit="10" fill="none" fill-rule="evenodd"/><path d="M507.758 1150.53C512.15 1159.35 513.859 1168.4 509.581 1177.93 507.927 1184.5 511.145 1190.49 512.917 1196.01 519.825 1217.45 519.494 1239.17 516.616 1261.01 515.306 1270.92 511.897 1280.44 503.459 1286.28 497.498 1283.81 497.446 1278.16 497.372 1272.52 497.084 1247.13 491.727 1222.33 489.304 1197.18 488.991 1193.97 486.948 1190.98 485.662 1187.78 490.88 1173.96 499.411 1162.34 507.758 1150.53Z" stroke="#00B4DB" stroke-width="6.94393" stroke-linejoin="round" stroke-miterlimit="10" fill="none" fill-rule="evenodd"/><path d="M758.055 1390.45C754.99 1372.46 766.087 1357.9 768.541 1341.03 770.503 1330.44 773.419 1320.08 777.245 1310.12 778.61 1305.66 781.316 1301.84 784.914 1299.27 795.275 1301.72 803.348 1307.12 806.604 1318.95 796.728 1333.22 795.931 1351.14 790.693 1367.28 790.05 1369.22 789.103 1371.52 790.723 1373.19 792.889 1375.44 795.053 1373.37 797.02 1372.37L811.544 1364.6C806.156 1373.17 797.182 1375.13 789.268 1378.6 778.989 1383.28 768.358 1386.52 758.055 1390.45Z" stroke="#00B4DB" stroke-width="6.94393" stroke-linejoin="round" stroke-miterlimit="10" fill="none" fill-rule="evenodd"/><path d="M436.83 1564.86C427.538 1557.79 419.673 1566.85 410.941 1567.67 407.716 1567.96 404.603 1570.8 401.553 1572.4 405.136 1552.06 414.47 1533.99 421.47 1515.07 425.751 1503.52 427.722 1490.78 434.582 1480.39 436.474 1477.52 436.192 1470.88 440.055 1472.2 443.919 1473.53 449.369 1479.21 448.329 1483.01 440.989 1509.71 451.847 1539.48 436.83 1564.86Z" stroke="#00B4DB" stroke-width="6.94393" stroke-linejoin="round" stroke-miterlimit="10" fill="none" fill-rule="evenodd"/><path d="M234.683 1486.96C250.163 1489.84 261.131 1501.91 274.142 1509.81 276.862 1511.34 279.427 1513.17 281.798 1515.28 285.163 1518.43 292.012 1518.52 291.748 1524.46 291.486 1530.39 284.723 1529.91 281.188 1532.85L256.11 1546.1C242.977 1538.97 231.447 1528.88 218.751 1520.81 221.126 1507.79 225.817 1496.12 234.683 1486.96Z" stroke="#00B4DB" stroke-width="6.94393" stroke-linejoin="round" stroke-miterlimit="10" fill="none" fill-rule="evenodd"/><path d="M536.51 1140.75C537.176 1133.53 536.705 1126.13 539.809 1119.29 549.302 1115.58 556.916 1106.8 567.862 1107.15 567.823 1127.76 570.068 1148.3 574.549 1168.32 577.084 1173.02 573.181 1175.41 571.099 1177.9 564.202 1186.39 557.869 1195.45 550.49 1203.44 547.418 1206.76 542.349 1208.79 542.819 1201.53 544.177 1180.74 539.503 1160.91 536.51 1140.75Z" stroke="#00B4DB" stroke-width="6.94393" stroke-linejoin="round" stroke-miterlimit="10" fill="none" fill-rule="evenodd"/><path d="M534.063 1360.36C528.357 1351.42 529.215 1340.76 528.174 1330.73 526.744 1316.87 522.78 1303.14 525.421 1288.93 536.548 1281.33 552.079 1285.51 560.345 1298.37 554.762 1308.89 560.186 1319.33 560.669 1329.78 560.812 1333.28 564.703 1332.29 567.266 1331.26 558.158 1343.39 546.849 1353.3 534.063 1360.36Z" stroke="#00B4DB" stroke-width="6.94393" stroke-linejoin="round" stroke-miterlimit="10" fill="none" fill-rule="evenodd"/><path d="M159.707 1416.47C179.921 1429.53 200.25 1442.39 220.198 1455.9 223.876 1458.32 230.399 1459.46 229.058 1467.11 213.036 1474.46 198.761 1466.26 184.473 1460.58 164.41 1452.78 147.836 1439.45 136.5 1418.65 144.451 1415.28 152.171 1416.66 159.707 1416.47Z" stroke="#00B4DB" stroke-width="6.94393" stroke-linejoin="round" stroke-miterlimit="10" fill="none" fill-rule="evenodd"/><path d="M136.771 1550.08C119.211 1543.49 103.125 1532.89 89.5661 1518.99 112.445 1506.17 135.615 1494.17 164.109 1487.04 147.418 1506.33 141.02 1527.7 136.771 1550.08Z" stroke="#00B4DB" stroke-width="6.94393" stroke-linejoin="round" stroke-miterlimit="10" fill="none" fill-rule="evenodd"/><path d="M583.096 1667.85C565.952 1679.83 549.023 1677.27 532.029 1667.02 515.396 1657.01 500.359 1645.12 490.052 1627.21 488.353 1619.8 490.304 1617.68 497.384 1620.46 505.612 1623.74 513.553 1627.76 521.768 1631.35 530.955 1635.44 540.11 1639.63 549.179 1644.04 551.1 1645.27 551.171 1648.97 554.32 1648.73 562.118 1650.23 568.79 1654.47 575.823 1657.84 579.598 1659.65 583.993 1661.74 583.096 1667.85Z" stroke="#00B4DB" stroke-width="6.94393" stroke-linejoin="round" stroke-miterlimit="10" fill="none" fill-rule="evenodd"/><path d="M473.689 1601.39C461.859 1588.64 459.174 1571.33 454.564 1555 453.844 1552.57 453.268 1550.29 452.599 1547.91 452.946 1546.7 453.732 1545.69 454.773 1545.14 455.815 1544.58 457.019 1544.52 458.104 1544.96 469.07 1549.59 481.371 1551.22 489.98 1561.49 489.122 1566.37 485.376 1568.44 482.127 1571.33 484.337 1570.54 485.887 1568.84 487.882 1567.97 502.863 1567.09 514.544 1574.59 524.929 1585.41 525.188 1595.52 522.1 1603.4 512.951 1607.26 499.713 1601.09 487.667 1591.78 472.538 1588.63 471.53 1593 475.932 1597.03 473.689 1601.39Z" stroke="#00B4DB" stroke-width="6.94393" stroke-linejoin="round" stroke-miterlimit="10" fill="none" fill-rule="evenodd"/><path d="M393.814 1879.14C388.731 1872.53 383.652 1877 378.296 1878.97 369.42 1882.19 360.217 1885.01 351.148 1887.9 342.872 1884.38 333.413 1882.25 332.691 1869.43 355.135 1858.82 379.127 1853.3 402.084 1844.32 403.465 1843.77 405.56 1845.49 407.324 1846.16L393.814 1879.14Z" stroke="#00B4DB" stroke-width="6.94393" stroke-linejoin="round" stroke-miterlimit="10" fill="none" fill-rule="evenodd"/><path d="M473.668 1601.76C471.708 1595.96 467.727 1591 467.056 1582.63 483.039 1590.03 499.865 1592.58 512.031 1606.73 511.671 1611.03 506.937 1611.36 505.94 1614.87 510.917 1612.07 516.874 1612.28 521.674 1615.43 529.915 1620.79 540.086 1621.55 547.659 1628.55 550.66 1633.97 552.529 1639.52 550.179 1645.85 532.829 1641.65 517.31 1632.27 501.213 1624.74 493.569 1621.12 492.366 1620.97 490.195 1627.01 482.288 1620.36 477.67 1611.3 473.668 1601.76Z" stroke="#00B4DB" stroke-width="6.94393" stroke-linejoin="round" stroke-miterlimit="10" fill="none" fill-rule="evenodd"/><path d="M452.118 1494.39C454.356 1485.47 454.926 1477 447.511 1470.26 446.064 1468.95 444.766 1466.81 446.408 1464.91 447.611 1463.92 449.119 1463.52 450.593 1463.78 452.759 1464.11 455.975 1464.39 456.865 1466.06 466.307 1483.97 484.71 1485.28 498.888 1494.37 515 1504.65 531.31 1514.57 544.356 1529.69 538.261 1535.13 532.651 1531.33 527.675 1527.87 517.855 1521.08 506.508 1518.37 496.476 1512.31 493.426 1510.46 489.833 1510.04 486.503 1511.15 478.752 1510.97 476.862 1499.35 468.597 1500.33 462.578 1501.23 456.507 1499.04 452.118 1494.39Z" stroke="#00B4DB" stroke-width="6.94393" stroke-linejoin="round" stroke-miterlimit="10" fill="none" fill-rule="evenodd"/><path d="M710.726 1398.67C708.345 1380.45 717.077 1364.83 720.638 1348.06 721.736 1342.77 723.166 1337.25 728.768 1335.2 738.247 1337.22 744.112 1343.65 747.144 1353.59 741.006 1355.77 740.023 1361.96 738.623 1367.49 736.284 1376.76 734.438 1386.15 732.377 1395.47 725.182 1397.11 718.125 1399.52 710.726 1398.67Z" stroke="#00B4DB" stroke-width="6.94393" stroke-linejoin="round" stroke-miterlimit="10" fill="none" fill-rule="evenodd"/><path d="M567.902 1559.59C575.282 1567.59 578.468 1578.33 583.083 1588.13 577.311 1594.82 572.813 1590.26 568.259 1586.16 566.498 1581.72 562.875 1580.59 558.991 1579.85 540.885 1576.6 526.877 1565.13 513.54 1552.34 509.192 1548.3 505.097 1543.61 505.77 1536.33 508.416 1531.61 512.475 1532.39 515.907 1534.13 533.027 1542.91 551.574 1548.6 567.902 1559.59Z" stroke="#00B4DB" stroke-width="6.94393" stroke-linejoin="round" stroke-miterlimit="10" fill="none" fill-rule="evenodd"/><path d="M568.5 1559.98C551.375 1556.39 536.526 1546.27 520.417 1539.61 515.794 1537.71 511.654 1534.16 506.296 1536.49 495.929 1531.1 488.226 1523.43 486.766 1510.02 488.107 1504.41 491.612 1506.94 494.077 1508.12 505.328 1513.46 516.664 1518.58 527.397 1524.86 533.028 1528.09 538.331 1530.76 544.757 1530.08 553.634 1539.05 562.626 1547.98 568.5 1559.98Z" stroke="#00B4DB" stroke-width="6.94393" stroke-linejoin="round" stroke-miterlimit="10" fill="none" fill-rule="evenodd"/><path d="M607.417 1363.12C609.819 1374.09 600.819 1383.11 603.026 1393.99L560.664 1414.14C555.36 1411.32 554.806 1406.61 556.468 1401.29 558.131 1395.97 558.53 1390.46 560.909 1385.55 575.443 1375.6 592.632 1372.48 607.417 1363.12Z" stroke="#00B4DB" stroke-width="6.94393" stroke-linejoin="round" stroke-miterlimit="10" fill="none" fill-rule="evenodd"/><path d="M489.24 1562.09C476.896 1557.41 466.283 1547.41 452.209 1548.04 450.141 1538.35 449.19 1528.41 449.379 1518.45 449.809 1517.18 450.666 1516.13 451.776 1515.54 453.146 1514.8 454.753 1514.83 456.104 1515.6 470.784 1523.3 487.044 1527.49 499.545 1539.95 502.132 1550.61 498.299 1557.85 489.24 1562.09Z" stroke="#00B4DB" stroke-width="6.94393" stroke-linejoin="round" stroke-miterlimit="10" fill="none" fill-rule="evenodd"/><path d="M569.085 1584.84C573.509 1587.72 577.923 1590.69 583.408 1588.42 587.538 1597.84 592.398 1607 591.345 1618.15L589.622 1618.24C569.911 1614 551.802 1606.04 536.39 1591.2 530.851 1585.99 526.894 1579 525.064 1571.19 524.472 1568.68 524.808 1563.16 528.17 1565.65 540.719 1574.95 556.001 1576.82 569.085 1584.84Z" stroke="#00B4DB" stroke-width="6.94393" stroke-linejoin="round" stroke-miterlimit="10" fill="none" fill-rule="evenodd"/><path d="M218.869 1520.64C233.742 1524.35 244.786 1534.88 255.497 1546.04 245.333 1551.54 235.099 1556.88 225.005 1562.54 219.757 1565.55 217.783 1564.13 217.032 1557.73 215.442 1545.35 216.065 1532.75 218.869 1520.64Z" stroke="#00B4DB" stroke-width="6.94393" stroke-linejoin="round" stroke-miterlimit="10" fill="none" fill-rule="evenodd"/><path d="M591.42 1617.81C595.002 1627.54 595.268 1638.37 592.172 1648.3 581.181 1643.13 571.008 1636.1 559.429 1632.14 555.751 1630.82 553.566 1632.69 550.666 1632.9 546.195 1626.05 544.976 1617.66 541.848 1610.15 540.343 1607.07 541.085 1603.22 543.595 1601.07 546.142 1598.98 548.602 1600.83 550.932 1602.34 563.32 1611.01 577.37 1614.38 591.378 1617.94L591.42 1617.81Z" stroke="#00B4DB" stroke-width="6.94393" stroke-linejoin="round" stroke-miterlimit="10" fill="none" fill-rule="evenodd"/><path d="M560.388 1385.9C561.809 1390.75 562.289 1395.9 559.35 1400.19 555.776 1405.17 558.11 1409.54 560.132 1414.07 551.201 1418.15 542.09 1415.85 532.998 1414.98 523.446 1414.38 513.933 1413.21 504.5 1411.46 522.89 1402 540.822 1391.92 560.388 1385.9Z" stroke="#00B4DB" stroke-width="6.94393" stroke-linejoin="round" stroke-miterlimit="10" fill="none" fill-rule="evenodd"/><path d="M498.507 1540.33C482.558 1532.1 467.956 1520.31 449.679 1518.14L451.982 1494.23C457.673 1493.72 462.594 1499.75 468.651 1496.69 481.051 1506.22 490.523 1518.9 499.69 1531.82 501.421 1534.18 506.189 1538.7 498.507 1540.33Z" stroke="#00B4DB" stroke-width="6.94393" stroke-linejoin="round" stroke-miterlimit="10" fill="none" fill-rule="evenodd"/><path d="M552.172 1633C553.671 1631.27 552.513 1626.34 557.101 1628.25 569.574 1633.43 583.254 1636.05 592.417 1648.24 591.682 1656.1 589.121 1662.87 582.907 1667.47 574.817 1657 562.771 1655.03 552.026 1650.25 553.469 1644.39 549.341 1638.59 552.172 1633Z" stroke="#00B4DB" stroke-width="6.94393" stroke-linejoin="round" stroke-miterlimit="10" fill="none" fill-rule="evenodd"/><path d="M609.539 1390.17C613.113 1388.82 616.067 1384.62 620.482 1386.88 616.839 1388.18 613.906 1392.37 609.539 1390.17Z" stroke="#00B4DB" stroke-width="6.94393" stroke-linejoin="round" stroke-miterlimit="10" fill="none" fill-rule="evenodd"/><path d="M370.027 1668.61C356.277 1684.07 341.744 1699.16 333.317 1719.41L333.156 1721.19C329.682 1728.51 324.623 1734.76 321.324 1742.19 311.917 1759.77 302.591 1777.36 295.666 1796.35 295.36 1797.46 294.981 1798.54 294.529 1799.59 282.73 1828.56 273.446 1858.7 266.796 1889.59 264.406 1899.64 264.454 1910.37 260.039 1919.87L255.266 1932.33C253.069 1921 255.181 1912.99 256 1904.96L264.716 1860.87 279.796 1816.2C251.35 1836.28 221.364 1844.47 188.265 1839.56 186.614 1834.33 188.906 1833.92 192.889 1834.53 224.257 1839.44 251.824 1829.57 277.01 1809.28 282.245 1805.11 286.298 1799.38 288.697 1792.78 293.976 1779.48 300.027 1766.53 306.743 1751.19 283.123 1770.12 258.452 1775.9 232.223 1776.36 228.108 1773.3 222.093 1777.63 218.484 1772.4 219.05 1768.22 221.972 1769.23 223.854 1769.52 257.971 1775.28 287.252 1762.53 312.836 1739.43 321.043 1732.04 325.721 1719.82 331.666 1709.54 333.98 1705.64 335.799 1701.44 339.52 1698.9 353.575 1679.38 367.159 1659.36 384.343 1643.17L386.962 1645.59 370.027 1668.61Z" stroke="#00B4DB" stroke-width="6.94393" stroke-linejoin="round" stroke-miterlimit="10" fill="none" fill-rule="evenodd"/><path d="M747.544 1353.42C742.581 1345.83 735.766 1340.51 729.076 1335.01 717.643 1327.3 705.763 1321.07 691.933 1320.96 690.361 1316.14 688.354 1316.03 684.476 1319.01 668.092 1331.11 653.39 1345.76 640.828 1362.49 635.096 1359.9 634.859 1359.66 639.22 1354.86 647.983 1345.19 657.075 1335.84 666.022 1326.35 690.585 1308.58 716.12 1292.01 724.899 1257.64 728.742 1242.57 728.021 1227.3 727.849 1210.78 734.099 1214.48 731.037 1221.1 734.132 1224.65 732.329 1245.43 730.255 1266.35 718.419 1285.06 761.309 1271.44 776.596 1244.49 776.075 1194.45 776.075 1193.29 770.236 1183.03 780.081 1188.74 783.047 1215.68 777.44 1240.41 762.657 1264.38L811.647 1248.32C822.645 1246.76 833.398 1242.61 844.573 1243.3L845.145 1246.39 816.771 1254.06C806.417 1262.19 793.486 1262.24 782.115 1267.26 775.65 1270.1 769.077 1272.29 762.835 1275.58 737.366 1281.44 718.412 1301.82 697.105 1312.24 709.846 1314.9 724.282 1318.99 735.318 1331.67 742.947 1342.01 753.425 1349.96 759.562 1363.96 751.305 1363.46 749.573 1357.99 747.544 1353.42Z" stroke="#00B4DB" stroke-width="6.94393" stroke-linejoin="round" stroke-miterlimit="10" fill="none" fill-rule="evenodd"/><path d="M760.118 1273.08C777.839 1263.88 796.732 1257.63 816.162 1254.55 816.681 1270.24 808.47 1283.33 805.294 1297.95 804.711 1300.73 803.961 1303.48 803.284 1306.21 800.902 1308.71 798.933 1306.73 797.344 1305.19 786.402 1294.45 773.121 1288.25 759.83 1281.97 757.572 1278.88 758.271 1275.96 760.118 1273.08Z" stroke="#00B4DB" stroke-width="6.94393" stroke-linejoin="round" stroke-miterlimit="10" fill="none" fill-rule="evenodd"/><path d="M761.549 1281.05C777.756 1285.27 790.884 1295.56 803.77 1306.35 807.042 1310.95 810.25 1315.59 813.616 1320.12 815.242 1322.32 818.399 1324.66 815.352 1327.29 811.376 1330.72 810.374 1325.89 808.845 1323.28 808.019 1321.89 807.505 1320.28 806.67 1318.82 801.472 1309.73 792.124 1306.11 785.103 1299.39 776.074 1290.38 764.749 1287.75 753.132 1285.5 751.165 1284.27 747.374 1287.83 746.849 1282.97 746.501 1279.14 749.292 1278.47 751.968 1277.94 755.713 1277.16 758.585 1279.09 761.549 1281.05Z" stroke="#00B4DB" stroke-width="6.94393" stroke-linejoin="round" stroke-miterlimit="10" fill="none" fill-rule="evenodd"/><path d="M292.836 1797.83C298.288 1777.18 308.75 1759.31 319.253 1741.49 325.43 1734.53 331.93 1733.04 338.976 1739.99 347.484 1758.14 354.355 1777.41 368.492 1791.88 369.536 1793.08 369.931 1794.8 369.528 1796.4 347.84 1805.57 326.106 1815.26 303.116 1820.53 294.956 1815.41 299.061 1803.81 292.836 1797.83Z" stroke="#00B4DB" stroke-width="6.94393" stroke-linejoin="round" stroke-miterlimit="10" fill="none" fill-rule="evenodd"/><path d="M293.286 1797.3C297.239 1795.69 298.755 1797.65 299.505 1801.84 300.589 1808.01 302.141 1814.07 303.506 1820.17 311.877 1837.65 316.754 1857.72 333.012 1869.56 336.512 1879.02 346.292 1880.61 351.501 1887.99L347.335 1890.23C335.232 1887.64 328.081 1877.27 319.574 1869.02 308.321 1853.88 298.151 1838.15 294.11 1818.52 292.651 1811.39 291.501 1804.49 293.245 1797.32L293.286 1797.3Z" stroke="#00B4DB" stroke-width="6.94393" stroke-linejoin="round" stroke-miterlimit="10" fill="none" fill-rule="evenodd"/><path d="M369.444 1795.83C354.025 1780.33 345.295 1760.11 336.826 1739.67 333.945 1733.17 330.16 1726.9 332.871 1719.13 332.982 1719.05 333.095 1718.98 333.212 1718.92 335.311 1717.79 337.883 1718.77 338.907 1721.08 338.963 1721.21 339.014 1721.34 339.06 1721.47 340.551 1734.33 344.308 1746.75 350.117 1758.04 358.091 1776.03 368.727 1791.54 384.919 1801.7 386.803 1803.97 390.635 1805 388.805 1810.46 381.101 1807.26 375.873 1800.4 369.444 1795.83Z" stroke="#00B4DB" stroke-width="6.94393" stroke-linejoin="round" stroke-miterlimit="10" fill="none" fill-rule="evenodd"/><path d="M322.684 1869.32 347.5 1890.05C318.37 1900.26 289.437 1911.73 259.711 1919.79 258.87 1909.16 262.315 1899.29 264.283 1889.08 282.872 1879.81 301.838 1871.34 322.684 1869.32Z" stroke="#00B4DB" stroke-width="6.94393" stroke-linejoin="round" stroke-miterlimit="10" fill="none" fill-rule="evenodd"/><path d="M560.653 1297.83C550.246 1288.92 538.683 1285.22 525.536 1288.38 514.16 1288.05 506.393 1291.66 503.365 1305.86 499.99 1321.77 494.425 1337.15 489.77 1352.61 486.581 1353.78 484.202 1353.53 485.083 1348.85 485.845 1344.78 486.896 1340.78 487.823 1336.73 490.367 1318.72 501.921 1304.12 503.815 1285.87 522.365 1253.25 518.343 1219.52 508.04 1185.44 506.803 1181.34 506.803 1181.34 509.979 1178.23 519.112 1198.74 521.783 1220.48 521.329 1245.32 536.083 1229.4 541.159 1211.99 541.074 1191.72 541.191 1171.99 537.394 1152.47 529.945 1134.51 535.787 1134.21 535.497 1138.82 537.288 1141.11 545.605 1161.29 546.747 1182.66 545.378 1206.89L575.285 1168.71C581.189 1163.92 585.898 1157.26 596.003 1152.71 589.892 1164.44 581.833 1169.36 576.289 1176.7 568.476 1194.55 553.85 1206.65 545.506 1222.5 556.635 1220.31 569.53 1217.63 580.972 1227.71 586.208 1231.54 592.502 1233.99 596.331 1240.97 590.725 1243.71 588.306 1238.8 584.948 1236.87 572.837 1229.68 560.367 1225.51 546.683 1231.92 528.412 1240.63 525.907 1261.15 516.546 1278.42 529.514 1280.13 542.225 1275.99 552.391 1285.29 556.464 1288.25 560.6 1291.12 564.61 1294.22 566.348 1295.58 568.848 1297.37 566.018 1299.93 563.648 1302.13 561.98 1299.94 560.653 1297.83Z" stroke="#00B4DB" stroke-width="6.94393" stroke-linejoin="round" stroke-miterlimit="10" fill="none" fill-rule="evenodd"/><path d="M580.979 1228.09C568.531 1224.48 556.083 1220.92 542.729 1226.36 551.031 1206.37 563.655 1191.43 576.31 1176.5 579.781 1193.48 583.118 1210.5 580.979 1228.09Z" stroke="#00B4DB" stroke-width="6.94393" stroke-linejoin="round" stroke-miterlimit="10" fill="none" fill-rule="evenodd"/><path d="M761.142 1280.76C758.164 1280.4 755.189 1279.92 752.2 1279.65 750.281 1279.46 747.891 1279.72 748.301 1282.5 748.529 1283.7 751.182 1284.38 752.731 1285.3 740.427 1295.43 741.738 1312.34 735.936 1325.7 735.344 1327.61 734.937 1329.59 734.719 1331.6 720.599 1325.71 708.213 1315.19 692.142 1313.62 714.349 1298.07 734.372 1279.58 760.207 1272.75L761.142 1280.76Z" stroke="#00B4DB" stroke-width="6.94393" stroke-linejoin="round" stroke-miterlimit="10" fill="none" fill-rule="evenodd"/><path d="M551.961 1285.32C540.373 1283.38 529.065 1279.09 517.034 1283.79 511.951 1285.77 512.721 1280.77 513.844 1277.76 519.646 1262.87 526.553 1248.52 534.501 1234.85 537.284 1229.99 542.278 1233.22 546.243 1232.37 550.839 1249.69 554.379 1267.24 551.961 1285.32Z" stroke="#00B4DB" stroke-width="6.94393" stroke-linejoin="round" stroke-miterlimit="10" fill="none" fill-rule="evenodd"/><path d="M552.082 1633.3C553.527 1639.07 557.204 1644.89 551.928 1650.39 548.914 1650.08 550.406 1647.35 549.903 1645.81L544.893 1628.66C539.225 1619.21 535.312 1608.67 529.858 1597.26 523.113 1611.06 511.362 1615.23 499.492 1618.95 498.818 1608.88 507.992 1610.92 511.998 1606.55 519.114 1602.02 522.381 1594.81 523.544 1586.17 521.919 1571.56 512.338 1561.97 504.667 1548.92 502.938 1560.88 495.499 1565.67 488.541 1570.98 484.203 1573.31 479.879 1576.26 472.993 1571.26 480.943 1570.53 484.597 1565.02 489.646 1561.85 493.435 1555.13 501.04 1550.25 498.103 1540.29 503.318 1534.65 496.814 1532.02 494.875 1529.44 486.517 1518.14 477.512 1507.59 468.542 1496.66 478.291 1494.59 479.559 1507.4 487.02 1509.4 492.062 1519.47 499.958 1527.04 506.407 1535.82 518.072 1558.32 536.63 1570.14 558.629 1576.13 568.396 1578.82 568.978 1578.5 568.966 1584.35 554.123 1581 539.755 1576.39 525.362 1565.45 532.442 1589.09 548.556 1598.11 565.159 1606.84 573.651 1611.29 583.863 1610.5 591.39 1617.65 573.72 1619.7 559.297 1609.68 541.79 1599.31 545.954 1612.92 549.023 1623.06 552.082 1633.3Z" stroke="#00B4DB" stroke-width="6.94393" stroke-linejoin="round" stroke-miterlimit="10" fill="none" fill-rule="evenodd"/><path d="M488.785 1571.16C493.695 1565.05 498.838 1559.12 502.165 1551.64 503.243 1549.19 504.896 1544.94 507.552 1548.99 514.499 1559.51 523.916 1568.62 524.733 1582.99 524.785 1584.03 523.738 1585.16 523.211 1586.27 512.207 1579.65 502.513 1569.61 488.785 1571.16Z" stroke="#00B4DB" stroke-width="6.94393" stroke-linejoin="round" stroke-miterlimit="10" fill="none" fill-rule="evenodd"/><path d="M499.243 1619.1C520.349 1608.32 520.349 1608.32 530.136 1589.67 535.329 1603.54 544.013 1614.21 545.09 1628.74 537.586 1625.9 529.146 1624.9 522.991 1619.28 514.706 1611.75 507.129 1620.19 499.243 1619.1Z" stroke="#00B4DB" stroke-width="6.94393" stroke-linejoin="round" stroke-miterlimit="10" fill="none" fill-rule="evenodd"/><path d="M322.411 1869.51C303.151 1876.95 284.407 1886.02 264.01 1889.35 270.319 1857.48 279.042 1826.5 292.915 1797.5 295.702 1824.83 307.47 1847.87 322.411 1869.51Z" stroke="#00B4DB" stroke-width="6.94393" stroke-linejoin="round" stroke-miterlimit="10" fill="none" fill-rule="evenodd"/><path d="M333.336 1719.5C334.982 1726.19 337.953 1732.59 337.314 1739.79 331.209 1735.56 325.431 1738.77 319.603 1740.72 322.353 1732.46 327.094 1725.13 333.336 1719.5Z" stroke="#00B4DB" stroke-width="6.94393" stroke-linejoin="round" stroke-miterlimit="10" fill="none" fill-rule="evenodd"/><path d="M1092.4 799.043C1091.27 799.029 1090.21 799.472 1089.41 800.262 1088.61 801.065 1088.17 802.131 1088.17 803.253 1088.17 873.823 1088.17 1807.41 1088.17 2113.55 1088.17 2139.14 1098.34 2163.68 1116.43 2181.78 1134.53 2199.88 1159.06 2210.04 1184.65 2210.04 1395.61 2210.04 1879.17 2210.04 1879.17 2210.04L1879.17 875.969C1879.17 835.145 1846.16 802.007 1805.34 801.854L1092.4 799.043Z" stroke="#00B4DB" stroke-width="19.2796" stroke-linecap="round" stroke-linejoin="round" stroke-miterlimit="10" fill="none" fill-rule="evenodd"/><path d="M1089.17 1132.08 1880.17 1132.08" stroke="#00B4DB" stroke-width="19.1176" stroke-linecap="round" stroke-linejoin="round" stroke-miterlimit="10" fill="none" fill-rule="evenodd"/><path d="M1929.56 799.043C1928.44 799.029 1927.37 799.472 1926.57 800.262 1925.77 801.065 1925.33 802.131 1925.33 803.253 1925.33 873.823 1925.33 1807.41 1925.33 2113.55 1925.33 2139.14 1935.5 2163.68 1953.6 2181.78 1971.69 2199.88 1996.22 2210.04 2021.82 2210.04 2232.77 2210.04 2716.33 2210.04 2716.33 2210.04L2716.33 875.969C2716.33 835.145 2683.32 802.007 2642.5 801.854L1929.56 799.043Z" stroke="#00B4DB" stroke-width="19.2796" stroke-linecap="round" stroke-linejoin="round" stroke-miterlimit="10" fill="none" fill-rule="evenodd"/><path d="M1920.33 1132.08 2711.33 1132.08" stroke="#00B4DB" stroke-width="19.1176" stroke-linecap="round" stroke-linejoin="round" stroke-miterlimit="10" fill="none" fill-rule="evenodd"/><path d="M2765.72 799.043C2764.6 799.029 2763.54 799.472 2762.74 800.262 2761.94 801.065 2761.5 802.131 2761.5 803.253 2761.5 873.823 2761.5 1807.41 2761.5 2113.55 2761.5 2139.14 2771.67 2163.68 2789.76 2181.78 2807.85 2199.88 2832.38 2210.04 2857.98 2210.04 3068.94 2210.04 3552.5 2210.04 3552.5 2210.04L3552.5 875.969C3552.5 835.145 3519.49 802.007 3478.67 801.854L2765.72 799.043Z" stroke="#00B4DB" stroke-width="19.2796" stroke-linecap="round" stroke-linejoin="round" stroke-miterlimit="10" fill="none" fill-rule="evenodd"/><path d="M2762.49 1132.08 3553.49 1132.08" stroke="#00B4DB" stroke-width="19.1176" stroke-linecap="round" stroke-linejoin="round" stroke-miterlimit="10" fill="none" fill-rule="evenodd"/><path d="M3602.88 799.043C3601.76 799.029 3600.7 799.472 3599.9 800.262 3599.1 801.065 3598.66 802.131 3598.66 803.253 3598.66 873.823 3598.66 1807.41 3598.66 2113.55 3598.66 2139.14 3608.83 2163.68 3626.92 2181.78 3645.01 2199.88 3669.55 2210.04 3695.14 2210.04 3906.1 2210.04 4389.66 2210.04 4389.66 2210.04L4389.66 875.969C4389.66 835.145 4356.65 802.007 4315.83 801.854L3602.88 799.043Z" stroke="#00B4DB" stroke-width="19.2796" stroke-linecap="round" stroke-linejoin="round" stroke-miterlimit="10" fill="none" fill-rule="evenodd"/><path d="M3599.66 1132.08 4390.66 1132.08" stroke="#00B4DB" stroke-width="19.1176" stroke-linecap="round" stroke-linejoin="round" stroke-miterlimit="10" fill="none" fill-rule="evenodd"/><path d="M1091.99 747.993C1294.98 628.916 1603.09 507.993 1886.73 548.115 2168.48 588.238 2468.7 516.868 2722.96 406.482 2836.6 480.812 3108.97 560.689 3489.79 582.321 3742.33 596.559 4151.41 666.266 4389.99 766.482" stroke="#00B4DB" stroke-width="6.67543" stroke-linecap="round" stroke-linejoin="round" stroke-miterlimit="10" fill="none" fill-rule="evenodd"/></g></svg>