<svg width="259" height="259" xmlns="http://www.w3.org/2000/svg" xmlns:xlink="http://www.w3.org/1999/xlink" xml:space="preserve" overflow="hidden"><defs><clipPath id="clip0"><rect x="936" y="277" width="259" height="259"/></clipPath><clipPath id="clip1"><rect x="1027" y="368" width="77" height="77"/></clipPath><clipPath id="clip2"><rect x="1027" y="368" width="77" height="77"/></clipPath></defs><g clip-path="url(#clip0)" transform="translate(-936 -277)"><path d="M936 277 1195 277 1195 536 936 536Z" fill="#FFFFFF"/><path d="M1023.5 291C1025.43 291 1027 292.567 1027 294.5 1027 296.433 1025.43 298 1023.5 298 1021.57 298 1020 296.433 1020 294.5 1020 292.567 1021.57 291 1023.5 291Z" fill="#2D3E50"/><path d="M1058.5 291C1060.43 291 1062 292.567 1062 294.5 1062 296.433 1060.43 298 1058.5 298 1056.57 298 1055 296.433 1055 294.5 1055 292.567 1056.57 291 1058.5 291Z" fill="#2D3E50"/><path d="M1072.5 291C1074.43 291 1076 292.567 1076 294.5 1076 296.433 1074.43 298 1072.5 298 1070.57 298 1069 296.433 1069 294.5 1069 292.567 1070.57 291 1072.5 291Z" fill="#2D3E50"/><path d="M1086.5 291C1088.43 291 1090 292.567 1090 294.5 1090 296.433 1088.43 298 1086.5 298 1084.57 298 1083 296.433 1083 294.5 1083 292.567 1084.57 291 1086.5 291Z" fill="#2D3E50"/><path d="M1093.5 291C1095.43 291 1097 292.567 1097 294.5 1097 296.433 1095.43 298 1093.5 298 1091.57 298 1090 296.433 1090 294.5 1090 292.567 1091.57 291 1093.5 291Z" fill="#2D3E50"/><path d="M1100.5 291C1102.43 291 1104 292.567 1104 294.5 1104 296.433 1102.43 298 1100.5 298 1098.57 298 1097 296.433 1097 294.5 1097 292.567 1098.57 291 1100.5 291Z" fill="#2D3E50"/><path d="M1114.5 291C1116.43 291 1118 292.567 1118 294.5 1118 296.433 1116.43 298 1114.5 298 1112.57 298 1111 296.433 1111 294.5 1111 292.567 1112.57 291 1114.5 291Z" fill="#2D3E50"/><path d="M1121.5 291C1123.43 291 1125 292.567 1125 294.5 1125 296.433 1123.43 298 1121.5 298 1119.57 298 1118 296.433 1118 294.5 1118 292.567 1119.57 291 1121.5 291Z" fill="#2D3E50"/><path d="M1009.5 298C1011.43 298 1013 299.567 1013 301.5 1013 303.433 1011.43 305 1009.5 305 1007.57 305 1006 303.433 1006 301.5 1006 299.567 1007.57 298 1009.5 298Z" fill="#2D3E50"/><path d="M1030.5 298C1032.43 298 1034 299.567 1034 301.5 1034 303.433 1032.43 305 1030.5 305 1028.57 305 1027 303.433 1027 301.5 1027 299.567 1028.57 298 1030.5 298Z" fill="#2D3E50"/><path d="M1051.5 298C1053.43 298 1055 299.567 1055 301.5 1055 303.433 1053.43 305 1051.5 305 1049.57 305 1048 303.433 1048 301.5 1048 299.567 1049.57 298 1051.5 298Z" fill="#2D3E50"/><path d="M1058.5 298C1060.43 298 1062 299.567 1062 301.5 1062 303.433 1060.43 305 1058.5 305 1056.57 305 1055 303.433 1055 301.5 1055 299.567 1056.57 298 1058.5 298Z" fill="#2D3E50"/><path d="M1065.5 298C1067.43 298 1069 299.567 1069 301.5 1069 303.433 1067.43 305 1065.5 305 1063.57 305 1062 303.433 1062 301.5 1062 299.567 1063.57 298 1065.5 298Z" fill="#2D3E50"/><path d="M1093.5 298C1095.43 298 1097 299.567 1097 301.5 1097 303.433 1095.43 305 1093.5 305 1091.57 305 1090 303.433 1090 301.5 1090 299.567 1091.57 298 1093.5 298Z" fill="#2D3E50"/><path d="M1100.5 298C1102.43 298 1104 299.567 1104 301.5 1104 303.433 1102.43 305 1100.5 305 1098.57 305 1097 303.433 1097 301.5 1097 299.567 1098.57 298 1100.5 298Z" fill="#2D3E50"/><path d="M1107.5 298C1109.43 298 1111 299.567 1111 301.5 1111 303.433 1109.43 305 1107.5 305 1105.57 305 1104 303.433 1104 301.5 1104 299.567 1105.57 298 1107.5 298Z" fill="#2D3E50"/><path d="M1121.5 298C1123.43 298 1125 299.567 1125 301.5 1125 303.433 1123.43 305 1121.5 305 1119.57 305 1118 303.433 1118 301.5 1118 299.567 1119.57 298 1121.5 298Z" fill="#2D3E50"/><path d="M1016.5 305C1018.43 305 1020 306.567 1020 308.5 1020 310.433 1018.43 312 1016.5 312 1014.57 312 1013 310.433 1013 308.5 1013 306.567 1014.57 305 1016.5 305Z" fill="#2D3E50"/><path d="M1044.5 305C1046.43 305 1048 306.567 1048 308.5 1048 310.433 1046.43 312 1044.5 312 1042.57 312 1041 310.433 1041 308.5 1041 306.567 1042.57 305 1044.5 305Z" fill="#2D3E50"/><path d="M1058.5 305C1060.43 305 1062 306.567 1062 308.5 1062 310.433 1060.43 312 1058.5 312 1056.57 312 1055 310.433 1055 308.5 1055 306.567 1056.57 305 1058.5 305Z" fill="#2D3E50"/><path d="M1100.5 305C1102.43 305 1104 306.567 1104 308.5 1104 310.433 1102.43 312 1100.5 312 1098.57 312 1097 310.433 1097 308.5 1097 306.567 1098.57 305 1100.5 305Z" fill="#2D3E50"/><path d="M1107.5 305C1109.43 305 1111 306.567 1111 308.5 1111 310.433 1109.43 312 1107.5 312 1105.57 312 1104 310.433 1104 308.5 1104 306.567 1105.57 305 1107.5 305Z" fill="#2D3E50"/><path d="M1023.5 312C1025.43 312 1027 313.567 1027 315.5 1027 317.433 1025.43 319 1023.5 319 1021.57 319 1020 317.433 1020 315.5 1020 313.567 1021.57 312 1023.5 312Z" fill="#2D3E50"/><path d="M1030.5 312C1032.43 312 1034 313.567 1034 315.5 1034 317.433 1032.43 319 1030.5 319 1028.57 319 1027 317.433 1027 315.5 1027 313.567 1028.57 312 1030.5 312Z" fill="#2D3E50"/><path d="M1037.5 312C1039.43 312 1041 313.567 1041 315.5 1041 317.433 1039.43 319 1037.5 319 1035.57 319 1034 317.433 1034 315.5 1034 313.567 1035.57 312 1037.5 312Z" fill="#2D3E50"/><path d="M1044.5 312C1046.43 312 1048 313.567 1048 315.5 1048 317.433 1046.43 319 1044.5 319 1042.57 319 1041 317.433 1041 315.5 1041 313.567 1042.57 312 1044.5 312Z" fill="#2D3E50"/><path d="M1051.5 312C1053.43 312 1055 313.567 1055 315.5 1055 317.433 1053.43 319 1051.5 319 1049.57 319 1048 317.433 1048 315.5 1048 313.567 1049.57 312 1051.5 312Z" fill="#2D3E50"/><path d="M1065.5 312C1067.43 312 1069 313.567 1069 315.5 1069 317.433 1067.43 319 1065.5 319 1063.57 319 1062 317.433 1062 315.5 1062 313.567 1063.57 312 1065.5 312Z" fill="#2D3E50"/><path d="M1079.5 312C1081.43 312 1083 313.567 1083 315.5 1083 317.433 1081.43 319 1079.5 319 1077.57 319 1076 317.433 1076 315.5 1076 313.567 1077.57 312 1079.5 312Z" fill="#2D3E50"/><path d="M1051.5 319C1053.43 319 1055 320.567 1055 322.5 1055 324.433 1053.43 326 1051.5 326 1049.57 326 1048 324.433 1048 322.5 1048 320.567 1049.57 319 1051.5 319Z" fill="#2D3E50"/><path d="M1100.5 319C1102.43 319 1104 320.567 1104 322.5 1104 324.433 1102.43 326 1100.5 326 1098.57 326 1097 324.433 1097 322.5 1097 320.567 1098.57 319 1100.5 319Z" fill="#2D3E50"/><path d="M1009.5 326C1011.43 326 1013 327.567 1013 329.5 1013 331.433 1011.43 333 1009.5 333 1007.57 333 1006 331.433 1006 329.5 1006 327.567 1007.57 326 1009.5 326Z" fill="#2D3E50"/><path d="M1016.5 326C1018.43 326 1020 327.567 1020 329.5 1020 331.433 1018.43 333 1016.5 333 1014.57 333 1013 331.433 1013 329.5 1013 327.567 1014.57 326 1016.5 326Z" fill="#2D3E50"/><path d="M1030.5 326C1032.43 326 1034 327.567 1034 329.5 1034 331.433 1032.43 333 1030.5 333 1028.57 333 1027 331.433 1027 329.5 1027 327.567 1028.57 326 1030.5 326Z" fill="#2D3E50"/><path d="M1044.5 326C1046.43 326 1048 327.567 1048 329.5 1048 331.433 1046.43 333 1044.5 333 1042.57 333 1041 331.433 1041 329.5 1041 327.567 1042.57 326 1044.5 326Z" fill="#2D3E50"/><path d="M1058.5 326C1060.43 326 1062 327.567 1062 329.5 1062 331.433 1060.43 333 1058.5 333 1056.57 333 1055 331.433 1055 329.5 1055 327.567 1056.57 326 1058.5 326Z" fill="#2D3E50"/><path d="M1065.5 326C1067.43 326 1069 327.567 1069 329.5 1069 331.433 1067.43 333 1065.5 333 1063.57 333 1062 331.433 1062 329.5 1062 327.567 1063.57 326 1065.5 326Z" fill="#2D3E50"/><path d="M1093.5 326C1095.43 326 1097 327.567 1097 329.5 1097 331.433 1095.43 333 1093.5 333 1091.57 333 1090 331.433 1090 329.5 1090 327.567 1091.57 326 1093.5 326Z" fill="#2D3E50"/><path d="M1107.5 326C1109.43 326 1111 327.567 1111 329.5 1111 331.433 1109.43 333 1107.5 333 1105.57 333 1104 331.433 1104 329.5 1104 327.567 1105.57 326 1107.5 326Z" fill="#2D3E50"/><path d="M1114.5 326C1116.43 326 1118 327.567 1118 329.5 1118 331.433 1116.43 333 1114.5 333 1112.57 333 1111 331.433 1111 329.5 1111 327.567 1112.57 326 1114.5 326Z" fill="#2D3E50"/><path d="M1121.5 326C1123.43 326 1125 327.567 1125 329.5 1125 331.433 1123.43 333 1121.5 333 1119.57 333 1118 331.433 1118 329.5 1118 327.567 1119.57 326 1121.5 326Z" fill="#2D3E50"/><path d="M1009.5 333C1011.43 333 1013 334.567 1013 336.5 1013 338.433 1011.43 340 1009.5 340 1007.57 340 1006 338.433 1006 336.5 1006 334.567 1007.57 333 1009.5 333Z" fill="#2D3E50"/><path d="M1023.5 333C1025.43 333 1027 334.567 1027 336.5 1027 338.433 1025.43 340 1023.5 340 1021.57 340 1020 338.433 1020 336.5 1020 334.567 1021.57 333 1023.5 333Z" fill="#2D3E50"/><path d="M1037.5 333C1039.43 333 1041 334.567 1041 336.5 1041 338.433 1039.43 340 1037.5 340 1035.57 340 1034 338.433 1034 336.5 1034 334.567 1035.57 333 1037.5 333Z" fill="#2D3E50"/><path d="M1051.5 333C1053.43 333 1055 334.567 1055 336.5 1055 338.433 1053.43 340 1051.5 340 1049.57 340 1048 338.433 1048 336.5 1048 334.567 1049.57 333 1051.5 333Z" fill="#2D3E50"/><path d="M1065.5 333C1067.43 333 1069 334.567 1069 336.5 1069 338.433 1067.43 340 1065.5 340 1063.57 340 1062 338.433 1062 336.5 1062 334.567 1063.57 333 1065.5 333Z" fill="#2D3E50"/><path d="M1079.5 333C1081.43 333 1083 334.567 1083 336.5 1083 338.433 1081.43 340 1079.5 340 1077.57 340 1076 338.433 1076 336.5 1076 334.567 1077.57 333 1079.5 333Z" fill="#2D3E50"/><path d="M1093.5 333C1095.43 333 1097 334.567 1097 336.5 1097 338.433 1095.43 340 1093.5 340 1091.57 340 1090 338.433 1090 336.5 1090 334.567 1091.57 333 1093.5 333Z" fill="#2D3E50"/><path d="M1107.5 333C1109.43 333 1111 334.567 1111 336.5 1111 338.433 1109.43 340 1107.5 340 1105.57 340 1104 338.433 1104 336.5 1104 334.567 1105.57 333 1107.5 333Z" fill="#2D3E50"/><path d="M1121.5 333C1123.43 333 1125 334.567 1125 336.5 1125 338.433 1123.43 340 1121.5 340 1119.57 340 1118 338.433 1118 336.5 1118 334.567 1119.57 333 1121.5 333Z" fill="#2D3E50"/><path d="M1009.5 340C1011.43 340 1013 341.567 1013 343.5 1013 345.433 1011.43 347 1009.5 347 1007.57 347 1006 345.433 1006 343.5 1006 341.567 1007.57 340 1009.5 340Z" fill="#2D3E50"/><path d="M1016.5 340C1018.43 340 1020 341.567 1020 343.5 1020 345.433 1018.43 347 1016.5 347 1014.57 347 1013 345.433 1013 343.5 1013 341.567 1014.57 340 1016.5 340Z" fill="#2D3E50"/><path d="M1023.5 340C1025.43 340 1027 341.567 1027 343.5 1027 345.433 1025.43 347 1023.5 347 1021.57 347 1020 345.433 1020 343.5 1020 341.567 1021.57 340 1023.5 340Z" fill="#2D3E50"/><path d="M1030.5 340C1032.43 340 1034 341.567 1034 343.5 1034 345.433 1032.43 347 1030.5 347 1028.57 347 1027 345.433 1027 343.5 1027 341.567 1028.57 340 1030.5 340Z" fill="#2D3E50"/><path d="M1037.5 340C1039.43 340 1041 341.567 1041 343.5 1041 345.433 1039.43 347 1037.5 347 1035.57 347 1034 345.433 1034 343.5 1034 341.567 1035.57 340 1037.5 340Z" fill="#2D3E50"/><path d="M1044.5 340C1046.43 340 1048 341.567 1048 343.5 1048 345.433 1046.43 347 1044.5 347 1042.57 347 1041 345.433 1041 343.5 1041 341.567 1042.57 340 1044.5 340Z" fill="#2D3E50"/><path d="M1051.5 340C1053.43 340 1055 341.567 1055 343.5 1055 345.433 1053.43 347 1051.5 347 1049.57 347 1048 345.433 1048 343.5 1048 341.567 1049.57 340 1051.5 340Z" fill="#2D3E50"/><path d="M1058.5 340C1060.43 340 1062 341.567 1062 343.5 1062 345.433 1060.43 347 1058.5 347 1056.57 347 1055 345.433 1055 343.5 1055 341.567 1056.57 340 1058.5 340Z" fill="#2D3E50"/><path d="M1079.5 340C1081.43 340 1083 341.567 1083 343.5 1083 345.433 1081.43 347 1079.5 347 1077.57 347 1076 345.433 1076 343.5 1076 341.567 1077.57 340 1079.5 340Z" fill="#2D3E50"/><path d="M1086.5 340C1088.43 340 1090 341.567 1090 343.5 1090 345.433 1088.43 347 1086.5 347 1084.57 347 1083 345.433 1083 343.5 1083 341.567 1084.57 340 1086.5 340Z" fill="#2D3E50"/><path d="M1100.5 340C1102.43 340 1104 341.567 1104 343.5 1104 345.433 1102.43 347 1100.5 347 1098.57 347 1097 345.433 1097 343.5 1097 341.567 1098.57 340 1100.5 340Z" fill="#2D3E50"/><path d="M1107.5 340C1109.43 340 1111 341.567 1111 343.5 1111 345.433 1109.43 347 1107.5 347 1105.57 347 1104 345.433 1104 343.5 1104 341.567 1105.57 340 1107.5 340Z" fill="#2D3E50"/><path d="M1121.5 340C1123.43 340 1125 341.567 1125 343.5 1125 345.433 1123.43 347 1121.5 347 1119.57 347 1118 345.433 1118 343.5 1118 341.567 1119.57 340 1121.5 340Z" fill="#2D3E50"/><path d="M981.5 347C983.433 347 985 348.567 985 350.5 985 352.433 983.433 354 981.5 354 979.567 354 978 352.433 978 350.5 978 348.567 979.567 347 981.5 347Z" fill="#2D3E50"/><path d="M988.5 347C990.433 347 992 348.567 992 350.5 992 352.433 990.433 354 988.5 354 986.567 354 985 352.433 985 350.5 985 348.567 986.567 347 988.5 347Z" fill="#2D3E50"/><path d="M995.5 347C997.433 347 999 348.567 999 350.5 999 352.433 997.433 354 995.5 354 993.567 354 992 352.433 992 350.5 992 348.567 993.567 347 995.5 347Z" fill="#2D3E50"/><path d="M1002.5 347C1004.43 347 1006 348.567 1006 350.5 1006 352.433 1004.43 354 1002.5 354 1000.57 354 999 352.433 999 350.5 999 348.567 1000.57 347 1002.5 347Z" fill="#2D3E50"/><path d="M1023.5 347C1025.43 347 1027 348.567 1027 350.5 1027 352.433 1025.43 354 1023.5 354 1021.57 354 1020 352.433 1020 350.5 1020 348.567 1021.57 347 1023.5 347Z" fill="#2D3E50"/><path d="M1037.5 347C1039.43 347 1041 348.567 1041 350.5 1041 352.433 1039.43 354 1037.5 354 1035.57 354 1034 352.433 1034 350.5 1034 348.567 1035.57 347 1037.5 347Z" fill="#2D3E50"/><path d="M1058.5 347C1060.43 347 1062 348.567 1062 350.5 1062 352.433 1060.43 354 1058.5 354 1056.57 354 1055 352.433 1055 350.5 1055 348.567 1056.57 347 1058.5 347Z" fill="#2D3E50"/><path d="M1065.5 347C1067.43 347 1069 348.567 1069 350.5 1069 352.433 1067.43 354 1065.5 354 1063.57 354 1062 352.433 1062 350.5 1062 348.567 1063.57 347 1065.5 347Z" fill="#2D3E50"/><path d="M1093.5 347C1095.43 347 1097 348.567 1097 350.5 1097 352.433 1095.43 354 1093.5 354 1091.57 354 1090 352.433 1090 350.5 1090 348.567 1091.57 347 1093.5 347Z" fill="#2D3E50"/><path d="M1107.5 347C1109.43 347 1111 348.567 1111 350.5 1111 352.433 1109.43 354 1107.5 354 1105.57 354 1104 352.433 1104 350.5 1104 348.567 1105.57 347 1107.5 347Z" fill="#2D3E50"/><path d="M1114.5 347C1116.43 347 1118 348.567 1118 350.5 1118 352.433 1116.43 354 1114.5 354 1112.57 354 1111 352.433 1111 350.5 1111 348.567 1112.57 347 1114.5 347Z" fill="#2D3E50"/><path d="M1121.5 347C1123.43 347 1125 348.567 1125 350.5 1125 352.433 1123.43 354 1121.5 354 1119.57 354 1118 352.433 1118 350.5 1118 348.567 1119.57 347 1121.5 347Z" fill="#2D3E50"/><path d="M1135.5 347C1137.43 347 1139 348.567 1139 350.5 1139 352.433 1137.43 354 1135.5 354 1133.57 354 1132 352.433 1132 350.5 1132 348.567 1133.57 347 1135.5 347Z" fill="#2D3E50"/><path d="M1142.5 347C1144.43 347 1146 348.567 1146 350.5 1146 352.433 1144.43 354 1142.5 354 1140.57 354 1139 352.433 1139 350.5 1139 348.567 1140.57 347 1142.5 347Z" fill="#2D3E50"/><path d="M1170.5 347C1172.43 347 1174 348.567 1174 350.5 1174 352.433 1172.43 354 1170.5 354 1168.57 354 1167 352.433 1167 350.5 1167 348.567 1168.57 347 1170.5 347Z" fill="#2D3E50"/><path d="M974.5 354C976.433 354 978 355.567 978 357.5 978 359.433 976.433 361 974.5 361 972.567 361 971 359.433 971 357.5 971 355.567 972.567 354 974.5 354Z" fill="#2D3E50"/><path d="M988.5 354C990.433 354 992 355.567 992 357.5 992 359.433 990.433 361 988.5 361 986.567 361 985 359.433 985 357.5 985 355.567 986.567 354 988.5 354Z" fill="#2D3E50"/><path d="M1002.5 354C1004.43 354 1006 355.567 1006 357.5 1006 359.433 1004.43 361 1002.5 361 1000.57 361 999 359.433 999 357.5 999 355.567 1000.57 354 1002.5 354Z" fill="#2D3E50"/><path d="M1009.5 354C1011.43 354 1013 355.567 1013 357.5 1013 359.433 1011.43 361 1009.5 361 1007.57 361 1006 359.433 1006 357.5 1006 355.567 1007.57 354 1009.5 354Z" fill="#2D3E50"/><path d="M1016.5 354C1018.43 354 1020 355.567 1020 357.5 1020 359.433 1018.43 361 1016.5 361 1014.57 361 1013 359.433 1013 357.5 1013 355.567 1014.57 354 1016.5 354Z" fill="#2D3E50"/><path d="M1037.5 354C1039.43 354 1041 355.567 1041 357.5 1041 359.433 1039.43 361 1037.5 361 1035.57 361 1034 359.433 1034 357.5 1034 355.567 1035.57 354 1037.5 354Z" fill="#2D3E50"/><path d="M1051.5 354C1053.43 354 1055 355.567 1055 357.5 1055 359.433 1053.43 361 1051.5 361 1049.57 361 1048 359.433 1048 357.5 1048 355.567 1049.57 354 1051.5 354Z" fill="#2D3E50"/><path d="M1079.5 354C1081.43 354 1083 355.567 1083 357.5 1083 359.433 1081.43 361 1079.5 361 1077.57 361 1076 359.433 1076 357.5 1076 355.567 1077.57 354 1079.5 354Z" fill="#2D3E50"/><path d="M1086.5 354C1088.43 354 1090 355.567 1090 357.5 1090 359.433 1088.43 361 1086.5 361 1084.57 361 1083 359.433 1083 357.5 1083 355.567 1084.57 354 1086.5 354Z" fill="#2D3E50"/><path d="M1142.5 354C1144.43 354 1146 355.567 1146 357.5 1146 359.433 1144.43 361 1142.5 361 1140.57 361 1139 359.433 1139 357.5 1139 355.567 1140.57 354 1142.5 354Z" fill="#2D3E50"/><path d="M1156.5 354C1158.43 354 1160 355.567 1160 357.5 1160 359.433 1158.43 361 1156.5 361 1154.57 361 1153 359.433 1153 357.5 1153 355.567 1154.57 354 1156.5 354Z" fill="#2D3E50"/><path d="M1170.5 354C1172.43 354 1174 355.567 1174 357.5 1174 359.433 1172.43 361 1170.5 361 1168.57 361 1167 359.433 1167 357.5 1167 355.567 1168.57 354 1170.5 354Z" fill="#2D3E50"/><path d="M953.5 361C955.433 361 957 362.567 957 364.5 957 366.433 955.433 368 953.5 368 951.567 368 950 366.433 950 364.5 950 362.567 951.567 361 953.5 361Z" fill="#2D3E50"/><path d="M960.5 361C962.433 361 964 362.567 964 364.5 964 366.433 962.433 368 960.5 368 958.567 368 957 366.433 957 364.5 957 362.567 958.567 361 960.5 361Z" fill="#2D3E50"/><path d="M967.5 361C969.433 361 971 362.567 971 364.5 971 366.433 969.433 368 967.5 368 965.567 368 964 366.433 964 364.5 964 362.567 965.567 361 967.5 361Z" fill="#2D3E50"/><path d="M974.5 361C976.433 361 978 362.567 978 364.5 978 366.433 976.433 368 974.5 368 972.567 368 971 366.433 971 364.5 971 362.567 972.567 361 974.5 361Z" fill="#2D3E50"/><path d="M995.5 361C997.433 361 999 362.567 999 364.5 999 366.433 997.433 368 995.5 368 993.567 368 992 366.433 992 364.5 992 362.567 993.567 361 995.5 361Z" fill="#2D3E50"/><path d="M1016.5 361C1018.43 361 1020 362.567 1020 364.5 1020 366.433 1018.43 368 1016.5 368 1014.57 368 1013 366.433 1013 364.5 1013 362.567 1014.57 361 1016.5 361Z" fill="#2D3E50"/><path d="M1023.5 361C1025.43 361 1027 362.567 1027 364.5 1027 366.433 1025.43 368 1023.5 368 1021.57 368 1020 366.433 1020 364.5 1020 362.567 1021.57 361 1023.5 361Z" fill="#2D3E50"/><path d="M1030.5 361C1032.43 361 1034 362.567 1034 364.5 1034 366.433 1032.43 368 1030.5 368 1028.57 368 1027 366.433 1027 364.5 1027 362.567 1028.57 361 1030.5 361Z" fill="#2D3E50"/><path d="M1037.5 361C1039.43 361 1041 362.567 1041 364.5 1041 366.433 1039.43 368 1037.5 368 1035.57 368 1034 366.433 1034 364.5 1034 362.567 1035.57 361 1037.5 361Z" fill="#2D3E50"/><path d="M1051.5 361C1053.43 361 1055 362.567 1055 364.5 1055 366.433 1053.43 368 1051.5 368 1049.57 368 1048 366.433 1048 364.5 1048 362.567 1049.57 361 1051.5 361Z" fill="#2D3E50"/><path d="M1093.5 361C1095.43 361 1097 362.567 1097 364.5 1097 366.433 1095.43 368 1093.5 368 1091.57 368 1090 366.433 1090 364.5 1090 362.567 1091.57 361 1093.5 361Z" fill="#2D3E50"/><path d="M1100.5 361C1102.43 361 1104 362.567 1104 364.5 1104 366.433 1102.43 368 1100.5 368 1098.57 368 1097 366.433 1097 364.5 1097 362.567 1098.57 361 1100.5 361Z" fill="#2D3E50"/><path d="M1107.5 361C1109.43 361 1111 362.567 1111 364.5 1111 366.433 1109.43 368 1107.5 368 1105.57 368 1104 366.433 1104 364.5 1104 362.567 1105.57 361 1107.5 361Z" fill="#2D3E50"/><path d="M1114.5 361C1116.43 361 1118 362.567 1118 364.5 1118 366.433 1116.43 368 1114.5 368 1112.57 368 1111 366.433 1111 364.5 1111 362.567 1112.57 361 1114.5 361Z" fill="#2D3E50"/><path d="M1135.5 361C1137.43 361 1139 362.567 1139 364.5 1139 366.433 1137.43 368 1135.5 368 1133.57 368 1132 366.433 1132 364.5 1132 362.567 1133.57 361 1135.5 361Z" fill="#2D3E50"/><path d="M1142.5 361C1144.43 361 1146 362.567 1146 364.5 1146 366.433 1144.43 368 1142.5 368 1140.57 368 1139 366.433 1139 364.5 1139 362.567 1140.57 361 1142.5 361Z" fill="#2D3E50"/><path d="M1149.5 361C1151.43 361 1153 362.567 1153 364.5 1153 366.433 1151.43 368 1149.5 368 1147.57 368 1146 366.433 1146 364.5 1146 362.567 1147.57 361 1149.5 361Z" fill="#2D3E50"/><path d="M1163.5 361C1165.43 361 1167 362.567 1167 364.5 1167 366.433 1165.43 368 1163.5 368 1161.57 368 1160 366.433 1160 364.5 1160 362.567 1161.57 361 1163.5 361Z" fill="#2D3E50"/><path d="M1170.5 361C1172.43 361 1174 362.567 1174 364.5 1174 366.433 1172.43 368 1170.5 368 1168.57 368 1167 366.433 1167 364.5 1167 362.567 1168.57 361 1170.5 361Z" fill="#2D3E50"/><path d="M953.5 368C955.433 368 957 369.567 957 371.5 957 373.433 955.433 375 953.5 375 951.567 375 950 373.433 950 371.5 950 369.567 951.567 368 953.5 368Z" fill="#2D3E50"/><path d="M960.5 368C962.433 368 964 369.567 964 371.5 964 373.433 962.433 375 960.5 375 958.567 375 957 373.433 957 371.5 957 369.567 958.567 368 960.5 368Z" fill="#2D3E50"/><path d="M967.5 368C969.433 368 971 369.567 971 371.5 971 373.433 969.433 375 967.5 375 965.567 375 964 373.433 964 371.5 964 369.567 965.567 368 967.5 368Z" fill="#2D3E50"/><path d="M981.5 368C983.433 368 985 369.567 985 371.5 985 373.433 983.433 375 981.5 375 979.567 375 978 373.433 978 371.5 978 369.567 979.567 368 981.5 368Z" fill="#2D3E50"/><path d="M988.5 368C990.433 368 992 369.567 992 371.5 992 373.433 990.433 375 988.5 375 986.567 375 985 373.433 985 371.5 985 369.567 986.567 368 988.5 368Z" fill="#2D3E50"/><path d="M1016.5 368C1018.43 368 1020 369.567 1020 371.5 1020 373.433 1018.43 375 1016.5 375 1014.57 375 1013 373.433 1013 371.5 1013 369.567 1014.57 368 1016.5 368Z" fill="#2D3E50"/><path d="M1023.5 368C1025.43 368 1027 369.567 1027 371.5 1027 373.433 1025.43 375 1023.5 375 1021.57 375 1020 373.433 1020 371.5 1020 369.567 1021.57 368 1023.5 368Z" fill="#2D3E50"/><path d="M1114.5 368C1116.43 368 1118 369.567 1118 371.5 1118 373.433 1116.43 375 1114.5 375 1112.57 375 1111 373.433 1111 371.5 1111 369.567 1112.57 368 1114.5 368Z" fill="#2D3E50"/><path d="M1128.5 368C1130.43 368 1132 369.567 1132 371.5 1132 373.433 1130.43 375 1128.5 375 1126.57 375 1125 373.433 1125 371.5 1125 369.567 1126.57 368 1128.5 368Z" fill="#2D3E50"/><path d="M1135.5 368C1137.43 368 1139 369.567 1139 371.5 1139 373.433 1137.43 375 1135.5 375 1133.57 375 1132 373.433 1132 371.5 1132 369.567 1133.57 368 1135.5 368Z" fill="#2D3E50"/><path d="M1149.5 368C1151.43 368 1153 369.567 1153 371.5 1153 373.433 1151.43 375 1149.5 375 1147.57 375 1146 373.433 1146 371.5 1146 369.567 1147.57 368 1149.5 368Z" fill="#2D3E50"/><path d="M988.5 375C990.433 375 992 376.567 992 378.5 992 380.433 990.433 382 988.5 382 986.567 382 985 380.433 985 378.5 985 376.567 986.567 375 988.5 375Z" fill="#2D3E50"/><path d="M995.5 375C997.433 375 999 376.567 999 378.5 999 380.433 997.433 382 995.5 382 993.567 382 992 380.433 992 378.5 992 376.567 993.567 375 995.5 375Z" fill="#2D3E50"/><path d="M1009.5 375C1011.43 375 1013 376.567 1013 378.5 1013 380.433 1011.43 382 1009.5 382 1007.57 382 1006 380.433 1006 378.5 1006 376.567 1007.57 375 1009.5 375Z" fill="#2D3E50"/><path d="M1016.5 375C1018.43 375 1020 376.567 1020 378.5 1020 380.433 1018.43 382 1016.5 382 1014.57 382 1013 380.433 1013 378.5 1013 376.567 1014.57 375 1016.5 375Z" fill="#2D3E50"/><path d="M1023.5 375C1025.43 375 1027 376.567 1027 378.5 1027 380.433 1025.43 382 1023.5 382 1021.57 382 1020 380.433 1020 378.5 1020 376.567 1021.57 375 1023.5 375Z" fill="#2D3E50"/><path d="M1121.5 375C1123.43 375 1125 376.567 1125 378.5 1125 380.433 1123.43 382 1121.5 382 1119.57 382 1118 380.433 1118 378.5 1118 376.567 1119.57 375 1121.5 375Z" fill="#2D3E50"/><path d="M1135.5 375C1137.43 375 1139 376.567 1139 378.5 1139 380.433 1137.43 382 1135.5 382 1133.57 382 1132 380.433 1132 378.5 1132 376.567 1133.57 375 1135.5 375Z" fill="#2D3E50"/><path d="M1142.5 375C1144.43 375 1146 376.567 1146 378.5 1146 380.433 1144.43 382 1142.5 382 1140.57 382 1139 380.433 1139 378.5 1139 376.567 1140.57 375 1142.5 375Z" fill="#2D3E50"/><path d="M1163.5 375C1165.43 375 1167 376.567 1167 378.5 1167 380.433 1165.43 382 1163.5 382 1161.57 382 1160 380.433 1160 378.5 1160 376.567 1161.57 375 1163.5 375Z" fill="#2D3E50"/><path d="M953.5 382C955.433 382 957 383.567 957 385.5 957 387.433 955.433 389 953.5 389 951.567 389 950 387.433 950 385.5 950 383.567 951.567 382 953.5 382Z" fill="#2D3E50"/><path d="M960.5 382C962.433 382 964 383.567 964 385.5 964 387.433 962.433 389 960.5 389 958.567 389 957 387.433 957 385.5 957 383.567 958.567 382 960.5 382Z" fill="#2D3E50"/><path d="M974.5 382C976.433 382 978 383.567 978 385.5 978 387.433 976.433 389 974.5 389 972.567 389 971 387.433 971 385.5 971 383.567 972.567 382 974.5 382Z" fill="#2D3E50"/><path d="M1009.5 382C1011.43 382 1013 383.567 1013 385.5 1013 387.433 1011.43 389 1009.5 389 1007.57 389 1006 387.433 1006 385.5 1006 383.567 1007.57 382 1009.5 382Z" fill="#2D3E50"/><path d="M1016.5 382C1018.43 382 1020 383.567 1020 385.5 1020 387.433 1018.43 389 1016.5 389 1014.57 389 1013 387.433 1013 385.5 1013 383.567 1014.57 382 1016.5 382Z" fill="#2D3E50"/><path d="M1023.5 382C1025.43 382 1027 383.567 1027 385.5 1027 387.433 1025.43 389 1023.5 389 1021.57 389 1020 387.433 1020 385.5 1020 383.567 1021.57 382 1023.5 382Z" fill="#2D3E50"/><path d="M1107.5 382C1109.43 382 1111 383.567 1111 385.5 1111 387.433 1109.43 389 1107.5 389 1105.57 389 1104 387.433 1104 385.5 1104 383.567 1105.57 382 1107.5 382Z" fill="#2D3E50"/><path d="M1114.5 382C1116.43 382 1118 383.567 1118 385.5 1118 387.433 1116.43 389 1114.5 389 1112.57 389 1111 387.433 1111 385.5 1111 383.567 1112.57 382 1114.5 382Z" fill="#2D3E50"/><path d="M1121.5 382C1123.43 382 1125 383.567 1125 385.5 1125 387.433 1123.43 389 1121.5 389 1119.57 389 1118 387.433 1118 385.5 1118 383.567 1119.57 382 1121.5 382Z" fill="#2D3E50"/><path d="M1156.5 382C1158.43 382 1160 383.567 1160 385.5 1160 387.433 1158.43 389 1156.5 389 1154.57 389 1153 387.433 1153 385.5 1153 383.567 1154.57 382 1156.5 382Z" fill="#2D3E50"/><path d="M1163.5 382C1165.43 382 1167 383.567 1167 385.5 1167 387.433 1165.43 389 1163.5 389 1161.57 389 1160 387.433 1160 385.5 1160 383.567 1161.57 382 1163.5 382Z" fill="#2D3E50"/><path d="M1170.5 382C1172.43 382 1174 383.567 1174 385.5 1174 387.433 1172.43 389 1170.5 389 1168.57 389 1167 387.433 1167 385.5 1167 383.567 1168.57 382 1170.5 382Z" fill="#2D3E50"/><path d="M953.5 389C955.433 389 957 390.567 957 392.5 957 394.433 955.433 396 953.5 396 951.567 396 950 394.433 950 392.5 950 390.567 951.567 389 953.5 389Z" fill="#2D3E50"/><path d="M960.5 389C962.433 389 964 390.567 964 392.5 964 394.433 962.433 396 960.5 396 958.567 396 957 394.433 957 392.5 957 390.567 958.567 389 960.5 389Z" fill="#2D3E50"/><path d="M967.5 389C969.433 389 971 390.567 971 392.5 971 394.433 969.433 396 967.5 396 965.567 396 964 394.433 964 392.5 964 390.567 965.567 389 967.5 389Z" fill="#2D3E50"/><path d="M974.5 389C976.433 389 978 390.567 978 392.5 978 394.433 976.433 396 974.5 396 972.567 396 971 394.433 971 392.5 971 390.567 972.567 389 974.5 389Z" fill="#2D3E50"/><path d="M981.5 389C983.433 389 985 390.567 985 392.5 985 394.433 983.433 396 981.5 396 979.567 396 978 394.433 978 392.5 978 390.567 979.567 389 981.5 389Z" fill="#2D3E50"/><path d="M995.5 389C997.433 389 999 390.567 999 392.5 999 394.433 997.433 396 995.5 396 993.567 396 992 394.433 992 392.5 992 390.567 993.567 389 995.5 389Z" fill="#2D3E50"/><path d="M1002.5 389C1004.43 389 1006 390.567 1006 392.5 1006 394.433 1004.43 396 1002.5 396 1000.57 396 999 394.433 999 392.5 999 390.567 1000.57 389 1002.5 389Z" fill="#2D3E50"/><path d="M1023.5 389C1025.43 389 1027 390.567 1027 392.5 1027 394.433 1025.43 396 1023.5 396 1021.57 396 1020 394.433 1020 392.5 1020 390.567 1021.57 389 1023.5 389Z" fill="#2D3E50"/><path d="M1114.5 389C1116.43 389 1118 390.567 1118 392.5 1118 394.433 1116.43 396 1114.5 396 1112.57 396 1111 394.433 1111 392.5 1111 390.567 1112.57 389 1114.5 389Z" fill="#2D3E50"/><path d="M1128.5 389C1130.43 389 1132 390.567 1132 392.5 1132 394.433 1130.43 396 1128.5 396 1126.57 396 1125 394.433 1125 392.5 1125 390.567 1126.57 389 1128.5 389Z" fill="#2D3E50"/><path d="M1149.5 389C1151.43 389 1153 390.567 1153 392.5 1153 394.433 1151.43 396 1149.5 396 1147.57 396 1146 394.433 1146 392.5 1146 390.567 1147.57 389 1149.5 389Z" fill="#2D3E50"/><path d="M1156.5 389C1158.43 389 1160 390.567 1160 392.5 1160 394.433 1158.43 396 1156.5 396 1154.57 396 1153 394.433 1153 392.5 1153 390.567 1154.57 389 1156.5 389Z" fill="#2D3E50"/><path d="M1170.5 389C1172.43 389 1174 390.567 1174 392.5 1174 394.433 1172.43 396 1170.5 396 1168.57 396 1167 394.433 1167 392.5 1167 390.567 1168.57 389 1170.5 389Z" fill="#2D3E50"/><path d="M967.5 396C969.433 396 971 397.567 971 399.5 971 401.433 969.433 403 967.5 403 965.567 403 964 401.433 964 399.5 964 397.567 965.567 396 967.5 396Z" fill="#2D3E50"/><path d="M981.5 396C983.433 396 985 397.567 985 399.5 985 401.433 983.433 403 981.5 403 979.567 403 978 401.433 978 399.5 978 397.567 979.567 396 981.5 396Z" fill="#2D3E50"/><path d="M1002.5 396C1004.43 396 1006 397.567 1006 399.5 1006 401.433 1004.43 403 1002.5 403 1000.57 403 999 401.433 999 399.5 999 397.567 1000.57 396 1002.5 396Z" fill="#2D3E50"/><path d="M1142.5 396C1144.43 396 1146 397.567 1146 399.5 1146 401.433 1144.43 403 1142.5 403 1140.57 403 1139 401.433 1139 399.5 1139 397.567 1140.57 396 1142.5 396Z" fill="#2D3E50"/><path d="M1149.5 396C1151.43 396 1153 397.567 1153 399.5 1153 401.433 1151.43 403 1149.5 403 1147.57 403 1146 401.433 1146 399.5 1146 397.567 1147.57 396 1149.5 396Z" fill="#2D3E50"/><path d="M1156.5 396C1158.43 396 1160 397.567 1160 399.5 1160 401.433 1158.43 403 1156.5 403 1154.57 403 1153 401.433 1153 399.5 1153 397.567 1154.57 396 1156.5 396Z" fill="#2D3E50"/><path d="M1170.5 396C1172.43 396 1174 397.567 1174 399.5 1174 401.433 1172.43 403 1170.5 403 1168.57 403 1167 401.433 1167 399.5 1167 397.567 1168.57 396 1170.5 396Z" fill="#2D3E50"/><path d="M1177.5 396C1179.43 396 1181 397.567 1181 399.5 1181 401.433 1179.43 403 1177.5 403 1175.57 403 1174 401.433 1174 399.5 1174 397.567 1175.57 396 1177.5 396Z" fill="#2D3E50"/><path d="M953.5 403C955.433 403 957 404.567 957 406.5 957 408.433 955.433 410 953.5 410 951.567 410 950 408.433 950 406.5 950 404.567 951.567 403 953.5 403Z" fill="#2D3E50"/><path d="M960.5 403C962.433 403 964 404.567 964 406.5 964 408.433 962.433 410 960.5 410 958.567 410 957 408.433 957 406.5 957 404.567 958.567 403 960.5 403Z" fill="#2D3E50"/><path d="M974.5 403C976.433 403 978 404.567 978 406.5 978 408.433 976.433 410 974.5 410 972.567 410 971 408.433 971 406.5 971 404.567 972.567 403 974.5 403Z" fill="#2D3E50"/><path d="M981.5 403C983.433 403 985 404.567 985 406.5 985 408.433 983.433 410 981.5 410 979.567 410 978 408.433 978 406.5 978 404.567 979.567 403 981.5 403Z" fill="#2D3E50"/><path d="M995.5 403C997.433 403 999 404.567 999 406.5 999 408.433 997.433 410 995.5 410 993.567 410 992 408.433 992 406.5 992 404.567 993.567 403 995.5 403Z" fill="#2D3E50"/><path d="M1009.5 403C1011.43 403 1013 404.567 1013 406.5 1013 408.433 1011.43 410 1009.5 410 1007.57 410 1006 408.433 1006 406.5 1006 404.567 1007.57 403 1009.5 403Z" fill="#2D3E50"/><path d="M1023.5 403C1025.43 403 1027 404.567 1027 406.5 1027 408.433 1025.43 410 1023.5 410 1021.57 410 1020 408.433 1020 406.5 1020 404.567 1021.57 403 1023.5 403Z" fill="#2D3E50"/><path d="M1135.5 403C1137.43 403 1139 404.567 1139 406.5 1139 408.433 1137.43 410 1135.5 410 1133.57 410 1132 408.433 1132 406.5 1132 404.567 1133.57 403 1135.5 403Z" fill="#2D3E50"/><path d="M1142.5 403C1144.43 403 1146 404.567 1146 406.5 1146 408.433 1144.43 410 1142.5 410 1140.57 410 1139 408.433 1139 406.5 1139 404.567 1140.57 403 1142.5 403Z" fill="#2D3E50"/><path d="M1149.5 403C1151.43 403 1153 404.567 1153 406.5 1153 408.433 1151.43 410 1149.5 410 1147.57 410 1146 408.433 1146 406.5 1146 404.567 1147.57 403 1149.5 403Z" fill="#2D3E50"/><path d="M1163.5 403C1165.43 403 1167 404.567 1167 406.5 1167 408.433 1165.43 410 1163.5 410 1161.57 410 1160 408.433 1160 406.5 1160 404.567 1161.57 403 1163.5 403Z" fill="#2D3E50"/><path d="M1170.5 403C1172.43 403 1174 404.567 1174 406.5 1174 408.433 1172.43 410 1170.5 410 1168.57 410 1167 408.433 1167 406.5 1167 404.567 1168.57 403 1170.5 403Z" fill="#2D3E50"/><path d="M953.5 410C955.433 410 957 411.567 957 413.5 957 415.433 955.433 417 953.5 417 951.567 417 950 415.433 950 413.5 950 411.567 951.567 410 953.5 410Z" fill="#2D3E50"/><path d="M960.5 410C962.433 410 964 411.567 964 413.5 964 415.433 962.433 417 960.5 417 958.567 417 957 415.433 957 413.5 957 411.567 958.567 410 960.5 410Z" fill="#2D3E50"/><path d="M967.5 410C969.433 410 971 411.567 971 413.5 971 415.433 969.433 417 967.5 417 965.567 417 964 415.433 964 413.5 964 411.567 965.567 410 967.5 410Z" fill="#2D3E50"/><path d="M981.5 410C983.433 410 985 411.567 985 413.5 985 415.433 983.433 417 981.5 417 979.567 417 978 415.433 978 413.5 978 411.567 979.567 410 981.5 410Z" fill="#2D3E50"/><path d="M1002.5 410C1004.43 410 1006 411.567 1006 413.5 1006 415.433 1004.43 417 1002.5 417 1000.57 417 999 415.433 999 413.5 999 411.567 1000.57 410 1002.5 410Z" fill="#2D3E50"/><path d="M1009.5 410C1011.43 410 1013 411.567 1013 413.5 1013 415.433 1011.43 417 1009.5 417 1007.57 417 1006 415.433 1006 413.5 1006 411.567 1007.57 410 1009.5 410Z" fill="#2D3E50"/><path d="M1016.5 410C1018.43 410 1020 411.567 1020 413.5 1020 415.433 1018.43 417 1016.5 417 1014.57 417 1013 415.433 1013 413.5 1013 411.567 1014.57 410 1016.5 410Z" fill="#2D3E50"/><path d="M1114.5 410C1116.43 410 1118 411.567 1118 413.5 1118 415.433 1116.43 417 1114.5 417 1112.57 417 1111 415.433 1111 413.5 1111 411.567 1112.57 410 1114.5 410Z" fill="#2D3E50"/><path d="M1121.5 410C1123.43 410 1125 411.567 1125 413.5 1125 415.433 1123.43 417 1121.5 417 1119.57 417 1118 415.433 1118 413.5 1118 411.567 1119.57 410 1121.5 410Z" fill="#2D3E50"/><path d="M1128.5 410C1130.43 410 1132 411.567 1132 413.5 1132 415.433 1130.43 417 1128.5 417 1126.57 417 1125 415.433 1125 413.5 1125 411.567 1126.57 410 1128.5 410Z" fill="#2D3E50"/><path d="M1142.5 410C1144.43 410 1146 411.567 1146 413.5 1146 415.433 1144.43 417 1142.5 417 1140.57 417 1139 415.433 1139 413.5 1139 411.567 1140.57 410 1142.5 410Z" fill="#2D3E50"/><path d="M1177.5 410C1179.43 410 1181 411.567 1181 413.5 1181 415.433 1179.43 417 1177.5 417 1175.57 417 1174 415.433 1174 413.5 1174 411.567 1175.57 410 1177.5 410Z" fill="#2D3E50"/><path d="M953.5 417C955.433 417 957 418.567 957 420.5 957 422.433 955.433 424 953.5 424 951.567 424 950 422.433 950 420.5 950 418.567 951.567 417 953.5 417Z" fill="#2D3E50"/><path d="M974.5 417C976.433 417 978 418.567 978 420.5 978 422.433 976.433 424 974.5 424 972.567 424 971 422.433 971 420.5 971 418.567 972.567 417 974.5 417Z" fill="#2D3E50"/><path d="M981.5 417C983.433 417 985 418.567 985 420.5 985 422.433 983.433 424 981.5 424 979.567 424 978 422.433 978 420.5 978 418.567 979.567 417 981.5 417Z" fill="#2D3E50"/><path d="M995.5 417C997.433 417 999 418.567 999 420.5 999 422.433 997.433 424 995.5 424 993.567 424 992 422.433 992 420.5 992 418.567 993.567 417 995.5 417Z" fill="#2D3E50"/><path d="M1002.5 417C1004.43 417 1006 418.567 1006 420.5 1006 422.433 1004.43 424 1002.5 424 1000.57 424 999 422.433 999 420.5 999 418.567 1000.57 417 1002.5 417Z" fill="#2D3E50"/><path d="M1009.5 417C1011.43 417 1013 418.567 1013 420.5 1013 422.433 1011.43 424 1009.5 424 1007.57 424 1006 422.433 1006 420.5 1006 418.567 1007.57 417 1009.5 417Z" fill="#2D3E50"/><path d="M1023.5 417C1025.43 417 1027 418.567 1027 420.5 1027 422.433 1025.43 424 1023.5 424 1021.57 424 1020 422.433 1020 420.5 1020 418.567 1021.57 417 1023.5 417Z" fill="#2D3E50"/><path d="M1114.5 417C1116.43 417 1118 418.567 1118 420.5 1118 422.433 1116.43 424 1114.5 424 1112.57 424 1111 422.433 1111 420.5 1111 418.567 1112.57 417 1114.5 417Z" fill="#2D3E50"/><path d="M1121.5 417C1123.43 417 1125 418.567 1125 420.5 1125 422.433 1123.43 424 1121.5 424 1119.57 424 1118 422.433 1118 420.5 1118 418.567 1119.57 417 1121.5 417Z" fill="#2D3E50"/><path d="M1128.5 417C1130.43 417 1132 418.567 1132 420.5 1132 422.433 1130.43 424 1128.5 424 1126.57 424 1125 422.433 1125 420.5 1125 418.567 1126.57 417 1128.5 417Z" fill="#2D3E50"/><path d="M1135.5 417C1137.43 417 1139 418.567 1139 420.5 1139 422.433 1137.43 424 1135.5 424 1133.57 424 1132 422.433 1132 420.5 1132 418.567 1133.57 417 1135.5 417Z" fill="#2D3E50"/><path d="M1149.5 417C1151.43 417 1153 418.567 1153 420.5 1153 422.433 1151.43 424 1149.5 424 1147.57 424 1146 422.433 1146 420.5 1146 418.567 1147.57 417 1149.5 417Z" fill="#2D3E50"/><path d="M1156.5 417C1158.43 417 1160 418.567 1160 420.5 1160 422.433 1158.43 424 1156.5 424 1154.57 424 1153 422.433 1153 420.5 1153 418.567 1154.57 417 1156.5 417Z" fill="#2D3E50"/><path d="M1170.5 417C1172.43 417 1174 418.567 1174 420.5 1174 422.433 1172.43 424 1170.5 424 1168.57 424 1167 422.433 1167 420.5 1167 418.567 1168.57 417 1170.5 417Z" fill="#2D3E50"/><path d="M988.5 424C990.433 424 992 425.567 992 427.5 992 429.433 990.433 431 988.5 431 986.567 431 985 429.433 985 427.5 985 425.567 986.567 424 988.5 424Z" fill="#2D3E50"/><path d="M1002.5 424C1004.43 424 1006 425.567 1006 427.5 1006 429.433 1004.43 431 1002.5 431 1000.57 431 999 429.433 999 427.5 999 425.567 1000.57 424 1002.5 424Z" fill="#2D3E50"/><path d="M1009.5 424C1011.43 424 1013 425.567 1013 427.5 1013 429.433 1011.43 431 1009.5 431 1007.57 431 1006 429.433 1006 427.5 1006 425.567 1007.57 424 1009.5 424Z" fill="#2D3E50"/><path d="M1023.5 424C1025.43 424 1027 425.567 1027 427.5 1027 429.433 1025.43 431 1023.5 431 1021.57 431 1020 429.433 1020 427.5 1020 425.567 1021.57 424 1023.5 424Z" fill="#2D3E50"/><path d="M1135.5 424C1137.43 424 1139 425.567 1139 427.5 1139 429.433 1137.43 431 1135.5 431 1133.57 431 1132 429.433 1132 427.5 1132 425.567 1133.57 424 1135.5 424Z" fill="#2D3E50"/><path d="M1142.5 424C1144.43 424 1146 425.567 1146 427.5 1146 429.433 1144.43 431 1142.5 431 1140.57 431 1139 429.433 1139 427.5 1139 425.567 1140.57 424 1142.5 424Z" fill="#2D3E50"/><path d="M1149.5 424C1151.43 424 1153 425.567 1153 427.5 1153 429.433 1151.43 431 1149.5 431 1147.57 431 1146 429.433 1146 427.5 1146 425.567 1147.57 424 1149.5 424Z" fill="#2D3E50"/><path d="M1177.5 424C1179.43 424 1181 425.567 1181 427.5 1181 429.433 1179.43 431 1177.5 431 1175.57 431 1174 429.433 1174 427.5 1174 425.567 1175.57 424 1177.5 424Z" fill="#2D3E50"/><path d="M960.5 431C962.433 431 964 432.567 964 434.5 964 436.433 962.433 438 960.5 438 958.567 438 957 436.433 957 434.5 957 432.567 958.567 431 960.5 431Z" fill="#2D3E50"/><path d="M974.5 431C976.433 431 978 432.567 978 434.5 978 436.433 976.433 438 974.5 438 972.567 438 971 436.433 971 434.5 971 432.567 972.567 431 974.5 431Z" fill="#2D3E50"/><path d="M981.5 431C983.433 431 985 432.567 985 434.5 985 436.433 983.433 438 981.5 438 979.567 438 978 436.433 978 434.5 978 432.567 979.567 431 981.5 431Z" fill="#2D3E50"/><path d="M995.5 431C997.433 431 999 432.567 999 434.5 999 436.433 997.433 438 995.5 438 993.567 438 992 436.433 992 434.5 992 432.567 993.567 431 995.5 431Z" fill="#2D3E50"/><path d="M1016.5 431C1018.43 431 1020 432.567 1020 434.5 1020 436.433 1018.43 438 1016.5 438 1014.57 438 1013 436.433 1013 434.5 1013 432.567 1014.57 431 1016.5 431Z" fill="#2D3E50"/><path d="M1023.5 431C1025.43 431 1027 432.567 1027 434.5 1027 436.433 1025.43 438 1023.5 438 1021.57 438 1020 436.433 1020 434.5 1020 432.567 1021.57 431 1023.5 431Z" fill="#2D3E50"/><path d="M1107.5 431C1109.43 431 1111 432.567 1111 434.5 1111 436.433 1109.43 438 1107.5 438 1105.57 438 1104 436.433 1104 434.5 1104 432.567 1105.57 431 1107.5 431Z" fill="#2D3E50"/><path d="M1149.5 431C1151.43 431 1153 432.567 1153 434.5 1153 436.433 1151.43 438 1149.5 438 1147.57 438 1146 436.433 1146 434.5 1146 432.567 1147.57 431 1149.5 431Z" fill="#2D3E50"/><path d="M1156.5 431C1158.43 431 1160 432.567 1160 434.5 1160 436.433 1158.43 438 1156.5 438 1154.57 438 1153 436.433 1153 434.5 1153 432.567 1154.57 431 1156.5 431Z" fill="#2D3E50"/><path d="M953.5 438C955.433 438 957 439.567 957 441.5 957 443.433 955.433 445 953.5 445 951.567 445 950 443.433 950 441.5 950 439.567 951.567 438 953.5 438Z" fill="#2D3E50"/><path d="M967.5 438C969.433 438 971 439.567 971 441.5 971 443.433 969.433 445 967.5 445 965.567 445 964 443.433 964 441.5 964 439.567 965.567 438 967.5 438Z" fill="#2D3E50"/><path d="M981.5 438C983.433 438 985 439.567 985 441.5 985 443.433 983.433 445 981.5 445 979.567 445 978 443.433 978 441.5 978 439.567 979.567 438 981.5 438Z" fill="#2D3E50"/><path d="M1002.5 438C1004.43 438 1006 439.567 1006 441.5 1006 443.433 1004.43 445 1002.5 445 1000.57 445 999 443.433 999 441.5 999 439.567 1000.57 438 1002.5 438Z" fill="#2D3E50"/><path d="M1009.5 438C1011.43 438 1013 439.567 1013 441.5 1013 443.433 1011.43 445 1009.5 445 1007.57 445 1006 443.433 1006 441.5 1006 439.567 1007.57 438 1009.5 438Z" fill="#2D3E50"/><path d="M1016.5 438C1018.43 438 1020 439.567 1020 441.5 1020 443.433 1018.43 445 1016.5 445 1014.57 445 1013 443.433 1013 441.5 1013 439.567 1014.57 438 1016.5 438Z" fill="#2D3E50"/><path d="M1121.5 438C1123.43 438 1125 439.567 1125 441.5 1125 443.433 1123.43 445 1121.5 445 1119.57 445 1118 443.433 1118 441.5 1118 439.567 1119.57 438 1121.5 438Z" fill="#2D3E50"/><path d="M1128.5 438C1130.43 438 1132 439.567 1132 441.5 1132 443.433 1130.43 445 1128.5 445 1126.57 445 1125 443.433 1125 441.5 1125 439.567 1126.57 438 1128.5 438Z" fill="#2D3E50"/><path d="M1135.5 438C1137.43 438 1139 439.567 1139 441.5 1139 443.433 1137.43 445 1135.5 445 1133.57 445 1132 443.433 1132 441.5 1132 439.567 1133.57 438 1135.5 438Z" fill="#2D3E50"/><path d="M1142.5 438C1144.43 438 1146 439.567 1146 441.5 1146 443.433 1144.43 445 1142.5 445 1140.57 445 1139 443.433 1139 441.5 1139 439.567 1140.57 438 1142.5 438Z" fill="#2D3E50"/><path d="M1170.5 438C1172.43 438 1174 439.567 1174 441.5 1174 443.433 1172.43 445 1170.5 445 1168.57 445 1167 443.433 1167 441.5 1167 439.567 1168.57 438 1170.5 438Z" fill="#2D3E50"/><path d="M967.5 445C969.433 445 971 446.567 971 448.5 971 450.433 969.433 452 967.5 452 965.567 452 964 450.433 964 448.5 964 446.567 965.567 445 967.5 445Z" fill="#2D3E50"/><path d="M981.5 445C983.433 445 985 446.567 985 448.5 985 450.433 983.433 452 981.5 452 979.567 452 978 450.433 978 448.5 978 446.567 979.567 445 981.5 445Z" fill="#2D3E50"/><path d="M988.5 445C990.433 445 992 446.567 992 448.5 992 450.433 990.433 452 988.5 452 986.567 452 985 450.433 985 448.5 985 446.567 986.567 445 988.5 445Z" fill="#2D3E50"/><path d="M995.5 445C997.433 445 999 446.567 999 448.5 999 450.433 997.433 452 995.5 452 993.567 452 992 450.433 992 448.5 992 446.567 993.567 445 995.5 445Z" fill="#2D3E50"/><path d="M1002.5 445C1004.43 445 1006 446.567 1006 448.5 1006 450.433 1004.43 452 1002.5 452 1000.57 452 999 450.433 999 448.5 999 446.567 1000.57 445 1002.5 445Z" fill="#2D3E50"/><path d="M1016.5 445C1018.43 445 1020 446.567 1020 448.5 1020 450.433 1018.43 452 1016.5 452 1014.57 452 1013 450.433 1013 448.5 1013 446.567 1014.57 445 1016.5 445Z" fill="#2D3E50"/><path d="M1023.5 445C1025.43 445 1027 446.567 1027 448.5 1027 450.433 1025.43 452 1023.5 452 1021.57 452 1020 450.433 1020 448.5 1020 446.567 1021.57 445 1023.5 445Z" fill="#2D3E50"/><path d="M1030.5 445C1032.43 445 1034 446.567 1034 448.5 1034 450.433 1032.43 452 1030.5 452 1028.57 452 1027 450.433 1027 448.5 1027 446.567 1028.57 445 1030.5 445Z" fill="#2D3E50"/><path d="M1051.5 445C1053.43 445 1055 446.567 1055 448.5 1055 450.433 1053.43 452 1051.5 452 1049.57 452 1048 450.433 1048 448.5 1048 446.567 1049.57 445 1051.5 445Z" fill="#2D3E50"/><path d="M1072.5 445C1074.43 445 1076 446.567 1076 448.5 1076 450.433 1074.43 452 1072.5 452 1070.57 452 1069 450.433 1069 448.5 1069 446.567 1070.57 445 1072.5 445Z" fill="#2D3E50"/><path d="M1086.5 445C1088.43 445 1090 446.567 1090 448.5 1090 450.433 1088.43 452 1086.5 452 1084.57 452 1083 450.433 1083 448.5 1083 446.567 1084.57 445 1086.5 445Z" fill="#2D3E50"/><path d="M1093.5 445C1095.43 445 1097 446.567 1097 448.5 1097 450.433 1095.43 452 1093.5 452 1091.57 452 1090 450.433 1090 448.5 1090 446.567 1091.57 445 1093.5 445Z" fill="#2D3E50"/><path d="M1100.5 445C1102.43 445 1104 446.567 1104 448.5 1104 450.433 1102.43 452 1100.5 452 1098.57 452 1097 450.433 1097 448.5 1097 446.567 1098.57 445 1100.5 445Z" fill="#2D3E50"/><path d="M1107.5 445C1109.43 445 1111 446.567 1111 448.5 1111 450.433 1109.43 452 1107.5 452 1105.57 452 1104 450.433 1104 448.5 1104 446.567 1105.57 445 1107.5 445Z" fill="#2D3E50"/><path d="M1114.5 445C1116.43 445 1118 446.567 1118 448.5 1118 450.433 1116.43 452 1114.5 452 1112.57 452 1111 450.433 1111 448.5 1111 446.567 1112.57 445 1114.5 445Z" fill="#2D3E50"/><path d="M1121.5 445C1123.43 445 1125 446.567 1125 448.5 1125 450.433 1123.43 452 1121.5 452 1119.57 452 1118 450.433 1118 448.5 1118 446.567 1119.57 445 1121.5 445Z" fill="#2D3E50"/><path d="M1142.5 445C1144.43 445 1146 446.567 1146 448.5 1146 450.433 1144.43 452 1142.5 452 1140.57 452 1139 450.433 1139 448.5 1139 446.567 1140.57 445 1142.5 445Z" fill="#2D3E50"/><path d="M981.5 452C983.433 452 985 453.567 985 455.5 985 457.433 983.433 459 981.5 459 979.567 459 978 457.433 978 455.5 978 453.567 979.567 452 981.5 452Z" fill="#2D3E50"/><path d="M1030.5 452C1032.43 452 1034 453.567 1034 455.5 1034 457.433 1032.43 459 1030.5 459 1028.57 459 1027 457.433 1027 455.5 1027 453.567 1028.57 452 1030.5 452Z" fill="#2D3E50"/><path d="M1037.5 452C1039.43 452 1041 453.567 1041 455.5 1041 457.433 1039.43 459 1037.5 459 1035.57 459 1034 457.433 1034 455.5 1034 453.567 1035.57 452 1037.5 452Z" fill="#2D3E50"/><path d="M1072.5 452C1074.43 452 1076 453.567 1076 455.5 1076 457.433 1074.43 459 1072.5 459 1070.57 459 1069 457.433 1069 455.5 1069 453.567 1070.57 452 1072.5 452Z" fill="#2D3E50"/><path d="M1093.5 452C1095.43 452 1097 453.567 1097 455.5 1097 457.433 1095.43 459 1093.5 459 1091.57 459 1090 457.433 1090 455.5 1090 453.567 1091.57 452 1093.5 452Z" fill="#2D3E50"/><path d="M1100.5 452C1102.43 452 1104 453.567 1104 455.5 1104 457.433 1102.43 459 1100.5 459 1098.57 459 1097 457.433 1097 455.5 1097 453.567 1098.57 452 1100.5 452Z" fill="#2D3E50"/><path d="M1114.5 452C1116.43 452 1118 453.567 1118 455.5 1118 457.433 1116.43 459 1114.5 459 1112.57 459 1111 457.433 1111 455.5 1111 453.567 1112.57 452 1114.5 452Z" fill="#2D3E50"/><path d="M1170.5 452C1172.43 452 1174 453.567 1174 455.5 1174 457.433 1172.43 459 1170.5 459 1168.57 459 1167 457.433 1167 455.5 1167 453.567 1168.57 452 1170.5 452Z" fill="#2D3E50"/><path d="M953.5 459C955.433 459 957 460.567 957 462.5 957 464.433 955.433 466 953.5 466 951.567 466 950 464.433 950 462.5 950 460.567 951.567 459 953.5 459Z" fill="#2D3E50"/><path d="M960.5 459C962.433 459 964 460.567 964 462.5 964 464.433 962.433 466 960.5 466 958.567 466 957 464.433 957 462.5 957 460.567 958.567 459 960.5 459Z" fill="#2D3E50"/><path d="M967.5 459C969.433 459 971 460.567 971 462.5 971 464.433 969.433 466 967.5 466 965.567 466 964 464.433 964 462.5 964 460.567 965.567 459 967.5 459Z" fill="#2D3E50"/><path d="M974.5 459C976.433 459 978 460.567 978 462.5 978 464.433 976.433 466 974.5 466 972.567 466 971 464.433 971 462.5 971 460.567 972.567 459 974.5 459Z" fill="#2D3E50"/><path d="M981.5 459C983.433 459 985 460.567 985 462.5 985 464.433 983.433 466 981.5 466 979.567 466 978 464.433 978 462.5 978 460.567 979.567 459 981.5 459Z" fill="#2D3E50"/><path d="M995.5 459C997.433 459 999 460.567 999 462.5 999 464.433 997.433 466 995.5 466 993.567 466 992 464.433 992 462.5 992 460.567 993.567 459 995.5 459Z" fill="#2D3E50"/><path d="M1009.5 459C1011.43 459 1013 460.567 1013 462.5 1013 464.433 1011.43 466 1009.5 466 1007.57 466 1006 464.433 1006 462.5 1006 460.567 1007.57 459 1009.5 459Z" fill="#2D3E50"/><path d="M1016.5 459C1018.43 459 1020 460.567 1020 462.5 1020 464.433 1018.43 466 1016.5 466 1014.57 466 1013 464.433 1013 462.5 1013 460.567 1014.57 459 1016.5 459Z" fill="#2D3E50"/><path d="M1037.5 459C1039.43 459 1041 460.567 1041 462.5 1041 464.433 1039.43 466 1037.5 466 1035.57 466 1034 464.433 1034 462.5 1034 460.567 1035.57 459 1037.5 459Z" fill="#2D3E50"/><path d="M1044.5 459C1046.43 459 1048 460.567 1048 462.5 1048 464.433 1046.43 466 1044.5 466 1042.57 466 1041 464.433 1041 462.5 1041 460.567 1042.57 459 1044.5 459Z" fill="#2D3E50"/><path d="M1058.5 459C1060.43 459 1062 460.567 1062 462.5 1062 464.433 1060.43 466 1058.5 466 1056.57 466 1055 464.433 1055 462.5 1055 460.567 1056.57 459 1058.5 459Z" fill="#2D3E50"/><path d="M1086.5 459C1088.43 459 1090 460.567 1090 462.5 1090 464.433 1088.43 466 1086.5 466 1084.57 466 1083 464.433 1083 462.5 1083 460.567 1084.57 459 1086.5 459Z" fill="#2D3E50"/><path d="M1093.5 459C1095.43 459 1097 460.567 1097 462.5 1097 464.433 1095.43 466 1093.5 466 1091.57 466 1090 464.433 1090 462.5 1090 460.567 1091.57 459 1093.5 459Z" fill="#2D3E50"/><path d="M1107.5 459C1109.43 459 1111 460.567 1111 462.5 1111 464.433 1109.43 466 1107.5 466 1105.57 466 1104 464.433 1104 462.5 1104 460.567 1105.57 459 1107.5 459Z" fill="#2D3E50"/><path d="M1121.5 459C1123.43 459 1125 460.567 1125 462.5 1125 464.433 1123.43 466 1121.5 466 1119.57 466 1118 464.433 1118 462.5 1118 460.567 1119.57 459 1121.5 459Z" fill="#2D3E50"/><path d="M1128.5 459C1130.43 459 1132 460.567 1132 462.5 1132 464.433 1130.43 466 1128.5 466 1126.57 466 1125 464.433 1125 462.5 1125 460.567 1126.57 459 1128.5 459Z" fill="#2D3E50"/><path d="M1135.5 459C1137.43 459 1139 460.567 1139 462.5 1139 464.433 1137.43 466 1135.5 466 1133.57 466 1132 464.433 1132 462.5 1132 460.567 1133.57 459 1135.5 459Z" fill="#2D3E50"/><path d="M1142.5 459C1144.43 459 1146 460.567 1146 462.5 1146 464.433 1144.43 466 1142.5 466 1140.57 466 1139 464.433 1139 462.5 1139 460.567 1140.57 459 1142.5 459Z" fill="#2D3E50"/><path d="M1149.5 459C1151.43 459 1153 460.567 1153 462.5 1153 464.433 1151.43 466 1149.5 466 1147.57 466 1146 464.433 1146 462.5 1146 460.567 1147.57 459 1149.5 459Z" fill="#2D3E50"/><path d="M1177.5 459C1179.43 459 1181 460.567 1181 462.5 1181 464.433 1179.43 466 1177.5 466 1175.57 466 1174 464.433 1174 462.5 1174 460.567 1175.57 459 1177.5 459Z" fill="#2D3E50"/><path d="M1009.5 466C1011.43 466 1013 467.567 1013 469.5 1013 471.433 1011.43 473 1009.5 473 1007.57 473 1006 471.433 1006 469.5 1006 467.567 1007.57 466 1009.5 466Z" fill="#2D3E50"/><path d="M1016.5 466C1018.43 466 1020 467.567 1020 469.5 1020 471.433 1018.43 473 1016.5 473 1014.57 473 1013 471.433 1013 469.5 1013 467.567 1014.57 466 1016.5 466Z" fill="#2D3E50"/><path d="M1030.5 466C1032.43 466 1034 467.567 1034 469.5 1034 471.433 1032.43 473 1030.5 473 1028.57 473 1027 471.433 1027 469.5 1027 467.567 1028.57 466 1030.5 466Z" fill="#2D3E50"/><path d="M1037.5 466C1039.43 466 1041 467.567 1041 469.5 1041 471.433 1039.43 473 1037.5 473 1035.57 473 1034 471.433 1034 469.5 1034 467.567 1035.57 466 1037.5 466Z" fill="#2D3E50"/><path d="M1051.5 466C1053.43 466 1055 467.567 1055 469.5 1055 471.433 1053.43 473 1051.5 473 1049.57 473 1048 471.433 1048 469.5 1048 467.567 1049.57 466 1051.5 466Z" fill="#2D3E50"/><path d="M1058.5 466C1060.43 466 1062 467.567 1062 469.5 1062 471.433 1060.43 473 1058.5 473 1056.57 473 1055 471.433 1055 469.5 1055 467.567 1056.57 466 1058.5 466Z" fill="#2D3E50"/><path d="M1065.5 466C1067.43 466 1069 467.567 1069 469.5 1069 471.433 1067.43 473 1065.5 473 1063.57 473 1062 471.433 1062 469.5 1062 467.567 1063.57 466 1065.5 466Z" fill="#2D3E50"/><path d="M1072.5 466C1074.43 466 1076 467.567 1076 469.5 1076 471.433 1074.43 473 1072.5 473 1070.57 473 1069 471.433 1069 469.5 1069 467.567 1070.57 466 1072.5 466Z" fill="#2D3E50"/><path d="M1079.5 466C1081.43 466 1083 467.567 1083 469.5 1083 471.433 1081.43 473 1079.5 473 1077.57 473 1076 471.433 1076 469.5 1076 467.567 1077.57 466 1079.5 466Z" fill="#2D3E50"/><path d="M1100.5 466C1102.43 466 1104 467.567 1104 469.5 1104 471.433 1102.43 473 1100.5 473 1098.57 473 1097 471.433 1097 469.5 1097 467.567 1098.57 466 1100.5 466Z" fill="#2D3E50"/><path d="M1114.5 466C1116.43 466 1118 467.567 1118 469.5 1118 471.433 1116.43 473 1114.5 473 1112.57 473 1111 471.433 1111 469.5 1111 467.567 1112.57 466 1114.5 466Z" fill="#2D3E50"/><path d="M1121.5 466C1123.43 466 1125 467.567 1125 469.5 1125 471.433 1123.43 473 1121.5 473 1119.57 473 1118 471.433 1118 469.5 1118 467.567 1119.57 466 1121.5 466Z" fill="#2D3E50"/><path d="M1149.5 466C1151.43 466 1153 467.567 1153 469.5 1153 471.433 1151.43 473 1149.5 473 1147.57 473 1146 471.433 1146 469.5 1146 467.567 1147.57 466 1149.5 466Z" fill="#2D3E50"/><path d="M1156.5 466C1158.43 466 1160 467.567 1160 469.5 1160 471.433 1158.43 473 1156.5 473 1154.57 473 1153 471.433 1153 469.5 1153 467.567 1154.57 466 1156.5 466Z" fill="#2D3E50"/><path d="M1163.5 466C1165.43 466 1167 467.567 1167 469.5 1167 471.433 1165.43 473 1163.5 473 1161.57 473 1160 471.433 1160 469.5 1160 467.567 1161.57 466 1163.5 466Z" fill="#2D3E50"/><path d="M1170.5 466C1172.43 466 1174 467.567 1174 469.5 1174 471.433 1172.43 473 1170.5 473 1168.57 473 1167 471.433 1167 469.5 1167 467.567 1168.57 466 1170.5 466Z" fill="#2D3E50"/><path d="M1009.5 473C1011.43 473 1013 474.567 1013 476.5 1013 478.433 1011.43 480 1009.5 480 1007.57 480 1006 478.433 1006 476.5 1006 474.567 1007.57 473 1009.5 473Z" fill="#2D3E50"/><path d="M1023.5 473C1025.43 473 1027 474.567 1027 476.5 1027 478.433 1025.43 480 1023.5 480 1021.57 480 1020 478.433 1020 476.5 1020 474.567 1021.57 473 1023.5 473Z" fill="#2D3E50"/><path d="M1037.5 473C1039.43 473 1041 474.567 1041 476.5 1041 478.433 1039.43 480 1037.5 480 1035.57 480 1034 478.433 1034 476.5 1034 474.567 1035.57 473 1037.5 473Z" fill="#2D3E50"/><path d="M1065.5 473C1067.43 473 1069 474.567 1069 476.5 1069 478.433 1067.43 480 1065.5 480 1063.57 480 1062 478.433 1062 476.5 1062 474.567 1063.57 473 1065.5 473Z" fill="#2D3E50"/><path d="M1072.5 473C1074.43 473 1076 474.567 1076 476.5 1076 478.433 1074.43 480 1072.5 480 1070.57 480 1069 478.433 1069 476.5 1069 474.567 1070.57 473 1072.5 473Z" fill="#2D3E50"/><path d="M1086.5 473C1088.43 473 1090 474.567 1090 476.5 1090 478.433 1088.43 480 1086.5 480 1084.57 480 1083 478.433 1083 476.5 1083 474.567 1084.57 473 1086.5 473Z" fill="#2D3E50"/><path d="M1114.5 473C1116.43 473 1118 474.567 1118 476.5 1118 478.433 1116.43 480 1114.5 480 1112.57 480 1111 478.433 1111 476.5 1111 474.567 1112.57 473 1114.5 473Z" fill="#2D3E50"/><path d="M1121.5 473C1123.43 473 1125 474.567 1125 476.5 1125 478.433 1123.43 480 1121.5 480 1119.57 480 1118 478.433 1118 476.5 1118 474.567 1119.57 473 1121.5 473Z" fill="#2D3E50"/><path d="M1135.5 473C1137.43 473 1139 474.567 1139 476.5 1139 478.433 1137.43 480 1135.5 480 1133.57 480 1132 478.433 1132 476.5 1132 474.567 1133.57 473 1135.5 473Z" fill="#2D3E50"/><path d="M1149.5 473C1151.43 473 1153 474.567 1153 476.5 1153 478.433 1151.43 480 1149.5 480 1147.57 480 1146 478.433 1146 476.5 1146 474.567 1147.57 473 1149.5 473Z" fill="#2D3E50"/><path d="M1156.5 473C1158.43 473 1160 474.567 1160 476.5 1160 478.433 1158.43 480 1156.5 480 1154.57 480 1153 478.433 1153 476.5 1153 474.567 1154.57 473 1156.5 473Z" fill="#2D3E50"/><path d="M1170.5 473C1172.43 473 1174 474.567 1174 476.5 1174 478.433 1172.43 480 1170.5 480 1168.57 480 1167 478.433 1167 476.5 1167 474.567 1168.57 473 1170.5 473Z" fill="#2D3E50"/><path d="M1009.5 480C1011.43 480 1013 481.567 1013 483.5 1013 485.433 1011.43 487 1009.5 487 1007.57 487 1006 485.433 1006 483.5 1006 481.567 1007.57 480 1009.5 480Z" fill="#2D3E50"/><path d="M1016.5 480C1018.43 480 1020 481.567 1020 483.5 1020 485.433 1018.43 487 1016.5 487 1014.57 487 1013 485.433 1013 483.5 1013 481.567 1014.57 480 1016.5 480Z" fill="#2D3E50"/><path d="M1037.5 480C1039.43 480 1041 481.567 1041 483.5 1041 485.433 1039.43 487 1037.5 487 1035.57 487 1034 485.433 1034 483.5 1034 481.567 1035.57 480 1037.5 480Z" fill="#2D3E50"/><path d="M1058.5 480C1060.43 480 1062 481.567 1062 483.5 1062 485.433 1060.43 487 1058.5 487 1056.57 487 1055 485.433 1055 483.5 1055 481.567 1056.57 480 1058.5 480Z" fill="#2D3E50"/><path d="M1065.5 480C1067.43 480 1069 481.567 1069 483.5 1069 485.433 1067.43 487 1065.5 487 1063.57 487 1062 485.433 1062 483.5 1062 481.567 1063.57 480 1065.5 480Z" fill="#2D3E50"/><path d="M1072.5 480C1074.43 480 1076 481.567 1076 483.5 1076 485.433 1074.43 487 1072.5 487 1070.57 487 1069 485.433 1069 483.5 1069 481.567 1070.57 480 1072.5 480Z" fill="#2D3E50"/><path d="M1086.5 480C1088.43 480 1090 481.567 1090 483.5 1090 485.433 1088.43 487 1086.5 487 1084.57 487 1083 485.433 1083 483.5 1083 481.567 1084.57 480 1086.5 480Z" fill="#2D3E50"/><path d="M1107.5 480C1109.43 480 1111 481.567 1111 483.5 1111 485.433 1109.43 487 1107.5 487 1105.57 487 1104 485.433 1104 483.5 1104 481.567 1105.57 480 1107.5 480Z" fill="#2D3E50"/><path d="M1121.5 480C1123.43 480 1125 481.567 1125 483.5 1125 485.433 1123.43 487 1121.5 487 1119.57 487 1118 485.433 1118 483.5 1118 481.567 1119.57 480 1121.5 480Z" fill="#2D3E50"/><path d="M1149.5 480C1151.43 480 1153 481.567 1153 483.5 1153 485.433 1151.43 487 1149.5 487 1147.57 487 1146 485.433 1146 483.5 1146 481.567 1147.57 480 1149.5 480Z" fill="#2D3E50"/><path d="M1170.5 480C1172.43 480 1174 481.567 1174 483.5 1174 485.433 1172.43 487 1170.5 487 1168.57 487 1167 485.433 1167 483.5 1167 481.567 1168.57 480 1170.5 480Z" fill="#2D3E50"/><path d="M1177.5 480C1179.43 480 1181 481.567 1181 483.5 1181 485.433 1179.43 487 1177.5 487 1175.57 487 1174 485.433 1174 483.5 1174 481.567 1175.57 480 1177.5 480Z" fill="#2D3E50"/><path d="M1009.5 487C1011.43 487 1013 488.567 1013 490.5 1013 492.433 1011.43 494 1009.5 494 1007.57 494 1006 492.433 1006 490.5 1006 488.567 1007.57 487 1009.5 487Z" fill="#2D3E50"/><path d="M1016.5 487C1018.43 487 1020 488.567 1020 490.5 1020 492.433 1018.43 494 1016.5 494 1014.57 494 1013 492.433 1013 490.5 1013 488.567 1014.57 487 1016.5 487Z" fill="#2D3E50"/><path d="M1030.5 487C1032.43 487 1034 488.567 1034 490.5 1034 492.433 1032.43 494 1030.5 494 1028.57 494 1027 492.433 1027 490.5 1027 488.567 1028.57 487 1030.5 487Z" fill="#2D3E50"/><path d="M1037.5 487C1039.43 487 1041 488.567 1041 490.5 1041 492.433 1039.43 494 1037.5 494 1035.57 494 1034 492.433 1034 490.5 1034 488.567 1035.57 487 1037.5 487Z" fill="#2D3E50"/><path d="M1065.5 487C1067.43 487 1069 488.567 1069 490.5 1069 492.433 1067.43 494 1065.5 494 1063.57 494 1062 492.433 1062 490.5 1062 488.567 1063.57 487 1065.5 487Z" fill="#2D3E50"/><path d="M1086.5 487C1088.43 487 1090 488.567 1090 490.5 1090 492.433 1088.43 494 1086.5 494 1084.57 494 1083 492.433 1083 490.5 1083 488.567 1084.57 487 1086.5 487Z" fill="#2D3E50"/><path d="M1107.5 487C1109.43 487 1111 488.567 1111 490.5 1111 492.433 1109.43 494 1107.5 494 1105.57 494 1104 492.433 1104 490.5 1104 488.567 1105.57 487 1107.5 487Z" fill="#2D3E50"/><path d="M1121.5 487C1123.43 487 1125 488.567 1125 490.5 1125 492.433 1123.43 494 1121.5 494 1119.57 494 1118 492.433 1118 490.5 1118 488.567 1119.57 487 1121.5 487Z" fill="#2D3E50"/><path d="M1128.5 487C1130.43 487 1132 488.567 1132 490.5 1132 492.433 1130.43 494 1128.5 494 1126.57 494 1125 492.433 1125 490.5 1125 488.567 1126.57 487 1128.5 487Z" fill="#2D3E50"/><path d="M1135.5 487C1137.43 487 1139 488.567 1139 490.5 1139 492.433 1137.43 494 1135.5 494 1133.57 494 1132 492.433 1132 490.5 1132 488.567 1133.57 487 1135.5 487Z" fill="#2D3E50"/><path d="M1142.5 487C1144.43 487 1146 488.567 1146 490.5 1146 492.433 1144.43 494 1142.5 494 1140.57 494 1139 492.433 1139 490.5 1139 488.567 1140.57 487 1142.5 487Z" fill="#2D3E50"/><path d="M1149.5 487C1151.43 487 1153 488.567 1153 490.5 1153 492.433 1151.43 494 1149.5 494 1147.57 494 1146 492.433 1146 490.5 1146 488.567 1147.57 487 1149.5 487Z" fill="#2D3E50"/><path d="M1016.5 494C1018.43 494 1020 495.567 1020 497.5 1020 499.433 1018.43 501 1016.5 501 1014.57 501 1013 499.433 1013 497.5 1013 495.567 1014.57 494 1016.5 494Z" fill="#2D3E50"/><path d="M1030.5 494C1032.43 494 1034 495.567 1034 497.5 1034 499.433 1032.43 501 1030.5 501 1028.57 501 1027 499.433 1027 497.5 1027 495.567 1028.57 494 1030.5 494Z" fill="#2D3E50"/><path d="M1044.5 494C1046.43 494 1048 495.567 1048 497.5 1048 499.433 1046.43 501 1044.5 501 1042.57 501 1041 499.433 1041 497.5 1041 495.567 1042.57 494 1044.5 494Z" fill="#2D3E50"/><path d="M1058.5 494C1060.43 494 1062 495.567 1062 497.5 1062 499.433 1060.43 501 1058.5 501 1056.57 501 1055 499.433 1055 497.5 1055 495.567 1056.57 494 1058.5 494Z" fill="#2D3E50"/><path d="M1079.5 494C1081.43 494 1083 495.567 1083 497.5 1083 499.433 1081.43 501 1079.5 501 1077.57 501 1076 499.433 1076 497.5 1076 495.567 1077.57 494 1079.5 494Z" fill="#2D3E50"/><path d="M1086.5 494C1088.43 494 1090 495.567 1090 497.5 1090 499.433 1088.43 501 1086.5 501 1084.57 501 1083 499.433 1083 497.5 1083 495.567 1084.57 494 1086.5 494Z" fill="#2D3E50"/><path d="M1093.5 494C1095.43 494 1097 495.567 1097 497.5 1097 499.433 1095.43 501 1093.5 501 1091.57 501 1090 499.433 1090 497.5 1090 495.567 1091.57 494 1093.5 494Z" fill="#2D3E50"/><path d="M1100.5 494C1102.43 494 1104 495.567 1104 497.5 1104 499.433 1102.43 501 1100.5 501 1098.57 501 1097 499.433 1097 497.5 1097 495.567 1098.57 494 1100.5 494Z" fill="#2D3E50"/><path d="M1114.5 494C1116.43 494 1118 495.567 1118 497.5 1118 499.433 1116.43 501 1114.5 501 1112.57 501 1111 499.433 1111 497.5 1111 495.567 1112.57 494 1114.5 494Z" fill="#2D3E50"/><path d="M1121.5 494C1123.43 494 1125 495.567 1125 497.5 1125 499.433 1123.43 501 1121.5 501 1119.57 501 1118 499.433 1118 497.5 1118 495.567 1119.57 494 1121.5 494Z" fill="#2D3E50"/><path d="M1135.5 494C1137.43 494 1139 495.567 1139 497.5 1139 499.433 1137.43 501 1135.5 501 1133.57 501 1132 499.433 1132 497.5 1132 495.567 1133.57 494 1135.5 494Z" fill="#2D3E50"/><path d="M1142.5 494C1144.43 494 1146 495.567 1146 497.5 1146 499.433 1144.43 501 1142.5 501 1140.57 501 1139 499.433 1139 497.5 1139 495.567 1140.57 494 1142.5 494Z" fill="#2D3E50"/><path d="M1149.5 494C1151.43 494 1153 495.567 1153 497.5 1153 499.433 1151.43 501 1149.5 501 1147.57 501 1146 499.433 1146 497.5 1146 495.567 1147.57 494 1149.5 494Z" fill="#2D3E50"/><path d="M1156.5 494C1158.43 494 1160 495.567 1160 497.5 1160 499.433 1158.43 501 1156.5 501 1154.57 501 1153 499.433 1153 497.5 1153 495.567 1154.57 494 1156.5 494Z" fill="#2D3E50"/><path d="M1177.5 494C1179.43 494 1181 495.567 1181 497.5 1181 499.433 1179.43 501 1177.5 501 1175.57 501 1174 499.433 1174 497.5 1174 495.567 1175.57 494 1177.5 494Z" fill="#2D3E50"/><path d="M1023.5 501C1025.43 501 1027 502.567 1027 504.5 1027 506.433 1025.43 508 1023.5 508 1021.57 508 1020 506.433 1020 504.5 1020 502.567 1021.57 501 1023.5 501Z" fill="#2D3E50"/><path d="M1044.5 501C1046.43 501 1048 502.567 1048 504.5 1048 506.433 1046.43 508 1044.5 508 1042.57 508 1041 506.433 1041 504.5 1041 502.567 1042.57 501 1044.5 501Z" fill="#2D3E50"/><path d="M1072.5 501C1074.43 501 1076 502.567 1076 504.5 1076 506.433 1074.43 508 1072.5 508 1070.57 508 1069 506.433 1069 504.5 1069 502.567 1070.57 501 1072.5 501Z" fill="#2D3E50"/><path d="M1079.5 501C1081.43 501 1083 502.567 1083 504.5 1083 506.433 1081.43 508 1079.5 508 1077.57 508 1076 506.433 1076 504.5 1076 502.567 1077.57 501 1079.5 501Z" fill="#2D3E50"/><path d="M1114.5 501C1116.43 501 1118 502.567 1118 504.5 1118 506.433 1116.43 508 1114.5 508 1112.57 508 1111 506.433 1111 504.5 1111 502.567 1112.57 501 1114.5 501Z" fill="#2D3E50"/><path d="M1128.5 501C1130.43 501 1132 502.567 1132 504.5 1132 506.433 1130.43 508 1128.5 508 1126.57 508 1125 506.433 1125 504.5 1125 502.567 1126.57 501 1128.5 501Z" fill="#2D3E50"/><path d="M1135.5 501C1137.43 501 1139 502.567 1139 504.5 1139 506.433 1137.43 508 1135.5 508 1133.57 508 1132 506.433 1132 504.5 1132 502.567 1133.57 501 1135.5 501Z" fill="#2D3E50"/><path d="M1149.5 501C1151.43 501 1153 502.567 1153 504.5 1153 506.433 1151.43 508 1149.5 508 1147.57 508 1146 506.433 1146 504.5 1146 502.567 1147.57 501 1149.5 501Z" fill="#2D3E50"/><path d="M1156.5 501C1158.43 501 1160 502.567 1160 504.5 1160 506.433 1158.43 508 1156.5 508 1154.57 508 1153 506.433 1153 504.5 1153 502.567 1154.57 501 1156.5 501Z" fill="#2D3E50"/><path d="M1163.5 501C1165.43 501 1167 502.567 1167 504.5 1167 506.433 1165.43 508 1163.5 508 1161.57 508 1160 506.433 1160 504.5 1160 502.567 1161.57 501 1163.5 501Z" fill="#2D3E50"/><path d="M1023.5 508C1025.43 508 1027 509.567 1027 511.5 1027 513.433 1025.43 515 1023.5 515 1021.57 515 1020 513.433 1020 511.5 1020 509.567 1021.57 508 1023.5 508Z" fill="#2D3E50"/><path d="M1058.5 508C1060.43 508 1062 509.567 1062 511.5 1062 513.433 1060.43 515 1058.5 515 1056.57 515 1055 513.433 1055 511.5 1055 509.567 1056.57 508 1058.5 508Z" fill="#2D3E50"/><path d="M1086.5 508C1088.43 508 1090 509.567 1090 511.5 1090 513.433 1088.43 515 1086.5 515 1084.57 515 1083 513.433 1083 511.5 1083 509.567 1084.57 508 1086.5 508Z" fill="#2D3E50"/><path d="M1100.5 508C1102.43 508 1104 509.567 1104 511.5 1104 513.433 1102.43 515 1100.5 515 1098.57 515 1097 513.433 1097 511.5 1097 509.567 1098.57 508 1100.5 508Z" fill="#2D3E50"/><path d="M1121.5 508C1123.43 508 1125 509.567 1125 511.5 1125 513.433 1123.43 515 1121.5 515 1119.57 515 1118 513.433 1118 511.5 1118 509.567 1119.57 508 1121.5 508Z" fill="#2D3E50"/><path d="M1128.5 508C1130.43 508 1132 509.567 1132 511.5 1132 513.433 1130.43 515 1128.5 515 1126.57 515 1125 513.433 1125 511.5 1125 509.567 1126.57 508 1128.5 508Z" fill="#2D3E50"/><path d="M1142.5 508C1144.43 508 1146 509.567 1146 511.5 1146 513.433 1144.43 515 1142.5 515 1140.57 515 1139 513.433 1139 511.5 1139 509.567 1140.57 508 1142.5 508Z" fill="#2D3E50"/><path d="M1149.5 508C1151.43 508 1153 509.567 1153 511.5 1153 513.433 1151.43 515 1149.5 515 1147.57 515 1146 513.433 1146 511.5 1146 509.567 1147.57 508 1149.5 508Z" fill="#2D3E50"/><path d="M1163.5 508C1165.43 508 1167 509.567 1167 511.5 1167 513.433 1165.43 515 1163.5 515 1161.57 515 1160 513.433 1160 511.5 1160 509.567 1161.57 508 1163.5 508Z" fill="#2D3E50"/><path d="M1037.5 515C1039.43 515 1041 516.567 1041 518.5 1041 520.433 1039.43 522 1037.5 522 1035.57 522 1034 520.433 1034 518.5 1034 516.567 1035.57 515 1037.5 515Z" fill="#2D3E50"/><path d="M1044.5 515C1046.43 515 1048 516.567 1048 518.5 1048 520.433 1046.43 522 1044.5 522 1042.57 522 1041 520.433 1041 518.5 1041 516.567 1042.57 515 1044.5 515Z" fill="#2D3E50"/><path d="M1065.5 515C1067.43 515 1069 516.567 1069 518.5 1069 520.433 1067.43 522 1065.5 522 1063.57 522 1062 520.433 1062 518.5 1062 516.567 1063.57 515 1065.5 515Z" fill="#2D3E50"/><path d="M1086.5 515C1088.43 515 1090 516.567 1090 518.5 1090 520.433 1088.43 522 1086.5 522 1084.57 522 1083 520.433 1083 518.5 1083 516.567 1084.57 515 1086.5 515Z" fill="#2D3E50"/><path d="M1100.5 515C1102.43 515 1104 516.567 1104 518.5 1104 520.433 1102.43 522 1100.5 522 1098.57 522 1097 520.433 1097 518.5 1097 516.567 1098.57 515 1100.5 515Z" fill="#2D3E50"/><path d="M1107.5 515C1109.43 515 1111 516.567 1111 518.5 1111 520.433 1109.43 522 1107.5 522 1105.57 522 1104 520.433 1104 518.5 1104 516.567 1105.57 515 1107.5 515Z" fill="#2D3E50"/><path d="M1114.5 515C1116.43 515 1118 516.567 1118 518.5 1118 520.433 1116.43 522 1114.5 522 1112.57 522 1111 520.433 1111 518.5 1111 516.567 1112.57 515 1114.5 515Z" fill="#2D3E50"/><path d="M1121.5 515C1123.43 515 1125 516.567 1125 518.5 1125 520.433 1123.43 522 1121.5 522 1119.57 522 1118 520.433 1118 518.5 1118 516.567 1119.57 515 1121.5 515Z" fill="#2D3E50"/><path d="M1128.5 515C1130.43 515 1132 516.567 1132 518.5 1132 520.433 1130.43 522 1128.5 522 1126.57 522 1125 520.433 1125 518.5 1125 516.567 1126.57 515 1128.5 515Z" fill="#2D3E50"/><path d="M1135.5 515C1137.43 515 1139 516.567 1139 518.5 1139 520.433 1137.43 522 1135.5 522 1133.57 522 1132 520.433 1132 518.5 1132 516.567 1133.57 515 1135.5 515Z" fill="#2D3E50"/><path d="M1142.5 515C1144.43 515 1146 516.567 1146 518.5 1146 520.433 1144.43 522 1142.5 522 1140.57 522 1139 520.433 1139 518.5 1139 516.567 1140.57 515 1142.5 515Z" fill="#2D3E50"/><path d="M1163.5 515C1165.43 515 1167 516.567 1167 518.5 1167 520.433 1165.43 522 1163.5 522 1161.57 522 1160 520.433 1160 518.5 1160 516.567 1161.57 515 1163.5 515Z" fill="#2D3E50"/><path d="M1177.5 515C1179.43 515 1181 516.567 1181 518.5 1181 520.433 1179.43 522 1177.5 522 1175.57 522 1174 520.433 1174 518.5 1174 516.567 1175.57 515 1177.5 515Z" fill="#2D3E50"/><path d="M49 32.4483 49 16.5375C49 7.41909 41.4932 0 32.2709 0L16.7286 0C7.5068 0 0 7.41909 0 16.5375L0 49 32.2709 48.9902C41.4932 48.9902 49 41.5716 49 32.4483ZM41.65 32.4483C41.65 37.5169 37.4429 41.6407 32.269 41.6407L7.35 41.648 7.35 16.5375C7.35 11.4714 11.5571 7.35 16.7286 7.35L32.2709 7.35C37.4429 7.35 41.65 11.4714 41.65 16.5375L41.65 32.4483Z" fill="#2D3E50" transform="matrix(-1 0 0 1 999 291)"/><path d="M1181 323.448 1181 307.538C1181 298.419 1173.49 291 1164.27 291L1148.73 291C1139.51 291 1132 298.419 1132 307.538L1132 340 1164.27 339.99C1173.49 339.99 1181 332.572 1181 323.448ZM1173.65 323.448C1173.65 328.517 1169.44 332.641 1164.27 332.641L1139.35 332.648 1139.35 307.538C1139.35 302.471 1143.56 298.35 1148.73 298.35L1164.27 298.35C1169.44 298.35 1173.65 302.471 1173.65 307.538L1173.65 323.448Z" fill="#2D3E50"/><path d="M950 489.552 950 505.462C950 514.581 957.507 522 966.729 522L982.271 522C991.493 522 999 514.581 999 505.462L999 473 966.729 473.01C957.507 473.01 950 480.428 950 489.552ZM957.35 489.552C957.35 484.483 961.557 480.359 966.731 480.359L991.65 480.352 991.65 505.462C991.65 510.529 987.443 514.65 982.271 514.65L966.729 514.65C961.557 514.65 957.35 510.529 957.35 505.462L957.35 489.552Z" fill="#2D3E50"/><path d="M21 15.2836 21 5.71095C21 2.56263 18.3968 0 15.1977 0L5.8023 0C2.60337 0 0 2.56263 0 5.71095L0 21 15.1977 20.9912C18.3968 20.9912 21 18.4319 21 15.2836Z" fill="#2D3E50" transform="matrix(-1 0 0 1 985 305)"/><path d="M1167 320.284 1167 310.711C1167 307.563 1164.4 305 1161.2 305L1151.8 305C1148.6 305 1146 307.563 1146 310.711L1146 326 1161.2 325.991C1164.4 325.991 1167 323.432 1167 320.284Z" fill="#2D3E50"/><path d="M964 492.716 964 502.289C964 505.437 966.603 508 969.802 508L979.198 508C982.397 508 985 505.437 985 502.289L985 487 969.802 487.009C966.603 487.009 964 489.568 964 492.716Z" fill="#2D3E50"/><g clip-path="url(#clip1)"><g clip-path="url(#clip2)"><path d="M6.10342-11.502 2.99564-11.502C2.51506-11.502 2.13059-11.3418 1.85826-11.0214 1.61797-10.7491 1.50583-10.3966 1.50583-9.98013L1.50583-0.224273C1.50583-0.0640779 1.55389 0.0640779 1.65001 0.160195 1.7301 0.240293 1.85826 0.28835 1.98641 0.28835 2.11457 0.28835 2.2267 0.240293 2.32283 0.160195 2.41893 0.0640779 2.467-0.0640779 2.467-0.224273L2.467-5.03012 6.10342-5.03012C7.11265-5.03012 7.91362-5.38253 8.50633-6.05536 9.051-6.6641 9.32333-7.40099 9.32333-8.26605 9.32333-9.14712 9.051-9.90003 8.50633-10.4928 7.91362-11.1656 7.11265-11.502 6.10342-11.502ZM5.97526-5.89516 2.467-5.89516 2.467-9.91605C2.467-10.1243 2.53107-10.2845 2.6272-10.3966 2.75536-10.5568 2.93156-10.6209 3.15583-10.6209L5.97526-10.6209C6.71216-10.6209 7.30489-10.3806 7.7374-9.88402 8.13789-9.43546 8.34615-8.8908 8.34615-8.25003 8.34615-7.62526 8.13789-7.0806 7.7374-6.63206 7.30489-6.13546 6.71216-5.89516 5.97526-5.89516Z" fill="#4FB3D9" transform="matrix(1.0019 0 0 1 1051.17 418.259)"/><path d="M1.50583-11.2457 1.50583-1.48981C1.50583-1.07331 1.61797-0.736896 1.85826-0.448546 2.13059-0.144175 2.51506 0.0160195 2.99564 0.0160195L7.97769 0.0160195C8.13789 0.0160195 8.26605-0.032039 8.34615-0.128156 8.44226-0.208253 8.4743-0.30437 8.4743-0.416506 8.4743-0.544662 8.44226-0.656799 8.34615-0.736896 8.26605-0.816993 8.13789-0.865052 7.97769-0.865052L3.15583-0.865052C2.93156-0.865052 2.75536-0.929129 2.6272-1.07331 2.53107-1.20146 2.467-1.36166 2.467-1.55389L2.467-11.2457C2.467-11.4219 2.41893-11.55 2.32283-11.6462 2.2267-11.7263 2.11457-11.7583 1.98641-11.7583 1.85826-11.7583 1.7301-11.7263 1.65001-11.6462 1.55389-11.55 1.50583-11.4219 1.50583-11.2457Z" fill="#4FB3D9" transform="matrix(1.0019 0 0 1 1060.91 418.259)"/><path d="M2.97963-4.6136 5.14226-10.5568 5.1903-10.5568 7.35293-4.6136 2.97963-4.6136ZM4.2772-11.0214 0.400487-0.416506C0.336409-0.256312 0.336409-0.112136 0.384467 0.0160195 0.448546 0.144175 0.544662 0.224273 0.672817 0.27233 0.800973 0.30437 0.913109 0.30437 1.02525 0.240293 1.16942 0.160195 1.26554 0.0480583 1.32962-0.112136L2.65923-3.74856 7.67333-3.74856 9.00293-0.112136C9.051 0.0480583 9.14712 0.160195 9.27526 0.240293 9.40343 0.28835 9.53159 0.28835 9.65973 0.256312 9.77189 0.208253 9.86799 0.128156 9.91605 0.0160195 9.98013-0.112136 9.98013-0.27233 9.93206-0.416506L6.05536-11.0214C5.97526-11.2617 5.8471-11.4539 5.67089-11.5821 5.52672-11.6942 5.3505-11.7423 5.17429-11.7423 4.98206-11.7423 4.80583-11.6942 4.64564-11.5821 4.48546-11.4539 4.3573-11.2617 4.2772-11.0214Z" fill="#4FB3D9" transform="matrix(1.0019 0 0 1 1069.41 418.259)"/><path d="M1.50583-11.1335 1.50583-0.27233C1.50583-0.0961169 1.55389 0.032039 1.65001 0.144175 1.7301 0.240293 1.85826 0.28835 1.98641 0.30437 2.11457 0.30437 2.24273 0.256312 2.33884 0.160195 2.43496 0.0480583 2.48303-0.0961169 2.48303-0.27233L2.48303-9.98013 7.78546-1.2335 8.66653 0.0480583C8.79469 0.27233 9.00293 0.336409 9.27526 0.256312 9.56362 0.176214 9.69179-0.032039 9.69179-0.384467L9.69179-11.3418C9.69179-11.4699 9.64372-11.5821 9.5476-11.6622 9.45149-11.7263 9.33936-11.7583 9.19517-11.7583 9.06702-11.7583 8.95489-11.7263 8.85876-11.6782 8.76266-11.5821 8.71459-11.4699 8.71459-11.3418L8.71459-1.52185 3.2199-10.653 2.69127-11.4379C2.53107-11.6942 2.29079-11.8064 1.9704-11.7583 1.66603-11.7102 1.50583-11.502 1.50583-11.1335Z" fill="#4FB3D9" transform="matrix(1.0019 0 0 1 1079.43 418.259)"/><path d="M8.16993-11.502 0.704856-11.502C0.448546-11.502 0.336409-11.3578 0.336409-11.0534 0.336409-10.7651 0.448546-10.6209 0.704856-10.6209L4.02089-10.6209 4.02089-0.208253C4.02089-0.0640779 4.06894 0.0640779 4.16506 0.160195 4.26117 0.240293 4.37332 0.28835 4.50147 0.28835 4.62963 0.28835 4.74176 0.240293 4.83787 0.160195 4.934 0.0640779 4.99807-0.0640779 4.99807-0.208253L4.99807-10.6209 8.16993-10.6209C8.33013-10.6209 8.44226-10.669 8.53839-10.7651 8.63449-10.8452 8.68256-10.9413 8.68256-11.0534 8.68256-11.1816 8.63449-11.2937 8.53839-11.3738 8.44226-11.4539 8.33013-11.502 8.16993-11.502Z" fill="#4FB3D9" transform="matrix(1.0019 0 0 1 1090.28 418.259)"/><path d="M2.99564-11.502C2.51506-11.502 2.13059-11.3418 1.85826-11.0214 1.61796-10.749 1.50583-10.3966 1.50583-9.98011L1.50583-1.48981C1.50583-1.0733 1.61796-0.736894 1.85826-0.448544 2.13059-0.144175 2.51506 0.0160194 2.99564 0.0160194L5.22234 0.0160194C6.93643 0.0160194 8.28206-0.56068 9.24323-1.69806 10.1563-2.75534 10.6049-4.10097 10.6049-5.73497 10.6049-7.38497 10.1563-8.7306 9.24323-9.77187 8.28206-10.9253 6.93643-11.502 5.22234-11.502L2.99564-11.502ZM3.15583-0.86505C2.93156-0.86505 2.75534-0.929127 2.6272-1.0733 2.53107-1.20146 2.467-1.36165 2.467-1.55389L2.467-9.91604C2.467-10.1243 2.53107-10.2845 2.6272-10.3966 2.75534-10.5568 2.93156-10.6209 3.15583-10.6209L5.22234-10.6209C6.61603-10.6209 7.72137-10.1403 8.50633-9.17914 9.24323-8.29807 9.6277-7.14467 9.6277-5.73497 9.6277-4.34127 9.24323-3.2039 8.50633-2.32283 7.72137-1.34563 6.61603-0.86505 5.22234-0.86505L3.15583-0.86505Z" fill="#4FB3D9" transform="matrix(1.0019 0 0 1 1051.17 402.103)"/><path d="M6.6641-2.00243C6.4238-1.56991 6.07137-1.2335 5.62283-1.00923 5.1102-0.736894 4.48544-0.59272 3.76457-0.59272 3.13981-0.59272 2.65923-0.736894 2.35486-1.00923 2.0665-1.24952 1.92233-1.63398 1.92233-2.1466 1.92233-2.67524 2.08253-3.07573 2.3869-3.34807 2.7233-3.63641 3.26797-3.84467 4.05293-3.94079 4.83787-4.05293 5.44661-4.16506 5.89516-4.30923 6.2636-4.42137 6.51991-4.5335 6.6641-4.66166L6.6641-2.00243ZM4.51749-8.63447C3.65243-8.63447 2.94757-8.44224 2.40293-8.05777 1.87428-7.6573 1.53787-7.04856 1.40971-6.24759 1.37767-6.0874 1.40971-5.95923 1.50583-5.86313 1.58593-5.767 1.68204-5.71894 1.8102-5.70293 1.95437-5.70293 2.0665-5.73497 2.16263-5.79904 2.27476-5.87914 2.33884-5.97526 2.35486-6.11943 2.41893-6.63206 2.59516-7.03254 2.91554-7.30487 3.26797-7.62526 3.7966-7.76943 4.50147-7.76943 5.23836-7.76943 5.78303-7.64127 6.15147-7.36894 6.48787-7.11264 6.6641-6.72817 6.6641-6.21554 6.6641-5.767 6.5039-5.44661 6.19953-5.28643 5.87914-5.1102 5.15827-4.95 4.0369-4.78981 2.77137-4.62963 1.90631-4.2772 1.42573-3.73253 1.10534-3.36409 0.945147-2.83544 0.945147-2.1466 0.945147-1.37767 1.16942-0.784953 1.65-0.368447 2.11457 0.0640777 2.83544 0.28835 3.76457 0.28835 4.4534 0.28835 5.07817 0.160194 5.62283-0.0800973 6.0073-0.256311 6.35973-0.496603 6.6801-0.800973 6.6801-0.480583 6.77623-0.240293 6.96846-0.112136 7.19273 0.032039 7.60924 0.112136 8.20196 0.112136 8.34613 0.112136 8.45827 0.0640777 8.53837-0.032039 8.61847-0.112136 8.6505-0.208253 8.6505-0.336409 8.63447-0.448544 8.60244-0.56068 8.52234-0.640777 8.44224-0.720876 8.34613-0.768934 8.21797-0.768934 8.02574-0.768934 7.88157-0.816993 7.76943-0.929127 7.67331-1.00923 7.64127-1.1534 7.64127-1.32961L7.64127-6.29564C7.64127-7.11264 7.3369-7.72137 6.72817-8.12187 6.19953-8.45827 5.46263-8.63447 4.51749-8.63447Z" fill="#4FB3D9" transform="matrix(1.0019 0 0 1 1062.73 402.103)"/><path d="M1.77816-10.5408 1.77816-8.36216 0.945147-8.36216C0.704856-8.36216 0.5767-8.234 0.5767-7.94564 0.5767-7.6573 0.704856-7.51313 0.945147-7.51313L1.77816-7.51313 1.77816-1.2335C1.77816-0.833011 1.90631-0.480583 2.16263-0.208253 2.43496 0.112136 2.8034 0.28835 3.28399 0.28835L4.02087 0.28835C4.16506 0.28835 4.29321 0.240293 4.3733 0.144175 4.46943 0.0640777 4.50147-0.0480583 4.50147-0.160194 4.50147-0.28835 4.46943-0.384467 4.3733-0.464564 4.29321-0.56068 4.16506-0.59272 4.02087-0.59272L3.4602-0.59272C3.2199-0.59272 3.0437-0.672817 2.93156-0.833011 2.81943-0.961167 2.77137-1.10534 2.77137-1.29758L2.77137-7.51313 4.05293-7.51313C4.32526-7.51313 4.4534-7.6573 4.4534-7.94564 4.4534-8.234 4.32526-8.36216 4.05293-8.36216L2.77137-8.36216 2.77137-10.5408C2.77137-10.701 2.7233-10.8131 2.61117-10.9092 2.51506-10.9733 2.40293-11.0214 2.27476-11.0214 2.13059-11.0214 2.01846-10.9733 1.92233-10.9092 1.82622-10.8131 1.77816-10.701 1.77816-10.5408Z" fill="#4FB3D9" transform="matrix(1.0019 0 0 1 1071.86 402.103)"/><path d="M6.6641-2.00243C6.4238-1.56991 6.07137-1.2335 5.62283-1.00923 5.1102-0.736894 4.48544-0.59272 3.76457-0.59272 3.13981-0.59272 2.65923-0.736894 2.35486-1.00923 2.0665-1.24952 1.92233-1.63398 1.92233-2.1466 1.92233-2.67524 2.08253-3.07573 2.3869-3.34807 2.7233-3.63641 3.26797-3.84467 4.05293-3.94079 4.83787-4.05293 5.44661-4.16506 5.89516-4.30923 6.2636-4.42137 6.51991-4.5335 6.6641-4.66166L6.6641-2.00243ZM4.51749-8.63447C3.65243-8.63447 2.94757-8.44224 2.40293-8.05777 1.87428-7.6573 1.53787-7.04856 1.40971-6.24759 1.37767-6.0874 1.40971-5.95923 1.50583-5.86313 1.58593-5.767 1.68204-5.71894 1.8102-5.70293 1.95437-5.70293 2.0665-5.73497 2.16263-5.79904 2.27476-5.87914 2.33884-5.97526 2.35486-6.11943 2.41893-6.63206 2.59516-7.03254 2.91554-7.30487 3.26797-7.62526 3.7966-7.76943 4.50147-7.76943 5.23836-7.76943 5.78303-7.64127 6.15147-7.36894 6.48787-7.11264 6.6641-6.72817 6.6641-6.21554 6.6641-5.767 6.5039-5.44661 6.19953-5.28643 5.87914-5.1102 5.15827-4.95 4.0369-4.78981 2.77137-4.62963 1.90631-4.2772 1.42573-3.73253 1.10534-3.36409 0.945147-2.83544 0.945147-2.1466 0.945147-1.37767 1.16942-0.784953 1.65-0.368447 2.11457 0.0640777 2.83544 0.28835 3.76457 0.28835 4.4534 0.28835 5.07817 0.160194 5.62283-0.0800973 6.0073-0.256311 6.35973-0.496603 6.6801-0.800973 6.6801-0.480583 6.77623-0.240293 6.96846-0.112136 7.19273 0.032039 7.60924 0.112136 8.20196 0.112136 8.34613 0.112136 8.45827 0.0640777 8.53837-0.032039 8.61847-0.112136 8.6505-0.208253 8.6505-0.336409 8.63447-0.448544 8.60244-0.56068 8.52234-0.640777 8.44224-0.720876 8.34613-0.768934 8.21797-0.768934 8.02574-0.768934 7.88157-0.816993 7.76943-0.929127 7.67331-1.00923 7.64127-1.1534 7.64127-1.32961L7.64127-6.29564C7.64127-7.11264 7.3369-7.72137 6.72817-8.12187 6.19953-8.45827 5.46263-8.63447 4.51749-8.63447Z" fill="#4FB3D9" transform="matrix(1.0019 0 0 1 1077.46 402.103)"/><path d="M42.9579 9.71232C49.5873 18.1764 48.1013 30.4092 39.6374 37.0386" stroke="#ACACAC" stroke-width="0.903195" stroke-linecap="round" stroke-miterlimit="8" fill="none" fill-rule="evenodd" transform="matrix(1 0 0 1.31636 992.354 378.598)"/><path d="M56.9956 7.7512C50.3662 16.2123 51.8551 28.4481 60.3161 35.0775" stroke="#ACACAC" stroke-width="0.903195" stroke-linecap="round" stroke-miterlimit="8" fill="none" fill-rule="evenodd" transform="matrix(1 0 0 1.31636 992.354 378.598)"/><path d="M43.376 0.4602C54.2012 14.2842 53.0101 33.2968 40.7141 42.9279" stroke="#ACACAC" stroke-width="0.903195" stroke-linecap="round" stroke-miterlimit="8" fill="none" fill-rule="evenodd" transform="matrix(1 0 0 1.31636 992.354 378.598)"/></g></g></g></svg>