<svg width="4427" height="3369" xmlns="http://www.w3.org/2000/svg" xmlns:xlink="http://www.w3.org/1999/xlink" xml:space="preserve" overflow="hidden"><defs><filter id="fx0" x="-10%" y="-10%" width="120%" height="120%" filterUnits="userSpaceOnUse" primitiveUnits="userSpaceOnUse"><feComponentTransfer color-interpolation-filters="sRGB"><feFuncR type="discrete" tableValues="0 0"/><feFuncG type="discrete" tableValues="0 0"/><feFuncB type="discrete" tableValues="0 0"/><feFuncA type="linear" slope="0.4" intercept="0"/></feComponentTransfer><feGaussianBlur stdDeviation="6.11111 6.11111"/></filter><filter id="fx1" x="-10%" y="-10%" width="120%" height="120%" filterUnits="userSpaceOnUse" primitiveUnits="userSpaceOnUse"><feComponentTransfer color-interpolation-filters="sRGB"><feFuncR type="discrete" tableValues="0 0"/><feFuncG type="discrete" tableValues="0 0"/><feFuncB type="discrete" tableValues="0 0"/><feFuncA type="linear" slope="0.4" intercept="0"/></feComponentTransfer><feGaussianBlur stdDeviation="6.11111 6.11111"/></filter><filter id="fx2" x="-10%" y="-10%" width="120%" height="120%" filterUnits="userSpaceOnUse" primitiveUnits="userSpaceOnUse"><feComponentTransfer color-interpolation-filters="sRGB"><feFuncR type="discrete" tableValues="0 0"/><feFuncG type="discrete" tableValues="0 0"/><feFuncB type="discrete" tableValues="0 0"/><feFuncA type="linear" slope="0.4" intercept="0"/></feComponentTransfer><feGaussianBlur stdDeviation="6.11111 6.11111"/></filter><filter id="fx3" x="-10%" y="-10%" width="120%" height="120%" filterUnits="userSpaceOnUse" primitiveUnits="userSpaceOnUse"><feComponentTransfer color-interpolation-filters="sRGB"><feFuncR type="discrete" tableValues="0 0"/><feFuncG type="discrete" tableValues="0 0"/><feFuncB type="discrete" tableValues="0 0"/><feFuncA type="linear" slope="0.4" intercept="0"/></feComponentTransfer><feGaussianBlur stdDeviation="6.11111 6.11111"/></filter><filter id="fx4" x="-10%" y="-10%" width="120%" height="120%" filterUnits="userSpaceOnUse" primitiveUnits="userSpaceOnUse"><feComponentTransfer color-interpolation-filters="sRGB"><feFuncR type="discrete" tableValues="0 0"/><feFuncG type="discrete" tableValues="0 0"/><feFuncB type="discrete" tableValues="0 0"/><feFuncA type="linear" slope="0.4" intercept="0"/></feComponentTransfer><feGaussianBlur stdDeviation="6.11111 6.11111"/></filter><filter id="fx5" x="-10%" y="-10%" width="120%" height="120%" filterUnits="userSpaceOnUse" primitiveUnits="userSpaceOnUse"><feComponentTransfer color-interpolation-filters="sRGB"><feFuncR type="discrete" tableValues="0 0"/><feFuncG type="discrete" tableValues="0 0"/><feFuncB type="discrete" tableValues="0 0"/><feFuncA type="linear" slope="0.4" intercept="0"/></feComponentTransfer><feGaussianBlur stdDeviation="6.11111 6.11111"/></filter><clipPath id="clip6"><rect x="264" y="269" width="4427" height="3369"/></clipPath><clipPath id="clip7"><rect x="587" y="269" width="553" height="373"/></clipPath><clipPath id="clip8"><rect x="587" y="269" width="553" height="373"/></clipPath><clipPath id="clip9"><rect x="587" y="269" width="553" height="559"/></clipPath><clipPath id="clip10"><rect x="587" y="635" width="553" height="197"/></clipPath><clipPath id="clip11"><rect x="587" y="635" width="553" height="197"/></clipPath><clipPath id="clip12"><rect x="587" y="273" width="553" height="559"/></clipPath><clipPath id="clip13"><rect x="952" y="481" width="554" height="374"/></clipPath><clipPath id="clip14"><rect x="952" y="481" width="554" height="374"/></clipPath><clipPath id="clip15"><rect x="952" y="481" width="554" height="562"/></clipPath><clipPath id="clip16"><rect x="952" y="849" width="554" height="196"/></clipPath><clipPath id="clip17"><rect x="952" y="849" width="554" height="196"/></clipPath><clipPath id="clip18"><rect x="952" y="486" width="554" height="559"/></clipPath><clipPath id="clip19"><rect x="3170" y="497" width="477" height="426"/></clipPath><clipPath id="clip20"><rect x="3170" y="497" width="477" height="426"/></clipPath><clipPath id="clip21"><rect x="3170" y="497" width="477" height="426"/></clipPath><clipPath id="clip22"><rect x="3247" y="390" width="477" height="472"/></clipPath><clipPath id="clip23"><rect x="3247" y="390" width="477" height="472"/></clipPath><clipPath id="clip24"><rect x="3247" y="390" width="477" height="472"/></clipPath><clipPath id="clip25"><rect x="-3" y="-3" width="530" height="344"/></clipPath><clipPath id="clip26"><rect x="0" y="0" width="524" height="339"/></clipPath><clipPath id="clip27"><rect x="-3" y="-3" width="530" height="344"/></clipPath><clipPath id="clip28"><rect x="0" y="0" width="524" height="339"/></clipPath><clipPath id="clip29"><rect x="-3" y="-3" width="530" height="344"/></clipPath><clipPath id="clip30"><rect x="0" y="0" width="524" height="338"/></clipPath><clipPath id="clip31"><rect x="-3" y="-3" width="544" height="382"/></clipPath><clipPath id="clip32"><rect x="0" y="0" width="536" height="375"/></clipPath><clipPath id="clip33"><rect x="-3" y="-3" width="544" height="382"/></clipPath><clipPath id="clip34"><rect x="0" y="0" width="537" height="375"/></clipPath><clipPath id="clip35"><rect x="-3" y="-3" width="544" height="382"/></clipPath><clipPath id="clip36"><rect x="0" y="0" width="536" height="374"/></clipPath></defs><g clip-path="url(#clip6)" transform="translate(-264 -269)"><rect x="839.5" y="3303.75" width="90.75" height="93.75" fill="#1FC2A7"/><path d="M930.25 3303.75 960.5 3273.5 960.5 3367.25 930.25 3397.5Z" fill="#199C86" fill-rule="evenodd"/><path d="M839.5 3303.75 869.75 3273.5 960.5 3273.5 930.25 3303.75Z" fill="#4BCEB8" fill-rule="evenodd"/><path d="M839.5 3303.75 869.75 3273.5 960.5 3273.5 960.5 3367.25 930.25 3397.5 839.5 3397.5ZM839.5 3303.75 930.25 3303.75 960.5 3273.5M930.25 3303.75 930.25 3397.5" stroke="#148E7A" stroke-width="4.58333" stroke-miterlimit="8" fill="none" fill-rule="evenodd"/><rect x="943.5" y="3303.75" width="90.75" height="93.75" fill="#1FC2A7"/><path d="M1034.25 3303.75 1064.5 3273.5 1064.5 3367.25 1034.25 3397.5Z" fill="#199C86" fill-rule="evenodd"/><path d="M943.5 3303.75 973.75 3273.5 1064.5 3273.5 1034.25 3303.75Z" fill="#4BCEB8" fill-rule="evenodd"/><path d="M943.5 3303.75 973.75 3273.5 1064.5 3273.5 1064.5 3367.25 1034.25 3397.5 943.5 3397.5ZM943.5 3303.75 1034.25 3303.75 1064.5 3273.5M1034.25 3303.75 1034.25 3397.5" stroke="#148E7A" stroke-width="4.58333" stroke-miterlimit="8" fill="none" fill-rule="evenodd"/><rect x="1048.5" y="3303.5" width="90" height="94" fill="#2D3E50"/><path d="M1138.5 3303.5 1168.5 3273.5 1168.5 3367.5 1138.5 3397.5Z" fill="#243240" fill-rule="evenodd"/><path d="M1048.5 3303.5 1078.5 3273.5 1168.5 3273.5 1138.5 3303.5Z" fill="#566472" fill-rule="evenodd"/><path d="M1048.5 3303.5 1078.5 3273.5 1168.5 3273.5 1168.5 3367.5 1138.5 3397.5 1048.5 3397.5ZM1048.5 3303.5 1138.5 3303.5 1168.5 3273.5M1138.5 3303.5 1138.5 3397.5" stroke="#1E2B38" stroke-width="4.58333" stroke-miterlimit="8" fill="none" fill-rule="evenodd"/><rect x="1152.5" y="3303.5" width="90" height="94" fill="#2D3E50"/><path d="M1242.5 3303.5 1272.5 3273.5 1272.5 3367.5 1242.5 3397.5Z" fill="#243240" fill-rule="evenodd"/><path d="M1152.5 3303.5 1182.5 3273.5 1272.5 3273.5 1242.5 3303.5Z" fill="#566472" fill-rule="evenodd"/><path d="M1152.5 3303.5 1182.5 3273.5 1272.5 3273.5 1272.5 3367.5 1242.5 3397.5 1152.5 3397.5ZM1152.5 3303.5 1242.5 3303.5 1272.5 3273.5M1242.5 3303.5 1242.5 3397.5" stroke="#1E2B38" stroke-width="4.58333" stroke-miterlimit="8" fill="none" fill-rule="evenodd"/><rect x="840.5" y="3189.5" width="90.0001" height="95.0002" fill="#1FC2A7"/><path d="M930.5 3189.5 960.5 3159.5 960.5 3254.5 930.5 3284.5Z" fill="#199C86" fill-rule="evenodd"/><path d="M840.5 3189.5 870.5 3159.5 960.5 3159.5 930.5 3189.5Z" fill="#4BCEB8" fill-rule="evenodd"/><path d="M840.5 3189.5 870.5 3159.5 960.5 3159.5 960.5 3254.5 930.5 3284.5 840.5 3284.5ZM840.5 3189.5 930.5 3189.5 960.5 3159.5M930.5 3189.5 930.5 3284.5" stroke="#148E7A" stroke-width="4.58333" stroke-miterlimit="8" fill="none" fill-rule="evenodd"/><rect x="944.5" y="3189.5" width="90" height="95.0002" fill="#1FC2A7"/><path d="M1034.5 3189.5 1064.5 3159.5 1064.5 3254.5 1034.5 3284.5Z" fill="#199C86" fill-rule="evenodd"/><path d="M944.5 3189.5 974.5 3159.5 1064.5 3159.5 1034.5 3189.5Z" fill="#4BCEB8" fill-rule="evenodd"/><path d="M944.5 3189.5 974.5 3159.5 1064.5 3159.5 1064.5 3254.5 1034.5 3284.5 944.5 3284.5ZM944.5 3189.5 1034.5 3189.5 1064.5 3159.5M1034.5 3189.5 1034.5 3284.5" stroke="#148E7A" stroke-width="4.58333" stroke-miterlimit="8" fill="none" fill-rule="evenodd"/><rect x="1048.5" y="3189.5" width="90" height="95.0002" fill="#2D3E50"/><path d="M1138.5 3189.5 1168.5 3159.5 1168.5 3254.5 1138.5 3284.5Z" fill="#243240" fill-rule="evenodd"/><path d="M1048.5 3189.5 1078.5 3159.5 1168.5 3159.5 1138.5 3189.5Z" fill="#566472" fill-rule="evenodd"/><path d="M1048.5 3189.5 1078.5 3159.5 1168.5 3159.5 1168.5 3254.5 1138.5 3284.5 1048.5 3284.5ZM1048.5 3189.5 1138.5 3189.5 1168.5 3159.5M1138.5 3189.5 1138.5 3284.5" stroke="#1E2B38" stroke-width="4.58333" stroke-miterlimit="8" fill="none" fill-rule="evenodd"/><rect x="1152.5" y="3189.75" width="90.7501" height="94.7502" fill="#2D3E50"/><path d="M1243.25 3189.75 1273.5 3159.5 1273.5 3254.25 1243.25 3284.5Z" fill="#243240" fill-rule="evenodd"/><path d="M1152.5 3189.75 1182.75 3159.5 1273.5 3159.5 1243.25 3189.75Z" fill="#566472" fill-rule="evenodd"/><path d="M1152.5 3189.75 1182.75 3159.5 1273.5 3159.5 1273.5 3254.25 1243.25 3284.5 1152.5 3284.5ZM1152.5 3189.75 1243.25 3189.75 1273.5 3159.5M1243.25 3189.75 1243.25 3284.5" stroke="#1E2B38" stroke-width="4.58333" stroke-miterlimit="8" fill="none" fill-rule="evenodd"/><rect x="840.5" y="3073.5" width="90" height="94.9998" fill="#1FC2A7"/><path d="M930.5 3073.5 960.5 3043.5 960.5 3138.5 930.5 3168.5Z" fill="#199C86" fill-rule="evenodd"/><path d="M840.5 3073.5 870.5 3043.5 960.5 3043.5 930.5 3073.5Z" fill="#4BCEB8" fill-rule="evenodd"/><path d="M840.5 3073.5 870.5 3043.5 960.5 3043.5 960.5 3138.5 930.5 3168.5 840.5 3168.5ZM840.5 3073.5 930.5 3073.5 960.5 3043.5M930.5 3073.5 930.5 3168.5" stroke="#148E7A" stroke-width="4.58333" stroke-miterlimit="8" fill="none" fill-rule="evenodd"/><rect x="944.5" y="3073.5" width="90" height="94.9998" fill="#1FC2A7"/><path d="M1034.5 3073.5 1064.5 3043.5 1064.5 3138.5 1034.5 3168.5Z" fill="#199C86" fill-rule="evenodd"/><path d="M944.5 3073.5 974.5 3043.5 1064.5 3043.5 1034.5 3073.5Z" fill="#4BCEB8" fill-rule="evenodd"/><path d="M944.5 3073.5 974.5 3043.5 1064.5 3043.5 1064.5 3138.5 1034.5 3168.5 944.5 3168.5ZM944.5 3073.5 1034.5 3073.5 1064.5 3043.5M1034.5 3073.5 1034.5 3168.5" stroke="#148E7A" stroke-width="4.58333" stroke-miterlimit="8" fill="none" fill-rule="evenodd"/><rect x="1048.5" y="3073.75" width="90.75" height="94.7498" fill="#2D3E50"/><path d="M1139.25 3073.75 1169.5 3043.5 1169.5 3138.25 1139.25 3168.5Z" fill="#243240" fill-rule="evenodd"/><path d="M1048.5 3073.75 1078.75 3043.5 1169.5 3043.5 1139.25 3073.75Z" fill="#566472" fill-rule="evenodd"/><path d="M1048.5 3073.75 1078.75 3043.5 1169.5 3043.5 1169.5 3138.25 1139.25 3168.5 1048.5 3168.5ZM1048.5 3073.75 1139.25 3073.75 1169.5 3043.5M1139.25 3073.75 1139.25 3168.5" stroke="#1E2B38" stroke-width="4.58333" stroke-miterlimit="8" fill="none" fill-rule="evenodd"/><rect x="1152.5" y="3073.75" width="90.75" height="94.7498" fill="#2D3E50"/><path d="M1243.25 3073.75 1273.5 3043.5 1273.5 3138.25 1243.25 3168.5Z" fill="#243240" fill-rule="evenodd"/><path d="M1152.5 3073.75 1182.75 3043.5 1273.5 3043.5 1243.25 3073.75Z" fill="#566472" fill-rule="evenodd"/><path d="M1152.5 3073.75 1182.75 3043.5 1273.5 3043.5 1273.5 3138.25 1243.25 3168.5 1152.5 3168.5ZM1152.5 3073.75 1243.25 3073.75 1273.5 3043.5M1243.25 3073.75 1243.25 3168.5" stroke="#1E2B38" stroke-width="4.58333" stroke-miterlimit="8" fill="none" fill-rule="evenodd"/><text fill="#595959" font-family="Arial,Arial_MSFontService,sans-serif" font-weight="400" font-size="64" transform="matrix(1 0 0 1 647.99 3031)">gene1</text><rect x="841.5" y="2955.75" width="90.75" height="94.7498" fill="#1FC2A7"/><path d="M932.25 2955.75 962.5 2925.5 962.5 3020.25 932.25 3050.5Z" fill="#199C86" fill-rule="evenodd"/><path d="M841.5 2955.75 871.75 2925.5 962.5 2925.5 932.25 2955.75Z" fill="#4BCEB8" fill-rule="evenodd"/><path d="M841.5 2955.75 871.75 2925.5 962.5 2925.5 962.5 3020.25 932.25 3050.5 841.5 3050.5ZM841.5 2955.75 932.25 2955.75 962.5 2925.5M932.25 2955.75 932.25 3050.5" stroke="#148E7A" stroke-width="4.58333" stroke-miterlimit="8" fill="none" fill-rule="evenodd"/><rect x="946.5" y="2955.5" width="89.9999" height="94.9998" fill="#1FC2A7"/><path d="M1036.5 2955.5 1066.5 2925.5 1066.5 3020.5 1036.5 3050.5Z" fill="#199C86" fill-rule="evenodd"/><path d="M946.5 2955.5 976.5 2925.5 1066.5 2925.5 1036.5 2955.5Z" fill="#4BCEB8" fill-rule="evenodd"/><path d="M946.5 2955.5 976.5 2925.5 1066.5 2925.5 1066.5 3020.5 1036.5 3050.5 946.5 3050.5ZM946.5 2955.5 1036.5 2955.5 1066.5 2925.5M1036.5 2955.5 1036.5 3050.5" stroke="#148E7A" stroke-width="4.58333" stroke-miterlimit="8" fill="none" fill-rule="evenodd"/><rect x="1050.5" y="2955.5" width="90" height="94.9998" fill="#2D3E50"/><path d="M1140.5 2955.5 1170.5 2925.5 1170.5 3020.5 1140.5 3050.5Z" fill="#243240" fill-rule="evenodd"/><path d="M1050.5 2955.5 1080.5 2925.5 1170.5 2925.5 1140.5 2955.5Z" fill="#566472" fill-rule="evenodd"/><path d="M1050.5 2955.5 1080.5 2925.5 1170.5 2925.5 1170.5 3020.5 1140.5 3050.5 1050.5 3050.5ZM1050.5 2955.5 1140.5 2955.5 1170.5 2925.5M1140.5 2955.5 1140.5 3050.5" stroke="#1E2B38" stroke-width="4.58333" stroke-miterlimit="8" fill="none" fill-rule="evenodd"/><rect x="1154.5" y="2955.75" width="90.75" height="94.7498" fill="#2D3E50"/><path d="M1245.25 2955.75 1275.5 2925.5 1275.5 3020.25 1245.25 3050.5Z" fill="#243240" fill-rule="evenodd"/><path d="M1154.5 2955.75 1184.75 2925.5 1275.5 2925.5 1245.25 2955.75Z" fill="#566472" fill-rule="evenodd"/><path d="M1154.5 2955.75 1184.75 2925.5 1275.5 2925.5 1275.5 3020.25 1245.25 3050.5 1154.5 3050.5ZM1154.5 2955.75 1245.25 2955.75 1275.5 2925.5M1245.25 2955.75 1245.25 3050.5" stroke="#1E2B38" stroke-width="4.58333" stroke-miterlimit="8" fill="none" fill-rule="evenodd"/><text fill="#595959" font-family="Arial,Arial_MSFontService,sans-serif" font-weight="400" font-size="64" transform="matrix(1 0 0 1 645.835 3149)">gene2<tspan font-size="64" x="-2.15601" y="118">gene3</tspan><tspan font-size="64" x="-4.31122" y="230">gene4</tspan><tspan fill="#FFFFFF" font-size="41" x="214.925" y="-130">3.7</tspan><tspan fill="#FFFFFF" font-size="41" x="315.689" y="-130">3.2</tspan><tspan fill="#FFFFFF" font-size="41" x="419.892" y="-130">5.9</tspan><tspan fill="#FFFFFF" font-size="41" x="525.813" y="-130">6.1</tspan><tspan fill="#FFFFFF" font-size="41" x="213.098" y="-11">0.3</tspan><tspan fill="#FFFFFF" font-size="41" x="317.517" y="-11">0.5</tspan><tspan fill="#FFFFFF" font-size="41" x="421.72" y="-11">7.1</tspan><tspan fill="#FFFFFF" font-size="41" x="527.642" y="-11">7.3</tspan><tspan fill="#FFFFFF" font-size="41" x="213.098" y="104">1.1</tspan><tspan fill="#FFFFFF" font-size="41" x="319.345" y="104">1.2</tspan><tspan fill="#FFFFFF" font-size="41" x="423.548" y="104">1.9</tspan><tspan fill="#FFFFFF" font-size="41" x="529.469" y="104">1.1</tspan><tspan fill="#FFFFFF" font-size="41" x="212.989" y="217">9.9</tspan><tspan fill="#FFFFFF" font-size="41" x="321.064" y="217">8.7</tspan><tspan fill="#FFFFFF" font-size="41" x="425.266" y="217">5.9</tspan><tspan fill="#FFFFFF" font-size="41" x="531.187" y="217">4.9</tspan><tspan font-size="64" x="290.605" y="-248">WT</tspan><tspan font-size="64" x="492.203" y="-248">Mut</tspan></text><path d="M616 3431C606.059 3431 598 3429.66 598 3428L598 3235.12C598 3233.46 589.941 3232.12 580 3232.12 589.941 3232.12 598 3230.78 598 3229.12L598 2953C598 2951.34 606.059 2950 616 2950" stroke="#0BB5DD" stroke-width="2.29167" stroke-miterlimit="8" fill="none" fill-rule="evenodd"/><text fill="#595959" font-family="Calibri,Calibri_MSFontService,sans-serif" font-weight="400" font-size="64" transform="matrix(1 0 0 1 303.467 3250)">molecule<tspan font-size="64" x="648.704" y="-538">genotype</tspan></text><path d="M861 2818C861 2805.85 862.641 2796 864.667 2796L1068.33 2796C1070.36 2796 1072 2786.15 1072 2774 1072 2786.15 1073.64 2796 1075.67 2796L1279.33 2796C1281.36 2796 1283 2805.85 1283 2818" stroke="#0BB5DD" stroke-width="2.29167" stroke-miterlimit="8" fill="none" fill-rule="evenodd"/><path d="M3887.5 2785.5 3887.5 2941.5 3913.5 2941.5 3861.5 2993.5 3809.5 2941.5 3835.5 2941.5 3835.5 2785.5Z" stroke="#1E2B38" stroke-width="4.58333" stroke-miterlimit="8" fill="#2D3E50" fill-rule="evenodd"/><path d="M4687.72 2839.22 4445.41 3092.88 4464.2 3110.82 4390.73 3112.51 4389.05 3039.03 4407.84 3056.98 4650.14 2803.33Z" stroke="#1E2B38" stroke-width="4.58333" stroke-miterlimit="8" fill="#2D3E50" fill-rule="evenodd"/><path d="M0 25.9845 350.787 25.9845 350.787 0 402.756 51.9685 350.787 103.937 350.787 77.953 0 77.953Z" stroke="#1E2B38" stroke-width="4.58333" stroke-miterlimit="8" fill="#2D3E50" fill-rule="evenodd" transform="matrix(0.690748 0.723095 0.723095 -0.690748 3031.72 2857.17)"/><rect x="2325.5" y="2040.5" width="71.0002" height="146" stroke="#243240" stroke-width="4.58333" stroke-miterlimit="8" fill="#4BCEB8"/><rect x="2411.5" y="2002.5" width="71.0002" height="184" stroke="#243240" stroke-width="4.58333" stroke-miterlimit="8" fill="#4BCEB8"/><rect x="2495.5" y="1964.5" width="70.9998" height="222" stroke="#243240" stroke-width="4.58333" stroke-miterlimit="8" fill="#4BCEB8"/><path d="M2294.86 2110.78C2178.35 2112.81 2082.25 2020 2080.23 1903.49 2078.21 1786.98 2171.01 1690.88 2287.53 1688.86 2404.04 1686.83 2500.13 1779.64 2502.15 1896.15 2502.25 1901.44 2502.14 1906.74 2501.83 1912.02" stroke="#243240" stroke-width="13.75" stroke-linecap="round" stroke-miterlimit="8" fill="none" fill-rule="evenodd"/><path d="M0 0 42.1201 46.5486" stroke="#243240" stroke-width="13.75" stroke-linecap="round" stroke-miterlimit="8" fill="none" fill-rule="evenodd" transform="matrix(1 0 0 -1 2499 1922.55)"/><path d="M0 0 42.1201 46.5486" stroke="#243240" stroke-width="13.75" stroke-linecap="round" stroke-miterlimit="8" fill="none" fill-rule="evenodd" transform="matrix(-1.83697e-16 -1 -1 1.83697e-16 2498.55 1922.12)"/><path d="M2202.07 1948.09C2192.58 1931.5 2192.51 1894.67 2202.66 1872.65 2212.82 1850.62 2231.7 1819.64 2284.21 1818.88 2302.45 1818.61 2329.19 1814.36 2346.36 1810.22 2363.52 1806.07 2379.6 1793.74 2387.2 1794 2394.8 1794.27 2393.18 1801.35 2391.95 1811.81 2390.72 1822.27 2385.16 1843.38 2379.83 1856.76 2374.51 1870.14 2359.89 1909.06 2348.84 1926.83 2337.79 1944.6 2328.41 1955.82 2313.53 1963.38 2298.66 1970.94 2278.17 1974.76 2259.59 1972.21 2241.01 1969.67 2211.56 1964.69 2202.07 1948.09Z" stroke="#243240" stroke-width="13.75" stroke-linecap="round" stroke-miterlimit="8" fill="none" fill-rule="evenodd"/><path d="M2182 2000C2190.89 1961.63 2199.78 1923.25 2278 1898" stroke="#243240" stroke-width="13.75" stroke-linecap="round" stroke-miterlimit="8" fill="none" fill-rule="evenodd"/><rect x="1955.5" y="1657.5" width="97.9999" height="44" stroke="#243240" stroke-width="4.58333" stroke-miterlimit="8" fill="#FFFFFF"/><path d="M2053.5 1679.5 2131.2 1679.5" stroke="#243240" stroke-width="4.58333" stroke-miterlimit="8" fill="none" fill-rule="evenodd"/><path d="M2131.5 1679.5 2164.33 1812.99" stroke="#243240" stroke-width="4.58333" stroke-miterlimit="8" fill="none" fill-rule="evenodd"/><rect x="2027.5" y="2105.5" width="97.9999" height="44" stroke="#243240" stroke-width="4.58333" stroke-miterlimit="8" fill="#FFFFFF"/><path d="M2125.5 2127.5 2195.39 2127.5" stroke="#243240" stroke-width="4.58333" stroke-miterlimit="8" fill="none" fill-rule="evenodd"/><path d="M0 0 32.83 133.491" stroke="#243240" stroke-width="4.58333" stroke-miterlimit="8" fill="none" fill-rule="evenodd" transform="matrix(1 0 0 -1 2195.5 2126.99)"/><rect x="2550.5" y="1742.5" width="98" height="44" stroke="#243240" stroke-width="4.58333" stroke-miterlimit="8" fill="#FFFFFF"/><path d="M2498.5 1764.5 2549.55 1764.5" stroke="#243240" stroke-width="4.58333" stroke-miterlimit="8" fill="none" fill-rule="evenodd"/><path d="M0 0 143.928 76.6514" stroke="#243240" stroke-width="4.58333" stroke-miterlimit="8" fill="none" fill-rule="evenodd" transform="matrix(1 0 0 -1 2354.5 1841.15)"/><path d="M2536.36 1506.18C2546.03 1506.21 2555.81 1508.92 2564.46 1514.5 2576.11 1522.64 2583.32 1534.49 2585.57 1547.21 2587.83 1559.94 2585.14 1573.55 2576.99 1585.2L2504.28 1689.24C2494.4 1703.39 2478.89 1710.52 2462.83 1710.45L2452.02 1725.92 2446.81 1721.19C2439.87 1715.46 2432.65 1710.05 2425.17 1705L2405.58 1693.1 2416.22 1677.87C2410.63 1662.82 2411.99 1645.81 2421.88 1631.66L2494.59 1527.61C2504.41 1513.57 2520.24 1506.14 2536.36 1506.18Z" stroke="#243240" stroke-width="13.75" stroke-linecap="round" stroke-miterlimit="8" fill="#243240" fill-rule="evenodd"/><g clip-path="url(#clip7)"><g clip-path="url(#clip8)"><g clip-path="url(#clip9)"><path d="M348.378 434.278C336.643 431.033 325.275 426.583 314.455 421L314.375 420.942C314.346 420.942 314.311 420.942 314.277 420.896 299.762 412.627 288.365 399.82 281.834 384.444L281.834 337.848C281.823 331.356 281.469 324.868 280.774 318.413 285.801 313.62 291.725 309.868 298.205 307.37 314.616 333.09 348.312 341.423 374.819 326.316L374.819 326.316C418.794 302.082 424.255 257.191 424.255 206.856 424.255 206.856 379.698 219.184 349.479 219.184 348.447 219.184 347.434 219.184 346.437 219.143 314.775 219.16 289.12 244.838 289.132 276.5 289.132 276.604 289.132 277.819 289.132 279.49 289.157 285.569 290.444 291.577 292.911 297.134 288.036 299.282 283.361 301.859 278.942 304.835 277.71 297.347 276.218 290.02 274.674 282.531 268.971 254.881 263.072 226.332 270.25 180.889 271.65 172.308 273.644 163.835 276.218 155.531 283.506 150.919 291.865 148.274 300.48 147.853 300.423 148.613 300.273 149.362 300.273 150.128L300.273 152.432C301.547 165.642 311.765 176.228 324.922 177.968L324.922 177.968C327.211 178.31 329.52 178.485 331.834 178.492 352.774 178.492 366.973 163.515 380.758 145.422 368.52 140.549 356.887 134.276 346.091 126.729 341.162 122.957 335.127 120.913 328.92 120.911 320.851 120.914 313.155 124.306 307.71 130.26 306.138 132.124 304.8 134.173 303.724 136.361 296.161 136.165 288.631 137.437 281.552 140.105 289.72 119.324 300.135 99.4973 312.612 80.9799 314.398 81.7581 316.238 82.4033 318.119 82.9096 320.372 83.5381 322.693 83.886 325.031 83.9465 325.778 83.95 326.523 83.8941 327.261 83.7795 340.973 81.4367 351.231 69.9055 351.961 56.0143 352.498 42.8501 354.559 29.7925 358.102 17.1027 332.929 17.1027 310.492 19.8331 298.372 41.8206L298.372 41.8206C295.901 46.1425 294.604 51.0359 294.611 56.0143 294.119 63.3306 296.957 70.4769 302.335 75.4614 295.044 86.3814 288.417 97.7306 282.491 109.448 279.449 105.986 276.146 102.762 272.612 99.8049 273.533 97.6413 274.184 95.3717 274.547 93.048 274.695 92.0946 274.778 91.1321 274.795 90.1678 274.795 74.3341 261.959 61.4982 246.125 61.4982 245.624 61.4982 245.117 61.4982 244.599 61.4982 231.953 60.7764 219.421 58.7084 207.214 55.3288 207.214 80.5018 209.944 102.944 231.932 115.059L231.932 115.059C236.251 117.529 241.143 118.826 246.119 118.82 253.871 118.855 261.235 115.437 266.212 109.494 270.221 112.885 273.831 116.72 276.972 120.928 272.638 130.483 268.893 140.294 265.757 150.306 265.757 150.404 265.688 150.491 265.67 150.589 262.713 159.922 260.435 169.458 258.856 179.12 254.865 202.643 254.324 226.622 257.249 250.302 249.704 248.548 242.268 246.356 234.979 243.735 235.065 243.504 235.18 243.291 235.267 243.061L237.087 238.13C238.906 233.388 239.882 228.364 239.967 223.285 239.993 191.618 214.342 165.925 182.674 165.9 182.663 165.9 182.651 165.9 182.64 165.9 181.643 165.934 180.624 165.946 179.592 165.946 149.373 165.946 104.822 153.619 104.822 153.619 104.822 203.959 110.283 248.838 154.258 273.078L154.258 273.078C169.327 281.672 187.478 282.974 203.619 276.621 214.544 272.153 223.732 264.273 229.812 254.155 239.321 257.676 249.095 260.438 259.04 262.416 260.348 270.14 261.868 277.525 263.378 284.841 267.565 302.209 269.882 319.975 270.29 337.837L270.29 361.454C259.138 404.416 241.246 411.662 216.528 421.634 205.58 425.753 195.01 430.817 184.938 436.766L184.852 436.766C184.8 436.766 184.777 436.841 184.725 436.87 168.349 447.13 154.053 460.386 142.588 475.943 140.657 478.472 141.141 482.088 143.67 484.019 146.2 485.95 149.816 485.465 151.747 482.936 161.045 470.368 172.298 459.372 185.076 450.366 188.576 461.581 188.508 473.605 184.88 484.779 184.004 487.837 185.772 491.027 188.83 491.904 188.831 491.904 188.832 491.905 188.832 491.905 189.349 492.052 189.884 492.128 190.422 492.129 192.992 492.128 195.251 490.424 195.958 487.953 200.566 473.658 200.245 458.231 195.048 444.139 203.371 439.622 211.987 435.664 220.837 432.29 222.692 431.541 224.528 430.793 226.344 430.044 225.24 437.998 226.607 446.101 230.261 453.252 231.629 456.125 235.067 457.345 237.94 455.977 240.812 454.609 242.032 451.171 240.664 448.298 233.683 433.655 240.232 424.519 240.595 424.036 240.745 423.783 240.876 423.519 240.987 423.246 253.53 416.719 263.76 406.49 270.29 393.949L270.29 464.226C252.963 473.241 232.911 496.023 232.006 497.06 229.752 499.305 229.744 502.952 231.989 505.207 234.233 507.461 237.881 507.469 240.136 505.225 240.319 505.041 240.49 504.847 240.647 504.641 249.5 494.606 259.431 485.576 270.261 477.717L270.261 526.836C270.261 530.017 272.84 532.596 276.022 532.596 279.203 532.596 281.782 530.017 281.782 526.836L281.782 488.31C291.399 493.759 300.466 500.125 308.856 507.32 311.321 509.331 314.949 508.964 316.961 506.499 318.925 504.092 318.627 500.561 316.287 498.518 312.324 495.171 294.265 480.28 281.805 475.781L281.805 407.169C288.692 416.553 297.457 424.4 307.543 430.211L307.543 430.211C307.658 430.291 318.897 438.759 314.455 460.424 313.894 463.556 315.978 466.549 319.109 467.11 322.134 467.653 325.053 465.724 325.74 462.728 327.57 454.773 327.451 446.493 325.394 438.592 331.84 441.063 338.384 443.143 344.876 445.194 350.636 447.008 356.299 448.8 361.852 450.827 358.62 457.273 354.49 472.878 371.535 496.577 372.619 498.083 374.362 498.975 376.218 498.973 379.4 498.967 381.974 496.384 381.968 493.202 381.967 491.999 381.587 490.825 380.884 489.848 365.383 468.293 371.299 457.112 372.566 455.176 385.902 460.979 397.632 469.929 406.749 481.26 408.839 483.658 412.478 483.906 414.876 481.816 417.127 479.853 417.505 476.496 415.746 474.082 395.648 449.197 371.616 441.611 348.378 434.278ZM300.653 276.5C300.682 251.27 321.08 230.798 346.31 230.682 347.359 230.71 348.43 230.722 349.513 230.722 370.781 229.883 391.907 226.857 412.555 221.69 411.207 265.964 402.803 296.056 372.48 314.432L369.139 316.339C348.624 328.062 322.553 322.169 309.075 302.762L313.39 301.033C327.785 295.97 341.448 289.026 354.024 280.382 356.541 278.435 357.005 274.816 355.058 272.298 353.111 269.78 349.491 269.317 346.973 271.264 335.214 279.234 322.474 285.651 309.069 290.354 307.163 291.126 305.302 291.88 303.464 292.658 301.629 288.537 300.67 284.081 300.648 279.57ZM311.794 150.128C311.794 149.638 311.886 149.154 311.926 148.665 315.09 149.186 318.22 149.895 321.299 150.79 324.324 151.774 327.574 150.118 328.557 147.092 329.541 144.067 327.884 140.817 324.859 139.833 324.756 139.8 324.652 139.77 324.547 139.742 321.8 138.93 319.127 138.273 316.483 137.749 319.734 134.361 324.224 132.441 328.92 132.432 332.564 132.426 336.11 133.611 339.018 135.808 346.286 141.253 354.098 145.933 362.33 149.771 352.601 160.612 343.321 166.966 331.834 166.966 330.628 166.962 329.423 166.896 328.223 166.77L326.425 166.534C318.75 165.521 312.729 159.448 311.782 151.764ZM308.338 47.5349 309.202 46.0833C316.114 34.7123 327.318 30.4668 343.442 29.1592 341.504 38.0384 340.487 47.0936 340.406 56.1813 339.546 64.3098 333.46 70.913 325.429 72.4314 325.295 72.443 325.16 72.443 325.026 72.4314 323.66 72.3715 322.306 72.1469 320.993 71.7632 320.481 71.6308 319.939 71.4119 319.415 71.239 322.065 67.6215 323.701 65.5881 323.781 65.4786 325.792 63.0132 325.423 59.3841 322.958 57.3737 320.492 55.3631 316.863 55.7319 314.853 58.1975 314.473 58.6641 312.272 61.4175 309.017 65.8819 306.94 63.0276 305.921 59.5385 306.137 56.0143 306.119 53.0421 306.884 50.1176 308.355 47.5349ZM263.124 91.3947C263.061 91.8498 262.928 92.2934 262.825 92.7427 260.443 91.2427 257.938 89.9477 255.336 88.8717 252.37 87.7219 249.033 89.1948 247.883 92.1614 246.744 95.0998 248.179 98.4086 251.102 99.586 253.102 100.416 255.029 101.413 256.863 102.564 254.473 105.024 251.35 106.641 247.963 107.173 247.351 107.242 246.735 107.277 246.119 107.276 243.144 107.288 240.219 106.512 237.64 105.03L236.177 104.194C224.817 97.2819 220.572 86.0836 219.264 69.966 227.601 71.7615 236.085 72.784 244.61 73.019 245.186 73.019 245.734 73.019 246.275 73.019 255.664 73.1262 263.226 80.7547 263.251 90.1447 263.238 90.5629 263.201 90.9806 263.141 91.3947ZM226.258 234.109 224.437 239.04C224.374 239.218 224.282 239.38 224.218 239.553 209.727 233.554 195.905 226.051 182.98 217.168 180.36 215.362 176.772 216.022 174.967 218.642 173.161 221.262 173.822 224.85 176.441 226.655 189.756 235.812 203.969 243.587 218.861 249.858 214.127 257.038 207.343 262.629 199.391 265.906 186.5 270.975 172.006 269.933 159.972 263.072L156.775 261.252C126.337 242.911 117.904 212.801 116.556 168.452 137.203 173.617 158.326 176.641 179.592 177.478 180.675 177.478 181.747 177.478 182.801 177.432 208.022 177.549 228.417 198.006 228.458 223.228 228.376 226.954 227.641 230.637 226.286 234.109Z" fill="#4BCEB8" transform="matrix(1 0 0 1.01048 587 269)"/></g></g></g><g clip-path="url(#clip10)"><g clip-path="url(#clip11)"><g clip-path="url(#clip12)"><path d="M348.378 434.278C336.643 431.033 325.275 426.583 314.455 421L314.375 420.942C314.346 420.942 314.311 420.942 314.277 420.896 299.762 412.627 288.365 399.82 281.834 384.444L281.834 337.848C281.823 331.356 281.469 324.868 280.774 318.413 285.801 313.62 291.725 309.868 298.205 307.37 314.616 333.09 348.312 341.423 374.819 326.316L374.819 326.316C418.794 302.082 424.255 257.191 424.255 206.856 424.255 206.856 379.698 219.184 349.479 219.184 348.447 219.184 347.434 219.184 346.437 219.143 314.775 219.16 289.12 244.838 289.132 276.5 289.132 276.604 289.132 277.819 289.132 279.49 289.157 285.569 290.444 291.577 292.911 297.134 288.036 299.282 283.361 301.859 278.942 304.835 277.71 297.347 276.218 290.02 274.674 282.531 268.971 254.881 263.072 226.332 270.25 180.889 271.65 172.308 273.644 163.835 276.218 155.531 283.506 150.919 291.865 148.274 300.48 147.853 300.423 148.613 300.273 149.362 300.273 150.128L300.273 152.432C301.547 165.642 311.765 176.228 324.922 177.968L324.922 177.968C327.211 178.31 329.52 178.485 331.834 178.492 352.774 178.492 366.973 163.515 380.758 145.422 368.52 140.549 356.887 134.276 346.091 126.729 341.162 122.957 335.127 120.913 328.92 120.911 320.851 120.914 313.155 124.306 307.71 130.26 306.138 132.124 304.8 134.173 303.724 136.361 296.161 136.165 288.631 137.437 281.552 140.105 289.72 119.324 300.135 99.4973 312.612 80.9799 314.398 81.7581 316.238 82.4033 318.119 82.9096 320.372 83.5381 322.693 83.886 325.031 83.9465 325.778 83.95 326.523 83.8941 327.261 83.7795 340.973 81.4367 351.231 69.9055 351.961 56.0143 352.498 42.8501 354.559 29.7925 358.102 17.1027 332.929 17.1027 310.492 19.8331 298.372 41.8206L298.372 41.8206C295.901 46.1425 294.604 51.0359 294.611 56.0143 294.119 63.3306 296.957 70.4769 302.335 75.4614 295.044 86.3814 288.417 97.7306 282.491 109.448 279.449 105.986 276.146 102.762 272.612 99.8049 273.533 97.6413 274.184 95.3717 274.547 93.048 274.695 92.0946 274.778 91.1321 274.795 90.1678 274.795 74.3341 261.959 61.4982 246.125 61.4982 245.624 61.4982 245.117 61.4982 244.599 61.4982 231.953 60.7764 219.421 58.7084 207.214 55.3288 207.214 80.5018 209.944 102.944 231.932 115.059L231.932 115.059C236.251 117.529 241.143 118.826 246.119 118.82 253.871 118.855 261.235 115.437 266.212 109.494 270.221 112.885 273.831 116.72 276.972 120.928 272.638 130.483 268.893 140.294 265.757 150.306 265.757 150.404 265.688 150.491 265.67 150.589 262.713 159.922 260.435 169.458 258.856 179.12 254.865 202.643 254.324 226.622 257.249 250.302 249.704 248.548 242.268 246.356 234.979 243.735 235.065 243.504 235.18 243.291 235.267 243.061L237.087 238.13C238.906 233.388 239.882 228.364 239.967 223.285 239.993 191.618 214.342 165.925 182.674 165.9 182.663 165.9 182.651 165.9 182.64 165.9 181.643 165.934 180.624 165.946 179.592 165.946 149.373 165.946 104.822 153.619 104.822 153.619 104.822 203.959 110.283 248.838 154.258 273.078L154.258 273.078C169.327 281.672 187.478 282.974 203.619 276.621 214.544 272.153 223.732 264.273 229.812 254.155 239.321 257.676 249.095 260.438 259.04 262.416 260.348 270.14 261.868 277.525 263.378 284.841 267.565 302.209 269.882 319.975 270.29 337.837L270.29 361.454C259.138 404.416 241.246 411.662 216.528 421.634 205.58 425.753 195.01 430.817 184.938 436.766L184.852 436.766C184.8 436.766 184.777 436.841 184.725 436.87 168.349 447.13 154.053 460.386 142.588 475.943 140.657 478.472 141.141 482.088 143.67 484.019 146.2 485.95 149.816 485.465 151.747 482.936 161.045 470.368 172.298 459.372 185.076 450.366 188.576 461.581 188.508 473.605 184.88 484.779 184.004 487.837 185.772 491.027 188.83 491.904 188.831 491.904 188.832 491.905 188.832 491.905 189.349 492.052 189.884 492.128 190.422 492.129 192.992 492.128 195.251 490.424 195.958 487.953 200.566 473.658 200.245 458.231 195.048 444.139 203.371 439.622 211.987 435.664 220.837 432.29 222.692 431.541 224.528 430.793 226.344 430.044 225.24 437.998 226.607 446.101 230.261 453.252 231.629 456.125 235.067 457.345 237.94 455.977 240.812 454.609 242.032 451.171 240.664 448.298 233.683 433.655 240.232 424.519 240.595 424.036 240.745 423.783 240.876 423.519 240.987 423.246 253.53 416.719 263.76 406.49 270.29 393.949L270.29 464.226C252.963 473.241 232.911 496.023 232.006 497.06 229.752 499.305 229.744 502.952 231.989 505.207 234.233 507.461 237.881 507.469 240.136 505.225 240.319 505.041 240.49 504.847 240.647 504.641 249.5 494.606 259.431 485.576 270.261 477.717L270.261 526.836C270.261 530.017 272.84 532.596 276.022 532.596 279.203 532.596 281.782 530.017 281.782 526.836L281.782 488.31C291.399 493.759 300.466 500.125 308.856 507.32 311.321 509.331 314.949 508.964 316.961 506.499 318.925 504.092 318.627 500.561 316.287 498.518 312.324 495.171 294.265 480.28 281.805 475.781L281.805 407.169C288.692 416.553 297.457 424.4 307.543 430.211L307.543 430.211C307.658 430.291 318.897 438.759 314.455 460.424 313.894 463.556 315.978 466.549 319.109 467.11 322.134 467.653 325.053 465.724 325.74 462.728 327.57 454.773 327.451 446.493 325.394 438.592 331.84 441.063 338.384 443.143 344.876 445.194 350.636 447.008 356.299 448.8 361.852 450.827 358.62 457.273 354.49 472.878 371.535 496.577 372.619 498.083 374.362 498.975 376.218 498.973 379.4 498.967 381.974 496.384 381.968 493.202 381.967 491.999 381.587 490.825 380.884 489.848 365.383 468.293 371.299 457.112 372.566 455.176 385.902 460.979 397.632 469.929 406.749 481.26 408.839 483.658 412.478 483.906 414.876 481.816 417.127 479.853 417.505 476.496 415.746 474.082 395.648 449.197 371.616 441.611 348.378 434.278ZM300.653 276.5C300.682 251.27 321.08 230.798 346.31 230.682 347.359 230.71 348.43 230.722 349.513 230.722 370.781 229.883 391.907 226.857 412.555 221.69 411.207 265.964 402.803 296.056 372.48 314.432L369.139 316.339C348.624 328.062 322.553 322.169 309.075 302.762L313.39 301.033C327.785 295.97 341.448 289.026 354.024 280.382 356.541 278.435 357.005 274.816 355.058 272.298 353.111 269.78 349.491 269.317 346.973 271.264 335.214 279.234 322.474 285.651 309.069 290.354 307.163 291.126 305.302 291.88 303.464 292.658 301.629 288.537 300.67 284.081 300.648 279.57ZM311.794 150.128C311.794 149.638 311.886 149.154 311.926 148.665 315.09 149.186 318.22 149.895 321.299 150.79 324.324 151.774 327.574 150.118 328.557 147.092 329.541 144.067 327.884 140.817 324.859 139.833 324.756 139.8 324.652 139.77 324.547 139.742 321.8 138.93 319.127 138.273 316.483 137.749 319.734 134.361 324.224 132.441 328.92 132.432 332.564 132.426 336.11 133.611 339.018 135.808 346.286 141.253 354.098 145.933 362.33 149.771 352.601 160.612 343.321 166.966 331.834 166.966 330.628 166.962 329.423 166.896 328.223 166.77L326.425 166.534C318.75 165.521 312.729 159.448 311.782 151.764ZM308.338 47.5349 309.202 46.0833C316.114 34.7123 327.318 30.4668 343.442 29.1592 341.504 38.0384 340.487 47.0936 340.406 56.1813 339.546 64.3098 333.46 70.913 325.429 72.4314 325.295 72.443 325.16 72.443 325.026 72.4314 323.66 72.3715 322.306 72.1469 320.993 71.7632 320.481 71.6308 319.939 71.4119 319.415 71.239 322.065 67.6215 323.701 65.5881 323.781 65.4786 325.792 63.0132 325.423 59.3841 322.958 57.3737 320.492 55.3631 316.863 55.7319 314.853 58.1975 314.473 58.6641 312.272 61.4175 309.017 65.8819 306.94 63.0276 305.921 59.5385 306.137 56.0143 306.119 53.0421 306.884 50.1176 308.355 47.5349ZM263.124 91.3947C263.061 91.8498 262.928 92.2934 262.825 92.7427 260.443 91.2427 257.938 89.9477 255.336 88.8717 252.37 87.7219 249.033 89.1948 247.883 92.1614 246.744 95.0998 248.179 98.4086 251.102 99.586 253.102 100.416 255.029 101.413 256.863 102.564 254.473 105.024 251.35 106.641 247.963 107.173 247.351 107.242 246.735 107.277 246.119 107.276 243.144 107.288 240.219 106.512 237.64 105.03L236.177 104.194C224.817 97.2819 220.572 86.0836 219.264 69.966 227.601 71.7615 236.085 72.784 244.61 73.019 245.186 73.019 245.734 73.019 246.275 73.019 255.664 73.1262 263.226 80.7547 263.251 90.1447 263.238 90.5629 263.201 90.9806 263.141 91.3947ZM226.258 234.109 224.437 239.04C224.374 239.218 224.282 239.38 224.218 239.553 209.727 233.554 195.905 226.051 182.98 217.168 180.36 215.362 176.772 216.022 174.967 218.642 173.161 221.262 173.822 224.85 176.441 226.655 189.756 235.812 203.969 243.587 218.861 249.858 214.127 257.038 207.343 262.629 199.391 265.906 186.5 270.975 172.006 269.933 159.972 263.072L156.775 261.252C126.337 242.911 117.904 212.801 116.556 168.452 137.203 173.617 158.326 176.641 179.592 177.478 180.675 177.478 181.747 177.478 182.801 177.432 208.022 177.549 228.417 198.006 228.458 223.228 228.376 226.954 227.641 230.637 226.286 234.109Z" fill="#243240" transform="matrix(1 0 0 1.01061 587 273.134)"/></g></g></g><g clip-path="url(#clip13)"><g clip-path="url(#clip14)"><g clip-path="url(#clip15)"><path d="M348.379 434.278C336.643 431.033 325.275 426.583 314.455 421L314.375 420.942C314.346 420.942 314.311 420.942 314.277 420.896 299.762 412.627 288.365 399.82 281.834 384.444L281.834 337.848C281.823 331.356 281.47 324.868 280.774 318.413 285.801 313.62 291.725 309.868 298.205 307.37 314.616 333.09 348.312 341.423 374.819 326.316L374.819 326.316C418.794 302.082 424.255 257.191 424.255 206.857 424.255 206.857 379.698 219.184 349.479 219.184 348.448 219.184 347.434 219.184 346.437 219.144 314.775 219.16 289.12 244.838 289.133 276.5 289.133 276.604 289.133 277.819 289.133 279.49 289.157 285.569 290.444 291.577 292.911 297.134 288.036 299.282 283.361 301.859 278.942 304.836 277.71 297.347 276.218 290.02 274.674 282.531 268.971 254.881 263.073 226.333 270.25 180.889 271.65 172.308 273.645 163.835 276.218 155.531 283.506 150.919 291.865 148.274 300.481 147.853 300.423 148.613 300.273 149.362 300.273 150.128L300.273 152.432C301.547 165.643 311.765 176.228 324.922 177.968L324.922 177.968C327.211 178.31 329.521 178.485 331.835 178.492 352.774 178.492 366.973 163.515 380.758 145.422 368.52 140.549 356.887 134.276 346.092 126.729 341.162 122.957 335.127 120.913 328.92 120.911 320.851 120.914 313.155 124.306 307.71 130.26 306.139 132.124 304.8 134.173 303.724 136.361 296.161 136.165 288.631 137.437 281.552 140.105 289.72 119.324 300.135 99.4974 312.612 80.9799 314.398 81.7582 316.238 82.4034 318.119 82.9097 320.372 83.5381 322.693 83.8861 325.032 83.9466 325.778 83.95 326.523 83.8941 327.261 83.7795 340.973 81.4367 351.231 69.9055 351.961 56.0143 352.498 42.8501 354.559 29.7925 358.102 17.1027 332.929 17.1027 310.492 19.8331 298.372 41.8206L298.372 41.8206C295.901 46.1426 294.604 51.0359 294.611 56.0143 294.119 63.3306 296.958 70.477 302.336 75.4615 295.044 86.3815 288.417 97.7307 282.491 109.448 279.449 105.986 276.146 102.762 272.612 99.805 273.533 97.6414 274.184 95.3718 274.547 93.048 274.695 92.0947 274.778 91.1321 274.795 90.1678 274.795 74.3342 261.959 61.4982 246.125 61.4982 245.624 61.4982 245.117 61.4982 244.599 61.4982 231.953 60.7764 219.421 58.7084 207.214 55.3288 207.214 80.5018 209.944 102.944 231.932 115.059L231.932 115.059C236.251 117.529 241.143 118.826 246.12 118.82 253.871 118.855 261.236 115.437 266.212 109.494 270.221 112.885 273.831 116.72 276.972 120.928 272.638 130.483 268.893 140.294 265.757 150.307 265.757 150.405 265.688 150.491 265.67 150.589 262.713 159.922 260.435 169.458 258.856 179.12 254.866 202.643 254.324 226.622 257.249 250.302 249.704 248.548 242.268 246.356 234.979 243.735 235.065 243.504 235.181 243.291 235.267 243.061L237.087 238.13C238.906 233.388 239.882 228.364 239.967 223.285 239.993 191.618 214.342 165.925 182.674 165.9 182.663 165.9 182.651 165.9 182.64 165.9 181.643 165.935 180.624 165.946 179.593 165.946 149.373 165.946 104.822 153.619 104.822 153.619 104.822 203.959 110.283 248.839 154.258 273.078L154.258 273.078C169.327 281.672 187.478 282.974 203.619 276.621 214.544 272.153 223.732 264.273 229.812 254.155 239.321 257.676 249.095 260.438 259.04 262.416 260.348 270.141 261.869 277.525 263.378 284.841 267.565 302.209 269.882 319.976 270.29 337.837L270.29 361.455C259.138 404.416 241.246 411.662 216.528 421.634 205.58 425.754 195.01 430.817 184.938 436.766L184.852 436.766C184.8 436.766 184.777 436.841 184.725 436.87 168.349 447.131 154.053 460.386 142.588 475.943 140.657 478.472 141.141 482.088 143.671 484.019 146.2 485.95 149.816 485.466 151.747 482.936 161.045 470.369 172.298 459.373 185.076 450.367 188.576 461.581 188.508 473.605 184.881 484.779 184.004 487.838 185.772 491.028 188.83 491.905 188.831 491.905 188.832 491.905 188.832 491.905 189.35 492.053 189.884 492.128 190.422 492.13 192.992 492.129 195.251 490.425 195.958 487.953 200.566 473.658 200.245 458.231 195.048 444.14 203.372 439.622 211.987 435.664 220.837 432.291 222.692 431.542 224.528 430.793 226.344 430.044 225.24 437.999 226.607 446.101 230.261 453.253 231.629 456.125 235.067 457.345 237.94 455.977 240.813 454.609 242.033 451.171 240.664 448.299 233.683 433.656 240.232 424.52 240.595 424.036 240.745 423.783 240.876 423.519 240.987 423.247 253.53 416.719 263.76 406.49 270.29 393.949L270.29 464.226C252.963 473.241 232.911 496.024 232.007 497.061 229.752 499.306 229.744 502.952 231.989 505.207 234.234 507.462 237.881 507.469 240.136 505.225 240.319 505.042 240.49 504.847 240.647 504.641 249.5 494.606 259.431 485.577 270.262 477.717L270.262 526.836C270.262 530.018 272.84 532.597 276.022 532.597 279.203 532.597 281.782 530.018 281.782 526.836L281.782 488.311C291.399 493.759 300.466 500.126 308.856 507.32 311.321 509.331 314.95 508.964 316.961 506.499 318.926 504.092 318.627 500.561 316.287 498.518 312.324 495.171 294.265 480.281 281.805 475.782L281.805 407.169C288.693 416.553 297.458 424.4 307.543 430.211L307.543 430.211C307.658 430.292 318.897 438.759 314.455 460.424 313.894 463.556 315.978 466.549 319.109 467.111 322.135 467.653 325.053 465.725 325.74 462.729 327.57 454.773 327.452 446.493 325.394 438.592 331.84 441.064 338.384 443.143 344.876 445.194 350.637 447.008 356.299 448.8 361.852 450.828 358.621 457.273 354.49 472.878 371.535 496.577 372.62 498.083 374.363 498.975 376.219 498.973 379.4 498.967 381.974 496.384 381.969 493.202 381.967 491.999 381.587 490.826 380.885 489.849 365.383 468.293 371.299 457.112 372.567 455.177 385.902 460.979 397.632 469.929 406.749 481.26 408.839 483.658 412.478 483.907 414.876 481.816 417.127 479.854 417.505 476.496 415.747 474.082 395.648 449.197 371.616 441.611 348.379 434.278ZM300.653 276.5C300.682 251.27 321.081 230.799 346.311 230.682 347.359 230.71 348.43 230.722 349.513 230.722 370.781 229.883 391.907 226.857 412.555 221.69 411.207 265.964 402.803 296.057 372.48 314.432L369.139 316.339C348.624 328.063 322.553 322.169 309.075 302.762L313.39 301.034C327.785 295.97 341.448 289.027 354.024 280.383 356.542 278.436 357.005 274.816 355.058 272.298 353.111 269.78 349.491 269.317 346.973 271.264 335.214 279.235 322.474 285.651 309.069 290.354 307.163 291.126 305.302 291.88 303.465 292.658 301.629 288.538 300.67 284.081 300.648 279.57ZM311.794 150.128C311.794 149.638 311.886 149.154 311.927 148.665 315.09 149.186 318.22 149.895 321.299 150.79 324.324 151.774 327.574 150.118 328.558 147.092 329.541 144.067 327.885 140.817 324.859 139.834 324.756 139.8 324.653 139.77 324.548 139.742 321.8 138.93 319.127 138.273 316.483 137.749 319.734 134.361 324.224 132.441 328.92 132.432 332.564 132.426 336.11 133.611 339.018 135.808 346.286 141.254 354.099 145.933 362.33 149.771 352.601 160.612 343.321 166.966 331.835 166.966 330.628 166.962 329.423 166.897 328.223 166.77L326.426 166.534C318.75 165.521 312.729 159.448 311.783 151.764ZM308.338 47.535 309.202 46.0833C316.114 34.7123 327.318 30.4668 343.442 29.1592 341.505 38.0385 340.487 47.0937 340.406 56.1814 339.547 64.3099 333.46 70.913 325.429 72.4315 325.295 72.443 325.16 72.443 325.026 72.4315 323.66 72.3716 322.306 72.1469 320.993 71.7633 320.481 71.6308 319.939 71.4119 319.415 71.2391 322.065 67.6215 323.701 65.5881 323.782 65.4787 325.792 63.0132 325.423 59.3841 322.958 57.3738 320.492 55.3631 316.863 55.7319 314.853 58.1975 314.473 58.6641 312.272 61.4176 309.018 65.8819 306.94 63.0276 305.921 59.5385 306.137 56.0143 306.119 53.0422 306.884 50.1176 308.355 47.535ZM263.124 91.3948C263.061 91.8499 262.928 92.2934 262.825 92.7427 260.443 91.2427 257.938 89.9478 255.336 88.8717 252.37 87.7219 249.033 89.1949 247.883 92.1615 246.745 95.0999 248.179 98.4087 251.102 99.5861 253.102 100.416 255.029 101.413 256.863 102.564 254.473 105.024 251.351 106.641 247.963 107.173 247.351 107.242 246.735 107.277 246.12 107.276 243.144 107.288 240.219 106.512 237.64 105.03L236.177 104.194C224.818 97.2819 220.572 86.0837 219.265 69.966 227.601 71.7616 236.086 72.784 244.61 73.0191 245.186 73.0191 245.734 73.0191 246.275 73.0191 255.665 73.1262 263.226 80.7547 263.251 90.1448 263.238 90.563 263.202 90.9806 263.142 91.3948ZM226.258 234.109 224.437 239.04C224.374 239.219 224.282 239.38 224.218 239.553 209.727 233.554 195.905 226.051 182.98 217.168 180.36 215.362 176.772 216.023 174.967 218.642 173.162 221.262 173.822 224.85 176.442 226.655 189.756 235.812 203.969 243.587 218.861 249.858 214.127 257.038 207.343 262.63 199.391 265.907 186.5 270.975 172.006 269.933 159.973 263.073L156.776 261.252C126.337 242.911 117.904 212.801 116.556 168.452 137.203 173.617 158.326 176.641 179.593 177.478 180.675 177.478 181.747 177.478 182.801 177.432 208.022 177.549 228.417 198.006 228.458 223.228 228.376 226.954 227.641 230.637 226.286 234.109Z" fill="#243240" transform="matrix(1 0 0 1.01319 953 482)"/></g></g></g><g clip-path="url(#clip16)"><g clip-path="url(#clip17)"><g clip-path="url(#clip18)"><path d="M348.379 434.278C336.643 431.033 325.275 426.583 314.455 421L314.375 420.942C314.346 420.942 314.311 420.942 314.277 420.896 299.762 412.627 288.365 399.82 281.834 384.444L281.834 337.848C281.823 331.356 281.47 324.868 280.774 318.413 285.801 313.62 291.725 309.868 298.205 307.37 314.616 333.09 348.312 341.423 374.819 326.316L374.819 326.316C418.794 302.082 424.255 257.191 424.255 206.857 424.255 206.857 379.698 219.184 349.479 219.184 348.448 219.184 347.434 219.184 346.437 219.144 314.775 219.16 289.12 244.838 289.133 276.5 289.133 276.604 289.133 277.819 289.133 279.49 289.157 285.569 290.444 291.577 292.911 297.134 288.036 299.282 283.361 301.859 278.942 304.836 277.71 297.347 276.218 290.02 274.674 282.531 268.971 254.881 263.073 226.333 270.25 180.889 271.65 172.308 273.645 163.835 276.218 155.531 283.506 150.919 291.865 148.274 300.481 147.853 300.423 148.613 300.273 149.362 300.273 150.128L300.273 152.432C301.547 165.643 311.765 176.228 324.922 177.968L324.922 177.968C327.211 178.31 329.521 178.485 331.835 178.492 352.774 178.492 366.973 163.515 380.758 145.422 368.52 140.549 356.887 134.276 346.092 126.729 341.162 122.957 335.127 120.913 328.92 120.911 320.851 120.914 313.155 124.306 307.71 130.26 306.139 132.124 304.8 134.173 303.724 136.361 296.161 136.165 288.631 137.437 281.552 140.105 289.72 119.324 300.135 99.4974 312.612 80.9799 314.398 81.7582 316.238 82.4034 318.119 82.9097 320.372 83.5381 322.693 83.8861 325.032 83.9466 325.778 83.95 326.523 83.8941 327.261 83.7795 340.973 81.4367 351.231 69.9055 351.961 56.0143 352.498 42.8501 354.559 29.7925 358.102 17.1027 332.929 17.1027 310.492 19.8331 298.372 41.8206L298.372 41.8206C295.901 46.1426 294.604 51.0359 294.611 56.0143 294.119 63.3306 296.958 70.477 302.336 75.4615 295.044 86.3815 288.417 97.7307 282.491 109.448 279.449 105.986 276.146 102.762 272.612 99.805 273.533 97.6414 274.184 95.3718 274.547 93.048 274.695 92.0947 274.778 91.1321 274.795 90.1678 274.795 74.3342 261.959 61.4982 246.125 61.4982 245.624 61.4982 245.117 61.4982 244.599 61.4982 231.953 60.7764 219.421 58.7084 207.214 55.3288 207.214 80.5018 209.944 102.944 231.932 115.059L231.932 115.059C236.251 117.529 241.143 118.826 246.12 118.82 253.871 118.855 261.236 115.437 266.212 109.494 270.221 112.885 273.831 116.72 276.972 120.928 272.638 130.483 268.893 140.294 265.757 150.307 265.757 150.405 265.688 150.491 265.67 150.589 262.713 159.922 260.435 169.458 258.856 179.12 254.866 202.643 254.324 226.622 257.249 250.302 249.704 248.548 242.268 246.356 234.979 243.735 235.065 243.504 235.181 243.291 235.267 243.061L237.087 238.13C238.906 233.388 239.882 228.364 239.967 223.285 239.993 191.618 214.342 165.925 182.674 165.9 182.663 165.9 182.651 165.9 182.64 165.9 181.643 165.935 180.624 165.946 179.593 165.946 149.373 165.946 104.822 153.619 104.822 153.619 104.822 203.959 110.283 248.839 154.258 273.078L154.258 273.078C169.327 281.672 187.478 282.974 203.619 276.621 214.544 272.153 223.732 264.273 229.812 254.155 239.321 257.676 249.095 260.438 259.04 262.416 260.348 270.141 261.869 277.525 263.378 284.841 267.565 302.209 269.882 319.976 270.29 337.837L270.29 361.455C259.138 404.416 241.246 411.662 216.528 421.634 205.58 425.754 195.01 430.817 184.938 436.766L184.852 436.766C184.8 436.766 184.777 436.841 184.725 436.87 168.349 447.131 154.053 460.386 142.588 475.943 140.657 478.472 141.141 482.088 143.671 484.019 146.2 485.95 149.816 485.466 151.747 482.936 161.045 470.369 172.298 459.373 185.076 450.367 188.576 461.581 188.508 473.605 184.881 484.779 184.004 487.838 185.772 491.028 188.83 491.905 188.831 491.905 188.832 491.905 188.832 491.905 189.35 492.053 189.884 492.128 190.422 492.13 192.992 492.129 195.251 490.425 195.958 487.953 200.566 473.658 200.245 458.231 195.048 444.14 203.372 439.622 211.987 435.664 220.837 432.291 222.692 431.542 224.528 430.793 226.344 430.044 225.24 437.999 226.607 446.101 230.261 453.253 231.629 456.125 235.067 457.345 237.94 455.977 240.813 454.609 242.033 451.171 240.664 448.299 233.683 433.656 240.232 424.52 240.595 424.036 240.745 423.783 240.876 423.519 240.987 423.247 253.53 416.719 263.76 406.49 270.29 393.949L270.29 464.226C252.963 473.241 232.911 496.024 232.007 497.061 229.752 499.306 229.744 502.952 231.989 505.207 234.234 507.462 237.881 507.469 240.136 505.225 240.319 505.042 240.49 504.847 240.647 504.641 249.5 494.606 259.431 485.577 270.262 477.717L270.262 526.836C270.262 530.018 272.84 532.597 276.022 532.597 279.203 532.597 281.782 530.018 281.782 526.836L281.782 488.311C291.399 493.759 300.466 500.126 308.856 507.32 311.321 509.331 314.95 508.964 316.961 506.499 318.926 504.092 318.627 500.561 316.287 498.518 312.324 495.171 294.265 480.281 281.805 475.782L281.805 407.169C288.693 416.553 297.458 424.4 307.543 430.211L307.543 430.211C307.658 430.292 318.897 438.759 314.455 460.424 313.894 463.556 315.978 466.549 319.109 467.111 322.135 467.653 325.053 465.725 325.74 462.729 327.57 454.773 327.452 446.493 325.394 438.592 331.84 441.064 338.384 443.143 344.876 445.194 350.637 447.008 356.299 448.8 361.852 450.828 358.621 457.273 354.49 472.878 371.535 496.577 372.62 498.083 374.363 498.975 376.219 498.973 379.4 498.967 381.974 496.384 381.969 493.202 381.967 491.999 381.587 490.826 380.885 489.849 365.383 468.293 371.299 457.112 372.567 455.177 385.902 460.979 397.632 469.929 406.749 481.26 408.839 483.658 412.478 483.907 414.876 481.816 417.127 479.854 417.505 476.496 415.747 474.082 395.648 449.197 371.616 441.611 348.379 434.278ZM300.653 276.5C300.682 251.27 321.081 230.799 346.311 230.682 347.359 230.71 348.43 230.722 349.513 230.722 370.781 229.883 391.907 226.857 412.555 221.69 411.207 265.964 402.803 296.057 372.48 314.432L369.139 316.339C348.624 328.063 322.553 322.169 309.075 302.762L313.39 301.034C327.785 295.97 341.448 289.027 354.024 280.383 356.542 278.436 357.005 274.816 355.058 272.298 353.111 269.78 349.491 269.317 346.973 271.264 335.214 279.235 322.474 285.651 309.069 290.354 307.163 291.126 305.302 291.88 303.465 292.658 301.629 288.538 300.67 284.081 300.648 279.57ZM311.794 150.128C311.794 149.638 311.886 149.154 311.927 148.665 315.09 149.186 318.22 149.895 321.299 150.79 324.324 151.774 327.574 150.118 328.558 147.092 329.541 144.067 327.885 140.817 324.859 139.834 324.756 139.8 324.653 139.77 324.548 139.742 321.8 138.93 319.127 138.273 316.483 137.749 319.734 134.361 324.224 132.441 328.92 132.432 332.564 132.426 336.11 133.611 339.018 135.808 346.286 141.254 354.099 145.933 362.33 149.771 352.601 160.612 343.321 166.966 331.835 166.966 330.628 166.962 329.423 166.897 328.223 166.77L326.426 166.534C318.75 165.521 312.729 159.448 311.783 151.764ZM308.338 47.535 309.202 46.0833C316.114 34.7123 327.318 30.4668 343.442 29.1592 341.505 38.0385 340.487 47.0937 340.406 56.1814 339.547 64.3099 333.46 70.913 325.429 72.4315 325.295 72.443 325.16 72.443 325.026 72.4315 323.66 72.3716 322.306 72.1469 320.993 71.7633 320.481 71.6308 319.939 71.4119 319.415 71.2391 322.065 67.6215 323.701 65.5881 323.782 65.4787 325.792 63.0132 325.423 59.3841 322.958 57.3738 320.492 55.3631 316.863 55.7319 314.853 58.1975 314.473 58.6641 312.272 61.4176 309.018 65.8819 306.94 63.0276 305.921 59.5385 306.137 56.0143 306.119 53.0422 306.884 50.1176 308.355 47.535ZM263.124 91.3948C263.061 91.8499 262.928 92.2934 262.825 92.7427 260.443 91.2427 257.938 89.9478 255.336 88.8717 252.37 87.7219 249.033 89.1949 247.883 92.1615 246.745 95.0999 248.179 98.4087 251.102 99.5861 253.102 100.416 255.029 101.413 256.863 102.564 254.473 105.024 251.351 106.641 247.963 107.173 247.351 107.242 246.735 107.277 246.12 107.276 243.144 107.288 240.219 106.512 237.64 105.03L236.177 104.194C224.818 97.2819 220.572 86.0837 219.265 69.966 227.601 71.7616 236.086 72.784 244.61 73.0191 245.186 73.0191 245.734 73.0191 246.275 73.0191 255.665 73.1262 263.226 80.7547 263.251 90.1448 263.238 90.563 263.202 90.9806 263.142 91.3948ZM226.258 234.109 224.437 239.04C224.374 239.219 224.282 239.38 224.218 239.553 209.727 233.554 195.905 226.051 182.98 217.168 180.36 215.362 176.772 216.023 174.967 218.642 173.162 221.262 173.822 224.85 176.442 226.655 189.756 235.812 203.969 243.587 218.861 249.858 214.127 257.038 207.343 262.63 199.391 265.907 186.5 270.975 172.006 269.933 159.973 263.073L156.776 261.252C126.337 242.911 117.904 212.801 116.556 168.452 137.203 173.617 158.326 176.641 179.593 177.478 180.675 177.478 181.747 177.478 182.801 177.432 208.022 177.549 228.417 198.006 228.458 223.228 228.376 226.954 227.641 230.637 226.286 234.109Z" fill="#243240" transform="matrix(1 0 0 1.01061 953 486.134)"/></g></g></g><g clip-path="url(#clip19)"><g clip-path="url(#clip20)"><g clip-path="url(#clip21)"><path d="M359.437 337.25 66.5625 337.25C56.8 337.25 48.8125 329.262 48.8125 319.5L48.8125 106.5C48.8125 96.7375 56.8 88.75 66.5625 88.75L149.987 88.75C153.537 88.75 157.087 89.6375 159.75 91.8562L208.562 124.25 359.437 124.25C369.2 124.25 377.187 132.237 377.187 142L377.187 319.5C377.187 329.262 369.2 337.25 359.437 337.25Z" stroke="#243240" stroke-width="8.87495" fill="#4BCEB8" transform="matrix(1.11737 0 0 1 3170 497)"/></g></g></g><g clip-path="url(#clip22)"><g clip-path="url(#clip23)"><g clip-path="url(#clip24)"><path d="M397.406 372.875 73.5937 372.875C62.8 372.875 53.9687 364.044 53.9687 353.25L53.9687 117.75C53.9687 106.956 62.8 98.125 73.5937 98.125L165.831 98.125C169.756 98.125 173.681 99.1062 176.625 101.559L230.594 137.375 397.406 137.375C408.2 137.375 417.031 146.206 417.031 157L417.031 353.25C417.031 364.044 408.2 372.875 397.406 372.875Z" stroke="#243240" stroke-width="9.81245" fill="#243240" transform="matrix(1.01062 0 0 1 3247 390)"/></g></g></g><rect x="2522.5" y="1003.5" width="177" height="41.0002" stroke="#243240" stroke-width="4.58333" stroke-miterlimit="8" fill="#FFFFFF"/><path d="M2522.53 1024.5 2381.5 1024.5" stroke="#243240" stroke-width="4.58333" stroke-miterlimit="8" fill="none" fill-rule="evenodd"/><path d="M2381.09 1024.29 2321.5 900.5" stroke="#243240" stroke-width="4.58333" stroke-miterlimit="8" fill="none" fill-rule="evenodd"/><g clip-path="url(#clip25)" filter="url(#fx0)" transform="translate(2770 3127)"><g clip-path="url(#clip26)"><rect x="20.2771" y="20.2773" width="484" height="299" fill="#4FB3D9"/><rect x="20.2771" y="20.2773" width="484" height="38.9998" fill="#243240"/><rect x="20.2771" y="66.2773" width="156" height="79.0001" fill="#1FC2A7"/><rect x="184.277" y="66.2773" width="156" height="79.0001" fill="#1FC2A7"/><rect x="348.277" y="66.2773" width="156" height="79.0001" fill="#1FC2A7"/><rect x="20.2771" y="153.277" width="156" height="79.0001" fill="#1FC2A7"/><rect x="184.277" y="153.277" width="156" height="79.0001" fill="#1FC2A7"/><rect x="348.277" y="153.277" width="156" height="79.0001" fill="#1FC2A7"/><rect x="20.2771" y="240.277" width="156" height="79.0001" fill="#1FC2A7"/><rect x="184.277" y="240.277" width="156" height="79.0001" fill="#1FC2A7"/><rect x="348.277" y="240.277" width="156" height="79.0001" fill="#1FC2A7"/></g></g><rect x="2800" y="3157" width="484" height="299" fill="#4FB3D9"/><rect x="2800" y="3157" width="484" height="38.9998" fill="#243240"/><rect x="2800" y="3203" width="156" height="79" fill="#1FC2A7"/><rect x="2964" y="3203" width="156" height="79" fill="#1FC2A7"/><rect x="3128" y="3203" width="156" height="79" fill="#1FC2A7"/><rect x="2800" y="3290" width="156" height="79" fill="#1FC2A7"/><rect x="2964" y="3290" width="156" height="79" fill="#1FC2A7"/><rect x="3128" y="3290" width="156" height="79" fill="#1FC2A7"/><rect x="2800" y="3377" width="156" height="79" fill="#1FC2A7"/><rect x="2964" y="3377" width="156" height="79" fill="#1FC2A7"/><rect x="3128" y="3377" width="156" height="79" fill="#1FC2A7"/><g clip-path="url(#clip27)" filter="url(#fx1)" transform="translate(2898 3197)"><g clip-path="url(#clip28)"><rect x="20.2773" y="20.2773" width="484" height="299" fill="#4FB3D9"/><rect x="20.2773" y="20.2773" width="484" height="38.9998" fill="#243240"/><rect x="20.2773" y="67.2771" width="156" height="79.0001" fill="#1FC2A7"/><rect x="184.277" y="67.2771" width="156" height="79.0001" fill="#1FC2A7"/><rect x="348.277" y="67.2771" width="156" height="79.0001" fill="#1FC2A7"/><rect x="20.2773" y="153.277" width="156" height="78.9997" fill="#1FC2A7"/><rect x="184.277" y="153.277" width="156" height="78.9997" fill="#1FC2A7"/><rect x="348.277" y="153.277" width="156" height="78.9997" fill="#1FC2A7"/><rect x="20.2773" y="240.277" width="156" height="78.9997" fill="#1FC2A7"/><rect x="184.277" y="240.277" width="156" height="78.9997" fill="#1FC2A7"/><rect x="348.277" y="240.277" width="156" height="78.9997" fill="#1FC2A7"/></g></g><rect x="2928" y="3227" width="484" height="299" fill="#4FB3D9"/><rect x="2928" y="3227" width="484" height="38.9998" fill="#243240"/><rect x="2928" y="3274" width="156" height="79" fill="#1FC2A7"/><rect x="3092" y="3274" width="156" height="79" fill="#1FC2A7"/><rect x="3256" y="3274" width="156" height="79" fill="#1FC2A7"/><rect x="2928" y="3360" width="156" height="78.9998" fill="#1FC2A7"/><rect x="3092" y="3360" width="156" height="78.9998" fill="#1FC2A7"/><rect x="3256" y="3360" width="156" height="78.9998" fill="#1FC2A7"/><rect x="2928" y="3447" width="156" height="78.9998" fill="#1FC2A7"/><rect x="3092" y="3447" width="156" height="78.9998" fill="#1FC2A7"/><rect x="3256" y="3447" width="156" height="78.9998" fill="#1FC2A7"/><g clip-path="url(#clip29)" filter="url(#fx2)" transform="translate(2714 3301)"><g clip-path="url(#clip30)"><rect x="20.2773" y="20.2771" width="484" height="298" fill="#4FB3D9"/><rect x="20.2773" y="20.2771" width="484" height="39.0002" fill="#243240"/><rect x="20.2773" y="66.2773" width="156" height="79.0001" fill="#1FC2A7"/><rect x="184.277" y="66.2773" width="156" height="79.0001" fill="#1FC2A7"/><rect x="348.277" y="66.2773" width="156" height="79.0001" fill="#1FC2A7"/><rect x="20.2773" y="153.277" width="156" height="79.0001" fill="#1FC2A7"/><rect x="184.277" y="153.277" width="156" height="79.0001" fill="#1FC2A7"/><rect x="348.277" y="153.277" width="156" height="79.0001" fill="#1FC2A7"/><rect x="20.2773" y="239.277" width="156" height="79.0001" fill="#1FC2A7"/><rect x="184.277" y="239.277" width="156" height="79.0001" fill="#1FC2A7"/><rect x="348.277" y="239.277" width="156" height="79.0001" fill="#1FC2A7"/></g></g><rect x="2744" y="3331" width="484" height="298" fill="#4FB3D9"/><rect x="2744" y="3331" width="484" height="39.0002" fill="#243240"/><rect x="2744" y="3377" width="156" height="79" fill="#1FC2A7"/><rect x="2908" y="3377" width="156" height="79" fill="#1FC2A7"/><rect x="3072" y="3377" width="156" height="79" fill="#1FC2A7"/><rect x="2744" y="3464" width="156" height="79" fill="#1FC2A7"/><rect x="2908" y="3464" width="156" height="79" fill="#1FC2A7"/><rect x="3072" y="3464" width="156" height="79" fill="#1FC2A7"/><rect x="2744" y="3550" width="156" height="79" fill="#1FC2A7"/><rect x="2908" y="3550" width="156" height="79" fill="#1FC2A7"/><rect x="3072" y="3550" width="156" height="79" fill="#1FC2A7"/><rect x="1834.5" y="315.5" width="177" height="40.9999" stroke="#243240" stroke-width="4.58333" stroke-miterlimit="8" fill="#FFFFFF"/><path d="M2011.5 336.5 2152.53 336.5" stroke="#243240" stroke-width="4.58333" stroke-miterlimit="8" fill="none" fill-rule="evenodd"/><path d="M2152.5 336.5 2199.38 423.036" stroke="#243240" stroke-width="4.58333" stroke-miterlimit="8" fill="none" fill-rule="evenodd"/><text fill="#243240" font-family="Calibri,Calibri_MSFontService,sans-serif" font-weight="700" font-size="73" transform="matrix(1 0 0 1 794.05 1132)">Data Generation</text><path d="M1548.5 636.5 1704.5 636.5 1704.5 610.5 1756.5 662.5 1704.5 714.5 1704.5 688.5 1548.5 688.5Z" stroke="#1E2B38" stroke-width="4.58333" stroke-miterlimit="8" fill="#2D3E50" fill-rule="evenodd"/><text fill="#243240" font-family="Calibri,Calibri_MSFontService,sans-serif" font-weight="700" font-size="73" transform="matrix(1 0 0 1 1970.72 1132)">Metadata Annotation</text><path d="M2806.5 636.5 2962.5 636.5 2962.5 610.5 3014.5 662.5 2962.5 714.5 2962.5 688.5 2806.5 688.5Z" stroke="#1E2B38" stroke-width="4.58333" stroke-miterlimit="8" fill="#2D3E50" fill-rule="evenodd"/><text fill="#243240" font-family="Calibri,Calibri_MSFontService,sans-serif" font-weight="700" font-size="73" transform="matrix(1 0 0 1 3230.78 1131)">Data Handling</text><path d="M1122 1425 3460.58 1425" stroke="#243240" stroke-width="27.5" stroke-miterlimit="8" fill="none" fill-rule="evenodd"/><path d="M1133 1177 1133 1436.84" stroke="#243240" stroke-width="27.5" stroke-miterlimit="8" fill="none" fill-rule="evenodd"/><path d="M3447 1177 3447 1436.84" stroke="#243240" stroke-width="27.5" stroke-miterlimit="8" fill="none" fill-rule="evenodd"/><path d="M2290 1177 2290 1631.72" stroke="#243240" stroke-width="27.5" stroke-miterlimit="8" fill="none" fill-rule="evenodd"/><g clip-path="url(#clip31)" filter="url(#fx3)" transform="translate(1968 378)"><g clip-path="url(#clip32)"><rect x="20.2771" y="20.2773" width="496" height="44" fill="#243240"/><rect x="20.2771" y="72.2772" width="160" height="89" fill="#1FC2A7"/><rect x="188.277" y="72.2772" width="160" height="89" fill="#1FC2A7"/><rect x="356.277" y="72.2772" width="160" height="89" fill="#1FC2A7"/><rect x="20.2771" y="169.277" width="160" height="89" fill="#1FC2A7"/><rect x="188.277" y="169.277" width="160" height="89" fill="#1FC2A7"/><rect x="356.277" y="169.277" width="160" height="89" fill="#1FC2A7"/><rect x="20.2771" y="266.277" width="160" height="88.9997" fill="#1FC2A7"/><rect x="188.277" y="266.277" width="160" height="88.9997" fill="#1FC2A7"/><rect x="356.277" y="266.277" width="160" height="88.9997" fill="#1FC2A7"/></g></g><rect x="1998" y="408" width="496" height="44" fill="#243240"/><rect x="1998" y="460" width="160" height="89.0001" fill="#1FC2A7"/><rect x="2166" y="460" width="160" height="89.0001" fill="#1FC2A7"/><rect x="2334" y="460" width="160" height="89.0001" fill="#1FC2A7"/><rect x="1998" y="557" width="160" height="89" fill="#1FC2A7"/><rect x="2166" y="557" width="160" height="89" fill="#1FC2A7"/><rect x="2334" y="557" width="160" height="89" fill="#1FC2A7"/><rect x="1998" y="654" width="160" height="88.9997" fill="#1FC2A7"/><rect x="2166" y="654" width="160" height="88.9997" fill="#1FC2A7"/><rect x="2334" y="654" width="160" height="88.9997" fill="#1FC2A7"/><g clip-path="url(#clip33)" filter="url(#fx4)" transform="translate(2086 502)"><g clip-path="url(#clip34)"><rect x="20.2773" y="20.2774" width="497" height="44" fill="#243240"/><rect x="20.2773" y="72.2773" width="161" height="89" fill="#1FC2A7"/><rect x="188.277" y="72.2773" width="161" height="89" fill="#1FC2A7"/><rect x="356.277" y="72.2773" width="161" height="89" fill="#1FC2A7"/><rect x="20.2773" y="169.277" width="161" height="89" fill="#1FC2A7"/><rect x="188.277" y="169.277" width="161" height="89" fill="#1FC2A7"/><rect x="356.277" y="169.277" width="161" height="89" fill="#1FC2A7"/><rect x="20.2773" y="266.277" width="161" height="89" fill="#1FC2A7"/><rect x="188.277" y="266.277" width="161" height="89" fill="#1FC2A7"/><rect x="356.277" y="266.277" width="161" height="89" fill="#1FC2A7"/></g></g><rect x="2116" y="532" width="497" height="44" fill="#243240"/><rect x="2116" y="584" width="161" height="89.0001" fill="#1FC2A7"/><rect x="2284" y="584" width="161" height="89.0001" fill="#1FC2A7"/><rect x="2452" y="584" width="161" height="89.0001" fill="#1FC2A7"/><rect x="2116" y="681" width="161" height="89.0001" fill="#1FC2A7"/><rect x="2284" y="681" width="161" height="89.0001" fill="#1FC2A7"/><rect x="2452" y="681" width="161" height="89.0001" fill="#1FC2A7"/><rect x="2116" y="778" width="161" height="89" fill="#1FC2A7"/><rect x="2284" y="778" width="161" height="89" fill="#1FC2A7"/><rect x="2452" y="778" width="161" height="89" fill="#1FC2A7"/><g clip-path="url(#clip35)" filter="url(#fx5)" transform="translate(1899 590)"><g clip-path="url(#clip36)"><rect x="20.2775" y="20.2774" width="496" height="43" fill="#243240"/><rect x="20.2775" y="72.2773" width="160" height="88" fill="#1FC2A7"/><rect x="188.277" y="72.2773" width="160" height="88" fill="#1FC2A7"/><rect x="356.277" y="72.2773" width="160" height="88" fill="#1FC2A7"/><rect x="20.2775" y="169.277" width="160" height="88" fill="#1FC2A7"/><rect x="188.277" y="169.277" width="160" height="88" fill="#1FC2A7"/><rect x="356.277" y="169.277" width="160" height="88" fill="#1FC2A7"/><rect x="20.2775" y="266.277" width="160" height="88" fill="#1FC2A7"/><rect x="188.277" y="266.277" width="160" height="88" fill="#1FC2A7"/><rect x="356.277" y="266.277" width="160" height="88" fill="#1FC2A7"/></g></g><rect x="1929" y="620" width="496" height="42.9999" fill="#243240"/><rect x="1929" y="672" width="160" height="88" fill="#1FC2A7"/><rect x="2097" y="672" width="160" height="88" fill="#1FC2A7"/><rect x="2265" y="672" width="160" height="88" fill="#1FC2A7"/><rect x="1929" y="769" width="160" height="88" fill="#1FC2A7"/><rect x="2097" y="769" width="160" height="88" fill="#1FC2A7"/><rect x="2265" y="769" width="160" height="88" fill="#1FC2A7"/><rect x="1929" y="866" width="160" height="88" fill="#1FC2A7"/><rect x="2097" y="866" width="160" height="88" fill="#1FC2A7"/><rect x="2265" y="866" width="160" height="88" fill="#1FC2A7"/></g></svg>