<svg width="3492" height="770" xmlns="http://www.w3.org/2000/svg" xmlns:xlink="http://www.w3.org/1999/xlink" xml:space="preserve" overflow="hidden"><defs><clipPath id="clip0"><rect x="375" y="844" width="3492" height="770"/></clipPath><clipPath id="clip1"><rect x="445" y="1050" width="331" height="288"/></clipPath><clipPath id="clip2"><rect x="445" y="1050" width="331" height="288"/></clipPath><clipPath id="clip3"><rect x="445" y="1050" width="331" height="288"/></clipPath><clipPath id="clip4"><rect x="492" y="959" width="331" height="287"/></clipPath><clipPath id="clip5"><rect x="492" y="959" width="331" height="287"/></clipPath><clipPath id="clip6"><rect x="492" y="959" width="331" height="287"/></clipPath></defs><g clip-path="url(#clip0)" transform="translate(-375 -844)"><path d="M3429.5 1032.9C3429.5 1018.79 3493.24 1007.5 3570.5 1007.5 3647.76 1007.5 3711.5 1018.79 3711.5 1032.9 3711.5 1133.1 3711.5 1133.1 3711.5 1133.1 3711.5 1147.21 3647.76 1158.5 3570.5 1158.5 3493.24 1158.5 3429.5 1147.21 3429.5 1133.1L3429.5 1032.9Z" stroke="#787878" stroke-width="4.58333" stroke-miterlimit="8" fill="#A5A5A5" fill-rule="evenodd"/><path d="M3429.5 1214.9C3429.5 1200.79 3493.24 1189.5 3570.5 1189.5 3647.76 1189.5 3711.5 1200.79 3711.5 1214.9 3711.5 1315.1 3711.5 1315.1 3711.5 1315.1 3711.5 1329.21 3647.76 1340.5 3570.5 1340.5 3493.24 1340.5 3429.5 1329.21 3429.5 1315.1L3429.5 1214.9Z" stroke="#787878" stroke-width="4.58333" stroke-miterlimit="8" fill="#A5A5A5" fill-rule="evenodd"/><path d="M3711.5 1214.5C3711.5 1227.5 3647.76 1240.5 3570.5 1240.5 3493.24 1240.5 3429.5 1227.5 3429.5 1214.5" stroke="#787878" stroke-width="4.58333" stroke-miterlimit="8" fill="#A5A5A5" fill-rule="evenodd"/><path d="M3429.5 1214.9C3429.5 1200.79 3493.24 1189.5 3570.5 1189.5 3647.76 1189.5 3711.5 1200.79 3711.5 1214.9 3711.5 1315.1 3711.5 1315.1 3711.5 1315.1 3711.5 1329.21 3647.76 1340.5 3570.5 1340.5 3493.24 1340.5 3429.5 1329.21 3429.5 1315.1L3429.5 1214.9Z" stroke="#787878" stroke-width="4.58333" stroke-miterlimit="8" fill="#A5A5A5" fill-rule="evenodd"/><path d="M3429.5 1123C3429.5 1108.83 3493.24 1097.5 3570.5 1097.5 3647.76 1097.5 3711.5 1108.83 3711.5 1123 3711.5 1225 3711.5 1225 3711.5 1225 3711.5 1239.17 3647.76 1250.5 3570.5 1250.5 3493.24 1250.5 3429.5 1239.17 3429.5 1225L3429.5 1123Z" stroke="#787878" stroke-width="4.58333" stroke-miterlimit="8" fill="#A5A5A5" fill-rule="evenodd"/><path d="M3711.5 1123.5C3711.5 1137.39 3647.76 1148.5 3570.5 1148.5 3493.24 1148.5 3429.5 1137.39 3429.5 1123.5" stroke="#787878" stroke-width="4.58333" stroke-miterlimit="8" fill="#A5A5A5" fill-rule="evenodd"/><path d="M3429.5 1123C3429.5 1108.83 3493.24 1097.5 3570.5 1097.5 3647.76 1097.5 3711.5 1108.83 3711.5 1123 3711.5 1225 3711.5 1225 3711.5 1225 3711.5 1239.17 3647.76 1250.5 3570.5 1250.5 3493.24 1250.5 3429.5 1239.17 3429.5 1225L3429.5 1123Z" stroke="#787878" stroke-width="4.58333" stroke-miterlimit="8" fill="#A5A5A5" fill-rule="evenodd"/><path d="M3429.5 1032.9C3429.5 1018.79 3493.24 1007.5 3570.5 1007.5 3647.76 1007.5 3711.5 1018.79 3711.5 1032.9 3711.5 1133.1 3711.5 1133.1 3711.5 1133.1 3711.5 1147.21 3647.76 1158.5 3570.5 1158.5 3493.24 1158.5 3429.5 1147.21 3429.5 1133.1L3429.5 1032.9Z" stroke="#787878" stroke-width="4.58333" stroke-miterlimit="8" fill="#A5A5A5" fill-rule="evenodd"/><path d="M3711.5 1032.5C3711.5 1046.94 3647.76 1058.5 3570.5 1058.5 3493.24 1058.5 3429.5 1046.94 3429.5 1032.5" stroke="#787878" stroke-width="4.58333" stroke-miterlimit="8" fill="#A5A5A5" fill-rule="evenodd"/><path d="M3592.5 981.902C3592.5 967.79 3639.51 956.5 3696.5 956.5 3753.49 956.5 3800.5 967.79 3800.5 981.902 3800.5 1082.1 3800.5 1082.1 3800.5 1082.1 3800.5 1096.21 3753.49 1107.5 3696.5 1107.5 3639.51 1107.5 3592.5 1096.21 3592.5 1082.1L3592.5 981.902Z" stroke="#148E7A" stroke-width="4.58333" stroke-miterlimit="8" fill="#1FC2A7" fill-rule="evenodd"/><path d="M3592.5 1163.9C3592.5 1149.79 3639.51 1138.5 3696.5 1138.5 3753.49 1138.5 3800.5 1149.79 3800.5 1163.9 3800.5 1264.1 3800.5 1264.1 3800.5 1264.1 3800.5 1278.21 3753.49 1289.5 3696.5 1289.5 3639.51 1289.5 3592.5 1278.21 3592.5 1264.1L3592.5 1163.9Z" stroke="#148E7A" stroke-width="4.58333" stroke-miterlimit="8" fill="#1FC2A7" fill-rule="evenodd"/><path d="M3800.5 1163.5C3800.5 1176.5 3753.49 1189.5 3696.5 1189.5 3639.51 1189.5 3592.5 1176.5 3592.5 1163.5" stroke="#148E7A" stroke-width="4.58333" stroke-miterlimit="8" fill="#1FC2A7" fill-rule="evenodd"/><path d="M3592.5 1163.9C3592.5 1149.79 3639.51 1138.5 3696.5 1138.5 3753.49 1138.5 3800.5 1149.79 3800.5 1163.9 3800.5 1264.1 3800.5 1264.1 3800.5 1264.1 3800.5 1278.21 3753.49 1289.5 3696.5 1289.5 3639.51 1289.5 3592.5 1278.21 3592.5 1264.1L3592.5 1163.9Z" stroke="#148E7A" stroke-width="4.58333" stroke-miterlimit="8" fill="#1FC2A7" fill-rule="evenodd"/><path d="M3592.5 1072C3592.5 1057.83 3639.51 1046.5 3696.5 1046.5 3753.49 1046.5 3800.5 1057.83 3800.5 1072 3800.5 1174 3800.5 1174 3800.5 1174 3800.5 1188.17 3753.49 1199.5 3696.5 1199.5 3639.51 1199.5 3592.5 1188.17 3592.5 1174L3592.5 1072Z" stroke="#148E7A" stroke-width="4.58333" stroke-miterlimit="8" fill="#1FC2A7" fill-rule="evenodd"/><path d="M3800.5 1072.5C3800.5 1086.39 3753.49 1097.5 3696.5 1097.5 3639.51 1097.5 3592.5 1086.39 3592.5 1072.5" stroke="#148E7A" stroke-width="4.58333" stroke-miterlimit="8" fill="#1FC2A7" fill-rule="evenodd"/><path d="M3592.5 1072C3592.5 1057.83 3639.51 1046.5 3696.5 1046.5 3753.49 1046.5 3800.5 1057.83 3800.5 1072 3800.5 1174 3800.5 1174 3800.5 1174 3800.5 1188.17 3753.49 1199.5 3696.5 1199.5 3639.51 1199.5 3592.5 1188.17 3592.5 1174L3592.5 1072Z" stroke="#148E7A" stroke-width="4.58333" stroke-miterlimit="8" fill="#1FC2A7" fill-rule="evenodd"/><path d="M3592.5 981.902C3592.5 967.79 3639.51 956.5 3696.5 956.5 3753.49 956.5 3800.5 967.79 3800.5 981.902 3800.5 1082.1 3800.5 1082.1 3800.5 1082.1 3800.5 1096.21 3753.49 1107.5 3696.5 1107.5 3639.51 1107.5 3592.5 1096.21 3592.5 1082.1L3592.5 981.902Z" stroke="#148E7A" stroke-width="4.58333" stroke-miterlimit="8" fill="#1FC2A7" fill-rule="evenodd"/><path d="M3800.5 981.5C3800.5 995.944 3753.49 1007.5 3696.5 1007.5 3639.51 1007.5 3592.5 995.944 3592.5 981.5" stroke="#148E7A" stroke-width="4.58333" stroke-miterlimit="8" fill="#1FC2A7" fill-rule="evenodd"/><path d="M1010.5 1124 1160.5 1124 1160.5 1099.5 1209.5 1148.5 1160.5 1197.5 1160.5 1173 1010.5 1173Z" stroke="#1E2B38" stroke-width="4.58333" stroke-miterlimit="8" fill="#2D3E50" fill-rule="evenodd"/><text font-family="Arial,Arial_MSFontService,sans-serif" font-weight="400" font-size="83" transform="matrix(1 0 0 1 965.078 1043)">process</text><g clip-path="url(#clip1)"><g clip-path="url(#clip2)"><g clip-path="url(#clip3)"><path d="M242.156 227.208 44.8438 227.208C38.2667 227.208 32.8854 221.827 32.8854 215.25L32.8854 71.75C32.8854 65.1729 38.2667 59.7917 44.8438 59.7917L101.048 59.7917C103.44 59.7917 105.831 60.3896 107.625 61.8844L140.51 83.7083 242.156 83.7083C248.733 83.7083 254.115 89.0896 254.115 95.6667L254.115 215.25C254.115 221.827 248.733 227.208 242.156 227.208Z" stroke="#595959" stroke-width="5.97917" fill="#E7E6E6" transform="matrix(1.14983 0 0 1 446 1051)"/></g></g></g><g clip-path="url(#clip4)"><g clip-path="url(#clip5)"><g clip-path="url(#clip6)"><path d="M241.312 226.417 44.6875 226.417C38.1333 226.417 32.7708 221.054 32.7708 214.5L32.7708 71.5C32.7708 64.9458 38.1333 59.5833 44.6875 59.5833L100.696 59.5833C103.079 59.5833 105.463 60.1792 107.25 61.6688L140.021 83.4167 241.312 83.4167C247.867 83.4167 253.229 88.7792 253.229 95.3333L253.229 214.5C253.229 221.054 247.867 226.417 241.312 226.417Z" stroke="#595959" stroke-width="5.95833" fill="#0BB5DD" transform="matrix(1.15385 0 0 1 493 959)"/></g></g></g><text fill="#595959" font-family="Calibri,Calibri_MSFontService,sans-serif" font-weight="400" font-size="83" transform="matrix(1 0 0 1 463.237 1542)">raw data  </text><rect x="1396" y="1047" width="94.9999" height="82.9999" fill="#1FC2A7"/><rect x="1496" y="1047" width="94.9999" height="82.9999" fill="#1FC2A7"/><rect x="1595" y="1047" width="94.9999" height="82.9999" fill="#1FC2A7"/><rect x="1396" y="1135" width="94.9999" height="82.9999" fill="#1FC2A7"/><rect x="1496" y="1135" width="94.9999" height="82.9999" fill="#1FC2A7"/><rect x="1595" y="1135" width="94.9999" height="82.9999" fill="#1FC2A7"/><rect x="1396" y="1222" width="94.9999" height="82.9999" fill="#1FC2A7"/><rect x="1496" y="1222" width="94.9999" height="82.9999" fill="#1FC2A7"/><rect x="1595" y="1222" width="94.9999" height="82.9999" fill="#1FC2A7"/><rect x="1396.5" y="991.5" width="291" height="41.0002" stroke="#0684A2" stroke-width="4.58333" stroke-miterlimit="8" fill="#0BB5DD"/><text fill="#595959" font-family="Calibri,Calibri_MSFontService,sans-serif" font-weight="400" font-size="83" transform="matrix(1 0 0 1 1469.29 1542)">data  </text><path d="M3042.5 1124 3192.5 1124 3192.5 1099.5 3241.5 1148.5 3192.5 1197.5 3192.5 1173 3042.5 1173Z" stroke="#1E2B38" stroke-width="4.58333" stroke-miterlimit="8" fill="#2D3E50" fill-rule="evenodd"/><text font-family="Arial,Arial_MSFontService,sans-serif" font-weight="400" font-size="83" transform="matrix(1 0 0 1 3011.27 1043)">publish<tspan fill="#595959" font-family="Calibri,Calibri_MSFontService,sans-serif" font-size="83" x="479.158" y="399">public </tspan><tspan fill="#595959" font-family="Calibri,Calibri_MSFontService,sans-serif" font-size="83" x="409.148" y="498">repository  </tspan></text><path d="M1964.5 1124 2114.5 1124 2114.5 1099.5 2163.5 1148.5 2114.5 1197.5 2114.5 1173 1964.5 1173Z" stroke="#1E2B38" stroke-width="4.58333" stroke-miterlimit="8" fill="#2D3E50" fill-rule="evenodd"/><text font-family="Arial,Arial_MSFontService,sans-serif" font-weight="400" font-size="83" transform="matrix(1 0 0 1 1903.23 1043)">annotate  </text><rect x="2464" y="1096" width="94.9998" height="84.0002" fill="#1FC2A7"/><rect x="2563" y="1096" width="94.9998" height="84.0002" fill="#1FC2A7"/><rect x="2663" y="1096" width="94.9998" height="84.0002" fill="#1FC2A7"/><rect x="2464" y="1184" width="94.9998" height="84.0002" fill="#1FC2A7"/><rect x="2563" y="1184" width="94.9998" height="84.0002" fill="#1FC2A7"/><rect x="2663" y="1184" width="94.9998" height="84.0002" fill="#1FC2A7"/><rect x="2464" y="1271" width="94.9998" height="84.0002" fill="#1FC2A7"/><rect x="2563" y="1271" width="94.9998" height="84.0002" fill="#1FC2A7"/><rect x="2663" y="1271" width="94.9998" height="84.0002" fill="#1FC2A7"/><rect x="2464.5" y="1041.5" width="290" height="40.9999" stroke="#0684A2" stroke-width="4.58333" stroke-miterlimit="8" fill="#0BB5DD"/><rect x="0" y="0" width="156" height="71.0002" stroke="#0684A2" stroke-width="4.58333" stroke-miterlimit="8" fill="#0BB5DD" transform="matrix(1 0 0 -1 2264.5 1450.5)"/><path d="M0 0 124.447 0.000360892" stroke="#0BB5DD" stroke-width="2.29167" stroke-miterlimit="8" fill="none" fill-rule="evenodd" transform="matrix(1 0 0 -1 2420 1415)"/><path d="M0 0 52.5791 213.793" stroke="#0BB5DD" stroke-width="2.29167" stroke-miterlimit="8" fill="none" fill-rule="evenodd" transform="matrix(1 0 0 -1 2545 1414.79)"/><rect x="0" y="0" width="156" height="70.9998" stroke="#0684A2" stroke-width="4.58333" stroke-miterlimit="8" fill="#0BB5DD" transform="matrix(-1 0 0 1 2855.5 846.5)"/><path d="M0 0 124.447 0.000360892" stroke="#0BB5DD" stroke-width="2.29167" stroke-miterlimit="8" fill="none" fill-rule="evenodd" transform="matrix(-1 0 0 1 2698.45 882)"/><path d="M0 0 52.5791 213.793" stroke="#0BB5DD" stroke-width="2.29167" stroke-miterlimit="8" fill="none" fill-rule="evenodd" transform="matrix(-1 0 0 1 2574.58 882)"/><text fill="#595959" font-family="Calibri,Calibri_MSFontService,sans-serif" font-weight="400" font-size="83" transform="matrix(1 0 0 1 2362.14 1542)">(meta)data  </text></g></svg>