<svg width="3970" height="1207" xmlns="http://www.w3.org/2000/svg" xmlns:xlink="http://www.w3.org/1999/xlink" xml:space="preserve" overflow="hidden"><defs><clipPath id="clip0"><rect x="216" y="597" width="3970" height="1207"/></clipPath></defs><g clip-path="url(#clip0)" transform="translate(-216 -597)"><path d="M323.556-3.82761 339.635-4.77237 355.774-5.09276 371.769-4.84311 387.683-3.89707 403.432-2.38246 418.998-0.297973 434.398 2.42263 449.592 5.71068 464.598 9.569 479.302 14.0011 493.732 18.9338 507.929 24.4435 521.802 30.4571 535.361 36.9789 548.606 44.0087 561.483 51.5517 574.018 59.5249 586.134 67.9561 597.876 76.8991 609.172 86.2852 620.025 96.1171 630.373 106.332 640.278 116.991 649.678 128.034 658.57 139.459 666.911 151.354 674.717 163.531 681.963 176.042 688.589 188.961 694.574 202.189 699.98 215.784 701.409 219.973 691.643 223.288 690.395 219.591 685.176 206.436 679.411 193.664 673.037 181.208 666.033 169.094 658.464 157.271 650.43 145.791 641.822 134.716 632.722 124.009 623.127 113.668 613.1 103.758 602.578 94.2148 591.624 85.1009 580.241 76.4189 568.482 68.2251 556.267 60.4483 543.769 53.1163 530.889 46.2711 517.698 39.9179 504.196 34.0565 490.393 28.6912 476.323 23.8739 462.027 19.556 447.408 15.7893 432.602 12.5774 417.627 9.92297 402.443 7.88246 387.067 6.39707 371.606 5.46811 355.976 5.21776 340.24 5.52237 324.16 6.46713ZM708.723 187.563 699.815 231.321 666.11 202.028C663.961 200.16 663.732 196.903 665.6 194.754 667.469 192.604 670.725 192.376 672.875 194.244L699.908 217.739 691.473 220.602 698.618 185.506C699.186 182.715 701.909 180.913 704.699 181.481 707.49 182.05 709.291 184.772 708.723 187.563Z" fill="#2D3E50" transform="matrix(0.684005 -0.729478 -0.729478 -0.684005 2840.52 1793.02)"/><text fill="#595959" font-family="Calibri,Calibri_MSFontService,sans-serif" font-weight="700" font-size="367" transform="matrix(1 0 0 1 1886.01 1297)">=<tspan fill="#2D3E50" font-weight="400" font-size="128" x="-1592.36" y="270">dictionaries</tspan><tspan fill="#2D3E50" font-weight="400" font-size="128" x="1678.94" y="270">ontologies</tspan></text><path d="M1403.5 1031.95 1367.55 1021.67 1367.55 962.714 1403.5 950.814 1160.16 880.5 864.275 961.632C835.931 972.45 835.239 1002.2 835.239 1026.54 835.239 1034.65 836.622 1042.76 838.695 1050.34 815.191 1062.24 814.5 1089.82 814.5 1113.08 814.5 1132.01 820.03 1149.32 835.239 1160.14 831.783 1169.33 833.857 1180.69 833.857 1194.21 833.857 1218.55 842.152 1240.73 869.805 1248.3L1061.99 1310.5 1402.12 1200.16 1366.17 1189.88 1366.17 1130.39 1402.12 1118.49 1346.81 1102.26 1346.81 1050.34 1403.5 1031.95ZM872.57 999.494 1064.76 1058.45 1340.59 971.368 1340.59 1017.88 1064.76 1107.67 872.57 1048.17 872.57 999.494ZM1339.21 1186.1 1063.37 1275.34 870.497 1215.85 870.497 1173.66 1042.63 1228.83 1339.9 1136.88 1339.21 1186.1ZM1319.85 1104.97 1044.02 1194.21 851.831 1134.71 851.831 1086.03 1049.55 1147.69 1320.54 1058.99 1320.54 1104.97Z" stroke="#FFFFFF" stroke-width="6.875" stroke-miterlimit="8" fill="#595959" fill-rule="evenodd"/><path d="M1181.5 1119.5 1217.5 1119.5 1217.5 1517.5 1181.5 1517.5Z" stroke="#3F3F3F" stroke-width="4.58333" stroke-miterlimit="8" fill="#595959" fill-rule="evenodd"/><path d="M1442.5 1268.13 1274.5 1268.13 1274.5 1238.2 1442.5 1238.2 1442.5 1268.13ZM1406.5 1318 1313.5 1318 1313.5 1298.05 1406.5 1298.05 1406.5 1318ZM1472.5 1118.5 1220.5 1119.5 1220.5 1517.5 1472.5 1517.5C1485.7 1517.5 1496.5 1508.52 1496.5 1497.55L1496.5 1138.45C1496.5 1127.48 1485.7 1118.5 1472.5 1118.5Z" stroke="#3F3F3F" stroke-width="4.58333" stroke-miterlimit="8" fill="#595959" fill-rule="evenodd"/><text fill="#0BB5DD" font-family="Calibri,Calibri_MSFontService,sans-serif" font-weight="400" font-size="83" transform="matrix(1 0 0 1 2535.1 1732)">TripleTOF4600<tspan font-size="83" x="758.967" y="-641">instrument model</tspan><tspan font-size="83" x="-172.195" y="-429">Q </tspan><tspan font-size="83" x="-97.7153" y="-429">Exactive</tspan></text><path d="M2756.5 1387.5C2756.5 1357.12 2781.12 1332.5 2811.5 1332.5 2841.88 1332.5 2866.5 1357.12 2866.5 1387.5 2866.5 1417.88 2841.88 1442.5 2811.5 1442.5 2781.12 1442.5 2756.5 1417.88 2756.5 1387.5Z" stroke="#1E2B38" stroke-width="4.58333" stroke-miterlimit="8" fill="#CED8E3" fill-rule="evenodd"/><path d="M2949.5 1595.5C2949.5 1565.12 2974.12 1540.5 3004.5 1540.5 3034.88 1540.5 3059.5 1565.12 3059.5 1595.5 3059.5 1625.88 3034.88 1650.5 3004.5 1650.5 2974.12 1650.5 2949.5 1625.88 2949.5 1595.5Z" stroke="#1E2B38" stroke-width="4.58333" stroke-miterlimit="8" fill="#CED8E3" fill-rule="evenodd"/><path d="M3059.5 1043.5C3059.5 1013.12 3084.12 988.5 3114.5 988.5 3144.88 988.5 3169.5 1013.12 3169.5 1043.5 3169.5 1073.88 3144.88 1098.5 3114.5 1098.5 3084.12 1098.5 3059.5 1073.88 3059.5 1043.5Z" stroke="#1E2B38" stroke-width="4.58333" stroke-miterlimit="8" fill="#6B8BAC" fill-rule="evenodd"/><path d="M3177.5 665.5C3177.5 635.124 3202.12 610.5 3232.5 610.5 3262.88 610.5 3287.5 635.124 3287.5 665.5 3287.5 695.876 3262.88 720.5 3232.5 720.5 3202.12 720.5 3177.5 695.876 3177.5 665.5Z" stroke="#1E2B38" stroke-width="4.58333" stroke-miterlimit="8" fill="#2D3E50" fill-rule="evenodd"/><path d="M213.706-4.27543 224.388-4.89753 235.065-5.15479 245.78-4.96793 256.373-4.33442 266.782-3.38482 277.22-1.91817 287.389-0.141564 297.516 2.02024 317.147 7.53672 336.204 14.4681 354.46 22.8121 371.883 32.495 388.251 43.4701 403.576 55.5823 417.73 68.9412 430.603 83.3858 442.089 98.9419 447.337 107.087 452.162 115.501 456.536 124.104 460.566 132.921 463.896 141.288 454.311 145.095 451.184 137.204 447.339 128.771 443.213 120.624 438.663 112.663 433.786 105.058 422.897 90.2392 410.645 76.4338 397.175 63.6677 382.499 52.0299 366.867 41.505 350.165 32.1879 332.672 24.1569 314.353 17.4633 295.359 12.1048 285.611 10.0166 275.78 8.29317 265.843 6.88482 255.752 5.95942 245.595 5.34293 235.31 5.15479 224.987 5.39753 214.306 6.01963ZM471.127 109.062 462.442 152.865 428.588 123.744C426.429 121.887 426.185 118.631 428.042 116.472 429.899 114.313 433.154 114.069 435.313 115.926L462.466 139.283 454.046 142.189 461.012 107.056C461.566 104.263 464.279 102.447 467.072 103.001 469.866 103.555 471.681 106.269 471.127 109.062Z" fill="#2D3E50" transform="matrix(0.737321 -0.675542 -0.675542 -0.737321 3045.42 1155.35)"/><path d="M169.349-2.82645 179.042-4.16992 188.974-4.95317 198.773-5.15525 208.646-4.64912 218.297-3.62716 227.892-1.95348 237.382 0.296468 246.663 3.05932 255.866 6.48176 264.844 10.3232 273.645 14.7767 282.256 19.7168 290.682 25.1745 298.859 31.1524 306.799 37.5488 314.494 44.4015 321.989 51.7602 329.159 59.4974 336.019 67.693 342.599 76.3098 348.907 85.2871 354.857 94.6807 365.706 114.391 375.209 135.649 379.45 146.868 383.212 158.331 386.582 170.08 389.51 182.093 392.05 194.396 392.461 196.85 382.288 198.538 381.95 196.479 379.49 184.532 376.668 172.92 373.413 161.544 369.8 150.507 365.791 139.851 356.669 119.359 346.143 100.194 340.468 91.2129 334.401 82.5652 328.106 74.307 321.591 66.5026 314.761 59.1148 307.631 52.0985 300.326 45.5762 292.766 39.4726 285.068 33.8255 277.118 28.6582 268.98 23.9733 260.781 19.8018 252.259 16.1432 243.712 12.9407 234.993 10.3285 226.108 8.20348 217.203 6.62716 208.104 5.64912 198.977 5.15525 189.776 5.32817 180.458 6.04492 170.765 7.3884ZM404.935 166.055 389.049 207.79 360.54 173.419C358.722 171.227 359.025 167.976 361.216 166.158 363.408 164.34 366.659 164.643 368.477 166.835L391.343 194.402 382.555 195.86 395.297 162.386C396.31 159.725 399.288 158.389 401.95 159.402 404.611 160.415 405.948 163.393 404.935 166.055Z" fill="#2D3E50" transform="matrix(0.989591 -0.143911 -0.143911 -0.989591 2742.29 1404.43)"/><text fill="#0BB5DD" font-family="Calibri,Calibri_MSFontService,sans-serif" font-weight="400" font-size="83" transform="matrix(1 0 0 1 3364.54 699)">mass spectrometer<tspan fill="#2D3E50" font-size="64" x="-174.455" y="743">is_a</tspan></text></g></svg>