<svg width="1414" height="1556" xmlns="http://www.w3.org/2000/svg" xmlns:xlink="http://www.w3.org/1999/xlink" xml:space="preserve" overflow="hidden"><defs><clipPath id="clip0"><rect x="567" y="461" width="1414" height="1556"/></clipPath></defs><g clip-path="url(#clip0)" transform="translate(-567 -461)"><path d="M781.155 1745.73 718.64 1608.32 718.64 1515.17C718.858 1503.89 724.916 1493.48 734.742 1487.5 739.881 1485.23 742.151 1479.33 739.815 1474.33 739.711 1474.1 739.599 1473.89 739.478 1473.67 737.751 1469.69 733.431 1467.4 729.059 1468.14L621.077 1468.14C615.172 1467.78 610.091 1472.16 609.728 1477.91 609.719 1478.03 609.714 1478.16 609.711 1478.28 609.378 1482.46 611.606 1486.44 615.394 1488.43 625.523 1494.12 631.687 1504.71 631.497 1516.09L631.497 1609.24 569.928 1745.73C562.603 1761.14 569.493 1779.41 585.316 1786.54 585.863 1786.78 586.417 1787.01 586.978 1787.23 591.126 1789.12 595.661 1790.06 600.239 1790L751.792 1790C769.431 1790.14 783.85 1776.33 783.997 1759.16 783.999 1758.99 783.999 1758.81 783.997 1758.64 784.065 1754.18 783.094 1749.77 781.155 1745.73ZM696.854 1515.17 696.854 1536.38 654.23 1536.38 654.23 1515.17C654.523 1505.72 651.882 1496.4 646.652 1488.43L704.432 1488.43C699.624 1496.57 697.017 1505.78 696.854 1515.17Z" fill="#0BB5DD" fill-rule="evenodd"/><path d="M1232.63 1532.78C1197.17 1504.56 1155.47 1487.14 1111.7 1471.93L1065.34 1453.43C1061.79 1452.01 1059.47 1448.64 1059.47 1444.9L1059.47 1422.31C1094.59 1394.98 1115.39 1353.89 1116.24 1310.16L1140.4 1269.86C1144.01 1261.55 1145.47 1252.5 1144.63 1243.52 1139.13 1183.09 1101.44 1129.9 1045.34 1103.37 1040.82 1101.31 1035.51 1101.77 1031.44 1104.58L1021.86 1111.03 1011.27 1097.06C1008.01 1092.62 1003.1 1089.59 997.584 1088.59 987.713 1086.9 977.71 1086.03 967.686 1086 882.278 1086.01 808.961 1145.1 793.116 1226.71L792.737 1228.71C788.133 1252.66 778.599 1275.45 764.707 1295.72L812.953 1295.72 812.953 1307.29C812.953 1352 833.85 1394.3 869.753 1422.25L869.753 1444.89C869.753 1448.63 867.43 1452 863.874 1453.42L817.249 1472.03C789.558 1481.2 762.713 1492.64 737 1506.21L737 1549.59C760.472 1534.77 785.604 1522.59 811.91 1513.31L795.269 1585.59C793.552 1593.05 798.372 1600.44 806.038 1602.11 807.06 1602.34 808.104 1602.45 809.151 1602.45L843.667 1602.45 825.47 1636.56C822.261 1642.58 824.016 1649.98 829.614 1654.03L950.732 1741.47 950.732 1777.43C900.851 1777.09 851.03 1773.96 801.518 1768.07 798.979 1782.27 790.114 1794.65 777.3 1801.88 840.182 1810.99 903.693 1815.37 967.269 1814.98 1093.38 1814.98 1218.62 1799.69 1260.41 1769.2L1268 1763.67 1268 1601.98C1267.5 1574.92 1254.51 1549.51 1232.63 1532.78ZM1064.37 1496.52C1065.37 1495.71 1066.41 1494.92 1067.34 1494.08L1076.25 1497.64 1085.85 1501.47 1102.7 1574.79 1062.58 1574.79C1054.73 1574.77 1048.35 1580.95 1048.33 1588.59 1048.33 1590.81 1048.87 1592.99 1049.92 1594.96L1073.29 1638.85 993.136 1696.73ZM850.883 1307.29 850.883 1295.72 916.965 1295.72C1014.44 1295.72 1001.19 1220.18 1043.84 1209.37 1055.56 1207.25 1067.67 1208.76 1078.46 1213.7L1078.46 1307.29C1078.46 1368.39 1027.51 1417.93 964.67 1417.93 901.827 1417.93 850.883 1368.39 850.883 1307.29ZM964.67 1454.81C984.178 1454.81 1003.5 1451.12 1021.56 1443.96L1021.56 1444.88C1021.53 1458.63 1027.83 1471.66 1038.74 1480.41 1016 1492.24 990.481 1498.11 964.699 1497.46 938.896 1498.12 913.362 1492.23 890.613 1480.37 901.468 1471.62 907.728 1458.6 907.682 1444.89L907.682 1443.97C925.777 1451.14 945.131 1454.82 964.67 1454.81ZM856.335 1638.87 879.718 1594.98C883.332 1588.2 880.607 1579.85 873.632 1576.34 871.61 1575.32 869.366 1574.79 867.088 1574.79L826.949 1574.79 843.856 1501.28 853.025 1497.59 861.967 1494.03C863.068 1494.95 864.253 1495.93 865.429 1496.86L936.546 1696.72ZM964.831 1691.77 902.248 1515.67C943.001 1528.3 986.796 1528.25 1027.52 1515.53ZM1230.08 1744.39C1189.52 1765.88 1085.95 1776.88 979.216 1777.52L979.216 1741.27 1100 1654.05C1105.6 1650.01 1107.36 1642.61 1104.16 1636.59L1085.97 1602.48 1120.47 1602.48C1128.32 1602.46 1134.68 1596.26 1134.66 1588.62 1134.66 1587.6 1134.54 1586.59 1134.31 1585.59L1117.72 1513.47C1150.55 1524.69 1181.32 1540.92 1208.89 1561.56 1221.88 1571.38 1229.66 1586.35 1230.08 1602.34Z" fill="#75797C" fill-rule="evenodd"/><path d="M686 1357C694.837 1357 702 1350.06 702 1341.5 702 1332.94 694.837 1326 686 1326 677.163 1326 670 1332.94 670 1341.5 670 1350.06 677.163 1357 686 1357Z" fill="#0BB5DD" fill-rule="evenodd"/><path d="M697 1389.5C697 1398.06 704.387 1405 713.5 1405 722.613 1405 730 1398.06 730 1389.5 730 1380.94 722.613 1374 713.5 1374 704.387 1374 697 1380.94 697 1389.5Z" fill="#0BB5DD" fill-rule="evenodd"/><path d="M654 1394C662.837 1394 670 1387.06 670 1378.5 670 1369.94 662.837 1363 654 1363 645.163 1363 638 1369.94 638 1378.5 638 1387.06 645.163 1394 654 1394Z" fill="#0BB5DD" fill-rule="evenodd"/><path d="M642 1436C642 1447.6 651.85 1457 664 1457 676.151 1457 686 1447.6 686 1436 686 1424.4 676.151 1415 664 1415 651.85 1415 642 1424.4 642 1436Z" fill="#0BB5DD" fill-rule="evenodd"/><path d="M1197.16 1948.73 1134.64 1811.32 1134.64 1718.17C1134.86 1706.89 1140.92 1696.48 1150.74 1690.5 1155.88 1688.23 1158.15 1682.33 1155.82 1677.33 1155.71 1677.1 1155.6 1676.89 1155.48 1676.67 1153.75 1672.69 1149.43 1670.4 1145.06 1671.14L1037.08 1671.14C1031.17 1670.78 1026.09 1675.16 1025.73 1680.91 1025.72 1681.03 1025.71 1681.16 1025.71 1681.28 1025.38 1685.46 1027.61 1689.44 1031.39 1691.43 1041.52 1697.12 1047.69 1707.71 1047.5 1719.09L1047.5 1812.24 985.928 1948.73C978.604 1964.14 985.493 1982.41 1001.32 1989.54 1001.86 1989.78 1002.42 1990.01 1002.98 1990.23 1007.13 1992.12 1011.66 1993.06 1016.24 1993L1167.79 1993C1185.43 1993.14 1199.85 1979.33 1200 1962.16 1200 1961.99 1200 1961.81 1200 1961.64 1200.07 1957.18 1199.09 1952.77 1197.16 1948.73ZM1112.85 1718.17 1112.85 1739.38 1070.23 1739.38 1070.23 1718.17C1070.52 1708.72 1067.88 1699.4 1062.65 1691.43L1120.43 1691.43C1115.62 1699.57 1113.02 1708.78 1112.85 1718.17Z" fill="#1FC2A7" fill-rule="evenodd"/><path d="M1638.95 1735.23C1609.26 1710.71 1568.57 1689.61 1511.72 1669.1 1531.69 1666.99 1551.27 1662.25 1569.92 1655.02 1569.92 1655.02 1548.51 1642.55 1535.22 1591.52 1526.8 1559.47 1559.03 1479.32 1559.3 1422.9 1559.3 1377.76 1546.12 1357.55 1521.22 1343.84 1506.84 1335.91 1473.71 1343.21 1473.71 1343.21 1473.71 1343.21 1456.57 1311.65 1399.29 1294.29 1352.19 1281.81 1301.93 1288.06 1259.57 1311.65 1224.14 1333.92 1207.01 1358.41 1206.19 1442.64 1205.46 1519.85 1216.35 1588.41 1211.32 1620.73 1209 1638.62 1202 1655.64 1190.99 1670.15 1208.39 1671.57 1225.85 1671.94 1243.29 1671.26 1211.84 1682.34 1181.6 1696.43 1153 1713.31L1153 1758.16C1182.19 1737.34 1214.3 1720.69 1248.34 1708.73L1230.16 1787.78C1228.44 1795.23 1233.26 1802.62 1240.91 1804.29 1241.93 1804.51 1242.98 1804.62 1244.02 1804.62L1278.5 1804.62 1260.33 1838.72C1257.04 1844.88 1258.96 1852.45 1264.82 1856.42L1366.23 1925.24 1366.23 1979.5C1316.51 1979.13 1266.86 1975.72 1217.58 1969.28 1215.42 1983.19 1207.18 1995.52 1194.99 2003.1 1257.22 2012.78 1320.17 2017.42 1383.19 2016.97 1504.44 2016.97 1624.74 2001.71 1666.42 1971.31L1674 1965.78 1674 1804.17C1672.97 1777.38 1660.21 1752.29 1638.95 1735.23ZM1446.65 1797.16 1469.83 1840.7 1405.57 1884.28 1464.03 1692.63 1482.03 1701.55 1499.37 1777.01 1459.3 1777.01C1451.45 1777 1445.08 1783.18 1445.08 1790.82 1445.07 1793.02 1445.62 1795.2 1446.65 1797.16ZM1266.76 1509.68 1266.76 1463.08C1271.38 1462.81 1275.98 1462.27 1280.53 1461.47 1312.31 1457.4 1343.33 1448.91 1372.63 1436.26 1405.56 1420.16 1424.45 1412.25 1451.78 1388.18 1455.39 1384.73 1461.19 1384.78 1464.73 1388.29 1466.08 1389.62 1466.95 1391.33 1467.25 1393.17 1469.43 1407.81 1475.09 1440.05 1482.63 1452.91 1486.03 1459.24 1489.87 1465.33 1494.11 1471.15L1494.11 1509.68C1494.04 1570.72 1443.19 1620.18 1380.44 1620.25L1380.44 1620.25C1317.69 1620.19 1266.83 1570.72 1266.76 1509.68ZM1291.3 1840.71 1314.52 1797.16C1318.13 1790.38 1315.41 1782.04 1308.44 1778.53 1306.42 1777.51 1304.18 1776.98 1301.9 1776.98L1261.8 1776.98 1279.16 1701.52 1297.16 1692.6 1355.61 1884.25ZM1380.58 1869.08 1319.53 1668.83C1319.4 1668.48 1319.25 1668.14 1319.09 1667.81 1322.01 1661.71 1323.52 1655.06 1323.51 1648.34L1323.51 1646.26C1359.96 1660.74 1400.79 1660.74 1437.24 1646.26L1437.24 1648.31C1437.23 1655.21 1438.82 1662.03 1441.88 1668.26 1441.81 1668.45 1441.71 1668.62 1441.65 1668.8ZM1636.11 1946.52C1596.09 1967.93 1496.86 1978.9 1394.61 1979.54L1394.61 1925.44 1496.3 1856.46C1502.15 1852.49 1504.07 1844.92 1500.79 1838.76L1482.62 1804.67 1517.08 1804.67C1524.93 1804.68 1531.3 1798.5 1531.31 1790.87 1531.31 1789.83 1531.2 1788.81 1530.96 1787.8L1512.85 1709.03C1549.49 1721.65 1583.78 1739.99 1614.38 1763.32 1627.38 1773.38 1635.29 1788.39 1636.11 1804.53Z" fill="#75797C" fill-rule="evenodd"/><path d="M1118 1544C1118 1552.84 1110.84 1560 1102 1560 1093.16 1560 1086 1552.84 1086 1544 1086 1535.16 1093.16 1528 1102 1528 1110.84 1528 1118 1535.16 1118 1544Z" fill="#1FC2A7" fill-rule="evenodd"/><path d="M1113 1591.5C1113 1600.06 1120.39 1607 1129.5 1607 1138.61 1607 1146 1600.06 1146 1591.5 1146 1582.94 1138.61 1576 1129.5 1576 1120.39 1576 1113 1582.94 1113 1591.5Z" fill="#1FC2A7" fill-rule="evenodd"/><path d="M1070 1596C1078.84 1596 1086 1589.06 1086 1580.5 1086 1571.94 1078.84 1565 1070 1565 1061.16 1565 1054 1571.94 1054 1580.5 1054 1589.06 1061.16 1596 1070 1596Z" fill="#1FC2A7" fill-rule="evenodd"/><path d="M1058 1639C1058 1650.6 1067.85 1660 1080 1660 1092.15 1660 1102 1650.6 1102 1639 1102 1627.4 1092.15 1618 1080 1618 1067.85 1618 1058 1627.4 1058 1639Z" fill="#1FC2A7" fill-rule="evenodd"/><path d="M1283.38 657.181C1274.5 603.746 1320.22 554.536 1385.49 547.268 1411.94 544.323 1438.83 548.725 1461.86 559.772 1486.26 522.112 1543.29 507.8 1589.23 527.804 1597.26 531.302 1604.64 535.735 1611.12 540.966 1630.12 509.749 1676.42 497.066 1714.52 512.638 1725.07 516.948 1734.26 523.182 1741.41 530.859 1772.04 501.338 1826.18 497.691 1862.32 522.714 1877.51 533.232 1887.75 547.737 1891.28 563.745 1941.47 574.958 1971.08 617.429 1957.41 658.608 1956.26 662.07 1954.82 665.462 1953.1 668.76 1993.35 711.667 1983.5 773.167 1931.09 806.123 1914.77 816.381 1895.5 823.023 1875.14 825.407 1874.68 871.57 1828.57 908.691 1772.15 908.321 1753.29 908.197 1734.85 903.809 1718.86 895.641 1699.77 947.395 1633.2 976.647 1570.16 960.977 1543.74 954.41 1520.92 940.522 1505.58 921.682 1441.04 953.556 1357.27 936.41 1318.47 883.386 1317.98 882.718 1317.5 882.046 1317.03 881.369 1274.79 885.417 1236.53 860.739 1231.57 826.249 1228.93 807.865 1236.34 789.464 1251.83 775.95 1215.26 758.321 1202.97 719.626 1224.39 689.523 1236.75 672.156 1258.42 660.675 1282.74 658.611Z" stroke="#75797C" stroke-width="4.58333" stroke-miterlimit="8" fill="none" fill-rule="evenodd"/><path d="M1297.39 782.631C1281.77 783.632 1266.16 780.677 1252.65 774.163M1336.86 875.302C1330.58 877.349 1324 878.711 1317.29 879.355M1505.54 919.831C1500.81 914.031 1496.86 907.834 1493.74 901.344M1723.64 873.729C1722.95 880.609 1721.37 887.409 1718.93 894.015M1817.29 748.386C1852.69 762.494 1875.03 791.989 1874.71 824.202M1952.74 667.636C1947 678.606 1938.25 688.336 1927.17 696.066M1891.38 562.151C1892.36 566.581 1892.81 571.077 1892.73 575.578M1728.08 546.49C1731.41 540.296 1735.82 534.529 1741.18 529.367M1605.56 554.65C1606.91 549.531 1609.05 544.571 1611.9 539.883M1461.77 559.665C1470.1 563.662 1477.81 568.473 1484.73 573.992M1287.39 672.258C1285.57 667.328 1284.23 662.288 1283.38 657.185" stroke="#75797C" stroke-width="4.58333" stroke-miterlimit="8" fill="none" fill-rule="evenodd"/><path d="M1283.5 995C1283.5 962.691 1307.68 936.5 1337.5 936.5 1367.32 936.5 1391.5 962.691 1391.5 995 1391.5 1027.31 1367.32 1053.5 1337.5 1053.5 1307.68 1053.5 1283.5 1027.31 1283.5 995Z" stroke="#75797C" stroke-width="4.58333" stroke-miterlimit="8" fill="none" fill-rule="evenodd"/><path d="M1216.5 1099C1216.5 1073.87 1235.3 1053.5 1258.5 1053.5 1281.7 1053.5 1300.5 1073.87 1300.5 1099 1300.5 1124.13 1281.7 1144.5 1258.5 1144.5 1235.3 1144.5 1216.5 1124.13 1216.5 1099Z" stroke="#75797C" stroke-width="4.58333" stroke-miterlimit="8" fill="none" fill-rule="evenodd"/><path d="M1146.5 1160C1146.5 1142.05 1159.93 1127.5 1176.5 1127.5 1193.07 1127.5 1206.5 1142.05 1206.5 1160 1206.5 1177.95 1193.07 1192.5 1176.5 1192.5 1159.93 1192.5 1146.5 1177.95 1146.5 1160Z" stroke="#75797C" stroke-width="4.58333" stroke-miterlimit="8" fill="none" fill-rule="evenodd"/><path d="M1600.5 1038C1600.5 1005.69 1626.47 979.5 1658.5 979.5 1690.53 979.5 1716.5 1005.69 1716.5 1038 1716.5 1070.31 1690.53 1096.5 1658.5 1096.5 1626.47 1096.5 1600.5 1070.31 1600.5 1038Z" stroke="#75797C" stroke-width="4.58333" stroke-miterlimit="8" fill="none" fill-rule="evenodd"/><path d="M1564.5 1152C1564.5 1126.87 1584.87 1106.5 1610 1106.5 1635.13 1106.5 1655.5 1126.87 1655.5 1152 1655.5 1177.13 1635.13 1197.5 1610 1197.5 1584.87 1197.5 1564.5 1177.13 1564.5 1152Z" stroke="#75797C" stroke-width="4.58333" stroke-miterlimit="8" fill="none" fill-rule="evenodd"/><path d="M1517.5 1231C1517.5 1213.05 1532.05 1198.5 1550 1198.5 1567.95 1198.5 1582.5 1213.05 1582.5 1231 1582.5 1248.95 1567.95 1263.5 1550 1263.5 1532.05 1263.5 1517.5 1248.95 1517.5 1231Z" stroke="#75797C" stroke-width="4.58333" stroke-miterlimit="8" fill="none" fill-rule="evenodd"/><path d="M1474.5 1276C1474.5 1265.23 1483.23 1256.5 1494 1256.5 1504.77 1256.5 1513.5 1265.23 1513.5 1276 1513.5 1286.77 1504.77 1295.5 1494 1295.5 1483.23 1295.5 1474.5 1286.77 1474.5 1276Z" stroke="#75797C" stroke-width="4.58333" stroke-miterlimit="8" fill="none" fill-rule="evenodd"/><text fill="#1FC2A7" font-family="Amasis MT Pro Black,Amasis MT Pro Black_MSFontService,sans-serif" font-weight="900" font-size="303" transform="matrix(1 0 0 1 1509.61 844)">?</text></g></svg>