<svg width="1785" height="832" xmlns="http://www.w3.org/2000/svg" xmlns:xlink="http://www.w3.org/1999/xlink" xml:space="preserve" overflow="hidden"><defs><clipPath id="clip0"><rect x="1129" y="1288" width="1785" height="832"/></clipPath><clipPath id="clip1"><rect x="1136" y="1716" width="294" height="256"/></clipPath><clipPath id="clip2"><rect x="1136" y="1716" width="294" height="256"/></clipPath><clipPath id="clip3"><rect x="1136" y="1716" width="294" height="256"/></clipPath></defs><g clip-path="url(#clip0)" transform="translate(-1129 -1288)"><text fill="#3A3838" font-family="Arial,Arial_MSFontService,sans-serif" font-weight="400" font-size="55" transform="matrix(1 0 0 1 1162.94 1631)">workflows</text><rect x="1225.5" y="1486.5" width="34" height="60.0001" stroke="#41719C" stroke-width="6.875" stroke-linecap="round" stroke-linejoin="round" stroke-miterlimit="10" fill="#5B9BD5"/><rect x="1269.5" y="1471.5" width="33" height="74.9999" stroke="#41719C" stroke-width="6.875" stroke-linecap="round" stroke-linejoin="round" stroke-miterlimit="10" fill="#5B9BD5"/><rect x="1311.5" y="1455.5" width="33" height="91.0001" stroke="#41719C" stroke-width="6.875" stroke-linecap="round" stroke-linejoin="round" stroke-miterlimit="10" fill="#5B9BD5"/><path d="M1384.78 1562 1183.22 1562C1176.5 1562 1171 1557.21 1171 1551.36L1171 1423.64C1171 1417.79 1176.5 1413 1183.22 1413L1240.63 1413C1243.08 1413 1245.52 1413.53 1247.35 1414.86L1280.95 1434.29 1384.78 1434.29C1391.5 1434.29 1397 1439.08 1397 1444.93L1397 1551.36C1397 1557.21 1391.5 1562 1384.78 1562Z" stroke="#3A3838" stroke-width="6.08717" stroke-miterlimit="8" fill="none" fill-rule="evenodd"/><path d="M0 0 0.000360892 83.6491" stroke="#5B9BD5" stroke-width="13.75" stroke-linecap="round" stroke-linejoin="round" stroke-miterlimit="10" fill="none" fill-rule="evenodd" transform="matrix(1 0 0 -1 1281 1734.65)"/><g clip-path="url(#clip1)"><g clip-path="url(#clip2)"><g clip-path="url(#clip3)"><path d="M215.156 201.875 39.8438 201.875C34 201.875 29.2188 197.094 29.2188 191.25L29.2188 63.75C29.2188 57.9063 34 53.125 39.8438 53.125L89.7813 53.125C91.9063 53.125 94.0313 53.6563 95.625 54.9844L124.844 74.375 215.156 74.375C221 74.375 225.781 79.1563 225.781 85L225.781 191.25C225.781 197.094 221 201.875 215.156 201.875Z" stroke="#3A3838" stroke-width="5.3125" fill="none" transform="matrix(1.15294 0 0 1 1136 1716)"/></g></g></g><text fill="#3A3838" font-family="Arial,Arial_MSFontService,sans-serif" font-weight="400" font-size="55" transform="matrix(1 0 0 1 1229.16 1987)">runs</text><path d="M28.5 38.535C22.8801 38.535 18.4647 33.9857 18.4647 28.4999 18.4647 23.014 23.014 18.4647 28.5 18.4647 34.1197 18.4647 38.5351 23.014 38.5351 28.4999 38.5351 33.9857 33.9858 38.535 28.5 38.535ZM51.1125 22.2111C50.5773 20.3379 49.9084 18.5986 48.9717 16.9929L51.1125 10.7042 46.2956 5.88729 40.007 8.02812C38.4012 7.09158 36.6619 6.4225 34.7886 5.88729L31.845 0 25.1549 0 22.2112 5.88729C20.338 6.4225 18.5986 7.09158 16.993 8.02812L10.7042 5.88729 5.88731 10.7042 8.02815 16.9929C7.09146 18.5986 6.42252 20.3379 5.88731 22.2111L0 25.1548 0 31.8449 5.88731 34.7885C6.42252 36.6618 7.09146 38.4013 8.02815 40.0069L5.88731 46.2955 10.5705 50.9787 16.8591 48.8378C18.4647 49.7744 20.2041 50.4435 22.0775 50.9787L25.0211 56.866 31.7113 56.866 34.6549 50.9787C36.5281 50.4435 38.2675 49.7744 39.8731 48.8378L46.1619 50.9787 50.9788 46.2955 48.838 40.0069C49.7745 38.4013 50.5773 36.528 51.1125 34.7885L56.9998 31.8449 56.9998 25.1548 51.1125 22.2111Z" fill="#C21F3A" fill-rule="evenodd" transform="matrix(-0.944263 0.329193 0.329193 0.944263 1273.92 1803.33)"/><path d="M28.4999 38.535C22.8802 38.535 18.4647 33.9857 18.4647 28.4998 18.4647 22.8801 23.014 18.4647 28.4999 18.4647 34.1196 18.4647 38.535 23.014 38.535 28.4998 38.535 33.9857 34.1196 38.535 28.4999 38.535L28.4999 38.535ZM48.9716 16.9928 51.1124 10.7042 46.2955 5.88729 40.0069 8.02812C38.4013 7.09144 36.528 6.4225 34.7886 5.88729L31.8449 0 25.1548 0 22.2112 5.88729C20.3379 6.4225 18.5986 7.09144 16.9929 8.02812L10.7042 5.88729 6.02117 10.5703 8.02813 16.8591C7.09158 18.4647 6.4225 20.3379 5.88729 22.0774L0 25.0209 0 31.711 5.88729 34.6548C6.4225 36.5279 7.09158 38.2674 8.02813 39.873L6.02117 46.1618 10.7042 50.8448 16.9929 48.8378C18.5986 49.7744 20.3379 50.4433 22.2112 50.9787L25.1548 56.866 31.8449 56.866 34.7886 50.9787C36.6618 50.4433 38.4013 49.7744 40.0069 48.8378L46.2955 50.9787 50.9787 46.1618 48.9716 40.0069C49.9083 38.4011 50.5772 36.6618 51.1124 34.7885L56.9997 31.8449 56.9997 25.1548 51.1124 22.2111C50.5772 20.3379 49.9083 18.5984 48.9716 16.9928Z" fill="#C21F3A" fill-rule="evenodd" transform="matrix(-0.944263 0.329193 0.329193 0.944263 1318.5 1839.36)"/><path d="M0 0 0.000360892 83.6491" stroke="#5B9BD5" stroke-width="13.75" stroke-linecap="round" stroke-linejoin="round" stroke-miterlimit="10" fill="none" fill-rule="evenodd" transform="matrix(1 0 0 -1 1274 2112.65)"/><path d="M0 0 0.000360892 83.6491" stroke="#5B9BD5" stroke-width="13.75" stroke-linecap="round" stroke-linejoin="round" stroke-miterlimit="10" fill="none" fill-rule="evenodd" transform="matrix(1 0 0 -1 1278 1378.65)"/><text fill="#767171" font-family="Arial,Arial_MSFontService,sans-serif" font-weight="400" font-size="248" transform="matrix(1 0 0 1 1591.8 1757)">=<tspan fill="#3A3838" font-family="Calibri,Calibri_MSFontService,sans-serif" font-size="55" x="255.405" y="-246">&lt;study/assay&gt;</tspan><tspan fill="#3A3838" font-family="Calibri,Calibri_MSFontService,sans-serif" font-size="55" x="261.402" y="90">&lt;workflow1&gt;</tspan></text><rect x="1972.5" y="1739.5" width="17.0002" height="33" stroke="#41719C" stroke-width="6.875" stroke-linecap="round" stroke-linejoin="round" stroke-miterlimit="10" fill="#5B9BD5"/><rect x="1992.5" y="1731.5" width="17.0002" height="40.9999" stroke="#41719C" stroke-width="6.875" stroke-linecap="round" stroke-linejoin="round" stroke-miterlimit="10" fill="#5B9BD5"/><rect x="2014.5" y="1722.5" width="17.0002" height="49.9999" stroke="#41719C" stroke-width="6.875" stroke-linecap="round" stroke-linejoin="round" stroke-miterlimit="10" fill="#5B9BD5"/><text fill="#3A3838" font-family="Arial,Arial_MSFontService,sans-serif" font-weight="400" font-size="55" transform="matrix(1 0 0 1 2216.02 1731)">&lt;run1&gt;</text><path d="M18.5456 27.1C14.8887 27.1 12.0154 23.9007 12.0154 20.0427 12.0154 16.1847 14.9758 12.9854 18.5456 12.9854 22.2025 12.9854 25.0757 16.1847 25.0757 20.0427 25.0757 23.9007 22.1154 27.1 18.5456 27.1ZM33.2602 15.6201C32.9119 14.3028 32.4766 13.0795 31.8671 11.9504L33.2602 7.52777 30.1257 4.14027 26.0335 5.64582C24.9886 4.98719 23.8568 4.51666 22.6378 4.14027L20.7223 0 16.3689 0 14.4534 4.14027C13.2344 4.51666 12.1026 4.98719 11.0577 5.64582L6.96548 4.14027 3.83101 7.52777 5.22411 11.9504C4.61458 13.0795 4.17929 14.3028 3.83101 15.6201L0 17.6903 0 22.3951 3.83101 24.4652C4.17929 25.7826 4.61458 27.0059 5.22411 28.1351L3.83101 32.5576 6.87845 35.851 10.9706 34.3455C12.0154 35.0041 13.1473 35.4746 14.3663 35.851L16.2818 39.9913 20.6353 39.9913 22.5508 35.851C23.7697 35.4746 24.9016 35.0041 25.9464 34.3455L30.0387 35.851 33.1731 32.5576 31.78 28.1351C32.3895 27.0059 32.9119 25.6886 33.2602 24.4652L37.0912 22.3951 37.0912 17.6903 33.2602 15.6201Z" fill="#C00000" fill-rule="evenodd" transform="matrix(-0.944263 0.329193 0.329193 0.944263 2289.73 1578.43)"/><path d="M18.5458 27.1C14.8889 27.1 12.0155 23.9007 12.0155 20.0426 12.0155 16.0906 14.9759 12.9854 18.5458 12.9854 22.2027 12.9854 25.0759 16.1847 25.0759 20.0426 25.0759 23.9007 22.2027 27.1 18.5458 27.1L18.5458 27.1ZM31.8673 11.9503 33.2604 7.52777 30.1259 4.14027 26.0337 5.64582C24.9889 4.9871 23.7699 4.51666 22.638 4.14027L20.7224 0 16.369 0 14.4535 4.14027C13.2345 4.51666 12.1027 4.9871 11.0578 5.64582L6.96553 4.14027 3.91816 7.43362 5.22415 11.8562C4.61471 12.9854 4.17932 14.3028 3.83104 15.5261L0 17.5961 0 22.301 3.83104 24.3712C4.17932 25.6885 4.61471 26.9118 5.22415 28.0409L3.91816 32.4635 6.96553 35.7569 11.0578 34.3455C12.1027 35.0041 13.2345 35.4745 14.4535 35.851L16.369 39.9913 20.7224 39.9913 22.638 35.851C23.8569 35.4745 24.9889 35.0041 26.0337 34.3455L30.1259 35.851 33.1734 32.4635 31.8673 28.1351C32.4768 27.0058 32.9121 25.7826 33.2604 24.4652L37.0914 22.3951 37.0914 17.6903 33.2604 15.6201C32.9121 14.3028 32.4768 13.0794 31.8673 11.9503Z" fill="#C00000" fill-rule="evenodd" transform="matrix(-0.944263 0.329193 0.329193 0.944263 2319.58 1604.29)"/><text fill="#3A3838" font-family="Calibri,Calibri_MSFontService,sans-serif" font-weight="400" font-size="55" transform="matrix(1 0 0 1 2388.08 1625)">result files</text><path d="M2205.32 1647.76 2202.64 1650.05 2196.67 1654.22 2190.76 1645.77 2196.52 1641.74 2196.13 1642.05 2198.63 1639.92ZM2187.59 1660.06 2179.73 1664.49 2178.13 1665.21 2173.89 1655.81 2175.28 1655.18 2174.87 1655.39 2182.52 1651.08ZM2168.73 1669.45 2167.67 1669.92 2158.55 1673.04 2155.21 1663.28 2164.11 1660.24 2163.66 1660.42 2164.49 1660.05ZM2148.14 1675.87 2142.63 1677.19 2137.54 1677.9 2136.1 1667.69 2140.95 1667.01 2140.47 1667.1 2145.73 1665.84ZM2126.83 1679.12 2117.18 1679.57 2116.02 1679.52 2116.54 1669.22 2117.45 1669.26 2116.95 1669.26 2126.34 1668.82ZM2105.72 1678.99 2104.45 1678.93 2095.02 1677.54 2096.52 1667.34 2105.71 1668.69 2105.22 1668.64 2106.24 1668.69ZM2084.47 1675.24 2079.74 1674.07 2074.13 1672.06 2077.6 1662.35 2082.97 1664.27 2082.48 1664.12 2086.95 1665.23ZM2064.06 1668 2056.34 1664.26 2054.43 1663.09 2059.82 1654.29 2061.51 1655.33 2061.06 1655.08 2068.56 1658.71ZM2045.19 1657.39 2037.02 1651.09 2043.31 1642.92 2051.48 1649.21ZM2029 1643.77 2025.65 1640.56 2021.63 1635.86 2029.47 1629.16 2033.32 1633.66 2032.97 1633.29 2036.13 1636.32ZM2015.02 1627.31 2011.58 1622.38 2009.22 1618.2 2018.21 1613.14 2020.44 1617.1 2020.18 1616.68 2023.48 1621.4ZM2004.26 1608.62 2001.3 1601.97 2010.72 1597.77 2013.68 1604.43ZM2165.81 1645.12 2209.76 1637.2 2195.03 1679.35C2194.09 1682.04 2191.14 1683.45 2188.46 1682.52 2185.77 1681.58 2184.35 1678.63 2185.29 1675.95L2197.11 1642.14 2202.89 1648.91 2167.64 1655.27C2164.84 1655.77 2162.16 1653.91 2161.65 1651.11 2161.15 1648.3 2163.01 1645.62 2165.81 1645.12Z" fill="#7F7F7F"/><path d="M5.44408 10.0589 8.59744 121.064-1.7109 121.357-4.86426 10.3517ZM-21.397 39.1722-0.000678568-0.0238894 23.5863 37.8943C25.0904 40.3124 24.3496 43.492 21.9315 44.9961 19.5135 46.5003 16.3339 45.7594 14.8297 43.3413L-4.08838 12.9288 4.81574 12.6758-12.3454 44.1133C-13.7098 46.6129-16.8422 47.533-19.3418 46.1686-21.8413 44.8041-22.7615 41.6717-21.397 39.1722Z" fill="#7F7F7F" transform="matrix(-1 0 0 1 2006.44 1544)"/><text fill="#3A3838" font-family="Calibri,Calibri_MSFontService,sans-serif" font-weight="400" font-size="55" transform="matrix(1 0 0 1 2152.12 2065)">&lt;workflow2&gt;</text><rect x="2271.5" y="1958.5" width="16.9998" height="33" stroke="#41719C" stroke-width="6.875" stroke-linecap="round" stroke-linejoin="round" stroke-miterlimit="10" fill="#5B9BD5"/><rect x="2291.5" y="1949.5" width="17.0002" height="41.9999" stroke="#41719C" stroke-width="6.875" stroke-linecap="round" stroke-linejoin="round" stroke-miterlimit="10" fill="#5B9BD5"/><rect x="2313.5" y="1941.5" width="17.0002" height="49.9999" stroke="#41719C" stroke-width="6.875" stroke-linecap="round" stroke-linejoin="round" stroke-miterlimit="10" fill="#5B9BD5"/><path d="M5.41535 10.0742 8.59748 134.612-1.71165 134.875-4.89379 10.3376ZM-21.5087 39.111-0.000610063-0.0238901 23.4781 37.9615C24.9753 40.3838 24.2254 43.5613 21.803 45.0585 19.3807 46.5558 16.2032 45.8058 14.706 43.3835L-4.12526 12.917 4.77955 12.6895-12.4712 44.0779C-13.8428 46.5735-16.9778 47.4848-19.4734 46.1132-21.9691 44.7416-22.8803 41.6066-21.5087 39.111Z" fill="#7F7F7F" transform="matrix(-1 0 0 1 2305.44 1748)"/><path d="M2501.95 1864.51 2499.27 1866.8 2493.3 1870.97 2487.39 1862.52 2493.15 1858.49 2492.76 1858.79 2495.26 1856.66ZM2484.22 1876.8 2476.36 1881.24 2474.76 1881.96 2470.52 1872.56 2471.91 1871.93 2471.5 1872.14 2479.15 1867.82ZM2465.35 1886.19 2464.3 1886.67 2455.18 1889.78 2451.84 1880.03 2460.74 1876.99 2460.29 1877.17 2461.12 1876.79ZM2444.77 1892.61 2439.26 1893.93 2434.17 1894.65 2432.73 1884.44 2437.58 1883.76 2437.1 1883.85 2442.36 1882.59ZM2423.45 1895.87 2413.81 1896.32 2412.65 1896.26 2413.17 1885.96 2414.08 1886.01 2413.58 1886.01 2422.97 1885.57ZM2402.35 1895.74 2401.08 1895.67 2391.65 1894.29 2393.15 1884.09 2402.34 1885.44 2401.85 1885.39 2402.87 1885.44ZM2381.1 1891.98 2376.37 1890.81 2370.76 1888.81 2374.23 1879.1 2379.6 1881.02 2379.11 1880.87 2383.58 1881.97ZM2360.69 1884.74 2352.97 1881 2351.06 1879.83 2356.45 1871.04 2358.14 1872.08 2357.69 1871.83 2365.19 1875.46ZM2341.82 1874.13 2333.64 1867.84 2339.94 1859.67 2348.11 1865.96ZM2325.63 1860.51 2322.28 1857.3 2318.26 1852.6 2326.1 1845.9 2329.95 1850.41 2329.6 1850.03 2332.76 1853.07ZM2311.65 1844.06 2308.21 1839.13 2305.85 1834.95 2314.84 1829.88 2317.07 1833.85 2316.81 1833.43 2320.11 1838.15ZM2300.89 1825.37 2297.93 1818.72 2307.35 1814.52 2310.31 1821.17ZM2462.44 1861.86 2506.39 1853.94 2491.65 1896.1C2490.71 1898.78 2487.77 1900.2 2485.09 1899.26 2482.4 1898.32 2480.98 1895.38 2481.92 1892.69L2493.74 1858.88 2499.52 1865.66 2464.27 1872.01C2461.47 1872.52 2458.79 1870.65 2458.28 1867.85 2457.78 1865.05 2459.64 1862.37 2462.44 1861.86Z" fill="#7F7F7F"/><text fill="#3A3838" font-family="Calibri,Calibri_MSFontService,sans-serif" font-weight="400" font-size="55" transform="matrix(1 0 0 1 2523.51 1968)">&lt;run2&gt;</text><path d="M18.5456 27.1C14.8887 27.1 12.0154 23.9007 12.0154 20.0427 12.0154 16.1847 14.9758 12.9854 18.5456 12.9854 22.2025 12.9854 25.0757 16.1847 25.0757 20.0427 25.0757 23.9007 22.1154 27.1 18.5456 27.1ZM33.2602 15.6201C32.9119 14.3028 32.4766 13.0795 31.8671 11.9504L33.2602 7.52777 30.1257 4.14027 26.0335 5.64582C24.9886 4.98719 23.8568 4.51666 22.6378 4.14027L20.7223 0 16.3689 0 14.4534 4.14027C13.2344 4.51666 12.1026 4.98719 11.0577 5.64582L6.96548 4.14027 3.83101 7.52777 5.22411 11.9504C4.61458 13.0795 4.17929 14.3028 3.83101 15.6201L0 17.6903 0 22.3951 3.83101 24.4652C4.17929 25.7826 4.61458 27.0059 5.22411 28.1351L3.83101 32.5576 6.87845 35.851 10.9706 34.3455C12.0154 35.0041 13.1473 35.4746 14.3663 35.851L16.2818 39.9913 20.6353 39.9913 22.5508 35.851C23.7697 35.4746 24.9016 35.0041 25.9464 34.3455L30.0387 35.851 33.1731 32.5576 31.78 28.1351C32.3895 27.0059 32.9119 25.6886 33.2602 24.4652L37.0912 22.3951 37.0912 17.6903 33.2602 15.6201Z" fill="#C00000" fill-rule="evenodd" transform="matrix(-0.944263 0.329193 0.329193 0.944263 2590.05 1817.09)"/><path d="M18.5458 27.1C14.8889 27.1 12.0155 23.9007 12.0155 20.0426 12.0155 16.0906 14.9759 12.9854 18.5458 12.9854 22.2027 12.9854 25.0759 16.1847 25.0759 20.0426 25.0759 23.9007 22.2027 27.1 18.5458 27.1L18.5458 27.1ZM31.8673 11.9503 33.2604 7.52777 30.1259 4.14027 26.0337 5.64582C24.9889 4.9871 23.7699 4.51666 22.638 4.14027L20.7224 0 16.369 0 14.4535 4.14027C13.2345 4.51666 12.1027 4.9871 11.0578 5.64582L6.96553 4.14027 3.91816 7.43362 5.22415 11.8562C4.61471 12.9854 4.17932 14.3028 3.83104 15.5261L0 17.5961 0 22.301 3.83104 24.3712C4.17932 25.6885 4.61471 26.9118 5.22415 28.0409L3.91816 32.4635 6.96553 35.7569 11.0578 34.3455C12.1027 35.0041 13.2345 35.4745 14.4535 35.851L16.369 39.9913 20.7224 39.9913 22.638 35.851C23.8569 35.4745 24.9889 35.0041 26.0337 34.3455L30.1259 35.851 33.1734 32.4635 31.8673 28.1351C32.4768 27.0058 32.9121 25.7826 33.2604 24.4652L37.0914 22.3951 37.0914 17.6903 33.2604 15.6201C32.9121 14.3028 32.4768 13.0794 31.8673 11.9503Z" fill="#C00000" fill-rule="evenodd" transform="matrix(-0.944263 0.329193 0.329193 0.944263 2619.91 1842.95)"/><text fill="#3A3838" font-family="Calibri,Calibri_MSFontService,sans-serif" font-weight="400" font-size="55" transform="matrix(1 0 0 1 2648.06 1875)">result files</text><path d="M2656.2 1771.97 2656.94 1769.75 2655.26 1768.06 2653.06 1768.81C2652.49 1768.49 2651.88 1768.24 2651.24 1768.06L2650.21 1766 2647.87 1766 2646.83 1768.07C2646.2 1768.25 2645.58 1768.5 2645.01 1768.82L2642.81 1768.07 2641.13 1769.76 2641.83 1771.98C2641.49 1772.55 2641.24 1773.16 2641.06 1773.8L2639 1774.84 2639 1777.16 2641.06 1778.21C2641.23 1778.84 2641.48 1779.46 2641.8 1780.03L2641.06 1782.25 2642.81 1783.94 2645.01 1783.18C2645.58 1783.51 2646.19 1783.76 2646.83 1783.94L2647.86 1786 2650.2 1786 2651.24 1783.97C2651.86 1783.8 2652.46 1783.55 2653.03 1783.24L2655.22 1784 2656.9 1782.3 2656.15 1780.1C2656.49 1779.52 2656.75 1778.9 2656.95 1778.26L2659 1777.22 2659 1774.84 2656.94 1773.79C2656.77 1773.16 2656.52 1772.54 2656.2 1771.97ZM2649.03 1779.55C2647.11 1779.55 2645.54 1777.98 2645.54 1776.04 2645.54 1774.09 2647.11 1772.52 2649.03 1772.52 2650.95 1772.55 2652.5 1774.11 2652.53 1776.04 2652.53 1777.98 2650.96 1779.55 2649.03 1779.55Z" fill="#A5A5A5" fill-rule="evenodd"/><path d="M2656.6 1803 2641.4 1803C2640 1803.08 2638.92 1804.27 2639 1805.65 2639.08 1806.91 2640.11 1807.93 2641.4 1808L2656.6 1808C2658 1807.92 2659.08 1806.73 2659 1805.35 2658.92 1804.09 2657.89 1803.07 2656.6 1803Z" fill="#A5A5A5" fill-rule="evenodd"/><path d="M2649 1816C2651.62 1816 2653.79 1813.82 2654 1811L2644 1811C2644.21 1813.82 2646.39 1816 2649 1816Z" fill="#A5A5A5" fill-rule="evenodd"/><path d="M2671 1776.67 2671 1775.94C2670.78 1764.37 2661.01 1755.07 2649 1755L2649 1755C2636.99 1755.07 2627.22 1764.37 2627 1775.94L2627 1776.67C2627.08 1779.18 2627.6 1781.67 2628.53 1784.01 2629.42 1786.22 2630.72 1788.27 2632.35 1790.04 2634.37 1792.15 2636.57 1796.27 2637.5 1798.1 2637.78 1798.65 2638.37 1799 2639.01 1799L2658.99 1799C2659.63 1799 2660.22 1798.65 2660.5 1798.1 2661.43 1796.27 2663.63 1792.16 2665.65 1790.04 2667.28 1788.27 2668.58 1786.22 2669.47 1784.01 2670.4 1781.67 2670.92 1779.18 2671 1776.67ZM2665.93 1776.6C2665.87 1778.55 2665.47 1780.47 2664.76 1782.3 2664.09 1783.94 2663.13 1785.46 2661.91 1786.78 2659.96 1789.02 2658.28 1791.47 2656.92 1794.09L2641.08 1794.09C2639.73 1791.47 2638.07 1789 2636.13 1786.75 2634.92 1785.43 2633.95 1783.92 2633.28 1782.27 2632.56 1780.45 2632.15 1778.52 2632.07 1776.57L2632.07 1775.96C2632.23 1767.05 2639.73 1759.9 2648.97 1759.84L2648.97 1759.84C2658.21 1759.9 2665.72 1767.05 2665.88 1775.96Z" fill="#A5A5A5" fill-rule="evenodd"/><path d="M2649 1751C2650.1 1751 2651 1750.27 2651 1749.36L2651 1743.64C2651 1742.73 2650.1 1742 2649 1742 2647.9 1742 2647 1742.73 2647 1743.64L2647 1749.36C2647 1750.27 2647.9 1751 2649 1751Z" fill="#A5A5A5" fill-rule="evenodd"/><path d="M2628.32 1758.54C2628.93 1759.15 2629.93 1759.15 2630.54 1758.54 2631.15 1757.93 2631.15 1756.94 2630.54 1756.32L2626.64 1752.41C2625.99 1751.82 2624.99 1751.87 2624.41 1752.52 2623.86 1753.12 2623.86 1754.04 2624.41 1754.64Z" fill="#A5A5A5" fill-rule="evenodd"/><path d="M2668.63 1760C2669.05 1760 2669.46 1759.8 2669.76 1759.46L2673.7 1754.89C2674.21 1754.07 2674.05 1752.93 2673.34 1752.34 2672.77 1751.88 2672.01 1751.89 2671.45 1752.36L2667.46 1756.93C2666.85 1757.64 2666.85 1758.79 2667.46 1759.51 2667.78 1759.84 2668.2 1760.02 2668.63 1760Z" fill="#A5A5A5" fill-rule="evenodd"/><path d="M2622.18 1774 2615.82 1774C2614.81 1774 2614 1774.9 2614 1776 2614 1777.1 2614.81 1778 2615.82 1778L2622.18 1778C2623.19 1778 2624 1777.1 2624 1776 2624 1774.9 2623.19 1774 2622.18 1774Z" fill="#A5A5A5" fill-rule="evenodd"/><path d="M2628.42 1792.43 2624.55 1796.87C2623.89 1797.51 2623.81 1798.63 2624.38 1799.38 2624.94 1800.12 2625.93 1800.21 2626.58 1799.57 2626.64 1799.51 2626.7 1799.45 2626.75 1799.38L2630.62 1794.93C2631.19 1794.19 2631.11 1793.07 2630.45 1792.43 2629.87 1791.86 2629 1791.86 2628.42 1792.43Z" fill="#A5A5A5" fill-rule="evenodd"/><path d="M2670.03 1792.57C2669.39 1791.86 2668.29 1791.8 2667.57 1792.45 2666.86 1793.09 2666.8 1794.19 2667.45 1794.9 2667.49 1794.95 2667.53 1794.99 2667.57 1795.03L2671.92 1799.37C2672.54 1800.11 2673.63 1800.21 2674.37 1799.6 2675.11 1798.98 2675.21 1797.89 2674.6 1797.15 2674.51 1797.05 2674.42 1796.96 2674.32 1796.88Z" fill="#A5A5A5" fill-rule="evenodd"/><path d="M2681.36 1774 2675.64 1774C2674.73 1774 2674 1774.67 2674 1775.5 2674 1776.33 2674.73 1777 2675.64 1777L2681.36 1777C2682.27 1777 2683 1776.33 2683 1775.5 2683 1774.67 2682.27 1774 2681.36 1774Z" fill="#A5A5A5" fill-rule="evenodd"/><path d="M1999.5 1397.5C2011.27 1397.5 2020.5 1392.01 2020.5 1385 2020.5 1377.99 2011.27 1372.5 1999.5 1372.5 1987.73 1372.5 1978.5 1377.99 1978.5 1385 1978.5 1392.01 1987.73 1397.5 1999.5 1397.5ZM1999.5 1377.5C2008.96 1377.5 2015.56 1381.45 2015.56 1385 2015.56 1388.55 2008.96 1392.5 1999.5 1392.5 1990.04 1392.5 1983.44 1388.55 1983.44 1385 1983.44 1381.45 1990.04 1377.5 1999.5 1377.5Z" stroke="#FFC000" stroke-width="4.58333" stroke-miterlimit="8" fill="#FFFFFF" fill-rule="evenodd"/><path d="M2010.5 1384.5C2010.5 1387.26 2005.58 1389.5 1999.5 1389.5 1993.43 1389.5 1988.5 1387.26 1988.5 1384.5 1988.5 1381.74 1993.43 1379.5 1999.5 1379.5 2005.58 1379.5 2010.5 1381.74 2010.5 1384.5Z" stroke="#FFC000" stroke-width="4.58333" stroke-miterlimit="8" fill="#FFFFFF" fill-rule="evenodd"/><path d="M2074.17 1388.31C2060.61 1382.13 2046.58 1382.22 2032.4 1388.5 2032.68 1387.3 2032.82 1386.08 2032.83 1384.84 2032.83 1372.32 2018.26 1362.5 1999.66 1362.5 1981.07 1362.5 1966.5 1372.32 1966.5 1384.84L1966.5 1410.53C1966.5 1423.97 1981.69 1434.5 2001.09 1434.5 2012.76 1434.5 2024.87 1428.03 2031.37 1424.56 2044.96 1417.3 2058.34 1416.58 2071.15 1422.41L2079.5 1426.21 2079.5 1390.73ZM2038.97 1393.86C2040.58 1393.29 2042.22 1392.8 2043.88 1392.4L2043.88 1408.43 2038.97 1408.43ZM1977.55 1402.22 1978.6 1402.22C1979.85 1402.91 1981.14 1403.52 1982.47 1404.05L1982.47 1410.91 1977.55 1410.91ZM2002.12 1407.13C2003.8 1407.04 2005.44 1406.88 2007.03 1406.65L2007.03 1414.64 2002.12 1414.64ZM2014.4 1404.94C2016.08 1404.39 2017.72 1403.73 2019.32 1402.95L2019.32 1418.36 2014.4 1418.36ZM2026.68 1399.53C2028.45 1398.74 2030.04 1397.96 2031.37 1397.24 2031.45 1397.21 2031.52 1397.17 2031.6 1397.13L2031.6 1405.95 2026.68 1405.95ZM1994.75 1420.84 1989.84 1420.84 1989.84 1406.23C1991.46 1406.55 1993.1 1406.8 1994.75 1406.95ZM2051.25 1399.74 2051.25 1391.29C2052.89 1391.19 2054.53 1391.19 2056.16 1391.29L2056.16 1399.74ZM1999.66 1369.95C2013.64 1369.95 2025.46 1376.78 2025.46 1384.84 2025.46 1392.91 2013.64 1399.74 1999.66 1399.74 1985.68 1399.74 1973.87 1392.92 1973.87 1384.84 1973.87 1376.77 1985.68 1369.95 1999.66 1369.95ZM2072.13 1414.73C2069.64 1413.72 2067.08 1412.9 2064.46 1412.29 2063.12 1409.3 2062.38 1406.07 2062.3 1402.79 2062.35 1399.28 2063.37 1395.86 2065.25 1392.91 2067.26 1393.5 2069.23 1394.23 2071.15 1395.1L2072.13 1395.54Z" stroke="#FFC000" stroke-width="4.58333" stroke-miterlimit="8" fill="#FFFFFF" fill-rule="evenodd"/><path d="M2352.2 1538.97 2352.94 1536.75 2351.26 1535.07 2349.06 1535.81C2348.49 1535.49 2347.88 1535.24 2347.24 1535.07L2346.21 1533 2343.87 1533 2342.83 1535.07C2342.2 1535.25 2341.58 1535.5 2341.01 1535.82L2338.81 1535.07 2337.13 1536.76 2337.83 1538.98C2337.49 1539.55 2337.24 1540.16 2337.06 1540.8L2335 1541.84 2335 1544.16 2337.06 1545.21C2337.23 1545.84 2337.48 1546.46 2337.8 1547.03L2337.06 1549.25 2338.81 1550.94 2341.01 1550.18C2341.58 1550.51 2342.19 1550.76 2342.83 1550.94L2343.86 1553 2346.2 1553 2347.24 1550.97C2347.86 1550.8 2348.46 1550.55 2349.03 1550.24L2351.22 1551 2352.9 1549.3 2352.15 1547.1C2352.49 1546.52 2352.75 1545.9 2352.95 1545.26L2355 1544.22 2355 1541.84 2352.94 1540.79C2352.77 1540.16 2352.52 1539.54 2352.2 1538.97ZM2345.03 1546.55C2343.11 1546.55 2341.54 1544.98 2341.54 1543.04 2341.54 1541.09 2343.11 1539.52 2345.03 1539.52 2346.95 1539.55 2348.5 1541.11 2348.53 1543.04 2348.53 1544.98 2346.96 1546.55 2345.03 1546.55Z" fill="#A5A5A5" fill-rule="evenodd"/><path d="M2352.6 1570 2337.4 1570C2336 1570.08 2334.92 1571.27 2335 1572.65 2335.08 1573.91 2336.11 1574.93 2337.4 1575L2352.6 1575C2354 1574.92 2355.08 1573.73 2355 1572.35 2354.92 1571.09 2353.89 1570.07 2352.6 1570Z" fill="#A5A5A5" fill-rule="evenodd"/><path d="M2344.5 1583C2347.38 1583 2349.77 1580.82 2350 1578L2339 1578C2339.23 1580.82 2341.63 1583 2344.5 1583Z" fill="#A5A5A5" fill-rule="evenodd"/><path d="M2366 1543.67 2366 1542.94C2365.78 1531.37 2356.24 1522.07 2344.5 1522L2344.5 1522C2332.76 1522.07 2323.22 1531.37 2323 1542.94L2323 1543.67C2323.08 1546.18 2323.58 1548.67 2324.5 1551.01 2325.37 1553.22 2326.63 1555.27 2328.23 1557.04 2330.2 1559.15 2332.35 1563.27 2333.26 1565.1 2333.54 1565.65 2334.11 1566 2334.74 1566L2354.26 1566C2354.89 1566 2355.46 1565.65 2355.74 1565.1 2356.65 1563.27 2358.8 1559.16 2360.77 1557.04 2362.37 1555.27 2363.63 1553.22 2364.5 1551.01 2365.42 1548.67 2365.92 1546.18 2366 1543.67ZM2361.05 1543.6C2360.99 1545.55 2360.6 1547.47 2359.9 1549.3 2359.25 1550.94 2358.31 1552.46 2357.12 1553.78 2355.21 1556.02 2353.57 1558.47 2352.24 1561.09L2336.76 1561.09C2335.44 1558.47 2333.82 1556 2331.93 1553.75 2330.74 1552.43 2329.79 1550.92 2329.14 1549.27 2328.43 1547.45 2328.03 1545.52 2327.95 1543.57L2327.95 1542.96C2328.11 1534.05 2335.44 1526.9 2344.47 1526.84L2344.47 1526.84C2353.51 1526.9 2360.84 1534.05 2360.99 1542.96Z" fill="#A5A5A5" fill-rule="evenodd"/><path d="M2345 1518C2346.1 1518 2347 1517.27 2347 1516.36L2347 1510.64C2347 1509.73 2346.1 1509 2345 1509 2343.9 1509 2343 1509.73 2343 1510.64L2343 1516.36C2343 1517.27 2343.9 1518 2345 1518Z" fill="#A5A5A5" fill-rule="evenodd"/><path d="M2324.32 1525.54C2324.93 1526.15 2325.93 1526.15 2326.54 1525.54 2327.15 1524.93 2327.15 1523.94 2326.54 1523.32L2322.64 1519.41C2321.99 1518.82 2320.99 1518.87 2320.41 1519.52 2319.86 1520.12 2319.86 1521.04 2320.41 1521.64Z" fill="#A5A5A5" fill-rule="evenodd"/><path d="M2363.86 1527C2364.35 1527 2364.81 1526.8 2365.16 1526.46L2369.66 1521.89C2370.25 1521.07 2370.06 1519.93 2369.24 1519.34 2368.6 1518.88 2367.72 1518.89 2367.09 1519.36L2362.53 1523.93C2361.82 1524.64 2361.82 1525.79 2362.53 1526.5 2362.89 1526.84 2363.37 1527.02 2363.86 1527Z" fill="#A5A5A5" fill-rule="evenodd"/><path d="M2318.18 1541 2311.82 1541C2310.81 1541 2310 1541.9 2310 1543 2310 1544.1 2310.81 1545 2311.82 1545L2318.18 1545C2319.19 1545 2320 1544.1 2320 1543 2320 1541.9 2319.19 1541 2318.18 1541Z" fill="#A5A5A5" fill-rule="evenodd"/><path d="M2324.05 1559.43 2319.62 1563.87C2318.88 1564.51 2318.79 1565.63 2319.43 1566.38 2320.07 1567.12 2321.2 1567.21 2321.95 1566.57 2322.02 1566.51 2322.09 1566.45 2322.15 1566.38L2326.57 1561.93C2327.21 1561.19 2327.12 1560.07 2326.38 1559.43 2325.71 1558.86 2324.72 1558.86 2324.05 1559.43Z" fill="#A5A5A5" fill-rule="evenodd"/><path d="M2365.03 1559.57C2364.39 1558.86 2363.29 1558.8 2362.57 1559.45 2361.86 1560.09 2361.8 1561.19 2362.45 1561.9 2362.49 1561.95 2362.53 1561.99 2362.57 1562.03L2366.92 1566.37C2367.54 1567.11 2368.64 1567.21 2369.37 1566.6 2370.11 1565.98 2370.21 1564.89 2369.6 1564.15 2369.51 1564.05 2369.42 1563.96 2369.32 1563.88Z" fill="#A5A5A5" fill-rule="evenodd"/><path d="M2377.36 1541 2371.64 1541C2370.73 1541 2370 1541.67 2370 1542.5 2370 1543.33 2370.73 1544 2371.64 1544L2377.36 1544C2378.27 1544 2379 1543.33 2379 1542.5 2379 1541.67 2378.27 1541 2377.36 1541Z" fill="#A5A5A5" fill-rule="evenodd"/><path d="M1928.43 1439.1C1925.84 1434.83 1925.82 1425.37 1928.59 1419.71 1931.36 1414.05 1936.51 1406.09 1950.83 1405.89 1955.8 1405.82 1963.1 1404.73 1967.78 1403.67 1972.46 1402.6 1976.85 1399.43 1978.92 1399.5 1980.99 1399.57 1980.55 1401.39 1980.21 1404.08 1979.88 1406.76 1978.36 1412.19 1976.91 1415.63 1975.46 1419.07 1971.47 1429.07 1968.46 1433.63 1965.44 1438.2 1962.88 1441.08 1958.83 1443.03 1954.77 1444.97 1949.18 1445.95 1944.11 1445.3 1939.05 1444.64 1931.02 1443.36 1928.43 1439.1Z" stroke="#B4CE82" stroke-width="6.875" stroke-miterlimit="8" fill="#FFFFFF" fill-rule="evenodd"/><path d="M1921.5 1451.5C1923.91 1441.72 1926.31 1431.94 1947.5 1425.5" stroke="#B4CE82" stroke-width="6.875" stroke-miterlimit="8" fill="#FFFFFF" fill-rule="evenodd"/></g></svg>