<svg width="1551" height="1235" xmlns="http://www.w3.org/2000/svg" xmlns:xlink="http://www.w3.org/1999/xlink" xml:space="preserve" overflow="hidden"><defs><clipPath id="clip0"><rect x="1525" y="615" width="1551" height="1235"/></clipPath><clipPath id="clip1"><rect x="1916" y="654" width="157" height="146"/></clipPath><clipPath id="clip2"><rect x="1916" y="654" width="157" height="146"/></clipPath><clipPath id="clip3"><rect x="1916" y="654" width="157" height="146"/></clipPath></defs><g clip-path="url(#clip0)" transform="translate(-1525 -615)"><path d="M1733 1278C1733 962.093 1989.09 706 2305 706 2620.91 706 2877 962.093 2877 1278 2877 1593.91 2620.91 1850 2305 1850 1989.09 1850 1733 1593.91 1733 1278Z" fill="#1FC2A7" fill-rule="evenodd" fill-opacity="0.501961"/><path d="M1791 823.5C1791 708.349 1884.35 615 1999.5 615 2114.65 615 2208 708.349 2208 823.5 2208 938.651 2114.65 1032 1999.5 1032 1884.35 1032 1791 938.651 1791 823.5Z" fill="#CAF3FC" fill-rule="evenodd"/><path d="M1944.76 811.354C1941.25 808.453 1939.54 806.053 1930.92 813.154 1922.29 820.255 1903.64 838.559 1893.01 853.962 1882.38 869.365 1871.65 892.87 1867.13 905.572 1862.62 918.275 1862.42 922.975 1865.93 930.177 1869.44 937.378 1875.16 940.879 1888.19 948.781 1901.23 956.682 1944.16 977.586 1944.16 977.586 1960.6 985.888 1974.04 996.19 1986.88 998.59 1999.72 1000.99 2005.43 998.591 2021.18 991.989 2036.93 985.388 2064.2 968.685 2081.35 958.983 2098.5 949.281 2115.96 941.779 2124.08 933.778 2132.2 925.776 2132.7 920.175 2130.1 910.973 2127.49 901.772 2125.38 892.97 2115.65 878.567 2105.93 864.164 2083.16 835.859 2071.73 824.556 2060.29 813.254 2053.98 807.053 2047.06 810.754 2040.14 814.454 2037.63 831.458 2030.21 846.761 2022.78 862.064 2008.94 892.37 2002.53 902.572 1996.11 912.774 1997.01 912.774 1991.69 907.973 1986.38 903.172 1977.85 887.769 1970.63 873.766 1963.41 859.763 1955.69 841.159 1951.98 830.557 1948.27 819.955 1948.27 814.254 1944.76 811.354Z" stroke="#0684A2" stroke-width="4.58333" stroke-miterlimit="8" fill="#0BB5DD" fill-rule="evenodd"/><path d="M1922.5 725C1922.5 684.959 1954.96 652.5 1995 652.5 2035.04 652.5 2067.5 684.959 2067.5 725 2067.5 765.041 2035.04 797.5 1995 797.5 1954.96 797.5 1922.5 765.041 1922.5 725Z" stroke="#0684A2" stroke-width="4.58333" stroke-miterlimit="8" fill="#0BB5DD" fill-rule="evenodd"/><g clip-path="url(#clip1)"><g clip-path="url(#clip2)"><g clip-path="url(#clip3)"><path d="M138.052 53.3177C134.729 52.1094 120.229 47.5781 108.75 47.5781 99.2344 47.5781 77.4844 52.4115 72.5 53.4688 67.5157 52.4115 45.7656 47.5781 36.25 47.5781 24.9219 47.5781 10.4219 52.1094 6.94792 53.3177 6.49479 53.4688 6.04167 53.9219 6.04167 54.5261L6.04167 60.7188C6.04167 61.7761 6.34375 62.9844 7.25 63.5886L9.0625 65.099C9.21355 71.1407 9.96875 80.2032 12.6875 84.5834 16.1615 90.625 26.8854 97.4219 37.7604 97.4219 56.9427 97.4219 66.0052 82.9219 69.3282 69.6302 69.6302 68.2709 70.9896 67.2136 72.5 67.2136 74.0105 67.2136 75.2188 68.2709 75.6719 69.6302 79.1459 82.9219 88.2084 97.4219 107.24 97.4219 118.115 97.4219 128.839 90.625 132.313 84.5834 134.88 80.0521 135.635 71.1407 135.938 65.099L137.75 63.7396C138.656 63.1354 138.958 61.7761 138.958 60.8698L138.958 54.6771C138.807 53.9219 138.505 53.4688 138.052 53.3177ZM60.2657 68.4219C57.6979 77.4844 53.9219 89.8698 37.7604 89.8698 30.8125 89.8698 23.2604 86.5469 20.0886 81.7136 17.974 78.3907 18.125 70.3854 18.125 63.4375 18.125 61.3229 19.4844 59.5104 21.599 58.9063 26.1302 57.6979 31.5677 56.6407 36.25 56.6407 39.875 56.6407 47.125 57.6979 54.224 59.0573 58.6042 59.8125 61.474 64.1927 60.2657 68.4219ZM124.912 81.7136C121.74 86.5469 114.188 89.8698 107.24 89.8698 91.2292 89.8698 87.3021 77.4844 84.7344 68.4219 83.5261 64.1927 86.3959 59.8125 90.625 59.0573 97.724 57.6979 104.974 56.6407 108.599 56.6407 113.432 56.6407 118.719 57.6979 123.25 58.9063 125.365 59.5104 126.724 61.3229 126.724 63.4375 126.875 70.3854 127.026 78.3907 124.912 81.7136Z" stroke="#0888A6" stroke-width="1.51042" fill="#FFFFFF" transform="matrix(1.07586 0 0 1 1916 655)"/></g></g></g><path d="M2003.85 825.984 2009.01 808.984 1978.01 808.984 1983.18 825.984Z" stroke="#0684A2" stroke-width="4.58333" stroke-miterlimit="8" fill="#0BB5DD" fill-rule="evenodd"/><path d="M2008.5 901.1 2003.5 831.5 1983.5 831.5 1978.5 901.1 1993.5 915.5 2008.5 901.1Z" stroke="#0684A2" stroke-width="4.58333" stroke-miterlimit="8" fill="#0BB5DD" fill-rule="evenodd"/><path d="M2055 873 2055 909.665" stroke="#0888A6" stroke-width="13.75" stroke-linecap="round" stroke-miterlimit="8" fill="none" fill-rule="evenodd"/><path d="M2066 878 2066 914.664" stroke="#0888A6" stroke-width="13.75" stroke-linecap="round" stroke-miterlimit="8" fill="none" fill-rule="evenodd"/><path d="M2067.19 923.5 2059.81 923.5C2049.14 923.5 2040.5 914.588 2040.5 903.595L2040.5 887.5 2086.5 887.5 2086.5 903.595C2086.5 914.588 2077.86 923.5 2067.19 923.5Z" stroke="#0684A2" stroke-width="4.58333" stroke-miterlimit="8" fill="#0BB5DD" fill-rule="evenodd"/><path d="M1837.5 1409.48C1837.5 1368.62 1870.62 1335.5 1911.47 1335.5L2999.53 1335.5C3040.38 1335.5 3073.5 1368.62 3073.5 1409.48L3073.5 1483.52C3073.5 1524.38 3040.38 1557.5 2999.53 1557.5L1911.47 1557.5C1870.62 1557.5 1837.5 1524.38 1837.5 1483.52Z" stroke="#0684A2" stroke-width="4.58333" stroke-miterlimit="8" fill="#0BB5DD" fill-rule="evenodd"/><path d="M1933.5 1448.5C1933.5 1412.6 1962.6 1383.5 1998.5 1383.5 2034.4 1383.5 2063.5 1412.6 2063.5 1448.5 2063.5 1484.4 2034.4 1513.5 1998.5 1513.5 1962.6 1513.5 1933.5 1484.4 1933.5 1448.5Z" stroke="#0684A2" stroke-width="4.58333" stroke-miterlimit="8" fill="#FFFFFF" fill-rule="evenodd"/><path d="M2163.5 1448.5C2163.5 1412.6 2192.6 1383.5 2228.5 1383.5 2264.4 1383.5 2293.5 1412.6 2293.5 1448.5 2293.5 1484.4 2264.4 1513.5 2228.5 1513.5 2192.6 1513.5 2163.5 1484.4 2163.5 1448.5Z" stroke="#0684A2" stroke-width="4.58333" stroke-miterlimit="8" fill="#FFFFFF" fill-rule="evenodd"/><path d="M2392.5 1448.5C2392.5 1412.6 2421.6 1383.5 2457.5 1383.5 2493.4 1383.5 2522.5 1412.6 2522.5 1448.5 2522.5 1484.4 2493.4 1513.5 2457.5 1513.5 2421.6 1513.5 2392.5 1484.4 2392.5 1448.5Z" stroke="#0684A2" stroke-width="4.58333" stroke-miterlimit="8" fill="#FFFFFF" fill-rule="evenodd"/><path d="M2622.5 1448.5C2622.5 1412.6 2651.6 1383.5 2687.5 1383.5 2723.4 1383.5 2752.5 1412.6 2752.5 1448.5 2752.5 1484.4 2723.4 1513.5 2687.5 1513.5 2651.6 1513.5 2622.5 1484.4 2622.5 1448.5Z" stroke="#0684A2" stroke-width="4.58333" stroke-miterlimit="8" fill="#FFFFFF" fill-rule="evenodd"/><rect x="1960.5" y="1557.5" width="76" height="156" stroke="#0684A2" stroke-width="4.58333" stroke-miterlimit="8" fill="#0BB5DD"/><path d="M2855.5 1448.5C2855.5 1412.6 2884.6 1383.5 2920.5 1383.5 2956.4 1383.5 2985.5 1412.6 2985.5 1448.5 2985.5 1484.4 2956.4 1513.5 2920.5 1513.5 2884.6 1513.5 2855.5 1484.4 2855.5 1448.5Z" stroke="#0684A2" stroke-width="4.58333" stroke-miterlimit="8" fill="#FFFFFF" fill-rule="evenodd"/><rect x="2855.5" y="1557.5" width="76" height="156" stroke="#0684A2" stroke-width="4.58333" stroke-miterlimit="8" fill="#0BB5DD"/><rect x="2787.5" y="1212.5" width="37.0002" height="76" stroke="#0684A2" stroke-width="6.875" stroke-miterlimit="8" fill="#0BB5DD"/><rect x="2832.5" y="1192.5" width="37.0002" height="95.9999" stroke="#0684A2" stroke-width="6.875" stroke-miterlimit="8" fill="#0BB5DD"/><rect x="2875.5" y="1173.5" width="37.0002" height="115" stroke="#0684A2" stroke-width="6.875" stroke-miterlimit="8" fill="#0BB5DD"/><path d="M2771.68 1248.72C2711.2 1249.77 2661.32 1201.59 2660.27 1141.11 2659.22 1080.64 2707.4 1030.76 2767.88 1029.71 2828.35 1028.65 2878.23 1076.83 2879.28 1137.31 2879.33 1140.05 2879.28 1142.8 2879.12 1145.54" stroke="#0BB5DD" stroke-width="6.875" stroke-linecap="round" stroke-miterlimit="8" fill="none" fill-rule="evenodd"/><path d="M0 0 21.8639 24.1625" stroke="#0BB5DD" stroke-width="6.875" stroke-linecap="round" stroke-miterlimit="8" fill="none" fill-rule="evenodd" transform="matrix(1 0 0 -1 2877.5 1151.66)"/><path d="M0 0 21.8639 24.1625" stroke="#0BB5DD" stroke-width="6.875" stroke-linecap="round" stroke-miterlimit="8" fill="none" fill-rule="evenodd" transform="matrix(-1.83697e-16 -1 -1 1.83697e-16 2877.66 1151.36)"/><path d="M2724.18 1164.56C2719.24 1155.94 2719.2 1136.8 2724.49 1125.36 2729.77 1113.92 2739.59 1097.82 2766.91 1097.42 2776.39 1097.29 2790.31 1095.08 2799.24 1092.93 2808.17 1090.77 2816.53 1084.36 2820.48 1084.5 2824.44 1084.64 2823.59 1088.32 2822.96 1093.75 2822.32 1099.19 2819.42 1110.16 2816.65 1117.11 2813.88 1124.06 2806.28 1144.28 2800.53 1153.51 2794.78 1162.74 2789.9 1168.57 2782.16 1172.5 2774.42 1176.43 2763.76 1178.41 2754.1 1177.09 2744.44 1175.77 2729.11 1173.18 2724.18 1164.56Z" stroke="#2D3E50" stroke-width="6.875" stroke-linecap="round" stroke-miterlimit="8" fill="none" fill-rule="evenodd"/><path d="M2713.5 1191.5C2718.13 1171.56 2722.76 1151.62 2763.5 1138.5" stroke="#2D3E50" stroke-width="6.875" stroke-linecap="round" stroke-miterlimit="8" fill="none" fill-rule="evenodd"/><rect x="2595.5" y="1013.5" width="50.9998" height="23" stroke="#0684A2" stroke-width="6.875" stroke-miterlimit="8" fill="#0BB5DD"/><path d="M2646.5 1025.5 2686.83 1025.5" stroke="#0BB5DD" stroke-width="6.875" stroke-miterlimit="8" fill="none" fill-rule="evenodd"/><path d="M2687.5 1025.5 2704.54 1094.79" stroke="#0BB5DD" stroke-width="6.875" stroke-miterlimit="8" fill="none" fill-rule="evenodd"/><rect x="2633.5" y="1246.5" width="50.9998" height="22" stroke="#0684A2" stroke-width="6.875" stroke-miterlimit="8" fill="#0BB5DD"/><path d="M2684.5 1257.5 2720.78 1257.5" stroke="#0BB5DD" stroke-width="6.875" stroke-miterlimit="8" fill="none" fill-rule="evenodd"/><path d="M0 0 17.0413 69.2928" stroke="#0BB5DD" stroke-width="6.875" stroke-miterlimit="8" fill="none" fill-rule="evenodd" transform="matrix(1 0 0 -1 2720.5 1257.79)"/><rect x="2904.5" y="1057.5" width="51.0002" height="23" stroke="#0684A2" stroke-width="6.875" stroke-miterlimit="8" fill="#0BB5DD"/><path d="M2877.5 1069.5 2904 1069.5" stroke="#0BB5DD" stroke-width="6.875" stroke-miterlimit="8" fill="none" fill-rule="evenodd"/><path d="M0 0 74.7105 39.7884" stroke="#0BB5DD" stroke-width="6.875" stroke-miterlimit="8" fill="none" fill-rule="evenodd" transform="matrix(1 0 0 -1 2802.5 1109.29)"/><path d="M2897.04 934.882C2902.06 934.895 2907.14 936.302 2911.63 939.197 2917.68 943.424 2921.42 949.574 2922.59 956.18 2923.76 962.786 2922.36 969.848 2918.13 975.897L2880.39 1029.91C2875.26 1037.25 2867.21 1040.95 2858.87 1040.91L2853.26 1048.94 2850.56 1046.49C2846.95 1043.51 2843.2 1040.71 2839.32 1038.08L2829.15 1031.91 2834.68 1024C2831.78 1016.19 2832.48 1007.36 2837.62 1000.01L2875.36 946.005C2880.45 938.714 2888.67 934.861 2897.04 934.882Z" stroke="#0BB5DD" stroke-width="6.875" stroke-linecap="round" stroke-miterlimit="8" fill="none" fill-rule="evenodd"/><path d="M1539.18 1166.56C1534.24 1157.94 1534.2 1138.8 1539.49 1127.36 1544.77 1115.92 1554.59 1099.82 1581.91 1099.42 1591.39 1099.29 1605.31 1097.08 1614.24 1094.93 1623.17 1092.77 1631.53 1086.36 1635.48 1086.5 1639.44 1086.64 1638.59 1090.32 1637.96 1095.75 1637.32 1101.19 1634.42 1112.16 1631.65 1119.11 1628.88 1126.06 1621.28 1146.28 1615.53 1155.51 1609.78 1164.74 1604.9 1170.57 1597.16 1174.5 1589.42 1178.43 1578.76 1180.41 1569.1 1179.09 1559.44 1177.77 1544.11 1175.18 1539.18 1166.56Z" stroke="#2D3E50" stroke-width="6.875" stroke-linecap="round" stroke-miterlimit="8" fill="none" fill-rule="evenodd"/><path d="M1528.5 1193.5C1533.13 1173.56 1537.76 1153.62 1578.5 1140.5" stroke="#2D3E50" stroke-width="6.875" stroke-linecap="round" stroke-miterlimit="8" fill="none" fill-rule="evenodd"/><rect x="2164.5" y="1210.5" width="36.9998" height="76.0004" stroke="#0684A2" stroke-width="6.875" stroke-miterlimit="8" fill="#0BB5DD"/><rect x="2208.5" y="1190.5" width="36.9998" height="96.0002" stroke="#0684A2" stroke-width="6.875" stroke-miterlimit="8" fill="#0BB5DD"/><rect x="2252.5" y="1171.5" width="36.9998" height="115" stroke="#0684A2" stroke-width="6.875" stroke-miterlimit="8" fill="#0BB5DD"/><path d="M2101.14 1162.56C2096.26 1153.94 2096.22 1134.8 2101.45 1123.36 2106.68 1111.92 2116.4 1095.82 2143.45 1095.42 2152.85 1095.29 2166.63 1093.08 2175.47 1090.93 2184.32 1088.77 2192.6 1082.36 2196.51 1082.5 2200.43 1082.64 2199.59 1086.32 2198.96 1091.75 2198.33 1097.19 2195.46 1108.16 2192.72 1115.11 2189.97 1122.06 2182.44 1142.28 2176.75 1151.51 2171.06 1160.74 2166.23 1166.57 2158.56 1170.5 2150.9 1174.43 2140.34 1176.41 2130.77 1175.09 2121.2 1173.77 2106.03 1171.18 2101.14 1162.56Z" stroke="#2D3E50" stroke-width="6.875" stroke-linecap="round" stroke-miterlimit="8" fill="none" fill-rule="evenodd"/><path d="M2090.5 1189.5C2095.13 1169.56 2099.76 1149.62 2140.5 1136.5" stroke="#2D3E50" stroke-width="6.875" stroke-linecap="round" stroke-miterlimit="8" fill="none" fill-rule="evenodd"/><rect x="2010.5" y="1244.5" width="49.9999" height="22" stroke="#0684A2" stroke-width="6.875" stroke-miterlimit="8" fill="#0BB5DD"/><path d="M2060.5 1255.5 2096.78 1255.5" stroke="#0BB5DD" stroke-width="6.875" stroke-miterlimit="8" fill="none" fill-rule="evenodd"/><path d="M0 0 17.0413 69.2928" stroke="#0BB5DD" stroke-width="6.875" stroke-miterlimit="8" fill="none" fill-rule="evenodd" transform="matrix(1 0 0 -1 2097.5 1255.79)"/><path d="M1815.5 1130.75 1874 1130.75 1874 1117.5 1900.5 1144 1874 1170.5 1874 1157.25 1815.5 1157.25Z" stroke="#0684A2" stroke-width="4.58333" stroke-miterlimit="8" fill="#0BB5DD" fill-rule="evenodd"/><path d="M2409.5 1139.75 2468 1139.75 2468 1126.5 2494.5 1153 2468 1179.5 2468 1166.25 2409.5 1166.25Z" stroke="#0684A2" stroke-width="4.58333" stroke-miterlimit="8" fill="#0BB5DD" fill-rule="evenodd"/></g></svg>