<svg width="4123" height="1813" xmlns="http://www.w3.org/2000/svg" xmlns:xlink="http://www.w3.org/1999/xlink" xml:space="preserve" overflow="hidden"><defs><clipPath id="clip0"><rect x="227" y="453" width="4123" height="1813"/></clipPath><clipPath id="clip1"><rect x="1139" y="1109" width="331" height="288"/></clipPath><clipPath id="clip2"><rect x="1139" y="1109" width="331" height="288"/></clipPath><clipPath id="clip3"><rect x="1139" y="1109" width="331" height="288"/></clipPath><clipPath id="clip4"><rect x="1186" y="1017" width="331" height="288"/></clipPath><clipPath id="clip5"><rect x="1186" y="1017" width="331" height="288"/></clipPath><clipPath id="clip6"><rect x="1186" y="1017" width="331" height="288"/></clipPath><clipPath id="clip7"><rect x="332" y="969" width="276" height="276"/></clipPath><clipPath id="clip8"><rect x="332" y="969" width="276" height="276"/></clipPath><clipPath id="clip9"><rect x="332" y="969" width="276" height="276"/></clipPath><clipPath id="clip10"><rect x="280" y="1127" width="276" height="276"/></clipPath><clipPath id="clip11"><rect x="280" y="1127" width="276" height="276"/></clipPath><clipPath id="clip12"><rect x="280" y="1127" width="276" height="276"/></clipPath><clipPath id="clip13"><rect x="381" y="1157" width="276" height="276"/></clipPath><clipPath id="clip14"><rect x="381" y="1157" width="276" height="276"/></clipPath><clipPath id="clip15"><rect x="381" y="1157" width="276" height="276"/></clipPath></defs><g clip-path="url(#clip0)" transform="translate(-227 -453)"><rect x="2000" y="1160" width="94.0001" height="83.9999" fill="#1FC2A7"/><rect x="2099" y="1160" width="95.0002" height="83.9999" fill="#1FC2A7"/><rect x="2199" y="1160" width="94.9998" height="83.9999" fill="#1FC2A7"/><rect x="2000" y="1249" width="94.0001" height="83.0002" fill="#1FC2A7"/><rect x="2099" y="1249" width="95.0002" height="83.0002" fill="#1FC2A7"/><rect x="2199" y="1249" width="94.9998" height="83.0002" fill="#1FC2A7"/><rect x="2000" y="1335" width="94.0001" height="83.9999" fill="#1FC2A7"/><rect x="2099" y="1335" width="95.0002" height="83.9999" fill="#1FC2A7"/><rect x="2199" y="1335" width="94.9998" height="83.9999" fill="#1FC2A7"/><rect x="2000.5" y="1105.5" width="290" height="40.9999" stroke="#0684A2" stroke-width="4.58333" stroke-miterlimit="8" fill="#0BB5DD"/><path d="M1658.5 1236.25 1809 1236.25 1809 1211.5 1858.5 1261 1809 1310.5 1809 1285.75 1658.5 1285.75Z" stroke="#1E2B38" stroke-width="4.58333" stroke-miterlimit="8" fill="#2D3E50" fill-rule="evenodd"/><text fill="#595959" font-family="Calibri,Calibri_MSFontService,sans-serif" font-weight="400" font-size="83" transform="matrix(1 0 0 1 1630.7 1119)">process</text><g clip-path="url(#clip1)"><g clip-path="url(#clip2)"><g clip-path="url(#clip3)"><path d="M242.156 227.208 44.8438 227.208C38.2667 227.208 32.8854 221.827 32.8854 215.25L32.8854 71.75C32.8854 65.1729 38.2667 59.7917 44.8438 59.7917L101.048 59.7917C103.44 59.7917 105.831 60.3896 107.625 61.8844L140.51 83.7083 242.156 83.7083C248.733 83.7083 254.115 89.0896 254.115 95.6667L254.115 215.25C254.115 221.827 248.733 227.208 242.156 227.208Z" stroke="#595959" stroke-width="5.97917" fill="#E7E6E6" transform="matrix(1.14983 0 0 1 1140 1110)"/></g></g></g><g clip-path="url(#clip4)"><g clip-path="url(#clip5)"><g clip-path="url(#clip6)"><path d="M242.156 227.208 44.8438 227.208C38.2667 227.208 32.8854 221.827 32.8854 215.25L32.8854 71.75C32.8854 65.1729 38.2667 59.7917 44.8438 59.7917L101.048 59.7917C103.44 59.7917 105.831 60.3896 107.625 61.8844L140.51 83.7083 242.156 83.7083C248.733 83.7083 254.115 89.0896 254.115 95.6667L254.115 215.25C254.115 221.827 248.733 227.208 242.156 227.208Z" stroke="#595959" stroke-width="5.97917" fill="#0BB5DD" transform="matrix(1.14983 0 0 1 1187 1018)"/></g></g></g><text fill="#595959" font-family="Calibri,Calibri_MSFontService,sans-serif" font-weight="400" font-size="83" transform="matrix(1 0 0 1 1158.93 1650)">raw data  <tspan font-size="83" x="913.526" y="0">data  </tspan></text><path d="M799.5 1216.25 949 1216.25 949 1191.5 998.5 1241 949 1290.5 949 1265.75 799.5 1265.75Z" stroke="#1E2B38" stroke-width="4.58333" stroke-miterlimit="8" fill="#2D3E50" fill-rule="evenodd"/><text fill="#595959" font-family="Calibri,Calibri_MSFontService,sans-serif" font-weight="400" font-size="83" transform="matrix(1 0 0 1 755.078 1121)">measure<tspan font-size="83" x="-477.931" y="528">experiment</tspan></text><g clip-path="url(#clip7)"><g clip-path="url(#clip8)"><g clip-path="url(#clip9)"><path d="M463.771 1032.02C463.771 1041.51 456.076 1049.21 446.583 1049.21 437.091 1049.21 429.396 1041.51 429.396 1032.02 429.396 1022.53 437.091 1014.83 446.583 1014.83 456.076 1014.83 463.771 1022.53 463.771 1032.02Z" fill="#1FC2A7"/><path d="M446.583 989.052C446.583 993.798 442.736 997.646 437.99 997.646 433.243 997.646 429.396 993.798 429.396 989.052 429.396 984.306 433.243 980.458 437.99 980.458 442.736 980.458 446.583 984.306 446.583 989.052Z" fill="#1FC2A7"/><path d="M495.281 1040.61C495.281 1045.36 491.434 1049.21 486.688 1049.21 481.941 1049.21 478.094 1045.36 478.094 1040.61 478.094 1035.87 481.941 1032.02 486.688 1032.02 491.434 1032.02 495.281 1035.87 495.281 1040.61Z" fill="#1FC2A7"/><path d="M503.875 1003.38C503.875 1009.7 498.745 1014.83 492.417 1014.83 486.088 1014.83 480.958 1009.7 480.958 1003.38 480.958 997.047 486.088 991.917 492.417 991.917 498.745 991.917 503.875 997.047 503.875 1003.38Z" fill="#1FC2A7"/><path d="M549.422 1062.1C548.849 1059.52 546.557 1057.8 543.979 1057.8L395.021 1057.8C392.443 1057.8 390.151 1059.52 389.578 1062.1 389.005 1064.68 390.151 1067.26 392.443 1068.4 392.443 1068.4 401.037 1073.27 401.037 1083.58L401.037 1215.35C401.037 1224.81 408.771 1232.54 418.224 1232.54L521.349 1232.54C530.802 1232.54 538.536 1224.81 538.536 1215.35L538.536 1083.58C538.536 1073.27 546.557 1068.69 546.844 1068.69 548.849 1067.26 550.281 1064.68 549.422 1062.1ZM509.604 1209.62 475.229 1209.62 475.229 1198.17 509.604 1198.17 509.604 1209.62ZM509.604 1186.71 475.229 1186.71 475.229 1175.25 509.604 1175.25 509.604 1186.71ZM509.604 1163.79 475.229 1163.79 475.229 1152.33 509.604 1152.33 509.604 1163.79ZM509.604 1140.88 475.229 1140.88 475.229 1129.42 509.604 1129.42 509.604 1140.88ZM509.604 1117.96 475.229 1117.96 475.229 1106.5 509.604 1106.5 509.604 1117.96ZM526.792 1083.58 526.792 1089.03C517.911 1085.59 503.589 1080.72 489.552 1080.72 474.083 1080.72 464.63 1083.3 454.891 1085.88 444.292 1088.74 433.12 1091.6 412.208 1092.18L412.208 1083.58C412.208 1077.85 410.49 1072.98 408.484 1069.26L530.516 1069.26C528.51 1072.98 526.792 1077.85 526.792 1083.58Z" fill="#1FC2A7"/></g></g></g><g clip-path="url(#clip10)"><g clip-path="url(#clip11)"><g clip-path="url(#clip12)"><path d="M364.073 1262.64C391.378 1262.64 412.771 1250.05 412.771 1233.99 412.771 1217.93 391.378 1205.34 364.073 1205.34 336.768 1205.34 315.375 1217.93 315.375 1233.99 315.375 1250.05 336.768 1262.64 364.073 1262.64ZM364.073 1216.8C386.018 1216.8 401.312 1225.86 401.312 1233.99 401.312 1242.12 386.018 1251.18 364.073 1251.18 342.127 1251.18 326.833 1242.12 326.833 1233.99 326.833 1225.86 342.127 1216.8 364.073 1216.8Z" fill="#2D3E50"/><path d="M389.854 1233.99C389.854 1240.32 378.311 1245.45 364.073 1245.45 349.834 1245.45 338.292 1240.32 338.292 1233.99 338.292 1227.66 349.834 1222.53 364.073 1222.53 378.311 1222.53 389.854 1227.66 389.854 1233.99Z" fill="#2D3E50"/><path d="M537.844 1241.98C506.211 1227.73 473.483 1227.94 440.417 1242.42 441.076 1239.66 441.412 1236.83 441.417 1233.99 441.417 1205.08 407.445 1182.43 364.073 1182.43 320.7 1182.43 286.729 1205.08 286.729 1233.99L286.729 1293.27C286.729 1324.28 322.161 1348.57 367.393 1348.57 394.606 1348.57 422.857 1333.65 438.031 1325.62 469.704 1308.88 500.914 1307.21 530.786 1320.67L550.271 1329.45 550.271 1247.57ZM455.739 1254.8C459.496 1253.47 463.321 1252.34 467.198 1251.42L467.198 1288.42 455.739 1288.42ZM312.51 1274.09 314.939 1274.09C317.863 1275.67 320.878 1277.08 323.969 1278.3L323.969 1294.15 312.51 1294.15ZM369.802 1285.4C373.717 1285.21 377.536 1284.85 381.26 1284.31L381.26 1302.74 369.802 1302.74ZM398.448 1280.35C402.368 1279.09 406.196 1277.56 409.906 1275.77L409.906 1311.33 398.448 1311.33ZM427.094 1267.87C431.204 1266.06 434.908 1264.25 438.031 1262.6 438.205 1262.51 438.377 1262.43 438.552 1262.34L438.552 1282.69 427.094 1282.69ZM352.614 1317.06 341.156 1317.06 341.156 1283.33C344.945 1284.08 348.769 1284.64 352.614 1285.01ZM484.385 1268.36 484.385 1248.86C488.201 1248.63 492.028 1248.63 495.844 1248.86L495.844 1268.36ZM364.073 1199.61C396.68 1199.61 424.229 1215.37 424.229 1233.99 424.229 1252.61 396.68 1268.36 364.073 1268.36 331.465 1268.36 303.917 1252.62 303.917 1233.99 303.917 1215.36 331.465 1199.61 364.073 1199.61ZM533.083 1302.96C527.276 1300.62 521.295 1298.73 515.194 1297.32 512.061 1290.43 510.351 1282.97 510.167 1275.4 510.279 1267.3 512.661 1259.4 517.042 1252.59 521.736 1253.96 526.331 1255.65 530.792 1257.65L533.083 1258.68Z" fill="#2D3E50"/></g></g></g><g clip-path="url(#clip13)"><g clip-path="url(#clip14)"><g clip-path="url(#clip15)"><path d="M589.396 1165.88 390.88 1364.4 449.604 1423.12 647.833 1224.89 589.396 1165.88ZM593.406 1254.97 571.062 1277.31 553.302 1259.55 545.281 1267.57 563.042 1285.33 540.698 1307.68 522.937 1289.92 514.917 1297.94 532.677 1315.7 510.333 1338.04 492.573 1320.28 484.552 1328.3 502.312 1346.06 479.969 1368.41 462.208 1350.65 454.187 1358.67 471.948 1376.43 449.891 1398.48 415.516 1364.11 589.396 1190.23 623.771 1224.6 601.713 1246.66 583.953 1228.9 575.646 1237.21 593.406 1254.97Z" fill="#6B8BAC"/></g></g></g><path d="M2742.5 728.25 2892 728.25 2892 703.5 2941.5 753 2892 802.5 2892 777.75 2742.5 777.75Z" stroke="#1E2B38" stroke-width="4.58333" stroke-miterlimit="8" fill="#2D3E50" fill-rule="evenodd"/><text fill="#595959" font-family="Calibri,Calibri_MSFontService,sans-serif" font-weight="400" font-size="83" transform="matrix(1 0 0 1 2719.26 589)">publish  </text><path d="M3456.42 617.067 3619.44 585.157 3621.04 593.308 3458.02 625.218Z" stroke="#3F3F3F" stroke-width="4.58333" stroke-miterlimit="8" fill="#595959" fill-rule="evenodd"/><path d="M3450.04 584.462 3527.47 569.305 3529.07 577.456 3451.63 592.613Z" stroke="#3F3F3F" stroke-width="4.58333" stroke-miterlimit="8" fill="#595959" fill-rule="evenodd"/><path d="M3462.8 649.672 3625.82 617.761 3627.42 625.912 3464.4 657.823Z" stroke="#3F3F3F" stroke-width="4.58333" stroke-miterlimit="8" fill="#595959" fill-rule="evenodd"/><path d="M3469.18 682.276 3632.21 650.365 3633.8 658.516 3470.78 690.426Z" stroke="#3F3F3F" stroke-width="4.58333" stroke-miterlimit="8" fill="#595959" fill-rule="evenodd"/><path d="M3475.57 714.88 3638.59 682.97 3640.18 691.121 3477.16 723.031Z" stroke="#3F3F3F" stroke-width="4.58333" stroke-miterlimit="8" fill="#595959" fill-rule="evenodd"/><path d="M3481.95 747.485 3644.97 715.575 3646.57 723.725 3483.54 755.636Z" stroke="#3F3F3F" stroke-width="4.58333" stroke-miterlimit="8" fill="#595959" fill-rule="evenodd"/><path d="M3388.54 486.478 3452.36 812.522 3696.89 764.657 3650.29 526.587 3545.1 455.833ZM3550.29 469.335 3635.83 526.867C3635.85 526.88 3635.85 526.906 3635.84 526.925 3635.83 526.934 3635.82 526.94 3635.81 526.942L3564.24 540.952 3550.23 469.377C3550.22 469.355 3550.24 469.333 3550.26 469.329 3550.27 469.327 3550.28 469.33 3550.29 469.335ZM3458.92 802.776 3398.29 493.034 3540.93 465.112 3557.68 550.698 3643.27 533.946 3687.15 758.101Z" stroke="#3F3F3F" stroke-width="4.58333" stroke-miterlimit="8" fill="#595959" fill-rule="evenodd"/><text fill="#595959" font-family="Calibri,Calibri_MSFontService,sans-serif" font-weight="400" font-size="83" transform="matrix(1 0 0 1 3256.14 922)">journal publication  </text><path d="M2354.64 988.146 2460.6 882.19 2443.16 864.75 2512.91 864.75 2512.92 934.51 2495.48 917.07 2389.52 1023.03Z" stroke="#1E2B38" stroke-width="4.58333" stroke-miterlimit="8" fill="#2D3E50" fill-rule="evenodd"/><path d="M2593 1430.5C2593 1377.76 2635.76 1335 2688.5 1335L4249.5 1335C4302.24 1335 4345 1377.76 4345 1430.5L4345 2165.5C4345 2218.24 4302.24 2261 4249.5 2261L2688.5 2261C2635.76 2261 2593 2218.24 2593 2165.5Z" stroke="#595959" stroke-width="10.3125" stroke-linejoin="round" stroke-miterlimit="10" stroke-dasharray="30.9375 10.3125" fill="#0BB5DD" fill-rule="evenodd" fill-opacity="0.501961"/><path d="M3880.5 1650.9C3880.5 1636.79 3944.24 1625.5 4021.5 1625.5 4098.76 1625.5 4162.5 1636.79 4162.5 1650.9 4162.5 1751.1 4162.5 1751.1 4162.5 1751.1 4162.5 1765.21 4098.76 1776.5 4021.5 1776.5 3944.24 1776.5 3880.5 1765.21 3880.5 1751.1L3880.5 1650.9Z" stroke="#787878" stroke-width="4.58333" stroke-miterlimit="8" fill="#A5A5A5" fill-rule="evenodd"/><path d="M3880.5 1832.9C3880.5 1818.79 3944.24 1807.5 4021.5 1807.5 4098.76 1807.5 4162.5 1818.79 4162.5 1832.9 4162.5 1933.1 4162.5 1933.1 4162.5 1933.1 4162.5 1947.21 4098.76 1958.5 4021.5 1958.5 3944.24 1958.5 3880.5 1947.21 3880.5 1933.1L3880.5 1832.9Z" stroke="#787878" stroke-width="4.58333" stroke-miterlimit="8" fill="#A5A5A5" fill-rule="evenodd"/><path d="M4162.5 1832.5C4162.5 1845.5 4098.76 1858.5 4021.5 1858.5 3944.24 1858.5 3880.5 1845.5 3880.5 1832.5" stroke="#787878" stroke-width="4.58333" stroke-miterlimit="8" fill="#A5A5A5" fill-rule="evenodd"/><path d="M3880.5 1832.9C3880.5 1818.79 3944.24 1807.5 4021.5 1807.5 4098.76 1807.5 4162.5 1818.79 4162.5 1832.9 4162.5 1933.1 4162.5 1933.1 4162.5 1933.1 4162.5 1947.21 4098.76 1958.5 4021.5 1958.5 3944.24 1958.5 3880.5 1947.21 3880.5 1933.1L3880.5 1832.9Z" stroke="#787878" stroke-width="4.58333" stroke-miterlimit="8" fill="#A5A5A5" fill-rule="evenodd"/><path d="M3880.5 1741C3880.5 1726.83 3944.24 1715.5 4021.5 1715.5 4098.76 1715.5 4162.5 1726.83 4162.5 1741 4162.5 1843 4162.5 1843 4162.5 1843 4162.5 1857.17 4098.76 1868.5 4021.5 1868.5 3944.24 1868.5 3880.5 1857.17 3880.5 1843L3880.5 1741Z" stroke="#787878" stroke-width="4.58333" stroke-miterlimit="8" fill="#A5A5A5" fill-rule="evenodd"/><path d="M4162.5 1740.5C4162.5 1754.94 4098.76 1766.5 4021.5 1766.5 3944.24 1766.5 3880.5 1754.94 3880.5 1740.5" stroke="#787878" stroke-width="4.58333" stroke-miterlimit="8" fill="#A5A5A5" fill-rule="evenodd"/><path d="M3880.5 1741C3880.5 1726.83 3944.24 1715.5 4021.5 1715.5 4098.76 1715.5 4162.5 1726.83 4162.5 1741 4162.5 1843 4162.5 1843 4162.5 1843 4162.5 1857.17 4098.76 1868.5 4021.5 1868.5 3944.24 1868.5 3880.5 1857.17 3880.5 1843L3880.5 1741Z" stroke="#787878" stroke-width="4.58333" stroke-miterlimit="8" fill="#A5A5A5" fill-rule="evenodd"/><path d="M3880.5 1650.9C3880.5 1636.79 3944.24 1625.5 4021.5 1625.5 4098.76 1625.5 4162.5 1636.79 4162.5 1650.9 4162.5 1751.1 4162.5 1751.1 4162.5 1751.1 4162.5 1765.21 4098.76 1776.5 4021.5 1776.5 3944.24 1776.5 3880.5 1765.21 3880.5 1751.1L3880.5 1650.9Z" stroke="#787878" stroke-width="4.58333" stroke-miterlimit="8" fill="#A5A5A5" fill-rule="evenodd"/><path d="M4162.5 1650.5C4162.5 1664.39 4098.76 1675.5 4021.5 1675.5 3944.24 1675.5 3880.5 1664.39 3880.5 1650.5" stroke="#787878" stroke-width="4.58333" stroke-miterlimit="8" fill="#A5A5A5" fill-rule="evenodd"/><path d="M4044.5 1599.9C4044.5 1585.79 4091.29 1574.5 4148 1574.5 4204.71 1574.5 4251.5 1585.79 4251.5 1599.9 4251.5 1700.1 4251.5 1700.1 4251.5 1700.1 4251.5 1714.21 4204.71 1725.5 4148 1725.5 4091.29 1725.5 4044.5 1714.21 4044.5 1700.1L4044.5 1599.9Z" stroke="#148E7A" stroke-width="4.58333" stroke-miterlimit="8" fill="#1FC2A7" fill-rule="evenodd"/><path d="M4044.5 1781.9C4044.5 1767.79 4091.29 1756.5 4148 1756.5 4204.71 1756.5 4251.5 1767.79 4251.5 1781.9 4251.5 1882.1 4251.5 1882.1 4251.5 1882.1 4251.5 1896.21 4204.71 1907.5 4148 1907.5 4091.29 1907.5 4044.5 1896.21 4044.5 1882.1L4044.5 1781.9Z" stroke="#148E7A" stroke-width="4.58333" stroke-miterlimit="8" fill="#1FC2A7" fill-rule="evenodd"/><path d="M4251.5 1781.5C4251.5 1794.5 4204.71 1807.5 4148 1807.5 4091.29 1807.5 4044.5 1794.5 4044.5 1781.5" stroke="#148E7A" stroke-width="4.58333" stroke-miterlimit="8" fill="#1FC2A7" fill-rule="evenodd"/><path d="M4044.5 1781.9C4044.5 1767.79 4091.29 1756.5 4148 1756.5 4204.71 1756.5 4251.5 1767.79 4251.5 1781.9 4251.5 1882.1 4251.5 1882.1 4251.5 1882.1 4251.5 1896.21 4204.71 1907.5 4148 1907.5 4091.29 1907.5 4044.5 1896.21 4044.5 1882.1L4044.5 1781.9Z" stroke="#148E7A" stroke-width="4.58333" stroke-miterlimit="8" fill="#1FC2A7" fill-rule="evenodd"/><path d="M4044.5 1690C4044.5 1675.83 4091.29 1664.5 4148 1664.5 4204.71 1664.5 4251.5 1675.83 4251.5 1690 4251.5 1792 4251.5 1792 4251.5 1792 4251.5 1806.17 4204.71 1817.5 4148 1817.5 4091.29 1817.5 4044.5 1806.17 4044.5 1792L4044.5 1690Z" stroke="#148E7A" stroke-width="4.58333" stroke-miterlimit="8" fill="#1FC2A7" fill-rule="evenodd"/><path d="M4251.5 1690.5C4251.5 1704.39 4204.71 1715.5 4148 1715.5 4091.29 1715.5 4044.5 1704.39 4044.5 1690.5" stroke="#148E7A" stroke-width="4.58333" stroke-miterlimit="8" fill="#1FC2A7" fill-rule="evenodd"/><path d="M4044.5 1690C4044.5 1675.83 4091.29 1664.5 4148 1664.5 4204.71 1664.5 4251.5 1675.83 4251.5 1690 4251.5 1792 4251.5 1792 4251.5 1792 4251.5 1806.17 4204.71 1817.5 4148 1817.5 4091.29 1817.5 4044.5 1806.17 4044.5 1792L4044.5 1690Z" stroke="#148E7A" stroke-width="4.58333" stroke-miterlimit="8" fill="#1FC2A7" fill-rule="evenodd"/><path d="M4044.5 1599.9C4044.5 1585.79 4091.29 1574.5 4148 1574.5 4204.71 1574.5 4251.5 1585.79 4251.5 1599.9 4251.5 1700.1 4251.5 1700.1 4251.5 1700.1 4251.5 1714.21 4204.71 1725.5 4148 1725.5 4091.29 1725.5 4044.5 1714.21 4044.5 1700.1L4044.5 1599.9Z" stroke="#148E7A" stroke-width="4.58333" stroke-miterlimit="8" fill="#1FC2A7" fill-rule="evenodd"/><path d="M4251.5 1599.5C4251.5 1613.94 4204.71 1625.5 4148 1625.5 4091.29 1625.5 4044.5 1613.94 4044.5 1599.5" stroke="#148E7A" stroke-width="4.58333" stroke-miterlimit="8" fill="#1FC2A7" fill-rule="evenodd"/><path d="M3543.5 1772.25 3693 1772.25 3693 1747.5 3742.5 1797 3693 1846.5 3693 1821.75 3543.5 1821.75Z" stroke="#1E2B38" stroke-width="4.58333" stroke-miterlimit="8" fill="#2D3E50" fill-rule="evenodd"/><text font-family="Arial,Arial_MSFontService,sans-serif" font-weight="400" font-size="83" transform="matrix(1 0 0 1 3502.08 1636)">publish<tspan font-size="83" x="428.01" y="443">public </tspan><tspan font-size="83" x="354.676" y="542">repository  </tspan></text><path d="M2737.5 1772.25 2887 1772.25 2887 1747.5 2936.5 1797 2887 1846.5 2887 1821.75 2737.5 1821.75Z" stroke="#1E2B38" stroke-width="4.58333" stroke-miterlimit="8" fill="#2D3E50" fill-rule="evenodd"/><text font-family="Arial,Arial_MSFontService,sans-serif" font-weight="400" font-size="83" transform="matrix(1 0 0 1 2676.42 1636)">annotate  </text><rect x="3110" y="1690" width="95.0002" height="83.0002" fill="#1FC2A7"/><rect x="3210" y="1690" width="95.0002" height="83.0002" fill="#1FC2A7"/><rect x="3309" y="1690" width="95.0002" height="83.0002" fill="#1FC2A7"/><rect x="3110" y="1778" width="95.0002" height="84.0002" fill="#1FC2A7"/><rect x="3210" y="1778" width="95.0002" height="84.0002" fill="#1FC2A7"/><rect x="3309" y="1778" width="95.0002" height="84.0002" fill="#1FC2A7"/><rect x="3110" y="1865" width="95.0002" height="83.0002" fill="#1FC2A7"/><rect x="3210" y="1865" width="95.0002" height="83.0002" fill="#1FC2A7"/><rect x="3309" y="1865" width="95.0002" height="83.0002" fill="#1FC2A7"/><rect x="3110.5" y="1634.5" width="291" height="40.9999" stroke="#0684A2" stroke-width="4.58333" stroke-miterlimit="8" fill="#0BB5DD"/><rect x="0" y="0" width="157" height="71.0002" stroke="#0684A2" stroke-width="4.58333" stroke-miterlimit="8" fill="#0BB5DD" transform="matrix(1 0 0 -1 2910.5 2044.5)"/><path d="M0 0 124.447 0.000360892" stroke="#0BB5DD" stroke-width="2.29167" stroke-miterlimit="8" fill="none" fill-rule="evenodd" transform="matrix(1 0 0 -1 3067 2008)"/><path d="M0 0 52.5791 213.793" stroke="#0BB5DD" stroke-width="2.29167" stroke-miterlimit="8" fill="none" fill-rule="evenodd" transform="matrix(1 0 0 -1 3191 2008.79)"/><rect x="0" y="0" width="157" height="70.9998" stroke="#0684A2" stroke-width="4.58333" stroke-miterlimit="8" fill="#0BB5DD" transform="matrix(-1 0 0 1 3502.5 1440.5)"/><path d="M0 0 124.447 0.000360892" stroke="#0BB5DD" stroke-width="2.29167" stroke-miterlimit="8" fill="none" fill-rule="evenodd" transform="matrix(-1 0 0 1 3344.45 1475)"/><path d="M0 0 52.5791 213.793" stroke="#0BB5DD" stroke-width="2.29167" stroke-miterlimit="8" fill="none" fill-rule="evenodd" transform="matrix(-1 0 0 1 3220.58 1475)"/><text font-family="Arial,Arial_MSFontService,sans-serif" font-weight="400" font-size="83" transform="matrix(1 0 0 1 3055.96 2169)">(meta)data  </text><path d="M2711 1263.85C2711 1254.54 2718.54 1247 2727.85 1247L4000.15 1247C4009.46 1247 4017 1254.54 4017 1263.85L4017 1390.15C4017 1399.46 4009.46 1407 4000.15 1407L2727.85 1407C2718.54 1407 2711 1399.46 2711 1390.15Z" stroke="#595959" stroke-width="10.3125" stroke-linejoin="round" stroke-miterlimit="10" fill="#FFFFFF" fill-rule="evenodd"/><text fill="#595959" font-family="Calibri,Calibri_MSFontService,sans-serif" font-weight="400" font-size="92" transform="matrix(1 0 0 1 2766.82 1355)">aka. research data management  </text><path d="M3527.25 1198.5 3527.25 1049 3502.5 1049 3552 999.5 3601.5 1049 3576.75 1049 3576.75 1198.5Z" stroke="#1E2B38" stroke-width="4.58333" stroke-miterlimit="8" fill="#2D3E50" fill-rule="evenodd"/><path d="M0 24.6638 149.844 24.6638 149.844 0 199.171 49.3273 149.844 98.6546 149.844 73.9911 0 73.9911Z" stroke="#1E2B38" stroke-width="4.58333" stroke-miterlimit="8" fill="#2D3E50" fill-rule="evenodd" transform="matrix(0.707107 0.707107 0.707107 -0.707107 2343.38 1550.08)"/></g></svg>