<svg width="3455" height="1124" xmlns="http://www.w3.org/2000/svg" xmlns:xlink="http://www.w3.org/1999/xlink" xml:space="preserve" overflow="hidden"><defs><clipPath id="clip0"><rect x="286" y="568" width="3455" height="1124"/></clipPath><clipPath id="clip1"><rect x="3142" y="996" width="230" height="229"/></clipPath><clipPath id="clip2"><rect x="3142" y="996" width="230" height="229"/></clipPath><clipPath id="clip3"><rect x="3142" y="996" width="230" height="229"/></clipPath><clipPath id="clip4"><rect x="3345" y="996" width="228" height="230"/></clipPath><clipPath id="clip5"><rect x="3345" y="996" width="228" height="230"/></clipPath><clipPath id="clip6"><rect x="3345" y="996" width="228" height="230"/></clipPath><clipPath id="clip7"><rect x="3218" y="1038" width="251" height="249"/></clipPath><clipPath id="clip8"><rect x="3218" y="1038" width="251" height="249"/></clipPath><clipPath id="clip9"><rect x="3218" y="1038" width="251" height="249"/></clipPath><clipPath id="clip10"><rect x="1820" y="887" width="70" height="65"/></clipPath><clipPath id="clip11"><rect x="1820" y="887" width="70" height="65"/></clipPath><clipPath id="clip12"><rect x="1820" y="887" width="70" height="65"/></clipPath><clipPath id="clip13"><rect x="982" y="1327" width="56" height="56"/></clipPath><clipPath id="clip14"><rect x="982" y="1327" width="56" height="56"/></clipPath><clipPath id="clip15"><rect x="982" y="1327" width="56" height="56"/></clipPath><clipPath id="clip16"><rect x="794" y="1277" width="40" height="40"/></clipPath><clipPath id="clip17"><rect x="794" y="1277" width="40" height="40"/></clipPath><clipPath id="clip18"><rect x="794" y="1277" width="40" height="40"/></clipPath><clipPath id="clip19"><rect x="746" y="1087" width="41" height="41"/></clipPath><clipPath id="clip20"><rect x="746" y="1087" width="41" height="41"/></clipPath><clipPath id="clip21"><rect x="746" y="1087" width="41" height="41"/></clipPath><clipPath id="clip22"><rect x="1087" y="1006" width="39" height="37"/></clipPath><clipPath id="clip23"><rect x="1087" y="1006" width="39" height="37"/></clipPath><clipPath id="clip24"><rect x="1087" y="1006" width="39" height="37"/></clipPath><clipPath id="clip25"><rect x="884" y="940" width="50" height="53"/></clipPath><clipPath id="clip26"><rect x="884" y="940" width="50" height="53"/></clipPath><clipPath id="clip27"><rect x="884" y="940" width="50" height="53"/></clipPath></defs><g clip-path="url(#clip0)" transform="translate(-286 -568)"><path d="M361.582 13.9786 386.98 7.46549 412.72 2.0827 438.478-2.03897 464.18-4.89566 489.81-6.54838 515.398-6.93674 540.768-6.18442 565.971-4.22924 590.911-1.13494 615.602 3.09926 639.966 8.40802 663.958 14.7943 687.59 22.3253 710.754 30.8623 733.478 40.4128 755.648 50.9826 777.292 62.4934 798.334 75.0328 818.676 88.5214 838.42 102.878 857.377 118.147 875.63 134.362 893.057 151.398 909.67 169.329 925.387 188.013 940.17 207.54 953.994 227.817 966.816 248.934 978.555 270.744 989.214 293.247 998.795 316.509 1007.18 340.416 1008.68 345.462 995.491 349.36 994.199 344.959 986.08 321.741 976.786 299.128 966.445 277.256 955.059 256.066 942.631 235.558 929.205 215.835 914.863 196.862 899.58 178.671 883.443 161.227 866.495 144.638 848.748 128.853 830.33 113.997 811.074 99.9786 791.291 86.8422 770.833 74.6316 749.727 63.3924 728.147 53.0872 705.996 43.7627 683.41 35.4247 660.417 28.0807 637.034 21.842 613.273 16.6507 589.214 12.5099 564.904 9.47924 540.357 7.55942 515.602 6.81174 490.69 7.17338 465.695 8.77066 440.647 11.539 415.53 15.5423 390.395 20.7845 364.998 27.2976ZM1020.14 302.67 1005.95 360.495 962.602 319.68C959.837 317.077 959.706 312.726 962.309 309.961 964.912 307.197 969.263 307.066 972.027 309.669L1006.8 342.405 995.407 345.772 1006.79 299.393C1007.69 295.706 1011.42 293.45 1015.1 294.355 1018.79 295.26 1021.05 298.983 1020.14 302.67Z" fill="#595959" transform="matrix(-0.885374 -0.46488 -0.46488 0.885374 3395.62 1038.44)"/><path d="M3111.5 1142.5C3111.5 1011.61 3217.39 905.5 3348 905.5 3478.62 905.5 3584.5 1011.61 3584.5 1142.5 3584.5 1273.39 3478.62 1379.5 3348 1379.5 3217.39 1379.5 3111.5 1273.39 3111.5 1142.5Z" stroke="#0684A2" stroke-width="4.58333" stroke-miterlimit="8" fill="#0BB5DD" fill-rule="evenodd"/><g clip-path="url(#clip1)"><g clip-path="url(#clip2)"><g clip-path="url(#clip3)"><path d="M151.333 70.9376C151.333 91.8324 134.395 108.771 113.5 108.771 92.6053 108.771 75.6667 91.8324 75.6667 70.9376 75.6667 50.0428 92.6053 33.1042 113.5 33.1042 134.395 33.1042 151.333 50.0428 151.333 70.9376Z" fill="#2D3E50" transform="matrix(-1.00441 0 0 1 3371 997)"/><path d="M189.167 193.896 189.167 156.063C189.167 150.388 186.329 144.713 181.6 140.929 171.196 132.417 157.954 126.742 144.713 122.958 135.254 120.121 124.85 118.229 113.5 118.229 103.096 118.229 92.6918 120.121 82.2876 122.958 69.0459 126.742 55.8042 133.363 45.4 140.929 40.6709 144.713 37.8334 150.388 37.8334 156.063L37.8334 193.896 189.167 193.896Z" fill="#2D3E50" transform="matrix(-1.00441 0 0 1 3371 997)"/></g></g></g><g clip-path="url(#clip4)"><g clip-path="url(#clip5)"><g clip-path="url(#clip6)"><path d="M152 71.25C152 92.2368 134.987 109.25 114 109.25 93.0131 109.25 76 92.2368 76 71.25 76 50.2632 93.0131 33.25 114 33.25 134.987 33.25 152 50.2632 152 71.25Z" fill="#2D3E50" transform="matrix(-1 0 0 1 3573 997)"/><path d="M72.675 193.8 57 158.412 57 134.425C57 131.575 58.6625 128.725 61.0375 127.3 62.4625 126.587 62.9375 124.925 62.225 123.737 61.75 122.787 60.8 122.075 59.6125 122.312L32.5375 122.312C31.1125 122.312 29.6875 123.262 29.6875 124.925 29.6875 126.112 30.1625 127.062 31.1125 127.537 33.725 128.962 35.15 131.812 35.15 134.662L35.15 158.65 19.7125 193.8C17.8125 197.837 19.7125 202.825 23.9875 204.487 24.9375 204.962 26.125 205.2 27.3125 205.2L65.3125 205.2C69.825 205.2 73.3875 201.637 73.3875 197.125 73.3875 195.937 73.15 194.75 72.675 193.8L72.675 193.8ZM40.85 139.887 40.85 134.425C40.85 132.05 40.375 129.675 38.95 127.537L53.4375 127.537C52.25 129.675 51.5375 132.05 51.5375 134.425L51.5375 139.887 40.85 139.887Z" fill="#2D3E50" transform="matrix(-1 0 0 1 3573 997)"/><path d="M52.9625 89.5375C52.9625 91.7673 51.1548 93.575 48.925 93.575 46.6951 93.575 44.8875 91.7673 44.8875 89.5375 44.8875 87.3076 46.6951 85.5 48.925 85.5 51.1548 85.5 52.9625 87.3076 52.9625 89.5375Z" fill="#2D3E50" transform="matrix(-1 0 0 1 3573 997)"/><path d="M59.85 101.887C59.85 104.117 58.0423 105.925 55.8125 105.925 53.5826 105.925 51.775 104.117 51.775 101.887 51.775 99.6576 53.5826 97.85 55.8125 97.85 58.0423 97.85 59.85 99.6576 59.85 101.887Z" fill="#2D3E50" transform="matrix(-1 0 0 1 3573 997)"/><path d="M44.8875 99.0375C44.8875 101.267 43.0798 103.075 40.85 103.075 38.6201 103.075 36.8125 101.267 36.8125 99.0375 36.8125 96.8076 38.6201 95 40.85 95 43.0798 95 44.8875 96.8076 44.8875 99.0375Z" fill="#2D3E50" transform="matrix(-1 0 0 1 3573 997)"/><path d="M48.925 114C48.925 117.017 46.4793 119.462 43.4625 119.462 40.4456 119.462 38 117.017 38 114 38 110.983 40.4456 108.537 43.4625 108.537 46.4793 108.537 48.925 110.983 48.925 114Z" fill="#2D3E50" transform="matrix(-1 0 0 1 3573 997)"/><path d="M102.125 173.137 85.025 155.087 94.525 143.212 94.525 142.975 80.0375 144.4 80.5125 124.212C74.8125 126.112 69.1125 128.25 63.65 130.862 62.7 131.812 61.9875 133.237 61.75 134.662L61.75 157.462 76.95 191.9C77.425 192.85 77.6625 193.8 77.9 194.75L102.125 194.75 102.125 173.137Z" fill="#2D3E50" transform="matrix(-1 0 0 1 3573 997)"/><path d="M106.875 171 106.875 194.75 121.125 194.75 121.125 171 138.225 121.6C130.15 119.7 122.075 118.75 114 118.75 105.925 118.75 97.85 119.7 90.0125 121.6L106.875 171Z" fill="#2D3E50" transform="matrix(-1 0 0 1 3573 997)"/><path d="M182.4 141.55C171.95 133.475 160.075 127.775 147.487 124.212L147.962 144.4 133.475 142.975 133.475 143.212 142.975 155.087 125.875 173.137 125.875 194.75 190 194.75 190 156.75C189.762 150.812 187.15 145.112 182.4 141.55Z" fill="#2D3E50" transform="matrix(-1 0 0 1 3573 997)"/></g></g></g><g clip-path="url(#clip7)"><g clip-path="url(#clip8)"><g clip-path="url(#clip9)"><path d="M166 77.8125C166 100.732 147.42 119.312 124.5 119.312 101.58 119.312 83 100.732 83 77.8125 83 54.8927 101.58 36.3125 124.5 36.3125 147.42 36.3125 166 54.8927 166 77.8125Z" fill="#2D3E50" transform="matrix(-1 0 0 1 3468 1038)"/><path d="M207.5 212.687 207.5 171.187C207.5 164.962 204.387 158.737 199.2 154.587 187.787 145.25 173.262 139.025 158.737 134.875 148.362 131.762 136.95 129.687 124.5 129.687 113.087 129.687 101.675 131.762 90.2625 134.875 75.7375 139.025 61.2125 146.287 49.8 154.587 44.6125 158.737 41.5 164.962 41.5 171.187L41.5 212.687 207.5 212.687Z" fill="#2D3E50" transform="matrix(-1 0 0 1 3468 1038)"/></g></g></g><path d="M1380.5 1084.25 1530 1084.25 1530 1059.5 1579.5 1109 1530 1158.5 1530 1133.75 1380.5 1133.75Z" stroke="#1E2B38" stroke-width="4.58333" stroke-miterlimit="8" fill="#2D3E50" fill-rule="evenodd"/><path d="M1510.5 1221.75 1361 1221.75 1361 1246.5 1311.5 1197 1361 1147.5 1361 1172.25 1510.5 1172.25Z" stroke="#1E2B38" stroke-width="4.58333" stroke-miterlimit="8" fill="#2D3E50" fill-rule="evenodd"/><path d="M1741 1162C1741 1023.38 1853.15 911 1991.5 911 2129.85 911 2242 1023.38 2242 1162 2242 1300.62 2129.85 1413 1991.5 1413 1853.15 1413 1741 1300.62 1741 1162Z" fill="#1FC2A7" fill-rule="evenodd" fill-opacity="0.501961"/><path d="M1766 962.5C1766 911.966 1806.97 871 1857.5 871 1908.03 871 1949 911.966 1949 962.5 1949 1013.03 1908.03 1054 1857.5 1054 1806.97 1054 1766 1013.03 1766 962.5Z" fill="#CAF3FC" fill-rule="evenodd"/><path d="M1833.97 957.755C1832.44 956.48 1831.7 955.424 1827.93 958.547 1824.17 961.67 1816.02 969.72 1811.38 976.494 1806.74 983.268 1802.06 993.605 1800.09 999.192 1798.12 1004.78 1798.03 1006.85 1799.56 1010.01 1801.09 1013.18 1803.59 1014.72 1809.28 1018.19 1814.97 1021.67 1833.71 1030.86 1833.71 1030.86 1840.89 1034.51 1846.76 1039.04 1852.36 1040.1 1857.97 1041.16 1860.46 1040.1 1867.34 1037.2 1874.21 1034.29 1886.12 1026.95 1893.61 1022.68 1901.1 1018.41 1908.71 1015.11 1912.26 1011.6 1915.81 1008.08 1916.03 1005.61 1914.89 1001.57 1913.75 997.52 1912.83 993.649 1908.58 987.315 1904.34 980.981 1894.4 968.532 1889.4 963.562 1884.41 958.591 1881.66 955.864 1878.63 957.491 1875.61 959.119 1874.52 966.597 1871.28 973.327 1868.04 980.057 1862 993.385 1859.19 997.872 1856.39 1002.36 1856.79 1002.36 1854.47 1000.25 1852.15 998.136 1848.42 991.362 1845.27 985.203 1842.12 979.045 1838.75 970.864 1837.13 966.201 1835.51 961.538 1835.51 959.031 1833.97 957.755Z" stroke="#0684A2" stroke-width="4.58333" stroke-miterlimit="8" fill="#0BB5DD" fill-rule="evenodd"/><path d="M1824.5 919.5C1824.5 901.827 1838.6 887.5 1856 887.5 1873.4 887.5 1887.5 901.827 1887.5 919.5 1887.5 937.173 1873.4 951.5 1856 951.5 1838.6 951.5 1824.5 937.173 1824.5 919.5Z" stroke="#0684A2" stroke-width="4.58333" stroke-miterlimit="8" fill="#0BB5DD" fill-rule="evenodd"/><g clip-path="url(#clip10)"><g clip-path="url(#clip11)"><g clip-path="url(#clip12)"><path d="M60.9333 23.5333C59.4666 23 53.0666 21 48 21 43.8 21 34.2 23.1333 32 23.6 29.8 23.1333 20.2 21 16 21 11 21 4.6 23 3.06666 23.5333 2.86666 23.6 2.66666 23.8 2.66666 24.0666L2.66666 26.8C2.66666 27.2666 2.8 27.8 3.2 28.0666L4 28.7333C4.06666 31.4 4.4 35.4 5.59999 37.3333 7.13333 40 11.8667 43 16.6666 43 25.1333 43 29.1333 36.6 30.6 30.7333 30.7333 30.1333 31.3333 29.6666 32 29.6666 32.6666 29.6666 33.2 30.1333 33.4 30.7333 34.9333 36.6 38.9333 43 47.3333 43 52.1333 43 56.8666 40 58.3999 37.3333 59.5333 35.3333 59.8666 31.4 59.9999 28.7333L60.7999 28.1333C61.1999 27.8666 61.3333 27.2666 61.3333 26.8666L61.3333 24.1333C61.2666 23.8 61.1333 23.6 60.9333 23.5333ZM26.6 30.2C25.4666 34.2 23.8 39.6666 16.6666 39.6666 13.6 39.6666 10.2667 38.2 8.86666 36.0666 7.93332 34.6 7.99999 31.0666 7.99999 28 7.99999 27.0666 8.59999 26.2666 9.53332 26 11.5333 25.4666 13.9333 25 16 25 17.6 25 20.8 25.4666 23.9333 26.0666 25.8666 26.4 27.1333 28.3333 26.6 30.2ZM55.1333 36.0666C53.7333 38.2 50.3999 39.6666 47.3333 39.6666 40.2666 39.6666 38.5333 34.2 37.4 30.2 36.8666 28.3333 38.1333 26.4 40 26.0666 43.1333 25.4666 46.3333 25 47.9333 25 50.0666 25 52.3999 25.4666 54.3999 26 55.3333 26.2666 55.9333 27.0666 55.9333 28 55.9999 31.0666 56.0666 34.6 55.1333 36.0666Z" stroke="#0888A6" stroke-width="0.666666" fill="#FFFFFF" transform="matrix(1.07813 0 0 1 1821 888)"/></g></g></g><path d="M1859.55 963.699 1861.72 956.699 1848.72 956.699 1850.88 963.699Z" stroke="#0684A2" stroke-width="4.58333" stroke-miterlimit="8" fill="#0BB5DD" fill-rule="evenodd"/><path d="M1861.5 997.157 1859.33 966.5 1850.67 966.5 1848.5 997.157 1855 1003.5 1861.5 997.157Z" stroke="#0684A2" stroke-width="4.58333" stroke-miterlimit="8" fill="#0BB5DD" fill-rule="evenodd"/><path d="M1882 984 1882 1000.08" stroke="#0888A6" stroke-width="13.75" stroke-linecap="round" stroke-miterlimit="8" fill="none" fill-rule="evenodd"/><path d="M1887 986 1887 1002.08" stroke="#0888A6" stroke-width="13.75" stroke-linecap="round" stroke-miterlimit="8" fill="none" fill-rule="evenodd"/><path d="M1887.11 1006.5 1883.89 1006.5C1879.26 1006.5 1875.5 1002.54 1875.5 997.653L1875.5 990.5 1895.5 990.5 1895.5 997.653C1895.5 1002.54 1891.74 1006.5 1887.11 1006.5Z" stroke="#0684A2" stroke-width="4.58333" stroke-miterlimit="8" fill="#0BB5DD" fill-rule="evenodd"/><path d="M1786.5 1219.82C1786.5 1201.97 1800.97 1187.5 1818.82 1187.5L2296.18 1187.5C2314.03 1187.5 2328.5 1201.97 2328.5 1219.82L2328.5 1252.18C2328.5 1270.03 2314.03 1284.5 2296.18 1284.5L1818.82 1284.5C1800.97 1284.5 1786.5 1270.03 1786.5 1252.18Z" stroke="#0684A2" stroke-width="4.58333" stroke-miterlimit="8" fill="#0BB5DD" fill-rule="evenodd"/><path d="M1829.5 1237C1829.5 1221.26 1842.26 1208.5 1858 1208.5 1873.74 1208.5 1886.5 1221.26 1886.5 1237 1886.5 1252.74 1873.74 1265.5 1858 1265.5 1842.26 1265.5 1829.5 1252.74 1829.5 1237Z" stroke="#0684A2" stroke-width="4.58333" stroke-miterlimit="8" fill="#FFFFFF" fill-rule="evenodd"/><path d="M1929.5 1237C1929.5 1221.26 1942.26 1208.5 1958 1208.5 1973.74 1208.5 1986.5 1221.26 1986.5 1237 1986.5 1252.74 1973.74 1265.5 1958 1265.5 1942.26 1265.5 1929.5 1252.74 1929.5 1237Z" stroke="#0684A2" stroke-width="4.58333" stroke-miterlimit="8" fill="#FFFFFF" fill-rule="evenodd"/><path d="M2030.5 1237C2030.5 1221.26 2043.26 1208.5 2059 1208.5 2074.74 1208.5 2087.5 1221.26 2087.5 1237 2087.5 1252.74 2074.74 1265.5 2059 1265.5 2043.26 1265.5 2030.5 1252.74 2030.5 1237Z" stroke="#0684A2" stroke-width="4.58333" stroke-miterlimit="8" fill="#FFFFFF" fill-rule="evenodd"/><path d="M2131.5 1237C2131.5 1221.26 2144.26 1208.5 2160 1208.5 2175.74 1208.5 2188.5 1221.26 2188.5 1237 2188.5 1252.74 2175.74 1265.5 2160 1265.5 2144.26 1265.5 2131.5 1252.74 2131.5 1237Z" stroke="#0684A2" stroke-width="4.58333" stroke-miterlimit="8" fill="#FFFFFF" fill-rule="evenodd"/><rect x="1840.5" y="1284.5" width="34" height="68.0001" stroke="#0684A2" stroke-width="4.58333" stroke-miterlimit="8" fill="#0BB5DD"/><path d="M2233.5 1237C2233.5 1221.26 2246.26 1208.5 2262 1208.5 2277.74 1208.5 2290.5 1221.26 2290.5 1237 2290.5 1252.74 2277.74 1265.5 2262 1265.5 2246.26 1265.5 2233.5 1252.74 2233.5 1237Z" stroke="#0684A2" stroke-width="4.58333" stroke-miterlimit="8" fill="#FFFFFF" fill-rule="evenodd"/><rect x="2233.5" y="1284.5" width="33" height="68.0001" stroke="#0684A2" stroke-width="4.58333" stroke-miterlimit="8" fill="#0BB5DD"/><rect x="2203.5" y="1133.5" width="16.0002" height="33" stroke="#0684A2" stroke-width="6.875" stroke-miterlimit="8" fill="#0BB5DD"/><rect x="2223.5" y="1124.5" width="16.0002" height="41.9999" stroke="#0684A2" stroke-width="6.875" stroke-miterlimit="8" fill="#0BB5DD"/><rect x="2242.5" y="1116.5" width="15.9998" height="49.9999" stroke="#0684A2" stroke-width="6.875" stroke-miterlimit="8" fill="#0BB5DD"/><path d="M2196.34 1148.9C2169.82 1149.36 2147.94 1128.23 2147.48 1101.71 2147.02 1075.18 2168.15 1053.31 2194.67 1052.85 2221.2 1052.38 2243.07 1073.51 2243.53 1100.04 2243.55 1101.24 2243.53 1102.45 2243.46 1103.65" stroke="#0BB5DD" stroke-width="6.875" stroke-linecap="round" stroke-miterlimit="8" fill="none" fill-rule="evenodd"/><path d="M0 0 9.58891 10.5969" stroke="#0BB5DD" stroke-width="6.875" stroke-linecap="round" stroke-miterlimit="8" fill="none" fill-rule="evenodd" transform="matrix(1 0 0 -1 2243.5 1106.1)"/><path d="M0 0 9.58891 10.5969" stroke="#0BB5DD" stroke-width="6.875" stroke-linecap="round" stroke-miterlimit="8" fill="none" fill-rule="evenodd" transform="matrix(-1.83697e-16 -1 -1 1.83697e-16 2243.1 1106.09)"/><path d="M2176.11 1112.8C2173.95 1108.99 2173.93 1100.56 2176.24 1095.51 2178.55 1090.47 2182.84 1083.37 2194.77 1083.2 2198.92 1083.14 2205 1082.16 2208.9 1081.22 2212.8 1080.27 2216.46 1077.44 2218.18 1077.5 2219.91 1077.56 2219.54 1079.18 2219.26 1081.58 2218.98 1083.97 2217.72 1088.81 2216.51 1091.88 2215.3 1094.94 2211.98 1103.85 2209.46 1107.92 2206.95 1111.99 2204.82 1114.56 2201.44 1116.3 2198.06 1118.03 2193.4 1118.9 2189.18 1118.32 2184.96 1117.74 2178.26 1116.6 2176.11 1112.8Z" stroke="#2D3E50" stroke-width="6.875" stroke-linecap="round" stroke-miterlimit="8" fill="none" fill-rule="evenodd"/><path d="M2171.5 1124.5C2173.54 1115.47 2175.57 1106.44 2193.5 1100.5" stroke="#2D3E50" stroke-width="6.875" stroke-linecap="round" stroke-miterlimit="8" fill="none" fill-rule="evenodd"/><rect x="2119.5" y="1046.5" width="22" height="10" stroke="#0684A2" stroke-width="6.875" stroke-miterlimit="8" fill="#0BB5DD"/><path d="M2141.5 1051.5 2159.19 1051.5" stroke="#0BB5DD" stroke-width="6.875" stroke-miterlimit="8" fill="none" fill-rule="evenodd"/><path d="M2159.5 1051.5 2166.97 1081.89" stroke="#0BB5DD" stroke-width="6.875" stroke-miterlimit="8" fill="none" fill-rule="evenodd"/><rect x="2135.5" y="1148.5" width="23" height="10" stroke="#0684A2" stroke-width="6.875" stroke-miterlimit="8" fill="#0BB5DD"/><path d="M2158.5 1153.5 2174.41 1153.5" stroke="#0BB5DD" stroke-width="6.875" stroke-miterlimit="8" fill="none" fill-rule="evenodd"/><path d="M0 0 7.47408 30.39" stroke="#0BB5DD" stroke-width="6.875" stroke-miterlimit="8" fill="none" fill-rule="evenodd" transform="matrix(1 0 0 -1 2174.5 1152.89)"/><rect x="2255.5" y="1065.5" width="22" height="10" stroke="#0684A2" stroke-width="6.875" stroke-miterlimit="8" fill="#0BB5DD"/><path d="M2243.5 1070.5 2255.12 1070.5" stroke="#0BB5DD" stroke-width="6.875" stroke-miterlimit="8" fill="none" fill-rule="evenodd"/><path d="M0 0 32.7658 17.4502" stroke="#0BB5DD" stroke-width="6.875" stroke-miterlimit="8" fill="none" fill-rule="evenodd" transform="matrix(1 0 0 -1 2210.5 1087.95)"/><path d="M2251.32 1011.26C2253.52 1011.26 2255.75 1011.88 2257.72 1013.15 2260.37 1015.01 2262.01 1017.7 2262.52 1020.6 2263.04 1023.5 2262.42 1026.59 2260.57 1029.25L2244.02 1052.93C2241.77 1056.16 2238.24 1057.78 2234.58 1057.76L2232.12 1061.28 2230.93 1060.21C2229.35 1058.9 2227.71 1057.67 2226.01 1056.52L2221.55 1053.81 2223.97 1050.35C2222.7 1046.92 2223.01 1043.05 2225.26 1039.82L2241.81 1016.14C2244.04 1012.94 2247.65 1011.25 2251.32 1011.26Z" stroke="#0BB5DD" stroke-width="6.875" stroke-linecap="round" stroke-miterlimit="8" fill="none" fill-rule="evenodd"/><path d="M1656.11 1112.8C1653.95 1108.99 1653.93 1100.56 1656.24 1095.51 1658.55 1090.47 1662.84 1083.37 1674.77 1083.2 1678.92 1083.14 1685 1082.16 1688.9 1081.22 1692.8 1080.27 1696.46 1077.44 1698.18 1077.5 1699.91 1077.56 1699.54 1079.18 1699.26 1081.58 1698.98 1083.97 1697.72 1088.81 1696.51 1091.88 1695.3 1094.94 1691.98 1103.85 1689.46 1107.92 1686.95 1111.99 1684.82 1114.56 1681.44 1116.3 1678.06 1118.03 1673.4 1118.9 1669.18 1118.32 1664.96 1117.74 1658.26 1116.6 1656.11 1112.8Z" stroke="#2D3E50" stroke-width="6.875" stroke-linecap="round" stroke-miterlimit="8" fill="none" fill-rule="evenodd"/><path d="M1651.5 1125.5C1653.54 1116.47 1655.57 1107.44 1673.5 1101.5" stroke="#2D3E50" stroke-width="6.875" stroke-linecap="round" stroke-miterlimit="8" fill="none" fill-rule="evenodd"/><rect x="1930.5" y="1132.5" width="16.0001" height="33" stroke="#0684A2" stroke-width="6.875" stroke-miterlimit="8" fill="#0BB5DD"/><rect x="1949.5" y="1123.5" width="16.0001" height="42.0002" stroke="#0684A2" stroke-width="6.875" stroke-miterlimit="8" fill="#0BB5DD"/><rect x="1968.5" y="1115.5" width="16.9999" height="50.0002" stroke="#0684A2" stroke-width="6.875" stroke-miterlimit="8" fill="#0BB5DD"/><path d="M1902.11 1111.8C1899.95 1107.99 1899.93 1099.56 1902.24 1094.51 1904.55 1089.47 1908.84 1082.37 1920.77 1082.2 1924.92 1082.14 1931 1081.16 1934.9 1080.22 1938.8 1079.27 1942.46 1076.44 1944.18 1076.5 1945.91 1076.56 1945.54 1078.18 1945.26 1080.58 1944.98 1082.97 1943.72 1087.81 1942.51 1090.88 1941.3 1093.94 1937.98 1102.85 1935.46 1106.92 1932.95 1110.99 1930.82 1113.56 1927.44 1115.3 1924.06 1117.03 1919.4 1117.9 1915.18 1117.32 1910.96 1116.74 1904.26 1115.6 1902.11 1111.8Z" stroke="#2D3E50" stroke-width="6.875" stroke-linecap="round" stroke-miterlimit="8" fill="none" fill-rule="evenodd"/><path d="M1897.5 1123.5C1899.54 1114.85 1901.57 1106.19 1919.5 1100.5" stroke="#2D3E50" stroke-width="6.875" stroke-linecap="round" stroke-miterlimit="8" fill="none" fill-rule="evenodd"/><rect x="1862.5" y="1147.5" width="22" height="10" stroke="#0684A2" stroke-width="6.875" stroke-miterlimit="8" fill="#0BB5DD"/><path d="M1884.5 1152.5 1900.41 1152.5" stroke="#0BB5DD" stroke-width="6.875" stroke-miterlimit="8" fill="none" fill-rule="evenodd"/><path d="M0 0 7.47408 30.3897" stroke="#0BB5DD" stroke-width="6.875" stroke-miterlimit="8" fill="none" fill-rule="evenodd" transform="matrix(1 0 0 -1 1900.5 1151.89)"/><path d="M1777.5 1097.25 1803 1097.25 1803 1091.5 1814.5 1103 1803 1114.5 1803 1108.75 1777.5 1108.75Z" stroke="#0684A2" stroke-width="4.58333" stroke-miterlimit="8" fill="#0BB5DD" fill-rule="evenodd"/><path d="M2037.5 1101.25 2064 1101.25 2064 1095.5 2075.5 1107 2064 1118.5 2064 1112.75 2037.5 1112.75Z" stroke="#0684A2" stroke-width="4.58333" stroke-miterlimit="8" fill="#0BB5DD" fill-rule="evenodd"/><text fill="#595959" font-family="Calibri,Calibri_MSFontService,sans-serif" font-weight="400" font-size="83" transform="matrix(1 0 0 1 2490.82 1620)">consultation</text><path d="M275.237 9.07523 294.599 4.09198 314.344-0.0420884 334.052-3.16569 353.664-5.39382 373.328-6.61204 392.888-6.93659 412.327-6.37203 431.605-4.85353 450.714-2.51114 469.601 0.724173 488.239 4.85068 506.582 9.73175 524.695 15.4441 542.443 21.988 559.794 29.2892 576.784 37.4256 593.304 46.2495 609.451 55.8404 625.042 66.1403 640.116 77.1345 654.681 88.8282 668.634 101.24 681.99 114.268 694.67 127.955 706.702 142.266 718.043 157.224 728.622 172.758 738.441 188.936 747.429 205.617 755.591 222.876 762.919 240.63 769.363 258.975 769.614 259.796 756.425 263.685 756.387 263.525 750.206 245.87 743.159 228.749 735.321 212.133 726.684 196.064 717.253 180.492 707.082 165.526 696.173 151.109 684.58 137.295 672.385 124.107 659.491 111.51 646.069 99.5468 632.009 88.2405 617.458 77.6097 602.424 67.6596 586.821 58.3754 570.841 49.8244 554.456 41.9608 537.682 34.887 520.555 28.5559 503.042 23.0182 485.261 18.2743 467.274 14.2758 449.036 11.1361 430.52 8.85353 411.923 7.37203 393.112 6.81159 374.172 7.11204 355.211 8.26882 336.198 10.4157 317.157 13.4171 298.026 17.408 278.664 22.3913ZM781.105 217.011 766.88 274.827 723.554 233.986C720.791 231.381 720.663 227.03 723.268 224.267 725.872 221.504 730.223 221.376 732.986 223.98L767.735 256.738 756.344 260.098 767.753 213.726C768.66 210.039 772.385 207.785 776.072 208.692 779.759 209.599 782.012 213.324 781.105 217.011Z" fill="#595959" transform="matrix(0.874666 0.484727 0.484727 -0.874666 2149.43 1233.19)"/><text fill="#595959" font-family="Calibri,Calibri_MSFontService,sans-serif" font-weight="400" font-size="83" transform="matrix(1 0 0 1 2545.91 670)">feedback</text><path d="M708.5 1159C708.5 1020.1 821.1 907.5 960 907.5 1098.9 907.5 1211.5 1020.1 1211.5 1159 1211.5 1297.9 1098.9 1410.5 960 1410.5 821.1 1410.5 708.5 1297.9 708.5 1159Z" stroke="#1E2B38" stroke-width="4.58333" stroke-miterlimit="8" fill="#2D3E50" fill-rule="evenodd"/><path d="M995.25 1121.55C993.573 1118.58 993.559 1112 995.355 1108.06 997.151 1104.12 1000.49 1098.58 1009.77 1098.45 1012.99 1098.4 1017.72 1097.64 1020.75 1096.9 1023.79 1096.16 1026.63 1093.95 1027.98 1094 1029.32 1094.05 1029.03 1095.31 1028.81 1097.18 1028.6 1099.05 1027.61 1102.83 1026.67 1105.22 1025.73 1107.61 1023.15 1114.57 1021.19 1117.75 1019.24 1120.92 1017.58 1122.93 1014.95 1124.28 1012.32 1125.63 1008.7 1126.31 1005.42 1125.86 1002.13 1125.4 996.927 1124.51 995.25 1121.55Z" stroke="#2D3E50" stroke-width="13.75" stroke-linecap="round" stroke-miterlimit="8" fill="none" fill-rule="evenodd"/><path d="M989 1136C990.574 1129.23 992.148 1122.46 1006 1118" stroke="#2D3E50" stroke-width="13.75" stroke-linecap="round" stroke-miterlimit="8" fill="none" fill-rule="evenodd"/><path d="M902.036 1156.08C900.646 1154.13 900.635 1149.81 902.123 1147.23 903.61 1144.64 906.375 1141.01 914.065 1140.92 916.737 1140.89 920.654 1140.39 923.168 1139.9 925.683 1139.42 928.038 1137.97 929.151 1138 930.264 1138.03 930.026 1138.86 929.846 1140.09 929.666 1141.32 928.851 1143.79 928.071 1145.36 927.292 1146.93 925.151 1151.5 923.532 1153.58 921.914 1155.67 920.54 1156.98 918.361 1157.87 916.182 1158.76 913.181 1159.21 910.46 1158.91 907.739 1158.61 903.425 1158.03 902.036 1156.08Z" stroke="#2D3E50" stroke-width="13.75" stroke-linecap="round" stroke-miterlimit="8" fill="none" fill-rule="evenodd"/><path d="M898 1166C899.204 1161.49 900.407 1156.97 911 1154" stroke="#2D3E50" stroke-width="13.75" stroke-linecap="round" stroke-miterlimit="8" fill="none" fill-rule="evenodd"/><path d="M947 1221.08C945.658 1219.13 945.647 1214.81 947.084 1212.23 948.52 1209.64 951.189 1206.01 958.615 1205.92 961.194 1205.89 964.976 1205.39 967.404 1204.9 969.831 1204.42 972.106 1202.97 973.18 1203 974.255 1203.03 974.025 1203.86 973.852 1205.09 973.678 1206.32 972.891 1208.79 972.138 1210.36 971.385 1211.93 969.318 1216.5 967.755 1218.58 966.193 1220.67 964.866 1221.98 962.762 1222.87 960.659 1223.76 957.761 1224.21 955.134 1223.91 952.507 1223.61 948.342 1223.03 947 1221.08Z" stroke="#2D3E50" stroke-width="13.75" stroke-linecap="round" stroke-miterlimit="8" fill="none" fill-rule="evenodd"/><path d="M942 1231C943.296 1226.49 944.592 1221.97 956 1219" stroke="#2D3E50" stroke-width="13.75" stroke-linecap="round" stroke-miterlimit="8" fill="none" fill-rule="evenodd"/><path d="M943.033 960.562C1052.63 952.317 1148.17 1034.25 1156.44 1143.57 1157.35 1155.68 1157.15 1167.84 1155.84 1179.92" stroke="#FFC000" stroke-width="13.75" stroke-miterlimit="8" fill="none" fill-rule="evenodd"/><path d="M977.591 1357.22C868.116 1366.91 771.494 1286.25 761.779 1177.05 760.625 1164.08 760.754 1151.03 762.162 1138.08" stroke="#0BB5DD" stroke-width="13.75" stroke-miterlimit="8" fill="none" fill-rule="evenodd"/><path d="M875 966.5C875 947.998 889.998 933 908.5 933 927.001 933 942 947.998 942 966.5 942 985.002 927.001 1000 908.5 1000 889.998 1000 875 985.002 875 966.5Z" stroke="#FFC000" stroke-width="13.75" stroke-miterlimit="8" fill="#FFFFFF" fill-rule="evenodd"/><path d="M1064 1016.5C1064 997.999 1079 983 1097.5 983 1116 983 1131 997.999 1131 1016.5 1131 1035 1116 1050 1097.5 1050 1079 1050 1064 1035 1064 1016.5Z" stroke="#FFC000" stroke-width="13.75" stroke-miterlimit="8" fill="#FFFFFF" fill-rule="evenodd"/><path d="M1118 1210.5C1118 1192 1133 1177 1151.5 1177 1170 1177 1185 1192 1185 1210.5 1185 1229 1170 1244 1151.5 1244 1133 1244 1118 1229 1118 1210.5Z" stroke="#FFC000" stroke-width="13.75" stroke-miterlimit="8" fill="#FFFFFF" fill-rule="evenodd"/><path d="M977 1350.5C977 1332 991.998 1317 1010.5 1317 1029 1317 1044 1332 1044 1350.5 1044 1369 1029 1384 1010.5 1384 991.998 1384 977 1369 977 1350.5Z" stroke="#0BB5DD" stroke-width="10.3125" stroke-miterlimit="8" fill="#FFFFFF" fill-rule="evenodd"/><path d="M783 1294.5C783 1276 797.999 1261 816.5 1261 835.002 1261 850 1276 850 1294.5 850 1313 835.002 1328 816.5 1328 797.999 1328 783 1313 783 1294.5Z" stroke="#0BB5DD" stroke-width="10.3125" stroke-miterlimit="8" fill="#FFFFFF" fill-rule="evenodd"/><path d="M735 1107.5C735 1089 749.998 1074 768.5 1074 787.002 1074 802 1089 802 1107.5 802 1126 787.002 1141 768.5 1141 749.998 1141 735 1126 735 1107.5Z" stroke="#0BB5DD" stroke-width="10.3125" stroke-miterlimit="8" fill="#FFFFFF" fill-rule="evenodd"/><g clip-path="url(#clip13)"><g clip-path="url(#clip14)"><g clip-path="url(#clip15)"><path d="M1007.72 1369.48C1007.44 1369.48 1007.09 1369.42 1006.86 1369.19 1006.41 1368.79 1006.35 1368.05 1006.75 1367.59L1008.98 1365.01C1009.39 1364.55 1010.13 1364.49 1010.59 1364.9 1011.05 1365.3 1011.1 1366.04 1010.7 1366.5L1008.47 1369.08C1008.3 1369.31 1008.01 1369.42 1007.72 1369.48Z" fill="#0BB5DD"/><path d="M1004.23 1368.16C1003.83 1368.22 1003.48 1368.1 1003.14 1367.82 1002.57 1367.3 1002.51 1366.39 1003.03 1365.81L1005.66 1362.78C1006.18 1362.2 1007.09 1362.15 1007.67 1362.66 1008.24 1363.18 1008.3 1364.09 1007.78 1364.67L1005.15 1367.7C1004.92 1367.99 1004.57 1368.16 1004.23 1368.16Z" fill="#0BB5DD"/><path d="M1000.62 1366.04C1000.16 1366.1 999.703 1365.93 999.359 1365.64 998.672 1365.01 998.557 1363.92 999.188 1363.23L1001.82 1360.2C1002.45 1359.51 1003.54 1359.4 1004.23 1360.03 1004.92 1360.66 1005.03 1361.74 1004.4 1362.43L1001.77 1365.47C1001.48 1365.81 1001.02 1366.04 1000.62 1366.04Z" fill="#0BB5DD"/><path d="M996.438 1363.92C995.979 1363.98 995.521 1363.81 995.177 1363.52 994.49 1362.89 994.375 1361.8 995.005 1361.11L998.042 1357.68C998.672 1356.99 999.761 1356.87 1000.45 1357.51 1001.14 1358.14 1001.25 1359.22 1000.62 1359.91L997.583 1363.35C997.24 1363.69 996.839 1363.86 996.438 1363.92Z" fill="#0BB5DD"/><path d="M984.636 1351.32 989.047 1354.01C989.563 1354.35 990.307 1354.18 990.594 1353.61L995.922 1344.79C996.266 1344.27 996.094 1343.53 995.521 1343.24L991.167 1340.55 984.636 1351.32Z" fill="#0BB5DD"/><path d="M1021.76 1358.82 1012.54 1350.92 1011.91 1350.34 1007.95 1354.87C1007.38 1355.56 1006.58 1355.96 1005.66 1356.02 1005.55 1356.02 1005.43 1356.02 1005.38 1356.02 1004.52 1356.02 1003.71 1355.73 1003.14 1355.16 1001.71 1353.9 1001.59 1351.72 1002.8 1350.29L1006.18 1346.39C1003.54 1346.05 1000.16 1347.42 996.667 1345.7L991.682 1353.95 995.578 1358.48 997.068 1356.76C997.583 1356.13 998.386 1355.79 999.245 1355.79L999.245 1355.79C999.932 1355.79 1000.62 1356.02 1001.14 1356.47 1001.77 1356.99 1002.05 1357.73 1002.11 1358.54 1002.4 1358.42 1002.74 1358.36 1003.08 1358.36 1003.77 1358.36 1004.46 1358.59 1004.97 1359.05 1005.6 1359.62 1005.95 1360.37 1005.95 1361.17 1006.18 1361.11 1006.46 1361.06 1006.69 1361.06L1006.69 1361.06C1007.32 1361.06 1007.9 1361.29 1008.41 1361.69 1008.93 1362.15 1009.21 1362.78 1009.27 1363.46 1009.44 1363.41 1009.67 1363.35 1009.9 1363.35L1009.9 1363.35C1010.47 1363.35 1010.99 1363.52 1011.39 1363.92 1011.85 1364.32 1012.14 1364.9 1012.19 1365.47 1012.25 1366.1 1012.02 1366.67 1011.62 1367.13L1009.67 1369.36 1010.47 1369.99C1010.88 1370.22 1011.33 1370.4 1011.85 1370.34 1013.11 1370.22 1014.03 1369.14 1013.91 1367.87 1013.91 1367.87 1013.91 1367.82 1013.91 1367.82 1014.08 1367.87 1014.31 1367.87 1014.48 1367.87 1015.74 1367.76 1016.66 1366.67 1016.55 1365.41 1016.55 1365.41 1016.55 1365.35 1016.55 1365.35 1016.72 1365.41 1016.95 1365.41 1017.12 1365.41 1018.38 1365.3 1019.3 1364.21 1019.18 1362.95 1019.18 1362.83 1019.13 1362.72 1019.13 1362.6 1019.47 1362.78 1019.87 1362.89 1020.33 1362.83 1021.59 1362.72 1022.51 1361.63 1022.39 1360.37 1022.45 1359.74 1022.16 1359.22 1021.76 1358.82Z" fill="#0BB5DD"/><path d="M1034.36 1351.32 1029.95 1354.01C1029.44 1354.35 1028.69 1354.18 1028.41 1353.61L1023.08 1344.79C1022.73 1344.27 1022.91 1343.53 1023.48 1343.24L1027.89 1340.55 1034.36 1351.32Z" fill="#0BB5DD"/><path d="M1022.39 1345.93C1017.64 1347.65 1014.2 1345.99 1010.36 1345.24 1010.3 1345.24 1010.07 1345.19 1010.07 1345.19 1009.39 1345.13 1008.64 1345.36 1008.13 1345.93L1003.6 1351.09C1002.74 1352.06 1002.85 1353.49 1003.83 1354.3 1004.34 1354.7 1004.92 1354.93 1005.55 1354.87 1006.12 1354.81 1006.69 1354.58 1007.09 1354.07 1007.09 1354.07 1011.79 1348.68 1011.79 1348.68L1022.51 1357.91 1022.51 1357.91 1022.51 1357.91C1022.79 1358.19 1022.91 1358.31 1023.14 1358.65L1027.26 1353.9 1022.39 1345.93Z" fill="#0BB5DD"/></g></g></g><g clip-path="url(#clip16)"><g clip-path="url(#clip17)"><g clip-path="url(#clip18)"><path d="M803.583 1282.83 824.417 1282.83 824.417 1311.17 803.583 1311.17 803.583 1282.83ZM801.083 1313.67 826.917 1313.67 826.917 1280.33 801.083 1280.33 801.083 1313.67Z" fill="#0BB5DD"/><path d="M814.833 1286.58 821.917 1286.58 821.917 1288.25 814.833 1288.25Z" fill="#0BB5DD"/><path d="M814.833 1293.25 821.917 1293.25 821.917 1294.92 814.833 1294.92Z" fill="#0BB5DD"/><path d="M814.833 1306.58 821.917 1306.58 821.917 1308.25 814.833 1308.25Z" fill="#0BB5DD"/><path d="M814.833 1299.92 821.917 1299.92 821.917 1301.58 814.833 1301.58Z" fill="#0BB5DD"/><path d="M812.25 1285.67 811.083 1284.5 808.333 1287.25 807.25 1286.17 806.083 1287.33 808.333 1289.58Z" fill="#0BB5DD"/><path d="M812.25 1292.33 811.083 1291.17 808.333 1293.92 807.25 1292.83 806.083 1294 808.333 1296.25Z" fill="#0BB5DD"/><path d="M812.25 1299 811.083 1297.83 808.333 1300.58 807.25 1299.5 806.083 1300.67 808.333 1302.92Z" fill="#0BB5DD"/><path d="M812.25 1305.58 811.083 1304.42 808.333 1307.17 807.25 1306.08 806.083 1307.25 808.333 1309.5Z" fill="#0BB5DD"/></g></g></g><g clip-path="url(#clip19)"><g clip-path="url(#clip20)"><g clip-path="url(#clip21)"><path d="M778.294 1110.97C778.294 1112.71 776.878 1114.13 775.133 1114.13 773.387 1114.13 771.972 1112.71 771.972 1110.97 771.972 1109.22 773.387 1107.8 775.133 1107.8 776.878 1107.8 778.294 1109.22 778.294 1110.97Z" fill="#0BB5DD"/><path d="M761.438 1110.97C761.438 1112.71 760.023 1114.13 758.277 1114.13 756.532 1114.13 755.117 1112.71 755.117 1110.97 755.117 1109.22 756.532 1107.8 758.277 1107.8 760.023 1107.8 761.438 1109.22 761.438 1110.97Z" fill="#0BB5DD"/><path d="M780.824 1116.86C779.913 1116.16 778.858 1115.65 777.733 1115.39 776.887 1115.14 776.013 1115.01 775.133 1114.98 774.252 1114.98 773.375 1115.12 772.537 1115.39 771.698 1115.61 770.896 1115.96 770.156 1116.41L770.01 1116.58C771.191 1116.9 772.296 1117.45 773.26 1118.2 774.018 1118.76 774.459 1119.65 774.446 1120.59L774.446 1121.31 781.454 1121.31 781.454 1118.13C781.468 1117.63 781.232 1117.16 780.824 1116.86Z" fill="#0BB5DD"/><path d="M758.976 1120.59C758.977 1119.67 759.398 1118.81 760.118 1118.25L760.162 1118.2 760.215 1118.17C761.19 1117.47 762.27 1116.94 763.413 1116.58 763.331 1116.5 763.254 1116.41 763.181 1116.32 762.46 1115.9 761.683 1115.59 760.873 1115.39 760.029 1115.14 759.157 1115.01 758.277 1114.98 757.395 1114.98 756.517 1115.12 755.677 1115.39 754.568 1115.7 753.522 1116.19 752.586 1116.86 752.192 1117.17 751.958 1117.63 751.952 1118.13L751.952 1121.31 758.976 1121.31Z" fill="#0BB5DD"/><path d="M760.382 1123.75 760.382 1120.59C760.384 1120.09 760.618 1119.62 761.016 1119.33 761.95 1118.65 762.997 1118.15 764.107 1117.85 764.945 1117.58 765.822 1117.44 766.703 1117.45 767.584 1117.47 768.458 1117.6 769.303 1117.85 770.429 1118.11 771.485 1118.61 772.395 1119.33 772.804 1119.61 773.042 1120.09 773.029 1120.59L773.029 1123.75Z" fill="#0BB5DD"/><path d="M769.864 1113.42C769.864 1115.17 768.449 1116.58 766.703 1116.58 764.958 1116.58 763.543 1115.17 763.543 1113.42 763.543 1111.68 764.958 1110.26 766.703 1110.26 768.449 1110.26 769.864 1111.68 769.864 1113.42Z" fill="#0BB5DD"/><path d="M779.906 1091.25 753.602 1091.25C752.704 1091.25 751.977 1091.98 751.977 1092.88L751.977 1101.81C751.977 1102.71 752.704 1103.44 753.602 1103.44L759.594 1103.44 759.594 1105.88 762.153 1103.44 764.916 1103.44 766.5 1105.88 767.963 1103.44 770.847 1103.44 773.406 1105.88 773.406 1103.44 779.906 1103.44C780.804 1103.44 781.531 1102.71 781.531 1101.81L781.531 1092.88C781.531 1091.98 780.804 1091.25 779.906 1091.25ZM756.039 1094.91 775.031 1094.91 775.031 1095.72 756.039 1095.72ZM770.969 1099.78 756.039 1099.78 756.039 1098.97 770.969 1098.97ZM777.469 1097.75 756.039 1097.75 756.039 1096.94 777.469 1096.94Z" fill="#0BB5DD"/></g></g></g><path d="M1081.5 999.023C1081.5 997.622 1088.05 996.5 1096 996.5 1103.95 996.5 1110.5 997.622 1110.5 999.023 1110.5 1008.98 1110.5 1008.98 1110.5 1008.98 1110.5 1010.38 1103.95 1011.5 1096 1011.5 1088.05 1011.5 1081.5 1010.38 1081.5 1008.98L1081.5 999.023Z" stroke="#BC8C00" stroke-width="4.58333" stroke-miterlimit="8" fill="#FFC000" fill-rule="evenodd"/><path d="M1081.5 1017.02C1081.5 1015.62 1088.05 1014.5 1096 1014.5 1103.95 1014.5 1110.5 1015.62 1110.5 1017.02 1110.5 1026.98 1110.5 1026.98 1110.5 1026.98 1110.5 1028.38 1103.95 1029.5 1096 1029.5 1088.05 1029.5 1081.5 1028.38 1081.5 1026.98L1081.5 1017.02Z" stroke="#BC8C00" stroke-width="4.58333" stroke-miterlimit="8" fill="#FFC000" fill-rule="evenodd"/><path d="M1110.5 1017.5C1110.5 1018.5 1103.95 1019.5 1096 1019.5 1088.05 1019.5 1081.5 1018.5 1081.5 1017.5" stroke="#BC8C00" stroke-width="4.58333" stroke-miterlimit="8" fill="#FFC000" fill-rule="evenodd"/><path d="M1081.5 1017.02C1081.5 1015.62 1088.05 1014.5 1096 1014.5 1103.95 1014.5 1110.5 1015.62 1110.5 1017.02 1110.5 1026.98 1110.5 1026.98 1110.5 1026.98 1110.5 1028.38 1103.95 1029.5 1096 1029.5 1088.05 1029.5 1081.5 1028.38 1081.5 1026.98L1081.5 1017.02Z" stroke="#BC8C00" stroke-width="4.58333" stroke-miterlimit="8" fill="#FFC000" fill-rule="evenodd"/><path d="M1081.5 1008C1081.5 1006.61 1088.05 1005.5 1096 1005.5 1103.95 1005.5 1110.5 1006.61 1110.5 1008 1110.5 1018 1110.5 1018 1110.5 1018 1110.5 1019.39 1103.95 1020.5 1096 1020.5 1088.05 1020.5 1081.5 1019.39 1081.5 1018L1081.5 1008Z" stroke="#BC8C00" stroke-width="4.58333" stroke-miterlimit="8" fill="#FFC000" fill-rule="evenodd"/><path d="M1110.5 1008.5C1110.5 1009.61 1103.95 1010.5 1096 1010.5 1088.05 1010.5 1081.5 1009.61 1081.5 1008.5" stroke="#BC8C00" stroke-width="4.58333" stroke-miterlimit="8" fill="#FFC000" fill-rule="evenodd"/><path d="M1081.5 1008C1081.5 1006.61 1088.05 1005.5 1096 1005.5 1103.95 1005.5 1110.5 1006.61 1110.5 1008 1110.5 1018 1110.5 1018 1110.5 1018 1110.5 1019.39 1103.95 1020.5 1096 1020.5 1088.05 1020.5 1081.5 1019.39 1081.5 1018L1081.5 1008Z" stroke="#BC8C00" stroke-width="4.58333" stroke-miterlimit="8" fill="#FFC000" fill-rule="evenodd"/><path d="M1081.5 999.023C1081.5 997.622 1088.05 996.5 1096 996.5 1103.95 996.5 1110.5 997.622 1110.5 999.023 1110.5 1008.98 1110.5 1008.98 1110.5 1008.98 1110.5 1010.38 1103.95 1011.5 1096 1011.5 1088.05 1011.5 1081.5 1010.38 1081.5 1008.98L1081.5 999.023Z" stroke="#BC8C00" stroke-width="4.58333" stroke-miterlimit="8" fill="#FFC000" fill-rule="evenodd"/><path d="M1110.5 999.5C1110.5 1000.61 1103.95 1001.5 1096 1001.5 1088.05 1001.5 1081.5 1000.61 1081.5 999.5" stroke="#BC8C00" stroke-width="4.58333" stroke-miterlimit="8" fill="#FFC000" fill-rule="evenodd"/><g clip-path="url(#clip22)"><g clip-path="url(#clip23)"><g clip-path="url(#clip24)"><path d="M24.4854 18.9855 21.9879 21.483 19.4865 18.9855 20.8817 18.9855C20.4098 18.0662 19.4638 17.4876 18.4305 17.4862 17.7638 17.487 17.1206 17.7325 16.6229 18.1761L14.083 18.1761C15.2145 15.7727 18.0801 14.7415 20.4836 15.873 21.7662 16.4768 22.7172 17.6157 23.0825 18.9855Z" stroke="#BC8C00" stroke-width="0.986661" fill="#FFC000" transform="matrix(1.00001 0 0 1 1088 1006)"/><path d="M12.3911 21.483 14.8924 18.9855 17.3899 21.483 15.9831 21.483C16.4538 22.4017 17.3983 22.9803 18.4305 22.9823 19.0985 22.9821 19.7431 22.7366 20.242 22.2924L22.7934 22.2924C21.6582 24.6988 18.7872 25.7294 16.3808 24.5942 15.0993 23.9897 14.1489 22.8517 13.7824 21.483Z" stroke="#BC8C00" stroke-width="0.986661" fill="#FFC000" transform="matrix(1.00001 0 0 1 1088 1006)"/><path d="M30.3437 29.2915C33.6718 29.2127 36.306 26.4508 36.2272 23.1227 36.1577 20.1863 33.982 17.7276 31.076 17.3012 30.7689 15.4165 29.7335 13.7278 28.1931 12.5992 26.5987 11.4693 24.6075 11.0507 22.6932 11.443 20.8099 8.53523 17.2976 7.13124 13.9289 7.93953 10.6455 8.78509 8.19213 11.5212 7.70829 14.877 5.52098 14.9357 3.48131 15.9939 2.17374 17.7483 0.624429 19.9004 0.342278 22.7161 1.43374 25.1329 2.54633 27.515 4.87545 29.0954 7.50016 29.2491ZM7.60422 26.8557C5.86026 26.7458 4.31417 25.6959 3.56894 24.1154 2.8458 22.5044 3.03215 20.6306 4.05841 19.1936 5.10766 17.7821 6.85359 17.0695 8.59088 17.3436L9.9591 17.571 9.9591 16.0602C9.97248 13.3306 11.8275 10.9544 14.4723 10.279 17.1261 9.63913 19.8699 10.9183 21.086 13.3623L21.5524 14.2912 22.5198 13.9481C23.9672 13.4367 25.5729 13.661 26.8248 14.5494 28.0696 15.4612 28.8065 16.9107 28.8097 18.4536L28.8097 19.6561 30.3822 19.6561C32.3795 19.7311 33.9379 21.4111 33.8629 23.4084 33.7914 25.3154 32.2513 26.8391 30.3437 26.8904Z" stroke="#BC8C00" stroke-width="0.986661" fill="#FFC000" transform="matrix(1.00001 0 0 1 1088 1006)"/></g></g></g><g clip-path="url(#clip25)"><g clip-path="url(#clip26)"><g clip-path="url(#clip27)"><path d="M30.8853 19.427C28.6978 19.427 26.9791 17.6562 26.9791 15.5208 26.9791 13.3854 28.7499 11.6145 30.8853 11.6145 33.0728 11.6145 34.7916 13.3854 34.7916 15.5208 34.7916 17.6562 33.0207 19.427 30.8853 19.427ZM39.6874 13.0729C39.479 12.3437 39.2186 11.6666 38.854 11.0416L39.6874 8.59372 37.8124 6.71873 35.3645 7.55206C34.7395 7.18748 34.0624 6.92706 33.3332 6.71873L32.1874 4.42707 29.5832 4.42707 28.4374 6.71873C27.7082 6.92706 27.0312 7.18748 26.4062 7.55206L23.9583 6.71873 22.0833 8.59372 22.9166 11.0416C22.552 11.6666 22.2916 12.3437 22.0833 13.0729L19.7916 14.2187 19.7916 16.8229 22.0833 17.9687C22.2916 18.6979 22.552 19.3749 22.9166 19.9999L22.0833 22.4478 23.9062 24.2708 26.3541 23.4374C26.9791 23.802 27.6562 24.0624 28.3853 24.2708L29.5312 26.5624 32.1353 26.5624 33.2811 24.2708C34.0103 24.0624 34.6874 23.802 35.3124 23.4374L37.7603 24.2708 39.6353 22.4478 38.802 19.9999C39.1665 19.3749 39.479 18.6458 39.6874 17.9687L41.979 16.8229 41.979 14.2187 39.6874 13.0729Z" stroke="#BC8C00" stroke-width="0.980387" fill="#FFC000" transform="matrix(1 0 0 1.02001 884 941)"/><path d="M19.1145 38.3853C16.927 38.3853 15.2083 36.6145 15.2083 34.4791 15.2083 32.2916 16.9791 30.5728 19.1145 30.5728 21.302 30.5728 23.0208 32.3436 23.0208 34.4791 23.0208 36.6145 21.302 38.3853 19.1145 38.3853L19.1145 38.3853ZM27.0832 29.9999 27.9166 27.552 26.0416 25.677 23.5937 26.5103C22.9687 26.1457 22.2395 25.8853 21.5624 25.677L20.4166 23.3853 17.8124 23.3853 16.6666 25.677C15.9374 25.8853 15.2604 26.1457 14.6354 26.5103L12.1875 25.677 10.3645 27.4999 11.1458 29.9478C10.7812 30.5728 10.5208 31.302 10.3125 31.9791L8.02081 33.1249 8.02081 35.729 10.3125 36.8749C10.5208 37.604 10.7812 38.2811 11.1458 38.9061L10.3645 41.354 12.1875 43.1769 14.6354 42.3957C15.2604 42.7603 15.9374 43.0207 16.6666 43.229L17.8124 45.5207 20.4166 45.5207 21.5624 43.229C22.2916 43.0207 22.9687 42.7603 23.5937 42.3957L26.0416 43.229 27.8645 41.354 27.0832 38.9582C27.4478 38.3332 27.7082 37.6561 27.9166 36.927L30.2082 35.7811 30.2082 33.177 27.9166 32.0311C27.7082 31.302 27.4478 30.6249 27.0832 29.9999Z" stroke="#BC8C00" stroke-width="0.980387" fill="#FFC000" transform="matrix(1 0 0 1.02001 884 941)"/></g></g></g><path d="M1149.5 1220.5 1152.5 1220.5 1152.5 1224.5 1149.5 1224.5Z" stroke="#BC8C00" stroke-width="4.58333" stroke-miterlimit="8" fill="#FFC000" fill-rule="evenodd"/><path d="M1149.5 1226.5 1152.5 1226.5 1152.5 1228.5 1149.5 1228.5Z" stroke="#BC8C00" stroke-width="4.58333" stroke-miterlimit="8" fill="#FFC000" fill-rule="evenodd"/><path d="M1155.5 1226.5 1170.5 1226.5 1170.5 1228.5 1155.5 1228.5Z" stroke="#BC8C00" stroke-width="4.58333" stroke-miterlimit="8" fill="#FFC000" fill-rule="evenodd"/><path d="M1132.5 1226.5 1147.5 1226.5 1147.5 1228.5 1132.5 1228.5Z" stroke="#BC8C00" stroke-width="4.58333" stroke-miterlimit="8" fill="#FFC000" fill-rule="evenodd"/><path d="M1166.6 1212.5 1136.4 1212.5C1135.35 1212.5 1134.5 1213.3 1134.5 1214.29L1134.5 1218.71C1134.5 1219.7 1135.35 1220.5 1136.4 1220.5L1166.6 1220.5C1167.65 1220.5 1168.5 1219.7 1168.5 1218.71L1168.5 1214.29C1168.5 1213.3 1167.65 1212.5 1166.6 1212.5ZM1139.81 1217.5C1139.23 1217.5 1138.75 1217.05 1138.75 1216.5 1138.75 1215.95 1139.23 1215.5 1139.81 1215.5 1140.4 1215.5 1140.87 1215.95 1140.87 1216.5 1140.87 1217.05 1140.4 1217.5 1139.81 1217.5ZM1145.12 1217.5C1144.54 1217.5 1144.06 1217.05 1144.06 1216.5 1144.06 1215.95 1144.54 1215.5 1145.12 1215.5 1145.71 1215.5 1146.19 1215.95 1146.19 1216.5 1146.19 1217.05 1145.71 1217.5 1145.12 1217.5ZM1150.44 1217.5C1149.85 1217.5 1149.37 1217.05 1149.37 1216.5 1149.37 1215.95 1149.85 1215.5 1150.44 1215.5 1151.02 1215.5 1151.5 1215.95 1151.5 1216.5 1151.5 1217.05 1151.02 1217.5 1150.44 1217.5Z" stroke="#BC8C00" stroke-width="4.58333" stroke-miterlimit="8" fill="#FFC000" fill-rule="evenodd"/><path d="M1166.6 1202.5 1136.4 1202.5C1135.35 1202.5 1134.5 1203.3 1134.5 1204.29L1134.5 1208.71C1134.5 1209.7 1135.35 1210.5 1136.4 1210.5L1166.6 1210.5C1167.65 1210.5 1168.5 1209.7 1168.5 1208.71L1168.5 1204.29C1168.5 1203.3 1167.65 1202.5 1166.6 1202.5ZM1139.81 1207.5C1139.23 1207.5 1138.75 1207.05 1138.75 1206.5 1138.75 1205.95 1139.23 1205.5 1139.81 1205.5 1140.4 1205.5 1140.87 1205.95 1140.87 1206.5 1140.87 1207.05 1140.4 1207.5 1139.81 1207.5ZM1145.12 1207.5C1144.54 1207.5 1144.06 1207.05 1144.06 1206.5 1144.06 1205.95 1144.54 1205.5 1145.12 1205.5 1145.71 1205.5 1146.19 1205.95 1146.19 1206.5 1146.19 1207.05 1145.71 1207.5 1145.12 1207.5ZM1150.44 1207.5C1149.85 1207.5 1149.37 1207.05 1149.37 1206.5 1149.37 1205.95 1149.85 1205.5 1150.44 1205.5 1151.02 1205.5 1151.5 1205.95 1151.5 1206.5 1151.5 1207.05 1151.02 1207.5 1150.44 1207.5Z" stroke="#BC8C00" stroke-width="4.58333" stroke-miterlimit="8" fill="#FFC000" fill-rule="evenodd"/><path d="M1166.6 1193.5 1136.4 1193.5C1135.35 1193.5 1134.5 1194.2 1134.5 1195.07L1134.5 1198.93C1134.5 1199.8 1135.35 1200.5 1136.4 1200.5L1166.6 1200.5C1167.65 1200.5 1168.5 1199.8 1168.5 1198.93L1168.5 1195.07C1168.5 1194.2 1167.65 1193.5 1166.6 1193.5ZM1139.81 1197.88C1139.23 1197.88 1138.75 1197.48 1138.75 1197 1138.75 1196.52 1139.23 1196.12 1139.81 1196.12 1140.4 1196.12 1140.87 1196.52 1140.87 1197 1140.87 1197.48 1140.4 1197.88 1139.81 1197.88ZM1145.12 1197.88C1144.54 1197.88 1144.06 1197.48 1144.06 1197 1144.06 1196.52 1144.54 1196.12 1145.12 1196.12 1145.71 1196.12 1146.19 1196.52 1146.19 1197 1146.19 1197.48 1145.71 1197.88 1145.12 1197.88ZM1150.44 1197.88C1149.85 1197.88 1149.37 1197.48 1149.37 1197 1149.37 1196.52 1149.85 1196.12 1150.44 1196.12 1151.02 1196.12 1151.5 1196.52 1151.5 1197 1151.5 1197.48 1151.02 1197.88 1150.44 1197.88Z" stroke="#BC8C00" stroke-width="4.58333" stroke-miterlimit="8" fill="#FFC000" fill-rule="evenodd"/><text fill="#595959" font-family="Calibri,Calibri_MSFontService,sans-serif" font-weight="400" font-size="83" transform="matrix(1 0 0 1 539.696 814)">developer<tspan font-size="83" x="58.7407" y="703">infrastructure </tspan><tspan font-size="83" x="58.7407" y="802">provider</tspan><tspan font-size="83" x="-204.196" y="334">ontology</tspan><tspan font-size="83" x="-204.196" y="433">provider</tspan></text><path d="M2742.5 840C2742.5 848.008 2736.01 854.5 2728 854.5 2719.99 854.5 2713.5 848.008 2713.5 840 2713.5 831.992 2719.99 825.5 2728 825.5 2736.01 825.5 2742.5 831.992 2742.5 840Z" stroke="#1E2B38" stroke-width="4.58333" stroke-miterlimit="8" fill="#2D3E50" fill-rule="evenodd"/><path d="M2763.63 860.123C2759.97 858.312 2755.59 859.58 2753.76 863.203L2747.36 875.159 2719.22 857.587C2718.13 856.862 2716.85 856.5 2715.39 856.5L2684.32 856.5C2681.58 856.5 2679.2 857.949 2677.92 860.304L2666.05 882.044C2664.04 885.486 2665.5 890.015 2668.97 891.826 2670.07 892.37 2671.35 892.732 2672.44 892.732 2675 892.732 2677.56 891.283 2678.84 888.928L2688.71 870.993 2699.49 870.993 2667.14 930.776 2636.81 930.776C2632.79 930.776 2629.5 934.036 2629.5 938.022 2629.5 942.007 2632.79 945.268 2636.81 945.268L2671.53 945.268C2674.27 945.268 2676.65 943.819 2677.92 941.464L2690.72 918.094 2711.73 937.478 2710.09 973.891C2709.72 977.877 2712.83 981.319 2716.85 981.5 2717.03 981.5 2717.03 981.5 2717.21 981.5 2721.05 981.5 2724.34 978.42 2724.52 974.616L2726.35 934.761C2726.53 932.587 2725.62 930.594 2723.97 929.145L2706.25 912.841 2724.89 878.42 2746.08 891.645C2747.73 892.732 2749.92 893.094 2751.93 892.551 2753.94 892.007 2755.59 890.739 2756.5 888.928L2766.55 869.906C2768.56 866.464 2767.28 862.116 2763.63 860.123Z" stroke="#1E2B38" stroke-width="4.58333" stroke-miterlimit="8" fill="#2D3E50" fill-rule="evenodd"/><path d="M2687.38 1076.26 2716.5 1076.26 2716.5 1070.79C2716.5 1066.78 2713.22 1063.5 2709.22 1063.5L2632.78 1063.5C2628.78 1063.5 2625.5 1066.78 2625.5 1070.79L2625.5 1119.99C2625.5 1124 2628.78 1127.28 2632.78 1127.28L2643.7 1127.28 2643.7 1145.5 2661.9 1127.28 2672.82 1127.28 2672.82 1090.83C2672.82 1082.82 2679.37 1076.26 2687.38 1076.26Z" stroke="#1E2B38" stroke-width="4.58333" stroke-miterlimit="8" fill="#2D3E50" fill-rule="evenodd"/><path d="M2764.22 1083.5 2687.78 1083.5C2683.78 1083.5 2680.5 1086.78 2680.5 1090.79L2680.5 1139.99C2680.5 1144 2683.78 1147.28 2687.78 1147.28L2735.1 1147.28 2753.3 1165.5 2753.3 1147.28 2764.22 1147.28C2768.22 1147.28 2771.5 1144 2771.5 1139.99L2771.5 1090.79C2771.5 1086.78 2768.22 1083.5 2764.22 1083.5Z" stroke="#1E2B38" stroke-width="4.58333" stroke-miterlimit="8" fill="#2D3E50" fill-rule="evenodd"/><path d="M2750.7 1335.9C2742.73 1329.38 2732.57 1325.03 2722.43 1322.13 2715.18 1319.95 2707.2 1318.5 2698.5 1318.5 2690.53 1318.5 2682.55 1319.95 2674.57 1322.13 2664.42 1325.03 2654.27 1330.1 2646.3 1335.9 2642.67 1338.8 2640.5 1343.15 2640.5 1347.5L2640.5 1376.5 2756.5 1376.5 2756.5 1347.5C2756.5 1343.15 2754.33 1338.8 2750.7 1335.9Z" stroke="#1E2B38" stroke-width="4.58333" stroke-miterlimit="8" fill="#2D3E50" fill-rule="evenodd"/><path d="M2670.17 1257.38C2671.27 1257.38 2672.19 1257.02 2672.74 1256.29L2672.74 1256.29C2679.52 1249.76 2688.7 1245.76 2698.79 1245.76 2718.97 1245.76 2735.48 1262.11 2735.48 1282.08L2735.48 1290.43 2714.38 1297.33C2713.46 1296.97 2712.54 1296.61 2711.63 1296.61 2708.51 1296.61 2706.12 1298.97 2706.12 1302.05 2706.12 1305.14 2708.51 1307.5 2711.63 1307.5 2713.83 1307.5 2715.85 1306.23 2716.76 1304.23L2745.93 1294.61C2747.4 1294.06 2748.5 1292.79 2748.5 1291.16L2748.5 1274.82C2748.5 1272.82 2746.85 1271.18 2744.83 1271.18L2741.53 1271.18C2736.58 1252.48 2719.33 1238.5 2698.79 1238.5 2686.86 1238.5 2676.04 1243.22 2667.97 1250.85 2667.05 1251.57 2666.5 1252.48 2666.5 1253.75 2666.5 1255.75 2668.15 1257.38 2670.17 1257.38Z" stroke="#1E2B38" stroke-width="4.58333" stroke-miterlimit="8" fill="#2D3E50" fill-rule="evenodd"/><path d="M2727.32 1285.13C2727.5 1284.03 2727.5 1283.11 2727.5 1282 2727.5 1265.78 2714.45 1252.5 2698.5 1252.5 2682.55 1252.5 2669.5 1265.78 2669.5 1282 2669.5 1298.23 2682.55 1311.5 2698.5 1311.5 2699.04 1311.5 2699.77 1311.5 2700.31 1311.32L2700.31 1302.28 2700.31 1302.28C2700.31 1300.62 2700.68 1298.96 2701.4 1297.3 2702.67 1294.72 2704.84 1292.69 2707.74 1291.77L2727.32 1285.13Z" stroke="#1E2B38" stroke-width="4.58333" stroke-miterlimit="8" fill="#2D3E50" fill-rule="evenodd"/><text fill="#595959" font-family="Calibri,Calibri_MSFontService,sans-serif" font-weight="400" font-size="83" transform="matrix(1 0 0 1 3004.05 1516)">research community<tspan font-size="83" x="-1247.74" y="0">data stewards</tspan></text></g></svg>