<svg width="2627" height="1846" xmlns="http://www.w3.org/2000/svg" xmlns:xlink="http://www.w3.org/1999/xlink" xml:space="preserve" overflow="hidden"><defs><clipPath id="clip0"><rect x="652" y="497" width="2627" height="1846"/></clipPath><clipPath id="clip1"><rect x="1913" y="1250" width="285" height="285"/></clipPath><clipPath id="clip2"><rect x="1913" y="1250" width="285" height="285"/></clipPath><clipPath id="clip3"><rect x="1913" y="1250" width="285" height="285"/></clipPath><clipPath id="clip4"><rect x="2137" y="1971" width="183" height="183"/></clipPath><clipPath id="clip5"><rect x="2137" y="1971" width="183" height="183"/></clipPath><clipPath id="clip6"><rect x="2137" y="1971" width="183" height="183"/></clipPath><clipPath id="clip7"><rect x="1511" y="1798" width="134" height="135"/></clipPath><clipPath id="clip8"><rect x="1511" y="1798" width="134" height="135"/></clipPath><clipPath id="clip9"><rect x="1511" y="1798" width="134" height="135"/></clipPath><clipPath id="clip10"><rect x="1353" y="1170" width="131" height="132"/></clipPath><clipPath id="clip11"><rect x="1353" y="1170" width="131" height="132"/></clipPath><clipPath id="clip12"><rect x="1353" y="1170" width="131" height="132"/></clipPath><clipPath id="clip13"><rect x="2488" y="898" width="124" height="124"/></clipPath><clipPath id="clip14"><rect x="2488" y="898" width="124" height="124"/></clipPath><clipPath id="clip15"><rect x="2488" y="898" width="124" height="124"/></clipPath><clipPath id="clip16"><rect x="1808" y="680" width="169" height="172"/></clipPath><clipPath id="clip17"><rect x="1808" y="680" width="169" height="172"/></clipPath><clipPath id="clip18"><rect x="1808" y="680" width="169" height="172"/></clipPath></defs><g clip-path="url(#clip0)" transform="translate(-652 -497)"><text fill="#0BB5DD" font-family="Calibri,Calibri_MSFontService,sans-serif" font-weight="400" font-size="110" transform="matrix(1 0 0 1 718.669 1980)">quality<tspan font-size="110" x="0" y="132">Interoperability</tspan><tspan font-size="110" x="0" y="264">standardization</tspan></text><path d="M1224.5 1406.5C1224.5 943.685 1599.69 568.5 2062.5 568.5 2525.31 568.5 2900.5 943.685 2900.5 1406.5 2900.5 1869.31 2525.31 2244.5 2062.5 2244.5 1599.69 2244.5 1224.5 1869.31 1224.5 1406.5Z" stroke="#1E2B38" stroke-width="4.58333" stroke-miterlimit="8" fill="#2D3E50" fill-rule="evenodd"/><path d="M1699 1410C1699 1208.42 1862.42 1045 2064 1045 2265.58 1045 2429 1208.42 2429 1410 2429 1611.58 2265.58 1775 2064 1775 1862.42 1775 1699 1611.58 1699 1410Z" fill="#FFFFFF" fill-rule="evenodd"/><path d="M1694 1403C1694 1201.42 1857.42 1038 2059 1038 2260.58 1038 2424 1201.42 2424 1403 2424 1604.58 2260.58 1768 2059 1768 1857.42 1768 1694 1604.58 1694 1403Z" stroke="#1FC2A7" stroke-width="13.75" stroke-miterlimit="8" fill="none" fill-rule="evenodd"/><path d="M2178.21 1282.25C2172.56 1272.42 2172.51 1250.62 2178.57 1237.57 2184.62 1224.53 2195.87 1206.18 2227.16 1205.73 2238.03 1205.57 2253.97 1203.06 2264.2 1200.6 2274.43 1198.15 2284.02 1190.85 2288.55 1191 2293.07 1191.16 2292.11 1195.35 2291.38 1201.54 2290.64 1207.74 2287.33 1220.24 2284.15 1228.17 2280.98 1236.09 2272.27 1259.14 2265.68 1269.66 2259.1 1280.18 2253.51 1286.82 2244.64 1291.3 2235.78 1295.78 2223.56 1298.04 2212.49 1296.53 2201.42 1295.03 2183.87 1292.08 2178.21 1282.25Z" stroke="#2D3E50" stroke-width="13.75" stroke-linecap="round" stroke-miterlimit="8" fill="none" fill-rule="evenodd"/><path d="M2159 1330C2164.28 1307.05 2169.56 1284.1 2216 1269" stroke="#2D3E50" stroke-width="13.75" stroke-linecap="round" stroke-miterlimit="8" fill="none" fill-rule="evenodd"/><g clip-path="url(#clip1)"><g clip-path="url(#clip2)"><g clip-path="url(#clip3)"><path d="M188.667 88.4376C188.667 114.487 167.55 135.604 141.5 135.604 115.451 135.604 94.3334 114.487 94.3334 88.4376 94.3334 62.3881 115.451 41.2709 141.5 41.2709 167.55 41.2709 188.667 62.3881 188.667 88.4376Z" fill="#2D3E50" transform="matrix(-1.00353 0 0 1 2198 1251)"/><path d="M90.2063 240.55 70.7501 196.626 70.7501 166.852C70.7501 163.315 72.8136 159.777 75.7615 158.008 77.5303 157.124 78.1199 155.061 77.2355 153.587 76.6459 152.407 75.4667 151.523 73.9928 151.818L40.3865 151.818C38.6177 151.818 36.849 152.997 36.849 155.061 36.849 156.535 37.4386 157.714 38.6177 158.303 41.8605 160.072 43.6292 163.61 43.6292 167.147L43.6292 196.921 24.4677 240.55C22.1094 245.562 24.4677 251.752 29.774 253.816 30.9532 254.405 32.4271 254.7 33.9011 254.7L81.0678 254.7C86.6688 254.7 91.0907 250.278 91.0907 244.677 91.0907 243.203 90.7959 241.729 90.2063 240.55L90.2063 240.55ZM50.7042 173.632 50.7042 166.852C50.7042 163.904 50.1146 160.956 48.3459 158.303L66.3282 158.303C64.8542 160.956 63.9699 163.904 63.9699 166.852L63.9699 173.632 50.7042 173.632Z" fill="#2D3E50" transform="matrix(-1.00353 0 0 1 2198 1251)"/><path d="M65.7386 111.137C65.7386 113.904 63.4949 116.148 60.7271 116.148 57.9594 116.148 55.7157 113.904 55.7157 111.137 55.7157 108.369 57.9594 106.125 60.7271 106.125 63.4949 106.125 65.7386 108.369 65.7386 111.137Z" fill="#2D3E50" transform="matrix(-1.00353 0 0 1 2198 1251)"/><path d="M74.2876 126.466C74.2876 129.234 72.0439 131.477 69.2761 131.477 66.5083 131.477 64.2646 129.234 64.2646 126.466 64.2646 123.698 66.5083 121.454 69.2761 121.454 72.0439 121.454 74.2876 123.698 74.2876 126.466Z" fill="#2D3E50" transform="matrix(-1.00353 0 0 1 2198 1251)"/><path d="M55.7157 122.928C55.7157 125.696 53.472 127.94 50.7042 127.94 47.9365 127.94 45.6927 125.696 45.6927 122.928 45.6927 120.16 47.9365 117.917 50.7042 117.917 53.472 117.917 55.7157 120.16 55.7157 122.928Z" fill="#2D3E50" transform="matrix(-1.00353 0 0 1 2198 1251)"/><path d="M60.7271 141.5C60.7271 145.245 57.6915 148.28 53.9469 148.28 50.2023 148.28 47.1667 145.245 47.1667 141.5 47.1667 137.756 50.2023 134.72 53.9469 134.72 57.6915 134.72 60.7271 137.756 60.7271 141.5Z" fill="#2D3E50" transform="matrix(-1.00353 0 0 1 2198 1251)"/><path d="M126.761 214.903 105.536 192.499 117.327 177.76 117.327 177.465 99.3449 179.233 99.9345 154.176C92.8595 156.535 85.7845 159.188 79.0042 162.43 77.8251 163.61 76.9407 165.378 76.6459 167.147L76.6459 195.447 95.5126 238.192C96.1022 239.371 96.397 240.55 96.6917 241.729L126.761 241.729 126.761 214.903Z" fill="#2D3E50" transform="matrix(-1.00353 0 0 1 2198 1251)"/><path d="M132.656 212.25 132.656 241.729 150.344 241.729 150.344 212.25 171.569 150.933C161.546 148.575 151.523 147.396 141.5 147.396 131.477 147.396 121.454 148.575 111.726 150.933L132.656 212.25Z" fill="#2D3E50" transform="matrix(-1.00353 0 0 1 2198 1251)"/><path d="M226.4 175.696C213.429 165.673 198.69 158.598 183.066 154.176L183.655 179.233 165.673 177.465 165.673 177.76 177.465 192.499 156.24 214.903 156.24 241.729 235.834 241.729 235.834 194.563C235.539 187.193 232.296 180.118 226.4 175.696Z" fill="#2D3E50" transform="matrix(-1.00353 0 0 1 2198 1251)"/></g></g></g><path d="M1871.36 1398.26C1866.85 1391.77 1866.82 1377.37 1871.64 1368.76 1876.46 1360.14 1885.42 1348.03 1910.35 1347.73 1919.01 1347.62 1931.71 1345.96 1939.86 1344.34 1948.01 1342.72 1955.64 1337.9 1959.25 1338 1962.86 1338.1 1962.09 1340.87 1961.5 1344.96 1960.92 1349.05 1958.28 1357.31 1955.75 1362.54 1953.22 1367.77 1946.28 1383 1941.04 1389.94 1935.79 1396.89 1931.34 1401.28 1924.27 1404.24 1917.21 1407.2 1907.48 1408.69 1898.66 1407.69 1889.84 1406.7 1875.86 1404.75 1871.36 1398.26Z" stroke="#2D3E50" stroke-width="13.75" stroke-linecap="round" stroke-miterlimit="8" fill="none" fill-rule="evenodd"/><path d="M1855 1430C1859.26 1414.95 1863.52 1399.9 1901 1390" stroke="#2D3E50" stroke-width="13.75" stroke-linecap="round" stroke-miterlimit="8" fill="none" fill-rule="evenodd"/><path d="M2018.36 1614.26C2013.85 1607.77 2013.82 1593.37 2018.64 1584.76 2023.46 1576.14 2032.42 1564.03 2057.35 1563.73 2066.01 1563.62 2078.71 1561.96 2086.86 1560.34 2095.01 1558.72 2102.64 1553.9 2106.25 1554 2109.86 1554.11 2109.09 1556.87 2108.5 1560.96 2107.92 1565.05 2105.28 1573.31 2102.75 1578.54 2100.22 1583.77 2093.28 1599 2088.04 1605.94 2082.79 1612.89 2078.34 1617.28 2071.27 1620.24 2064.21 1623.2 2054.48 1624.69 2045.66 1623.69 2036.84 1622.7 2022.86 1620.75 2018.36 1614.26Z" stroke="#2D3E50" stroke-width="13.75" stroke-linecap="round" stroke-miterlimit="8" fill="none" fill-rule="evenodd"/><path d="M2003 1646C2007.17 1630.95 2011.33 1615.9 2048 1606" stroke="#2D3E50" stroke-width="13.75" stroke-linecap="round" stroke-miterlimit="8" fill="none" fill-rule="evenodd"/><path d="M2211 1651C2211 1589.14 2260.92 1539 2322.5 1539 2384.08 1539 2434 1589.14 2434 1651 2434 1712.86 2384.08 1763 2322.5 1763 2260.92 1763 2211 1712.86 2211 1651Z" stroke="#1FC2A7" stroke-width="10.3125" stroke-miterlimit="8" fill="#FFFFFF" fill-rule="evenodd"/><path d="M1600 1486.5C1600 1424.92 1649.92 1375 1711.5 1375 1773.08 1375 1823 1424.92 1823 1486.5 1823 1548.08 1773.08 1598 1711.5 1598 1649.92 1598 1600 1548.08 1600 1486.5Z" stroke="#1FC2A7" stroke-width="10.3125" stroke-miterlimit="8" fill="#FFFFFF" fill-rule="evenodd"/><path d="M2028 1053C2028 991.144 2077.92 941 2139.5 941 2201.08 941 2251 991.144 2251 1053 2251 1114.86 2201.08 1165 2139.5 1165 2077.92 1165 2028 1114.86 2028 1053Z" stroke="#1FC2A7" stroke-width="10.3125" stroke-miterlimit="8" fill="#FFFFFF" fill-rule="evenodd"/><path d="M1700.5 1510C1700.5 1513.59 1697.81 1516.5 1694.5 1516.5 1691.19 1516.5 1688.5 1513.59 1688.5 1510 1688.5 1506.41 1691.19 1503.5 1694.5 1503.5 1697.81 1503.5 1700.5 1506.41 1700.5 1510Z" stroke="#148E7A" stroke-width="4.58333" stroke-miterlimit="8" fill="#1FC2A7" fill-rule="evenodd"/><path d="M1706.5 1530.5 1706.5 1523.99C1706.48 1522.98 1706.04 1522.03 1705.3 1521.4 1703.56 1519.96 1701.57 1518.9 1699.45 1518.3 1697.84 1517.77 1696.18 1517.5 1694.5 1517.5 1692.83 1517.53 1691.16 1517.8 1689.55 1518.3 1687.45 1518.97 1685.47 1520.02 1683.7 1521.4 1682.96 1522.03 1682.52 1522.98 1682.5 1523.99L1682.5 1530.5Z" stroke="#148E7A" stroke-width="4.58333" stroke-miterlimit="8" fill="#1FC2A7" fill-rule="evenodd"/><path d="M1728.5 1510C1728.5 1513.59 1725.59 1516.5 1722 1516.5 1718.41 1516.5 1715.5 1513.59 1715.5 1510 1715.5 1506.41 1718.41 1503.5 1722 1503.5 1725.59 1503.5 1728.5 1506.41 1728.5 1510Z" stroke="#148E7A" stroke-width="4.58333" stroke-miterlimit="8" fill="#1FC2A7" fill-rule="evenodd"/><path d="M1734.5 1530.5 1734.5 1523.99C1734.48 1522.98 1734.02 1522.03 1733.25 1521.4 1731.44 1519.96 1729.36 1518.9 1727.15 1518.3 1725.48 1517.77 1723.75 1517.5 1722 1517.5 1720.26 1517.53 1718.52 1517.8 1716.85 1518.3 1714.66 1518.97 1712.6 1520.02 1710.75 1521.4 1709.98 1522.03 1709.52 1522.98 1709.5 1523.99L1709.5 1530.5Z" stroke="#148E7A" stroke-width="4.58333" stroke-miterlimit="8" fill="#1FC2A7" fill-rule="evenodd"/><path d="M1756.5 1510C1756.5 1513.59 1753.59 1516.5 1750 1516.5 1746.41 1516.5 1743.5 1513.59 1743.5 1510 1743.5 1506.41 1746.41 1503.5 1750 1503.5 1753.59 1503.5 1756.5 1506.41 1756.5 1510Z" stroke="#148E7A" stroke-width="4.58333" stroke-miterlimit="8" fill="#1FC2A7" fill-rule="evenodd"/><path d="M1762.5 1530.5 1762.5 1523.99C1762.48 1522.98 1762.02 1522.03 1761.25 1521.4 1759.44 1519.96 1757.36 1518.9 1755.15 1518.3 1753.48 1517.77 1751.75 1517.5 1750 1517.5 1748.26 1517.53 1746.52 1517.8 1744.85 1518.3 1742.66 1518.97 1740.6 1520.02 1738.75 1521.4 1737.98 1522.03 1737.52 1522.98 1737.5 1523.99L1737.5 1530.5Z" stroke="#148E7A" stroke-width="4.58333" stroke-miterlimit="8" fill="#1FC2A7" fill-rule="evenodd"/><path d="M1675.5 1452C1675.5 1456.69 1671.92 1460.5 1667.5 1460.5 1663.08 1460.5 1659.5 1456.69 1659.5 1452 1659.5 1447.31 1663.08 1443.5 1667.5 1443.5 1671.92 1443.5 1675.5 1447.31 1675.5 1452Z" stroke="#148E7A" stroke-width="4.58333" stroke-miterlimit="8" fill="#1FC2A7" fill-rule="evenodd"/><path d="M1715.9 1449.1C1715.08 1448.3 1713.77 1448.3 1712.95 1449.1L1694.99 1466.99C1693.55 1466.59 1692.01 1466.98 1690.94 1468.01 1690.65 1468.3 1685.47 1476.75 1685.47 1476.75L1683.91 1470.15C1683.7 1469.29 1683.28 1468.51 1682.67 1467.87 1680.11 1465.81 1677.16 1464.28 1674 1463.36 1671.76 1462.89 1669.49 1462.61 1667.2 1462.54 1664.89 1462.58 1662.6 1462.92 1660.39 1463.57 1657.2 1464.4 1654.24 1465.95 1651.73 1468.08 1651.12 1468.71 1650.69 1469.5 1650.49 1470.35 1650.49 1470.35 1644.5 1495.41 1644.5 1495.83 1644.5 1498.12 1646.37 1499.98 1648.67 1499.98 1650.52 1499.93 1652.11 1498.68 1652.59 1496.91L1656.93 1479.03 1656.93 1536.5 1665.14 1536.5 1665.14 1499.52 1669.31 1499.52 1669.31 1536.5 1677.52 1536.5 1677.52 1478.77 1679.04 1485.28C1679.15 1485.73 1679.45 1486.11 1679.86 1486.32 1681.46 1487.54 1683.41 1488.22 1685.42 1488.27 1686.74 1488.45 1688.04 1487.86 1688.76 1486.76L1697.24 1472.91C1697.78 1472.06 1697.99 1471.04 1697.81 1470.05L1715.88 1452.05C1716.7 1451.24 1716.71 1449.92 1715.9 1449.1Z" stroke="#148E7A" stroke-width="4.58333" stroke-miterlimit="8" fill="#1FC2A7" fill-rule="evenodd"/><path d="M1743.96 1429.5 1676.04 1429.5C1672.98 1429.5 1670.5 1431.99 1670.5 1435.06L1670.5 1440.07C1672.62 1440.64 1674.54 1441.8 1676.04 1443.4L1676.04 1435.06 1743.96 1435.06 1743.96 1480.94 1696.65 1480.94 1693.27 1486.5 1743.96 1486.5C1747.02 1486.5 1749.5 1484.01 1749.5 1480.94L1749.5 1435.06C1749.5 1431.99 1747.02 1429.5 1743.96 1429.5Z" stroke="#148E7A" stroke-width="4.58333" stroke-miterlimit="8" fill="#1FC2A7" fill-rule="evenodd"/><path d="M2320.74 1616.27C2323.02 1617.77 2324.81 1619.94 2325.86 1622.5L2338.93 1609.1 2339.5 1608.57C2339 1605.29 2336 1603.06 2332.8 1603.57 2331.58 1603.77 2330.44 1604.36 2329.57 1605.27L2319.5 1615.59C2319.92 1615.81 2320.37 1616.02 2320.74 1616.27Z" stroke="#148E7A" stroke-width="4.58333" stroke-miterlimit="8" fill="#1FC2A7" fill-rule="evenodd"/><path d="M2275.14 1682.5 2278 1679.65 2282.64 1675.03 2280.74 1660.18 2280.74 1660.07C2280.41 1657.19 2280.97 1654.28 2282.35 1651.73L2282.47 1651.51 2282.61 1651.31 2302.22 1620.59C2303.09 1619.22 2304.2 1618.03 2305.5 1617.06 2304.39 1613.61 2300.69 1611.71 2297.22 1612.81 2295.7 1613.3 2294.41 1614.31 2293.59 1615.67L2274.01 1646.38C2273.3 1647.72 2273.01 1649.25 2273.18 1650.76L2275.51 1668.91 2268.5 1675.89Z" stroke="#148E7A" stroke-width="4.58333" stroke-miterlimit="8" fill="#1FC2A7" fill-rule="evenodd"/><path d="M2373.79 1654.33C2371.5 1652.01 2367.77 1651.98 2365.44 1654.25 2365.41 1654.27 2365.39 1654.3 2365.36 1654.33L2347.07 1672.51C2346.53 1672.97 2345.74 1672.97 2345.21 1672.51 2344.73 1671.97 2344.73 1671.17 2345.21 1670.64L2372.85 1643.14C2375.21 1640.83 2375.23 1637.05 2372.9 1634.71 2370.57 1632.36 2366.78 1632.34 2364.42 1634.66L2336.76 1662.26C2336.2 1662.73 2335.36 1662.67 2334.89 1662.12 2334.46 1661.62 2334.46 1660.88 2334.89 1660.39L2368.26 1627.19C2370.59 1624.84 2370.56 1621.07 2368.21 1618.75 2365.85 1616.44 2362.06 1616.46 2359.73 1618.8L2326.46 1651.99C2325.9 1652.46 2325.06 1652.4 2324.58 1651.85 2324.15 1651.35 2324.15 1650.62 2324.58 1650.12L2352.22 1622.62C2354.55 1620.31 2354.55 1616.55 2352.22 1614.24 2349.89 1611.92 2346.12 1611.92 2343.79 1614.24L2316.15 1641.73 2305.37 1652.46 2318.86 1631.38C2320.77 1628.25 2319.76 1624.18 2316.62 1622.29 2313.56 1620.45 2309.59 1621.33 2307.62 1624.3L2287.93 1655.06C2287.21 1656.41 2286.92 1657.94 2287.09 1659.45L2289.38 1677.63 2279.5 1687.46 2306.73 1714.5 2314.27 1707C2320.93 1700.38 2328.9 1707.37 2341.45 1694.88L2373.79 1662.63C2376.07 1660.33 2376.07 1656.63 2373.79 1654.33Z" stroke="#148E7A" stroke-width="4.58333" stroke-miterlimit="8" fill="#1FC2A7" fill-rule="evenodd"/><path d="M2330.5 1573.5 2337.5 1573.5 2337.5 1590.5 2330.5 1590.5Z" stroke="#148E7A" stroke-width="4.58333" stroke-miterlimit="8" fill="#1FC2A7" fill-rule="evenodd"/><path d="M2341.04 1590.71 2353.29 1578.87 2358.03 1583.77 2345.77 1595.61Z" stroke="#148E7A" stroke-width="4.58333" stroke-miterlimit="8" fill="#1FC2A7" fill-rule="evenodd"/><path d="M2308.67 1583.76 2313.41 1578.86 2325.66 1590.7 2320.93 1595.6Z" stroke="#148E7A" stroke-width="4.58333" stroke-miterlimit="8" fill="#1FC2A7" fill-rule="evenodd"/><path d="M2117.5 1062.75 2181 1062.75 2181 1048.5 2209.5 1077 2181 1105.5 2181 1091.25 2117.5 1091.25Z" stroke="#148E7A" stroke-width="4.58333" stroke-miterlimit="8" fill="#1FC2A7" fill-rule="evenodd"/><path d="M2165.5 1047 2102.5 1047 2102.5 1061.5 2073.5 1032.5 2102.5 1003.5 2102.5 1018 2165.5 1018Z" stroke="#148E7A" stroke-width="4.58333" stroke-miterlimit="8" fill="#1FC2A7" fill-rule="evenodd"/><path d="M2006.24 747.862C2371.37 720.503 2689.65 992.982 2717.13 1356.46 2720.17 1396.73 2719.5 1437.2 2715.11 1477.35" stroke="#FFC000" stroke-width="13.75" stroke-miterlimit="8" fill="none" fill-rule="evenodd"/><path d="M2120.99 2066.43C1755.97 2098.56 1433.89 1830.27 1401.58 1467.18 1397.75 1424.05 1398.19 1380.65 1402.89 1337.6" stroke="#0BB5DD" stroke-width="13.75" stroke-miterlimit="8" fill="none" fill-rule="evenodd"/><path d="M1781 766C1781 704.144 1831.14 654 1893 654 1954.86 654 2005 704.144 2005 766 2005 827.856 1954.86 878 1893 878 1831.14 878 1781 827.856 1781 766Z" stroke="#FFC000" stroke-width="13.75" stroke-miterlimit="8" fill="#FFFFFF" fill-rule="evenodd"/><path d="M2409 931.5C2409 869.92 2459.14 820 2521 820 2582.86 820 2633 869.92 2633 931.5 2633 993.08 2582.86 1043 2521 1043 2459.14 1043 2409 993.08 2409 931.5Z" stroke="#FFC000" stroke-width="13.75" stroke-miterlimit="8" fill="#FFFFFF" fill-rule="evenodd"/><path d="M2588 1579.5C2588 1517.92 2638.14 1468 2700 1468 2761.86 1468 2812 1517.92 2812 1579.5 2812 1641.08 2761.86 1691 2700 1691 2638.14 1691 2588 1641.08 2588 1579.5Z" stroke="#FFC000" stroke-width="13.75" stroke-miterlimit="8" fill="#FFFFFF" fill-rule="evenodd"/><path d="M2118 2044.5C2118 1982.92 2168.14 1933 2230 1933 2291.86 1933 2342 1982.92 2342 2044.5 2342 2106.08 2291.86 2156 2230 2156 2168.14 2156 2118 2106.08 2118 2044.5Z" stroke="#0BB5DD" stroke-width="10.3125" stroke-miterlimit="8" fill="#FFFFFF" fill-rule="evenodd"/><path d="M1474 1859C1474 1797.14 1524.14 1747 1586 1747 1647.86 1747 1698 1797.14 1698 1859 1698 1920.86 1647.86 1971 1586 1971 1524.14 1971 1474 1920.86 1474 1859Z" stroke="#0BB5DD" stroke-width="10.3125" stroke-miterlimit="8" fill="#FFFFFF" fill-rule="evenodd"/><path d="M1314 1235.5C1314 1173.92 1363.92 1124 1425.5 1124 1487.08 1124 1537 1173.92 1537 1235.5 1537 1297.08 1487.08 1347 1425.5 1347 1363.92 1347 1314 1297.08 1314 1235.5Z" stroke="#0BB5DD" stroke-width="10.3125" stroke-miterlimit="8" fill="#FFFFFF" fill-rule="evenodd"/><g clip-path="url(#clip4)"><g clip-path="url(#clip5)"><g clip-path="url(#clip6)"><path d="M2222.59 2109.01C2221.64 2109.01 2220.49 2108.82 2219.73 2108.06 2218.21 2106.73 2218.02 2104.25 2219.35 2102.72L2226.78 2094.14C2228.12 2092.62 2230.6 2092.43 2232.12 2093.76 2233.65 2095.1 2233.84 2097.57 2232.5 2099.1L2225.07 2107.68C2224.5 2108.44 2223.54 2108.82 2222.59 2109.01Z" fill="#0BB5DD"/><path d="M2210.96 2104.63C2209.63 2104.82 2208.48 2104.44 2207.34 2103.48 2205.43 2101.77 2205.24 2098.72 2206.96 2096.81L2215.73 2086.71C2217.44 2084.8 2220.49 2084.61 2222.4 2086.33 2224.31 2088.04 2224.5 2091.09 2222.78 2093L2214.01 2103.1C2213.25 2104.06 2212.11 2104.63 2210.96 2104.63Z" fill="#0BB5DD"/><path d="M2198.95 2097.57C2197.43 2097.77 2195.9 2097.19 2194.76 2096.24 2192.47 2094.14 2192.09 2090.52 2194.19 2088.23L2202.96 2078.13C2205.05 2075.84 2208.68 2075.46 2210.96 2077.56 2213.25 2079.66 2213.63 2083.28 2211.53 2085.57L2202.77 2095.67C2201.81 2096.81 2200.29 2097.57 2198.95 2097.57Z" fill="#0BB5DD"/><path d="M2185.04 2090.52C2183.51 2090.71 2181.99 2090.14 2180.84 2089.19 2178.56 2087.09 2178.18 2083.47 2180.27 2081.18L2190.38 2069.74C2192.47 2067.46 2196.09 2067.07 2198.38 2069.17 2200.67 2071.27 2201.05 2074.89 2198.95 2077.18L2188.85 2088.62C2187.71 2089.76 2186.37 2090.33 2185.04 2090.52Z" fill="#0BB5DD"/><path d="M2145.77 2048.58 2160.45 2057.54C2162.16 2058.69 2164.64 2058.12 2165.59 2056.21L2183.32 2026.85C2184.47 2025.14 2183.89 2022.66 2181.99 2021.71L2167.5 2012.75 2145.77 2048.58Z" fill="#0BB5DD"/><path d="M2269.29 2073.56 2238.6 2047.25 2236.51 2045.34 2223.35 2060.4C2221.45 2062.69 2218.78 2064.03 2215.73 2064.22 2215.35 2064.22 2214.97 2064.22 2214.77 2064.22 2211.92 2064.22 2209.25 2063.26 2207.34 2061.36 2202.57 2057.16 2202.19 2049.92 2206.2 2045.15L2217.44 2032.19C2208.68 2031.05 2197.43 2035.62 2185.8 2029.9L2169.22 2057.35 2182.18 2072.41 2187.13 2066.69C2188.85 2064.6 2191.52 2063.45 2194.38 2063.45L2194.38 2063.45C2196.67 2063.45 2198.95 2064.22 2200.67 2065.74 2202.77 2067.46 2203.72 2069.93 2203.91 2072.6 2204.86 2072.22 2206.01 2072.03 2207.15 2072.03 2209.44 2072.03 2211.72 2072.79 2213.44 2074.32 2215.54 2076.23 2216.68 2078.7 2216.68 2081.37 2217.44 2081.18 2218.4 2080.99 2219.16 2080.99L2219.16 2080.99C2221.26 2080.99 2223.16 2081.75 2224.88 2083.09 2226.59 2084.61 2227.55 2086.71 2227.74 2089 2228.31 2088.81 2229.07 2088.62 2229.83 2088.62L2229.83 2088.62C2231.74 2088.62 2233.46 2089.19 2234.79 2090.52 2236.32 2091.86 2237.27 2093.76 2237.46 2095.67 2237.65 2097.77 2236.89 2099.67 2235.55 2101.2L2229.07 2108.63 2231.74 2110.73C2233.07 2111.49 2234.6 2112.06 2236.32 2111.87 2240.51 2111.49 2243.56 2107.87 2243.18 2103.68 2243.18 2103.68 2243.18 2103.48 2243.18 2103.48 2243.75 2103.68 2244.51 2103.68 2245.08 2103.68 2249.28 2103.29 2252.33 2099.67 2251.95 2095.48 2251.95 2095.48 2251.95 2095.29 2251.95 2095.29 2252.52 2095.48 2253.28 2095.48 2253.85 2095.48 2258.05 2095.1 2261.1 2091.48 2260.72 2087.28 2260.72 2086.9 2260.52 2086.52 2260.52 2086.14 2261.67 2086.71 2263 2087.09 2264.53 2086.9 2268.72 2086.52 2271.77 2082.9 2271.39 2078.7 2271.58 2076.61 2270.63 2074.89 2269.29 2073.56Z" fill="#0BB5DD"/><path d="M2311.23 2048.58 2296.55 2057.54C2294.84 2058.69 2292.36 2058.12 2291.41 2056.21L2273.68 2026.85C2272.53 2025.14 2273.11 2022.66 2275.01 2021.71L2289.69 2012.75 2311.23 2048.58Z" fill="#0BB5DD"/><path d="M2271.39 2030.67C2255.57 2036.38 2244.13 2030.86 2231.36 2028.38 2231.17 2028.38 2230.41 2028.19 2230.41 2028.19 2228.12 2028 2225.64 2028.76 2223.93 2030.67L2208.87 2047.82C2206.01 2051.06 2206.39 2055.83 2209.63 2058.5 2211.34 2059.83 2213.25 2060.59 2215.35 2060.4 2217.25 2060.21 2219.16 2059.45 2220.49 2057.73 2220.49 2057.73 2236.12 2039.82 2236.12 2039.82L2271.77 2070.51 2271.77 2070.51 2271.77 2070.51C2272.72 2071.46 2273.11 2071.84 2273.87 2072.98L2287.59 2057.16 2271.39 2030.67Z" fill="#0BB5DD"/></g></g></g><g clip-path="url(#clip7)"><g clip-path="url(#clip8)"><g clip-path="url(#clip9)"><path d="M31.8646 19.3958 101.135 19.3958 101.135 113.604 31.8646 113.604 31.8646 19.3958ZM23.5521 121.917 109.448 121.917 109.448 11.0833 23.5521 11.0833 23.5521 121.917Z" fill="#0BB5DD" transform="matrix(1 0 0 1.00752 1511 1799)"/><path d="M69.2709 31.8646 92.8229 31.8646 92.8229 37.4063 69.2709 37.4063Z" fill="#0BB5DD" transform="matrix(1 0 0 1.00752 1511 1799)"/><path d="M69.2709 54.0313 92.8229 54.0313 92.8229 59.5729 69.2709 59.5729Z" fill="#0BB5DD" transform="matrix(1 0 0 1.00752 1511 1799)"/><path d="M69.2709 98.3646 92.8229 98.3646 92.8229 103.906 69.2709 103.906Z" fill="#0BB5DD" transform="matrix(1 0 0 1.00752 1511 1799)"/><path d="M69.2709 76.1979 92.8229 76.1979 92.8229 81.7396 69.2709 81.7396Z" fill="#0BB5DD" transform="matrix(1 0 0 1.00752 1511 1799)"/><path d="M60.6813 28.8167 56.8021 24.9375 47.6583 34.0813 44.0563 30.4792 40.1771 34.3583 47.6583 41.8396Z" fill="#0BB5DD" transform="matrix(1 0 0 1.00752 1511 1799)"/><path d="M60.6813 50.9833 56.8021 47.1042 47.6583 56.2479 44.0563 52.6458 40.1771 56.525 47.6583 64.0063Z" fill="#0BB5DD" transform="matrix(1 0 0 1.00752 1511 1799)"/><path d="M60.6813 73.15 56.8021 69.2709 47.6583 78.4146 44.0563 74.8125 40.1771 78.6917 47.6583 86.1729Z" fill="#0BB5DD" transform="matrix(1 0 0 1.00752 1511 1799)"/><path d="M60.6813 95.0396 56.8021 91.1604 47.6583 100.304 44.0563 96.7021 40.1771 100.581 47.6583 108.063Z" fill="#0BB5DD" transform="matrix(1 0 0 1.00752 1511 1799)"/></g></g></g><g clip-path="url(#clip10)"><g clip-path="url(#clip11)"><g clip-path="url(#clip12)"><path d="M1458.11 1247.14C1458.11 1253 1453.36 1257.76 1447.5 1257.76 1441.63 1257.76 1436.88 1253 1436.88 1247.14 1436.88 1241.28 1441.63 1236.52 1447.5 1236.52 1453.36 1236.52 1458.11 1241.28 1458.11 1247.14Z" fill="#0BB5DD"/><path d="M1401.5 1247.14C1401.5 1253 1396.74 1257.76 1390.88 1257.76 1385.02 1257.76 1380.26 1253 1380.26 1247.14 1380.26 1241.28 1385.02 1236.52 1390.88 1236.52 1396.74 1236.52 1401.5 1241.28 1401.5 1247.14Z" fill="#0BB5DD"/><path d="M1466.62 1266.95C1463.55 1264.57 1460.01 1262.88 1456.23 1262 1453.39 1261.17 1450.46 1260.71 1447.5 1260.64 1444.54 1260.63 1441.59 1261.09 1438.78 1262 1435.96 1262.75 1433.26 1263.91 1430.78 1265.44L1430.29 1266C1434.26 1267.07 1437.97 1268.93 1441.21 1271.46 1443.75 1273.33 1445.24 1276.31 1445.19 1279.47L1445.19 1281.9 1468.73 1281.9 1468.73 1271.21C1468.78 1269.53 1467.98 1267.93 1466.62 1266.95Z" fill="#0BB5DD"/><path d="M1393.23 1279.47C1393.23 1276.39 1394.64 1273.49 1397.06 1271.59L1397.21 1271.46 1397.39 1271.33C1400.67 1269 1404.29 1267.21 1408.13 1266.01 1407.86 1265.73 1407.6 1265.43 1407.35 1265.13 1404.93 1263.72 1402.32 1262.67 1399.6 1262 1396.76 1261.17 1393.83 1260.71 1390.88 1260.64 1387.92 1260.63 1384.97 1261.09 1382.15 1262 1378.42 1263.03 1374.91 1264.7 1371.76 1266.95 1370.44 1267.97 1369.66 1269.54 1369.63 1271.21L1369.63 1281.9 1393.23 1281.9Z" fill="#0BB5DD"/><path d="M1397.95 1290.08 1397.95 1279.47C1397.96 1277.8 1398.74 1276.23 1400.08 1275.22 1403.22 1272.96 1406.73 1271.29 1410.46 1270.27 1413.28 1269.35 1416.22 1268.89 1419.18 1268.91 1422.14 1268.97 1425.08 1269.43 1427.92 1270.27 1431.7 1271.14 1435.24 1272.83 1438.3 1275.22 1439.67 1276.19 1440.47 1277.79 1440.43 1279.47L1440.43 1290.08Z" fill="#0BB5DD"/><path d="M1429.8 1255.4C1429.8 1261.26 1425.05 1266.01 1419.18 1266.01 1413.32 1266.01 1408.57 1261.26 1408.57 1255.4 1408.57 1249.53 1413.32 1244.78 1419.18 1244.78 1425.05 1244.78 1429.8 1249.53 1429.8 1255.4Z" fill="#0BB5DD"/><path d="M1463.53 1180.92 1375.17 1180.92C1372.16 1180.92 1369.72 1183.36 1369.72 1186.38L1369.72 1216.4C1369.72 1219.41 1372.16 1221.85 1375.17 1221.85L1395.3 1221.85 1395.3 1230.04 1403.9 1221.85 1413.18 1221.85 1418.5 1230.04 1423.41 1221.85 1433.1 1221.85 1441.7 1230.04 1441.7 1221.85 1463.53 1221.85C1466.55 1221.85 1468.99 1219.41 1468.99 1216.4L1468.99 1186.38C1468.99 1183.36 1466.55 1180.92 1463.53 1180.92ZM1383.36 1193.2 1447.16 1193.2 1447.16 1195.93 1383.36 1195.93ZM1433.51 1209.57 1383.36 1209.57 1383.36 1206.84 1433.51 1206.84ZM1455.34 1202.75 1383.36 1202.75 1383.36 1200.02 1455.34 1200.02Z" fill="#0BB5DD"/></g></g></g><path d="M2465.5 874.743C2465.5 870.164 2487.42 866.5 2514 866.5 2540.58 866.5 2562.5 870.164 2562.5 874.743 2562.5 907.257 2562.5 907.257 2562.5 907.257 2562.5 911.836 2540.58 915.5 2514 915.5 2487.42 915.5 2465.5 911.836 2465.5 907.257L2465.5 874.743Z" stroke="#BC8C00" stroke-width="4.58333" stroke-miterlimit="8" fill="#FFC000" fill-rule="evenodd"/><path d="M2465.5 934.743C2465.5 930.163 2487.42 926.5 2514 926.5 2540.58 926.5 2562.5 930.163 2562.5 934.743 2562.5 967.257 2562.5 967.257 2562.5 967.257 2562.5 971.836 2540.58 975.5 2514 975.5 2487.42 975.5 2465.5 971.836 2465.5 967.257L2465.5 934.743Z" stroke="#BC8C00" stroke-width="4.58333" stroke-miterlimit="8" fill="#FFC000" fill-rule="evenodd"/><path d="M2562.5 934.5C2562.5 938.5 2540.58 942.5 2514 942.5 2487.42 942.5 2465.5 938.5 2465.5 934.5" stroke="#BC8C00" stroke-width="4.58333" stroke-miterlimit="8" fill="#FFC000" fill-rule="evenodd"/><path d="M2465.5 934.743C2465.5 930.163 2487.42 926.5 2514 926.5 2540.58 926.5 2562.5 930.163 2562.5 934.743 2562.5 967.257 2562.5 967.257 2562.5 967.257 2562.5 971.836 2540.58 975.5 2514 975.5 2487.42 975.5 2465.5 971.836 2465.5 967.257L2465.5 934.743Z" stroke="#BC8C00" stroke-width="4.58333" stroke-miterlimit="8" fill="#FFC000" fill-rule="evenodd"/><path d="M2465.5 904C2465.5 899.278 2487.42 895.5 2514 895.5 2540.58 895.5 2562.5 899.278 2562.5 904 2562.5 938 2562.5 938 2562.5 938 2562.5 942.722 2540.58 946.5 2514 946.5 2487.42 946.5 2465.5 942.722 2465.5 938L2465.5 904Z" stroke="#BC8C00" stroke-width="4.58333" stroke-miterlimit="8" fill="#FFC000" fill-rule="evenodd"/><path d="M2562.5 904.5C2562.5 908.944 2540.58 912.5 2514 912.5 2487.42 912.5 2465.5 908.944 2465.5 904.5" stroke="#BC8C00" stroke-width="4.58333" stroke-miterlimit="8" fill="#FFC000" fill-rule="evenodd"/><path d="M2465.5 904C2465.5 899.278 2487.42 895.5 2514 895.5 2540.58 895.5 2562.5 899.278 2562.5 904 2562.5 938 2562.5 938 2562.5 938 2562.5 942.722 2540.58 946.5 2514 946.5 2487.42 946.5 2465.5 942.722 2465.5 938L2465.5 904Z" stroke="#BC8C00" stroke-width="4.58333" stroke-miterlimit="8" fill="#FFC000" fill-rule="evenodd"/><path d="M2465.5 874.743C2465.5 870.164 2487.42 866.5 2514 866.5 2540.58 866.5 2562.5 870.164 2562.5 874.743 2562.5 907.257 2562.5 907.257 2562.5 907.257 2562.5 911.836 2540.58 915.5 2514 915.5 2487.42 915.5 2465.5 911.836 2465.5 907.257L2465.5 874.743Z" stroke="#BC8C00" stroke-width="4.58333" stroke-miterlimit="8" fill="#FFC000" fill-rule="evenodd"/><path d="M2562.5 874.5C2562.5 878.944 2540.58 882.5 2514 882.5 2487.42 882.5 2465.5 878.944 2465.5 874.5" stroke="#BC8C00" stroke-width="4.58333" stroke-miterlimit="8" fill="#FFC000" fill-rule="evenodd"/><g clip-path="url(#clip13)"><g clip-path="url(#clip14)"><g clip-path="url(#clip15)"><path d="M2569.4 962.114 2561.1 970.417 2552.78 962.114 2557.42 962.114C2555.85 959.058 2552.7 957.135 2549.27 957.13 2547.05 957.133 2544.91 957.949 2543.26 959.424L2534.82 959.424C2538.58 951.434 2548.1 948.006 2556.09 951.767 2560.36 953.774 2563.52 957.561 2564.73 962.114Z" stroke="#BC8C00" stroke-width="3.28" fill="#FFC000"/><path d="M2529.19 970.417 2537.51 962.114 2545.81 970.417 2541.13 970.417C2542.7 973.471 2545.84 975.394 2549.27 975.401 2551.49 975.4 2553.63 974.584 2555.29 973.107L2563.77 973.107C2560 981.107 2550.46 984.533 2542.46 980.76 2538.2 978.75 2535.04 974.967 2533.82 970.417Z" stroke="#BC8C00" stroke-width="3.28" fill="#FFC000"/><path d="M2588.87 996.375C2599.94 996.113 2608.69 986.932 2608.43 975.868 2608.2 966.106 2600.97 957.932 2591.31 956.515 2590.29 950.25 2586.84 944.636 2581.72 940.884 2576.42 937.128 2569.8 935.736 2563.44 937.04 2557.18 927.374 2545.5 922.707 2534.3 925.394 2523.39 928.205 2515.23 937.3 2513.62 948.456 2506.35 948.651 2499.57 952.169 2495.23 958.001 2490.08 965.156 2489.14 974.516 2492.77 982.55 2496.46 990.469 2504.21 995.723 2512.93 996.234ZM2513.28 988.277C2507.48 987.912 2502.34 984.422 2499.86 979.168 2497.46 973.812 2498.08 967.583 2501.49 962.806 2504.98 958.114 2510.78 955.745 2516.56 956.656L2521.11 957.412 2521.11 952.39C2521.15 943.315 2527.32 935.416 2536.11 933.171 2544.93 931.044 2554.05 935.296 2558.1 943.421L2559.65 946.509 2562.86 945.368C2567.68 943.668 2573.01 944.414 2577.18 947.367 2581.31 950.398 2583.76 955.217 2583.77 960.346L2583.77 964.344 2589 964.344C2595.64 964.593 2600.82 970.178 2600.57 976.818 2600.33 983.157 2595.21 988.222 2588.87 988.393Z" stroke="#BC8C00" stroke-width="3.28" fill="#FFC000"/></g></g></g><g clip-path="url(#clip16)"><g clip-path="url(#clip17)"><g clip-path="url(#clip18)"><path d="M104.393 65.6635C96.9988 65.6635 91.1895 59.678 91.1895 52.4603 91.1895 45.2426 97.1749 39.2572 104.393 39.2572 111.786 39.2572 117.596 45.2426 117.596 52.4603 117.596 59.678 111.61 65.6635 104.393 65.6635ZM134.144 44.1864C133.439 41.7218 132.559 39.4333 131.327 37.3208L134.144 29.0468 127.806 22.7093 119.532 25.526C117.42 24.2937 115.131 23.4135 112.667 22.7093L108.794 14.9635 99.9915 14.9635 96.1186 22.7093C93.654 23.4135 91.3655 24.2937 89.253 25.526L80.9791 22.7093 74.6416 29.0468 77.4582 37.3208C76.2259 39.4333 75.3457 41.7218 74.6416 44.1864L66.8957 48.0593 66.8957 56.8614 74.6416 60.7343C75.3457 63.1989 76.2259 65.4874 77.4582 67.5999L74.6416 75.8738 80.803 82.0353 89.077 79.2186C91.1895 80.4509 93.478 81.3311 95.9426 82.0353L99.8155 89.7811 108.618 89.7811 112.49 82.0353C114.955 81.3311 117.244 80.4509 119.356 79.2186L127.63 82.0353 133.968 75.8738 131.151 67.5999C132.383 65.4874 133.439 63.0228 134.144 60.7343L141.889 56.8614 141.889 48.0593 134.144 44.1864Z" stroke="#BC8C00" stroke-width="3.31372" fill="#FFC000" transform="matrix(1 0 0 1.00592 1808 681)"/><path d="M64.6072 129.743C57.2135 129.743 51.4041 123.757 51.4041 116.539 51.4041 109.146 57.3895 103.336 64.6072 103.336 72.0009 103.336 77.8103 109.322 77.8103 116.539 77.8103 123.757 72.0009 129.743 64.6072 129.743L64.6072 129.743ZM91.5415 101.4 94.3582 93.1259 88.0207 86.7884 79.7468 89.6051C77.6343 88.3728 75.1697 87.4926 72.8811 86.7884L69.0082 79.0426 60.2062 79.0426 56.3333 86.7884C53.8687 87.4926 51.5801 88.3728 49.4676 89.6051L41.1937 86.7884 35.0322 92.9499 37.6729 101.224C36.4406 103.336 35.5604 105.801 34.8562 108.089L27.1104 111.962 27.1104 120.764 34.8562 124.637C35.5604 127.102 36.4406 129.39 37.6729 131.503L35.0322 139.777 41.1937 145.938 49.4676 143.298C51.5801 144.53 53.8687 145.41 56.3333 146.114L60.2062 153.86 69.0082 153.86 72.8811 146.114C75.3457 145.41 77.6343 144.53 79.7468 143.298L88.0207 146.114 94.1822 139.777 91.5415 131.679C92.7738 129.566 93.654 127.278 94.3582 124.813L102.104 120.94 102.104 112.138 94.3582 108.265C93.654 105.801 92.7738 103.512 91.5415 101.4Z" stroke="#BC8C00" stroke-width="3.31372" fill="#FFC000" transform="matrix(1 0 0 1.00592 1808 681)"/></g></g></g><path d="M2693.5 1609.5 2704.5 1609.5 2704.5 1622.5 2693.5 1622.5Z" stroke="#BC8C00" stroke-width="4.58333" stroke-miterlimit="8" fill="#FFC000" fill-rule="evenodd"/><path d="M2693.5 1629.5 2704.5 1629.5 2704.5 1638.5 2693.5 1638.5Z" stroke="#BC8C00" stroke-width="4.58333" stroke-miterlimit="8" fill="#FFC000" fill-rule="evenodd"/><path d="M2711.5 1629.5 2761.5 1629.5 2761.5 1638.5 2711.5 1638.5Z" stroke="#BC8C00" stroke-width="4.58333" stroke-miterlimit="8" fill="#FFC000" fill-rule="evenodd"/><path d="M2636.5 1629.5 2686.5 1629.5 2686.5 1638.5 2636.5 1638.5Z" stroke="#BC8C00" stroke-width="4.58333" stroke-miterlimit="8" fill="#FFC000" fill-rule="evenodd"/><path d="M2748.29 1584.5 2649.71 1584.5C2646.28 1584.5 2643.5 1587 2643.5 1590.09L2643.5 1603.91C2643.5 1607 2646.28 1609.5 2649.71 1609.5L2748.29 1609.5C2751.72 1609.5 2754.5 1607 2754.5 1603.91L2754.5 1590.09C2754.5 1587 2751.72 1584.5 2748.29 1584.5ZM2660.84 1600.13C2658.93 1600.13 2657.38 1598.73 2657.38 1597 2657.38 1595.27 2658.93 1593.88 2660.84 1593.88 2662.76 1593.88 2664.31 1595.27 2664.31 1597 2664.31 1598.73 2662.76 1600.13 2660.84 1600.13ZM2678.19 1600.13C2676.27 1600.13 2674.72 1598.73 2674.72 1597 2674.72 1595.27 2676.27 1593.88 2678.19 1593.88 2680.1 1593.88 2681.66 1595.27 2681.66 1597 2681.66 1598.73 2680.1 1600.13 2678.19 1600.13ZM2695.53 1600.13C2693.62 1600.13 2692.06 1598.73 2692.06 1597 2692.06 1595.27 2693.62 1593.88 2695.53 1593.88 2697.45 1593.88 2699 1595.27 2699 1597 2699 1598.73 2697.45 1600.13 2695.53 1600.13Z" stroke="#BC8C00" stroke-width="4.58333" stroke-miterlimit="8" fill="#FFC000" fill-rule="evenodd"/><path d="M2748.29 1551.5 2649.71 1551.5C2646.28 1551.5 2643.5 1554.1 2643.5 1557.32L2643.5 1571.68C2643.5 1574.9 2646.28 1577.5 2649.71 1577.5L2748.29 1577.5C2751.72 1577.5 2754.5 1574.9 2754.5 1571.68L2754.5 1557.32C2754.5 1554.1 2751.72 1551.5 2748.29 1551.5ZM2660.84 1567.75C2658.93 1567.75 2657.38 1566.3 2657.38 1564.5 2657.38 1562.71 2658.93 1561.25 2660.84 1561.25 2662.76 1561.25 2664.31 1562.71 2664.31 1564.5 2664.31 1566.3 2662.76 1567.75 2660.84 1567.75ZM2678.19 1567.75C2676.27 1567.75 2674.72 1566.3 2674.72 1564.5 2674.72 1562.71 2676.27 1561.25 2678.19 1561.25 2680.1 1561.25 2681.66 1562.71 2681.66 1564.5 2681.66 1566.3 2680.1 1567.75 2678.19 1567.75ZM2695.53 1567.75C2693.62 1567.75 2692.06 1566.3 2692.06 1564.5 2692.06 1562.71 2693.62 1561.25 2695.53 1561.25 2697.45 1561.25 2699 1562.71 2699 1564.5 2699 1566.3 2697.45 1567.75 2695.53 1567.75Z" stroke="#BC8C00" stroke-width="4.58333" stroke-miterlimit="8" fill="#FFC000" fill-rule="evenodd"/><path d="M2748.29 1519.5 2649.71 1519.5C2646.28 1519.5 2643.5 1522.1 2643.5 1525.32L2643.5 1539.68C2643.5 1542.9 2646.28 1545.5 2649.71 1545.5L2748.29 1545.5C2751.72 1545.5 2754.5 1542.9 2754.5 1539.68L2754.5 1525.32C2754.5 1522.1 2751.72 1519.5 2748.29 1519.5ZM2660.84 1535.75C2658.93 1535.75 2657.38 1534.3 2657.38 1532.5 2657.38 1530.71 2658.93 1529.25 2660.84 1529.25 2662.76 1529.25 2664.31 1530.71 2664.31 1532.5 2664.31 1534.3 2662.76 1535.75 2660.84 1535.75ZM2678.19 1535.75C2676.27 1535.75 2674.72 1534.3 2674.72 1532.5 2674.72 1530.71 2676.27 1529.25 2678.19 1529.25 2680.1 1529.25 2681.66 1530.71 2681.66 1532.5 2681.66 1534.3 2680.1 1535.75 2678.19 1535.75ZM2695.53 1535.75C2693.62 1535.75 2692.06 1534.3 2692.06 1532.5 2692.06 1530.71 2693.62 1529.25 2695.53 1529.25 2697.45 1529.25 2699 1530.71 2699 1532.5 2699 1534.3 2697.45 1535.75 2695.53 1535.75Z" stroke="#BC8C00" stroke-width="4.58333" stroke-miterlimit="8" fill="#FFC000" fill-rule="evenodd"/><path d="M1554 1408C1554 1127.44 1781.44 900 2062 900 2342.56 900 2570 1127.44 2570 1408 2570 1688.56 2342.56 1916 2062 1916 1781.44 1916 1554 1688.56 1554 1408Z" stroke="#1FC2A7" stroke-width="13.75" stroke-miterlimit="8" fill="none" fill-rule="evenodd"/><text fill="#FFC000" font-family="Calibri,Calibri_MSFontService,sans-serif" font-weight="400" font-size="110" transform="matrix(1 0 0 1 2599.15 646)">infrastructure<tspan font-size="110" x="219.404" y="132">software</tspan><tspan font-size="110" x="298.764" y="264">service</tspan><tspan fill="#1FC2A7" font-size="110" x="263.26" y="1337">transfer</tspan><tspan fill="#1FC2A7" font-size="110" x="167.514" y="1469">e</tspan><tspan fill="#1FC2A7" font-size="110" x="222.514" y="1469">ducation</tspan><tspan fill="#1FC2A7" font-size="110" x="119.389" y="1601">application</tspan><tspan fill="#2D3E50" font-size="110" x="-1880.48" y="-12">management</tspan><tspan fill="#2D3E50" font-size="110" x="-1880.48" y="120">coordination</tspan></text></g></svg>