<svg width="2195" height="1436" xmlns="http://www.w3.org/2000/svg" xmlns:xlink="http://www.w3.org/1999/xlink" xml:space="preserve" overflow="hidden"><defs><clipPath id="clip0"><rect x="-7" y="502" width="2195" height="1436"/></clipPath></defs><g clip-path="url(#clip0)" transform="translate(7 -502)"><rect x="1121.5" y="1612.5" width="145" height="300" stroke="#D9D9D9" stroke-width="4.58333" stroke-miterlimit="8" fill="#FFFFFF"/><rect x="1296.5" y="1534.5" width="145" height="378" stroke="#D9D9D9" stroke-width="4.58333" stroke-miterlimit="8" fill="#FFFFFF"/><rect x="1468.5" y="1456.5" width="146" height="456" stroke="#D9D9D9" stroke-width="4.58333" stroke-miterlimit="8" fill="#FFFFFF"/><path d="M1058.1 1757.14C818.942 1761.3 621.695 1570.79 617.54 1331.63 613.384 1092.47 803.892 895.226 1043.05 891.07 1282.21 886.914 1479.46 1077.42 1483.61 1316.58 1483.8 1327.44 1483.58 1338.3 1482.95 1349.14" stroke="#FFFFFF" stroke-width="27.5" stroke-linecap="round" stroke-miterlimit="8" fill="none" fill-rule="evenodd"/><path d="M0 0 86.459 95.5495" stroke="#FFFFFF" stroke-width="27.5" stroke-linecap="round" stroke-miterlimit="8" fill="none" fill-rule="evenodd" transform="matrix(1 0 0 -1 1476 1370.55)"/><path d="M0 0 86.459 95.5495" stroke="#FFFFFF" stroke-width="27.5" stroke-linecap="round" stroke-miterlimit="8" fill="none" fill-rule="evenodd" transform="matrix(-1.83697e-16 -1 -1 1.83697e-16 1475.55 1370.46)"/><path d="M867.537 1422.94C848.035 1388.91 847.874 1313.41 868.755 1268.24 889.636 1223.08 928.431 1159.56 1036.37 1158 1073.86 1157.46 1128.84 1148.75 1164.12 1140.25 1199.41 1131.75 1232.46 1106.47 1248.09 1107.01 1263.71 1107.55 1260.37 1122.06 1257.85 1143.51 1255.32 1164.95 1243.88 1208.25 1232.94 1235.68 1221.99 1263.1 1191.94 1342.9 1169.23 1379.34 1146.52 1415.77 1127.23 1438.77 1096.65 1454.27 1066.08 1469.78 1023.95 1477.61 985.765 1472.39 947.579 1467.16 887.039 1456.96 867.537 1422.94Z" stroke="#44546A" stroke-width="27.5" stroke-linecap="round" stroke-miterlimit="8" fill="none" fill-rule="evenodd"/><path d="M826 1531C844.333 1452 862.667 1372.99 1024 1321" stroke="#44546A" stroke-width="27.5" stroke-linecap="round" stroke-miterlimit="8" fill="none" fill-rule="evenodd"/><path d="M1473.5 1048.5 1578.29 1048.5" stroke="#FFFFFF" stroke-width="4.58333" stroke-miterlimit="8" fill="none" fill-rule="evenodd"/><path d="M0 0 120.698 116.543" stroke="#FFFFFF" stroke-width="4.58333" stroke-miterlimit="8" fill="none" fill-rule="evenodd" transform="matrix(1 0 0 -1 1355.5 1163.04)"/><path d="M1553.83 516.1C1573.69 516.149 1593.76 521.712 1611.51 533.161 1635.43 549.876 1650.22 574.199 1654.85 600.322 1659.48 626.445 1653.95 654.369 1637.24 678.289L1487.99 891.862C1467.69 920.907 1435.85 935.533 1402.9 935.388L1380.71 967.142 1370.02 957.429C1355.76 945.665 1340.94 934.573 1325.58 924.2L1285.38 899.775 1307.22 868.524C1295.75 837.625 1298.54 802.701 1318.84 773.656L1468.09 560.083C1488.24 531.251 1520.74 516.017 1553.83 516.1Z" stroke="#FFFFFF" stroke-width="27.5" stroke-linecap="round" stroke-miterlimit="8" fill="none" fill-rule="evenodd"/><text fill="#44546A" font-family="Shadows Into Light Two,Shadows Into Light Two_MSFontService,sans-serif" font-weight="300" font-size="92" transform="matrix(1 0 0 1 225.233 1748)">experimental<tspan font-size="92" x="144.948" y="110">data</tspan><tspan font-size="92" x="1396.01" y="-672">computation</tspan><tspan font-size="92" x="-18.5762" y="-809">annotation</tspan></text><path d="M0 0 104.792 0.000360892" stroke="#FFFFFF" stroke-width="4.58333" stroke-miterlimit="8" fill="none" fill-rule="evenodd" transform="matrix(-1 0 0 1 709.292 911.5)"/><path d="M828.198 1026.04 707.5 909.5" stroke="#FFFFFF" stroke-width="4.58333" stroke-miterlimit="8" fill="none" fill-rule="evenodd"/><path d="M774.292 1775.5 669.5 1775.5" stroke="#FFFFFF" stroke-width="4.58333" stroke-miterlimit="8" fill="none" fill-rule="evenodd"/><path d="M0 0 120.698 116.543" stroke="#FFFFFF" stroke-width="4.58333" stroke-miterlimit="8" fill="none" fill-rule="evenodd" transform="matrix(-1 0 0 1 893.198 1660.5)"/></g></svg>