<svg width="4063" height="1158" xmlns="http://www.w3.org/2000/svg" xmlns:xlink="http://www.w3.org/1999/xlink" xml:space="preserve" overflow="hidden"><defs><clipPath id="clip0"><rect x="18" y="258" width="4063" height="1158"/></clipPath><clipPath id="clip1"><rect x="307" y="243" width="1298" height="694"/></clipPath><clipPath id="clip2"><rect x="307" y="58" width="1298" height="1387"/></clipPath><clipPath id="clip3"><rect x="307" y="58" width="1298" height="1387"/></clipPath><clipPath id="clip4"><rect x="1604" y="323" width="522" height="858"/></clipPath><clipPath id="clip5"><rect x="307" y="258" width="1298" height="1387"/></clipPath><clipPath id="clip6"><rect x="307" y="258" width="1298" height="1387"/></clipPath><clipPath id="clip7"><rect x="1604" y="523" width="522" height="857"/></clipPath><clipPath id="clip8"><rect x="307" y="457" width="1298" height="1387"/></clipPath><clipPath id="clip9"><rect x="307" y="457" width="1298" height="1387"/></clipPath><clipPath id="clip10"><rect x="1604" y="804" width="522" height="694"/></clipPath><clipPath id="clip11"><rect x="307" y="967" width="1298" height="694"/></clipPath><clipPath id="clip12"><rect x="1604" y="967" width="522" height="694"/></clipPath><clipPath id="clip13"><rect x="2250" y="242" width="607" height="694"/></clipPath><clipPath id="clip14"><rect x="2856" y="242" width="608" height="694"/></clipPath><clipPath id="clip15"><rect x="3463" y="242" width="607" height="694"/></clipPath><clipPath id="clip16"><rect x="2250" y="377" width="607" height="694"/></clipPath><clipPath id="clip17"><rect x="2856" y="295" width="608" height="857"/></clipPath><clipPath id="clip18"><rect x="3463" y="295" width="607" height="857"/></clipPath><clipPath id="clip19"><rect x="2250" y="525" width="607" height="694"/></clipPath><clipPath id="clip20"><rect x="2856" y="443" width="608" height="857"/></clipPath><clipPath id="clip21"><rect x="3463" y="443" width="607" height="857"/></clipPath><clipPath id="clip22"><rect x="2250" y="673" width="607" height="694"/></clipPath><clipPath id="clip23"><rect x="2856" y="673" width="608" height="694"/></clipPath><clipPath id="clip24"><rect x="3463" y="673" width="607" height="694"/></clipPath><clipPath id="clip25"><rect x="2250" y="823" width="607" height="694"/></clipPath><clipPath id="clip26"><rect x="2856" y="823" width="608" height="694"/></clipPath><clipPath id="clip27"><rect x="3463" y="823" width="607" height="694"/></clipPath><clipPath id="clip28"><rect x="2250" y="970" width="607" height="694"/></clipPath><clipPath id="clip29"><rect x="2856" y="970" width="608" height="694"/></clipPath><clipPath id="clip30"><rect x="3463" y="970" width="607" height="694"/></clipPath></defs><g clip-path="url(#clip0)" transform="translate(-18 -258)"><path d="M23 317.331C23 287.325 47.3248 263 77.3308 263L172.669 263C202.675 263 227 287.325 227 317.331L227 391.669C227 421.675 202.675 446 172.669 446L77.3308 446C47.3248 446 23 421.675 23 391.669Z" stroke="#FFFFFF" stroke-width="10.3125" stroke-miterlimit="8" fill="none" fill-rule="evenodd"/><path d="M177 371.164C177 342.355 200.355 319 229.164 319L328.836 319C357.645 319 381 342.355 381 371.164L381 449.836C381 478.645 357.645 502 328.836 502L229.164 502C200.355 502 177 478.645 177 449.836Z" stroke="#FFFFFF" stroke-width="10.3125" stroke-miterlimit="8" fill="none" fill-rule="evenodd"/><path d="M60.9998 465.006C60.9998 434.627 85.6269 410 116.006 410L209.994 410C240.373 410 265 434.627 265 465.006L265 541.994C265 572.373 240.373 597 209.994 597L116.006 597C85.6269 597 60.9998 572.373 60.9998 541.994Z" stroke="#FFFFFF" stroke-width="10.3125" stroke-miterlimit="8" fill="none" fill-rule="evenodd"/><path d="M1604.63 527.68 1604.63 1376.76" stroke="#FFFFFF" stroke-width="6.875" stroke-linejoin="round" stroke-miterlimit="10" fill="none" fill-rule="evenodd"/><path d="M307.083 651.436 2125.98 651.436" stroke="#FFFFFF" stroke-width="6.875" stroke-linejoin="round" stroke-miterlimit="10" fill="none" fill-rule="evenodd"/><path d="M307.083 850.862 2125.98 850.862" stroke="#FFFFFF" stroke-width="6.875" stroke-linejoin="round" stroke-miterlimit="10" fill="none" fill-rule="evenodd"/><path d="M307.083 1050.29 2125.98 1050.29" stroke="#FFFFFF" stroke-width="6.875" stroke-linejoin="round" stroke-miterlimit="10" fill="none" fill-rule="evenodd"/><path d="M307.083 1249.72 2125.98 1249.72" stroke="#FFFFFF" stroke-width="6.875" stroke-linejoin="round" stroke-miterlimit="10" fill="none" fill-rule="evenodd"/><g clip-path="url(#clip1)"><text fill="#FFFFFF" font-family="Calibri,Calibri_MSFontService,sans-serif" font-weight="700" font-size="83" transform="matrix(1 0 0 1 346.322 618)">STUDY ASSAY</text></g><g clip-path="url(#clip2)"><text fill="#FFFFFF" font-family="Calibri,Calibri_MSFontService,sans-serif" font-weight="400" font-size="83" transform="matrix(1 0 0 1 346.322 730)">Study Assay Measurement </text></g><g clip-path="url(#clip3)"><text fill="#FFFFFF" font-family="Calibri,Calibri_MSFontService,sans-serif" font-weight="400" font-size="83" transform="matrix(1 0 0 1 346.322 829)">Type</text></g><g clip-path="url(#clip4)"><text fill="#FFFFFF" font-family="Calibri,Calibri_MSFontService,sans-serif" font-weight="400" font-size="83" transform="matrix(1 0 0 1 1643.87 791)">“value”</text></g><g clip-path="url(#clip5)"><text fill="#FFFFFF" font-family="Calibri,Calibri_MSFontService,sans-serif" font-weight="400" font-size="83" transform="matrix(1 0 0 1 346.322 929)">Study Assay Measurement Type </text></g><g clip-path="url(#clip6)"><text fill="#FFFFFF" font-family="Calibri,Calibri_MSFontService,sans-serif" font-weight="400" font-size="83" transform="matrix(1 0 0 1 346.322 1028)">Term Accession Number</text></g><g clip-path="url(#clip7)"><text fill="#FFFFFF" font-family="Calibri,Calibri_MSFontService,sans-serif" font-weight="400" font-size="83" transform="matrix(1 0 0 1 1643.87 990)">“value”</text></g><g clip-path="url(#clip8)"><text fill="#FFFFFF" font-family="Calibri,Calibri_MSFontService,sans-serif" font-weight="400" font-size="83" transform="matrix(1 0 0 1 346.322 1129)">Study Assay Measurement Type </text></g><g clip-path="url(#clip9)"><text fill="#FFFFFF" font-family="Calibri,Calibri_MSFontService,sans-serif" font-weight="400" font-size="83" transform="matrix(1 0 0 1 346.322 1228)">Term Source REF</text></g><g clip-path="url(#clip10)"><text fill="#FFFFFF" font-family="Calibri,Calibri_MSFontService,sans-serif" font-weight="400" font-size="83" transform="matrix(1 0 0 1 1643.87 1178)">“value”</text></g><g clip-path="url(#clip11)"><text fill="#FFFFFF" font-family="Calibri,Calibri_MSFontService,sans-serif" font-weight="400" font-size="83" transform="matrix(1 0 0 1 346.322 1341)">…</text></g><g clip-path="url(#clip12)"><text fill="#FFFFFF" font-family="Calibri,Calibri_MSFontService,sans-serif" font-weight="400" font-size="83" transform="matrix(1 0 0 1 1643.87 1341)">…</text></g><path d="M307.5 553.765C307.5 539.259 319.259 527.5 333.765 527.5L2100.24 527.5C2114.74 527.5 2126.5 539.259 2126.5 553.765L2126.5 1363.24C2126.5 1377.74 2114.74 1389.5 2100.24 1389.5L333.765 1389.5C319.259 1389.5 307.5 1377.74 307.5 1363.24Z" stroke="#FFFFFF" stroke-width="20.625" stroke-miterlimit="8" fill="none" fill-rule="evenodd"/><path d="M2856.96 527.343 2856.96 1388.71" stroke="#FFFFFF" stroke-width="6.875" stroke-linejoin="round" stroke-miterlimit="10" fill="none" fill-rule="evenodd"/><path d="M3463.26 527.343 3463.26 1388.71" stroke="#FFFFFF" stroke-width="6.875" stroke-linejoin="round" stroke-miterlimit="10" fill="none" fill-rule="evenodd"/><path d="M2250.66 648.777 4069.56 648.777" stroke="#FFFFFF" stroke-width="6.875" stroke-linejoin="round" stroke-miterlimit="10" fill="none" fill-rule="evenodd"/><path d="M2250.66 796.887 4069.56 796.887" stroke="#FFFFFF" stroke-width="6.875" stroke-linejoin="round" stroke-miterlimit="10" fill="none" fill-rule="evenodd"/><path d="M2250.66 944.997 4069.56 944.997" stroke="#FFFFFF" stroke-width="6.875" stroke-linejoin="round" stroke-miterlimit="10" fill="none" fill-rule="evenodd"/><path d="M2250.66 1094.41 4069.56 1094.41" stroke="#FFFFFF" stroke-width="6.875" stroke-linejoin="round" stroke-miterlimit="10" fill="none" fill-rule="evenodd"/><path d="M2250.66 1243.82 4069.56 1243.82" stroke="#FFFFFF" stroke-width="6.875" stroke-linejoin="round" stroke-miterlimit="10" fill="none" fill-rule="evenodd"/><g clip-path="url(#clip13)"><text fill="#FFFFFF" font-family="Calibri,Calibri_MSFontService,sans-serif" font-weight="700" font-size="83" transform="matrix(1 0 0 1 2289.9 616)">Source Name</text></g><g clip-path="url(#clip14)"><text fill="#FFFFFF" font-family="Calibri,Calibri_MSFontService,sans-serif" font-weight="700" font-size="83" transform="matrix(1 0 0 1 2896.2 616)">Building block</text></g><g clip-path="url(#clip15)"><text fill="#FFFFFF" font-family="Calibri,Calibri_MSFontService,sans-serif" font-weight="700" font-size="83" transform="matrix(1 0 0 1 3502.5 616)">Sample Name</text></g><g clip-path="url(#clip16)"><text fill="#FFFFFF" font-family="Calibri,Calibri_MSFontService,sans-serif" font-weight="400" font-size="83" transform="matrix(1 0 0 1 2289.9 751)">mrv1</text></g><g clip-path="url(#clip17)"><text fill="#FFFFFF" font-family="Calibri,Calibri_MSFontService,sans-serif" font-weight="400" font-size="83" transform="matrix(1 0 0 1 2896.2 762)">descriptorA</text></g><g clip-path="url(#clip18)"><text fill="#FFFFFF" font-family="Calibri,Calibri_MSFontService,sans-serif" font-weight="400" font-size="83" transform="matrix(1 0 0 1 3502.5 762)">s1</text></g><g clip-path="url(#clip19)"><text fill="#FFFFFF" font-family="Calibri,Calibri_MSFontService,sans-serif" font-weight="400" font-size="83" transform="matrix(1 0 0 1 2289.9 899)">mrv2</text></g><g clip-path="url(#clip20)"><text fill="#FFFFFF" font-family="Calibri,Calibri_MSFontService,sans-serif" font-weight="400" font-size="83" transform="matrix(1 0 0 1 2896.2 910)">descriptorB</text></g><g clip-path="url(#clip21)"><text fill="#FFFFFF" font-family="Calibri,Calibri_MSFontService,sans-serif" font-weight="400" font-size="83" transform="matrix(1 0 0 1 3502.5 910)">s2</text></g><g clip-path="url(#clip22)"><text fill="#FFFFFF" font-family="Calibri,Calibri_MSFontService,sans-serif" font-weight="400" font-size="83" transform="matrix(1 0 0 1 2289.9 1048)">mrv3</text></g><g clip-path="url(#clip23)"><text fill="#FFFFFF" font-family="Calibri,Calibri_MSFontService,sans-serif" font-weight="400" font-size="83" transform="matrix(1 0 0 1 2896.2 1048)">descriptorC</text></g><g clip-path="url(#clip24)"><text fill="#FFFFFF" font-family="Calibri,Calibri_MSFontService,sans-serif" font-weight="400" font-size="83" transform="matrix(1 0 0 1 3502.5 1048)">s3</text></g><g clip-path="url(#clip25)"><text fill="#FFFFFF" font-family="Calibri,Calibri_MSFontService,sans-serif" font-weight="400" font-size="83" transform="matrix(1 0 0 1 2289.9 1197)">mrv4</text></g><g clip-path="url(#clip26)"><text fill="#FFFFFF" font-family="Calibri,Calibri_MSFontService,sans-serif" font-weight="400" font-size="83" transform="matrix(1 0 0 1 2896.2 1197)">descriptorD</text></g><g clip-path="url(#clip27)"><text fill="#FFFFFF" font-family="Calibri,Calibri_MSFontService,sans-serif" font-weight="400" font-size="83" transform="matrix(1 0 0 1 3502.5 1197)">s4</text></g><g clip-path="url(#clip28)"><text fill="#FFFFFF" font-family="Calibri,Calibri_MSFontService,sans-serif" font-weight="400" font-size="83" transform="matrix(1 0 0 1 2289.9 1344)">…</text></g><g clip-path="url(#clip29)"><text fill="#FFFFFF" font-family="Calibri,Calibri_MSFontService,sans-serif" font-weight="400" font-size="83" transform="matrix(1 0 0 1 2896.2 1344)">…</text></g><g clip-path="url(#clip30)"><text fill="#FFFFFF" font-family="Calibri,Calibri_MSFontService,sans-serif" font-weight="400" font-size="83" transform="matrix(1 0 0 1 3502.5 1344)">…</text></g><path d="M2251.5 549.765C2251.5 535.259 2263.26 523.5 2277.76 523.5L4044.24 523.5C4058.74 523.5 4070.5 535.259 4070.5 549.765L4070.5 1359.23C4070.5 1373.74 4058.74 1385.5 4044.24 1385.5L2277.76 1385.5C2263.26 1385.5 2251.5 1373.74 2251.5 1359.23Z" stroke="#FFFFFF" stroke-width="20.625" stroke-miterlimit="8" fill="none" fill-rule="evenodd"/></g></svg>