<svg width="3101" height="1410" xmlns="http://www.w3.org/2000/svg" xmlns:xlink="http://www.w3.org/1999/xlink" xml:space="preserve" overflow="hidden"><defs><clipPath id="clip0"><rect x="389" y="479" width="3101" height="1410"/></clipPath><clipPath id="clip1"><rect x="931" y="1193" width="165" height="166"/></clipPath><clipPath id="clip2"><rect x="931" y="1193" width="165" height="166"/></clipPath><clipPath id="clip3"><rect x="931" y="1193" width="165" height="166"/></clipPath></defs><g clip-path="url(#clip0)" transform="translate(-389 -479)"><rect x="391.5" y="802.5" width="201" height="90.9998" stroke="#0BB5DD" stroke-width="4.58333" stroke-miterlimit="8" stroke-opacity="0.14902" fill="#0BB5DD" fill-opacity="0.0509804"/><path d="M592 848 751.5 848" stroke="#0BB5DD" stroke-width="2.29167" stroke-miterlimit="8" stroke-opacity="0.14902" fill="#0BB5DD" fill-rule="evenodd" fill-opacity="0.0509804"/><path d="M752 848 819.39 1122.01" stroke="#0BB5DD" stroke-width="2.29167" stroke-miterlimit="8" stroke-opacity="0.14902" fill="#0BB5DD" fill-rule="evenodd" fill-opacity="0.0509804"/><rect x="539.5" y="1721.5" width="201" height="91.0001" stroke="#0BB5DD" stroke-width="4.58333" stroke-miterlimit="8" stroke-opacity="0.14902" fill="#0BB5DD" fill-opacity="0.0509804"/><path d="M740 1767 883.47 1767" stroke="#0BB5DD" stroke-width="2.29167" stroke-miterlimit="8" stroke-opacity="0.14902" fill="#0BB5DD" fill-rule="evenodd" fill-opacity="0.0509804"/><path d="M0 0 67.3894 274.014" stroke="#0BB5DD" stroke-width="2.29167" stroke-miterlimit="8" stroke-opacity="0.14902" fill="#0BB5DD" fill-rule="evenodd" fill-opacity="0.0509804" transform="matrix(1 0 0 -1 883 1767.01)"/><rect x="1613.5" y="978.5" width="201" height="89.9997" stroke="#0BB5DD" stroke-width="4.58333" stroke-miterlimit="8" stroke-opacity="0.14902" fill="#0BB5DD" fill-opacity="0.0509804"/><path d="M1505 1023 1609.79 1023" stroke="#0BB5DD" stroke-width="2.29167" stroke-miterlimit="8" stroke-opacity="0.14902" fill="#0BB5DD" fill-rule="evenodd" fill-opacity="0.0509804"/><path d="M0 0 295.438 157.341" stroke="#0BB5DD" stroke-width="2.29167" stroke-miterlimit="8" stroke-opacity="0.14902" fill="#0BB5DD" fill-rule="evenodd" fill-opacity="0.0509804" transform="matrix(1 0 0 -1 1210 1180.34)"/><rect x="1151" y="1589" width="145" height="300" fill="#0BB5DD" fill-opacity="0.0509804"/><rect x="1326" y="1511" width="145" height="378" fill="#0BB5DD" fill-opacity="0.0509804"/><rect x="1498" y="1433" width="146" height="456" fill="#0BB5DD" fill-opacity="0.0509804"/><path d="M1088.1 1733.8C848.941 1737.96 651.695 1547.45 647.539 1308.29 643.383 1069.13 833.891 871.882 1073.05 867.726 1312.21 863.57 1509.46 1054.08 1513.61 1293.24 1513.8 1304.1 1513.58 1314.96 1512.95 1325.8" stroke="#0BB5DD" stroke-width="27.5" stroke-linecap="round" stroke-miterlimit="8" stroke-opacity="0.0509804" fill="none" fill-rule="evenodd"/><path d="M0 0 86.459 95.5495" stroke="#0BB5DD" stroke-width="27.5" stroke-linecap="round" stroke-miterlimit="8" stroke-opacity="0.0509804" fill="none" fill-rule="evenodd" transform="matrix(1 0 0 -1 1506 1347.55)"/><path d="M0 0 86.459 95.5495" stroke="#0BB5DD" stroke-width="27.5" stroke-linecap="round" stroke-miterlimit="8" stroke-opacity="0.0509804" fill="none" fill-rule="evenodd" transform="matrix(-1.83697e-16 -1 -1 1.83697e-16 1505.55 1347.46)"/><path d="M897.537 1399.8C878.036 1365.68 877.875 1289.97 898.755 1244.68 919.636 1199.4 958.432 1135.71 1066.37 1134.14 1103.86 1133.6 1158.84 1124.87 1194.12 1116.34 1229.41 1107.82 1262.46 1082.46 1278.09 1083.01 1293.71 1083.55 1290.37 1098.11 1287.85 1119.61 1285.32 1141.11 1273.88 1184.52 1262.94 1212.03 1251.99 1239.53 1221.94 1319.55 1199.23 1356.08 1176.52 1392.61 1157.23 1415.67 1126.65 1431.22 1096.08 1446.77 1053.95 1454.62 1015.77 1449.38 977.579 1444.14 917.039 1433.91 897.537 1399.8Z" stroke="#0BB5DD" stroke-width="27.5" stroke-linecap="round" stroke-miterlimit="8" stroke-opacity="0.0509804" fill="none" fill-rule="evenodd"/><path d="M856 1507C874.333 1428 892.667 1348.99 1054 1297" stroke="#0BB5DD" stroke-width="27.5" stroke-linecap="round" stroke-miterlimit="8" stroke-opacity="0.0509804" fill="none" fill-rule="evenodd"/><path d="M1583.83 492.756C1603.69 492.805 1623.76 498.369 1641.51 509.817 1665.43 526.533 1680.22 550.855 1684.85 576.978 1689.48 603.101 1683.95 631.026 1667.24 654.946L1517.99 868.519C1497.69 897.563 1465.85 912.189 1432.9 912.045L1410.7 943.798 1400.02 934.085C1385.76 922.322 1370.94 911.229 1355.58 900.856L1315.38 876.431 1337.21 845.181C1325.75 814.282 1328.54 779.358 1348.84 750.313L1498.09 536.74C1518.24 507.908 1550.73 492.674 1583.83 492.756Z" stroke="#0BB5DD" stroke-width="27.5" stroke-linecap="round" stroke-miterlimit="8" stroke-opacity="0.0509804" fill="none" fill-rule="evenodd"/><path d="M2237.53 1174.93 2196.28 1174.72 2196.33 1164.41 2237.58 1164.62ZM2165.34 1174.56 2124.09 1174.35 2124.15 1164.04 2165.4 1164.25ZM2093.16 1174.19 2051.91 1173.98 2051.96 1163.67 2093.21 1163.88ZM2020.97 1173.82 1979.72 1173.61 1979.77 1163.3 2021.02 1163.51ZM1948.78 1173.45 1907.53 1173.24 1907.59 1162.93 1948.84 1163.14ZM1890.92 1183.47C1882.38 1183.42 1875.49 1176.46 1875.53 1167.92 1875.57 1159.38 1882.54 1152.49 1891.08 1152.53 1899.62 1152.58 1906.51 1159.54 1906.47 1168.08 1906.42 1176.62 1899.46 1183.51 1890.92 1183.47Z" fill="#0BB5DD"/><path d="M5.15625-6.90553e-06 5.15631 41.25-5.15619 41.25-5.15625 6.90553e-06ZM5.15635 72.1875 5.1564 113.437-5.1561 113.438-5.15615 72.1875ZM5.15644 144.375 5.1565 185.625-5.156 185.625-5.15606 144.375ZM5.15654 216.562 5.1566 257.812-5.1559 257.812-5.15596 216.562ZM15.4691 269.473C15.4691 278.016 8.54354 284.941 0.000381609 284.941-8.54277 284.941-15.4684 278.016-15.4684 269.473-15.4684 260.929-8.54282 254.004 0.000340176 254.004 8.5435 254.004 15.4691 260.929 15.4691 269.473Z" fill="#0BB5DD" transform="matrix(1 0 0 -1 1893 1179.47)"/><path d="M2383.5 1662C2383.5 1575.02 2454.02 1504.5 2541 1504.5 2627.98 1504.5 2698.5 1575.02 2698.5 1662 2698.5 1748.98 2627.98 1819.5 2541 1819.5 2454.02 1819.5 2383.5 1748.98 2383.5 1662Z" stroke="#2D3E50" stroke-width="4.58333" stroke-miterlimit="8" fill="#FFFFFF" fill-rule="evenodd"/><path d="M2383.5 1181C2383.5 1094.02 2454.02 1023.5 2541 1023.5 2627.98 1023.5 2698.5 1094.02 2698.5 1181 2698.5 1267.98 2627.98 1338.5 2541 1338.5 2454.02 1338.5 2383.5 1267.98 2383.5 1181Z" stroke="#2D3E50" stroke-width="4.58333" stroke-miterlimit="8" fill="#FFFFFF" fill-rule="evenodd"/><path d="M2383.5 696.5C2383.5 609.239 2454.02 538.5 2541 538.5 2627.98 538.5 2698.5 609.239 2698.5 696.5 2698.5 783.761 2627.98 854.5 2541 854.5 2454.02 854.5 2383.5 783.761 2383.5 696.5Z" stroke="#2D3E50" stroke-width="4.58333" stroke-miterlimit="8" fill="#FFFFFF" fill-rule="evenodd"/><text fill="#2D3E50" font-family="Arial,Arial_MSFontService,sans-serif" font-weight="400" font-size="110" transform="matrix(1 0 0 1 2896.82 714)">transfer<tspan font-size="110" x="0" y="493">application</tspan><tspan font-size="110" x="0" y="1003">education</tspan></text><path d="M2530.5 1712C2530.5 1718.35 2525.57 1723.5 2519.5 1723.5 2513.42 1723.5 2508.5 1718.35 2508.5 1712 2508.5 1705.65 2513.42 1700.5 2519.5 1700.5 2525.57 1700.5 2530.5 1705.65 2530.5 1712Z" stroke="#0684A2" stroke-width="4.58333" stroke-miterlimit="8" fill="#0BB5DD" fill-rule="evenodd"/><path d="M2541.5 1748.5 2541.5 1737.49C2541.46 1735.77 2540.64 1734.16 2539.25 1733.1 2535.99 1730.66 2532.26 1728.88 2528.28 1727.86 2525.27 1726.96 2522.14 1726.51 2519 1726.5 2515.86 1726.55 2512.74 1727 2509.73 1727.86 2505.79 1728.99 2502.08 1730.76 2498.75 1733.1 2497.36 1734.16 2496.54 1735.77 2496.5 1737.49L2496.5 1748.5Z" stroke="#0684A2" stroke-width="4.58333" stroke-miterlimit="8" fill="#0BB5DD" fill-rule="evenodd"/><path d="M2580.5 1712C2580.5 1718.35 2575.35 1723.5 2569 1723.5 2562.65 1723.5 2557.5 1718.35 2557.5 1712 2557.5 1705.65 2562.65 1700.5 2569 1700.5 2575.35 1700.5 2580.5 1705.65 2580.5 1712Z" stroke="#0684A2" stroke-width="4.58333" stroke-miterlimit="8" fill="#0BB5DD" fill-rule="evenodd"/><path d="M2591.5 1748.5 2591.5 1737.49C2591.46 1735.77 2590.64 1734.16 2589.25 1733.1 2585.99 1730.66 2582.26 1728.88 2578.28 1727.86 2575.27 1726.96 2572.14 1726.51 2569 1726.5 2565.86 1726.55 2562.74 1727 2559.72 1727.86 2555.79 1728.99 2552.08 1730.76 2548.75 1733.1 2547.36 1734.16 2546.54 1735.77 2546.5 1737.49L2546.5 1748.5Z" stroke="#0684A2" stroke-width="4.58333" stroke-miterlimit="8" fill="#0BB5DD" fill-rule="evenodd"/><path d="M2629.5 1712C2629.5 1718.35 2624.57 1723.5 2618.5 1723.5 2612.42 1723.5 2607.5 1718.35 2607.5 1712 2607.5 1705.65 2612.42 1700.5 2618.5 1700.5 2624.57 1700.5 2629.5 1705.65 2629.5 1712Z" stroke="#0684A2" stroke-width="4.58333" stroke-miterlimit="8" fill="#0BB5DD" fill-rule="evenodd"/><path d="M2640.5 1748.5 2640.5 1737.49C2640.46 1735.77 2639.66 1734.16 2638.3 1733.1 2635.11 1730.66 2631.46 1728.88 2627.57 1727.86 2624.63 1726.96 2621.57 1726.51 2618.5 1726.5 2615.43 1726.55 2612.38 1727 2609.43 1727.86 2605.58 1728.99 2601.95 1730.76 2598.7 1733.1 2597.34 1734.16 2596.54 1735.77 2596.5 1737.49L2596.5 1748.5Z" stroke="#0684A2" stroke-width="4.58333" stroke-miterlimit="8" fill="#0BB5DD" fill-rule="evenodd"/><path d="M2485.5 1607.5C2485.5 1615.78 2479.01 1622.5 2471 1622.5 2462.99 1622.5 2456.5 1615.78 2456.5 1607.5 2456.5 1599.22 2462.99 1592.5 2471 1592.5 2479.01 1592.5 2485.5 1599.22 2485.5 1607.5Z" stroke="#0684A2" stroke-width="4.58333" stroke-miterlimit="8" fill="#0BB5DD" fill-rule="evenodd"/><path d="M2557.43 1601.58C2555.97 1600.14 2553.64 1600.14 2552.19 1601.58L2520.26 1633.7C2517.71 1632.97 2514.96 1633.67 2513.07 1635.53 2512.55 1636.06 2503.33 1651.22 2503.33 1651.22L2500.56 1639.36C2500.2 1637.83 2499.44 1636.43 2498.36 1635.29 2493.81 1631.58 2488.57 1628.83 2482.94 1627.18 2478.97 1626.33 2474.92 1625.84 2470.86 1625.72 2466.76 1625.78 2462.68 1626.4 2458.75 1627.56 2453.07 1629.05 2447.81 1631.82 2443.35 1635.66 2442.27 1636.79 2441.51 1638.2 2441.15 1639.74 2441.15 1639.74 2430.5 1684.73 2430.5 1685.47 2430.5 1689.59 2433.82 1692.93 2437.91 1692.93 2441.2 1692.84 2444.03 1690.6 2444.88 1687.41L2452.59 1655.32 2452.59 1758.5 2467.2 1758.5 2467.2 1692.11 2474.61 1692.11 2474.61 1758.5 2489.19 1758.5 2489.19 1654.85 2491.91 1666.53C2492.1 1667.34 2492.63 1668.02 2493.37 1668.4 2496.21 1670.59 2499.67 1671.82 2503.26 1671.9 2505.59 1672.23 2507.9 1671.17 2509.19 1669.19L2524.26 1644.33C2525.22 1642.81 2525.59 1640.97 2525.27 1639.19L2557.4 1606.87C2558.86 1605.42 2558.87 1603.05 2557.43 1601.58Z" stroke="#0684A2" stroke-width="4.58333" stroke-miterlimit="8" fill="#0BB5DD" fill-rule="evenodd"/><path d="M2608.61 1567.5 2487.39 1567.5C2481.93 1567.5 2477.5 1571.96 2477.5 1577.45L2477.5 1586.41C2481.28 1587.44 2484.71 1589.51 2487.39 1592.38L2487.39 1577.45 2608.61 1577.45 2608.61 1659.55 2524.18 1659.55 2518.14 1669.5 2608.61 1669.5C2614.07 1669.5 2618.5 1665.04 2618.5 1659.55L2618.5 1577.45C2618.5 1571.96 2614.07 1567.5 2608.61 1567.5Z" stroke="#0684A2" stroke-width="4.58333" stroke-miterlimit="8" fill="#0BB5DD" fill-rule="evenodd"/><path d="M2536.8 1115.36C2541.01 1118.04 2544.31 1121.92 2546.26 1126.5L2570.44 1102.53 2571.5 1101.57C2570.57 1095.71 2565.02 1091.71 2559.11 1092.63 2556.84 1092.99 2554.75 1094.05 2553.12 1095.66L2534.5 1114.13C2535.28 1114.53 2536.11 1114.9 2536.8 1115.36Z" stroke="#0684A2" stroke-width="4.58333" stroke-miterlimit="8" fill="#0BB5DD" fill-rule="evenodd"/><path d="M2453.52 1236.5 2458.7 1231.3 2467.11 1222.84 2463.66 1195.7 2463.66 1195.48C2463.07 1190.22 2464.09 1184.9 2466.59 1180.23L2466.8 1179.83 2467.05 1179.46 2502.55 1123.29C2504.13 1120.79 2506.14 1118.61 2508.5 1116.84 2506.49 1110.53 2499.78 1107.06 2493.51 1109.07 2490.76 1109.96 2488.42 1111.82 2486.93 1114.3L2451.49 1170.44C2450.19 1172.9 2449.66 1175.7 2449.98 1178.47L2454.2 1211.65 2441.5 1224.42Z" stroke="#0684A2" stroke-width="4.58333" stroke-miterlimit="8" fill="#0BB5DD" fill-rule="evenodd"/><path d="M2633.4 1184.78C2629.26 1180.55 2622.48 1180.49 2618.26 1184.63 2618.22 1184.68 2618.17 1184.73 2618.12 1184.78L2584.97 1217.92C2584 1218.77 2582.56 1218.77 2581.6 1217.92 2580.74 1216.95 2580.74 1215.49 2581.6 1214.52L2631.7 1164.38C2635.97 1160.16 2636.01 1153.27 2631.79 1148.99 2627.57 1144.72 2620.69 1144.68 2616.42 1148.9L2566.29 1199.23C2565.28 1200.1 2563.75 1199.99 2562.89 1198.97 2562.11 1198.07 2562.11 1196.73 2562.89 1195.83L2623.38 1135.28C2627.6 1131.01 2627.55 1124.12 2623.28 1119.9 2619.01 1115.68 2612.13 1115.72 2607.91 1119.99L2547.61 1180.5C2546.6 1181.37 2545.08 1181.26 2544.21 1180.25 2543.43 1179.34 2543.43 1178 2544.21 1177.1L2594.31 1126.96C2598.52 1122.73 2598.52 1115.89 2594.31 1111.67 2590.09 1107.44 2583.25 1107.44 2579.03 1111.67L2528.93 1161.81 2509.38 1181.37 2533.85 1142.93C2537.3 1137.23 2535.48 1129.8 2529.78 1126.35 2524.24 1122.99 2517.04 1124.61 2513.47 1130.02L2477.78 1186.11C2476.48 1188.56 2475.95 1191.36 2476.26 1194.12L2480.41 1227.27 2462.5 1245.19 2511.86 1294.5 2525.53 1280.82C2537.59 1268.75 2552.03 1281.5 2574.79 1258.72L2633.4 1199.91C2637.53 1195.72 2637.53 1188.97 2633.4 1184.78Z" stroke="#0684A2" stroke-width="4.58333" stroke-miterlimit="8" fill="#0BB5DD" fill-rule="evenodd"/><path d="M2554.5 1036.5 2567.5 1036.5 2567.5 1067.5 2554.5 1067.5Z" stroke="#0684A2" stroke-width="4.58333" stroke-miterlimit="8" fill="#0BB5DD" fill-rule="evenodd"/><path d="M2574.28 1069.2 2596.53 1047.7 2605.13 1056.6 2582.88 1078.1Z" stroke="#0684A2" stroke-width="4.58333" stroke-miterlimit="8" fill="#0BB5DD" fill-rule="evenodd"/><path d="M2515.52 1056.59 2524.12 1047.69 2546.37 1069.19 2537.77 1078.09Z" stroke="#0684A2" stroke-width="4.58333" stroke-miterlimit="8" fill="#0BB5DD" fill-rule="evenodd"/><path d="M2505.5 712.5 2605.5 712.5 2605.5 689.5 2651.5 735.5 2605.5 781.5 2605.5 758.5 2505.5 758.5Z" stroke="#0684A2" stroke-width="4.58333" stroke-miterlimit="8" fill="#0BB5DD" fill-rule="evenodd"/><path d="M2580.5 687.75 2480 687.75 2480 710.5 2434.5 665 2480 619.5 2480 642.25 2580.5 642.25Z" stroke="#0684A2" stroke-width="4.58333" stroke-miterlimit="8" fill="#0BB5DD" fill-rule="evenodd"/><path d="M533 1284C533 1016.14 750.142 799 1018 799 1285.86 799 1503 1016.14 1503 1284 1503 1551.86 1285.86 1769 1018 1769 750.142 1769 533 1551.86 533 1284Z" stroke="#2D3E50" stroke-width="13.75" stroke-miterlimit="8" fill="#2D3E50" fill-rule="evenodd"/><path d="M808 1286.5C808 1169.69 902.468 1075 1019 1075 1135.53 1075 1230 1169.69 1230 1286.5 1230 1403.31 1135.53 1498 1019 1498 902.468 1498 808 1403.31 808 1286.5Z" fill="#FFFFFF" fill-rule="evenodd"/><path d="M805 1282.5C805 1165.69 899.468 1071 1016 1071 1132.53 1071 1227 1165.69 1227 1282.5 1227 1399.31 1132.53 1494 1016 1494 899.468 1494 805 1399.31 805 1282.5Z" stroke="#1FC2A7" stroke-width="13.75" stroke-miterlimit="8" fill="none" fill-rule="evenodd"/><path d="M1085.43 1212.51C1082.17 1206.86 1082.14 1194.31 1085.63 1186.8 1089.12 1179.29 1095.6 1168.74 1113.64 1168.48 1119.9 1168.39 1129.09 1166.94 1134.98 1165.53 1140.88 1164.11 1146.4 1159.91 1149.01 1160 1151.62 1160.09 1151.06 1162.5 1150.64 1166.07 1150.22 1169.63 1148.31 1176.83 1146.48 1181.39 1144.65 1185.95 1139.63 1199.21 1135.83 1205.27 1132.04 1211.32 1128.82 1215.14 1123.71 1217.72 1118.6 1220.3 1111.56 1221.6 1105.18 1220.73 1098.8 1219.86 1088.69 1218.17 1085.43 1212.51Z" stroke="#2D3E50" stroke-width="13.75" stroke-linecap="round" stroke-miterlimit="8" fill="none" fill-rule="evenodd"/><path d="M1074 1240C1077.06 1226.83 1080.11 1213.66 1107 1205" stroke="#2D3E50" stroke-width="13.75" stroke-linecap="round" stroke-miterlimit="8" fill="none" fill-rule="evenodd"/><g clip-path="url(#clip1)"><g clip-path="url(#clip2)"><g clip-path="url(#clip3)"><path d="M109.333 51.25C109.333 66.3458 97.0958 78.5833 82 78.5833 66.9042 78.5833 54.6667 66.3458 54.6667 51.25 54.6667 36.1542 66.9042 23.9167 82 23.9167 97.0958 23.9167 109.333 36.1542 109.333 51.25Z" fill="#2D3E50" transform="matrix(-1 0 0 1 1096 1194)"/><path d="M52.275 139.4 41 113.946 41 96.6916C41 94.6417 42.1958 92.5917 43.9042 91.5667 44.9292 91.0541 45.2708 89.8583 44.7583 89.0042 44.4167 88.3208 43.7333 87.8083 42.8792 87.9791L23.4042 87.9791C22.3792 87.9791 21.3542 88.6625 21.3542 89.8583 21.3542 90.7125 21.6958 91.3958 22.3792 91.7375 24.2583 92.7625 25.2833 94.8125 25.2833 96.8625L25.2833 114.117 14.1792 139.4C12.8125 142.304 14.1792 145.892 17.2542 147.087 17.9375 147.429 18.7917 147.6 19.6458 147.6L46.9792 147.6C50.225 147.6 52.7875 145.037 52.7875 141.792 52.7875 140.937 52.6167 140.083 52.275 139.4L52.275 139.4ZM29.3833 100.621 29.3833 96.6916C29.3833 94.9833 29.0417 93.275 28.0167 91.7375L38.4375 91.7375C37.5833 93.275 37.0708 94.9833 37.0708 96.6916L37.0708 100.621 29.3833 100.621Z" fill="#2D3E50" transform="matrix(-1 0 0 1 1096 1194)"/><path d="M38.0958 64.4042C38.0958 66.0081 36.7956 67.3083 35.1917 67.3083 33.5877 67.3083 32.2875 66.0081 32.2875 64.4042 32.2875 62.8002 33.5877 61.5 35.1917 61.5 36.7956 61.5 38.0958 62.8002 38.0958 64.4042Z" fill="#2D3E50" transform="matrix(-1 0 0 1 1096 1194)"/><path d="M43.05 73.2875C43.05 74.8914 41.7498 76.1917 40.1458 76.1917 38.5419 76.1917 37.2417 74.8914 37.2417 73.2875 37.2417 71.6836 38.5419 70.3833 40.1458 70.3833 41.7498 70.3833 43.05 71.6836 43.05 73.2875Z" fill="#2D3E50" transform="matrix(-1 0 0 1 1096 1194)"/><path d="M32.2875 71.2375C32.2875 72.8414 30.9873 74.1417 29.3833 74.1417 27.7794 74.1417 26.4792 72.8414 26.4792 71.2375 26.4792 69.6336 27.7794 68.3333 29.3833 68.3333 30.9873 68.3333 32.2875 69.6336 32.2875 71.2375Z" fill="#2D3E50" transform="matrix(-1 0 0 1 1096 1194)"/><path d="M35.1917 82C35.1917 84.17 33.4325 85.9291 31.2625 85.9291 29.0925 85.9291 27.3333 84.17 27.3333 82 27.3333 79.83 29.0925 78.0708 31.2625 78.0708 33.4325 78.0708 35.1917 79.83 35.1917 82Z" fill="#2D3E50" transform="matrix(-1 0 0 1 1096 1194)"/><path d="M73.4583 124.537 61.1583 111.554 67.9917 103.012 67.9917 102.842 57.5708 103.867 57.9125 89.3458C53.8125 90.7125 49.7125 92.25 45.7833 94.1291 45.1 94.8125 44.5875 95.8375 44.4167 96.8625L44.4167 113.262 55.35 138.033C55.6917 138.717 55.8625 139.4 56.0333 140.083L73.4583 140.083 73.4583 124.537Z" fill="#2D3E50" transform="matrix(-1 0 0 1 1096 1194)"/><path d="M76.875 123 76.875 140.083 87.125 140.083 87.125 123 99.425 87.4667C93.6166 86.1 87.8083 85.4166 82 85.4166 76.1917 85.4166 70.3833 86.1 64.7458 87.4667L76.875 123Z" fill="#2D3E50" transform="matrix(-1 0 0 1 1096 1194)"/><path d="M131.2 101.817C123.683 96.0083 115.142 91.9083 106.087 89.3458L106.429 103.867 96.0083 102.842 96.0083 103.012 102.842 111.554 90.5416 124.537 90.5416 140.083 136.667 140.083 136.667 112.75C136.496 108.479 134.617 104.379 131.2 101.817Z" fill="#2D3E50" transform="matrix(-1 0 0 1 1096 1194)"/></g></g></g><path d="M907.929 1279.43C905.341 1275.73 905.32 1267.5 908.091 1262.57 910.861 1257.65 916.008 1250.73 930.329 1250.56 935.304 1250.5 942.598 1249.55 947.279 1248.62 951.961 1247.7 956.347 1244.94 958.419 1245 960.492 1245.06 960.049 1246.64 959.714 1248.98 959.379 1251.32 957.861 1256.04 956.409 1259.02 954.957 1262.01 950.97 1270.71 947.957 1274.68 944.943 1278.65 942.385 1281.16 938.328 1282.85 934.271 1284.54 928.682 1285.39 923.615 1284.82 918.549 1284.25 910.516 1283.14 907.929 1279.43Z" stroke="#2D3E50" stroke-width="13.75" stroke-linecap="round" stroke-miterlimit="8" fill="none" fill-rule="evenodd"/><path d="M898 1298C900.5 1289.35 903 1280.69 925 1275" stroke="#2D3E50" stroke-width="13.75" stroke-linecap="round" stroke-miterlimit="8" fill="none" fill-rule="evenodd"/><path d="M992.929 1404.43C990.341 1400.73 990.32 1392.5 993.09 1387.57 995.861 1382.65 1001.01 1375.73 1015.33 1375.56 1020.3 1375.5 1027.6 1374.55 1032.28 1373.62 1036.96 1372.7 1041.35 1369.94 1043.42 1370 1045.49 1370.06 1045.05 1371.64 1044.71 1373.98 1044.38 1376.32 1042.86 1381.04 1041.41 1384.02 1039.96 1387.01 1035.97 1395.71 1032.96 1399.68 1029.94 1403.65 1027.38 1406.16 1023.33 1407.85 1019.27 1409.54 1013.68 1410.39 1008.62 1409.82 1003.55 1409.25 995.516 1408.14 992.929 1404.43Z" stroke="#2D3E50" stroke-width="13.75" stroke-linecap="round" stroke-miterlimit="8" fill="none" fill-rule="evenodd"/><path d="M984 1423C986.408 1414.35 988.815 1405.69 1010 1400" stroke="#2D3E50" stroke-width="13.75" stroke-linecap="round" stroke-miterlimit="8" fill="none" fill-rule="evenodd"/><path d="M1104 1426C1104 1390.1 1132.88 1361 1168.5 1361 1204.12 1361 1233 1390.1 1233 1426 1233 1461.9 1204.12 1491 1168.5 1491 1132.88 1491 1104 1461.9 1104 1426Z" stroke="#1FC2A7" stroke-width="10.3125" stroke-miterlimit="8" fill="#FFFFFF" fill-rule="evenodd"/><path d="M750 1330.5C750 1294.88 779.102 1266 815 1266 850.898 1266 880 1294.88 880 1330.5 880 1366.12 850.898 1395 815 1395 779.102 1395 750 1366.12 750 1330.5Z" stroke="#1FC2A7" stroke-width="10.3125" stroke-miterlimit="8" fill="#FFFFFF" fill-rule="evenodd"/><path d="M998 1079.5C998 1043.88 1027.1 1015 1063 1015 1098.9 1015 1128 1043.88 1128 1079.5 1128 1115.12 1098.9 1144 1063 1144 1027.1 1144 998 1115.12 998 1079.5Z" stroke="#1FC2A7" stroke-width="10.3125" stroke-miterlimit="8" fill="#FFFFFF" fill-rule="evenodd"/><path d="M809.5 1344.5C809.5 1346.71 807.709 1348.5 805.5 1348.5 803.291 1348.5 801.5 1346.71 801.5 1344.5 801.5 1342.29 803.291 1340.5 805.5 1340.5 807.709 1340.5 809.5 1342.29 809.5 1344.5Z" stroke="#148E7A" stroke-width="4.58333" stroke-miterlimit="8" fill="#1FC2A7" fill-rule="evenodd"/><path d="M812.5 1356.5 812.5 1353C812.489 1352.45 812.232 1351.94 811.8 1351.6 810.785 1350.82 809.624 1350.26 808.386 1349.93 807.451 1349.65 806.478 1349.5 805.5 1349.5 804.523 1349.52 803.552 1349.66 802.615 1349.93 801.389 1350.29 800.235 1350.86 799.2 1351.6 798.768 1351.94 798.512 1352.45 798.5 1353L798.5 1356.5Z" stroke="#148E7A" stroke-width="4.58333" stroke-miterlimit="8" fill="#1FC2A7" fill-rule="evenodd"/><path d="M825.5 1344.5C825.5 1346.71 823.709 1348.5 821.5 1348.5 819.291 1348.5 817.5 1346.71 817.5 1344.5 817.5 1342.29 819.291 1340.5 821.5 1340.5 823.709 1340.5 825.5 1342.29 825.5 1344.5Z" stroke="#148E7A" stroke-width="4.58333" stroke-miterlimit="8" fill="#1FC2A7" fill-rule="evenodd"/><path d="M828.5 1356.5 828.5 1353C828.488 1352.45 828.232 1351.94 827.8 1351.6 826.785 1350.82 825.624 1350.26 824.385 1349.93 823.45 1349.65 822.478 1349.5 821.5 1349.5 820.523 1349.52 819.552 1349.66 818.614 1349.93 817.389 1350.29 816.235 1350.86 815.2 1351.6 814.768 1351.94 814.511 1352.45 814.5 1353L814.5 1356.5Z" stroke="#148E7A" stroke-width="4.58333" stroke-miterlimit="8" fill="#1FC2A7" fill-rule="evenodd"/><path d="M841.5 1344.5C841.5 1346.71 839.709 1348.5 837.5 1348.5 835.291 1348.5 833.5 1346.71 833.5 1344.5 833.5 1342.29 835.291 1340.5 837.5 1340.5 839.709 1340.5 841.5 1342.29 841.5 1344.5Z" stroke="#148E7A" stroke-width="4.58333" stroke-miterlimit="8" fill="#1FC2A7" fill-rule="evenodd"/><path d="M844.5 1356.5 844.5 1353C844.489 1352.45 844.232 1351.94 843.8 1351.6 842.785 1350.82 841.624 1350.26 840.386 1349.93 839.451 1349.65 838.478 1349.5 837.5 1349.5 836.523 1349.52 835.552 1349.66 834.614 1349.93 833.389 1350.29 832.235 1350.86 831.2 1351.6 830.768 1351.94 830.512 1352.45 830.5 1353L830.5 1356.5Z" stroke="#148E7A" stroke-width="4.58333" stroke-miterlimit="8" fill="#1FC2A7" fill-rule="evenodd"/><path d="M794.5 1311C794.5 1313.49 792.485 1315.5 790 1315.5 787.515 1315.5 785.5 1313.49 785.5 1311 785.5 1308.51 787.515 1306.5 790 1306.5 792.485 1306.5 794.5 1308.51 794.5 1311Z" stroke="#148E7A" stroke-width="4.58333" stroke-miterlimit="8" fill="#1FC2A7" fill-rule="evenodd"/><path d="M818.148 1308.85C817.671 1308.38 816.905 1308.38 816.429 1308.85L805.952 1319.21C805.115 1318.98 804.215 1319.21 803.592 1319.81 803.422 1319.98 800.397 1324.87 800.397 1324.87L799.489 1321.04C799.369 1320.55 799.12 1320.1 798.767 1319.73 797.273 1318.53 795.553 1317.64 793.707 1317.11 792.403 1316.84 791.076 1316.68 789.742 1316.64 788.397 1316.66 787.06 1316.86 785.769 1317.23 783.906 1317.72 782.179 1318.61 780.717 1319.85 780.361 1320.22 780.112 1320.67 779.995 1321.16 779.995 1321.16 776.5 1335.69 776.5 1335.93 776.5 1337.26 777.589 1338.33 778.933 1338.33 780.009 1338.31 780.94 1337.58 781.219 1336.55L783.75 1326.2 783.75 1359.5 788.542 1359.5 788.542 1338.07 790.974 1338.07 790.974 1359.5 795.759 1359.5 795.759 1326.04 796.651 1329.81C796.713 1330.07 796.888 1330.29 797.129 1330.42 798.062 1331.12 799.198 1331.52 800.373 1331.55 801.138 1331.65 801.896 1331.31 802.319 1330.67L807.265 1322.65C807.582 1322.16 807.7 1321.56 807.598 1320.99L818.14 1310.56C818.617 1310.09 818.621 1309.32 818.148 1308.85Z" stroke="#148E7A" stroke-width="4.58333" stroke-miterlimit="8" fill="#1FC2A7" fill-rule="evenodd"/><path d="M834.272 1297.5 794.728 1297.5C792.945 1297.5 791.5 1298.94 791.5 1300.72L791.5 1303.62C792.734 1303.95 793.851 1304.62 794.728 1305.55L794.728 1300.72 834.272 1300.72 834.272 1327.28 806.729 1327.28 804.759 1330.5 834.272 1330.5C836.055 1330.5 837.5 1329.06 837.5 1327.28L837.5 1300.72C837.5 1298.94 836.055 1297.5 834.272 1297.5Z" stroke="#148E7A" stroke-width="4.58333" stroke-miterlimit="8" fill="#1FC2A7" fill-rule="evenodd"/><path d="M1168.18 1405.9C1169.44 1406.76 1170.42 1408.02 1171 1409.5L1178.19 1401.74 1178.5 1401.43C1178.22 1399.54 1176.57 1398.24 1174.82 1398.54 1174.14 1398.66 1173.52 1399 1173.04 1399.52L1167.5 1405.5C1167.73 1405.63 1167.98 1405.75 1168.18 1405.9Z" stroke="#148E7A" stroke-width="4.58333" stroke-miterlimit="8" fill="#1FC2A7" fill-rule="evenodd"/><path d="M1141.45 1444.5 1143.15 1442.83 1145.91 1440.12 1144.78 1431.43 1144.78 1431.36C1144.58 1429.67 1144.92 1427.97 1145.74 1426.48L1145.81 1426.35 1145.89 1426.23 1157.55 1408.24C1158.06 1407.44 1158.73 1406.74 1159.5 1406.17 1158.84 1404.15 1156.64 1403.04 1154.58 1403.68 1153.67 1403.97 1152.91 1404.56 1152.42 1405.36L1140.78 1423.34C1140.35 1424.13 1140.18 1425.03 1140.28 1425.91L1141.67 1436.54 1137.5 1440.63Z" stroke="#148E7A" stroke-width="4.58333" stroke-miterlimit="8" fill="#1FC2A7" fill-rule="evenodd"/><path d="M1198.52 1428.1C1197.21 1426.74 1195.07 1426.72 1193.74 1428.06 1193.72 1428.07 1193.7 1428.09 1193.69 1428.1L1183.21 1438.8C1182.91 1439.07 1182.45 1439.07 1182.15 1438.8 1181.87 1438.48 1181.87 1438.01 1182.15 1437.7L1197.98 1421.53C1199.33 1420.16 1199.34 1417.94 1198.01 1416.56 1196.68 1415.18 1194.5 1415.17 1193.15 1416.53L1177.31 1432.77C1176.99 1433.05 1176.51 1433.01 1176.23 1432.69 1175.98 1432.39 1175.98 1431.96 1176.23 1431.67L1195.35 1412.14C1196.69 1410.76 1196.67 1408.54 1195.32 1407.18 1193.97 1405.82 1191.8 1405.83 1190.46 1407.21L1171.4 1426.73C1171.08 1427.01 1170.6 1426.97 1170.33 1426.64 1170.08 1426.35 1170.08 1425.92 1170.33 1425.63L1186.16 1409.45C1187.5 1408.09 1187.5 1405.88 1186.16 1404.52 1184.83 1403.16 1182.67 1403.16 1181.33 1404.52L1165.5 1420.7 1159.32 1427.01 1167.05 1414.61C1168.14 1412.77 1167.57 1410.37 1165.77 1409.26 1164.02 1408.17 1161.74 1408.7 1160.61 1410.44L1149.33 1428.53C1148.92 1429.33 1148.75 1430.23 1148.85 1431.12L1150.16 1441.81 1144.5 1447.59 1160.1 1463.5 1164.42 1459.09C1168.23 1455.19 1172.8 1459.31 1179.99 1451.96L1198.52 1432.99C1199.83 1431.63 1199.83 1429.46 1198.52 1428.1Z" stroke="#148E7A" stroke-width="4.58333" stroke-miterlimit="8" fill="#1FC2A7" fill-rule="evenodd"/><path d="M1173.5 1380.5 1177.5 1380.5 1177.5 1390.5 1173.5 1390.5Z" stroke="#148E7A" stroke-width="4.58333" stroke-miterlimit="8" fill="#1FC2A7" fill-rule="evenodd"/><path d="M1179.48 1390.99 1186.58 1384.14 1189.32 1386.98 1182.22 1393.83Z" stroke="#148E7A" stroke-width="4.58333" stroke-miterlimit="8" fill="#1FC2A7" fill-rule="evenodd"/><path d="M1160.75 1386.97 1163.49 1384.14 1170.58 1390.99 1167.84 1393.83Z" stroke="#148E7A" stroke-width="4.58333" stroke-miterlimit="8" fill="#1FC2A7" fill-rule="evenodd"/><path d="M1050.5 1085.75 1087 1085.75 1087 1077.5 1103.5 1094 1087 1110.5 1087 1102.25 1050.5 1102.25Z" stroke="#148E7A" stroke-width="4.58333" stroke-miterlimit="8" fill="#1FC2A7" fill-rule="evenodd"/><path d="M1077.5 1076.25 1041 1076.25 1041 1084.5 1024.5 1068 1041 1051.5 1041 1059.75 1077.5 1059.75Z" stroke="#148E7A" stroke-width="4.58333" stroke-miterlimit="8" fill="#1FC2A7" fill-rule="evenodd"/><path d="M724 1285C724 1122.63 855.628 991 1018 991 1180.37 991 1312 1122.63 1312 1285 1312 1447.37 1180.37 1579 1018 1579 855.628 1579 724 1447.37 724 1285Z" stroke="#1FC2A7" stroke-width="13.75" stroke-miterlimit="8" fill="none" fill-rule="evenodd"/><path d="M1.97413e-06-5.15625 41.25-5.15623 41.25 5.15627-1.97413e-06 5.15625ZM72.1875-5.15622 113.438-5.15621 113.438 5.15629 72.1875 5.15628ZM144.375-5.15619 185.625-5.15618 185.625 5.15632 144.375 5.15631ZM216.562-5.15617 257.812-5.15615 257.812 5.15635 216.562 5.15633ZM288.75-5.15614 330-5.15612 330 5.15638 288.75 5.15636ZM360.938-5.15611 402.188-5.1561 402.188 5.1564 360.938 5.15639ZM433.125-5.15608 474.375-5.15607 474.375 5.15643 433.125 5.15642ZM505.312-5.15606 546.562-5.15604 546.562 5.15646 505.312 5.15644ZM577.5-5.15603 618.75-5.15601 618.75 5.15649 577.5 5.15647ZM649.688-5.156 690.938-5.15599 690.938 5.15651 649.688 5.1565ZM721.875-5.15597 763.125-5.15596 763.125 5.15654 721.875 5.15653ZM794.062-5.15595 835.312-5.15593 835.312 5.15657 794.062 5.15655ZM866.25-5.15592 907.5-5.1559 907.5 5.1566 866.25 5.15658ZM938.438-5.15589 942.621-5.15589 942.621 5.15661 938.438 5.15661ZM942.621-15.4684C951.164-15.4684 958.089-8.54279 958.089 0.000366815 958.089 8.54352 951.164 15.4691 942.621 15.4691 934.077 15.4691 927.152 8.54351 927.152 0.00035497 927.152-8.5428 934.077-15.4684 942.621-15.4684Z" fill="#0BB5DD" transform="matrix(-1 0 0 1 1900.62 910)"/></g></svg>