<svg width="882" height="414" xmlns="http://www.w3.org/2000/svg" xmlns:xlink="http://www.w3.org/1999/xlink" xml:space="preserve" overflow="hidden"><defs><clipPath id="clip0"><rect x="402" y="928" width="882" height="414"/></clipPath><clipPath id="clip1"><rect x="401" y="999" width="228" height="197"/></clipPath><clipPath id="clip2"><rect x="401" y="999" width="228" height="197"/></clipPath><clipPath id="clip3"><rect x="401" y="999" width="228" height="197"/></clipPath><clipPath id="clip4"><rect x="729" y="1037" width="183" height="159"/></clipPath><clipPath id="clip5"><rect x="729" y="1037" width="183" height="159"/></clipPath><clipPath id="clip6"><rect x="729" y="1037" width="183" height="159"/></clipPath></defs><g clip-path="url(#clip0)" transform="translate(-402 -928)"><g clip-path="url(#clip1)"><g clip-path="url(#clip2)"><g clip-path="url(#clip3)"><path d="M165.375 155.167 30.625 155.167C26.1333 155.167 22.4583 151.492 22.4583 147L22.4583 49C22.4583 44.5083 26.1333 40.8333 30.625 40.8333L69.0083 40.8333C70.6416 40.8333 72.275 41.2417 73.5 42.2625L95.9583 57.1666 165.375 57.1666C169.867 57.1666 173.542 60.8416 173.542 65.3333L173.542 147C173.542 151.492 169.867 155.167 165.375 155.167Z" stroke="#3A3838" stroke-width="4.08333" fill="none" transform="matrix(1.15306 0 0 1 402 1000)"/></g></g></g><text fill="#3A3838" font-family="Calibri,Calibri_MSFontService,sans-serif" font-weight="400" font-size="48" transform="matrix(1 0 0 1 471.752 1213)">runs</text><path d="M21.9667 29.7016C17.6352 29.7016 14.2319 26.1951 14.2319 21.9668 14.2319 17.7384 17.7383 14.232 21.9667 14.232 26.2982 14.232 29.7014 17.7384 29.7014 21.9668 29.7014 26.1951 26.195 29.7016 21.9667 29.7016ZM39.3956 17.1197C38.9831 15.6758 38.4675 14.3352 37.7455 13.0976L39.3956 8.25043 35.6829 4.53774 30.8359 6.18783C29.5982 5.46597 28.2576 4.95026 26.8138 4.53774L24.5449 0 19.3884 0 17.1196 4.53774C15.6757 4.95026 14.3351 5.46597 13.0976 6.18783L8.25039 4.53774 4.53772 8.25043 6.18779 13.0976C5.46583 14.3352 4.95024 15.6758 4.53772 17.1197L0 19.3885 0 24.545 4.53772 26.8139C4.95024 28.2577 5.46583 29.5985 6.18779 30.8361L4.53772 35.6831 8.14732 39.2928 12.9944 37.6427C14.2319 38.3645 15.5726 38.8802 17.0165 39.2928L19.2853 43.8305 24.4418 43.8305 26.7107 39.2928C28.1545 38.8802 29.4952 38.3645 30.7327 37.6427L35.5799 39.2928 39.2925 35.6831 37.6425 30.8361C38.3643 29.5985 38.9831 28.1547 39.3956 26.8139L43.9333 24.545 43.9333 19.3885 39.3956 17.1197Z" fill="#A5A5A5" fill-rule="evenodd" transform="matrix(-0.944263 0.329193 0.329193 0.944263 508.151 1063.63)"/><path d="M21.9669 29.7016C17.6354 29.7016 14.232 26.1951 14.232 21.9667 14.232 17.6353 17.7384 14.232 21.9669 14.232 26.2983 14.232 29.7016 17.7384 29.7016 21.9667 29.7016 26.1951 26.2983 29.7016 21.9669 29.7016L21.9669 29.7016ZM37.7458 13.0975 39.3959 8.25043 35.6832 4.53774 30.8361 6.18783C29.5985 5.46586 28.1547 4.95026 26.8139 4.53774L24.5451 0 19.3885 0 17.1197 4.53774C15.6758 4.95026 14.3352 5.46586 13.0976 6.18783L8.25044 4.53774 4.64093 8.14725 6.18783 12.9944C5.46597 14.232 4.95026 15.6758 4.53774 17.0166L0 19.2853 0 24.4419 4.53774 26.7108C4.95026 28.1546 5.46597 29.4953 6.18783 30.7329L4.64093 35.5801 8.25044 39.1896 13.0976 37.6427C14.3352 38.3645 15.6758 38.8801 17.1197 39.2928L19.3885 43.8305 24.5451 43.8305 26.8139 39.2928C28.2578 38.8801 29.5985 38.3645 30.8361 37.6427L35.6832 39.2928 39.2928 35.5801 37.7458 30.8361C38.4677 29.5984 38.9833 28.2577 39.3959 26.8139L43.9336 24.545 43.9336 19.3885 39.3959 17.1197C38.9833 15.6758 38.4677 14.3351 37.7458 13.0975Z" fill="#A5A5A5" fill-rule="evenodd" transform="matrix(-0.944263 0.329193 0.329193 0.944263 542.517 1091.4)"/><g clip-path="url(#clip4)"><g clip-path="url(#clip5)"><g clip-path="url(#clip6)"><path d="M134.156 125.875 24.8437 125.875C21.2 125.875 18.2187 122.894 18.2187 119.25L18.2187 39.75C18.2187 36.1062 21.2 33.125 24.8437 33.125L55.9812 33.125C57.3062 33.125 58.6312 33.4562 59.6249 34.2843L77.8437 46.3749 134.156 46.3749C137.8 46.3749 140.781 49.3562 140.781 52.9999L140.781 119.25C140.781 122.894 137.8 125.875 134.156 125.875Z" stroke="#3A3838" stroke-width="3.3125" fill="none" transform="matrix(1.15094 0 0 1 729 1037)"/></g></g></g><path d="M632 1114 666.768 1114" stroke="#5B9BD5" stroke-width="13.75" stroke-linecap="round" stroke-linejoin="round" stroke-miterlimit="10" fill="none" fill-rule="evenodd"/><path d="M669 1251.75 669 1149" stroke="#5B9BD5" stroke-width="13.75" stroke-linecap="round" stroke-linejoin="round" stroke-miterlimit="10" fill="none" fill-rule="evenodd"/><path d="M669 1278 730.441 1278" stroke="#5B9BD5" stroke-width="13.75" stroke-linecap="round" stroke-linejoin="round" stroke-miterlimit="10" fill="none" fill-rule="evenodd"/><path d="M667 1114 728.441 1114" stroke="#5B9BD5" stroke-width="13.75" stroke-linecap="round" stroke-linejoin="round" stroke-miterlimit="10" fill="none" fill-rule="evenodd"/><text fill="#3A3838" font-family="Calibri,Calibri_MSFontService,sans-serif" font-weight="400" font-size="48" transform="matrix(1 0 0 1 755.886 1232)">&lt;run1&gt;<tspan font-weight="700" font-size="48" x="34.8036" y="67">…</tspan></text><path d="M1158.92 1086.56 1159.73 1084.13 1157.89 1082.27 1155.47 1083.09C1154.84 1082.74 1154.17 1082.46 1153.47 1082.27L1152.34 1080 1149.76 1080 1148.62 1082.28C1147.92 1082.47 1147.24 1082.75 1146.61 1083.1L1144.19 1082.28 1142.34 1084.14 1143.11 1086.57C1142.74 1087.2 1142.46 1087.88 1142.27 1088.58L1140 1089.72 1140 1092.28 1142.27 1093.43C1142.45 1094.13 1142.73 1094.8 1143.08 1095.44L1142.27 1097.87 1144.19 1099.73 1146.61 1098.9C1147.24 1099.26 1147.91 1099.54 1148.61 1099.73L1149.74 1102 1152.32 1102 1153.46 1099.77C1154.15 1099.58 1154.81 1099.31 1155.43 1098.96L1157.84 1099.8 1159.68 1097.93 1158.87 1095.5C1159.24 1094.87 1159.53 1094.19 1159.74 1093.48L1162 1092.34 1162 1089.72 1159.73 1088.57C1159.55 1087.87 1159.27 1087.19 1158.92 1086.56ZM1151.04 1094.91C1148.92 1094.91 1147.2 1093.17 1147.2 1091.04 1147.2 1088.9 1148.92 1087.17 1151.04 1087.17 1153.15 1087.2 1154.85 1088.92 1154.88 1091.04 1154.88 1093.17 1153.16 1094.91 1151.04 1094.91Z" fill="#A5A5A5" fill-rule="evenodd"/><path d="M1159.36 1121 1142.64 1121C1141.09 1121.1 1139.91 1122.52 1140 1124.18 1140.09 1125.7 1141.22 1126.91 1142.64 1127L1159.36 1127C1160.91 1126.9 1162.09 1125.48 1161.99 1123.82 1161.91 1122.3 1160.78 1121.09 1159.36 1121Z" fill="#A5A5A5" fill-rule="evenodd"/><path d="M1151 1137C1154.14 1136.99 1156.75 1134.38 1157 1131L1145 1131C1145.25 1134.39 1147.87 1137 1151 1137Z" fill="#A5A5A5" fill-rule="evenodd"/><path d="M1175 1091.63 1175 1090.8C1174.76 1077.64 1164.11 1067.08 1151 1067L1151 1067C1137.89 1067.08 1127.24 1077.64 1127 1090.8L1127 1091.63C1127.09 1094.48 1127.65 1097.3 1128.67 1099.97 1129.64 1102.48 1131.05 1104.8 1132.84 1106.82 1135.04 1109.22 1137.44 1113.9 1138.45 1115.98 1138.76 1116.61 1139.4 1117 1140.1 1117L1161.9 1117C1162.6 1117 1163.24 1116.61 1163.55 1115.98 1164.56 1113.9 1166.96 1109.23 1169.16 1106.82 1170.95 1104.8 1172.36 1102.48 1173.33 1099.97 1174.35 1097.3 1174.91 1094.48 1175 1091.63ZM1169.47 1091.54C1169.4 1093.76 1168.97 1095.95 1168.19 1098.02 1167.46 1099.89 1166.41 1101.61 1165.08 1103.11 1162.95 1105.66 1161.13 1108.45 1159.64 1111.42L1142.36 1111.42C1140.89 1108.44 1139.08 1105.64 1136.96 1103.08 1135.64 1101.58 1134.58 1099.86 1133.85 1097.99 1133.06 1095.92 1132.61 1093.73 1132.53 1091.51L1132.53 1090.82C1132.7 1080.7 1140.89 1072.57 1150.97 1072.5L1150.97 1072.5C1161.05 1072.57 1169.24 1080.7 1169.41 1090.82Z" fill="#A5A5A5" fill-rule="evenodd"/><path d="M1151 1063C1152.1 1063 1153 1062.1 1153 1061L1153 1054C1153 1052.9 1152.1 1052 1151 1052 1149.9 1052 1149 1052.9 1149 1054L1149 1061C1149 1062.1 1149.9 1063 1151 1063Z" fill="#A5A5A5" fill-rule="evenodd"/><path d="M1127.93 1071.41C1128.64 1072.2 1129.77 1072.2 1130.48 1071.41 1131.17 1070.62 1131.17 1069.35 1130.48 1068.56L1126.01 1063.52C1125.27 1062.77 1124.13 1062.84 1123.46 1063.67 1122.84 1064.44 1122.85 1065.62 1123.47 1066.39Z" fill="#A5A5A5" fill-rule="evenodd"/><path d="M1173.09 1072C1173.64 1072 1174.16 1071.8 1174.55 1071.46L1179.61 1066.89C1180.28 1066.07 1180.07 1064.93 1179.15 1064.34 1178.42 1063.88 1177.44 1063.89 1176.72 1064.36L1171.6 1068.93C1170.8 1069.64 1170.8 1070.79 1171.6 1071.51 1172 1071.84 1172.54 1072.02 1173.09 1072Z" fill="#A5A5A5" fill-rule="evenodd"/><path d="M1121 1089 1114 1089C1112.9 1089 1112 1089.9 1112 1091 1112 1092.1 1112.9 1093 1114 1093L1121 1093C1122.1 1093 1123 1092.1 1123 1091 1123 1089.9 1122.1 1089 1121 1089Z" fill="#A5A5A5" fill-rule="evenodd"/><path d="M1127.68 1110.43 1122.7 1114.87C1121.86 1115.51 1121.76 1116.63 1122.48 1117.38 1123.21 1118.12 1124.48 1118.21 1125.32 1117.57 1125.4 1117.51 1125.47 1117.45 1125.54 1117.38L1130.52 1112.93C1131.24 1112.19 1131.14 1111.07 1130.3 1110.43 1129.54 1109.86 1128.43 1109.86 1127.68 1110.43Z" fill="#A5A5A5" fill-rule="evenodd"/><path d="M1174.41 1109.65C1173.69 1108.84 1172.45 1108.78 1171.65 1109.5 1170.84 1110.23 1170.78 1111.47 1171.51 1112.27 1171.55 1112.32 1171.59 1112.36 1171.64 1112.4L1176.54 1117.3C1177.23 1118.13 1178.46 1118.24 1179.3 1117.55 1180.13 1116.85 1180.24 1115.62 1179.55 1114.79 1179.45 1114.68 1179.35 1114.58 1179.23 1114.49Z" fill="#A5A5A5" fill-rule="evenodd"/><path d="M1188 1089 1181 1089C1179.9 1089 1179 1089.9 1179 1091 1179 1092.1 1179.9 1093 1181 1093L1188 1093C1189.1 1093 1190 1092.1 1190 1091 1190 1089.9 1189.1 1089 1188 1089Z" fill="#A5A5A5" fill-rule="evenodd"/><path d="M20.4735 27.6825C16.4364 27.6825 13.2645 24.4144 13.2645 20.4736 13.2645 16.5326 16.5326 13.2645 20.4735 13.2645 24.5106 13.2645 27.6824 16.5326 27.6824 20.4736 27.6824 24.4144 24.4144 27.6825 20.4735 27.6825ZM36.7177 15.9559C36.3332 14.6102 35.8527 13.3607 35.1798 12.2073L36.7177 7.68958 33.2574 4.22927 28.7398 5.76719C27.5863 5.0944 26.3368 4.61375 24.9911 4.22927L22.8765 0 18.0705 0 15.9559 4.22927C14.6102 4.61375 13.3607 5.0944 12.2072 5.76719L7.68957 4.22927 4.22926 7.68958 5.76718 12.2073C5.09429 13.3607 4.61374 14.6102 4.22926 15.9559L0 18.0705 0 22.8765 4.22926 24.9911C4.61374 26.3368 5.09429 27.5864 5.76718 28.7399L4.22926 33.2574 7.5935 36.6217 12.1111 35.0838C13.2645 35.7566 14.514 36.2372 15.8598 36.6217L17.9744 40.851 22.7804 40.851 24.895 36.6217C26.2407 36.2372 27.4902 35.7566 28.6436 35.0838L33.1613 36.6217 36.6216 33.2574 35.0837 28.7399C35.7565 27.5864 36.3332 26.2407 36.7177 24.9911L40.947 22.8765 40.947 18.0705 36.7177 15.9559Z" fill="#A5A5A5" fill-rule="evenodd" transform="matrix(-0.944263 0.329193 0.329193 0.944263 812.334 1083.8)"/><path d="M20.4737 27.6825C16.4366 27.6825 13.2646 24.4144 13.2646 20.4735 13.2646 16.4364 16.5327 13.2645 20.4737 13.2645 24.5107 13.2645 27.6826 16.5326 27.6826 20.4735 27.6826 24.4144 24.5107 27.6825 20.4737 27.6825L20.4737 27.6825ZM35.18 12.2072 36.7179 7.68958 33.2576 4.22927 28.74 5.76719C27.5866 5.0943 26.2409 4.61375 24.9913 4.22927L22.8766 0 18.0706 0 15.956 4.22927C14.6103 4.61375 13.3608 5.0943 12.2073 5.76719L7.68962 4.22927 4.32546 7.59341 5.76721 12.1111C5.09442 13.2645 4.61377 14.6102 4.22929 15.8598L0 17.9743 0 22.7803 4.22929 24.8951C4.61377 26.2406 5.09442 27.4903 5.76721 28.6437L4.32546 33.1614 7.68962 36.5255 12.2073 35.0838C13.3608 35.7566 14.6103 36.2371 15.956 36.6217L18.0706 40.851 22.8766 40.851 24.9913 36.6217C26.3369 36.2371 27.5866 35.7566 28.74 35.0838L33.2576 36.6217 36.6219 33.1614 35.18 28.7399C35.8529 27.5863 36.3334 26.3368 36.7179 24.9911L40.9472 22.8765 40.9472 18.0705 36.7179 15.9559C36.3334 14.6102 35.8529 13.3606 35.18 12.2072Z" fill="#A5A5A5" fill-rule="evenodd" transform="matrix(-0.944263 0.329193 0.329193 0.944263 844.365 1109.69)"/><text fill="#3A3838" font-family="Calibri,Calibri_MSFontService,sans-serif" font-weight="400" font-size="48" transform="matrix(1 0 0 1 1067.74 1196)">data files</text><path d="M1106.27 1234.03 1124.9 1215.07 1130.86 1220.92 1112.24 1239.88Z" fill="#ED7D31" fill-rule="evenodd"/><path d="M1105.49 1260.94 1124.9 1241.19 1130.86 1247.05 1111.45 1266.8Z" fill="#ED7D31" fill-rule="evenodd"/><path d="M1105.18 1288.7 1124.5 1269.04 1130.46 1274.9 1111.14 1294.56Z" fill="#ED7D31" fill-rule="evenodd"/><path d="M1125.11 1252.66 1106.61 1234.48 1112.47 1228.52 1130.97 1246.69Z" fill="#ED7D31" fill-rule="evenodd"/><path d="M1124.97 1280.38 1105.43 1261.18 1111.29 1255.22 1130.83 1274.41Z" fill="#ED7D31" fill-rule="evenodd"/><path d="M1118.84 1302.11 1105.42 1288.93 1111.28 1282.96 1124.7 1296.14Z" fill="#ED7D31" fill-rule="evenodd"/><text fill="#3A3838" font-family="Calibri,Calibri_MSFontService,sans-serif" font-weight="400" font-size="48" transform="matrix(1 0 0 1 1144.94 1284)">CWL</text><path d="M926 1118 999.452 1118" stroke="#5B9BD5" stroke-width="13.75" stroke-linecap="round" stroke-linejoin="round" stroke-miterlimit="10" fill="none" fill-rule="evenodd"/><path d="M0 0 0.000360892 72.295" stroke="#5B9BD5" stroke-width="13.75" stroke-linecap="round" stroke-linejoin="round" stroke-miterlimit="10" fill="none" fill-rule="evenodd" transform="matrix(1 0 0 -1 1005 1225.29)"/><path d="M1005 1262 1078.45 1262" stroke="#5B9BD5" stroke-width="13.75" stroke-linecap="round" stroke-linejoin="round" stroke-miterlimit="10" fill="none" fill-rule="evenodd"/><path d="M999 1118 1072.45 1118" stroke="#5B9BD5" stroke-width="13.75" stroke-linecap="round" stroke-linejoin="round" stroke-miterlimit="10" fill="none" fill-rule="evenodd"/><path d="M0 0 0.000360892 64.4738" stroke="#5B9BD5" stroke-width="13.75" stroke-linecap="round" stroke-linejoin="round" stroke-miterlimit="10" fill="none" fill-rule="evenodd" transform="matrix(1 0 0 -1 508 1302.47)"/><path d="M0 0 0.000360892 64.4738" stroke="#5B9BD5" stroke-width="13.75" stroke-linecap="round" stroke-linejoin="round" stroke-miterlimit="10" fill="none" fill-rule="evenodd" transform="matrix(1 0 0 -1 509 999.474)"/></g></svg>