<svg width="2569" height="1997" xmlns="http://www.w3.org/2000/svg" xmlns:xlink="http://www.w3.org/1999/xlink" xml:space="preserve" overflow="hidden"><defs><clipPath id="clip0"><rect x="-53" y="335" width="2569" height="1997"/></clipPath><clipPath id="clip1"><rect x="155" y="172" width="1291" height="857"/></clipPath><clipPath id="clip2"><rect x="155" y="317" width="1291" height="857"/></clipPath><clipPath id="clip3"><rect x="1445" y="317" width="1061" height="857"/></clipPath><clipPath id="clip4"><rect x="155" y="461" width="1291" height="858"/></clipPath><clipPath id="clip5"><rect x="1445" y="461" width="1061" height="858"/></clipPath><clipPath id="clip6"><rect x="155" y="693" width="1291" height="857"/></clipPath><clipPath id="clip7"><rect x="1445" y="428" width="1061" height="1387"/></clipPath><clipPath id="clip8"><rect x="1445" y="428" width="1061" height="1387"/></clipPath><clipPath id="clip9"><rect x="155" y="924" width="1291" height="858"/></clipPath><clipPath id="clip10"><rect x="1445" y="924" width="1061" height="858"/></clipPath><clipPath id="clip11"><rect x="155" y="1069" width="1291" height="858"/></clipPath><clipPath id="clip12"><rect x="1445" y="1069" width="1061" height="858"/></clipPath><clipPath id="clip13"><rect x="155" y="1214" width="1291" height="857"/></clipPath><clipPath id="clip14"><rect x="155" y="1359" width="1291" height="857"/></clipPath><clipPath id="clip15"><rect x="1445" y="1359" width="1061" height="857"/></clipPath><clipPath id="clip16"><rect x="155" y="1503" width="1291" height="858"/></clipPath><clipPath id="clip17"><rect x="1445" y="1503" width="1061" height="858"/></clipPath><clipPath id="clip18"><rect x="155" y="1648" width="1291" height="857"/></clipPath><clipPath id="clip19"><rect x="1445" y="1648" width="1061" height="857"/></clipPath></defs><g clip-path="url(#clip0)" transform="translate(53 -335)"><path d="M1445.68 527.438 1445.68 2293.16" stroke="#1FC2A7" stroke-width="6.875" stroke-linejoin="round" stroke-miterlimit="10" fill="none" fill-rule="evenodd"/><path d="M155.328 672.17 2505.31 672.17" stroke="#1FC2A7" stroke-width="6.875" stroke-linejoin="round" stroke-miterlimit="10" fill="none" fill-rule="evenodd"/><path d="M155.328 816.903 2505.31 816.903" stroke="#1FC2A7" stroke-width="6.875" stroke-linejoin="round" stroke-miterlimit="10" fill="none" fill-rule="evenodd"/><path d="M155.328 961.635 2505.31 961.635" stroke="#1FC2A7" stroke-width="6.875" stroke-linejoin="round" stroke-miterlimit="10" fill="none" fill-rule="evenodd"/><path d="M155.328 1280.04 2505.31 1280.04" stroke="#1FC2A7" stroke-width="6.875" stroke-linejoin="round" stroke-miterlimit="10" fill="none" fill-rule="evenodd"/><path d="M155.328 1424.77 2505.31 1424.77" stroke="#1FC2A7" stroke-width="6.875" stroke-linejoin="round" stroke-miterlimit="10" fill="none" fill-rule="evenodd"/><path d="M155.328 1569.5 2505.31 1569.5" stroke="#1FC2A7" stroke-width="6.875" stroke-linejoin="round" stroke-miterlimit="10" fill="none" fill-rule="evenodd"/><path d="M155.328 1714.23 2505.31 1714.23" stroke="#1FC2A7" stroke-width="6.875" stroke-linejoin="round" stroke-miterlimit="10" fill="none" fill-rule="evenodd"/><path d="M155.328 1858.97 2505.31 1858.97" stroke="#1FC2A7" stroke-width="6.875" stroke-linejoin="round" stroke-miterlimit="10" fill="none" fill-rule="evenodd"/><path d="M155.328 2003.7 2505.31 2003.7" stroke="#1FC2A7" stroke-width="6.875" stroke-linejoin="round" stroke-miterlimit="10" fill="none" fill-rule="evenodd"/><path d="M155.328 2148.43 2505.31 2148.43" stroke="#1FC2A7" stroke-width="6.875" stroke-linejoin="round" stroke-miterlimit="10" fill="none" fill-rule="evenodd"/><g clip-path="url(#clip1)"><text fill="#1FC2A7" font-family="Calibri,Calibri_MSFontService,sans-serif" font-weight="700" font-size="83" transform="matrix(1 0 0 1 194.567 639)">INVESTIGATION</text></g><g clip-path="url(#clip2)"><text fill="#1FC2A7" font-family="Calibri,Calibri_MSFontService,sans-serif" font-weight="400" font-size="83" transform="matrix(1 0 0 1 194.567 784)">Investigation Identifier</text></g><g clip-path="url(#clip3)"><text fill="#1FC2A7" font-family="Calibri,Calibri_MSFontService,sans-serif" font-weight="400" font-size="83" transform="matrix(1 0 0 1 1484.92 784)">210703_exampleARC</text></g><g clip-path="url(#clip4)"><text fill="#1FC2A7" font-family="Calibri,Calibri_MSFontService,sans-serif" font-weight="400" font-size="83" transform="matrix(1 0 0 1 194.567 929)">Investigation Title</text></g><g clip-path="url(#clip5)"><text fill="#1FC2A7" font-family="Calibri,Calibri_MSFontService,sans-serif" font-weight="400" font-size="83" transform="matrix(1 0 0 1 1484.92 929)">Creation of an example ARC</text></g><g clip-path="url(#clip6)"><text fill="#1FC2A7" font-family="Calibri,Calibri_MSFontService,sans-serif" font-weight="400" font-size="83" transform="matrix(1 0 0 1 194.567 1160)">Investigation Description</text></g><g clip-path="url(#clip7)"><text fill="#1FC2A7" font-family="Calibri,Calibri_MSFontService,sans-serif" font-weight="400" font-size="83" transform="matrix(1 0 0 1 1484.92 1100)">H</text></g><text fill="#1FC2A7" font-family="Calibri,Calibri_MSFontService,sans-serif" font-weight="400" font-size="83" transform="matrix(1 0 0 1 1536.48 1100)">ighlighting<tspan font-size="83" x="368.775" y="0">the   </tspan></text><g clip-path="url(#clip8)"><text fill="#1FC2A7" font-family="Calibri,Calibri_MSFontService,sans-serif" font-weight="400" font-size="83" transform="matrix(1 0 0 1 1484.92 1199)">isa.investigation.xlsx format</text></g><g clip-path="url(#clip9)"><text fill="#1FC2A7" font-family="Calibri,Calibri_MSFontService,sans-serif" font-weight="400" font-size="83" transform="matrix(1 0 0 1 194.567 1392)">Investigation Submission Date</text></g><g clip-path="url(#clip10)"><text fill="#1FC2A7" font-family="Calibri,Calibri_MSFontService,sans-serif" font-weight="400" font-size="83" transform="matrix(1 0 0 1 1484.92 1392)">210703</text></g><g clip-path="url(#clip11)"><text fill="#1FC2A7" font-family="Calibri,Calibri_MSFontService,sans-serif" font-weight="400" font-size="83" transform="matrix(1 0 0 1 194.567 1537)">Investigation Public Release Date</text></g><g clip-path="url(#clip12)"><text fill="#1FC2A7" font-family="Calibri,Calibri_MSFontService,sans-serif" font-weight="400" font-size="83" transform="matrix(1 0 0 1 1484.92 1537)">210824</text></g><g clip-path="url(#clip13)"><text fill="#1FC2A7" font-family="Calibri,Calibri_MSFontService,sans-serif" font-weight="700" font-size="83" transform="matrix(1 0 0 1 194.567 1681)">INVESTIGATION PUBLICATIONS</text></g><g clip-path="url(#clip14)"><text fill="#1FC2A7" font-family="Calibri,Calibri_MSFontService,sans-serif" font-weight="400" font-size="83" transform="matrix(1 0 0 1 194.567 1826)">Investigation Publication PubMed ID</text></g><g clip-path="url(#clip15)"><text fill="#1FC2A7" font-family="Calibri,Calibri_MSFontService,sans-serif" font-weight="400" font-size="83" transform="matrix(1 0 0 1 1484.92 1826)">12345678</text></g><g clip-path="url(#clip16)"><text fill="#1FC2A7" font-family="Calibri,Calibri_MSFontService,sans-serif" font-weight="400" font-size="83" transform="matrix(1 0 0 1 194.567 1971)">Investigation Publication DOI</text></g><g clip-path="url(#clip17)"><text fill="#1FC2A7" font-family="Calibri,Calibri_MSFontService,sans-serif" font-weight="400" font-size="83" transform="matrix(1 0 0 1 1484.92 1971)">2021_ExampleARC</text></g><g clip-path="url(#clip18)"><text fill="#1FC2A7" font-family="Calibri,Calibri_MSFontService,sans-serif" font-weight="400" font-size="83" transform="matrix(1 0 0 1 194.567 2116)">Investigation Publication Author List</text></g><g clip-path="url(#clip19)"><text fill="#1FC2A7" font-family="Calibri,Calibri_MSFontService,sans-serif" font-weight="400" font-size="83" transform="matrix(1 0 0 1 1484.92 2116)">Doe, John; Doe, Jane; …</text></g><text fill="#1FC2A7" font-family="Calibri,Calibri_MSFontService,sans-serif" font-weight="700" font-size="83" transform="matrix(1 0 0 1 232.38 2260)">…<tspan font-size="83" x="1290.35" y="0">…</tspan></text><path d="M155.5 578.311C155.5 548.592 179.592 524.5 209.31 524.5L2451.69 524.5C2481.41 524.5 2505.5 548.592 2505.5 578.311L2505.5 2236.69C2505.5 2266.41 2481.41 2290.5 2451.69 2290.5L209.31 2290.5C179.592 2290.5 155.5 2266.41 155.5 2236.69Z" stroke="#1FC2A7" stroke-width="20.625" stroke-miterlimit="8" fill="none" fill-rule="evenodd"/><path d="M-52.9999 389.331C-52.9999 359.325-28.6752 335 1.33093 335L95.669 335C125.675 335 150 359.325 150 389.331L150 463.669C150 493.675 125.675 518 95.669 518L1.33093 518C-28.6752 518-52.9999 493.675-52.9999 463.669Z" fill="#1FC2A7" fill-rule="evenodd"/><path d="M101 443.164C101 414.355 124.355 391 153.164 391L252.836 391C281.645 391 305 414.355 305 443.164L305 521.836C305 550.645 281.645 574 252.836 574L153.164 574C124.355 574 101 550.645 101 521.836Z" fill="#6BE7D2" fill-rule="evenodd" fill-opacity="0.882353"/><path d="M-15.0001 537.006C-15.0001 506.627 9.62689 482 40.0059 482L133.994 482C164.373 482 189 506.627 189 537.006L189 613.994C189 644.373 164.373 669 133.994 669L40.0059 669C9.62689 669-15.0001 644.373-15.0001 613.994Z" fill="#ACF2E6" fill-rule="evenodd" fill-opacity="0.898039"/></g></svg>