<svg width="3233" height="1501" xmlns="http://www.w3.org/2000/svg" xmlns:xlink="http://www.w3.org/1999/xlink" xml:space="preserve" overflow="hidden"><defs><clipPath id="clip0"><rect x="554" y="479" width="3233" height="1501"/></clipPath><clipPath id="clip1"><rect x="2403" y="1705" width="276" height="275"/></clipPath><clipPath id="clip2"><rect x="2403" y="1705" width="276" height="275"/></clipPath><clipPath id="clip3"><rect x="2403" y="1705" width="276" height="275"/></clipPath><clipPath id="clip4"><rect x="2439" y="1243" width="203" height="201"/></clipPath><clipPath id="clip5"><rect x="2439" y="1243" width="203" height="201"/></clipPath><clipPath id="clip6"><rect x="2439" y="1243" width="203" height="201"/></clipPath><clipPath id="clip7"><rect x="2436" y="759" width="199" height="196"/></clipPath><clipPath id="clip8"><rect x="2436" y="759" width="199" height="196"/></clipPath><clipPath id="clip9"><rect x="2436" y="759" width="199" height="196"/></clipPath><clipPath id="clip10"><rect x="1171" y="1181" width="166" height="165"/></clipPath><clipPath id="clip11"><rect x="1171" y="1181" width="166" height="165"/></clipPath><clipPath id="clip12"><rect x="1171" y="1181" width="166" height="165"/></clipPath><clipPath id="clip13"><rect x="1301" y="1598" width="105" height="105"/></clipPath><clipPath id="clip14"><rect x="1301" y="1598" width="105" height="105"/></clipPath><clipPath id="clip15"><rect x="1301" y="1598" width="105" height="105"/></clipPath><clipPath id="clip16"><rect x="938" y="1498" width="78" height="79"/></clipPath><clipPath id="clip17"><rect x="938" y="1498" width="78" height="79"/></clipPath><clipPath id="clip18"><rect x="938" y="1498" width="78" height="79"/></clipPath><clipPath id="clip19"><rect x="847" y="1134" width="75" height="76"/></clipPath><clipPath id="clip20"><rect x="847" y="1134" width="75" height="76"/></clipPath><clipPath id="clip21"><rect x="847" y="1134" width="75" height="76"/></clipPath></defs><g clip-path="url(#clip0)" transform="translate(-554 -479)"><rect x="556.5" y="802.5" width="201" height="90.9998" stroke="#0684A2" stroke-width="4.58333" stroke-miterlimit="8" fill="#0BB5DD"/><path d="M757 848 916.5 848" stroke="#0BB5DD" stroke-width="2.29167" stroke-miterlimit="8" fill="none" fill-rule="evenodd"/><path d="M917 848 984.39 1122.01" stroke="#0BB5DD" stroke-width="2.29167" stroke-miterlimit="8" fill="none" fill-rule="evenodd"/><rect x="704.5" y="1721.5" width="201" height="91.0001" stroke="#0684A2" stroke-width="4.58333" stroke-miterlimit="8" fill="#0BB5DD"/><path d="M905 1767 1048.47 1767" stroke="#0BB5DD" stroke-width="2.29167" stroke-miterlimit="8" fill="none" fill-rule="evenodd"/><path d="M0 0 67.3894 274.014" stroke="#0BB5DD" stroke-width="2.29167" stroke-miterlimit="8" fill="none" fill-rule="evenodd" transform="matrix(1 0 0 -1 1048 1767.01)"/><rect x="1778.5" y="978.5" width="201" height="89.9997" stroke="#0684A2" stroke-width="4.58333" stroke-miterlimit="8" fill="#0BB5DD"/><path d="M1670 1023 1774.79 1023" stroke="#0BB5DD" stroke-width="2.29167" stroke-miterlimit="8" fill="none" fill-rule="evenodd"/><path d="M0 0 295.438 157.341" stroke="#0BB5DD" stroke-width="2.29167" stroke-miterlimit="8" fill="none" fill-rule="evenodd" transform="matrix(1 0 0 -1 1375 1180.34)"/><rect x="1316" y="1589" width="145" height="300" fill="#0BB5DD" fill-opacity="0.0509804"/><rect x="1491" y="1511" width="145" height="378" fill="#0BB5DD" fill-opacity="0.0509804"/><rect x="1663" y="1433" width="146" height="456" fill="#0BB5DD" fill-opacity="0.0509804"/><path d="M1253.1 1733.8C1013.94 1737.96 816.695 1547.45 812.539 1308.29 808.383 1069.13 998.891 871.882 1238.05 867.726 1477.21 863.57 1674.46 1054.08 1678.61 1293.24 1678.8 1304.1 1678.58 1314.96 1677.95 1325.8" stroke="#0BB5DD" stroke-width="27.5" stroke-linecap="round" stroke-miterlimit="8" stroke-opacity="0.0509804" fill="none" fill-rule="evenodd"/><path d="M0 0 86.459 95.5495" stroke="#0BB5DD" stroke-width="27.5" stroke-linecap="round" stroke-miterlimit="8" stroke-opacity="0.0509804" fill="none" fill-rule="evenodd" transform="matrix(1 0 0 -1 1671 1347.55)"/><path d="M0 0 86.459 95.5495" stroke="#0BB5DD" stroke-width="27.5" stroke-linecap="round" stroke-miterlimit="8" stroke-opacity="0.0509804" fill="none" fill-rule="evenodd" transform="matrix(-1.83697e-16 -1 -1 1.83697e-16 1670.55 1347.46)"/><path d="M1062.54 1399.8C1043.04 1365.68 1042.87 1289.97 1063.76 1244.68 1084.64 1199.4 1123.43 1135.71 1231.37 1134.14 1268.86 1133.6 1323.84 1124.87 1359.12 1116.34 1394.41 1107.82 1427.46 1082.46 1443.09 1083.01 1458.71 1083.55 1455.37 1098.11 1452.85 1119.61 1450.32 1141.11 1438.88 1184.52 1427.94 1212.03 1416.99 1239.53 1386.94 1319.55 1364.23 1356.08 1341.52 1392.61 1322.23 1415.67 1291.65 1431.22 1261.08 1446.77 1218.95 1454.62 1180.77 1449.38 1142.58 1444.14 1082.04 1433.91 1062.54 1399.8Z" stroke="#0BB5DD" stroke-width="27.5" stroke-linecap="round" stroke-miterlimit="8" stroke-opacity="0.0509804" fill="none" fill-rule="evenodd"/><path d="M1021 1507C1039.33 1428 1057.67 1348.99 1219 1297" stroke="#0BB5DD" stroke-width="27.5" stroke-linecap="round" stroke-miterlimit="8" stroke-opacity="0.0509804" fill="none" fill-rule="evenodd"/><path d="M1748.83 492.756C1768.69 492.805 1788.76 498.369 1806.51 509.817 1830.43 526.533 1845.22 550.855 1849.85 576.978 1854.48 603.101 1848.95 631.026 1832.24 654.946L1682.99 868.519C1662.69 897.563 1630.85 912.189 1597.9 912.045L1575.7 943.798 1565.02 934.085C1550.76 922.322 1535.94 911.229 1520.58 900.856L1480.38 876.431 1502.21 845.181C1490.75 814.282 1493.54 779.358 1513.84 750.313L1663.09 536.74C1683.24 507.908 1715.73 492.674 1748.83 492.756Z" stroke="#0BB5DD" stroke-width="27.5" stroke-linecap="round" stroke-miterlimit="8" stroke-opacity="0.0509804" fill="none" fill-rule="evenodd"/><path d="M2383.5 1819C2383.5 1732.02 2454.02 1661.5 2541 1661.5 2627.98 1661.5 2698.5 1732.02 2698.5 1819 2698.5 1905.98 2627.98 1976.5 2541 1976.5 2454.02 1976.5 2383.5 1905.98 2383.5 1819Z" stroke="#2D3E50" stroke-width="4.58333" stroke-miterlimit="8" fill="#FFFFFF" fill-rule="evenodd"/><g clip-path="url(#clip1)"><g clip-path="url(#clip2)"><g clip-path="url(#clip3)"><path d="M2531.62 1912.4C2530.19 1912.4 2528.47 1912.11 2527.32 1910.96 2525.03 1908.96 2524.75 1905.23 2526.75 1902.94L2537.92 1890.05C2539.93 1887.76 2543.65 1887.47 2545.94 1889.48 2548.23 1891.48 2548.52 1895.21 2546.52 1897.5L2535.34 1910.39C2534.48 1911.54 2533.05 1912.11 2531.62 1912.4Z" fill="#0BB5DD"/><path d="M2514.15 1905.81C2512.14 1906.09 2510.42 1905.52 2508.7 1904.09 2505.84 1901.51 2505.55 1896.93 2508.13 1894.06L2521.31 1878.88C2523.89 1876.02 2528.47 1875.73 2531.33 1878.31 2534.2 1880.89 2534.48 1885.47 2531.91 1888.33L2518.73 1903.52C2517.58 1904.95 2515.86 1905.81 2514.15 1905.81Z" fill="#0BB5DD"/><path d="M2496.1 1895.21C2493.81 1895.49 2491.52 1894.64 2489.8 1893.2 2486.36 1890.05 2485.79 1884.61 2488.94 1881.17L2502.11 1865.99C2505.27 1862.55 2510.71 1861.98 2514.15 1865.13 2517.58 1868.28 2518.16 1873.72 2515.01 1877.16L2501.83 1892.34C2500.4 1894.06 2498.1 1895.21 2496.1 1895.21Z" fill="#0BB5DD"/><path d="M2475.19 1884.61C2472.9 1884.9 2470.6 1884.04 2468.89 1882.6 2465.45 1879.45 2464.88 1874.01 2468.03 1870.57L2483.21 1853.39C2486.36 1849.95 2491.8 1849.38 2495.24 1852.53 2498.68 1855.68 2499.25 1861.12 2496.1 1864.56L2480.92 1881.74C2479.2 1883.46 2477.19 1884.32 2475.19 1884.61Z" fill="#0BB5DD"/><path d="M2416.18 1821.59 2438.23 1835.05C2440.81 1836.77 2444.54 1835.91 2445.97 1833.05L2472.61 1788.93C2474.33 1786.35 2473.47 1782.63 2470.6 1781.2L2448.83 1767.73 2416.18 1821.59Z" fill="#0BB5DD"/><path d="M2601.8 1859.11 2555.68 1819.58 2552.53 1816.72 2532.77 1839.35C2529.9 1842.79 2525.89 1844.79 2521.31 1845.08 2520.73 1845.08 2520.16 1845.08 2519.88 1845.08 2515.58 1845.08 2511.57 1843.65 2508.7 1840.78 2501.54 1834.48 2500.97 1823.59 2506.98 1816.43L2523.89 1796.95C2510.71 1795.23 2493.81 1802.11 2476.33 1793.52L2451.41 1834.77 2470.89 1857.4 2478.34 1848.8C2480.92 1845.65 2484.93 1843.93 2489.22 1843.93L2489.22 1843.93C2492.66 1843.93 2496.1 1845.08 2498.68 1847.37 2501.83 1849.95 2503.26 1853.67 2503.55 1857.68 2504.98 1857.11 2506.7 1856.82 2508.42 1856.82 2511.85 1856.82 2515.29 1857.97 2517.87 1860.26 2521.02 1863.12 2522.74 1866.85 2522.74 1870.86 2523.89 1870.57 2525.32 1870.29 2526.46 1870.29L2526.46 1870.29C2529.61 1870.29 2532.48 1871.43 2535.06 1873.44 2537.64 1875.73 2539.07 1878.88 2539.35 1882.32 2540.21 1882.03 2541.36 1881.74 2542.51 1881.74L2542.51 1881.74C2545.37 1881.74 2547.95 1882.6 2549.95 1884.61 2552.25 1886.61 2553.68 1889.48 2553.96 1892.34 2554.25 1895.49 2553.1 1898.36 2551.1 1900.65L2541.36 1911.82 2545.37 1914.97C2547.38 1916.12 2549.67 1916.98 2552.25 1916.69 2558.55 1916.12 2563.13 1910.68 2562.56 1904.38 2562.56 1904.38 2562.56 1904.09 2562.56 1904.09 2563.42 1904.38 2564.56 1904.38 2565.42 1904.38 2571.72 1903.8 2576.31 1898.36 2575.73 1892.06 2575.73 1892.06 2575.73 1891.77 2575.73 1891.77 2576.59 1892.06 2577.74 1892.06 2578.6 1892.06 2584.9 1891.48 2589.48 1886.04 2588.91 1879.74 2588.91 1879.17 2588.63 1878.59 2588.63 1878.02 2590.34 1878.88 2592.35 1879.45 2594.64 1879.17 2600.94 1878.59 2605.53 1873.15 2604.95 1866.85 2605.24 1863.7 2603.81 1861.12 2601.8 1859.11Z" fill="#0BB5DD"/><path d="M2664.82 1821.59 2642.77 1835.05C2640.19 1836.77 2636.46 1835.91 2635.03 1833.05L2608.39 1788.93C2606.67 1786.35 2607.53 1782.63 2610.4 1781.2L2632.45 1767.73 2664.82 1821.59Z" fill="#0BB5DD"/><path d="M2604.95 1794.66C2581.18 1803.26 2563.99 1794.95 2544.8 1791.22 2544.51 1791.22 2543.36 1790.94 2543.36 1790.94 2539.93 1790.65 2536.2 1791.8 2533.63 1794.66L2511 1820.44C2506.7 1825.31 2507.27 1832.47 2512.14 1836.48 2514.72 1838.49 2517.58 1839.64 2520.73 1839.35 2523.6 1839.06 2526.46 1837.92 2528.47 1835.34 2528.47 1835.34 2551.96 1808.41 2551.96 1808.41L2605.53 1854.53 2605.53 1854.53 2605.53 1854.53C2606.96 1855.96 2607.53 1856.54 2608.68 1858.26L2629.3 1834.48 2604.95 1794.66Z" fill="#0BB5DD"/></g></g></g><path d="M2383.5 1338C2383.5 1251.02 2454.02 1180.5 2541 1180.5 2627.98 1180.5 2698.5 1251.02 2698.5 1338 2698.5 1424.98 2627.98 1495.5 2541 1495.5 2454.02 1495.5 2383.5 1424.98 2383.5 1338Z" stroke="#2D3E50" stroke-width="4.58333" stroke-miterlimit="8" fill="#FFFFFF" fill-rule="evenodd"/><g clip-path="url(#clip4)"><g clip-path="url(#clip5)"><g clip-path="url(#clip6)"><path d="M47.9167 29.1667 152.083 29.1667 152.083 170.833 47.9167 170.833 47.9167 29.1667ZM35.4167 183.333 164.583 183.333 164.583 16.6667 35.4167 16.6667 35.4167 183.333Z" fill="#0BB5DD" transform="matrix(1.005 0 0 1 2440 1243)"/><path d="M104.167 47.9167 139.583 47.9167 139.583 56.25 104.167 56.25Z" fill="#0BB5DD" transform="matrix(1.005 0 0 1 2440 1243)"/><path d="M104.167 81.25 139.583 81.25 139.583 89.5834 104.167 89.5834Z" fill="#0BB5DD" transform="matrix(1.005 0 0 1 2440 1243)"/><path d="M104.167 147.917 139.583 147.917 139.583 156.25 104.167 156.25Z" fill="#0BB5DD" transform="matrix(1.005 0 0 1 2440 1243)"/><path d="M104.167 114.583 139.583 114.583 139.583 122.917 104.167 122.917Z" fill="#0BB5DD" transform="matrix(1.005 0 0 1 2440 1243)"/><path d="M91.25 43.3333 85.4167 37.5 71.6667 51.25 66.25 45.8333 60.4167 51.6667 71.6667 62.9167Z" fill="#0BB5DD" transform="matrix(1.005 0 0 1 2440 1243)"/><path d="M91.25 76.6667 85.4167 70.8334 71.6667 84.5834 66.25 79.1667 60.4167 85 71.6667 96.25Z" fill="#0BB5DD" transform="matrix(1.005 0 0 1 2440 1243)"/><path d="M91.25 110 85.4167 104.167 71.6667 117.917 66.25 112.5 60.4167 118.333 71.6667 129.583Z" fill="#0BB5DD" transform="matrix(1.005 0 0 1 2440 1243)"/><path d="M91.25 142.917 85.4167 137.083 71.6667 150.833 66.25 145.417 60.4167 151.25 71.6667 162.5Z" fill="#0BB5DD" transform="matrix(1.005 0 0 1 2440 1243)"/></g></g></g><path d="M2383.5 854C2383.5 767.015 2454.02 696.5 2541 696.5 2627.98 696.5 2698.5 767.015 2698.5 854 2698.5 940.985 2627.98 1011.5 2541 1011.5 2454.02 1011.5 2383.5 940.985 2383.5 854Z" stroke="#2D3E50" stroke-width="4.58333" stroke-miterlimit="8" fill="#FFFFFF" fill-rule="evenodd"/><g clip-path="url(#clip7)"><g clip-path="url(#clip8)"><g clip-path="url(#clip9)"><path d="M157.27 115.415C157.27 124.188 150.158 131.3 141.385 131.3 132.613 131.3 125.501 124.188 125.501 115.415 125.501 106.643 132.613 99.5312 141.385 99.5312 150.158 99.5312 157.27 106.643 157.27 115.415Z" fill="#0BB5DD" transform="matrix(1.0051 0 0 1 2437 759)"/><path d="M72.5608 115.415C72.5608 124.188 65.4492 131.3 56.6767 131.3 47.9041 131.3 40.7925 124.188 40.7925 115.415 40.7925 106.643 47.9041 99.5312 56.6767 99.5312 65.4492 99.5312 72.5608 106.643 72.5608 115.415Z" fill="#0BB5DD" transform="matrix(1.0051 0 0 1 2437 759)"/><path d="M169.989 145.06C165.406 141.496 160.106 138.968 154.452 137.649 150.203 136.408 145.811 135.721 141.385 135.607 136.956 135.597 132.553 136.287 128.339 137.649 124.122 138.772 120.091 140.505 116.375 142.794L115.64 143.631C121.576 145.234 127.13 148.011 131.973 151.798 135.78 154.595 138.001 159.059 137.935 163.782L137.935 167.417 173.154 167.417 173.154 151.43C173.223 148.913 172.037 146.526 169.989 145.06Z" fill="#0BB5DD" transform="matrix(1.0051 0 0 1 2437 759)"/><path d="M60.1883 163.782C60.1916 159.183 62.3067 154.84 65.9254 152.002L66.15 151.798 66.4154 151.614C71.3162 148.127 76.7397 145.439 82.4833 143.652 82.075 143.223 81.6871 142.774 81.3196 142.325 77.6972 140.22 73.7919 138.646 69.7229 137.649 65.4803 136.409 61.0952 135.723 56.6767 135.607 52.2407 135.596 47.8309 136.285 43.61 137.649 38.0356 139.187 32.7761 141.696 28.0729 145.06 26.0925 146.584 24.9191 148.932 24.8879 151.43L24.8879 167.417 60.1883 167.417Z" fill="#0BB5DD" transform="matrix(1.0051 0 0 1 2437 759)"/><path d="M67.2525 179.667 67.2525 163.782C67.2621 161.284 68.4407 158.934 70.4375 157.433 75.1313 154.052 80.3937 151.542 85.9746 150.022 90.1867 148.65 94.591 147.961 99.0208 147.98 103.447 148.084 107.84 148.77 112.087 150.022 117.747 151.323 123.051 153.853 127.625 157.433 129.68 158.885 130.875 161.267 130.81 163.782L130.81 179.667Z" fill="#0BB5DD" transform="matrix(1.0051 0 0 1 2437 759)"/><path d="M114.905 127.767C114.905 136.54 107.793 143.652 99.0208 143.652 90.2482 143.652 83.1366 136.54 83.1366 127.767 83.1366 118.995 90.2482 111.883 99.0208 111.883 107.793 111.883 114.905 118.995 114.905 127.767Z" fill="#0BB5DD" transform="matrix(1.0051 0 0 1 2437 759)"/><path d="M165.375 16.3333 33.1771 16.3333C28.6668 16.3333 25.0104 19.9897 25.0104 24.5L25.0104 69.4166C25.0104 73.9269 28.6668 77.5833 33.1771 77.5833L63.2916 77.5833 63.2916 89.8333 76.1541 77.5833 90.0375 77.5833 98 89.8333 105.35 77.5833 119.846 77.5833 132.708 89.8333 132.708 77.5833 165.375 77.5833C169.885 77.5833 173.542 73.9269 173.542 69.4166L173.542 24.5C173.542 19.9897 169.885 16.3333 165.375 16.3333ZM45.4271 34.7083 140.875 34.7083 140.875 38.7917 45.4271 38.7917ZM120.458 59.2083 45.4271 59.2083 45.4271 55.125 120.458 55.125ZM153.125 49 45.4271 49 45.4271 44.9167 153.125 44.9167Z" fill="#0BB5DD" transform="matrix(1.0051 0 0 1 2437 759)"/></g></g></g><text fill="#2D3E50" font-family="Calibri,Calibri_MSFontService,sans-serif" font-weight="400" font-size="110" transform="matrix(1 0 0 1 2896.82 868)">standardization<tspan font-size="110" x="0" y="492">(meta)data quality</tspan><tspan font-size="110" x="0" y="1003">interoperability</tspan></text><path d="M772 1271C772 1003.14 989.142 786 1257 786 1524.86 786 1742 1003.14 1742 1271 1742 1538.86 1524.86 1756 1257 1756 989.142 1756 772 1538.86 772 1271Z" stroke="#2D3E50" stroke-width="13.75" stroke-miterlimit="8" fill="#2D3E50" fill-rule="evenodd"/><path d="M1047 1273C1047 1156.47 1141.47 1062 1258 1062 1374.53 1062 1469 1156.47 1469 1273 1469 1389.53 1374.53 1484 1258 1484 1141.47 1484 1047 1389.53 1047 1273Z" fill="#FFFFFF" fill-rule="evenodd"/><path d="M1044 1269C1044 1152.47 1138.69 1058 1255.5 1058 1372.31 1058 1467 1152.47 1467 1269 1467 1385.53 1372.31 1480 1255.5 1480 1138.69 1480 1044 1385.53 1044 1269Z" stroke="#1FC2A7" stroke-width="13.75" stroke-miterlimit="8" fill="none" fill-rule="evenodd"/><path d="M1324.43 1199.37C1321.17 1193.63 1321.14 1180.87 1324.63 1173.24 1328.12 1165.61 1334.6 1154.88 1352.64 1154.62 1358.9 1154.52 1368.09 1153.05 1373.98 1151.62 1379.88 1150.18 1385.4 1145.91 1388.01 1146 1390.62 1146.09 1390.06 1148.54 1389.64 1152.17 1389.22 1155.79 1387.31 1163.1 1385.48 1167.74 1383.65 1172.37 1378.63 1185.85 1374.83 1192.01 1371.04 1198.16 1367.82 1202.05 1362.71 1204.67 1357.6 1207.29 1350.56 1208.61 1344.18 1207.73 1337.8 1206.84 1327.69 1205.12 1324.43 1199.37Z" stroke="#2D3E50" stroke-width="13.75" stroke-linecap="round" stroke-miterlimit="8" fill="none" fill-rule="evenodd"/><path d="M1313 1227C1316.06 1213.46 1319.11 1199.91 1346 1191" stroke="#2D3E50" stroke-width="13.75" stroke-linecap="round" stroke-miterlimit="8" fill="none" fill-rule="evenodd"/><g clip-path="url(#clip10)"><g clip-path="url(#clip11)"><g clip-path="url(#clip12)"><path d="M109.333 51.25C109.333 66.3458 97.0958 78.5833 82 78.5833 66.9042 78.5833 54.6667 66.3458 54.6667 51.25 54.6667 36.1542 66.9042 23.9167 82 23.9167 97.0958 23.9167 109.333 36.1542 109.333 51.25Z" fill="#2D3E50" transform="matrix(-1 0 0 1 1336 1181)"/><path d="M52.275 139.4 41 113.946 41 96.6916C41 94.6417 42.1958 92.5917 43.9042 91.5667 44.9292 91.0541 45.2708 89.8583 44.7583 89.0042 44.4167 88.3208 43.7333 87.8083 42.8792 87.9791L23.4042 87.9791C22.3792 87.9791 21.3542 88.6625 21.3542 89.8583 21.3542 90.7125 21.6958 91.3958 22.3792 91.7375 24.2583 92.7625 25.2833 94.8125 25.2833 96.8625L25.2833 114.117 14.1792 139.4C12.8125 142.304 14.1792 145.892 17.2542 147.087 17.9375 147.429 18.7917 147.6 19.6458 147.6L46.9792 147.6C50.225 147.6 52.7875 145.037 52.7875 141.792 52.7875 140.937 52.6167 140.083 52.275 139.4L52.275 139.4ZM29.3833 100.621 29.3833 96.6916C29.3833 94.9833 29.0417 93.275 28.0167 91.7375L38.4375 91.7375C37.5833 93.275 37.0708 94.9833 37.0708 96.6916L37.0708 100.621 29.3833 100.621Z" fill="#2D3E50" transform="matrix(-1 0 0 1 1336 1181)"/><path d="M38.0958 64.4042C38.0958 66.0081 36.7956 67.3083 35.1917 67.3083 33.5877 67.3083 32.2875 66.0081 32.2875 64.4042 32.2875 62.8002 33.5877 61.5 35.1917 61.5 36.7956 61.5 38.0958 62.8002 38.0958 64.4042Z" fill="#2D3E50" transform="matrix(-1 0 0 1 1336 1181)"/><path d="M43.05 73.2875C43.05 74.8914 41.7498 76.1917 40.1458 76.1917 38.5419 76.1917 37.2417 74.8914 37.2417 73.2875 37.2417 71.6836 38.5419 70.3833 40.1458 70.3833 41.7498 70.3833 43.05 71.6836 43.05 73.2875Z" fill="#2D3E50" transform="matrix(-1 0 0 1 1336 1181)"/><path d="M32.2875 71.2375C32.2875 72.8414 30.9873 74.1417 29.3833 74.1417 27.7794 74.1417 26.4792 72.8414 26.4792 71.2375 26.4792 69.6336 27.7794 68.3333 29.3833 68.3333 30.9873 68.3333 32.2875 69.6336 32.2875 71.2375Z" fill="#2D3E50" transform="matrix(-1 0 0 1 1336 1181)"/><path d="M35.1917 82C35.1917 84.17 33.4325 85.9291 31.2625 85.9291 29.0925 85.9291 27.3333 84.17 27.3333 82 27.3333 79.83 29.0925 78.0708 31.2625 78.0708 33.4325 78.0708 35.1917 79.83 35.1917 82Z" fill="#2D3E50" transform="matrix(-1 0 0 1 1336 1181)"/><path d="M73.4583 124.537 61.1583 111.554 67.9917 103.012 67.9917 102.842 57.5708 103.867 57.9125 89.3458C53.8125 90.7125 49.7125 92.25 45.7833 94.1291 45.1 94.8125 44.5875 95.8375 44.4167 96.8625L44.4167 113.262 55.35 138.033C55.6917 138.717 55.8625 139.4 56.0333 140.083L73.4583 140.083 73.4583 124.537Z" fill="#2D3E50" transform="matrix(-1 0 0 1 1336 1181)"/><path d="M76.875 123 76.875 140.083 87.125 140.083 87.125 123 99.425 87.4667C93.6166 86.1 87.8083 85.4166 82 85.4166 76.1917 85.4166 70.3833 86.1 64.7458 87.4667L76.875 123Z" fill="#2D3E50" transform="matrix(-1 0 0 1 1336 1181)"/><path d="M131.2 101.817C123.683 96.0083 115.142 91.9083 106.087 89.3458L106.429 103.867 96.0083 102.842 96.0083 103.012 102.842 111.554 90.5416 124.537 90.5416 140.083 136.667 140.083 136.667 112.75C136.496 108.479 134.617 104.379 131.2 101.817Z" fill="#2D3E50" transform="matrix(-1 0 0 1 1336 1181)"/></g></g></g><path d="M1146.93 1266.43C1144.34 1262.73 1144.32 1254.5 1147.09 1249.57 1149.86 1244.65 1155.01 1237.73 1169.33 1237.56 1174.3 1237.5 1181.6 1236.55 1186.28 1235.62 1190.96 1234.7 1195.35 1231.94 1197.42 1232 1199.49 1232.06 1199.05 1233.64 1198.71 1235.98 1198.38 1238.32 1196.86 1243.04 1195.41 1246.02 1193.96 1249.01 1189.97 1257.71 1186.96 1261.68 1183.94 1265.65 1181.38 1268.16 1177.33 1269.85 1173.27 1271.54 1167.68 1272.39 1162.61 1271.82 1157.55 1271.25 1149.52 1270.14 1146.93 1266.43Z" stroke="#2D3E50" stroke-width="13.75" stroke-linecap="round" stroke-miterlimit="8" fill="none" fill-rule="evenodd"/><path d="M1137 1284C1139.5 1275.35 1142 1266.69 1164 1261" stroke="#2D3E50" stroke-width="13.75" stroke-linecap="round" stroke-miterlimit="8" fill="none" fill-rule="evenodd"/><path d="M1231.93 1391.43C1229.34 1387.73 1229.32 1379.5 1232.09 1374.57 1234.86 1369.65 1240.01 1362.73 1254.33 1362.56 1259.3 1362.5 1266.6 1361.55 1271.28 1360.62 1275.96 1359.7 1280.35 1356.94 1282.42 1357 1284.49 1357.06 1284.05 1358.64 1283.71 1360.98 1283.38 1363.32 1281.86 1368.04 1280.41 1371.02 1278.96 1374.01 1274.97 1382.71 1271.96 1386.68 1268.94 1390.65 1266.38 1393.16 1262.33 1394.85 1258.27 1396.54 1252.68 1397.39 1247.61 1396.82 1242.55 1396.25 1234.52 1395.14 1231.93 1391.43Z" stroke="#2D3E50" stroke-width="13.75" stroke-linecap="round" stroke-miterlimit="8" fill="none" fill-rule="evenodd"/><path d="M1223 1409C1225.41 1400.35 1227.81 1391.69 1249 1386" stroke="#2D3E50" stroke-width="13.75" stroke-linecap="round" stroke-miterlimit="8" fill="none" fill-rule="evenodd"/><path d="M1291.35 1652.51C1080.38 1671.13 894.194 1515.87 875.498 1305.72 873.277 1280.76 873.527 1255.64 876.245 1230.73" stroke="#0BB5DD" stroke-width="13.75" stroke-miterlimit="8" fill="none" fill-rule="evenodd"/><path d="M1290 1640.5C1290 1604.88 1318.88 1576 1354.5 1576 1390.12 1576 1419 1604.88 1419 1640.5 1419 1676.12 1390.12 1705 1354.5 1705 1318.88 1705 1290 1676.12 1290 1640.5Z" stroke="#0BB5DD" stroke-width="10.3125" stroke-miterlimit="8" fill="#FFFFFF" fill-rule="evenodd"/><path d="M917 1533C917 1497.1 945.878 1468 981.5 1468 1017.12 1468 1046 1497.1 1046 1533 1046 1568.9 1017.12 1598 981.5 1598 945.878 1598 917 1568.9 917 1533Z" stroke="#0BB5DD" stroke-width="10.3125" stroke-miterlimit="8" fill="#FFFFFF" fill-rule="evenodd"/><path d="M824 1172C824 1136.1 852.878 1107 888.5 1107 924.122 1107 953 1136.1 953 1172 953 1207.9 924.122 1237 888.5 1237 852.878 1237 824 1207.9 824 1172Z" stroke="#0BB5DD" stroke-width="10.3125" stroke-miterlimit="8" fill="#FFFFFF" fill-rule="evenodd"/><g clip-path="url(#clip13)"><g clip-path="url(#clip14)"><g clip-path="url(#clip15)"><path d="M1350.11 1677.19C1349.56 1677.19 1348.91 1677.08 1348.47 1676.64 1347.59 1675.88 1347.48 1674.45 1348.25 1673.58L1352.52 1668.66C1353.28 1667.78 1354.7 1667.67 1355.58 1668.44 1356.45 1669.2 1356.56 1670.62 1355.8 1671.5L1351.53 1676.42C1351.2 1676.86 1350.66 1677.08 1350.11 1677.19Z" fill="#0BB5DD"/><path d="M1343.44 1674.67C1342.67 1674.78 1342.02 1674.56 1341.36 1674.02 1340.27 1673.03 1340.16 1671.28 1341.14 1670.19L1346.17 1664.39C1347.16 1663.3 1348.91 1663.19 1350 1664.17 1351.09 1665.16 1351.2 1666.91 1350.22 1668L1345.19 1673.8C1344.75 1674.34 1344.09 1674.67 1343.44 1674.67Z" fill="#0BB5DD"/><path d="M1336.55 1670.62C1335.67 1670.73 1334.8 1670.41 1334.14 1669.86 1332.83 1668.66 1332.61 1666.58 1333.81 1665.27L1338.84 1659.47C1340.05 1658.16 1342.12 1657.94 1343.44 1659.14 1344.75 1660.34 1344.97 1662.42 1343.77 1663.73L1338.73 1669.53C1338.19 1670.19 1337.31 1670.62 1336.55 1670.62Z" fill="#0BB5DD"/><path d="M1328.56 1666.58C1327.69 1666.69 1326.81 1666.36 1326.16 1665.81 1324.84 1664.61 1324.63 1662.53 1325.83 1661.22L1331.63 1654.66C1332.83 1653.34 1334.91 1653.12 1336.22 1654.33 1337.53 1655.53 1337.75 1657.61 1336.55 1658.92L1330.75 1665.48C1330.09 1666.14 1329.33 1666.47 1328.56 1666.58Z" fill="#0BB5DD"/><path d="M1306.03 1642.52 1314.45 1647.66C1315.44 1648.31 1316.86 1647.98 1317.41 1646.89L1327.58 1630.05C1328.23 1629.06 1327.91 1627.64 1326.81 1627.09L1318.5 1621.95 1306.03 1642.52Z" fill="#0BB5DD"/><path d="M1376.91 1656.84 1359.3 1641.75 1358.09 1640.66 1350.55 1649.3C1349.45 1650.61 1347.92 1651.38 1346.17 1651.48 1345.95 1651.48 1345.73 1651.48 1345.62 1651.48 1343.98 1651.48 1342.45 1650.94 1341.36 1649.84 1338.63 1647.44 1338.41 1643.28 1340.7 1640.55L1347.16 1633.11C1342.12 1632.45 1335.67 1635.08 1329 1631.8L1319.48 1647.55 1326.92 1656.19 1329.77 1652.91C1330.75 1651.7 1332.28 1651.05 1333.92 1651.05L1333.92 1651.05C1335.23 1651.05 1336.55 1651.48 1337.53 1652.36 1338.73 1653.34 1339.28 1654.77 1339.39 1656.3 1339.94 1656.08 1340.59 1655.97 1341.25 1655.97 1342.56 1655.97 1343.88 1656.41 1344.86 1657.28 1346.06 1658.38 1346.72 1659.8 1346.72 1661.33 1347.16 1661.22 1347.7 1661.11 1348.14 1661.11L1348.14 1661.11C1349.34 1661.11 1350.44 1661.55 1351.42 1662.31 1352.41 1663.19 1352.95 1664.39 1353.06 1665.7 1353.39 1665.59 1353.83 1665.48 1354.27 1665.48L1354.27 1665.48C1355.36 1665.48 1356.34 1665.81 1357.11 1666.58 1357.98 1667.34 1358.53 1668.44 1358.64 1669.53 1358.75 1670.73 1358.31 1671.83 1357.55 1672.7L1353.83 1676.97 1355.36 1678.17C1356.12 1678.61 1357 1678.94 1357.98 1678.83 1360.39 1678.61 1362.14 1676.53 1361.92 1674.12 1361.92 1674.12 1361.92 1674.02 1361.92 1674.02 1362.25 1674.12 1362.69 1674.12 1363.02 1674.12 1365.42 1673.91 1367.17 1671.83 1366.95 1669.42 1366.95 1669.42 1366.95 1669.31 1366.95 1669.31 1367.28 1669.42 1367.72 1669.42 1368.05 1669.42 1370.45 1669.2 1372.2 1667.12 1371.98 1664.72 1371.98 1664.5 1371.88 1664.28 1371.88 1664.06 1372.53 1664.39 1373.3 1664.61 1374.17 1664.5 1376.58 1664.28 1378.33 1662.2 1378.11 1659.8 1378.22 1658.59 1377.67 1657.61 1376.91 1656.84Z" fill="#0BB5DD"/><path d="M1400.97 1642.52 1392.55 1647.66C1391.56 1648.31 1390.14 1647.98 1389.59 1646.89L1379.42 1630.05C1378.77 1629.06 1379.09 1627.64 1380.19 1627.09L1388.61 1621.95 1400.97 1642.52Z" fill="#0BB5DD"/><path d="M1378.11 1632.23C1369.03 1635.52 1362.47 1632.34 1355.14 1630.92 1355.03 1630.92 1354.59 1630.81 1354.59 1630.81 1353.28 1630.7 1351.86 1631.14 1350.88 1632.23L1342.23 1642.08C1340.59 1643.94 1340.81 1646.67 1342.67 1648.2 1343.66 1648.97 1344.75 1649.41 1345.95 1649.3 1347.05 1649.19 1348.14 1648.75 1348.91 1647.77 1348.91 1647.77 1357.88 1637.48 1357.88 1637.48L1378.33 1655.09 1378.33 1655.09 1378.33 1655.09C1378.88 1655.64 1379.09 1655.86 1379.53 1656.52L1387.41 1647.44 1378.11 1632.23Z" fill="#0BB5DD"/></g></g></g><g clip-path="url(#clip16)"><g clip-path="url(#clip17)"><g clip-path="url(#clip18)"><path d="M18.4479 11.2292 58.5521 11.2292 58.5521 65.7708 18.4479 65.7708 18.4479 11.2292ZM13.6354 70.5833 63.3646 70.5833 63.3646 6.41667 13.6354 6.41667 13.6354 70.5833Z" fill="#0BB5DD" transform="matrix(1 0 0 1.01299 938 1498)"/><path d="M40.1042 18.4479 53.7396 18.4479 53.7396 21.6562 40.1042 21.6562Z" fill="#0BB5DD" transform="matrix(1 0 0 1.01299 938 1498)"/><path d="M40.1042 31.2812 53.7396 31.2812 53.7396 34.4896 40.1042 34.4896Z" fill="#0BB5DD" transform="matrix(1 0 0 1.01299 938 1498)"/><path d="M40.1042 56.9479 53.7396 56.9479 53.7396 60.1562 40.1042 60.1562Z" fill="#0BB5DD" transform="matrix(1 0 0 1.01299 938 1498)"/><path d="M40.1042 44.1146 53.7396 44.1146 53.7396 47.3229 40.1042 47.3229Z" fill="#0BB5DD" transform="matrix(1 0 0 1.01299 938 1498)"/><path d="M35.1312 16.6833 32.8854 14.4375 27.5917 19.7313 25.5062 17.6458 23.2604 19.8917 27.5917 24.2229Z" fill="#0BB5DD" transform="matrix(1 0 0 1.01299 938 1498)"/><path d="M35.1312 29.5167 32.8854 27.2708 27.5917 32.5646 25.5062 30.4792 23.2604 32.725 27.5917 37.0563Z" fill="#0BB5DD" transform="matrix(1 0 0 1.01299 938 1498)"/><path d="M35.1312 42.35 32.8854 40.1042 27.5917 45.3979 25.5062 43.3125 23.2604 45.5583 27.5917 49.8896Z" fill="#0BB5DD" transform="matrix(1 0 0 1.01299 938 1498)"/><path d="M35.1312 55.0229 32.8854 52.7771 27.5917 58.0708 25.5062 55.9854 23.2604 58.2312 27.5917 62.5625Z" fill="#0BB5DD" transform="matrix(1 0 0 1.01299 938 1498)"/></g></g></g><g clip-path="url(#clip19)"><g clip-path="url(#clip20)"><g clip-path="url(#clip21)"><path d="M60.1796 44.164C60.1796 47.5209 57.4584 50.2421 54.1015 50.2421 50.7447 50.2421 48.0234 47.5209 48.0234 44.164 48.0234 40.8072 50.7447 38.0859 54.1015 38.0859 57.4584 38.0859 60.1796 40.8072 60.1796 44.164Z" fill="#0BB5DD" transform="matrix(1 0 0 1.01333 847 1134)"/><path d="M27.7656 44.164C27.7656 47.5209 25.0443 50.2421 21.6875 50.2421 18.3306 50.2421 15.6094 47.5209 15.6094 44.164 15.6094 40.8072 18.3306 38.0859 21.6875 38.0859 25.0443 38.0859 27.7656 40.8072 27.7656 44.164Z" fill="#0BB5DD" transform="matrix(1 0 0 1.01333 847 1134)"/><path d="M65.0468 55.5078C63.2932 54.144 61.2649 53.1765 59.1015 52.6718 57.4755 52.1968 55.7949 51.9342 54.1015 51.8906 52.4068 51.8868 50.7219 52.1504 49.1093 52.6718 47.4955 53.1015 45.9532 53.7648 44.5312 54.6406L44.25 54.9609C46.5214 55.574 48.6466 56.6367 50.5 58.0859 51.9567 59.1561 52.8064 60.8644 52.7812 62.6718L52.7812 64.0624 66.2578 64.0624 66.2578 57.9453C66.2844 56.982 65.8306 56.0685 65.0468 55.5078Z" fill="#0BB5DD" transform="matrix(1 0 0 1.01333 847 1134)"/><path d="M23.0312 62.6718C23.0325 60.912 23.8419 59.2501 25.2265 58.164L25.3125 58.0859 25.414 58.0156C27.2894 56.681 29.3647 55.6526 31.5625 54.9687 31.4062 54.8046 31.2578 54.6328 31.1172 54.4609 29.7311 53.6557 28.2367 53.0532 26.6797 52.6718 25.0562 52.1975 23.3783 51.9349 21.6875 51.8906 19.9901 51.8862 18.3026 52.1499 16.6875 52.6718 14.5544 53.2603 12.5419 54.2203 10.7422 55.5078 9.98437 56.091 9.53538 56.9891 9.52343 57.9453L9.52343 64.0624 23.0312 64.0624Z" fill="#0BB5DD" transform="matrix(1 0 0 1.01333 847 1134)"/><path d="M25.7344 68.7499 25.7344 62.6718C25.738 61.7158 26.189 60.8167 26.9531 60.2421 28.7492 58.9486 30.7629 57.9881 32.8984 57.4062 34.5102 56.8814 36.1955 56.6176 37.8906 56.625 39.5843 56.6647 41.2654 56.9275 42.8906 57.4062 45.0563 57.9042 47.086 58.8724 48.8359 60.2421 49.6225 60.7977 50.0797 61.7092 50.0546 62.6718L50.0546 68.7499Z" fill="#0BB5DD" transform="matrix(1 0 0 1.01333 847 1134)"/><path d="M43.9687 48.8906C43.9687 52.2474 41.2474 54.9687 37.8906 54.9687 34.5337 54.9687 31.8125 52.2474 31.8125 48.8906 31.8125 45.5337 34.5337 42.8125 37.8906 42.8125 41.2474 42.8125 43.9687 45.5337 43.9687 48.8906Z" fill="#0BB5DD" transform="matrix(1 0 0 1.01333 847 1134)"/><path d="M63.2812 6.24999 12.6953 6.24999C10.9694 6.24999 9.5703 7.6491 9.5703 9.37499L9.5703 26.5625C9.5703 28.2883 10.9694 29.6875 12.6953 29.6875L24.2187 29.6875 24.2187 34.375 29.1406 29.6875 34.4531 29.6875 37.5 34.375 40.3125 29.6875 45.8593 29.6875 50.7812 34.375 50.7812 29.6875 63.2812 29.6875C65.0071 29.6875 66.4062 28.2883 66.4062 26.5625L66.4062 9.37499C66.4062 7.6491 65.0071 6.24999 63.2812 6.24999ZM17.3828 13.2812 53.9062 13.2812 53.9062 14.8437 17.3828 14.8437ZM46.0937 22.6562 17.3828 22.6562 17.3828 21.0937 46.0937 21.0937ZM58.5937 18.75 17.3828 18.75 17.3828 17.1875 58.5937 17.1875Z" fill="#0BB5DD" transform="matrix(1 0 0 1.01333 847 1134)"/></g></g></g></g></svg>