<svg width="4107" height="1253" xmlns="http://www.w3.org/2000/svg" xmlns:xlink="http://www.w3.org/1999/xlink" xml:space="preserve" overflow="hidden"><defs><clipPath id="clip0"><rect x="153" y="667" width="4107" height="1253"/></clipPath><clipPath id="clip1"><rect x="398" y="1266" width="191" height="191"/></clipPath><clipPath id="clip2"><rect x="398" y="1266" width="191" height="191"/></clipPath><clipPath id="clip3"><rect x="398" y="1266" width="191" height="191"/></clipPath><clipPath id="clip4"><rect x="566" y="1266" width="192" height="192"/></clipPath><clipPath id="clip5"><rect x="566" y="1266" width="192" height="192"/></clipPath><clipPath id="clip6"><rect x="566" y="1266" width="192" height="192"/></clipPath><clipPath id="clip7"><rect x="460" y="1300" width="210" height="210"/></clipPath><clipPath id="clip8"><rect x="460" y="1300" width="210" height="210"/></clipPath><clipPath id="clip9"><rect x="460" y="1300" width="210" height="210"/></clipPath><clipPath id="clip10"><rect x="3672" y="1266" width="192" height="191"/></clipPath><clipPath id="clip11"><rect x="3672" y="1266" width="192" height="191"/></clipPath><clipPath id="clip12"><rect x="3672" y="1266" width="192" height="191"/></clipPath><clipPath id="clip13"><rect x="3735" y="1300" width="210" height="210"/></clipPath><clipPath id="clip14"><rect x="3735" y="1300" width="210" height="210"/></clipPath><clipPath id="clip15"><rect x="3735" y="1300" width="210" height="210"/></clipPath></defs><g clip-path="url(#clip0)" transform="translate(-153 -667)"><text font-family="Arial,Arial_MSFontService,sans-serif" font-weight="400" font-size="92" transform="matrix(1 0 0 1 256.054 1733)">domain experts</text><path d="M371.5 1388C371.5 1278.37 460.372 1189.5 570 1189.5 679.629 1189.5 768.5 1278.37 768.5 1388 768.5 1497.63 679.629 1586.5 570 1586.5 460.372 1586.5 371.5 1497.63 371.5 1388Z" stroke="#0684A2" stroke-width="4.58333" stroke-miterlimit="8" fill="#0BB5DD" fill-rule="evenodd"/><g clip-path="url(#clip1)"><g clip-path="url(#clip2)"><g clip-path="url(#clip3)"><path d="M126.667 59.375C126.667 76.8641 112.489 91.0417 95 91.0417 77.511 91.0417 63.3334 76.8641 63.3334 59.375 63.3334 41.886 77.511 27.7083 95 27.7083 112.489 27.7083 126.667 41.886 126.667 59.375Z" fill="#2D3E50" transform="matrix(-1.00526 0 0 1 589 1266)"/><path d="M158.333 162.292 158.333 130.625C158.333 125.875 155.958 121.125 152 117.958 143.292 110.833 132.208 106.083 121.125 102.917 113.208 100.542 104.5 98.9584 95 98.9584 86.2917 98.9584 77.5834 100.542 68.875 102.917 57.7917 106.083 46.7084 111.625 38 117.958 34.0417 121.125 31.6667 125.875 31.6667 130.625L31.6667 162.292 158.333 162.292Z" fill="#2D3E50" transform="matrix(-1.00526 0 0 1 589 1266)"/></g></g></g><g clip-path="url(#clip4)"><g clip-path="url(#clip5)"><g clip-path="url(#clip6)"><path d="M127.333 59.6875C127.333 77.2686 113.081 91.5209 95.5001 91.5209 77.919 91.5209 63.6667 77.2686 63.6667 59.6875 63.6667 42.1065 77.919 27.8542 95.5001 27.8542 113.081 27.8542 127.333 42.1065 127.333 59.6875Z" fill="#2D3E50" transform="matrix(-1 0 0 1 758 1266)"/><path d="M60.8813 162.35 47.75 132.705 47.75 112.61C47.75 110.223 49.1427 107.835 51.1323 106.642 52.3261 106.045 52.724 104.652 52.1271 103.657 51.7292 102.862 50.9334 102.265 49.9386 102.464L27.2573 102.464C26.0636 102.464 24.8698 103.259 24.8698 104.652 24.8698 105.647 25.2677 106.443 26.0636 106.841 28.2521 108.034 29.4459 110.422 29.4459 112.809L29.4459 132.904 16.5136 162.35C14.9219 165.732 16.5136 169.911 20.0948 171.303 20.8906 171.701 21.8854 171.9 22.8802 171.9L54.7136 171.9C58.4938 171.9 61.4782 168.916 61.4782 165.136 61.4782 164.141 61.2792 163.146 60.8813 162.35L60.8813 162.35ZM34.2209 117.187 34.2209 112.61C34.2209 110.621 33.8229 108.631 32.6292 106.841L44.7657 106.841C43.7709 108.631 43.174 110.621 43.174 112.61L43.174 117.187 34.2209 117.187Z" fill="#2D3E50" transform="matrix(-1 0 0 1 758 1266)"/><path d="M44.3677 75.0073C44.3677 76.8753 42.8534 78.3896 40.9854 78.3896 39.1175 78.3896 37.6031 76.8753 37.6031 75.0073 37.6031 73.1394 39.1175 71.625 40.9854 71.625 42.8534 71.625 44.3677 73.1394 44.3677 75.0073Z" fill="#2D3E50" transform="matrix(-1 0 0 1 758 1266)"/><path d="M50.1375 85.3532C50.1375 87.2212 48.6232 88.7355 46.7552 88.7355 44.8872 88.7355 43.3729 87.2212 43.3729 85.3532 43.3729 83.4852 44.8872 81.9709 46.7552 81.9709 48.6232 81.9709 50.1375 83.4852 50.1375 85.3532Z" fill="#2D3E50" transform="matrix(-1 0 0 1 758 1266)"/><path d="M37.6031 82.9657C37.6031 84.8337 36.0888 86.348 34.2209 86.348 32.3529 86.348 30.8386 84.8337 30.8386 82.9657 30.8386 81.0977 32.3529 79.5834 34.2209 79.5834 36.0888 79.5834 37.6031 81.0977 37.6031 82.9657Z" fill="#2D3E50" transform="matrix(-1 0 0 1 758 1266)"/><path d="M40.9854 95.5001C40.9854 98.0273 38.9367 100.076 36.4094 100.076 33.8821 100.076 31.8334 98.0273 31.8334 95.5001 31.8334 92.9728 33.8821 90.924 36.4094 90.924 38.9367 90.924 40.9854 92.9728 40.9854 95.5001Z" fill="#2D3E50" transform="matrix(-1 0 0 1 758 1266)"/><path d="M85.5521 145.041 71.2271 129.92 79.1855 119.972 79.1855 119.773 67.049 120.967 67.4469 104.055C62.6719 105.647 57.8969 107.438 53.3209 109.626 52.525 110.422 51.9282 111.616 51.7292 112.809L51.7292 131.909 64.4625 160.758C64.8605 161.554 65.0594 162.35 65.2584 163.146L85.5521 163.146 85.5521 145.041Z" fill="#2D3E50" transform="matrix(-1 0 0 1 758 1266)"/><path d="M89.5313 143.25 89.5313 163.146 101.469 163.146 101.469 143.25 115.794 101.867C109.029 100.275 102.265 99.4792 95.5001 99.4792 88.7355 99.4792 81.9709 100.275 75.4053 101.867L89.5313 143.25Z" fill="#2D3E50" transform="matrix(-1 0 0 1 758 1266)"/><path d="M152.8 118.579C144.046 111.815 134.098 107.04 123.553 104.055L123.951 120.967 111.815 119.773 111.815 119.972 119.773 129.92 105.448 145.041 105.448 163.146 159.167 163.146 159.167 131.313C158.968 126.339 156.779 121.564 152.8 118.579Z" fill="#2D3E50" transform="matrix(-1 0 0 1 758 1266)"/></g></g></g><g clip-path="url(#clip7)"><g clip-path="url(#clip8)"><g clip-path="url(#clip9)"><path d="M139.333 65.3125C139.333 84.5504 123.738 100.146 104.5 100.146 85.2621 100.146 69.6667 84.5504 69.6667 65.3125 69.6667 46.0746 85.2621 30.4792 104.5 30.4792 123.738 30.4792 139.333 46.0746 139.333 65.3125Z" fill="#2D3E50" transform="matrix(-1 0 0 1 670 1300)"/><path d="M174.167 178.521 174.167 143.688C174.167 138.462 171.554 133.238 167.2 129.754 157.621 121.917 145.429 116.692 133.238 113.208 124.529 110.596 114.95 108.854 104.5 108.854 94.9208 108.854 85.3417 110.596 75.7625 113.208 63.5708 116.692 51.3792 122.787 41.8 129.754 37.4458 133.238 34.8333 138.462 34.8333 143.688L34.8333 178.521 174.167 178.521Z" fill="#2D3E50" transform="matrix(-1 0 0 1 670 1300)"/></g></g></g><path d="M3646.5 1388C3646.5 1278.37 3735.15 1189.5 3844.5 1189.5 3953.85 1189.5 4042.5 1278.37 4042.5 1388 4042.5 1497.63 3953.85 1586.5 3844.5 1586.5 3735.15 1586.5 3646.5 1497.63 3646.5 1388Z" stroke="#148E7A" stroke-width="4.58333" stroke-miterlimit="8" fill="#1FC2A7" fill-rule="evenodd"/><g clip-path="url(#clip10)"><g clip-path="url(#clip11)"><g clip-path="url(#clip12)"><path d="M126.667 59.375C126.667 76.8641 112.489 91.0417 95 91.0417 77.511 91.0417 63.3334 76.8641 63.3334 59.375 63.3334 41.886 77.511 27.7083 95 27.7083 112.489 27.7083 126.667 41.886 126.667 59.375Z" fill="#2D3E50" transform="matrix(-1 0 0 1 3863 1266)"/><path d="M158.333 162.292 158.333 130.625C158.333 125.875 155.958 121.125 152 117.958 143.292 110.833 132.208 106.083 121.125 102.917 113.208 100.542 104.5 98.9584 95 98.9584 86.2917 98.9584 77.5834 100.542 68.875 102.917 57.7917 106.083 46.7084 111.625 38 117.958 34.0417 121.125 31.6667 125.875 31.6667 130.625L31.6667 162.292 158.333 162.292Z" fill="#2D3E50" transform="matrix(-1 0 0 1 3863 1266)"/></g></g></g><g clip-path="url(#clip13)"><g clip-path="url(#clip14)"><g clip-path="url(#clip15)"><path d="M139.333 65.3125C139.333 84.5504 123.738 100.146 104.5 100.146 85.2621 100.146 69.6667 84.5504 69.6667 65.3125 69.6667 46.0746 85.2621 30.4792 104.5 30.4792 123.738 30.4792 139.333 46.0746 139.333 65.3125Z" fill="#2D3E50" transform="matrix(-1 0 0 1 3945 1300)"/><path d="M174.167 178.521 174.167 143.688C174.167 138.462 171.554 133.238 167.2 129.754 157.621 121.917 145.429 116.692 133.238 113.208 124.529 110.596 114.95 108.854 104.5 108.854 94.9208 108.854 85.3417 110.596 75.7625 113.208 63.5708 116.692 51.3792 122.787 41.8 129.754 37.4458 133.238 34.8333 138.462 34.8333 143.688L34.8333 178.521 174.167 178.521Z" fill="#2D3E50" transform="matrix(-1 0 0 1 3945 1300)"/></g></g></g><path d="M3998.65 1383.2C3990.61 1376.56 3980.37 1372.14 3970.13 1369.19 3962.82 1366.97 3954.77 1365.5 3946 1365.5 3937.96 1365.5 3929.91 1366.97 3921.87 1369.19 3911.63 1372.14 3901.39 1377.3 3893.35 1383.2 3889.69 1386.15 3887.5 1390.58 3887.5 1395L3887.5 1424.5 4004.5 1424.5 4004.5 1395C4004.5 1390.58 4002.31 1386.15 3998.65 1383.2Z" stroke="#1E2B38" stroke-width="4.58333" stroke-miterlimit="8" fill="#2D3E50" fill-rule="evenodd"/><path d="M3918.12 1304.38C3919.21 1304.38 3920.12 1304.02 3920.66 1303.29L3920.66 1303.29C3927.37 1296.76 3936.43 1292.76 3946.39 1292.76 3966.33 1292.76 3982.63 1309.11 3982.63 1329.08L3982.63 1337.43 3961.8 1344.33C3960.89 1343.97 3959.98 1343.61 3959.08 1343.61 3956 1343.61 3953.64 1345.97 3953.64 1349.05 3953.64 1352.14 3956 1354.5 3959.08 1354.5 3961.25 1354.5 3963.25 1353.23 3964.15 1351.23L3992.96 1341.61C3994.41 1341.06 3995.5 1339.79 3995.5 1338.16L3995.5 1321.82C3995.5 1319.82 3993.87 1318.18 3991.88 1318.18L3988.61 1318.18C3983.72 1299.48 3966.69 1285.5 3946.39 1285.5 3934.61 1285.5 3923.92 1290.22 3915.95 1297.85 3915.04 1298.57 3914.5 1299.48 3914.5 1300.75 3914.5 1302.75 3916.13 1304.38 3918.12 1304.38Z" stroke="#1E2B38" stroke-width="4.58333" stroke-miterlimit="8" fill="#2D3E50" fill-rule="evenodd"/><path d="M3975.32 1332.58C3975.5 1331.49 3975.5 1330.59 3975.5 1329.5 3975.5 1313.55 3962.23 1300.5 3946 1300.5 3929.77 1300.5 3916.5 1313.55 3916.5 1329.5 3916.5 1345.45 3929.77 1358.5 3946 1358.5 3946.55 1358.5 3947.29 1358.5 3947.84 1358.32L3947.84 1349.44 3947.84 1349.44C3947.84 1347.81 3948.21 1346.18 3948.95 1344.54 3950.24 1342.01 3952.45 1340.01 3955.4 1339.11L3975.32 1332.58Z" stroke="#1E2B38" stroke-width="4.58333" stroke-miterlimit="8" fill="#2D3E50" fill-rule="evenodd"/><text font-family="Arial,Arial_MSFontService,sans-serif" font-weight="400" font-size="92" transform="matrix(1 0 0 1 3461.26 1733)">metadata <tspan font-size="92" x="0" y="110">specialists</tspan></text><path d="M0 202 2715 0 2715 202Z" stroke="#0684A2" stroke-width="4.58333" stroke-miterlimit="8" fill="#0BB5DD" fill-rule="evenodd" transform="matrix(-1 0 0 1 3564.5 1295.5)"/><path d="M0 203 2715 0 2715 203Z" stroke="#148E7A" stroke-width="4.58333" stroke-miterlimit="8" fill="#1FC2A7" fill-rule="evenodd" transform="matrix(1 0 0 -1 849.5 1445.5)"/><text fill="#2D3E50" font-family="Arial,Arial_MSFontService,sans-serif" font-weight="400" font-size="128" transform="matrix(1 0 0 1 2267.34 831)">ontology</text><path d="M1599 1000C1599 975.423 1602.32 955.499 1606.42 955.499L2503.08 955.499C2507.18 955.499 2510.5 935.575 2510.5 910.998 2510.5 935.575 2513.82 955.499 2517.92 955.499L3414.58 955.499C3418.68 955.499 3422 975.423 3422 1000" stroke="#2D3E50" stroke-width="10.3125" stroke-miterlimit="8" fill="none" fill-rule="evenodd"/><text fill="#2D3E50" font-family="Arial,Arial_MSFontService,sans-serif" font-weight="400" font-size="110" transform="matrix(1 0 0 1 978.751 1139)">values<tspan font-size="110" x="628.964" y="0">attributes</tspan><tspan font-size="110" x="1370.34" y="0">classes</tspan><tspan font-size="110" x="2033.84" y="0">relations</tspan></text><path d="M2124 1099 2312.57 1099" stroke="#2D3E50" stroke-width="10.3125" stroke-linecap="round" stroke-miterlimit="8" fill="none" fill-rule="evenodd"/><path d="M2776 1099 2964.57 1099" stroke="#2D3E50" stroke-width="10.3125" stroke-linecap="round" stroke-miterlimit="8" fill="none" fill-rule="evenodd"/><path d="M1345 1099 1533.57 1099" stroke="#2D3E50" stroke-width="10.3125" stroke-linecap="round" stroke-miterlimit="8" fill="none" fill-rule="evenodd"/><text font-family="Arial,Arial_MSFontService,sans-serif" font-weight="400" font-size="83" transform="matrix(1 0 0 1 2021.32 1639)">knowledge</text></g></svg>