<svg width="2733" height="2468" xmlns="http://www.w3.org/2000/svg" xmlns:xlink="http://www.w3.org/1999/xlink" xml:space="preserve" overflow="hidden"><defs><clipPath id="clip0"><rect x="855" y="4" width="2733" height="2468"/></clipPath></defs><g clip-path="url(#clip0)" transform="translate(-855 -4)"><path d="M2327.45 1371.64C2328.09 1350.96 2331.51 1345.22 2330.29 1327.68 2325.86 1308.97 2314.88 1275.03 2302.81 1255.64 2299.93 1242.61 2307.09 1190.93 2296.79 1134.32 2310.32 1117.58 2320.8 1084.42 2323.54 1067.87 2328.13 1050.23 2388.87 1012.81 2404.2 987.658 2429.74 978.701 2455.73 969.236 2502.62 943.855 2533.31 941.704 2573.07 935.669 2585.46 935.093 2600.7 934.151 2630.37 946.284 2672.7 943.331 2686.74 952.622 2715.9 970.627 2723.52 969.333 2738.19 980.728 2757.16 1000.42 2767.09 1014.72 2784.41 1051.56 2797.89 1071.59 2806.34 1086.47 2814.65 1117.69 2816.01 1166.69 2812.95 1182.49 2814.97 1205.88 2797.74 1259.45 2802.74 1271.95 2797.4 1292.32 2796.04 1317.26 2787.73 1330.54 2783.09 1346.62 2761.57 1359.43 2751.71 1382.81 2740.41 1393.69 2724.39 1412.28 2707.64 1434.29 2698.61 1442.27 2690.05 1449.97 2674.56 1465.33 2666.59 1471.73 2636.26 1481.48 2617.51 1483.07 2584.6 1474.89 2575.36 1481.06 2542.99 1476.18 2519.85 1466.11 2499.28 1472.21 2473.45 1460.98 2460.76 1452.81 2435.18 1443.88 2423.13 1443.37 2399.09 1451.2 2393.89 1455.61 2372.51 1462.83 2353.58 1477.61 2347.94 1483.4 2331.12 1488.89 2299.55 1526.98 2263.47 1540.93 2237.44 1576.62 2198.68 1623.75 2149.99 1642.09 2143.03 1659.34 2128.74 1665.73 2109.09 1683.39 2087.29 1705.64 2187.94 1694.64 2284.86 1696.34 2339.62 1721.65 2346.43 1720.56 2366.44 1714.6 2370.24 1712.65 2376.18 1703.16 2387.91 1686.37 2398.19 1680.24 2405.27 1670.33 2412.26 1652.23 2424.82 1639.9 2433.61 1632.57 2451.78 1625.92 2468.39 1608.24 2481.17 1603.1 2494.28 1598.48 2503.17 1591.41 2516.53 1591.52 2538.88 1582.93 2549.76 1581.88 2554.94 1585.14 2581.12 1585.1 2599.23 1592.38 2624.2 1594.97 2644.79 1593.76 2654.71 1590.74 2690.9 1599.81 2700.99 1604.48 2736.06 1613.22 2758.26 1624.26 2763.35 1620.65 2782.66 1631.9 2788.2 1632.84 2794.89 1642.47 2806.74 1647.3 2813.46 1655.23 2821.47 1659.13 2825 1663.88 2837.7 1667.6 2849.93 1682.62 2864.52 1690.99 2875.39 1694.41 2885.73 1705.34 2897.03 1713.46 2903.29 1716.28 2918.22 1732.63 2919.99 1738.18 2921.98 1747.28 2933.98 1762.52 2940.07 1771.09 2941.09 1775.7 2944.46 1786.14 2945.9 1798.1 2951.19 1809.66 2956.1 1835.28 2956.85 1847.13 2957.21 1869.76 2954.88 1885.1 2956.7 1893.88 2955.71 1900.39 2949.61 1925.25 2948.01 1931.45 2935.31 1946.85 2929.3 1956.87 2918.97 1980.78 2911.14 1993.63 2905.85 1994.52 2894.97 2008.74 2865.35 2022.18 2846.38 2036.33 2825.41 2042.39 2797.39 2045.39 2765.36 2054.42 2741.69 2064.68 2701.08 2064.34 2673.62 2071.9 2657.91 2071.82 2644.42 2070.62 2608.95 2064.93 2600.26 2058.43 2586.77 2051.31 2555.57 2042.68 2540.83 2036.32 2525.96 2023.73 2516.33 2021.88 2499.33 2011.44 2470.72 1999.7 2457.09 1992.76 2438.14 1988.16 2428.3 1982.33 2419.83 1965.25 2399.62 1949.63 2395.32 1934.53 2390.16 1924.37 2376.47 1907.65 2375.24 1887.57 2362.09 1863.54 2361.2 1856.78 2361.58 1854.1 2359.06 1836.5 2359.69 1831.61 2362.54 1826.78 2365.24 1805.67 2364.44 1798.48 2362.13 1796.37 2360.28 1788.73 2355.98 1783.83 2239.8 1751.85 2176.05 1743.36 2076.31 1754.3 2083.99 1765.38 2093.35 1789.07 2099.46 1796.28 2099.5 1794.35 2099.34 1789.79 2099.3 1786.6 2092.52 1769.93 2084.05 1761.06 2077.47 1752.54 2074.09 1735.01 2072.35 1724.41 2072.38 1709.9 2082.39 1704.02 2087.76 1698.53 2097.96 1694.05 2103.11 1688.15 2106.4 1685.48 2114.33 1679.17 2120.81 1675.46 2123.54 1670.24 2129.07 1665.23 2128.96 1663.06 2134.05 1655.59 2137.4 1649.58 2136.97 1646.96 2138.17 1642.07 2140.37 1635.92 2140.1 1626.11 2138.57 1617.07 2138.17 1613.32 2135.48 1608.69 2132.34 1602.62 2130.3 1601.58 2141.89 1590.14 2161.04 1585.45 2171.22 1574.7 2177 1564.16 2197 1542.85 2216.35 1526.94 2238.82 1504.93 2265.05 1487.48 2269.66 1482.06 2277.21 1477.04 2288.65 1459.89 2294.48 1453.62 2310.67 1438.86 2324.36 1419.93 2326.34 1409.18 2328.79 1397.18 2324.55 1381.19 2327.45 1371.64Z" fill="#FFFFFF" fill-rule="evenodd" fill-opacity="0.4"/><path d="M2327.45 1371.64C2330.4 1360.88 2331.79 1336.08 2330.29 1327.68 2323.15 1300.37 2303.88 1267.36 2302.81 1255.64 2301.47 1234.18 2305.84 1166.81 2296.79 1134.32 2305.69 1129.2 2311.64 1098.47 2323.54 1067.87 2324.8 1052.8 2371.21 1008.36 2404.2 987.658 2453.19 969.24 2480.44 956.914 2502.62 943.855 2513.58 945.646 2561.14 930.797 2585.46 935.093 2595.51 941.638 2636.83 940.487 2672.7 943.331 2688.45 948.67 2711.41 967.487 2723.52 969.333 2745.18 986.043 2746.55 999.62 2767.09 1014.72 2782.5 1051.13 2790.08 1068.66 2806.34 1086.47 2803.41 1099.46 2808.85 1163.93 2812.95 1182.49 2809.05 1194.97 2808.72 1242.96 2802.74 1271.95 2801.29 1279.96 2785.93 1320.48 2787.73 1330.54 2781.39 1337.66 2771.26 1358.16 2751.71 1382.81 2735.76 1407.56 2724.74 1407.37 2707.64 1434.29 2699.85 1438.58 2687.76 1454.09 2674.56 1465.33 2662.23 1474.48 2645.33 1472.21 2617.51 1483.07 2608.82 1476.7 2558.73 1479.19 2542.99 1476.18 2517.36 1467.87 2489.05 1465.83 2473.45 1460.98 2453.87 1455.27 2445.44 1449.7 2423.13 1443.37 2415.69 1447.91 2377.6 1457.98 2372.51 1462.83 2364.6 1470.47 2343.36 1482.54 2331.12 1488.89 2303.7 1501.62 2271.23 1533.42 2237.44 1576.62 2189.18 1616.15 2176.46 1617.54 2143.03 1659.34 2139.29 1667.2 2104.07 1687.45 2087.29 1705.64 2161.77 1728.38 2271.61 1722.84 2339.62 1721.65 2345.95 1718.14 2355.41 1716.58 2370.24 1712.65 2375.64 1705.8 2394.69 1688.01 2398.19 1680.24 2403.91 1668.56 2412.54 1653.97 2424.82 1639.9 2437.99 1632.13 2460.5 1619.72 2468.39 1608.24 2472.05 1604.54 2485.49 1599.02 2503.17 1591.41 2511.47 1591.75 2538.51 1582.69 2549.76 1581.88 2556.03 1579.9 2580.58 1591.52 2599.23 1592.38 2626.13 1593.17 2638.49 1588.63 2654.71 1590.74 2677.97 1598.44 2725.03 1603.49 2736.06 1613.22 2759.06 1620.81 2769.29 1628.23 2782.66 1631.9 2792.63 1637.03 2802.25 1643.33 2806.74 1647.3 2809.7 1648.15 2821.23 1660.03 2825 1663.88 2833.63 1666.23 2850.34 1679.35 2864.52 1690.99 2875.44 1700.59 2885.57 1704.5 2897.03 1713.46 2909.86 1723.18 2912.5 1727.13 2919.99 1738.18 2922.19 1743.32 2928.93 1755.45 2940.07 1771.09 2941.97 1778.27 2942.97 1788.74 2945.9 1798.1 2947.2 1806.46 2953.97 1829.88 2956.85 1847.13 2958.99 1867.34 2958.86 1886.83 2956.7 1893.88 2957.28 1904.43 2955.02 1913.45 2948.01 1931.45 2937.27 1946.63 2929.91 1957.47 2918.97 1980.78 2912.31 1986.31 2902.37 2001.67 2894.97 2008.74 2878.12 2023.4 2851.22 2025.15 2825.41 2042.39 2809.23 2046.31 2753.25 2063.73 2741.69 2064.68 2725.91 2071.03 2681.41 2069.32 2657.91 2071.82 2642.15 2063.81 2606.84 2063.81 2600.26 2058.43 2575.11 2054.48 2570.01 2042.45 2540.83 2036.32 2530.67 2034.62 2503.65 2014.34 2499.33 2011.44 2477.28 2001.27 2448.2 1992.22 2438.14 1988.16 2429.71 1977.99 2418.24 1967.09 2399.62 1949.63 2391.2 1935.86 2377.8 1916.95 2376.47 1907.65 2374.43 1898.09 2370.68 1880.79 2361.2 1856.78 2358.84 1853.98 2359.18 1840.55 2359.69 1831.61 2361.42 1820.19 2360.37 1813.21 2364.44 1798.48 2363.27 1794.06 2360.09 1790.9 2355.98 1783.83 2295.48 1792.99 2174.1 1786.44 2076.31 1754.3 2081.45 1760.25 2096.31 1785.86 2099.46 1796.28 2099.83 1793.22 2099.98 1788.54 2099.3 1786.6 2091.67 1777.92 2085.68 1759.84 2077.47 1752.54 2073.11 1738.09 2076.72 1715.5 2072.38 1709.9 2080.78 1704.5 2089.49 1699.71 2097.96 1694.05 2102.81 1687.11 2106.45 1686.66 2114.33 1679.17 2116.91 1675.43 2127.21 1666.48 2129.07 1665.23 2133.45 1658.63 2134.56 1655.86 2137.4 1649.58 2138.63 1645.82 2140.38 1638.91 2140.37 1635.92 2141.34 1632.87 2137.36 1619.25 2138.17 1613.32 2133.92 1608.1 2133.11 1604.62 2130.3 1601.58 2134.17 1594.96 2154.76 1588.66 2171.22 1574.7 2179.52 1560.73 2198.15 1544.69 2216.35 1526.94 2245.78 1508.79 2250.38 1502.87 2269.66 1482.06 2273.73 1474.21 2283.21 1461.89 2294.48 1453.62 2300.59 1440.06 2313.42 1431.76 2326.34 1409.18 2323.45 1401.78 2328.38 1381.04 2327.45 1371.64Z" stroke="#FFFFFF" stroke-width="1.14583" stroke-miterlimit="8" fill="none" fill-rule="evenodd"/><path d="M2005.63 1617.86 2005.63 1617.86C2003.91 1596 1988.89 1554.73 1990.6 1542.26 1984.87 1523.81 1986.56 1520.52 1985.22 1504.02 1987.66 1498.34 1988.93 1487.3 1989.05 1480.34 1990.41 1480.46 1993.35 1477.89 1997.14 1476.47 2006.74 1471.66 2022.51 1462.6 2027.9 1459.5 2033.68 1453.48 2039.17 1440.48 2043.01 1438.85 2047.34 1433.87 2046.91 1412.4 2050.18 1398.94 2049.72 1385.51 2049.75 1370.77 2049.59 1363.5 2050.93 1357.93 2047.61 1325.42 2051.87 1319.25 2051.52 1308.84 2045.94 1282.05 2040.13 1272.75 2038.51 1268.97 2035.8 1249.25 2030.49 1235.39 2024.42 1217.17 2020.9 1202.67 2018.36 1197.86 2017.29 1194.74 2015.03 1184.76 2012.83 1182.77 2009.57 1178.54 2008.33 1176.79 2005.94 1170.85 2003.17 1164.33 2004.16 1166.95 2002.75 1163.94 2002.68 1163.31 2001.75 1162.05 2001.28 1160.02 2001.27 1158.73 1999.7 1154.43 1997.31 1150.39 1996.15 1147.67 1992.75 1143.75 1990.52 1140 1989.59 1137.8 1986.26 1133.72 1985.1 1131.99 1983.51 1130.48 1981.36 1126.62 1980.12 1126.12 1978.91 1125.5 1976.29 1122.24 1973.61 1120.34 1971.99 1117.95 1970.38 1115.08 1969.57 1114.73 1967.31 1112.32 1964.61 1109.09 1963.65 1108.6 1961.38 1106.85 1960.34 1106.06 1959.1 1104.86L1959.1 1104.86C1957.07 1102.52 1956.19 1102.22 1954.81 1100.19 1953.5 1099.82 1949.98 1094.34 1947.86 1092.28 1946.12 1091.01 1945.01 1091.36 1943.41 1090.07 1942.07 1088.66 1938.88 1086.84 1936.64 1085.24 1936.09 1083.91 1933.03 1082.4 1930.47 1080.05 1926.07 1078.37 1924.24 1075.9 1922.16 1075.31 1920.55 1073.85 1918.24 1072.33 1916.68 1071.32 1915.42 1070.9 1913.32 1069.06 1912.82 1068.77 1911.2 1066.98 1908.48 1064.64 1905.71 1063.34 1905.18 1062.71 1902.18 1060.69 1901.17 1059.6L1901.17 1059.6C1900.51 1058.38 1895.39 1056.11 1894.74 1055.36 1894.42 1054.93 1892.67 1053.89 1891.23 1053.41 1889.37 1052.63 1886.91 1051.06 1885.84 1050.96 1884.31 1050.89 1881.38 1049.27 1877.63 1047.75 1875.04 1046.89 1874.16 1045.59 1871.3 1045.05 1870.35 1045.5 1866.58 1044.57 1863.18 1043.37 1860.98 1042.14 1859.7 1041.65 1858.13 1041.52 1854.84 1040.43 1853.79 1039.99 1850.86 1038.56 1846.72 1038.15 1843.47 1035.37 1841.11 1035.44 1837.07 1034.11 1833.54 1034.14 1832.39 1034.12 1828.53 1031.49 1825.22 1031.57 1823.83 1030.31 1822.47 1029.82 1820.6 1029.85 1817.94 1029.74 1814.85 1029.31 1811.62 1029.95 1810.5 1029.26 1806.15 1028.2 1804.51 1028.51 1800.5 1027.08 1794.73 1026.52 1796.08 1025.32 1794.01 1026.86 1791.9 1026.38 1789.9 1025.58 1787.77 1025.69 1785.9 1025.5 1782.56 1025.1 1779.15 1025.9 1776.96 1026.45 1773.04 1026.47 1768.64 1025.6 1764.78 1026.47 1760.42 1027.11 1757.63 1027.19 1756.98 1026.98 1752.26 1027.32 1751.48 1027.56 1749.99 1027.55 1746.9 1027.97 1745.33 1027.93 1742.94 1028.82 1739.98 1028.88 1738.93 1029.24 1735.76 1029.63 1729.52 1028.73 1728.43 1028.94 1727.67 1028.98 1722.38 1029.16 1721.34 1029.06 1720.25 1028.32 1715.88 1027.86 1715.1 1027.89 1708.43 1028.62 1710.86 1027.27 1708.36 1028.6 1707.01 1028.51 1706.23 1029.01 1705.28 1028.79 1700.57 1030.56 1696.65 1031.05 1695.31 1032.16 1692.04 1032.4 1690.87 1034.11 1687.12 1034.51 1682.65 1037.48 1681.77 1038.55 1676.98 1040.36 1676.8 1040.61 1675.73 1041.45 1674.94 1042.33 1673.19 1043.71 1671.24 1046.11 1668.82 1048.25 1666.11 1050.09 1663.78 1051.32 1663.2 1052.29 1661.41 1055.38 1657.01 1058.54 1655.97 1060.44 1655 1062.35 1651.95 1067.78 1649.78 1070.37 1646.42 1072.71 1641.78 1075.53 1640.93 1077.07 1639.06 1079.1 1636.24 1081.58 1632.77 1084.97 1631.47 1086.97 1630.69 1088.11 1629.12 1091.05 1628.58 1094.79 1626.85 1097.19 1626.95 1101.05 1624.84 1104.9 1621.25 1115.72 1619.29 1127.73 1617.6 1129.65 1617.35 1135.5 1615.58 1137.82 1617.64 1143.43 1616.78 1151.23 1617.31 1161.47 1616.37 1167.29 1618.27 1175.61 1616.9 1185.56 1622.39 1201.18 1620.93 1219.37 1626.92 1229.07 1630.27 1240.73 1631.21 1247.86 1630.87 1253.82 1632.77 1262.78 1638.08 1273.56 1637.86 1287.95 1642.69 1295.24 1641.72 1311.37 1646.4 1327.54 1653.57 1340.92 1654.14 1346.23 1656.37 1359.95 1656.75 1365.46 1661.51 1376.2 1662.18 1379.65 1667.35 1386.24 1669.74 1392.79 1673.88 1399.93 1678.62 1405.64 1695.2 1418.15 1702.68 1422.26 1710.22 1427.5 1719.32 1440.54 1722.76 1443.27 1729.16 1445.99 1735.02 1454.99 1744.37 1464.18 1752.82 1474.4 1765.69 1484.36 1770.78 1487.89 1778.17 1493.58 1783.79 1494.77 1786.55 1498.67 1791.88 1502.63 1794.48 1503.79 1800.33 1507.4 1805.6 1510.04 1812.66 1511.69 1820.27 1515.77 1830.92 1514.49 1837.29 1514.95 1842.13 1515.08 1850.67 1514.11 1856.52 1513.73 1861.68 1511.74 1867.83 1511.09 1865.36 1510.95 1869.02 1510.69 1874.73 1509.79 1881.41 1510.78 1884.98 1509.42 1890.33 1508.88 1893.86 1510.58 1898.9 1510.13 1905.99 1508.81 1911.4 1509.97 1913.68 1509.55 1918.84 1511.43 1924.13 1513.05 1925.4 1514.7 1930.71 1519.8 1934.31 1526.38 1936.14 1529.18 1937.13 1531.06 1938.21 1533.65 1939.24 1534.54 1941.36 1542.04 1947.81 1548.92 1947.69 1551.93 1950.08 1560.14 1949.11 1555.7 1953.04 1563.95 1954.03 1566.86 1953.59 1571.17 1955.22 1574.61 1956.06 1576.72 1957.15 1579.84 1957.81 1581.86 1958.15 1582.49 1957.95 1583.39 1958.25 1583.99 1958.77 1585.08 1959.47 1586.17 1960.31 1587.57 1960.72 1591.68 1961.15 1597.02 1962.59 1599.77 1964.94 1606.6 1963.73 1604.47 1965.53 1607.62 1966.96 1610.66 1966.88 1612.28 1967.62 1616.75 1968.45 1619.18 1969.5 1621.11 1969.52 1622.8 1970.16 1625.77 1970.43 1627.31 1971.43 1628.86 1972.2 1630.91 1972.75 1632.88 1973.34 1634.91 1973.57 1635.91 1973.52 1637.99 1973.52 1637.99 1974.21 1639.06 1975.49 1644.79 1976.21 1646.77 1976.69 1647.63 1978.25 1650.55 1978.71 1652.48 1979.28 1654.86 1979.16 1657.12 1979.33 1657.69 1981.43 1664.26 1980.12 1661.8 1982.27 1665.53 1982.27 1666.42 1982.25 1667.1 1982.11 1668.01 1982.01 1670.17 1982.63 1673.25 1983.17 1675.35 1985.25 1674.68 1986.28 1674.09 1988.53 1672.25 1990.62 1670.81 1993.29 1668.89 1995.25 1665.99 1996.35 1664.12 1997.41 1661.61 1997.71 1660.6 1997.78 1659.64 1998.47 1658.2 1998.97 1655.89 1999.7 1653.1 2000.9 1650.45 2002.52 1648.28 2004.85 1637.93 2004.11 1629.38 2005.63 1617.86Z" fill="#FFFFFF" fill-rule="evenodd" fill-opacity="0.4"/><path d="M2005.63 1617.86 2005.63 1617.86C1996.92 1601 1998.46 1561.81 1990.6 1542.26 1986.1 1528.09 1986.81 1514.47 1985.22 1504.02 1985.68 1501.19 1987.36 1484.1 1989.05 1480.34 1992.26 1479.09 1996.52 1477.27 1997.14 1476.47 2004.53 1470.93 2013.98 1466.3 2027.9 1459.5 2032.84 1454.56 2039.54 1443.89 2043.01 1438.85 2045.71 1421.2 2051.97 1406.35 2050.18 1398.94 2047.61 1390.26 2051.31 1380.72 2049.59 1363.5 2049.78 1356.82 2052.38 1324.32 2051.87 1319.25 2046.58 1305.44 2042.03 1289.88 2040.13 1272.75 2036.96 1268.19 2037.32 1249.53 2030.49 1235.39 2025.7 1227.4 2022 1202.23 2018.36 1197.86 2017.38 1193.11 2013.44 1187.81 2012.83 1182.77 2012.38 1180.32 2008.85 1174.04 2005.94 1170.85 2002.94 1163.93 2004.12 1166.91 2002.75 1163.94 2002.42 1162.05 2001.88 1160.99 2001.28 1160.02 1999.79 1158.61 1998.46 1151.06 1997.31 1150.39 1995.25 1145.67 1994.4 1144.11 1990.52 1140 1988.35 1135.86 1986.87 1133.21 1985.1 1131.99 1983.53 1131.2 1982.13 1128 1980.12 1126.12 1978.69 1125.4 1974.55 1121.02 1973.61 1120.34 1971.76 1117.61 1971.17 1116.38 1969.57 1114.73 1967.61 1112.69 1966.44 1110.57 1963.65 1108.6 1962.2 1107.03 1960.83 1106.06 1959.1 1104.86L1959.1 1104.86C1956.87 1102.73 1956.16 1100.89 1954.81 1100.19 1952.86 1098.41 1951.18 1094.73 1947.86 1092.28 1946.27 1091.87 1944.12 1090.13 1943.41 1090.07 1940.84 1089.14 1938.42 1086.96 1936.64 1085.24 1935.66 1083.85 1932.51 1082.59 1930.47 1080.05 1927.29 1077.36 1924.94 1077.22 1922.16 1075.31 1919.52 1073.63 1917.11 1072.14 1916.68 1071.32 1916.08 1070.78 1914.36 1070.01 1912.82 1068.77 1911.64 1067.05 1909.09 1065.77 1905.71 1063.34 1904.94 1063.06 1901.86 1060.39 1901.17 1059.6L1901.17 1059.6C1899.85 1059.3 1896.78 1057.3 1894.74 1055.36 1893.79 1054.42 1892.39 1054.33 1891.23 1053.41 1889.57 1052.55 1888.04 1051.47 1885.84 1050.96 1884.56 1049.69 1878.96 1048.31 1877.63 1047.75 1874.45 1046.89 1872.56 1046.22 1871.3 1045.05 1870.11 1045.04 1865.97 1043.23 1863.18 1043.37 1861.49 1042.39 1860.21 1042.5 1858.13 1041.52 1857.27 1040.5 1854.44 1039.91 1850.86 1038.56 1848.57 1036.95 1843.61 1035.81 1841.11 1035.44 1837.22 1035.15 1835.81 1034.82 1832.39 1034.12 1830.43 1032.4 1825.32 1031.74 1823.83 1030.31 1822.51 1030.2 1819.87 1029.44 1817.94 1029.74 1816.47 1030.03 1811.86 1029.14 1810.5 1029.26 1808.04 1029.59 1802.03 1027.17 1800.5 1027.08 1794.15 1026.65 1796.35 1025.92 1794.01 1026.86 1792.76 1026.87 1790.83 1025.77 1787.77 1025.69 1783.63 1026.45 1782.08 1026.33 1779.15 1025.9 1777.95 1025.8 1771.1 1025.31 1768.64 1025.6 1764.22 1025.87 1762.52 1026.42 1757.63 1027.19 1755.2 1027.56 1752.84 1027.99 1751.48 1027.56 1749.82 1027.71 1748.33 1028.15 1745.33 1027.93 1742.44 1028.86 1740.7 1028.97 1738.93 1029.24 1734.92 1029.88 1732.86 1029.96 1728.43 1028.94 1726.33 1029.01 1723.98 1028.78 1721.34 1029.06 1720.39 1028.57 1717.97 1028.78 1715.1 1027.89 1708.77 1028.34 1710.93 1026.89 1708.36 1028.6 1707.43 1028.58 1706.29 1028.62 1705.28 1028.79 1701.2 1029.66 1698.43 1031.69 1695.31 1032.16 1692.8 1032.15 1689.96 1033.87 1687.12 1034.51 1683.3 1036.52 1679.02 1040.14 1676.98 1040.36 1676.08 1041.21 1675.82 1041.4 1674.94 1042.33 1673.01 1044.35 1669.92 1046.86 1668.82 1048.25 1666.92 1050.22 1664.57 1051.03 1663.2 1052.29 1662 1053.19 1656.67 1058.78 1655.97 1060.44 1654.12 1065 1651.04 1068.55 1649.78 1070.37 1647.07 1072.76 1644.22 1073.5 1640.93 1077.07 1638.06 1078.45 1634.21 1083.95 1632.77 1084.97 1630.6 1087.45 1629.76 1090.51 1629.12 1091.05 1627.35 1095.53 1627.13 1096.87 1626.95 1101.05 1625.83 1113.96 1621.7 1124.4 1619.29 1127.73 1618.9 1129.47 1617.51 1134.74 1615.58 1137.82 1617.32 1148.16 1618.37 1158.94 1617.31 1161.47 1616.5 1165.23 1616.25 1173.56 1616.9 1185.56 1618.23 1207.05 1621.25 1212.83 1626.92 1229.07 1628.36 1239.05 1629.08 1247.18 1630.87 1253.82 1635.26 1265.41 1632.74 1271.58 1637.86 1287.95 1640.98 1297.43 1644.19 1313.5 1646.4 1327.54 1649.02 1341.2 1656.28 1354.19 1656.37 1359.95 1660.64 1369.02 1661.89 1375.29 1662.18 1379.65 1668.3 1387.91 1667.77 1390.02 1673.88 1399.93 1680.03 1400.7 1687.11 1412.63 1702.68 1422.26 1705.5 1425.57 1715.67 1432.31 1722.76 1443.27 1727.28 1446.28 1736.59 1458.35 1744.37 1464.18 1753.31 1472.26 1769.6 1483.54 1770.78 1487.89 1773.87 1491.8 1781.98 1494.67 1786.55 1498.67 1790.73 1502.17 1794.96 1505.34 1800.33 1507.4 1809.31 1512.05 1814.97 1515.26 1820.27 1515.77 1824.36 1516.18 1835.77 1515.17 1842.13 1515.08 1846.38 1512.7 1855.94 1513.5 1861.68 1511.74 1868.01 1510.73 1865.49 1510.89 1869.02 1510.69 1874.6 1510.45 1880.09 1508.58 1884.98 1509.42 1888.56 1509.19 1894.1 1510.77 1898.9 1510.13 1903.88 1509.55 1910.05 1509.84 1913.68 1509.55 1916.54 1510.37 1921.26 1513.65 1925.4 1514.7 1927.81 1517.96 1932.69 1523.06 1936.14 1529.18 1936.33 1530.01 1938.91 1533.59 1939.24 1534.54 1943.35 1539.36 1945.29 1547.79 1947.69 1551.93 1950.96 1560.59 1948.9 1556.43 1953.04 1563.95 1952.67 1566.03 1954.64 1572.31 1955.22 1574.61 1955.65 1576.91 1957.12 1579.19 1957.81 1581.86 1957.98 1582.6 1957.97 1583.26 1958.25 1583.99 1958.8 1585.3 1959.63 1586.24 1960.31 1587.57 1960.05 1589.55 1962.76 1596.4 1962.59 1599.77 1964.34 1606.52 1963.4 1604.04 1965.53 1607.62 1966.67 1611.55 1966.4 1612.68 1967.62 1616.75 1967.37 1617.77 1969.64 1621.69 1969.52 1622.8 1969.52 1624.53 1970.05 1625.98 1971.43 1628.86 1971.96 1630.51 1972.85 1633.06 1973.34 1634.91 1973.56 1635.91 1973.52 1637.99 1973.52 1637.99 1974.7 1641.1 1976.09 1645.34 1976.21 1646.77 1977.48 1648.41 1977.96 1651.47 1978.71 1652.48 1979.1 1654.46 1979.23 1655.36 1979.33 1657.69 1981.21 1664.1 1979.97 1661.98 1982.27 1665.53 1982.23 1665.99 1982.21 1667.57 1982.11 1668.01 1983.08 1670.84 1982.19 1673.18 1983.17 1675.35 1985.53 1674.17 1987.57 1672.57 1988.53 1672.25 1990.56 1670.85 1992.17 1667.94 1995.25 1665.99 1996.63 1663.78 1996.66 1663.14 1997.71 1660.6 1997.95 1659.7 1998.44 1656.49 1998.97 1655.89 1998.89 1654.59 2001.06 1650.44 2002.52 1648.28 2001.01 1644.35 2006.3 1624.38 2005.63 1617.86Z" stroke="#FFFFFF" stroke-width="1.14583" stroke-miterlimit="8" fill="none" fill-rule="evenodd"/><path d="M1677.33 1405.89C1678.32 1412.13 1691.58 1429.38 1692.94 1439.81 1695.14 1444.86 1697.56 1453.96 1701.48 1458.74 1706.45 1467.94 1708.38 1470.09 1714.97 1477.98 1720.06 1482.81 1727.48 1486.02 1728.51 1487.65 1730.06 1488.68 1732.42 1489.79 1733.65 1491.05 1734.61 1493.27 1747.55 1499.87 1748.22 1502.51 1753.31 1504.96 1753.19 1506.47 1758.49 1509.3 1759.3 1509.88 1763.73 1511.39 1765.52 1513.2 1768.42 1514.47 1770.37 1515.85 1773.82 1517.94 1775.6 1519.52 1777.07 1520.57 1778.96 1521.33 1783.45 1522.54 1784.08 1522.88 1787.52 1525.14 1804.31 1523.48 1810 1525.67 1825.96 1528.38 1829.73 1530.52 1833.76 1531.62 1835.71 1531.5 1837.25 1531.75 1844.4 1531.89 1849.73 1533.74 1855.35 1532.98 1858.48 1533.77 1861.18 1534.29 1862.73 1535.54 1868.44 1536.76 1872.21 1538.26 1877.76 1543.68 1878.89 1545.74 1883.46 1550.85 1884.36 1551.28 1886.33 1555.7 1887.15 1555.87 1891.11 1565.2 1897.43 1575.07 1899.89 1577.93 1900.61 1582.46 1907.66 1590.91 1910.91 1597.01 1914.41 1602.66 1918.97 1607.49 1921.49 1613.96 1925.85 1618.36 1928.57 1626.13 1932.69 1636.12 1935.15 1641.56 1937.55 1649.93 1939.16 1651.46 1939.14 1653.63 1946.39 1662.87 1948.11 1666.97 1948.83 1668.83 1953.56 1675.57 1955.09 1680.43 1958.33 1681.69 1967.98 1684.26 1969.54 1684.81 1973.62 1685.75 1977.09 1684.88 1979.8 1686.04 1982.21 1682.84 1982.92 1679.88 1983.95 1678.08 1984.37 1676.88 1984.92 1674.48 1985.21 1673.38 1983.18 1650.17 1959.24 1611.75 1954.71 1576.49 1948.12 1566.64 1946.29 1551.49 1943.14 1548.19 1943.11 1546.16 1942.07 1543.21 1941.49 1541.19 1940.13 1537.09 1932.01 1528.08 1931.16 1523.3 1926.51 1518.04 1921.95 1517.3 1915.9 1510.65 1907.78 1510.7 1896.68 1508.05 1894.11 1507.33 1877.93 1510.06 1853.43 1511.44 1848.28 1514.71 1844.77 1517.36 1828.84 1515.65 1820.27 1515.77 1809.52 1511.37 1797.52 1504.04 1790.06 1500.62 1779.35 1486.81 1763.13 1477.48 1745.41 1465.97 1730.22 1462.88 1683.16 1417.49 1677.33 1405.89Z" fill="#FFFFFF" fill-rule="evenodd" fill-opacity="0.4"/><path d="M1677.33 1405.89C1684.44 1422.1 1686.01 1428.47 1692.94 1439.81 1695.94 1445.76 1701.71 1456 1701.48 1458.74 1705.83 1467.25 1712.59 1474.41 1714.97 1477.98 1720.98 1480.52 1723.96 1484.14 1728.51 1487.65 1730.16 1489.37 1732.9 1490.3 1733.65 1491.05 1736.02 1494.85 1743.27 1498.04 1748.22 1502.51 1750.31 1503.88 1753.63 1506.4 1758.49 1509.3 1760.93 1511.34 1763.85 1511.69 1765.52 1513.2 1768.27 1515.15 1771.64 1516.39 1773.82 1517.94 1776.05 1519.08 1778.37 1520.36 1778.96 1521.33 1782.67 1522.66 1785.19 1524.51 1787.52 1525.14 1804.76 1528.94 1811.33 1525.2 1825.96 1528.38 1828.94 1529.03 1834.32 1531.23 1835.71 1531.5 1841.27 1532.32 1846.33 1532.24 1849.73 1533.74 1855.42 1534.18 1858.74 1534.24 1861.18 1534.29 1862.06 1535.69 1869.5 1536.9 1872.21 1538.26 1878.05 1543.93 1879.67 1545.07 1883.46 1550.85 1884.38 1551.97 1885.53 1554.5 1887.15 1555.87 1887.68 1560.44 1897.57 1572.27 1899.89 1577.93 1903.67 1585.19 1908.37 1592.23 1910.91 1597.01 1914.02 1599.82 1918.23 1609.44 1921.49 1613.96 1924.12 1616.47 1929.59 1630.95 1932.69 1636.12 1935.03 1640.32 1936.74 1647.52 1939.16 1651.46 1940.83 1653.52 1943.73 1660.38 1948.11 1666.97 1950.92 1673.09 1952.88 1678.76 1955.09 1680.43 1961.82 1683.87 1963.07 1682.01 1969.54 1684.81 1970.68 1685.5 1977.26 1685.64 1979.8 1686.04 1980.6 1683.47 1983.4 1679.73 1983.95 1678.08 1984.69 1676.04 1985.18 1675.08 1985.21 1673.38 1980.5 1643.32 1956.37 1595.86 1954.71 1576.49 1946.95 1563.58 1944.94 1551.15 1943.14 1548.19 1942.58 1546.48 1941.7 1542.22 1941.49 1541.19 1939.75 1535.07 1932.1 1526.1 1931.16 1523.3 1923.34 1518.62 1922.57 1516.86 1915.9 1510.65 1910.53 1509.12 1900.98 1508.1 1894.11 1507.33 1875.26 1511.92 1868.71 1512.79 1848.28 1514.71 1844.02 1514.18 1829.98 1514.39 1820.27 1515.77 1809.01 1509.07 1792.83 1502.95 1790.06 1500.62 1778.92 1487.59 1764.78 1479.26 1745.41 1465.97 1734.16 1455.11 1689.36 1408.02 1677.33 1405.89Z" stroke="#FFFFFF" stroke-width="1.14583" stroke-miterlimit="8" fill="none" fill-rule="evenodd"/><path d="M1929.84 1686.26C1918.56 1677.18 1890.49 1671.51 1856.35 1659.52 1825.21 1639.87 1803.4 1645.85 1777.39 1628.78 1761.55 1620.79 1724.86 1613.81 1714.94 1606 1690.61 1594.25 1681.56 1586.93 1661.28 1580.53 1653.92 1576.43 1650.19 1574.73 1642.1 1569.34 1634.17 1555.66 1631.15 1556.6 1624.47 1542.95 1621.86 1536.64 1612.3 1521.53 1611.89 1518.41 1606.87 1511.48 1604.04 1502.19 1600.94 1495.31 1597.08 1488.64 1593.4 1484.86 1590.52 1475.88 1586.5 1472.05 1581.28 1463.15 1579.85 1457.4 1579.77 1454.83 1570.96 1448.83 1567.83 1442.08 1565.69 1438.13 1559.76 1431.14 1555.55 1427.7 1551.9 1423.8 1539.5 1415.21 1538.57 1412.06 1529.15 1405.84 1524.96 1401.13 1516.54 1394.57 1509.12 1386.17 1493.46 1377.82 1480.75 1373.89 1466.21 1371.34 1444.57 1357.69 1440.44 1355.02 1432.66 1352.09 1413.01 1343.76 1408.37 1344.91 1404.48 1344.06 1401.03 1342.8 1395.71 1339.5 1387.49 1335.14 1383.67 1332.08 1374.14 1329.69 1363.17 1324.24 1339.49 1325.25 1333.88 1321.93 1321.16 1324.98 1298.67 1322.31 1288.87 1322.47 1274.44 1324.79 1261.56 1329.98 1245.45 1334.02 1218.07 1340.24 1214.28 1348.75 1187.47 1354.78 1184.72 1358.51 1175.62 1361.72 1166.78 1369.9 1161.31 1372.88 1140.38 1380.48 1136.78 1384.04 1123.21 1395.13 1112.18 1401.83 1109.82 1407.56 1105.33 1413.65 1103.12 1417.89 1094.77 1424.2 1093.26 1426.13 1080.62 1438.81 1080.42 1442.03 1077.28 1446.29 1065.21 1458.99 1058.56 1463.39 1050.8 1476.68 1050.29 1481.7 1045.11 1491.04 1037.32 1508.04 1032.32 1536.72 1029.6 1556.44 1030.03 1577.7 1031.31 1590.4 1025.83 1611.89 1028.7 1634.87 1026.11 1643.08 1035.74 1668.98 1036.01 1682.74 1049.68 1709.9 1059.31 1727.72 1062.47 1731.7 1069.7 1741.36 1073.84 1748.75 1097.14 1768.75 1124.65 1799.1 1145.78 1811.37 1167 1834.69 1202.24 1853.46 1234.25 1866.83 1262.27 1879.65 1270.1 1872.4 1301.03 1884.73 1315.56 1885.7 1345.54 1895.56 1354.73 1900.63 1365.68 1901.07 1398.29 1906.62 1412.56 1903.02 1421.47 1904.48 1445.12 1896 1462.66 1894.77 1471.24 1890.17 1520.11 1860.61 1528.09 1859.38 1540.12 1840.54 1569.79 1819.04 1580.06 1810.29 1588.44 1792.64 1598.82 1779.83 1602.53 1773.47 1611.95 1755.94 1615.05 1729.95 1620.31 1720.27 1630.18 1708.77 1634.08 1703.78 1641.7 1691.22 1656.9 1685.69 1660.21 1678.39 1671.86 1674.6 1690.12 1672.89 1700.01 1669.78 1713.24 1665.02 1722.46 1665.14 1750.42 1668.54 1761.62 1674.46 1785.03 1690.84 1861.46 1696.11 1905.33 1725.06 1909.09 1719.87 1911.22 1708.91 1915.39 1702.56 1920.27 1694.71 1927.92 1688.52 1929.84 1686.26Z" fill="#FFFFFF" fill-rule="evenodd" fill-opacity="0.4"/><path d="M1929.84 1686.26C1894.13 1678.47 1894.03 1666.31 1856.35 1659.52 1843.16 1657.21 1805.84 1645.94 1777.39 1628.78 1764.91 1626.21 1742.54 1610.73 1714.94 1606 1687.38 1596.79 1676.61 1584.57 1661.28 1580.53 1652.57 1574.2 1647.67 1573.5 1642.1 1569.34 1637.73 1563.87 1627.72 1551.28 1624.47 1542.95 1619.02 1532.65 1613.13 1525.34 1611.89 1518.41 1609.62 1509.82 1602.49 1497.76 1600.94 1495.31 1598.57 1489.46 1592.46 1478.04 1590.52 1475.88 1585.55 1469.78 1583.78 1466.11 1579.85 1457.4 1575.38 1450.74 1569.45 1444.46 1567.83 1442.08 1566.01 1438.44 1559.55 1430.58 1555.55 1427.7 1549.4 1424.57 1541.44 1414.94 1538.57 1412.06 1532.18 1407.41 1517.77 1398.56 1516.54 1394.57 1513.53 1388.94 1488.5 1376.37 1480.75 1373.89 1470.08 1364.84 1453.34 1362.11 1440.44 1355.02 1425.43 1349.61 1419.5 1348.42 1408.37 1344.91 1405.79 1344.71 1400.5 1340.9 1395.71 1339.5 1391.29 1339.4 1380.4 1334.55 1374.14 1329.69 1360.36 1324.01 1342.66 1320.69 1333.88 1321.93 1318.29 1322.14 1310.09 1323.07 1288.87 1322.47 1273.52 1329.04 1263.36 1326.22 1245.45 1334.02 1235.4 1340.88 1203.88 1346.33 1187.47 1354.78 1184.82 1356.92 1173.74 1365.9 1166.78 1369.9 1158.01 1376.93 1142.46 1383.26 1136.78 1384.04 1127.44 1388.62 1123.71 1397.04 1109.82 1407.56 1108.7 1411.19 1097.94 1418.61 1094.77 1424.2 1088.9 1432.63 1086.04 1437.29 1080.42 1442.03 1077.8 1448.05 1065.41 1457.3 1058.56 1463.39 1054.2 1474.99 1047.35 1481.49 1045.11 1491.04 1048.81 1501.51 1039.72 1533.64 1029.6 1556.44 1027.59 1564.64 1028.15 1599.74 1025.83 1611.89 1032.09 1622.33 1031.24 1661.12 1035.74 1668.98 1049.05 1697.55 1051.28 1710.97 1059.31 1727.72 1063.5 1730.43 1067.84 1743.34 1073.84 1748.75 1106.11 1781.78 1119.03 1780.03 1145.78 1811.37 1158.46 1824.46 1212.63 1848.13 1234.25 1866.83 1242.37 1873.48 1289.79 1876.42 1301.03 1884.73 1308.13 1885.37 1334.32 1890.03 1354.73 1900.63 1380.23 1900.28 1389.71 1906 1412.56 1903.02 1431.24 1902.72 1440.06 1898.02 1462.66 1894.77 1487.45 1875.05 1522.33 1866.81 1528.09 1859.38 1550.2 1845.97 1576.24 1818.83 1580.06 1810.29 1587.16 1805.72 1593.49 1787.64 1602.53 1773.47 1606.11 1748.45 1608.76 1740.99 1620.31 1720.27 1628.2 1712.74 1638.03 1699.74 1641.7 1691.22 1651.58 1689.03 1661.21 1681.1 1671.86 1674.6 1689.08 1673.29 1694.3 1668.58 1713.24 1665.02 1726.61 1663.44 1741.82 1673.72 1761.62 1674.46 1800.02 1694.71 1842.18 1712.93 1905.33 1725.06 1909.83 1714.22 1915.05 1707 1915.39 1702.56 1919.53 1699.44 1924.62 1693.38 1929.84 1686.26Z" stroke="#FFFFFF" stroke-width="1.14583" stroke-miterlimit="8" fill="none" fill-rule="evenodd"/><path d="M2082.16 1849.56C2107.1 1889.89 2097.2 1901.02 2119.49 1947.27 2127.19 1953.38 2143.53 1978.59 2153.13 1983.5 2160.56 1985.11 2166.61 1989.91 2174.35 1992.72 2183.1 2002 2195.16 2008.05 2205.12 2017.09 2208.4 2020.65 2217.88 2027.72 2219.69 2028.56 2225.25 2039.68 2231.68 2050.71 2235.6 2072.64 2238.55 2081.03 2241.82 2092.01 2242.52 2110.79 2241.13 2131.93 2238.4 2160.8 2235.52 2168.89 2222.8 2181.66 2213.52 2200.56 2212.11 2205.47 2199.38 2218.49 2169.84 2230.5 2163.74 2237.37 2156.33 2239.84 2154.05 2242.88 2147.55 2245.13 2139.94 2248.2 2130.75 2248.56 2121.1 2251.65 2118.65 2253.2 2102.54 2251.95 2099.58 2252.94 2097.29 2251.98 2084.75 2245.58 2081.28 2246.02 2077.39 2243.44 2064.84 2240.99 2062.28 2237.9 2053.84 2232.51 2051.16 2231.79 2043.44 2227.31 2040.95 2225.94 2037.13 2221.35 2031.7 2216.6 2024.31 2206.25 2018.4 2199.19 2015.63 2195.67 2012.9 2190.49 2009.66 2184.67 2008.65 2182.2 2007.19 2178.43 2006.69 2177.74 2004.52 2175.05 2001.91 2169.53 1999.87 2164.5 1999.93 2160.21 1997.74 2156.32 1997.32 2153.37 1996.65 2151.77 1996.67 2150.83 1996.31 2145.36 1995.84 2143.49 1996.05 2141.97 1994.59 2138.91 1994.19 2136.49 1993.35 2135.22 1991.84 2131.62 1991.69 2130.78 1992.28 2129.95 1992.71 2129.48 1993.13 2129.15 1992.92 2127.85 1992.28 2125.55 1991.48 2122.15 1991.34 2121.25 1991.02 2120.43 1991.04 2120.02 1990.65 2118.77 1989.78 2114.87 1989.04 2112.43 1989.09 2111.91 1988.93 2111.2 1988.61 2110.3 1988.75 2109.72 1989.01 2107.41 1988.92 2105.34 1989.11 2103.76 1988.98 2100.53 1988.56 2099.19 1988.22 2097.56 1989.11 2094.76 1989.38 2092.36 1990.05 2089.61 1990.37 2088.65 1992.08 2086.02 1993.24 2077.55 1994.43 2080.96 1992.47 2077.06 1992.58 2076.86 1992.78 2075.43 1992.98 2075.17 1993.77 2071.04 1993.75 2069.19 1993.71 2066.8 1993.57 2063.41 1993.02 2062.11 1993.15 2057.58 1994.12 2056.1 1994.54 2054.06 1995.86 2051.25 2000.82 2045.42 2002.02 2041.44 2009.36 2034.7 2014.59 2024.35 2025.63 2016.18 2029.84 2010.96 2035.68 2003.27 2045.44 1999.83 2048.65 1995.33 2052.72 1991.84 2055.01 1991.19 2059.54 1986.65 2061.31 1982.65 2062.85 1975.88 2065.11 1971.51 2065.49 1970.5 2064.87 1966.81 2065.34 1965.02 2062.32 1952.2 2061.62 1935.74 2063.05 1932.15 2062.51 1929.86 2059.73 1913.95 2060.23 1910.73 2057.29 1903.02 2058.56 1905.63 2057.29 1902.88 2054.16 1897.83 2053.67 1894.04 2051.75 1887.79 2062.89 1870.1 2075.84 1863.45 2082.16 1849.56Z" fill="#FFFFFF" fill-rule="evenodd" fill-opacity="0.4"/><path d="M2082.16 1849.56C2108.22 1894.33 2107.26 1903.33 2119.49 1947.27 2128.51 1961.18 2141.81 1971.55 2153.13 1983.5 2159.57 1988.55 2167.04 1989.89 2174.35 1992.72 2186.07 2003.95 2196.43 2006.27 2205.12 2017.09 2212.38 2022.34 2214.24 2025.92 2219.69 2028.56 2225.15 2045.56 2230.69 2056.36 2235.6 2072.64 2234.65 2086.36 2236.75 2097.94 2242.52 2110.79 2235.68 2133.65 2238.2 2158.75 2235.52 2168.89 2228.88 2174.08 2224.35 2191.61 2212.11 2205.47 2205.49 2210.97 2170.26 2229.21 2163.74 2237.37 2155.93 2240.73 2149.26 2242.8 2147.55 2245.13 2144.52 2246.99 2124.01 2251.72 2121.1 2251.65 2115.8 2250.48 2110.22 2253.9 2099.58 2252.94 2095.86 2250.95 2086.54 2249.66 2081.28 2246.02 2078.08 2243.76 2067.68 2242.06 2062.28 2237.9 2054.03 2235.18 2053.06 2232.24 2043.44 2227.31 2040.65 2224 2032.58 2219.27 2031.7 2216.6 2027.77 2213.96 2018.73 2197.06 2015.63 2195.67 2012.9 2193.15 2009.75 2186.37 2008.65 2182.2 2007.61 2180.74 2006.18 2177.55 2004.52 2175.05 2004.81 2173.28 2001.17 2165.94 1999.93 2160.21 1997.87 2156.42 1997.1 2153.36 1996.65 2151.77 1996.22 2150.03 1995.97 2145.29 1995.84 2143.49 1994.77 2141.4 1995.24 2139.29 1994.19 2136.49 1994 2135.75 1992.36 2131.6 1991.69 2130.78 1992.42 2130.2 1992.59 2129.51 1993.13 2129.15 1992.17 2126.8 1992.2 2124.4 1991.48 2122.15 1991.51 2121.66 1990.93 2120.33 1991.04 2120.02 1990.78 2118.48 1989.83 2116.24 1989.04 2112.43 1988.85 2111.93 1988.8 2110.94 1988.61 2110.3 1988.46 2108.35 1989.27 2106.45 1988.92 2105.34 1989.39 2104.1 1988.16 2100.98 1988.56 2099.19 1989.4 2096.88 1989.73 2094.21 1989.38 2092.36 1990.46 2089.42 1991.15 2088.25 1992.08 2086.02 1993.35 2077.27 1994.11 2080.93 1992.47 2077.06 1992.47 2076.62 1992.83 2075.86 1992.98 2075.17 1993 2073.79 1992.79 2068.96 1993.71 2066.8 1993.51 2064.09 1993.48 2059.25 1993.15 2057.58 1994.63 2054.9 1995.15 2054.35 1995.86 2051.25 1996.64 2047.42 2004.63 2039.27 2009.36 2034.7 2011.44 2028.74 2025.77 2018.93 2029.84 2010.96 2039.22 2005.7 2045.64 1998.87 2048.65 1995.33 2053.19 1991.4 2057.55 1987.7 2059.54 1986.65 2059.91 1983.74 2064.68 1975.55 2065.11 1971.51 2064.99 1968.9 2064.79 1967.36 2065.34 1965.02 2062 1952.5 2066.15 1942.93 2063.05 1932.15 2061.05 1921.94 2061.39 1913.98 2060.23 1910.73 2057.37 1903.47 2058.95 1905.73 2057.29 1902.88 2056.24 1898.49 2054.53 1892.52 2051.75 1887.79 2061.5 1875.87 2076.02 1853.18 2082.16 1849.56Z" stroke="#FFFFFF" stroke-width="1.14583" stroke-miterlimit="8" fill="none" fill-rule="evenodd"/><path d="M2095.64 1557.94C2104.22 1564.54 2109.71 1580.33 2121.92 1589.68 2126.56 1603.41 2129.97 1608.06 2136.22 1617.2 2138.11 1633.34 2134.24 1645.54 2135.02 1653.67 2130.47 1655.72 2118 1676.94 2108.67 1682.4 2100.27 1688.32 2091 1691.13 2082.09 1696.95 2080.01 1700.17 2071.21 1703.81 2066.17 1709.32 2059.39 1713.25 2049.88 1715.68 2043.39 1715.32 2035.82 1714.05 2034.12 1711.17 2026.12 1710.18 2021.82 1709.53 2011.73 1702.55 2009.26 1701.63 2002.34 1698.69 2002.26 1695.98 1994.87 1693.24 1991.39 1691.74 1984.99 1686.4 1982.02 1684.76 1982.43 1680.19 1983.39 1678.05 1985.05 1673.47 1989.22 1671.12 1991.97 1665.33 2000.53 1658.97 2002.86 1654.75 2006.92 1645.02 2008.82 1643.05 2007.45 1640.49 2009.53 1631.84 2009.25 1624.51 2010.21 1621.37 2010.29 1620.21 2011.27 1616.99 2013.42 1610.34 2017 1605.38 2018.12 1602.69 2019.72 1599.59 2023.38 1596.48 2023.81 1594.64 2025.37 1593.28 2026.93 1589.89 2029.75 1585.65 2030.23 1584.72 2034.61 1578.85 2035.44 1577.59 2036.3 1577.06 2036.87 1574.75 2038.83 1572.45 2039.96 1571.58 2043.88 1567.9 2045.3 1567.13 2048.25 1566.29 2052.28 1561.97 2054.84 1561.62 2056.11 1561.52 2062.39 1557.87 2063.19 1556.8 2070.2 1554.26 2089.84 1554.88 2095.64 1557.94Z" fill="#FFFFFF" fill-rule="evenodd" fill-opacity="0.4"/><path d="M2095.64 1557.94C2101.72 1568.97 2113.41 1578.51 2121.92 1589.68 2125.06 1597.05 2130.46 1603.79 2136.22 1617.2 2136.76 1627.69 2132.12 1642.05 2135.02 1653.67 2127.48 1658.69 2121.61 1671.55 2108.67 1682.4 2098.53 1687.14 2089.26 1691.82 2082.09 1696.95 2074.31 1701.1 2071.98 1705.45 2066.17 1709.32 2055.99 1712.51 2047.75 1714.32 2043.39 1715.32 2036.79 1714.03 2030.11 1713.05 2026.12 1710.18 2023.35 1710.19 2016.91 1705.77 2009.26 1701.63 2002.02 1698.64 2002.53 1696.47 1994.87 1693.24 1992.85 1692.37 1987.12 1687.33 1982.02 1684.76 1983.49 1681.63 1984.13 1678.93 1985.05 1673.47 1991.08 1669.98 1994.22 1664.02 2000.53 1658.97 2002.03 1652.92 2007.45 1645.26 2008.82 1643.05 2008.35 1636.64 2007.7 1632.47 2009.25 1624.51 2009.87 1623.18 2010.96 1618.8 2011.27 1616.99 2014.42 1613.29 2016.86 1605.41 2018.12 1602.69 2018.81 1600.75 2023.74 1596.2 2023.81 1594.64 2027 1590.78 2026.62 1589.53 2029.75 1585.65 2031.25 1583.97 2033.62 1580.79 2035.44 1577.59 2036.14 1576.54 2037.96 1572.78 2038.83 1572.45 2039.62 1571.35 2043.48 1569.17 2045.3 1567.13 2049.49 1564.02 2050.66 1565.08 2054.84 1561.62 2056.61 1561.28 2060.73 1557.99 2063.19 1556.8 2077.75 1556.02 2086.84 1559.23 2095.64 1557.94Z" stroke="#FFFFFF" stroke-width="1.14583" stroke-miterlimit="8" fill="none" fill-rule="evenodd"/><path d="M1933.96 1939.9C1949.74 1940.35 1958.47 1938.33 1977.86 1941.58 1983.6 1938.22 1989.89 1935.3 1995.5 1932.2 1999.1 1931.04 2003.87 1929.82 2007.61 1928.38 2008.74 1927.09 2016.91 1923.55 2017.75 1922.53 2022.3 1917.77 2022.63 1917.19 2025.73 1911.56 2028.45 1909.11 2031.05 1904.17 2032.17 1900.69 2034.37 1897.5 2037.08 1894.43 2039.74 1893.14 2042.05 1889.7 2045.45 1884.79 2049.25 1882.08 2061.35 1872.37 2070.05 1862.94 2082.25 1851.1 2085.04 1847.99 2088.78 1836.53 2089.26 1834.33 2091.91 1830.5 2091.09 1825.3 2093.99 1820.47 2094.6 1815.72 2094.41 1812.82 2095.73 1808.34 2096.66 1804.02 2098.52 1798.02 2098.41 1796.46 2098.48 1792.16 2098.65 1791.26 2100.58 1786.45 2099.86 1782.44 2096.56 1776.65 2094.54 1773.24 2092.05 1767.25 2093.51 1769.18 2091.35 1766.34 2089.55 1762.84 2088.84 1761.8 2086.88 1758.59 2086.92 1757.79 2084.09 1754.09 2083.78 1753.22 2082.91 1751.86 2081.08 1747.77 2078.27 1743.68 2078.08 1742.15 2075.5 1739.61 2074.14 1736.52 2071.32 1733.62 2070.58 1731.06 2068.29 1726.39 2067.97 1725.13 2066.1 1723.24 2064.59 1721.36 2062.88 1720.35 2059.76 1717.81 2055.6 1715.43 2049.78 1715.86 2047.09 1715.75 2043.56 1715.22 2041.96 1715.95 2036.33 1715.29 2034.59 1714.84 2029.96 1712.83 2014.96 1709.59 2007.12 1704.45 1995.25 1692.83 1994.86 1692.14 1980.9 1683.82 1976.66 1684.28 1968.12 1685.93 1956.9 1684.95 1950.83 1683.42 1944.83 1683.86 1943.48 1682.36 1937.82 1683.18 1935.18 1685.56 1929.24 1686.61 1921.9 1696.33 1920.28 1701.17 1914.38 1706.32 1912.14 1709.73 1907.39 1720.43 1906.43 1722.84 1904.24 1726.69 1901.09 1729.68 1899.64 1733.12 1899.95 1733.92 1898.12 1738.47 1897.53 1739.1 1897.56 1740.69 1897.67 1743.44 1897.05 1746.54 1895.5 1751.43 1895.85 1756.92 1895.18 1766.7 1895.83 1769.08 1896.12 1769.62 1896.14 1772.5 1895.95 1775.01 1895.77 1778.05 1897.04 1782.32 1896.71 1783.06 1897.57 1785.54 1898.01 1788.12 1897.92 1789.24 1898.39 1792.74 1898.97 1793.93 1898.32 1801.27 1896.85 1798.71 1898.49 1801.36 1898.02 1802.39 1898.45 1804.41 1897.58 1806.66 1898.32 1807.85 1896.04 1811.96 1896.34 1816.91 1895.92 1818.6 1894.61 1820.79 1894.33 1824.44 1893.86 1826.85 1892.17 1829.62 1891.62 1830.77 1891.92 1833.09 1890.55 1837.21 1891.42 1842.81 1892.22 1850.19 1891.04 1847.51 1892.82 1850.75 1892.95 1851.27 1892.15 1853.25 1892.06 1853.57 1892.71 1854.68 1893.53 1859.07 1893.72 1860.57 1892.86 1866.82 1892.26 1864.71 1893.84 1867.65 1893.76 1869.57 1893.26 1871.43 1893.17 1872.01 1895.81 1879.62 1896.45 1876.32 1894.92 1880.55 1894.91 1882.2 1895.85 1883.6 1895.79 1884.81 1895.82 1886.13 1895.69 1893.42 1895.75 1894.38 1895.8 1895.4 1898.38 1901.37 1898.78 1903.76 1899.21 1904.58 1900.9 1907.66 1901.63 1910.07 1902.26 1910.76 1902.58 1911.98 1903.35 1913.05 1903.87 1915.9 1909.23 1921.65 1909.2 1923.18 1909.16 1924.16 1911.57 1927.7 1912.3 1928.55 1922.15 1934.68 1930.53 1937.24 1933.96 1939.9Z" fill="#FFFFFF" fill-rule="evenodd" fill-opacity="0.4"/><path d="M1933.96 1939.9C1942.02 1938.78 1957.47 1944.46 1977.86 1941.58 1984 1938.97 1990.27 1936.24 1995.5 1932.2 1996.84 1931.31 2004.23 1930.58 2007.61 1928.38 2011 1926.41 2015.04 1923.51 2017.75 1922.53 2020.04 1921.37 2023.3 1916.75 2025.73 1911.56 2027.07 1908.86 2030.79 1904.7 2032.17 1900.69 2035.32 1897.63 2037.13 1896.08 2039.74 1893.14 2042.39 1890.52 2045.26 1885.58 2049.25 1882.08 2057.62 1873.03 2068.45 1868.79 2082.25 1851.1 2086.03 1843.83 2087.52 1838.5 2089.26 1834.33 2089.35 1830.59 2091.78 1826.92 2093.99 1820.47 2094.85 1815.23 2095.62 1812.67 2095.73 1808.34 2097.02 1804.71 2096.16 1801.43 2098.41 1796.46 2098.47 1793.6 2100.56 1789.01 2100.58 1786.45 2097.95 1783.81 2096.92 1779.22 2094.54 1773.24 2091.55 1767.04 2093.29 1769.4 2091.35 1766.34 2089.88 1763.74 2087.95 1760.16 2086.88 1758.59 2086.21 1757.62 2085.23 1755.3 2083.78 1753.22 2082.27 1749.6 2079.41 1747.18 2078.27 1743.68 2076.92 1742.62 2076.1 1738.88 2074.14 1736.52 2071.21 1731.86 2070.76 1729.04 2068.29 1726.39 2067.37 1724.96 2066.87 1723.56 2064.59 1721.36 2060.15 1718.52 2058.98 1717.77 2055.6 1715.43 2052.22 1715.26 2045.73 1715.85 2043.56 1715.22 2039.87 1715.76 2036.02 1715.03 2034.59 1714.84 2023.6 1711.19 2018.69 1709.22 2007.12 1704.45 1997.66 1700.77 1985.45 1688.06 1980.9 1683.82 1971.29 1684.22 1968.71 1684.24 1956.9 1684.95 1951.7 1684.85 1945.41 1682.56 1943.48 1682.36 1937.26 1684.93 1934.24 1683.89 1929.24 1686.61 1924 1691.28 1920.92 1698.75 1914.38 1706.32 1912.63 1709.61 1909.94 1717.9 1906.43 1722.84 1905.04 1723.54 1901.05 1731.76 1899.64 1733.12 1898.89 1734.79 1897.57 1737.59 1897.53 1739.1 1897.88 1741.24 1896.97 1743.74 1897.05 1746.54 1895.54 1751.29 1894.37 1764.32 1895.18 1766.7 1895.53 1769.21 1895.74 1771.81 1896.14 1772.5 1895.77 1773.85 1896.78 1780.17 1897.04 1782.32 1897.73 1783.51 1897.84 1786.09 1898.01 1788.12 1898.67 1789.32 1898.75 1791.2 1898.97 1793.93 1897.75 1801.18 1896.91 1798.88 1898.49 1801.36 1898.19 1802.7 1898.18 1804.61 1897.58 1806.66 1896.82 1808.6 1895.96 1812.54 1896.34 1816.91 1896.2 1818.69 1894.92 1821.36 1894.33 1824.44 1893.49 1826.45 1891.52 1829.49 1891.62 1830.77 1891.11 1833.3 1890.7 1840.17 1891.42 1842.81 1891.73 1849.82 1891.21 1847.46 1892.82 1850.75 1892.33 1851.63 1892.29 1853.27 1892.06 1853.57 1892.19 1856.9 1892.69 1858.36 1893.72 1860.57 1893.52 1866.79 1892.16 1864.55 1893.84 1867.65 1893.65 1868.39 1893.51 1870.17 1893.17 1872.01 1895.62 1879.36 1895.62 1876.69 1894.92 1880.55 1895.48 1881.82 1895.44 1883.21 1895.79 1884.81 1896.53 1886.26 1896.59 1892.34 1895.75 1894.38 1896.49 1895.23 1897.23 1901.02 1898.78 1903.76 1900.46 1906.29 1901.19 1908.45 1901.63 1910.07 1901.68 1910.74 1902.54 1911.99 1903.35 1913.05 1904.95 1916.7 1907.51 1918.75 1909.2 1923.18 1909.84 1924.96 1910.76 1926.66 1912.3 1928.55 1918.76 1932.94 1927.73 1935.69 1933.96 1939.9Z" stroke="#FFFFFF" stroke-width="1.14583" stroke-miterlimit="8" fill="none" fill-rule="evenodd"/><path d="M0 0 475.741 157.632" stroke="#FFFFFF" stroke-width="6.875" stroke-miterlimit="8" fill="#FFFFFF" fill-rule="evenodd" fill-opacity="0.4" transform="matrix(1.83697e-16 1 1 -1.83697e-16 937.5 1488.5)"/><path d="M1003.5 2437.46 1094.77 1964.5" stroke="#FFFFFF" stroke-width="6.875" stroke-miterlimit="8" fill="#FFFFFF" fill-rule="evenodd" fill-opacity="0.4"/><path d="M1103.5 1922.65 1195.19 1416.5" stroke="#FFFFFF" stroke-width="6.875" stroke-miterlimit="8" fill="#FFFFFF" fill-rule="evenodd" fill-opacity="0.4"/><path d="M0 0 236.125 282.285" stroke="#FFFFFF" stroke-width="6.875" stroke-miterlimit="8" fill="#FFFFFF" fill-rule="evenodd" fill-opacity="0.4" transform="matrix(1.83697e-16 1 1 -1.83697e-16 1182.5 1399.5)"/><path d="M1846.49 1790.5 1092.5 1973.48" stroke="#FFFFFF" stroke-width="6.875" stroke-miterlimit="8" fill="#FFFFFF" fill-rule="evenodd" fill-opacity="0.4"/><path d="M1846.57 1780.5 1600.5 2367.29" stroke="#FFFFFF" stroke-width="6.875" stroke-miterlimit="8" fill="#FFFFFF" fill-rule="evenodd" fill-opacity="0.4"/><path d="M0 0 397.504 523.694" stroke="#FFFFFF" stroke-width="6.875" stroke-miterlimit="8" fill="#FFFFFF" fill-rule="evenodd" fill-opacity="0.4" transform="matrix(-1.83697e-16 -1 -1 1.83697e-16 1613.19 2367)"/><path d="M0 0 164.601 407.453" stroke="#FFFFFF" stroke-width="6.875" stroke-miterlimit="8" fill="#FFFFFF" fill-rule="evenodd" fill-opacity="0.4" transform="matrix(-1.83697e-16 -1 -1 1.83697e-16 1855.95 1787.1)"/><path d="M0 0 154.196 304.985" stroke="#FFFFFF" stroke-width="6.875" stroke-miterlimit="8" fill="#FFFFFF" fill-rule="evenodd" fill-opacity="0.4" transform="matrix(1.83697e-16 1 1 -1.83697e-16 1837.5 1777.5)"/><path d="M0 0 337.562 59.941" stroke="#FFFFFF" stroke-width="6.875" stroke-miterlimit="8" fill="#FFFFFF" fill-rule="evenodd" fill-opacity="0.4" transform="matrix(1.83697e-16 1 1 -1.83697e-16 1852.5 1780.5)"/><path d="M2082.95 1086.5 1849.5 1786.86" stroke="#FFFFFF" stroke-width="6.875" stroke-miterlimit="8" fill="#FFFFFF" fill-rule="evenodd" fill-opacity="0.4"/><path d="M2505.55 1547.5 1863.5 1796.45" stroke="#FFFFFF" stroke-width="6.875" stroke-miterlimit="8" fill="#FFFFFF" fill-rule="evenodd" fill-opacity="0.4"/><path d="M0 0 438.515 410.122" stroke="#FFFFFF" stroke-width="6.875" stroke-miterlimit="8" fill="#FFFFFF" fill-rule="evenodd" fill-opacity="0.4" transform="matrix(1.83697e-16 1 1 -1.83697e-16 2105.5 1111.5)"/><path d="M0 0 219.583 405.591" stroke="#FFFFFF" stroke-width="6.875" stroke-miterlimit="8" fill="#FFFFFF" fill-rule="evenodd" fill-opacity="0.4" transform="matrix(1.83697e-16 1 1 -1.83697e-16 1680.5 860.5)"/><path d="M0 0 359.646 179.821" stroke="#FFFFFF" stroke-width="6.875" stroke-miterlimit="8" fill="#FFFFFF" fill-rule="evenodd" fill-opacity="0.4" transform="matrix(1.83697e-16 1 1 -1.83697e-16 2010.5 64.5001)"/><path d="M0 0 376.803 269.816" stroke="#FFFFFF" stroke-width="6.875" stroke-miterlimit="8" fill="#FFFFFF" fill-rule="evenodd" fill-opacity="0.4" transform="matrix(-1.83697e-16 -1 -1 1.83697e-16 2889.32 826.303)"/><path d="M1944.5 689.502 2190.57 424.5" stroke="#FFFFFF" stroke-width="6.875" stroke-miterlimit="8" fill="#FFFFFF" fill-rule="evenodd" fill-opacity="0.4"/><path d="M2086.5 1086.59 2619.66 458.5" stroke="#FFFFFF" stroke-width="6.875" stroke-miterlimit="8" fill="#FFFFFF" fill-rule="evenodd" fill-opacity="0.4"/><path d="M2082.5 1101.93 2186.61 420.5" stroke="#FFFFFF" stroke-width="6.875" stroke-miterlimit="8" fill="#FFFFFF" fill-rule="evenodd" fill-opacity="0.4"/><path d="M0 0 369.397 135.656" stroke="#FFFFFF" stroke-width="6.875" stroke-miterlimit="8" fill="#FFFFFF" fill-rule="evenodd" fill-opacity="0.4" transform="matrix(-1.83697e-16 -1 -1 1.83697e-16 2080.16 1064.9)"/><path d="M0 0 303.801 361.427" stroke="#FFFFFF" stroke-width="6.875" stroke-miterlimit="8" fill="#FFFFFF" fill-rule="evenodd" fill-opacity="0.4" transform="matrix(-1.83697e-16 -1 -1 1.83697e-16 2864.93 1828.3)"/><path d="M0 0 98.2295 389.768" stroke="#FFFFFF" stroke-width="6.875" stroke-miterlimit="8" fill="#FFFFFF" fill-rule="evenodd" fill-opacity="0.4" transform="matrix(-1.83697e-16 -1 -1 1.83697e-16 3222.27 1884.73)"/><path d="M3215.62 1881.5 2805.5 2118.11" stroke="#FFFFFF" stroke-width="6.875" stroke-miterlimit="8" fill="#FFFFFF" fill-rule="evenodd" fill-opacity="0.4"/><path d="M0 0 365.952 25.2379" stroke="#FFFFFF" stroke-width="6.875" stroke-miterlimit="8" fill="#FFFFFF" fill-rule="evenodd" fill-opacity="0.4" transform="matrix(-1.83697e-16 -1 -1 1.83697e-16 2524.74 1916.45)"/><path d="M2865.5 1789.85 2999.61 1453.5" stroke="#FFFFFF" stroke-width="6.875" stroke-miterlimit="8" fill="#FFFFFF" fill-rule="evenodd" fill-opacity="0.4"/><path d="M3215.5 1884.36 3521.51 1846.5" stroke="#FFFFFF" stroke-width="6.875" stroke-miterlimit="8" fill="#FFFFFF" fill-rule="evenodd" fill-opacity="0.4"/><path d="M2500.5 1906.94 2811.39 1818.5" stroke="#FFFFFF" stroke-width="6.875" stroke-miterlimit="8" fill="#FFFFFF" fill-rule="evenodd" fill-opacity="0.4"/><path d="M0 0 205.059 287.082" stroke="#FFFFFF" stroke-width="6.875" stroke-miterlimit="8" fill="#FFFFFF" fill-rule="evenodd" fill-opacity="0.4" transform="matrix(1.83697e-16 1 1 -1.83697e-16 2524.5 1906.5)"/><path d="M0 133.5C-22.0388 61.1067 60.2159 16.499 133.5 0 217.764-16.3592 267.202 67.7737 267 133.5 284.347 205.117 207.3 270.786 133.5 267 70.2716 260.106-1.73144 221.774 0 133.5Z" fill="#FFFFFF" fill-rule="evenodd" fill-opacity="0.4" transform="matrix(1.83697e-16 1 1 -1.83697e-16 1956.5 957.5)"/><path d="M0 133.5C10.8991 57.1277 55.0369 3.62511 133.5 0 216.527 1.41816 275.217 59.7486 267 133.5 272.42 198.057 224.192 253.259 133.5 267 67.743 283.037-9.83901 189.317 0 133.5Z" stroke="#FFFFFF" stroke-width="4.58333" stroke-miterlimit="8" fill="none" fill-rule="evenodd" transform="matrix(1.83697e-16 1 1 -1.83697e-16 1956.5 957.5)"/><path d="M0 95.0007C-14.2282 36.6076 49.1698 6.65821 95.0007 0 153.688 3.23152 195.621 46.9211 190.001 95.0007 195.043 146.495 148.679 194.762 95.0007 190.001 38.1035 195.201 2.37275 151.754 0 95.0007Z" fill="#FFFFFF" fill-rule="evenodd" fill-opacity="0.4" transform="matrix(1.83697e-16 1 1 -1.83697e-16 3107.5 1786.5)"/><path d="M0 95.0007C-9.64994 46.9964 42.9006 12.8787 95.0007 0 149.658-0.846217 187.294 52.5142 190.001 95.0007 186.986 146.765 154.986 201.218 95.0007 190.001 40.3243 180.648 0.688684 151.478 0 95.0007Z" stroke="#FFFFFF" stroke-width="4.58333" stroke-miterlimit="8" fill="none" fill-rule="evenodd" transform="matrix(1.83697e-16 1 1 -1.83697e-16 3107.5 1786.5)"/><path d="M0 60.0007C4.6757 23.9703 31.426 0.934581 60.0007 0 100.059 1.87196 118.22 23.7843 120.001 60.0007 120 90.5019 93.2063 121.764 60.0007 120.001 23.3561 120.042-7.04993 96.4158 0 60.0007Z" fill="#FFFFFF" fill-rule="evenodd" fill-opacity="0.4" transform="matrix(1.83697e-16 1 1 -1.83697e-16 2842.5 780.5)"/><path d="M0 60.0007C-4.73587 26.9713 25.2239 0.565226 60.0007 0 88.9923 2.30288 113.511 21.5499 120.001 60.0007 118.418 92.3179 84.7517 122.807 60.0007 120.001 31.6387 122.052-0.938779 93.0972 0 60.0007Z" stroke="#FFFFFF" stroke-width="4.58333" stroke-miterlimit="8" fill="none" fill-rule="evenodd" transform="matrix(1.83697e-16 1 1 -1.83697e-16 2842.5 780.5)"/><path d="M0 60.0007C-9.20591 28.9846 28.411 3.18709 60.0007 0 93.7645 1.8132 117.409 23.9633 120.001 60.0007 116.929 91.2574 90.7719 126.689 60.0007 120.001 33.186 115.717 1.30254 98.6165 0 60.0007Z" fill="#FFFFFF" fill-rule="evenodd" fill-opacity="0.4" transform="matrix(1.83697e-16 1 1 -1.83697e-16 1948.5 7.50007)"/><path d="M0 60.0007C-0.657565 17.4814 27.9871-2.28609 60.0007 0 86.6642-1.85517 118.353 27.6667 120.001 60.0007 122.927 99.6057 92.4592 120.499 60.0007 120.001 25.2015 126.269 7.11149 91.4407 0 60.0007Z" stroke="#FFFFFF" stroke-width="4.58333" stroke-miterlimit="8" fill="none" fill-rule="evenodd" transform="matrix(1.83697e-16 1 1 -1.83697e-16 1948.5 7.50007)"/><path d="M0 60.0007C6.67778 20.5986 22.7168 4.65612 60.0007 0 96.5221 2.15597 118.928 27.0749 120.001 60.0007 121.634 86.5033 95.4196 119.446 60.0007 120.001 25.7611 122.786 1.77403 93.4343 0 60.0007Z" fill="#FFFFFF" fill-rule="evenodd" fill-opacity="0.4" transform="matrix(1.83697e-16 1 1 -1.83697e-16 1648.5 816.5)"/><path d="M0 60.0007C-7.64874 20.7525 24.3411 8.42662 60.0007 0 97.8862-5.7474 124.842 21.0071 120.001 60.0007 124.25 93.5225 89.3826 127.97 60.0007 120.001 17.7095 120.519-0.636579 91.2308 0 60.0007Z" stroke="#FFFFFF" stroke-width="4.58333" stroke-miterlimit="8" fill="none" fill-rule="evenodd" transform="matrix(1.83697e-16 1 1 -1.83697e-16 1648.5 816.5)"/><path d="M0 60.0007C-0.812862 26.8454 29.5694-3.98176 60.0007 0 83.9626 0.916393 119.463 17.8354 120.001 60.0007 115.979 91.3483 96.9069 113.147 60.0007 120.001 29.5624 116.515-2.80794 93.1154 0 60.0007Z" fill="#FFFFFF" fill-rule="evenodd" fill-opacity="0.4" transform="matrix(1.83697e-16 1 1 -1.83697e-16 1888.5 637.5)"/><path d="M0 60.0007C-1.62293 26.914 17.3079-1.77822 60.0007 0 92.1752-8.18178 113.732 30.4788 120.001 60.0007 120.621 86.6335 88.0731 111.589 60.0007 120.001 22.2299 113.994 7.44167 95.8072 0 60.0007Z" stroke="#FFFFFF" stroke-width="4.58333" stroke-miterlimit="8" fill="none" fill-rule="evenodd" transform="matrix(1.83697e-16 1 1 -1.83697e-16 1888.5 637.5)"/><path d="M0 59.5007C3.79429 24.6502 28.5957-3.69746 60.0007 0 88.3165-5.04464 117.449 28.8374 120.001 59.5007 126.909 95.1392 89.163 121.945 60.0007 119.001 27.6429 118.052-4.25458 89.6964 0 59.5007Z" fill="#FFFFFF" fill-rule="evenodd" fill-opacity="0.4" transform="matrix(1.83697e-16 1 1 -1.83697e-16 2555.5 387.5)"/><path d="M0 59.5007C-3.52287 19.8636 28.5635 2.29756 60.0007 0 92.9503-2.38913 119.724 34.7977 120.001 59.5007 126.304 90.8521 91.8492 127.786 60.0007 119.001 23.9871 117.81-2.23992 84.8168 0 59.5007Z" stroke="#FFFFFF" stroke-width="4.58333" stroke-miterlimit="8" fill="none" fill-rule="evenodd" transform="matrix(1.83697e-16 1 1 -1.83697e-16 2555.5 387.5)"/><path d="M0 60.0007C4.00695 18.686 31.5211-7.46406 60.0007 0 98.1464-1.25917 122.518 22.4607 120.001 60.0007 120.956 92.7838 85.7996 114.795 60.0007 120.001 27.4526 127.125 2.65824 90.5509 0 60.0007Z" fill="#FFFFFF" fill-rule="evenodd" fill-opacity="0.4" transform="matrix(1.83697e-16 1 1 -1.83697e-16 2939.5 1402.5)"/><path d="M0 60.0007C-2.93106 26.0787 24.8448 1.14864 60.0007 0 91.9471 0.0797472 128.294 26.7489 120.001 60.0007 121.356 92.0409 90.937 114.5 60.0007 120.001 21.4982 123.628 8.02649 93.5645 0 60.0007Z" stroke="#FFFFFF" stroke-width="4.58333" stroke-miterlimit="8" fill="none" fill-rule="evenodd" transform="matrix(1.83697e-16 1 1 -1.83697e-16 2939.5 1402.5)"/><path d="M0 60.0007C5.26751 27.6751 34.8593 2.93246 60.0007 0 95.6421-7.19544 121.673 25.0434 120.001 60.0007 128.081 91.9779 94.9775 116.635 60.0007 120.001 32.2654 120.175-5.41721 100.677 0 60.0007Z" fill="#FFFFFF" fill-rule="evenodd" fill-opacity="0.4" transform="matrix(1.83697e-16 1 1 -1.83697e-16 2462.5 1846.5)"/><path d="M0 60.0007C-7.8572 30.2354 33.1497-0.24204 60.0007 0 93.7883-0.773688 119.561 25.7122 120.001 60.0007 114.198 95.6057 97.0677 120.513 60.0007 120.001 33.6141 125.605-2.96883 95.0125 0 60.0007Z" stroke="#FFFFFF" stroke-width="4.58333" stroke-miterlimit="8" fill="none" fill-rule="evenodd" transform="matrix(1.83697e-16 1 1 -1.83697e-16 2462.5 1846.5)"/><path d="M0 60.0007C0.805867 26.055 30.9545-2.49315 60.0007 0 97.9338-1.90834 119.156 25.3652 120.001 60.0007 122.001 88.7083 91.8968 119.443 60.0007 120.001 27.3267 123.481 8.78758 92.5907 0 60.0007Z" fill="#FFFFFF" fill-rule="evenodd" fill-opacity="0.4" transform="matrix(1.83697e-16 1 1 -1.83697e-16 2745.5 2058.5)"/><path d="M0 60.0007C-6.09437 25.659 28.9804 0.155297 60.0007 0 96.3458-9.30104 113.318 28.3312 120.001 60.0007 121.088 88.3585 94.944 121.142 60.0007 120.001 30.7265 121.822-4.26997 92.1248 0 60.0007Z" stroke="#FFFFFF" stroke-width="4.58333" stroke-miterlimit="8" fill="none" fill-rule="evenodd" transform="matrix(1.83697e-16 1 1 -1.83697e-16 2745.5 2058.5)"/><path d="M0 60.0007C2.1126 25.119 22.2747-2.114 60.0007 0 96.0324 2.80514 125.698 20.7972 120.001 60.0007 117.217 91.4631 90.2263 119.31 60.0007 120.001 29.631 128.236-0.731716 94.0695 0 60.0007Z" fill="#FFFFFF" fill-rule="evenodd" fill-opacity="0.4" transform="matrix(1.83697e-16 1 1 -1.83697e-16 1406.5 1575.5)"/><path d="M0 60.0007C0.304998 34.3291 32.1899-0.789078 60.0007 0 100.419 2.94505 119.279 22.7419 120.001 60.0007 120.341 94.043 89.8723 124.34 60.0007 120.001 25.1679 117.451 2.2595 94.4067 0 60.0007Z" stroke="#FFFFFF" stroke-width="4.58333" stroke-miterlimit="8" fill="none" fill-rule="evenodd" transform="matrix(1.83697e-16 1 1 -1.83697e-16 1406.5 1575.5)"/><path d="M0 78.5006C-8.20189 39.9427 32.2039-0.441179 79.0006 0 121.622 3.42505 154.706 35.2859 158.001 78.5006 151.876 123.232 126.013 163.992 79.0006 157.001 33.9 150.008 0.616262 119.326 0 78.5006Z" fill="#FFFFFF" fill-rule="evenodd" fill-opacity="0.4" transform="matrix(1.83697e-16 1 1 -1.83697e-16 1526.5 2286.5)"/><path d="M0 78.5006C-10.2846 33.595 32.547 6.13614 79.0006 0 121.57 2.56774 157.907 42.0998 158.001 78.5006 155.123 119.697 129.264 156.962 79.0006 157.001 42.7714 164.706-2.54908 123.611 0 78.5006Z" stroke="#FFFFFF" stroke-width="4.58333" stroke-miterlimit="8" fill="none" fill-rule="evenodd" transform="matrix(1.83697e-16 1 1 -1.83697e-16 1526.5 2286.5)"/><path d="M0 78.5007C11.744 36.8044 30.1184 11.8743 79.0006 0 122.6 1.20942 153.292 26.9996 158.001 78.5007 161.826 128.245 132.565 154.336 79.0006 157.001 41.0697 167.16 2.23395 116.979 0 78.5007Z" fill="#FFFFFF" fill-rule="evenodd" fill-opacity="0.4" transform="matrix(1.83697e-16 1 1 -1.83697e-16 2416.5 1470.5)"/><path d="M0 78.5007C8.4666 35.9262 36.1073-3.09939 79.0006 0 135.106-3.46263 164.371 37.5114 158.001 78.5007 163.71 112.911 125.79 147.628 79.0006 157.001 32.428 154.128 0.593852 125.017 0 78.5007Z" stroke="#FFFFFF" stroke-width="4.58333" stroke-miterlimit="8" fill="none" fill-rule="evenodd" transform="matrix(1.83697e-16 1 1 -1.83697e-16 2416.5 1470.5)"/><path d="M0 79.0008C-4.3951 36.7069 25.4019-5.65982 78.5007 0 117.011-4.10095 161.781 24.7892 157.001 79.0008 159.937 135.168 125.6 156.892 78.5007 158.002 30.0072 150.567 4.68736 127.023 0 79.0008Z" fill="#FFFFFF" fill-rule="evenodd" fill-opacity="0.4" transform="matrix(1.83697e-16 1 1 -1.83697e-16 858.5 1488.5)"/><path d="M0 79.0008C7.14238 44.6903 44.6454-3.31102 78.5007 0 125.964-7.84195 166.891 42.9339 157.001 79.0008 166.648 122.662 123.359 162.287 78.5007 158.002 44.2961 155.966-8.64267 117.528 0 79.0008Z" stroke="#FFFFFF" stroke-width="4.58333" stroke-miterlimit="8" fill="none" fill-rule="evenodd" transform="matrix(1.83697e-16 1 1 -1.83697e-16 858.5 1488.5)"/><path d="M0 42.5008C-0.792024 24.2226 18.905-6.3936 42.5006 0 67.1234-0.495367 85.0419 23.0864 85.0013 42.5008 87.0821 64.6496 72.8397 83.9018 42.5006 85.0017 18.6224 90.648-4.83611 69.3542 0 42.5008Z" fill="#FFFFFF" fill-rule="evenodd" fill-opacity="0.4" transform="matrix(1.83697e-16 1 1 -1.83697e-16 958.5 2383.5)"/><path d="M0 42.5008C4.76334 17.009 15.8363-3.1989 42.5006 0 68.401 4.01471 89.5324 23.9441 85.0013 42.5008 86.0242 65.8461 67.1108 88.8051 42.5006 85.0017 20.8599 87.1091 3.30243 64.1669 0 42.5008Z" stroke="#FFFFFF" stroke-width="4.58333" stroke-miterlimit="8" fill="none" fill-rule="evenodd" transform="matrix(1.83697e-16 1 1 -1.83697e-16 958.5 2383.5)"/><path d="M0 42.5006C-1.2566 20.7186 22.0773 1.83733 42.5006 0 66.4545 1.79115 90.0767 14.8707 85.0013 42.5006 87.7748 66.4741 62.2047 88.6564 42.5006 85.0013 15.9119 84.4975 2.67273 67.8007 0 42.5006Z" fill="#FFFFFF" fill-rule="evenodd" fill-opacity="0.4" transform="matrix(1.83697e-16 1 1 -1.83697e-16 1867.5 2075.5)"/><path d="M0 42.5006C2.60417 17.1755 21.2377-0.433794 42.5006 0 63.3116-3.85097 85.2168 19.914 85.0013 42.5006 85.2182 66.9527 66.2978 85.4827 42.5006 85.0013 14.4286 84.9691 0.912367 65.7604 0 42.5006Z" stroke="#FFFFFF" stroke-width="4.58333" stroke-miterlimit="8" fill="none" fill-rule="evenodd" transform="matrix(1.83697e-16 1 1 -1.83697e-16 1867.5 2075.5)"/><path d="M0 42.0006C-1.77156 16.5115 19.3178-1.20172 42.5006 0 65.356 0.248917 85.4841 18.2843 85.0013 42.0006 86.2537 63.2803 71.3564 79.9494 42.5006 84.0013 15.5382 80.3117 4.0035 64.742 0 42.0006Z" fill="#FFFFFF" fill-rule="evenodd" fill-opacity="0.4" transform="matrix(1.83697e-16 1 1 -1.83697e-16 2108.5 1891.5)"/><path d="M0 42.0006C0.908169 16.647 13.3455-2.60948 42.5006 0 63.2976-2.40067 85.8465 18.5526 85.0013 42.0006 83.7489 68.2904 65.78 81.7347 42.5006 84.0013 17.815 85.6842-1.8947 69.6512 0 42.0006Z" stroke="#FFFFFF" stroke-width="4.58333" stroke-miterlimit="8" fill="none" fill-rule="evenodd" transform="matrix(1.83697e-16 1 1 -1.83697e-16 2108.5 1891.5)"/><path d="M0 0 28.3928 429.05" stroke="#FFFFFF" stroke-width="6.875" stroke-miterlimit="8" fill="#FFFFFF" fill-rule="evenodd" fill-opacity="0.4" transform="matrix(1.83697e-16 1 1 -1.83697e-16 2187.5 417.5)"/><path d="M0 60C-0.714947 26.2337 24.9593 4.75613 60 0 93.6525-4.02452 118.782 26.9375 120 60 122.792 91.8269 86.435 118.656 60 120 18.7122 122.36-2.18649 92.8584 0 60Z" fill="#FFFFFF" fill-rule="evenodd" fill-opacity="0.4" transform="matrix(1.83697e-16 1 1 -1.83697e-16 2465.5 1842.5)"/><path d="M0 60C-6.37899 24.6094 31.9172-3.19852 60 0 91.677-2.61129 114.737 28.1967 120 60 116.225 100.745 88.1425 115.755 60 120 27.7691 120.915-1.00093 93.3234 0 60Z" stroke="#FFFFFF" stroke-width="4.58333" stroke-miterlimit="8" fill="none" fill-rule="evenodd" transform="matrix(1.83697e-16 1 1 -1.83697e-16 2465.5 1842.5)"/><path d="M0 60.5C-6.80935 22.1451 18.2707 1.65178 60 0 88.9879 0.852487 117.028 29.6887 120 60.5 124.659 101.495 91.8824 119.228 60 121 26.3822 114.61-2.94863 93.4642 0 60.5Z" fill="#FFFFFF" fill-rule="evenodd" fill-opacity="0.4" transform="matrix(1.83697e-16 1 1 -1.83697e-16 2747.5 2053.5)"/><path d="M0 60.5C8.41971 30.4656 23.8639-3.31476 60 0 87.0944 1.19264 117.408 33.0874 120 60.5 122.695 86.8347 91.9213 120.223 60 121 28.8228 117.85-0.57751 90.7122 0 60.5Z" stroke="#FFFFFF" stroke-width="4.58333" stroke-miterlimit="8" fill="none" fill-rule="evenodd" transform="matrix(1.83697e-16 1 1 -1.83697e-16 2747.5 2053.5)"/><path d="M0 60.5C-1.23884 29.0588 28.769 3.87749 60.5 0 95.0698-2.46227 121.899 27.3244 121 60.5 119.247 93.2291 87.4086 124.143 60.5 121 26.4495 115.844-5.3207 87.0419 0 60.5Z" fill="#FFFFFF" fill-rule="evenodd" fill-opacity="0.4" transform="matrix(1.83697e-16 1 1 -1.83697e-16 2112.5 1887.5)"/><path d="M0 60.5C1.61819 26.7547 31.5742 3.08799 60.5 0 102.082 4.00627 117.222 32.4505 121 60.5 125.003 95.6787 90.5456 112.058 60.5 121 35.4517 124.813 3.19858 90.5918 0 60.5Z" stroke="#FFFFFF" stroke-width="4.58333" stroke-miterlimit="8" fill="none" fill-rule="evenodd" transform="matrix(1.83697e-16 1 1 -1.83697e-16 2112.5 1887.5)"/><path d="M0 95.0006C-1.32857 38.9161 41.105 2.6683 95.0007 0 146.359-0.363859 191.633 54.8716 190.001 95.0006 176.583 148.73 139.566 189.329 95.0007 190.001 31.6084 187.15-4.36352 135.166 0 95.0006Z" fill="#FFFFFF" fill-rule="evenodd" fill-opacity="0.4" transform="matrix(1.83697e-16 1 1 -1.83697e-16 2749.5 1695.5)"/><path d="M0 95.0006C-10.1881 40.1332 37.6546-12.7169 95.0007 0 157.229-2.41178 189.456 36.1572 190.001 95.0006 195.275 140.646 140.79 187.054 95.0007 190.001 40.4999 193.82 5.82872 160.123 0 95.0006Z" stroke="#FFFFFF" stroke-width="4.58333" stroke-miterlimit="8" fill="none" fill-rule="evenodd" transform="matrix(1.83697e-16 1 1 -1.83697e-16 2749.5 1695.5)"/><path d="M0 60.0007C-7.62076 22.8944 25.3764 0.456098 60.0007 0 97.0328 5.7404 112.749 22.7224 120.001 60.0007 116.686 85.5338 92.1962 116.013 60.0007 120.001 23.7675 115.313 3.12833 88.0073 0 60.0007Z" fill="#FFFFFF" fill-rule="evenodd" fill-opacity="0.4" transform="matrix(1.83697e-16 1 1 -1.83697e-16 3464.5 1786.5)"/><path d="M0 60.0007C-6.83867 23.3184 33.3399 0.569423 60.0007 0 94.846 1.80061 116.519 33.1734 120.001 60.0007 121.605 92.3669 91.2952 126.893 60.0007 120.001 25.4715 119.996-7.2528 90.6474 0 60.0007Z" stroke="#FFFFFF" stroke-width="4.58333" stroke-miterlimit="8" fill="none" fill-rule="evenodd" transform="matrix(1.83697e-16 1 1 -1.83697e-16 3464.5 1786.5)"/><path d="M0 95.0006C12.0439 37.4022 36.747-8.72843 95.5008 0 148.165 13.8517 188.102 30.9977 191.002 95.0006 189.237 135.793 144.32 180.017 95.5008 190.001 40.9541 198.929 1.67471 143.266 0 95.0006Z" fill="#FFFFFF" fill-rule="evenodd" fill-opacity="0.4" transform="matrix(1.83697e-16 1 1 -1.83697e-16 998.5 1872.5)"/><path d="M0 95.0006C3.85114 44.6013 42.0613-1.50144 95.5008 0 134.028-1.35785 197.813 32.771 191.002 95.0006 205.459 148.3 139.716 199.41 95.5008 190.001 37.4365 190.074 5.1769 157.094 0 95.0006Z" stroke="#FFFFFF" stroke-width="4.58333" stroke-miterlimit="8" fill="none" fill-rule="evenodd" transform="matrix(1.83697e-16 1 1 -1.83697e-16 998.5 1872.5)"/><path d="M0 117.501C4.98274 51.3237 43.5494 1.46272 117.501 0 190.677-12.7025 238.645 59.6744 235.001 117.501 231.559 181.584 187.263 236.923 117.501 235.002 61.5683 239.028-5.24514 167.928 0 117.501Z" fill="#FFFFFF" fill-rule="evenodd" fill-opacity="0.4" transform="matrix(1.83697e-16 1 1 -1.83697e-16 1068.5 1295.5)"/><path d="M0 117.501C-4.74128 51.1088 63.2348-14.3886 117.501 0 180.07-0.327996 250.971 53.0781 235.001 117.501 242.038 196.627 173.895 241.697 117.501 235.002 38.0601 232.521 9.63749 191.391 0 117.501Z" stroke="#FFFFFF" stroke-width="4.58333" stroke-miterlimit="8" fill="none" fill-rule="evenodd" transform="matrix(1.83697e-16 1 1 -1.83697e-16 1068.5 1295.5)"/><path d="M0 79.0008C3.34603 37.5571 38.3344-8.16689 79.0008 0 119.425 2.89364 156.784 27.6338 158.002 79.0008 161.21 121.11 133.453 165.059 79.0008 158.002 34.9799 162.187-1.61489 113.972 0 79.0008Z" fill="#FFFFFF" fill-rule="evenodd" fill-opacity="0.4" transform="matrix(1.83697e-16 1 1 -1.83697e-16 1765.5 1707.5)"/><path d="M0 79.0008C10.0773 30.6577 32.69-2.82921 79.0008 0 120.157 1.25214 149.255 39.6019 158.002 79.0008 162.787 125.369 130.728 159.37 79.0008 158.002 27.7192 151.384 3.5099 117.831 0 79.0008Z" stroke="#FFFFFF" stroke-width="4.58333" stroke-miterlimit="8" fill="none" fill-rule="evenodd" transform="matrix(1.83697e-16 1 1 -1.83697e-16 1765.5 1707.5)"/><path d="M0 60.0009C-5.42561 27.9172 29.5456 4.53161 60.0007 0 91.1161 6.66241 116.204 29.438 120.001 60.0009 115.057 92.6833 93.4553 116.878 60.0007 120.002 27.3253 117.434-0.81566 91.5739 0 60.0009Z" fill="#FFFFFF" fill-rule="evenodd" fill-opacity="0.4" transform="matrix(1.83697e-16 1 1 -1.83697e-16 2123.5 362.5)"/><path d="M0 60.0009C2.16297 27.0904 22.7475-1.30114 60.0007 0 99.6826-6.6834 116.283 29.4898 120.001 60.0009 111.397 92.0481 90.015 120.845 60.0007 120.002 31.3379 122.302 3.80688 95.6046 0 60.0009Z" stroke="#FFFFFF" stroke-width="4.58333" stroke-miterlimit="8" fill="none" fill-rule="evenodd" transform="matrix(1.83697e-16 1 1 -1.83697e-16 2123.5 362.5)"/><path d="M0 60.5C1.62239 28.7872 26.3837-4.541 60.5 0 86.5478 1.68258 119.278 24.5668 121 60.5 122.288 90.9166 97.3263 113.524 60.5 121 35.1983 115.751-1.84076 97.6343 0 60.5Z" fill="#FFFFFF" fill-rule="evenodd" fill-opacity="0.4" transform="matrix(1.83697e-16 1 1 -1.83697e-16 2557.5 388.5)"/><path d="M0 60.5C2.69324 23.9144 27.1606 0.7573 60.5 0 90.5204 1.19404 119.658 19.575 121 60.5 117.323 86.7955 100.438 121.43 60.5 121 20.6193 121.298-1.57759 95.0082 0 60.5Z" stroke="#FFFFFF" stroke-width="4.58333" stroke-miterlimit="8" fill="none" fill-rule="evenodd" transform="matrix(1.83697e-16 1 1 -1.83697e-16 2557.5 388.5)"/></g></svg>