<svg width="2943" height="1760" xmlns="http://www.w3.org/2000/svg" xmlns:xlink="http://www.w3.org/1999/xlink" overflow="hidden"><defs><clipPath id="clip0"><rect x="1077" y="110" width="2943" height="1760"/></clipPath></defs><g clip-path="url(#clip0)" transform="translate(-1077 -110)"><rect x="1079.5" y="467.5" width="2035" height="1380" stroke="#148E7A" stroke-width="4.58333" stroke-miterlimit="8" fill="#9DEFE2"/><rect x="1079.5" y="1693.5" width="313" height="154" stroke="#148E7A" stroke-width="4.58333" stroke-miterlimit="8" fill="#1FC2A7"/><text fill="#FFFFFF" font-family="Calibri,Calibri_MSFontService,sans-serif" font-weight="400" font-size="83" transform="matrix(1 0 0 1 1212.11 1798)">A</text><rect x="1392.5" y="1693.5" width="313" height="154" stroke="#148E7A" stroke-width="4.58333" stroke-miterlimit="8" fill="#6CE7D3"/><text fill="#106153" font-family="Calibri,Calibri_MSFontService,sans-serif" font-weight="400" font-size="83" transform="matrix(1 0 0 1 1526.48 1798)">B</text><rect x="1705.5" y="1693.5" width="313" height="154" stroke="#148E7A" stroke-width="4.58333" stroke-miterlimit="8" fill="#6CE7D3"/><text fill="#106153" font-family="Calibri,Calibri_MSFontService,sans-serif" font-weight="400" font-size="83" transform="matrix(1 0 0 1 1839.7 1798)">C</text><path d="M1159.5 585.167C1159.5 574.305 1168.31 565.5 1179.17 565.5L1522.83 565.5C1533.69 565.5 1542.5 574.305 1542.5 585.167L1542.5 663.833C1542.5 674.695 1533.69 683.5 1522.83 683.5L1179.17 683.5C1168.31 683.5 1159.5 674.695 1159.5 663.833Z" stroke="#0684A2" stroke-width="4.58333" stroke-miterlimit="8" fill="#0BB5DD" fill-rule="evenodd"/><path d="M2662.5 585.167C2662.5 574.305 2671.3 565.5 2682.17 565.5L3025.83 565.5C3036.69 565.5 3045.5 574.305 3045.5 585.167L3045.5 663.833C3045.5 674.695 3036.69 683.5 3025.83 683.5L2682.17 683.5C2671.3 683.5 2662.5 674.695 2662.5 663.833Z" stroke="#0684A2" stroke-width="4.58333" stroke-miterlimit="8" fill="#0BB5DD" fill-rule="evenodd"/><path d="M1159.5 745.334C1159.5 734.38 1168.38 725.5 1179.33 725.5L1522.67 725.5C1533.62 725.5 1542.5 734.38 1542.5 745.334L1542.5 824.667C1542.5 835.62 1533.62 844.5 1522.67 844.5L1179.33 844.5C1168.38 844.5 1159.5 835.62 1159.5 824.667Z" stroke="#148E7A" stroke-width="4.58333" stroke-miterlimit="8" fill="#1FC2A7" fill-rule="evenodd"/><path d="M2662.5 745.334C2662.5 734.38 2671.38 725.5 2682.33 725.5L3025.67 725.5C3036.62 725.5 3045.5 734.38 3045.5 745.334L3045.5 824.667C3045.5 835.62 3036.62 844.5 3025.67 844.5L2682.33 844.5C2671.38 844.5 2662.5 835.62 2662.5 824.667Z" stroke="#148E7A" stroke-width="4.58333" stroke-miterlimit="8" fill="#1FC2A7" fill-rule="evenodd"/><path d="M1159.5 906.167C1159.5 895.305 1168.31 886.5 1179.17 886.5L1522.83 886.5C1533.69 886.5 1542.5 895.305 1542.5 906.167L1542.5 984.833C1542.5 995.695 1533.69 1004.5 1522.83 1004.5L1179.17 1004.5C1168.31 1004.5 1159.5 995.695 1159.5 984.833Z" stroke="#148E7A" stroke-width="4.58333" stroke-miterlimit="8" fill="#1FC2A7" fill-rule="evenodd"/><path d="M2662.5 906.167C2662.5 895.305 2671.3 886.5 2682.17 886.5L3025.83 886.5C3036.69 886.5 3045.5 895.305 3045.5 906.167L3045.5 984.833C3045.5 995.695 3036.69 1004.5 3025.83 1004.5L2682.17 1004.5C2671.3 1004.5 2662.5 995.695 2662.5 984.833Z" stroke="#148E7A" stroke-width="4.58333" stroke-miterlimit="8" fill="#1FC2A7" fill-rule="evenodd"/><rect x="2018.5" y="1693.5" width="313" height="154" stroke="#148E7A" stroke-width="4.58333" stroke-miterlimit="8" fill="#6CE7D3"/><text fill="#106153" font-family="Calibri,Calibri_MSFontService,sans-serif" font-weight="400" font-size="83" transform="matrix(1 0 0 1 2149.2 1798)">D</text><path d="M1159.5 1069.17C1159.5 1058.31 1168.31 1049.5 1179.17 1049.5L1522.83 1049.5C1533.69 1049.5 1542.5 1058.31 1542.5 1069.17L1542.5 1147.83C1542.5 1158.69 1533.69 1167.5 1522.83 1167.5L1179.17 1167.5C1168.31 1167.5 1159.5 1158.69 1159.5 1147.83Z" stroke="#148E7A" stroke-width="4.58333" stroke-miterlimit="8" fill="#1FC2A7" fill-rule="evenodd"/><path d="M2662.5 1069.17C2662.5 1058.31 2671.3 1049.5 2682.17 1049.5L3025.83 1049.5C3036.69 1049.5 3045.5 1058.31 3045.5 1069.17L3045.5 1147.83C3045.5 1158.69 3036.69 1167.5 3025.83 1167.5L2682.17 1167.5C2671.3 1167.5 2662.5 1158.69 2662.5 1147.83Z" stroke="#148E7A" stroke-width="4.58333" stroke-miterlimit="8" fill="#1FC2A7" fill-rule="evenodd"/><path d="M1159.5 1229.17C1159.5 1218.31 1168.31 1209.5 1179.17 1209.5L1522.83 1209.5C1533.69 1209.5 1542.5 1218.31 1542.5 1229.17L1542.5 1307.83C1542.5 1318.69 1533.69 1327.5 1522.83 1327.5L1179.17 1327.5C1168.31 1327.5 1159.5 1318.69 1159.5 1307.83Z" stroke="#148E7A" stroke-width="4.58333" stroke-miterlimit="8" fill="#1FC2A7" fill-rule="evenodd"/><path d="M2662.5 1229.17C2662.5 1218.31 2671.3 1209.5 2682.17 1209.5L3025.83 1209.5C3036.69 1209.5 3045.5 1218.31 3045.5 1229.17L3045.5 1307.83C3045.5 1318.69 3036.69 1327.5 3025.83 1327.5L2682.17 1327.5C2671.3 1327.5 2662.5 1318.69 2662.5 1307.83Z" stroke="#148E7A" stroke-width="4.58333" stroke-miterlimit="8" fill="#1FC2A7" fill-rule="evenodd"/><path d="M1159.5 1389.33C1159.5 1378.38 1168.38 1369.5 1179.33 1369.5L1522.67 1369.5C1533.62 1369.5 1542.5 1378.38 1542.5 1389.33L1542.5 1468.67C1542.5 1479.62 1533.62 1488.5 1522.67 1488.5L1179.33 1488.5C1168.38 1488.5 1159.5 1479.62 1159.5 1468.67Z" stroke="#148E7A" stroke-width="4.58333" stroke-miterlimit="8" fill="#1FC2A7" fill-rule="evenodd"/><path d="M1562.5 585C1562.5 574.23 1571.23 565.5 1582 565.5L2610 565.5C2620.77 565.5 2629.5 574.23 2629.5 585L2629.5 663C2629.5 673.769 2620.77 682.5 2610 682.5L1582 682.5C1571.23 682.5 1562.5 673.769 1562.5 663Z" stroke="#0684A2" stroke-width="4.58333" stroke-miterlimit="8" fill="#0BB5DD" fill-rule="evenodd"/><path d="M1562.5 745C1562.5 734.231 1571.23 725.5 1582 725.5L2610 725.5C2620.77 725.5 2629.5 734.231 2629.5 745L2629.5 823C2629.5 833.77 2620.77 842.5 2610 842.5L1582 842.5C1571.23 842.5 1562.5 833.77 1562.5 823Z" stroke="#148E7A" stroke-width="4.58333" stroke-miterlimit="8" fill="#1FC2A7" fill-rule="evenodd"/><path d="M1562.5 905.833C1562.5 895.156 1571.16 886.5 1581.83 886.5L2610.17 886.5C2620.84 886.5 2629.5 895.156 2629.5 905.833L2629.5 983.167C2629.5 993.844 2620.84 1002.5 2610.17 1002.5L1581.83 1002.5C1571.16 1002.5 1562.5 993.844 1562.5 983.167Z" stroke="#148E7A" stroke-width="4.58333" stroke-miterlimit="8" fill="#1FC2A7" fill-rule="evenodd"/><path d="M1562.5 1068.83C1562.5 1058.16 1571.16 1049.5 1581.83 1049.5L2610.17 1049.5C2620.84 1049.5 2629.5 1058.16 2629.5 1068.83L2629.5 1146.17C2629.5 1156.84 2620.84 1165.5 2610.17 1165.5L1581.83 1165.5C1571.16 1165.5 1562.5 1156.84 1562.5 1146.17Z" stroke="#148E7A" stroke-width="4.58333" stroke-miterlimit="8" fill="#1FC2A7" fill-rule="evenodd"/><path d="M1562.5 1228.83C1562.5 1218.16 1571.16 1209.5 1581.83 1209.5L2610.17 1209.5C2620.84 1209.5 2629.5 1218.16 2629.5 1228.83L2629.5 1306.17C2629.5 1316.84 2620.84 1325.5 2610.17 1325.5L1581.83 1325.5C1571.16 1325.5 1562.5 1316.84 1562.5 1306.17Z" stroke="#148E7A" stroke-width="4.58333" stroke-miterlimit="8" fill="#1FC2A7" fill-rule="evenodd"/><path d="M1562.5 1389C1562.5 1378.23 1571.23 1369.5 1582 1369.5L2610 1369.5C2620.77 1369.5 2629.5 1378.23 2629.5 1389L2629.5 1467C2629.5 1477.77 2620.77 1486.5 2610 1486.5L1582 1486.5C1571.23 1486.5 1562.5 1477.77 1562.5 1467Z" stroke="#148E7A" stroke-width="4.58333" stroke-miterlimit="8" fill="#1FC2A7" fill-rule="evenodd"/><path d="M2662.5 1389.33C2662.5 1378.38 2671.38 1369.5 2682.33 1369.5L3025.67 1369.5C3036.62 1369.5 3045.5 1378.38 3045.5 1389.33L3045.5 1468.67C3045.5 1479.62 3036.62 1488.5 3025.67 1488.5L2682.33 1488.5C2671.38 1488.5 2662.5 1479.62 2662.5 1468.67Z" stroke="#148E7A" stroke-width="4.58333" stroke-miterlimit="8" fill="#1FC2A7" fill-rule="evenodd"/><text fill="#595959" font-family="Calibri,Calibri_MSFontService,sans-serif" font-weight="400" font-size="83" transform="matrix(1 0 0 1 1241.16 649)">Source<tspan font-size="83" x="1546.11" y="-4">Sink</tspan><tspan font-size="83" x="431.226" y="1">Parameter [</tspan></text><text fill="#595959" font-family="Arial,Arial_MSFontService,sans-serif" font-weight="400" font-size="83" transform="translate(2066.35 650)">´</text><text fill="#595959" font-family="Calibri,Calibri_MSFontService,sans-serif" font-weight="400" font-size="83" transform="matrix(1 0 0 1 2093.85 650)">parent term’]</text><text fill="#595959" font-family="Arial,Arial_MSFontService,sans-serif" font-weight="400" font-size="83" transform="translate(1925.68 812)">´</text><text fill="#595959" font-family="Calibri,Calibri_MSFontService,sans-serif" font-weight="400" font-size="83" transform="matrix(1 0 0 1 1953.18 812)">child term’</text><path d="M273.924 9.6675 293.237 4.5425 312.923 0.280156 332.634-2.97131 352.332-5.26661 371.993-6.54814 391.491-6.93619 410.93-6.43515 430.208-4.98028 449.339-2.63614 468.204 0.532901 486.922 4.66211 505.27 9.54425 523.383 15.2566 541.206 21.8677 558.544 29.1642 575.588 37.2963 592.205 46.2637 608.273 55.8465 623.939 66.2797 639.073 77.3986 653.633 89.1521 667.649 101.691 681.065 114.842 693.805 128.653 705.855 143.175 717.236 158.232 727.883 173.962 737.756 190.252 746.81 207.128 755.033 224.572 762.421 242.51 768.925 261.038 769.92 264.372 756.734 268.271 755.95 265.587 749.704 247.74 742.592 230.428 734.69 213.622 725.994 197.373 716.492 181.663 706.264 166.518 695.27 151.95 683.695 137.972 671.435 124.658 658.476 111.934 644.992 99.8479 630.927 88.4763 616.311 77.7203 601.227 67.6535 585.67 58.3613 569.662 49.7037 553.206 41.8358 536.419 34.7573 519.242 28.3684 501.73 22.8307 483.953 18.0879 465.921 14.0921 447.661 11.0111 429.167 8.73028 410.57 7.31015 391.759 6.81119 372.882 7.17314 353.918 8.39161 334.866 10.5963 315.827 13.7198 296.763 17.8325 277.451 22.9575ZM781.381 221.579 767.196 279.406 723.843 238.594C721.078 235.992 720.947 231.641 723.549 228.876 726.152 226.111 730.503 225.98 733.267 228.582L768.04 261.315 756.65 264.683 768.027 218.303C768.932 214.616 772.655 212.359 776.342 213.264 780.03 214.169 782.286 217.891 781.381 221.579Z" fill="#595959" transform="matrix(0.707107 -0.707107 -0.707107 -0.707107 2072.96 1442.82)"/><text fill="#595959" font-family="Arial,Arial_MSFontService,sans-serif" font-weight="400" font-size="83" transform="translate(1924.51 979)">´</text><text fill="#595959" font-family="Calibri,Calibri_MSFontService,sans-serif" font-weight="400" font-size="83" transform="matrix(1 0 0 1 1952.01 979)">child term’</text><text fill="#595959" font-family="Arial,Arial_MSFontService,sans-serif" font-weight="400" font-size="83" transform="translate(1923.34 1140)">´</text><text fill="#595959" font-family="Calibri,Calibri_MSFontService,sans-serif" font-weight="400" font-size="83" transform="matrix(1 0 0 1 1950.84 1140)">child term’</text><text fill="#595959" font-family="Arial,Arial_MSFontService,sans-serif" font-weight="400" font-size="83" transform="translate(1922.17 1296)">´</text><text fill="#595959" font-family="Calibri,Calibri_MSFontService,sans-serif" font-weight="400" font-size="83" transform="matrix(1 0 0 1 1949.67 1296)">child term’</text><text fill="#595959" font-family="Arial,Arial_MSFontService,sans-serif" font-weight="400" font-size="83" transform="translate(1921 1453)">´</text><text fill="#595959" font-family="Calibri,Calibri_MSFontService,sans-serif" font-weight="400" font-size="83" transform="matrix(1 0 0 1 1948.5 1453)">child term’</text><path d="M3370.5 614C3370.5 460.741 3494.74 336.5 3648 336.5 3801.26 336.5 3925.5 460.741 3925.5 614 3925.5 767.259 3801.26 891.5 3648 891.5 3494.74 891.5 3370.5 767.259 3370.5 614Z" stroke="#0684A2" stroke-width="4.58333" stroke-miterlimit="8" fill="#0BB5DD" fill-rule="evenodd"/><rect x="3594.5" y="208.5" width="59.9998" height="26.9998" stroke="#000000" stroke-width="4.58333" stroke-miterlimit="8" fill="#FFFFFF" fill-opacity="0.0509804"/><path d="M3654 221 3701.41 221" stroke="#000000" stroke-width="2.29167" stroke-miterlimit="8" fill="#FFFFFF" fill-rule="evenodd" fill-opacity="0.0509804"/><path d="M3701 221 3721.03 302.446" stroke="#000000" stroke-width="2.29167" stroke-miterlimit="8" fill="#FFFFFF" fill-rule="evenodd" fill-opacity="0.0509804"/><rect x="3638.5" y="481.5" width="59.9998" height="26.9998" stroke="#000000" stroke-width="4.58333" stroke-miterlimit="8" fill="#FFFFFF" fill-opacity="0.0509804"/><path d="M3698 495 3740.64 495" stroke="#000000" stroke-width="2.29167" stroke-miterlimit="8" fill="#FFFFFF" fill-rule="evenodd" fill-opacity="0.0509804"/><path d="M0 0 20.0302 81.4458" stroke="#000000" stroke-width="2.29167" stroke-miterlimit="8" fill="#FFFFFF" fill-rule="evenodd" fill-opacity="0.0509804" transform="matrix(1 0 0 -1 3741 494.446)"/><rect x="3957.5" y="260.5" width="59.9998" height="26.9998" stroke="#000000" stroke-width="4.58333" stroke-miterlimit="8" fill="#FFFFFF" fill-opacity="0.0509804"/><path d="M3925 274 3956.15 274" stroke="#000000" stroke-width="2.29167" stroke-miterlimit="8" fill="#FFFFFF" fill-rule="evenodd" fill-opacity="0.0509804"/><path d="M0 0 87.8138 46.7666" stroke="#000000" stroke-width="2.29167" stroke-miterlimit="8" fill="#FFFFFF" fill-rule="evenodd" fill-opacity="0.0509804" transform="matrix(1 0 0 -1 3838 320.767)"/><rect x="3820.5" y="442.5" width="43" height="89" stroke="#000000" stroke-width="4.58333" stroke-miterlimit="8" fill="#FFFFFF" fill-opacity="0.0509804"/><rect x="3872.5" y="419.5" width="43.0002" height="112" stroke="#000000" stroke-width="4.58333" stroke-miterlimit="8" fill="#FFFFFF" fill-opacity="0.0509804"/><rect x="3923.5" y="395.5" width="44" height="136" stroke="#000000" stroke-width="4.58333" stroke-miterlimit="8" fill="#FFFFFF" fill-opacity="0.0509804"/><path d="M3801.39 484.835C3730.31 486.071 3671.68 429.445 3670.44 358.359 3669.21 287.273 3725.83 228.645 3796.92 227.41 3868.01 226.175 3926.63 282.8 3927.87 353.886 3927.93 357.113 3927.86 360.342 3927.67 363.565" stroke="#000000" stroke-width="10.3125" stroke-linecap="round" stroke-miterlimit="8" fill="none" fill-rule="evenodd"/><path d="M0 0 25.6984 28.4004" stroke="#000000" stroke-width="10.3125" stroke-linecap="round" stroke-miterlimit="8" fill="none" fill-rule="evenodd" transform="matrix(1 0 0 -1 3926 370.4)"/><path d="M0 0 25.6984 28.4004" stroke="#000000" stroke-width="10.3125" stroke-linecap="round" stroke-miterlimit="8" fill="none" fill-rule="evenodd" transform="matrix(-1.83697e-16 -1 -1 1.83697e-16 3925.4 369.699)"/><path d="M3745.29 385.695C3739.54 375.497 3739.49 352.866 3745.65 339.33 3751.8 325.793 3763.24 306.755 3795.06 306.287 3806.12 306.124 3822.33 303.514 3832.73 300.967 3843.14 298.42 3852.88 290.84 3857.49 291.003 3862.09 291.165 3861.11 295.515 3860.36 301.943 3859.62 308.37 3856.25 321.347 3853.02 329.568 3849.79 337.788 3840.93 361.707 3834.24 372.627 3827.54 383.547 3821.85 390.44 3812.84 395.088 3803.82 399.736 3791.4 402.082 3780.14 400.516 3768.89 398.951 3751.04 395.892 3745.29 385.695Z" stroke="#000000" stroke-width="10.3125" stroke-linecap="round" stroke-miterlimit="8" fill="none" fill-rule="evenodd"/><path d="M3732 418C3737.46 394.299 3742.93 370.597 3791 355" stroke="#000000" stroke-width="10.3125" stroke-linecap="round" stroke-miterlimit="8" fill="none" fill-rule="evenodd"/><path d="M3948.74 115.956C3954.64 115.971 3960.61 117.625 3965.88 121.027 3972.99 125.996 3977.39 133.225 3978.77 140.99 3980.14 148.755 3978.5 157.055 3973.53 164.164L3929.17 227.645C3923.14 236.278 3913.67 240.626 3903.88 240.583L3897.28 250.021 3894.11 247.134C3889.87 243.637 3885.46 240.34 3880.9 237.257L3868.95 229.997 3875.44 220.709C3872.03 211.524 3872.86 201.144 3878.89 192.511L3923.25 129.03C3929.24 120.46 3938.9 115.932 3948.74 115.956Z" stroke="#000000" stroke-width="10.3125" stroke-linecap="round" stroke-miterlimit="8" fill="none" fill-rule="evenodd"/><path d="M3774 513C3785.87 513 3795.5 523.261 3795.5 535.919L3795.5 627.581C3795.5 640.239 3805.13 650.5 3817 650.5 3805.13 650.5 3795.5 660.761 3795.5 673.419L3795.5 765.081C3795.5 777.739 3785.87 788 3774 788" stroke="#2D3E50" stroke-width="10.3125" stroke-miterlimit="8" fill="none" fill-rule="evenodd"/><path d="M3518 791C3505.85 791 3496 780.5 3496 767.548L3496 676.952C3496 664 3486.15 653.5 3474 653.5 3486.15 653.5 3496 643 3496 630.048L3496 539.452C3496 526.5 3505.85 516 3518 516" stroke="#2D3E50" stroke-width="10.3125" stroke-miterlimit="8" fill="none" fill-rule="evenodd"/><path d="M3568 570 3723 570 3723 602.988 3665.26 602.988 3665.26 765 3625.88 765 3625.88 602.988 3568 602.988Z" fill="#2D3E50" fill-rule="evenodd"/><text fill="#595959" font-family="Calibri,Calibri_MSFontService,sans-serif" font-weight="400" font-size="165" transform="matrix(1 0 0 1 3208.15 670)">=</text></g></svg>