<svg width="1736" height="827" xmlns="http://www.w3.org/2000/svg" xmlns:xlink="http://www.w3.org/1999/xlink" xml:space="preserve" overflow="hidden"><defs><clipPath id="clip0"><rect x="1368" y="887" width="1736" height="827"/></clipPath><clipPath id="clip1"><rect x="2157" y="1211" width="93" height="90"/></clipPath><clipPath id="clip2"><rect x="2157" y="1211" width="93" height="90"/></clipPath><clipPath id="clip3"><rect x="2157" y="1211" width="93" height="90"/></clipPath><clipPath id="clip4"><rect x="2367" y="1519" width="152" height="159"/></clipPath><clipPath id="clip5"><rect x="2367" y="1519" width="152" height="159"/></clipPath><clipPath id="clip6"><rect x="2367" y="1519" width="152" height="159"/></clipPath><clipPath id="clip7"><rect x="2468" y="1145" width="130" height="126"/></clipPath><clipPath id="clip8"><rect x="2468" y="1145" width="130" height="126"/></clipPath><clipPath id="clip9"><rect x="2468" y="1145" width="130" height="126"/></clipPath><clipPath id="clip10"><rect x="1986" y="1556" width="119" height="123"/></clipPath><clipPath id="clip11"><rect x="1986" y="1556" width="119" height="123"/></clipPath><clipPath id="clip12"><rect x="1986" y="1556" width="119" height="123"/></clipPath><clipPath id="clip13"><rect x="1845" y="1290" width="95" height="95"/></clipPath><clipPath id="clip14"><rect x="1845" y="1290" width="95" height="95"/></clipPath><clipPath id="clip15"><rect x="1845" y="1290" width="95" height="95"/></clipPath><clipPath id="clip16"><rect x="1807" y="1227" width="110" height="112"/></clipPath><clipPath id="clip17"><rect x="1807" y="1227" width="110" height="112"/></clipPath><clipPath id="clip18"><rect x="1807" y="1227" width="110" height="112"/></clipPath><clipPath id="clip19"><rect x="1961" y="972" width="112" height="116"/></clipPath><clipPath id="clip20"><rect x="1961" y="972" width="112" height="116"/></clipPath><clipPath id="clip21"><rect x="1961" y="972" width="112" height="116"/></clipPath></defs><g clip-path="url(#clip0)" transform="translate(-1368 -887)"><path d="M1867 1315C1867 1118.94 2019 960 2206.5 960 2394 960 2546 1118.94 2546 1315 2546 1511.06 2394 1670 2206.5 1670 2019 1670 1867 1511.06 1867 1315Z" fill="#C1C9D4" fill-rule="evenodd"/><path d="M2083 1314.5C2083 1243.53 2138.07 1186 2206 1186 2273.93 1186 2329 1243.53 2329 1314.5 2329 1385.47 2273.93 1443 2206 1443 2138.07 1443 2083 1385.47 2083 1314.5Z" fill="#F2F2F2" fill-rule="evenodd"/><path d="M2174.41 1307.26C2172.34 1305.47 2171.33 1303.99 2166.25 1308.38 2161.16 1312.76 2150.16 1324.07 2143.9 1333.59 2137.63 1343.1 2131.3 1357.62 2128.64 1365.47 2125.98 1373.32 2125.86 1376.22 2127.93 1380.67 2130 1385.12 2133.37 1387.28 2141.06 1392.17 2148.75 1397.05 2174.05 1409.96 2174.05 1409.96 2183.75 1415.09 2191.67 1421.45 2199.24 1422.94 2206.81 1424.42 2210.18 1422.94 2219.46 1418.86 2228.74 1414.78 2244.83 1404.46 2254.94 1398.47 2265.05 1392.47 2275.34 1387.84 2280.12 1382.9 2284.91 1377.95 2285.21 1374.49 2283.67 1368.81 2282.14 1363.12 2280.89 1357.69 2275.16 1348.79 2269.42 1339.89 2256 1322.4 2249.26 1315.42 2242.52 1308.44 2238.8 1304.61 2234.72 1306.89 2230.64 1309.18 2229.16 1319.68 2224.78 1329.14 2220.41 1338.59 2212.25 1357.31 2208.46 1363.62 2204.68 1369.92 2205.21 1369.92 2202.08 1366.95 2198.94 1363.99 2193.92 1354.47 2189.66 1345.82 2185.4 1337.17 2180.85 1325.68 2178.66 1319.13 2176.48 1312.58 2176.48 1309.05 2174.41 1307.26Z" stroke="#0684A2" stroke-width="9.16667" stroke-miterlimit="8" fill="#0BB5DD" fill-rule="evenodd"/><path d="M2160.5 1254C2160.5 1229.42 2179.75 1209.5 2203.5 1209.5 2227.25 1209.5 2246.5 1229.42 2246.5 1254 2246.5 1278.58 2227.25 1298.5 2203.5 1298.5 2179.75 1298.5 2160.5 1278.58 2160.5 1254Z" stroke="#0684A2" stroke-width="9.16667" stroke-miterlimit="8" fill="#0BB5DD" fill-rule="evenodd"/><g clip-path="url(#clip1)"><g clip-path="url(#clip2)"><g clip-path="url(#clip3)"><path d="M84.7355 32.7261C82.6959 31.9844 73.7959 29.2031 66.75 29.2031 60.9094 29.2031 47.5594 32.1698 44.5 32.8188 41.4406 32.1698 28.0906 29.2031 22.25 29.2031 15.2969 29.2031 6.39688 31.9844 4.26459 32.7261 3.98646 32.8188 3.70833 33.0969 3.70833 33.4677L3.70833 37.2688C3.70833 37.9177 3.89375 38.6594 4.45 39.0302L5.5625 39.9573C5.65521 43.6656 6.11875 49.2281 7.7875 51.9167 9.9198 55.625 16.5021 59.7969 23.1771 59.7969 34.9511 59.7969 40.5136 50.8969 42.5531 42.7386 42.7386 41.9042 43.5729 41.2552 44.5 41.2552 45.4271 41.2552 46.1688 41.9042 46.4469 42.7386 48.5792 50.8969 54.1417 59.7969 65.8229 59.7969 72.4979 59.7969 79.0802 55.625 81.2125 51.9167 82.7886 49.1354 83.2521 43.6656 83.4375 39.9573L84.55 39.1229C85.1063 38.7521 85.2917 37.9177 85.2917 37.3615L85.2917 33.5604C85.199 33.0969 85.0136 32.8188 84.7355 32.7261ZM36.9906 41.9969C35.4146 47.5594 33.0969 55.1615 23.1771 55.1615 18.9125 55.1615 14.2771 53.1219 12.3302 50.1552 11.0323 48.1156 11.125 43.2021 11.125 38.9375 11.125 37.6396 11.9594 36.5271 13.2573 36.1563 16.0385 35.4146 19.376 34.7656 22.25 34.7656 24.475 34.7656 28.925 35.4146 33.2823 36.249 35.9708 36.7125 37.7323 39.4011 36.9906 41.9969ZM76.6698 50.1552C74.7229 53.1219 70.0875 55.1615 65.8229 55.1615 55.9959 55.1615 53.5854 47.5594 52.0094 41.9969 51.2677 39.4011 53.0292 36.7125 55.625 36.249 59.9823 35.4146 64.4323 34.7656 66.6573 34.7656 69.624 34.7656 72.8688 35.4146 75.65 36.1563 76.9479 36.5271 77.7823 37.6396 77.7823 38.9375 77.875 43.2021 77.9677 48.1156 76.6698 50.1552Z" stroke="#0888A6" stroke-width="0.927084" fill="#FFFFFF" transform="matrix(1.03371 0 0 1 2157 1211)"/></g></g></g><path d="M2208.8 1315.78 2211.8 1305.78 2193.8 1305.78 2196.8 1315.78Z" stroke="#0684A2" stroke-width="9.16667" stroke-miterlimit="8" fill="#0BB5DD" fill-rule="evenodd"/><path d="M2211.5 1362.59 2208.5 1319.5 2196.5 1319.5 2193.5 1362.59 2202.5 1371.5 2211.5 1362.59Z" stroke="#0684A2" stroke-width="9.16667" stroke-miterlimit="8" fill="#0BB5DD" fill-rule="evenodd"/><path d="M2239 1345 2239 1367.62" stroke="#0888A6" stroke-width="13.75" stroke-linecap="round" stroke-miterlimit="8" fill="none" fill-rule="evenodd"/><path d="M2245 1348 2245 1370.62" stroke="#0888A6" stroke-width="13.75" stroke-linecap="round" stroke-miterlimit="8" fill="none" fill-rule="evenodd"/><path d="M2246.17 1376.5 2241.83 1376.5C2235.57 1376.5 2230.5 1371.05 2230.5 1364.34L2230.5 1354.5 2257.5 1354.5 2257.5 1364.34C2257.5 1371.05 2252.43 1376.5 2246.17 1376.5Z" stroke="#0684A2" stroke-width="9.16667" stroke-miterlimit="8" fill="#0BB5DD" fill-rule="evenodd"/><path d="M2356.5 1584.5C2356.5 1534.24 2395.45 1493.5 2443.5 1493.5 2491.55 1493.5 2530.5 1534.24 2530.5 1584.5 2530.5 1634.76 2491.55 1675.5 2443.5 1675.5 2395.45 1675.5 2356.5 1634.76 2356.5 1584.5Z" stroke="#2D3E50" stroke-width="9.16667" stroke-miterlimit="8" fill="#FFFFFF" fill-rule="evenodd"/><g clip-path="url(#clip4)"><g clip-path="url(#clip5)"><g clip-path="url(#clip6)"><path d="M71.0916 114.633C70.3 114.633 69.35 114.475 68.7166 113.842 67.45 112.733 67.2916 110.675 68.4 109.408L74.575 102.283C75.6833 101.017 77.7416 100.858 79.0083 101.967 80.275 103.075 80.4333 105.133 79.325 106.4L73.15 113.525C72.675 114.158 71.8833 114.475 71.0916 114.633Z" fill="#0BB5DD" transform="matrix(1 0 0 1.03947 2367 1519)"/><path d="M61.4333 110.992C60.325 111.15 59.375 110.833 58.425 110.042 56.8416 108.617 56.6833 106.083 58.1083 104.5L65.3916 96.1083C66.8166 94.525 69.35 94.3666 70.9333 95.7916 72.5166 97.2166 72.675 99.75 71.25 101.333L63.9666 109.725C63.3333 110.517 62.3833 110.992 61.4333 110.992Z" fill="#0BB5DD" transform="matrix(1 0 0 1.03947 2367 1519)"/><path d="M51.4583 105.133C50.1916 105.292 48.925 104.817 47.975 104.025 46.075 102.283 45.7583 99.275 47.5 97.375L54.7833 88.9833C56.525 87.0833 59.5333 86.7666 61.4333 88.5083 63.3333 90.25 63.65 93.2583 61.9083 95.1583L54.625 103.55C53.8333 104.5 52.5666 105.133 51.4583 105.133Z" fill="#0BB5DD" transform="matrix(1 0 0 1.03947 2367 1519)"/><path d="M39.9 99.275C38.6333 99.4333 37.3666 98.9583 36.4167 98.1666 34.5167 96.425 34.2 93.4166 35.9417 91.5166L44.3333 82.0166C46.075 80.1166 49.0833 79.8 50.9833 81.5416 52.8833 83.2833 53.2 86.2916 51.4583 88.1916L43.0667 97.6916C42.1166 98.6416 41.0083 99.1166 39.9 99.275Z" fill="#0BB5DD" transform="matrix(1 0 0 1.03947 2367 1519)"/><path d="M7.28333 64.4416 19.475 71.8833C20.9 72.8333 22.9583 72.3583 23.75 70.775L38.475 46.3916C39.425 44.9666 38.95 42.9083 37.3666 42.1166L25.3333 34.675 7.28333 64.4416Z" fill="#0BB5DD" transform="matrix(1 0 0 1.03947 2367 1519)"/><path d="M109.883 85.1833 84.3916 63.3333 82.65 61.75 71.725 74.2583C70.1416 76.1583 67.925 77.2666 65.3916 77.425 65.075 77.425 64.7583 77.425 64.6 77.425 62.225 77.425 60.0083 76.6333 58.425 75.05 54.4666 71.5666 54.15 65.55 57.475 61.5916L66.8166 50.825C59.5333 49.875 50.1916 53.675 40.5333 48.925L26.7583 71.725 37.525 84.2333 41.6416 79.4833C43.0667 77.7416 45.2833 76.7916 47.6583 76.7916L47.6583 76.7916C49.5583 76.7916 51.4583 77.425 52.8833 78.6916 54.625 80.1166 55.4166 82.175 55.575 84.3916 56.3666 84.075 57.3166 83.9166 58.2666 83.9166 60.1666 83.9166 62.0666 84.55 63.4916 85.8166 65.2333 87.4 66.1833 89.4583 66.1833 91.675 66.8166 91.5166 67.6083 91.3583 68.2416 91.3583L68.2416 91.3583C69.9833 91.3583 71.5666 91.9916 72.9916 93.1 74.4166 94.3666 75.2083 96.1083 75.3666 98.0083 75.8416 97.85 76.475 97.6916 77.1083 97.6916L77.1083 97.6916C78.6916 97.6916 80.1166 98.1666 81.225 99.275 82.4916 100.383 83.2833 101.967 83.4416 103.55 83.6 105.292 82.9666 106.875 81.8583 108.142L76.475 114.317 78.6916 116.058C79.8 116.692 81.0666 117.167 82.4916 117.008 85.975 116.692 88.5083 113.683 88.1916 110.2 88.1916 110.2 88.1916 110.042 88.1916 110.042 88.6666 110.2 89.3 110.2 89.775 110.2 93.2583 109.883 95.7916 106.875 95.475 103.392 95.475 103.392 95.475 103.233 95.475 103.233 95.95 103.392 96.5833 103.392 97.0583 103.392 100.542 103.075 103.075 100.067 102.758 96.5833 102.758 96.2666 102.6 95.95 102.6 95.6333 103.55 96.1083 104.658 96.425 105.925 96.2666 109.408 95.95 111.942 92.9416 111.625 89.4583 111.783 87.7166 110.992 86.2916 109.883 85.1833Z" fill="#0BB5DD" transform="matrix(1 0 0 1.03947 2367 1519)"/><path d="M144.717 64.4416 132.525 71.8833C131.1 72.8333 129.042 72.3583 128.25 70.775L113.525 46.3916C112.575 44.9666 113.05 42.9083 114.633 42.1166L126.825 34.675 144.717 64.4416Z" fill="#0BB5DD" transform="matrix(1 0 0 1.03947 2367 1519)"/><path d="M111.625 49.5583C98.4833 54.3083 88.9833 49.7166 78.375 47.6583 78.2166 47.6583 77.5833 47.5 77.5833 47.5 75.6833 47.3416 73.625 47.975 72.2 49.5583L59.6916 63.8083C57.3166 66.5 57.6333 70.4583 60.325 72.675 61.75 73.7833 63.3333 74.4166 65.075 74.2583 66.6583 74.1 68.2416 73.4666 69.35 72.0416 69.35 72.0416 82.3333 57.1583 82.3333 57.1583L111.942 82.65 111.942 82.65 111.942 82.65C112.733 83.4416 113.05 83.7583 113.683 84.7083L125.083 71.5666 111.625 49.5583Z" fill="#0BB5DD" transform="matrix(1 0 0 1.03947 2367 1519)"/></g></g></g><path d="M2445.5 1207.5C2445.5 1157.24 2484.45 1116.5 2532.5 1116.5 2580.55 1116.5 2619.5 1157.24 2619.5 1207.5 2619.5 1257.76 2580.55 1298.5 2532.5 1298.5 2484.45 1298.5 2445.5 1257.76 2445.5 1207.5Z" stroke="#2D3E50" stroke-width="9.16667" stroke-miterlimit="8" fill="#FFFFFF" fill-rule="evenodd"/><g clip-path="url(#clip7)"><g clip-path="url(#clip8)"><g clip-path="url(#clip9)"><path d="M58.5938 87.2397 66.4063 87.2397 66.4063 97.6563 58.5938 97.6563Z" fill="#0BB5DD" transform="matrix(1.032 0 0 1 2468 1145)"/><path d="M58.5938 102.865 66.4063 102.865 66.4063 110.677 58.5938 110.677Z" fill="#0BB5DD" transform="matrix(1.032 0 0 1 2468 1145)"/><path d="M71.6147 102.865 109.375 102.865 109.375 110.677 71.6147 110.677Z" fill="#0BB5DD" transform="matrix(1.032 0 0 1 2468 1145)"/><path d="M15.625 102.865 53.3855 102.865 53.3855 110.677 15.625 110.677Z" fill="#0BB5DD" transform="matrix(1.032 0 0 1 2468 1145)"/><path d="M99.5053 66.4063 25.4948 66.4063C22.9203 66.4063 20.8334 68.4933 20.8334 71.0678L20.8334 82.5782C20.8334 85.1527 22.9203 87.2397 25.4948 87.2397L99.5053 87.2397C102.08 87.2397 104.167 85.1527 104.167 82.5782L104.167 71.0678C104.167 68.4933 102.08 66.4063 99.5053 66.4063ZM33.8542 79.4272C32.4159 79.4272 31.25 78.2613 31.25 76.823 31.25 75.3847 32.4159 74.2188 33.8542 74.2188 35.2925 74.2188 36.4584 75.3847 36.4584 76.823 36.4584 78.2613 35.2925 79.4272 33.8542 79.4272ZM46.875 79.4272C45.4368 79.4272 44.2709 78.2613 44.2709 76.823 44.2709 75.3847 45.4368 74.2188 46.875 74.2188 48.3133 74.2188 49.4792 75.3847 49.4792 76.823 49.4792 78.2613 48.3133 79.4272 46.875 79.4272ZM59.8959 79.4272C58.4576 79.4272 57.2917 78.2613 57.2917 76.823 57.2917 75.3847 58.4576 74.2188 59.8959 74.2188 61.3342 74.2188 62.5001 75.3847 62.5001 76.823 62.5001 78.2613 61.3342 79.4272 59.8959 79.4272Z" fill="#0BB5DD" transform="matrix(1.032 0 0 1 2468 1145)"/><path d="M99.5053 40.3646 25.4948 40.3646C22.9203 40.3646 20.8334 42.4516 20.8334 45.0261L20.8334 56.5365C20.8334 59.111 22.9203 61.198 25.4948 61.198L99.5053 61.198C102.08 61.198 104.167 59.111 104.167 56.5365L104.167 45.0261C104.167 42.4516 102.08 40.3646 99.5053 40.3646ZM33.8542 53.3855C32.4159 53.3855 31.25 52.2196 31.25 50.7813 31.25 49.343 32.4159 48.1771 33.8542 48.1771 35.2925 48.1771 36.4584 49.343 36.4584 50.7813 36.4584 52.2196 35.2925 53.3855 33.8542 53.3855ZM46.875 53.3855C45.4368 53.3855 44.2709 52.2196 44.2709 50.7813 44.2709 49.343 45.4368 48.1771 46.875 48.1771 48.3133 48.1771 49.4792 49.343 49.4792 50.7813 49.4792 52.2196 48.3133 53.3855 46.875 53.3855ZM59.8959 53.3855C58.4576 53.3855 57.2917 52.2196 57.2917 50.7813 57.2917 49.343 58.4576 48.1771 59.8959 48.1771 61.3342 48.1771 62.5001 49.343 62.5001 50.7813 62.5001 52.2196 61.3342 53.3855 59.8959 53.3855Z" fill="#0BB5DD" transform="matrix(1.032 0 0 1 2468 1145)"/><path d="M99.5053 14.3229 25.4948 14.3229C22.9203 14.3229 20.8334 16.4099 20.8334 18.9844L20.8334 30.4948C20.8334 33.0693 22.9203 35.1563 25.4948 35.1563L99.5053 35.1563C102.08 35.1563 104.167 33.0693 104.167 30.4948L104.167 18.9844C104.167 16.4099 102.08 14.3229 99.5053 14.3229ZM33.8542 27.3438C32.4159 27.3438 31.25 26.1779 31.25 24.7396 31.25 23.3013 32.4159 22.1354 33.8542 22.1354 35.2925 22.1354 36.4584 23.3013 36.4584 24.7396 36.4584 26.1779 35.2925 27.3438 33.8542 27.3438ZM46.875 27.3438C45.4368 27.3438 44.2709 26.1779 44.2709 24.7396 44.2709 23.3013 45.4368 22.1354 46.875 22.1354 48.3133 22.1354 49.4792 23.3013 49.4792 24.7396 49.4792 26.1779 48.3133 27.3438 46.875 27.3438ZM59.8959 27.3438C58.4576 27.3438 57.2917 26.1779 57.2917 24.7396 57.2917 23.3013 58.4576 22.1354 59.8959 22.1354 61.3342 22.1354 62.5001 23.3013 62.5001 24.7396 62.5001 26.1779 61.3342 27.3438 59.8959 27.3438Z" fill="#0BB5DD" transform="matrix(1.032 0 0 1 2468 1145)"/></g></g></g><path d="M1958.5 1618.5C1958.5 1568.24 1997.45 1527.5 2045.5 1527.5 2093.55 1527.5 2132.5 1568.24 2132.5 1618.5 2132.5 1668.76 2093.55 1709.5 2045.5 1709.5 1997.45 1709.5 1958.5 1668.76 1958.5 1618.5Z" stroke="#2D3E50" stroke-width="9.16667" stroke-miterlimit="8" fill="#FFFFFF" fill-rule="evenodd"/><g clip-path="url(#clip10)"><g clip-path="url(#clip11)"><g clip-path="url(#clip12)"><path d="M28.0313 99.9377 28.0313 17.0625 58.5001 17.0625 58.5001 42.6563 88.9689 42.6563 88.9689 99.9377 28.0313 99.9377ZM65.8126 20.1094 81.047 35.3438 65.8126 35.3438 65.8126 20.1094ZM65.8126 9.75002 20.7188 9.75002 20.7188 107.25 96.2814 107.25 96.2814 36.5626 65.8126 9.75002Z" fill="#0BB5DD" transform="matrix(1 0 0 1.04273 1987 1557)"/><path d="M35.3438 54.8439 81.6564 54.8439 81.6564 59.7189 35.3438 59.7189Z" fill="#0BB5DD" transform="matrix(1 0 0 1.04273 1987 1557)"/><path d="M35.3438 45.0938 51.1876 45.0938 51.1876 49.9688 35.3438 49.9688Z" fill="#0BB5DD" transform="matrix(1 0 0 1.04273 1987 1557)"/><path d="M35.3438 64.5939 81.6564 64.5939 81.6564 69.4689 35.3438 69.4689Z" fill="#0BB5DD" transform="matrix(1 0 0 1.04273 1987 1557)"/><path d="M35.3438 74.3439 81.6564 74.3439 81.6564 79.2189 35.3438 79.2189Z" fill="#0BB5DD" transform="matrix(1 0 0 1.04273 1987 1557)"/><path d="M35.3438 84.0939 81.6564 84.0939 81.6564 88.9689 35.3438 88.9689Z" fill="#0BB5DD" transform="matrix(1 0 0 1.04273 1987 1557)"/></g></g></g><path d="M1785.5 1315.5C1785.5 1265.24 1824.45 1224.5 1872.5 1224.5 1920.55 1224.5 1959.5 1265.24 1959.5 1315.5 1959.5 1365.76 1920.55 1406.5 1872.5 1406.5 1824.45 1406.5 1785.5 1365.76 1785.5 1315.5Z" stroke="#2D3E50" stroke-width="9.16667" stroke-miterlimit="8" fill="#FFFFFF" fill-rule="evenodd"/><g clip-path="url(#clip13)"><g clip-path="url(#clip14)"><g clip-path="url(#clip15)"><path d="M54.2501 21.3125C54.2501 25.5928 50.7803 29.0626 46.5001 29.0626 42.2199 29.0626 38.7501 25.5928 38.7501 21.3125 38.7501 17.0323 42.2199 13.5625 46.5001 13.5625 50.7803 13.5625 54.2501 17.0323 54.2501 21.3125Z" fill="#1FC2A7" transform="matrix(-1 1.22465e-16 -1.25098e-16 -1.0215 1939 1385)"/><path d="M54.2501 71.6876C54.2501 75.9678 50.7803 79.4376 46.5001 79.4376 42.2199 79.4376 38.7501 75.9678 38.7501 71.6876 38.7501 67.4074 42.2199 63.9376 46.5001 63.9376 50.7803 63.9376 54.2501 67.4074 54.2501 71.6876Z" fill="#1FC2A7" transform="matrix(-1 1.22465e-16 -1.25098e-16 -1.0215 1939 1385)"/><path d="M79.4376 21.3125C79.4376 25.5928 75.9678 29.0626 71.6876 29.0626 67.4074 29.0626 63.9376 25.5928 63.9376 21.3125 63.9376 17.0323 67.4074 13.5625 71.6876 13.5625 75.9678 13.5625 79.4376 17.0323 79.4376 21.3125Z" fill="#1FC2A7" transform="matrix(-1 1.22465e-16 -1.25098e-16 -1.0215 1939 1385)"/><path d="M70.7189 32.9376 70.7189 44.5626 48.4376 44.5626 48.4376 32.7632C47.1564 32.9957 45.8438 32.9957 44.5626 32.7632L44.5626 44.5626 22.2813 44.5626 22.2813 32.9376C21.9616 32.9376 21.6419 32.9376 21.3125 32.9376 20.332 32.9314 19.3559 32.8046 18.4063 32.5597L18.4063 48.4376 44.5626 48.4376 44.5626 60.237C45.8438 60.0045 47.1564 60.0045 48.4376 60.237L48.4376 48.4376 74.5939 48.4376 74.5939 32.5597C73.6443 32.8046 72.6682 32.9314 71.6876 32.9376 71.3583 32.9376 71.0386 32.9376 70.7189 32.9376Z" fill="#1FC2A7" transform="matrix(-1 1.22465e-16 -1.25098e-16 -1.0215 1939 1385)"/><path d="M29.0626 21.3125C29.0626 25.5928 25.5928 29.0626 21.3125 29.0626 17.0323 29.0626 13.5625 25.5928 13.5625 21.3125 13.5625 17.0323 17.0323 13.5625 21.3125 13.5625 25.5928 13.5625 29.0626 17.0323 29.0626 21.3125Z" fill="#1FC2A7" transform="matrix(-1 1.22465e-16 -1.25098e-16 -1.0215 1939 1385)"/></g></g></g><g clip-path="url(#clip16)"><g clip-path="url(#clip17)"><g clip-path="url(#clip18)"><path d="M63.5833 24.9792C63.5833 29.9957 59.5166 34.0625 54.5 34.0625 49.4834 34.0625 45.4166 29.9957 45.4166 24.9792 45.4166 19.9626 49.4834 15.8958 54.5 15.8958 59.5166 15.8958 63.5833 19.9626 63.5833 24.9792Z" fill="#0BB5DD" transform="matrix(-1 1.22465e-16 -1.24712e-16 -1.01835 1916 1339)"/><path d="M63.5833 84.0208C63.5833 89.0374 59.5166 93.1041 54.5 93.1041 49.4834 93.1041 45.4166 89.0374 45.4166 84.0208 45.4166 79.0042 49.4834 74.9375 54.5 74.9375 59.5166 74.9375 63.5833 79.0042 63.5833 84.0208Z" fill="#0BB5DD" transform="matrix(-1 1.22465e-16 -1.24712e-16 -1.01835 1916 1339)"/><path d="M93.1041 24.9792C93.1041 29.9957 89.0374 34.0625 84.0208 34.0625 79.0042 34.0625 74.9375 29.9957 74.9375 24.9792 74.9375 19.9626 79.0042 15.8958 84.0208 15.8958 89.0374 15.8958 93.1041 19.9626 93.1041 24.9792Z" fill="#0BB5DD" transform="matrix(-1 1.22465e-16 -1.24712e-16 -1.01835 1916 1339)"/><path d="M82.8854 38.6042 82.8854 52.2291 56.7708 52.2291 56.7708 38.3998C55.2692 38.6723 53.7307 38.6723 52.2291 38.3998L52.2291 52.2291 26.1146 52.2291 26.1146 38.6042C25.7399 38.6042 25.3652 38.6042 24.9792 38.6042 23.8299 38.5969 22.6858 38.4483 21.5729 38.1613L21.5729 56.7708 52.2291 56.7708 52.2291 70.6002C53.7307 70.3277 55.2692 70.3277 56.7708 70.6002L56.7708 56.7708 87.4271 56.7708 87.4271 38.1613C86.3141 38.4483 85.1701 38.5969 84.0208 38.6042 83.6348 38.6042 83.2601 38.6042 82.8854 38.6042Z" fill="#0BB5DD" transform="matrix(-1 1.22465e-16 -1.24712e-16 -1.01835 1916 1339)"/><path d="M34.0625 24.9792C34.0625 29.9957 29.9957 34.0625 24.9792 34.0625 19.9626 34.0625 15.8958 29.9957 15.8958 24.9792 15.8958 19.9626 19.9626 15.8958 24.9792 15.8958 29.9957 15.8958 34.0625 19.9626 34.0625 24.9792Z" fill="#0BB5DD" transform="matrix(-1 1.22465e-16 -1.24712e-16 -1.01835 1916 1339)"/></g></g></g><path d="M1930.5 1030.5C1930.5 980.242 1969.45 939.5 2017.5 939.5 2065.55 939.5 2104.5 980.242 2104.5 1030.5 2104.5 1080.76 2065.55 1121.5 2017.5 1121.5 1969.45 1121.5 1930.5 1080.76 1930.5 1030.5Z" stroke="#2D3E50" stroke-width="9.16667" stroke-miterlimit="8" fill="#FFFFFF" fill-rule="evenodd"/><g clip-path="url(#clip19)"><g clip-path="url(#clip20)"><g clip-path="url(#clip21)"><path d="M26.5938 16.1875 84.4063 16.1875 84.4063 94.8125 26.5938 94.8125 26.5938 16.1875ZM19.6563 101.75 91.3438 101.75 91.3438 9.25 19.6563 9.25 19.6563 101.75Z" fill="#0BB5DD" transform="matrix(1 0 0 1.04504 1961 972)"/><path d="M57.8125 26.5938 77.4688 26.5938 77.4688 31.2188 57.8125 31.2188Z" fill="#0BB5DD" transform="matrix(1 0 0 1.04504 1961 972)"/><path d="M57.8125 45.0938 77.4688 45.0938 77.4688 49.7188 57.8125 49.7188Z" fill="#0BB5DD" transform="matrix(1 0 0 1.04504 1961 972)"/><path d="M57.8125 82.0938 77.4688 82.0938 77.4688 86.7188 57.8125 86.7188Z" fill="#0BB5DD" transform="matrix(1 0 0 1.04504 1961 972)"/><path d="M57.8125 63.5938 77.4688 63.5938 77.4688 68.2188 57.8125 68.2188Z" fill="#0BB5DD" transform="matrix(1 0 0 1.04504 1961 972)"/><path d="M50.6438 24.05 47.4063 20.8125 39.775 28.4438 36.7688 25.4375 33.5313 28.675 39.775 34.9188Z" fill="#0BB5DD" transform="matrix(1 0 0 1.04504 1961 972)"/><path d="M50.6438 42.55 47.4063 39.3125 39.775 46.9438 36.7688 43.9375 33.5313 47.175 39.775 53.4188Z" fill="#0BB5DD" transform="matrix(1 0 0 1.04504 1961 972)"/><path d="M50.6438 61.05 47.4063 57.8125 39.775 65.4438 36.7688 62.4375 33.5313 65.675 39.775 71.9188Z" fill="#0BB5DD" transform="matrix(1 0 0 1.04504 1961 972)"/><path d="M50.6438 79.3188 47.4063 76.0813 39.775 83.7125 36.7688 80.7063 33.5313 83.9438 39.775 90.1875Z" fill="#0BB5DD" transform="matrix(1 0 0 1.04504 1961 972)"/></g></g></g><path d="M2245.5 982.5C2245.5 932.242 2284.45 891.5 2332.5 891.5 2380.55 891.5 2419.5 932.242 2419.5 982.5 2419.5 1032.76 2380.55 1073.5 2332.5 1073.5 2284.45 1073.5 2245.5 1032.76 2245.5 982.5Z" stroke="#2D3E50" stroke-width="9.16667" stroke-miterlimit="8" fill="#FFFFFF" fill-rule="evenodd"/><path d="M2295.5 945.229C2295.5 941.491 2312.45 938.5 2333 938.5 2353.55 938.5 2370.5 941.491 2370.5 945.229 2370.5 971.771 2370.5 971.771 2370.5 971.771 2370.5 975.51 2353.55 978.5 2333 978.5 2312.45 978.5 2295.5 975.51 2295.5 971.771L2295.5 945.229Z" stroke="#0684A2" stroke-width="9.16667" stroke-miterlimit="8" fill="#0BB5DD" fill-rule="evenodd"/><path d="M2295.5 993.229C2295.5 989.491 2312.45 986.5 2333 986.5 2353.55 986.5 2370.5 989.491 2370.5 993.229 2370.5 1019.77 2370.5 1019.77 2370.5 1019.77 2370.5 1023.51 2353.55 1026.5 2333 1026.5 2312.45 1026.5 2295.5 1023.51 2295.5 1019.77L2295.5 993.229Z" stroke="#0684A2" stroke-width="9.16667" stroke-miterlimit="8" fill="#0BB5DD" fill-rule="evenodd"/><path d="M2370.5 993.5C2370.5 996.5 2353.55 999.5 2333 999.5 2312.45 999.5 2295.5 996.5 2295.5 993.5" stroke="#0684A2" stroke-width="9.16667" stroke-miterlimit="8" fill="#0BB5DD" fill-rule="evenodd"/><path d="M2295.5 993.229C2295.5 989.491 2312.45 986.5 2333 986.5 2353.55 986.5 2370.5 989.491 2370.5 993.229 2370.5 1019.77 2370.5 1019.77 2370.5 1019.77 2370.5 1023.51 2353.55 1026.5 2333 1026.5 2312.45 1026.5 2295.5 1023.51 2295.5 1019.77L2295.5 993.229Z" stroke="#0684A2" stroke-width="9.16667" stroke-miterlimit="8" fill="#0BB5DD" fill-rule="evenodd"/><path d="M2295.5 969.167C2295.5 965.463 2312.45 962.5 2333 962.5 2353.55 962.5 2370.5 965.463 2370.5 969.167 2370.5 995.833 2370.5 995.833 2370.5 995.833 2370.5 999.537 2353.55 1002.5 2333 1002.5 2312.45 1002.5 2295.5 999.537 2295.5 995.833L2295.5 969.167Z" stroke="#0684A2" stroke-width="9.16667" stroke-miterlimit="8" fill="#0BB5DD" fill-rule="evenodd"/><path d="M2370.5 968.5C2370.5 972.389 2353.55 975.5 2333 975.5 2312.45 975.5 2295.5 972.389 2295.5 968.5" stroke="#0684A2" stroke-width="9.16667" stroke-miterlimit="8" fill="#0BB5DD" fill-rule="evenodd"/><path d="M2295.5 969.167C2295.5 965.463 2312.45 962.5 2333 962.5 2353.55 962.5 2370.5 965.463 2370.5 969.167 2370.5 995.833 2370.5 995.833 2370.5 995.833 2370.5 999.537 2353.55 1002.5 2333 1002.5 2312.45 1002.5 2295.5 999.537 2295.5 995.833L2295.5 969.167Z" stroke="#0684A2" stroke-width="9.16667" stroke-miterlimit="8" fill="#0BB5DD" fill-rule="evenodd"/><path d="M2295.5 945.229C2295.5 941.491 2312.45 938.5 2333 938.5 2353.55 938.5 2370.5 941.491 2370.5 945.229 2370.5 971.771 2370.5 971.771 2370.5 971.771 2370.5 975.51 2353.55 978.5 2333 978.5 2312.45 978.5 2295.5 975.51 2295.5 971.771L2295.5 945.229Z" stroke="#0684A2" stroke-width="9.16667" stroke-miterlimit="8" fill="#0BB5DD" fill-rule="evenodd"/><path d="M2370.5 944.5C2370.5 948.389 2353.55 951.5 2333 951.5 2312.45 951.5 2295.5 948.389 2295.5 944.5" stroke="#0684A2" stroke-width="9.16667" stroke-miterlimit="8" fill="#0BB5DD" fill-rule="evenodd"/><text fill="#2D3E50" font-family="Arial,Arial_MSFontService,sans-serif" font-weight="700" font-size="55" transform="matrix(1 0 0 1 2550.92 1598)">policies<tspan font-size="55" x="133.226" y="-368">computational</tspan><tspan font-size="55" x="102.289" y="-302">resources</tspan><tspan font-size="55" x="-859.528" y="48">formats</tspan><tspan font-size="55" x="-1149.18" y="-263">terminologies</tspan><tspan font-size="55" x="-907.168" y="-558">checklists</tspan><tspan font-size="55" x="-98.6524" y="-600">repository</tspan></text></g></svg>