<svg width="4543" height="2229" xmlns="http://www.w3.org/2000/svg" xmlns:xlink="http://www.w3.org/1999/xlink" overflow="hidden"><defs><clipPath id="clip0"><rect x="-1" y="119" width="4543" height="2229"/></clipPath></defs><g clip-path="url(#clip0)" transform="translate(1 -119)"><text fill="#FFFFFF" font-family="Avenir Next LT Pro Demi,Avenir Next LT Pro Demi_MSFontService,sans-serif" font-weight="600" font-size="110" transform="matrix(1 0 0 1 1763.8 382)">Factor<tspan font-size="110" x="-194.15" y="106">[</tspan><tspan font-size="110" x="-158.056" y="106">temperature</tspan><tspan font-size="110" x="469.219" y="106">]</tspan><tspan font-family="Avenir Next LT Pro,Avenir Next LT Pro_MSFontService,sans-serif" font-weight="400" font-size="183" x="-55.8976" y="626">22</tspan></text><text fill="#FFFFFF" font-family="Arial,Arial_MSFontService,sans-serif" font-weight="400" font-size="183" transform="translate(1921.03 1008)">°</text><text fill="#FFFFFF" font-family="Avenir Next LT Pro,Avenir Next LT Pro_MSFontService,sans-serif" font-weight="400" font-size="183" transform="matrix(1 0 0 1 1994.36 1008)">C<tspan font-family="Avenir Next LT Pro Demi,Avenir Next LT Pro Demi_MSFontService,sans-serif" font-weight="600" font-size="238" x="929.267" y="256">Experimental</tspan><tspan font-family="Avenir Next LT Pro Demi,Avenir Next LT Pro Demi_MSFontService,sans-serif" font-weight="600" font-size="238" x="1222.12" y="484">Pipeline</tspan><tspan font-family="Avenir Next LT Pro Demi,Avenir Next LT Pro Demi_MSFontService,sans-serif" font-weight="600" font-size="110" x="736.702" y="-750">Factor</tspan><tspan font-family="Avenir Next LT Pro Demi,Avenir Next LT Pro Demi_MSFontService,sans-serif" font-weight="600" font-size="110" x="1075.39" y="-750">name</tspan><tspan font-family="Avenir Next LT Pro Demi,Avenir Next LT Pro Demi_MSFontService,sans-serif" font-weight="600" font-size="110" x="1388.77" y="-750">in </tspan><tspan font-family="Avenir Next LT Pro Demi,Avenir Next LT Pro Demi_MSFontService,sans-serif" font-weight="600" font-size="110" x="910.135" y="-644">brackets</tspan><tspan font-size="183" x="-315.962" y="696">-</tspan>10</text><text fill="#FFFFFF" font-family="Arial,Arial_MSFontService,sans-serif" font-weight="400" font-size="183" transform="translate(1949.96 1704)">°</text><text fill="#FFFFFF" font-family="Avenir Next LT Pro,Avenir Next LT Pro_MSFontService,sans-serif" font-weight="400" font-size="183" transform="matrix(1 0 0 1 2023.29 1704)">C<tspan font-family="Avenir Next LT Pro Demi,Avenir Next LT Pro Demi_MSFontService,sans-serif" font-weight="600" font-size="202" x="-196.907" y="472">…</tspan></text><path d="M2400 414 2358 450.079 2394.15 492 2400 414Z" stroke="#FFFFFF" stroke-width="13.7796" stroke-linecap="round" stroke-miterlimit="8" fill="none" fill-rule="evenodd"/><path d="M2397 453.046C2467.05 459.616 2595.06 469.2 2669.19 447.976 2732.55 429.839 2766.86 399.232 2861 340" stroke="#FFFFFF" stroke-width="13.7796" stroke-linecap="round" stroke-linejoin="round" stroke-miterlimit="10" stroke-dasharray="27.5592 27.5592" fill="none" fill-rule="evenodd"/><path d="M1178.35 843.663C1175.32 841.637 1171.42 841.449 1168.21 843.171 1165 844.895 1163 848.25 1163 851.899L1163 1030.1C1163 1033.75 1165 1037.11 1168.21 1038.83 1171.42 1040.55 1175.32 1040.36 1178.35 1038.34L1311.61 949.237C1314.35 947.401 1316 944.311 1316 940.999 1316 937.69 1314.35 934.599 1311.61 932.763L1178.35 843.663ZM1182.74 870.398 1288.33 940.999C1288.33 940.999 1182.74 1011.6 1182.74 1011.6L1182.74 870.398Z" fill="#FFFFFF" fill-rule="evenodd"/><path d="M877.875 951 1172.12 951C1177.57 951 1182 946.519 1182 940.999 1182 935.481 1177.57 931 1172.12 931L877.875 931C872.426 931 868 935.481 868 940.999 868 946.519 872.426 951 877.875 951Z" fill="#FFFFFF" fill-rule="evenodd"/><path d="M1178.35 1552.66C1175.32 1550.64 1171.42 1550.45 1168.21 1552.17 1165 1553.89 1163 1557.25 1163 1560.9L1163 1739.1C1163 1742.75 1165 1746.11 1168.21 1747.83 1171.42 1749.55 1175.32 1749.36 1178.35 1747.34L1311.61 1658.24C1314.35 1656.4 1316 1653.31 1316 1650 1316 1646.69 1314.35 1643.6 1311.61 1641.76L1178.35 1552.66ZM1182.74 1579.4 1288.33 1650C1288.33 1650 1182.74 1720.6 1182.74 1720.6L1182.74 1579.4Z" fill="#FFFFFF" fill-rule="evenodd"/><path d="M877.875 1660 1172.12 1660C1177.57 1660 1182 1655.52 1182 1650 1182 1644.48 1177.57 1640 1172.12 1640L877.875 1640C872.426 1640 868 1644.48 868 1650 868 1655.52 872.426 1660 877.875 1660Z" fill="#FFFFFF" fill-rule="evenodd"/><path d="M2814.35 843.663C2811.32 841.637 2807.41 841.449 2804.21 843.171 2801.01 844.895 2799 848.25 2799 851.899L2799 1030.1C2799 1033.75 2801.01 1037.11 2804.21 1038.83 2807.41 1040.55 2811.32 1040.36 2814.35 1038.34L2947.6 949.237C2950.35 947.401 2952 944.311 2952 940.999 2952 937.69 2950.35 934.599 2947.6 932.763L2814.35 843.663ZM2818.75 870.398 2924.33 940.999C2924.33 940.999 2818.75 1011.6 2818.75 1011.6L2818.75 870.398Z" fill="#FFFFFF" fill-rule="evenodd"/><path d="M2513.91 951 2809.09 951C2814.55 951 2819 946.519 2819 940.999 2819 935.481 2814.55 931 2809.09 931L2513.91 931C2508.45 931 2504 935.481 2504 940.999 2504 946.519 2508.45 951 2513.91 951Z" fill="#FFFFFF" fill-rule="evenodd"/><path d="M2814.35 1552.66C2811.32 1550.64 2807.41 1550.45 2804.21 1552.17 2801.01 1553.89 2799 1557.25 2799 1560.9L2799 1739.1C2799 1742.75 2801.01 1746.11 2804.21 1747.83 2807.41 1749.55 2811.32 1749.36 2814.35 1747.34L2947.6 1658.24C2950.35 1656.4 2952 1653.31 2952 1650 2952 1646.69 2950.35 1643.6 2947.6 1641.76L2814.35 1552.66ZM2818.75 1579.4 2924.33 1650C2924.33 1650 2818.75 1720.6 2818.75 1720.6L2818.75 1579.4Z" fill="#FFFFFF" fill-rule="evenodd"/><path d="M2513.91 1660 2809.09 1660C2814.55 1660 2819 1655.52 2819 1650 2819 1644.48 2814.55 1640 2809.09 1640L2513.91 1640C2508.45 1640 2504 1644.48 2504 1650 2504 1655.52 2508.45 1660 2513.91 1660Z" fill="#FFFFFF" fill-rule="evenodd"/><path d="M358.69 1312.97C343.294 1321.83 328.16 1331.23 310.555 1335.28 255.613 1347.94 206.569 1316.44 192.843 1257.95 175.842 1185.55 192.54 1119.52 234.084 1058.97 237.299 1054.22 240.968 1049.72 244.415 1045.11 245.337 1038.55 249.538 1034.12 253.908 1029.59 290.796 990.419 339.29 964.095 392.233 954.502 405.085 952.107 412.889 946.504 417.279 934.297 428.734 902.495 442.769 871.675 454.512 838.875 425.953 853.41 395.864 859.758 367.366 870.503 327.903 885.325 289.254 902.233 251.583 921.156 246.11 923.825 240.946 927.698 234.094 925.895 204.552 936.485 175.452 948.491 144.09 953.193 116.736 957.268 89.609 957.498 63.1888 948.176 31.8605 937.126 8.99061 917.333 4.14058 882.946-0.709129 848.559 15.5062 822.096 41.8462 801.48 69.342 779.776 102.207 773.733 135.942 770.777 159.83 768.691 183.821 768.029 207.786 768.79 222.367 769.257 249.777 765.072 247.554 767.262 303.057 768.625 356.476 781.706 410.935 786.261 425.795 787.159 440.697 787.151 455.557 786.237 461.961 786.258 467.754 782.333 470.107 776.377 477.055 761.817 483.97 747.245 490.851 732.661 492.954 728.126 493.444 723.007 492.241 718.157 487.811 699.189 486.06 679.695 487.035 660.243 487.609 650.588 491.415 637.279 491.735 630.297 497.555 582.742 514.345 539.822 547.458 504.288 558.952 491.729 572.663 481.395 587.903 473.808 631.137 452.505 668.571 471.03 677.913 518.713 679.666 527.98 680.685 537.383 682.026 546.712 683.78 550.309 683.109 554.038 682.905 557.76 672.372 631.147 635.621 688.088 574.634 729.636 562.911 737.518 549.783 743.074 535.963 746.005 525.602 748.292 519.967 753.805 519.484 765.462 539.729 760.816 557.716 750.745 576.838 743.91 595.078 737.421 612.637 728.969 630.965 722.603 639.119 719.761 644.366 715.266 645.945 706.366 654.242 660.037 676.262 621.092 709.882 588.354 737.171 562.768 769.622 547.027 805.574 537.958 812.897 537.152 816.895 534.123 813.552 525.964 812.88 524.301 812.904 521.856 815.843 521.473 820.145 535.968 829.492 538.462 843.716 536.669 862.678 534.563 881.871 536.788 899.846 543.174 953.161 561.146 973.108 612.202 946.005 661.48 934.469 682.453 917.952 698.998 898.638 712.868 897.928 715.67 896.45 718.219 894.374 720.229 874.617 734.161 852.801 744.913 829.715 752.092 803.112 759.92 776.055 765.455 748.06 765.776 725.191 766.061 702.484 764.523 680.501 758.346 670.161 755.192 659.011 755.969 649.208 760.526 636.869 766.072 624.921 772.59 611.4 775.146 610.001 776.077 504.738 801.471 508.393 802.263 505.14 823.005 526.061 835.057 545.801 843.871 568.793 853.206 629.746 917.772 640.732 954.615 647.618 973.131 647.849 993.48 641.384 1012.15 632.357 1028.86 617.892 1035.88 599.417 1035.77 573.189 1033.93 552.249 1021.21 534.376 1003.05 511.551 979.833 491.76 954.502 482.429 922.494 482.041 920.332 480.202 918.71 478.009 918.592 471.138 936.711 462.037 954.229 456.9 973.354 456.071 977.87 456.434 982.527 457.955 986.86 467.111 1022.6 470.715 1059.55 468.639 1096.39 463.485 1154.21 446.142 1207.96 413.8 1256.48 402.167 1274.59 388.038 1290.98 371.829 1305.15 368.603 1308.37 364.728 1310.86 360.462 1312.46L358.69 1312.97Z" stroke="#FFFFFF" stroke-width="6.86056" stroke-linejoin="round" stroke-miterlimit="10" fill="none" fill-rule="evenodd"/><path d="M146.304 905.162C146.059 915.209 145.269 925.329 151.477 936.074 155.997 926.458 150.16 917.607 153.818 909.684 154.044 909.352 154.194 908.754 154.484 908.668 165.739 905.945 192.969 922.201 195.958 933.492 175.197 941.956 153.936 948.204 131.333 948.413 122.521 940.21 112.129 934.493 101.75 928.52 70.423 910.612 38.964 892.601 8.78107 872.614 7.09158 854.688 14.7083 839.968 24.8066 826.084 29.5037 821.028 34.6513 823.191 39.3299 825.583 57.3141 834.788 74.6296 845.288 91.867 855.797 101.369 861.617 100.773 864.59 91.2503 869.732 85.1817 872.995 78.0852 874.548 73.1411 879.834 69.4688 882.455 63.9966 882.745 60.9282 889.496 74.5984 886.452 84.4214 879.035 95.4268 874.553 112.559 884.506 129.951 893.972 146.304 905.162Z" stroke="#FFFFFF" stroke-width="6.86056" stroke-linejoin="round" stroke-miterlimit="10" fill="none" fill-rule="evenodd"/><path d="M222.174 1089.39C230.417 1069.77 243.32 1053.36 258.252 1038.61 265.623 1030.65 275.523 1027.76 285.489 1025 323.357 1014.47 360.124 1000.66 397.505 988.737 409.303 984.975 421.317 981.993 433.072 978.086 439.062 976.077 446.807 974.153 447.712 984.912 451.626 991.662 453.482 999.41 453.049 1007.2 434.848 1013.03 417.678 1022.68 397.793 1022.33 393.741 1020.72 394.879 1018.06 396.66 1015.53 399.505 1011.69 402.625 1008.06 405.995 1004.67 395.01 1017.14 384.18 1029.75 373.669 1042.56 370.372 1046.63 367.688 1051.56 361.547 1052.07 340.7 1053.55 321.687 1061.74 302.202 1068.17 279.929 1075.52 257.311 1081.77 235.114 1089.39 230.908 1090.86 226.516 1092.11 222.174 1089.39Z" stroke="#FFFFFF" stroke-width="6.86056" stroke-linejoin="round" stroke-miterlimit="10" fill="none" fill-rule="evenodd"/><path d="M894.04 709.153C887.458 715.957 878.843 719.329 870.554 723.371 865.567 728.569 858.526 730.011 852.546 733.397 847.985 735.953 844.318 733.538 845.317 729.234 849.638 711.669 849.629 692.37 864.14 678.574 866.231 678.439 867.79 679.366 869.477 681.807 867.314 675.782 861.235 673.409 860.213 667.685 862.519 649.277 870.512 632.492 875.479 614.833 881.575 609.924 889.288 610.146 895.566 608.218 887.705 608.318 879.535 613.906 870.573 610.671 869.52 609.985 868.865 608.83 868.814 607.574 871.286 587.011 877.551 567.363 884.901 548.183 885.626 546.596 887.253 545.606 888.994 545.689 909.043 549.396 927.075 560.265 939.716 576.263 935.265 581.194 932.097 587.146 930.495 593.591 920.945 629.47 906.131 663.739 897.811 699.986 897.049 703.222 895.776 706.315 894.04 709.153Z" stroke="#FFFFFF" stroke-width="6.86056" stroke-linejoin="round" stroke-miterlimit="10" fill="none" fill-rule="evenodd"/><path d="M406.158 1251.15C389.426 1279.22 367.846 1303.02 339.408 1318.82 306.654 1337.17 261.477 1342.64 226.724 1308.28 227.561 1302.35 232.172 1300.35 236.946 1298.74 288.634 1281.27 340.084 1263.04 392.851 1248.93 397.343 1247.7 402.579 1245.51 406.158 1251.15Z" stroke="#FFFFFF" stroke-width="6.86056" stroke-linejoin="round" stroke-miterlimit="10" fill="none" fill-rule="evenodd"/><path d="M653.524 749.023 646.821 752.291C640.641 741.091 649.189 732.194 651.566 722.323 657.052 688.205 667.01 656 687.049 627.34 702.135 605.208 721.59 586.393 744.215 572.058 746.01 580.447 742.645 588.006 740.035 595.528 731.017 621.496 722.332 647.578 714.931 674.14 713.686 678.619 712.31 682.829 715.359 687.039 711.513 698.207 699.626 701.846 693.236 710.631 690.869 713.887 684.958 715.774 688.914 721.561 692.535 731.935 685.555 740.759 684.658 750.488 678.337 748.869 671.665 749.136 665.806 745.854 661.082 744.673 658.117 749.991 653.524 749.023Z" stroke="#FFFFFF" stroke-width="6.86056" stroke-linejoin="round" stroke-miterlimit="10" fill="none" fill-rule="evenodd"/><path d="M447.765 984.908C441.154 974.471 433.1 981.717 426.143 983.782 402.339 990.883 378.728 998.607 355.128 1006.35 322.807 1016.97 290.561 1027.86 258.304 1038.61 274.348 1018.31 295.193 1003.61 317.141 990.836 344.948 974.561 375.822 964.215 407.821 960.444 414.043 959.706 417.244 957.481 419.393 951.566 422.479 943.092 426.739 935.042 430.489 926.797 438.236 915.691 450.501 915.323 462.155 913.872 465.461 913.449 468.771 914.794 468.336 919.403 461.816 935.69 455.672 952.126 448.554 968.153 446.016 974.064 449.22 979.387 447.765 984.908Z" stroke="#FFFFFF" stroke-width="6.86056" stroke-linejoin="round" stroke-miterlimit="10" fill="none" fill-rule="evenodd"/><path d="M222.178 1089.4C248.301 1081.27 274.417 1073.14 300.525 1065.02 317.676 1059.64 334.675 1053.9 351.944 1048.88 355.936 1047.42 360.41 1048.15 363.742 1050.78 343.788 1100.03 297.748 1127.49 247.733 1123.09 246.745 1122.99 245.707 1122.34 244.688 1123.03 245.895 1123.28 247.013 1123.85 247.929 1124.68 249.458 1126.29 248.311 1127.68 247.518 1129.11 232.787 1138.26 217.829 1146.66 199.506 1144.75 203.795 1125.13 211.468 1106.39 222.178 1089.4Z" stroke="#FFFFFF" stroke-width="6.86056" stroke-linejoin="round" stroke-miterlimit="10" fill="none" fill-rule="evenodd"/><path d="M454.082 1133.94C451.704 1155.04 445.846 1175.61 436.746 1194.79 409.917 1203.12 383.411 1212.51 356.118 1219.37 336.569 1208.77 329.351 1190.11 323.879 1170.27 325.088 1167.14 327.921 1164.9 331.251 1164.46 351.991 1159.25 371.359 1149.97 391.968 1144.54 399.34 1143.21 403.971 1148.22 409.18 1151.99 410.041 1152.62 410.097 1152.56 411.224 1148.81 418.764 1137.33 439.333 1130.23 454.082 1133.94Z" stroke="#FFFFFF" stroke-width="6.86056" stroke-linejoin="round" stroke-miterlimit="10" fill="none" fill-rule="evenodd"/><path d="M403.522 848.846C385.891 856.752 367.31 861.748 348.869 867.201 354.237 860.573 352.706 855.844 345.308 851.847 339.581 848.777 333.413 846.393 327.989 842.87 322.566 839.348 314.807 837.048 315.909 827.965L338.435 829.812 338.779 826.492C326.226 821.164 312.212 825.205 299.28 822.219 282.074 810.231 264.206 799.224 245.759 789.249 240.541 786.263 233.948 784.196 235.285 775.995 263.392 773.35 290.854 779.648 318.596 782.38 344.374 795.999 368.874 811.761 394.063 826.385 398.341 828.862 402.584 831.383 406.548 834.124 409.561 836.277 413.174 838.525 412.655 842.678 412.103 847.842 407.772 848.599 403.522 848.846Z" stroke="#FFFFFF" stroke-width="6.86056" stroke-linejoin="round" stroke-miterlimit="10" fill="none" fill-rule="evenodd"/><path d="M199.51 1144.7C216.48 1140.31 232.937 1134.14 248.606 1126.29 255.004 1121.21 262.886 1123.42 269.989 1122.45 287.961 1120.09 305.224 1113.91 320.616 1104.34 323.02 1102.86 325.174 1099.79 328.062 1102.26 330.542 1104.39 329.32 1107.67 328.314 1110.43 307.223 1164.49 279.756 1186.65 215.763 1187.22 210.893 1187.27 205.75 1185.79 201.826 1190.17 199.298 1192.62 195.625 1193.51 192.254 1192.49 191.562 1175.98 195.964 1160.4 199.51 1144.7Z" stroke="#FFFFFF" stroke-width="6.86056" stroke-linejoin="round" stroke-miterlimit="10" fill="none" fill-rule="evenodd"/><path d="M406.154 1251.15C386.53 1251.45 368.72 1259.45 350.456 1264.98 312.39 1276.46 274.992 1290.11 237.141 1302.32 232.903 1303.67 230.175 1306.29 226.72 1308.28 215.052 1298.93 209.996 1285.33 203.731 1272.48 207.684 1266.24 214.842 1265.21 220.82 1263.29 237.548 1257.9 253.4 1249.01 271.633 1248.86 278.63 1253.96 274.349 1260.83 275.081 1266.53 273 1267.93 276.619 1268.38 275.318 1267.36 275.241 1267.2 275.488 1266.97 276.072 1266.35 277.276 1265.17 278.682 1264.21 280.225 1263.53 309.931 1253.16 340.131 1244.6 369.957 1234.48 371.857 1233.56 373.756 1232.63 375.742 1231.88 386.595 1228.11 397.708 1225.15 408.713 1221.86 413.697 1220.34 420.292 1217.87 422.127 1226.68L406.154 1251.15Z" stroke="#FFFFFF" stroke-width="6.86056" stroke-linejoin="round" stroke-miterlimit="10" fill="none" fill-rule="evenodd"/><path d="M714.174 686.254C705.487 687.891 709.2 682.292 710.222 679 717.983 654.254 725.943 629.576 733.826 604.854 737.299 593.943 740.765 583.033 744.223 572.129 762.559 563.741 779.787 552.851 799.669 547.857 802.121 547.214 804.246 545.902 806.723 547.182 804.079 558.262 799.595 568.745 795.798 579.445 794.346 583.499 792.797 588.264 786.704 587.337 785.324 587.401 783.762 584.651 783.841 585.663 786.135 608.175 779.66 630.726 765.774 648.592 752.847 666.141 734.827 679.291 714.174 686.254Z" stroke="#FFFFFF" stroke-width="6.86056" stroke-linejoin="round" stroke-miterlimit="10" fill="none" fill-rule="evenodd"/><path d="M659.306 613.46C652.578 629.435 645.651 645.285 634.4 658.791 632.333 658.477 630.564 657.124 629.722 655.209 624.066 637.033 619.345 618.788 624.582 599.642 626.636 597.728 628.869 597.884 632.318 599.797 628.327 595.299 622.601 594.331 621.018 589.157 621.314 572.752 617.138 556.703 616.578 540.355 619.045 534.004 623.688 528.73 629.677 525.478 624.514 525.95 622.516 534.667 615.349 531.995 607.085 513.459 606.602 493.811 606.888 474.038 606.9 472.759 608.362 472.24 609.61 471.964 620.97 467.53 631.597 469.814 641.811 475.619 643.409 513.942 650.171 551.739 654.574 589.691 655.485 597.515 654.143 606.161 659.306 613.46Z" stroke="#FFFFFF" stroke-width="6.86056" stroke-linejoin="round" stroke-miterlimit="10" fill="none" fill-rule="evenodd"/><path d="M403.524 848.84C412.444 845.071 413.499 841.735 404.104 836.362 379.653 822.345 355.575 807.732 331.475 793.13 326.701 790.259 320.625 788.687 318.597 782.43 356.545 787.321 394.164 795.053 432.608 795.969 444.455 796.276 454.368 803.333 463.209 810.803 469.294 815.966 466.251 822.372 461.174 825.401 443.445 836.466 423.944 844.394 403.524 848.84Z" stroke="#FFFFFF" stroke-width="6.86056" stroke-linejoin="round" stroke-miterlimit="10" fill="none" fill-rule="evenodd"/><path d="M458.336 1040.6C460.572 1054.99 462.83 1069.38 460.129 1083.97 458.955 1086.17 456.948 1087.82 454.558 1088.54 432.702 1095.38 411.405 1104.05 389.193 1109.76 384.462 1111.29 379.358 1111.21 374.677 1109.54 364.228 1099.46 361.531 1086.67 361.88 1072.81 363.776 1066.55 368.703 1064.12 374.425 1062.18 396.934 1054.58 419.831 1048.17 442.048 1039.74 447.338 1037.66 453.134 1036.11 458.336 1040.6Z" stroke="#FFFFFF" stroke-width="6.86056" stroke-linejoin="round" stroke-miterlimit="10" fill="none" fill-rule="evenodd"/><path d="M73.0452 880.044C78.4557 871.405 89.5483 871.581 96.5172 865.003 92.9179 856.941 84.3475 855.755 78.016 851.902 64.8022 843.689 51.2721 835.961 37.685 828.401 33.8604 826.228 29.4792 824.106 24.7653 826.404 35.2458 810.979 49.7247 800.406 66.235 792.355 69.9304 793.014 73.5474 790.338 77.3506 792.466 94.9621 818.998 120.172 834.912 150.834 843.632 123.243 853.629 98.8093 868.172 73.0452 880.044Z" stroke="#FFFFFF" stroke-width="6.86056" stroke-linejoin="round" stroke-miterlimit="10" fill="none" fill-rule="evenodd"/><path d="M77.2524 792.26C73.6966 793.781 69.6616 793.741 66.1368 792.149 85.9577 782.097 107.649 779.567 129.159 776.212 134.132 775.231 139.232 777.331 142.068 781.532 158.576 804.286 182.575 820.522 209.836 827.383 161.161 850.4 121.946 834.291 89.1458 800.204 86.1208 797.006 85.7197 788.131 77.2524 792.26Z" stroke="#FFFFFF" stroke-width="6.86056" stroke-linejoin="round" stroke-miterlimit="10" fill="none" fill-rule="evenodd"/><path d="M8.64814 872.738C17.0011 872.287 21.982 878.929 28.2491 882.537 60.3826 900.91 92.222 919.813 123.925 938.949 127.097 940.859 133.344 941.988 131.211 948.559 89.2003 956.49 32.6692 942.3 14.2973 901.619 10.1069 892.59 8.16699 882.679 8.64814 872.738Z" stroke="#FFFFFF" stroke-width="6.86056" stroke-linejoin="round" stroke-miterlimit="10" fill="none" fill-rule="evenodd"/><path d="M894.042 709.15C893.361 698.171 897.586 688.064 900.511 677.899 909.669 646.775 920.146 616.086 930.246 585.193 931.76 580.528 932.614 575.078 939.728 576.283 966.366 615.2 948.891 661.082 919.237 687.379 910.838 694.71 903.549 703.242 894.042 709.15Z" stroke="#FFFFFF" stroke-width="6.86056" stroke-linejoin="round" stroke-miterlimit="10" fill="none" fill-rule="evenodd"/><path d="M192.258 1192.49 201.194 1188.13C204.601 1184.29 208.906 1186.2 212.804 1186.59 241.589 1189.53 267.159 1180.44 291.095 1165.67 293.522 1164.18 295.475 1161.21 298.539 1162.79 302.287 1164.8 301.236 1168.83 300.041 1171.54 294.387 1184.5 294.621 1200.12 282.87 1210.33 257.075 1216.36 232.052 1225.21 207.069 1233.47 202.307 1235.04 197.705 1237.23 192.972 1233.59 191.753 1219.81 189.81 1206.13 192.258 1192.49Z" stroke="#FFFFFF" stroke-width="6.86056" stroke-linejoin="round" stroke-miterlimit="10" fill="none" fill-rule="evenodd"/><path d="M534.684 737.854C511.352 739.968 512.447 760.644 505.784 775.563 504.104 779.148 505.481 785.943 499.036 785.657 491.681 785.317 494.292 778.706 492.969 774.291 488.6 759.662 492.018 746.879 499.502 734.269 502.142 729.553 502.704 723.947 501.057 718.799 492.225 684.695 493.512 650.19 498.335 615.677 499.343 611.682 500.796 607.81 502.663 604.136 510.835 602.917 509.075 609.97 509.838 613.801 514.16 635.199 515.388 657.056 518.352 678.785 519.118 684.495 519.126 690.354 523.137 695.062 528.114 699.881 519.147 708.374 527.635 712.227 535.515 719.197 534.475 728.692 534.684 737.854Z" stroke="#FFFFFF" stroke-width="6.86056" stroke-linejoin="round" stroke-miterlimit="10" fill="none" fill-rule="evenodd"/><path d="M195.917 933.506C184.714 921.427 170.034 913.122 153.91 909.744 151.626 891.223 158.596 875.573 168.846 860.979 174.04 859.608 178.442 861.83 182.731 864.274 195.612 871.294 208.019 879.099 220.888 886.153 223.239 886.987 224.923 889.08 225.237 891.554 225.971 900.488 226.671 909.411 227.46 918.345 227.64 920.415 228.047 923.064 225.455 923.306 214.818 924.289 207.359 934.287 195.917 933.506Z" stroke="#FFFFFF" stroke-width="6.86056" stroke-linejoin="round" stroke-miterlimit="10" fill="none" fill-rule="evenodd"/><path d="M193.098 1233.56C214.118 1226.99 235.128 1220.34 256.169 1213.87 265 1211.17 273.455 1206.05 283.321 1208.93 285.362 1223.94 282.027 1239.21 273.91 1252.01 268.398 1249.66 263.67 1252.16 258.527 1253.98 240.277 1260.33 222.03 1266.47 203.693 1272.64 196.309 1260.56 195.545 1246.81 193.098 1233.56Z" stroke="#FFFFFF" stroke-width="6.86056" stroke-linejoin="round" stroke-miterlimit="10" fill="none" fill-rule="evenodd"/><path d="M787.418 586.928C794.786 581.565 794.144 572.365 797.705 565.319 800.788 559.281 800.155 551.404 806.757 547.078 817.468 543.268 828.795 541.494 840.159 541.852 843.804 546.435 840.704 549.606 837.848 552.823 833.668 557.406 835.49 563.072 835.283 568.261 834.638 583.13 831 597.713 824.585 611.143 814.838 632.212 795.666 639.57 776.589 647.517 772.66 649.157 766.592 648.963 770.349 642.264 779.664 625.581 783.443 607.699 784.696 589.002 784.641 587.812 786.048 587.181 787.418 586.928Z" stroke="#FFFFFF" stroke-width="6.86056" stroke-linejoin="round" stroke-miterlimit="10" fill="none" fill-rule="evenodd"/><path d="M836.68 551.84C838.921 549.002 840.133 545.486 840.114 541.87 856.487 539.491 873.186 540.798 888.989 545.69 879.969 566.267 875.471 588.233 870.564 609.983 868.046 616.162 861.76 615.521 856.996 617.263 846.564 621.051 835.689 623.589 825.106 627.007 821.38 628.215 814.196 628.511 818.293 622.337 832.515 600.69 834.092 576.249 836.68 551.84Z" stroke="#FFFFFF" stroke-width="6.86056" stroke-linejoin="round" stroke-miterlimit="10" fill="none" fill-rule="evenodd"/><path d="M375.4 1108.69C400.444 1105.55 423.003 1093.97 447.09 1087.56 451.426 1086.42 455.762 1085.21 460.087 1083.99 460.031 1100.89 459.175 1117.62 454.033 1133.95 442.209 1134.6 431.639 1140.03 420.34 1142.78 416.396 1143.93 413.446 1147.26 412.773 1151.31 404.43 1153.03 400.163 1146.09 395.76 1141.77 386.425 1132.49 374.769 1124.13 375.4 1108.69Z" stroke="#FFFFFF" stroke-width="6.86056" stroke-linejoin="round" stroke-miterlimit="10" fill="none" fill-rule="evenodd"/><path d="M315.912 827.968C319.796 835.366 326.45 839.2 333.743 842.53 339.381 845.043 344.806 848.012 349.963 851.407 361.391 859.135 361.176 860.678 348.861 867.181L312.333 884.994C308.78 886.726 305.425 889.828 300.854 887.826 307.499 881.378 307.34 877.252 298.568 871.795 282.833 862.212 266.964 852.694 251.265 842.844 254.325 830.291 263.272 827.145 274.952 827.505 288.609 827.952 302.273 827.843 315.912 827.968Z" stroke="#FFFFFF" stroke-width="6.86056" stroke-linejoin="round" stroke-miterlimit="10" fill="none" fill-rule="evenodd"/><path d="M659.306 613.458C655.116 613.372 651.973 611.918 651.854 607.136 650.852 566.973 641.883 527.654 639.112 487.662 638.811 483.246 636.878 478.602 641.88 475.417 661.301 483.202 668.348 500.036 672.423 518.43 679.63 551.585 672.848 583.044 659.306 613.458Z" stroke="#FFFFFF" stroke-width="6.86056" stroke-linejoin="round" stroke-miterlimit="10" fill="none" fill-rule="evenodd"/><path d="M458.333 1040.59C438.749 1041.38 422.142 1052.46 403.448 1056.49 393.422 1058.61 384.122 1062.62 374.378 1065.5 369.983 1066.59 366.134 1069.25 363.565 1072.98 360.443 1073.37 357.363 1071.93 355.653 1069.29 355.283 1062.86 359.738 1058.67 363.404 1054.45 371.12 1045.38 378.098 1035.64 386.432 1027.1 389.105 1024.35 391.006 1019.8 396.273 1021.14 411.376 1018.41 426.127 1014 440.248 1007.99 444.206 1005.83 448.926 1005.56 453.106 1007.25 457.263 1017.85 459.048 1029.23 458.333 1040.59Z" stroke="#FFFFFF" stroke-width="6.86056" stroke-linejoin="round" stroke-miterlimit="10" fill="none" fill-rule="evenodd"/><path d="M813.614 748.381C804.348 750.135 795.492 754.149 785.77 753.663 782.605 737.701 790.687 716.393 801.582 711.91 804.199 712.514 805.218 715.115 807.239 716.48 805.7 714.742 804.777 712.565 803.182 710.881 797.548 705 790.48 700.317 787.314 692.293 787.022 676.949 794.19 663.747 799.562 650.037 800.984 646.988 803.779 644.792 807.08 644.132 820.903 644.691 834.122 646.79 843.082 659.096 834.408 678.425 827.707 698.585 823.086 719.261 820.788 729.065 815.306 738.126 813.614 748.381Z" stroke="#FFFFFF" stroke-width="6.86056" stroke-linejoin="round" stroke-miterlimit="10" fill="none" fill-rule="evenodd"/><path d="M627.221 598.694C623.959 619.004 626.448 639.828 634.406 658.795 627.968 671.226 618.663 681.35 608.52 690.776 603.994 695.333 599.897 693.736 598.693 688.488 596.444 678.772 592.586 668.707 598.765 658.919 600.088 657.72 604.184 657.216 599.664 654.581 595.817 652.364 591.927 650.057 590.977 644.99 590.448 627.743 586.09 610.925 585.328 593.709 597.773 584.183 616.493 586.448 627.221 598.694Z" stroke="#FFFFFF" stroke-width="6.86056" stroke-linejoin="round" stroke-miterlimit="10" fill="none" fill-rule="evenodd"/><path d="M522.861 696.602C514.213 694.292 516.076 686.885 515.234 680.963 512.073 656.86 509.003 632.758 506.026 608.658 505.726 606.342 505.076 604.724 502.623 604.288 501.814 589.528 510.039 577.304 514.24 563.973 516.086 559.439 518.339 555.08 520.973 550.955 526.544 552.967 527.451 557.89 528.203 562.777 531.714 585.401 535.803 607.964 536.809 630.896 536.875 635.823 538.217 640.646 540.705 644.898 543.331 650.282 541.08 655.251 539.408 660.215 535.445 672.99 529.884 685.218 522.861 696.602Z" stroke="#FFFFFF" stroke-width="6.86056" stroke-linejoin="round" stroke-miterlimit="10" fill="none" fill-rule="evenodd"/><path d="M235.271 776.035C237.464 781.27 241.863 783.882 246.65 786.553 261.698 794.728 276.331 803.356 291.131 811.874 294.951 814.303 297.828 817.963 299.288 822.249L244.8 823.931C225.553 807.487 201.927 797.826 181.289 783.802 177.257 781.206 171.832 780.118 170.823 774.305 192.313 773.007 213.966 772.043 235.271 776.035Z" stroke="#FFFFFF" stroke-width="6.86056" stroke-linejoin="round" stroke-miterlimit="10" fill="none" fill-rule="evenodd"/><path d="M762.395 756.771C749.473 758.457 736.377 758.328 723.491 756.385 718.293 753.665 718.417 749.042 719.995 744.622 727.565 723.342 732.389 701.135 741.444 680.348 757.806 677.098 771.146 682.677 782.413 694.384 771.249 713.738 768.329 735.709 762.395 756.771Z" stroke="#FFFFFF" stroke-width="6.86056" stroke-linejoin="round" stroke-miterlimit="10" fill="none" fill-rule="evenodd"/><path d="M225.234 891.551 168.843 860.976C175.522 836.563 197.332 837.792 215.724 833.939 227.287 831.508 239.187 831.015 253.454 829.367 236.737 848.221 229.79 869.363 225.234 891.551Z" stroke="#FFFFFF" stroke-width="6.86056" stroke-linejoin="round" stroke-miterlimit="10" fill="none" fill-rule="evenodd"/><path d="M534.685 737.85C528.121 730.57 533.641 718.697 524.936 712.185 521.4 708.848 523.958 705.361 524.803 701.99 528.473 687.286 534.802 673.497 539.602 659.182 543.395 647.792 551.319 644.647 564.152 648.732 566.941 672.26 570.299 695.761 572.633 719.262 562.591 730.824 547.799 732.589 534.685 737.85Z" stroke="#FFFFFF" stroke-width="6.86056" stroke-linejoin="round" stroke-miterlimit="10" fill="none" fill-rule="evenodd"/><path d="M742.026 680.979C737.92 701.537 730.954 721.278 724.132 741.031 722.38 746.116 719.896 751.116 723.501 756.41 710.155 757 697.44 753.494 684.652 750.466 681.157 745.339 683.54 740.472 685.112 735.474 686.685 730.476 689.591 726.569 687.151 721.565 685.868 719.881 686.167 717.449 687.817 716.125 701.112 701.304 716.222 688.221 732.792 677.185 737.357 674.24 742.173 671.754 742.026 680.979Z" stroke="#FFFFFF" stroke-width="6.86056" stroke-linejoin="round" stroke-miterlimit="10" fill="none" fill-rule="evenodd"/><path d="M544.675 514.5C554.816 502.711 566.511 492.356 579.442 483.719 581.519 490.922 580.47 498.677 576.551 505.067 573.198 509.081 577.527 512.003 578.317 515.268 583.443 535.301 584.377 556.181 581.065 576.592 579.363 586.769 572.43 594.215 567.333 602.647 565.638 605.409 562.91 608.039 559.124 606.456 556.001 605.213 555.901 601.888 555.93 598.998 556.114 579.357 550.785 560.773 545.121 542.24 546.447 532.993 544.471 523.781 544.675 514.5Z" stroke="#FFFFFF" stroke-width="6.86056" stroke-linejoin="round" stroke-miterlimit="10" fill="none" fill-rule="evenodd"/><path d="M544.677 514.504C549.393 523.099 551.229 531.91 546.635 541.203 544.859 547.599 548.314 553.437 550.217 558.814 557.635 579.698 557.281 600.86 554.19 622.14 552.783 631.786 549.122 641.066 540.061 646.756 533.659 644.347 533.603 638.844 533.524 633.351 533.214 608.614 527.462 584.456 524.86 559.951 524.524 556.824 522.33 553.912 520.949 550.797 526.552 537.335 535.714 526.009 544.677 514.504Z" stroke="#FFFFFF" stroke-width="6.86056" stroke-linejoin="round" stroke-miterlimit="10" fill="none" fill-rule="evenodd"/><path d="M813.615 748.379C810.343 730.893 822.19 716.738 824.809 700.333 826.904 690.031 830.016 679.963 834.101 670.277 835.558 665.939 838.447 662.221 842.288 659.731 853.347 662.109 861.966 667.364 865.442 678.86 854.899 692.74 854.048 710.162 848.456 725.859 847.771 727.742 846.759 729.977 848.488 731.595 850.801 733.786 853.111 731.774 855.211 730.806L870.716 723.245C864.963 731.581 855.384 733.487 846.935 736.86 835.962 741.409 824.614 744.564 813.615 748.379Z" stroke="#FFFFFF" stroke-width="6.86056" stroke-linejoin="round" stroke-miterlimit="10" fill="none" fill-rule="evenodd"/><path d="M468.417 919.516C458.448 912.569 450.011 921.467 440.643 922.275 437.183 922.552 433.842 925.342 430.57 926.91 434.414 906.95 444.429 889.207 451.939 870.639 456.532 859.302 458.646 846.794 466.007 836.595 468.035 833.781 467.733 827.264 471.878 828.561 476.023 829.858 481.87 835.441 480.755 839.166 472.879 865.378 484.529 894.597 468.417 919.516Z" stroke="#FFFFFF" stroke-width="6.86056" stroke-linejoin="round" stroke-miterlimit="10" fill="none" fill-rule="evenodd"/><path d="M251.288 842.893C267.768 845.724 279.445 857.591 293.297 865.354 296.192 866.857 298.923 868.658 301.447 870.727 305.029 873.819 312.321 873.914 312.041 879.747 311.76 885.581 304.562 885.109 300.798 887.995L274.1 901.014C260.118 894.005 247.844 884.09 234.327 876.163 236.855 863.371 241.849 851.892 251.288 842.893Z" stroke="#FFFFFF" stroke-width="6.86056" stroke-linejoin="round" stroke-miterlimit="10" fill="none" fill-rule="evenodd"/><path d="M575.896 504.802C576.611 497.706 576.106 490.431 579.441 483.716 589.637 480.071 597.816 471.437 609.574 471.787 609.533 492.039 611.945 512.217 616.758 531.888 619.48 536.506 615.288 538.855 613.052 541.301 605.643 549.642 598.84 558.546 590.914 566.393 587.613 569.662 582.168 571.653 582.673 564.521 584.132 544.092 579.112 524.611 575.896 504.802Z" stroke="#FFFFFF" stroke-width="6.86056" stroke-linejoin="round" stroke-miterlimit="10" fill="none" fill-rule="evenodd"/><path d="M572.665 719.326C566.505 710.549 567.432 700.086 566.307 690.237 564.763 676.637 560.484 663.155 563.335 649.21 575.348 641.747 592.116 645.849 601.039 658.478 595.011 668.8 600.868 679.052 601.389 689.307 601.543 692.744 605.744 691.774 608.511 690.756 598.678 702.667 586.469 712.398 572.665 719.326Z" stroke="#FFFFFF" stroke-width="6.86056" stroke-linejoin="round" stroke-miterlimit="10" fill="none" fill-rule="evenodd"/><path d="M170.811 774.286C192.372 787.084 214.058 799.684 235.337 812.924 239.26 815.297 246.219 816.411 244.788 823.912 227.697 831.112 212.469 823.079 197.228 817.514 175.827 809.865 158.148 796.805 146.055 776.43 154.537 773.124 162.772 774.473 170.811 774.286Z" stroke="#FFFFFF" stroke-width="6.86056" stroke-linejoin="round" stroke-miterlimit="10" fill="none" fill-rule="evenodd"/><path d="M146.304 905.158C127.395 898.688 110.072 888.286 95.4711 874.638 120.108 862.043 145.06 850.263 175.745 843.264 157.77 862.206 150.88 883.181 146.304 905.158Z" stroke="#FFFFFF" stroke-width="6.86056" stroke-linejoin="round" stroke-miterlimit="10" fill="none" fill-rule="evenodd"/><path d="M625.211 1019.85C606.864 1031.56 588.746 1029.06 570.559 1019.04 552.758 1009.25 536.666 997.625 525.635 980.107 523.817 972.863 525.905 970.794 533.481 973.515 542.288 976.715 550.786 980.646 559.578 984.157 569.409 988.157 579.207 992.256 588.913 996.566 590.969 997.776 591.044 1001.39 594.415 1001.16 602.76 1002.62 609.9 1006.77 617.427 1010.07 621.467 1011.83 626.171 1013.88 625.211 1019.85Z" stroke="#FFFFFF" stroke-width="6.86056" stroke-linejoin="round" stroke-miterlimit="10" fill="none" fill-rule="evenodd"/><path d="M508.085 955.479C495.315 942.957 492.415 925.953 487.439 909.907 486.663 907.52 486.04 905.279 485.318 902.949 485.693 901.755 486.542 900.768 487.666 900.22 488.789 899.672 490.089 899.61 491.261 900.051 503.099 904.593 516.379 906.192 525.672 916.289 524.747 921.083 520.702 923.11 517.195 925.955 519.581 925.178 521.254 923.505 523.408 922.648 539.58 921.786 552.191 929.159 563.402 939.787 563.681 949.717 560.347 957.455 550.472 961.247 536.18 955.191 523.176 946.046 506.843 942.949 505.755 947.24 510.507 951.201 508.085 955.479Z" stroke="#FFFFFF" stroke-width="6.86056" stroke-linejoin="round" stroke-miterlimit="10" fill="none" fill-rule="evenodd"/><path d="M421.947 1226.82C416.486 1220.38 411.029 1224.73 405.274 1226.65 395.738 1229.78 385.85 1232.53 376.106 1235.35 367.214 1231.91 357.052 1229.84 356.275 1217.36 380.389 1207.04 406.167 1201.66 430.832 1192.92 432.316 1192.39 434.567 1194.06 436.462 1194.71L421.947 1226.82Z" stroke="#FFFFFF" stroke-width="6.86056" stroke-linejoin="round" stroke-miterlimit="10" fill="none" fill-rule="evenodd"/><path d="M508.089 955.478C505.989 949.81 501.724 944.976 501.005 936.809 518.13 944.027 536.159 946.519 549.195 960.322 548.809 964.52 543.736 964.836 542.668 968.261 548 965.528 554.384 965.734 559.527 968.806 568.357 974.041 579.255 974.783 587.369 981.611 590.585 986.901 592.588 992.313 590.069 998.491 571.479 994.393 554.85 985.246 537.603 977.893 529.412 974.366 528.124 974.219 525.798 980.11 517.325 973.623 512.377 964.781 508.089 955.478Z" stroke="#FFFFFF" stroke-width="6.86056" stroke-linejoin="round" stroke-miterlimit="10" fill="none" fill-rule="evenodd"/><path d="M484.664 850.748C487.085 842.046 487.7 833.781 479.684 827.209 478.118 825.926 476.716 823.844 478.491 821.983 479.791 821.026 481.421 820.632 483.015 820.883 485.358 821.207 488.834 821.475 489.796 823.107 500.006 840.584 519.903 841.86 535.233 850.728 552.653 860.761 570.288 870.441 584.393 885.189 577.804 890.503 571.737 886.797 566.357 883.42 555.74 876.789 543.471 874.143 532.625 868.233 529.327 866.431 525.442 866.025 521.842 867.103 513.462 866.931 511.417 855.594 502.481 856.55 495.974 857.422 489.41 855.286 484.664 850.748Z" stroke="#FFFFFF" stroke-width="6.86056" stroke-linejoin="round" stroke-miterlimit="10" fill="none" fill-rule="evenodd"/><path d="M762.396 756.769C759.827 738.968 769.25 723.699 773.093 707.306 774.278 702.138 775.821 696.739 781.866 694.732 792.096 696.712 798.426 703 801.697 712.716 795.073 714.84 794.013 720.888 792.502 726.297 789.978 735.355 787.986 744.54 785.761 753.644 777.997 755.245 770.381 757.605 762.396 756.769Z" stroke="#FFFFFF" stroke-width="6.86056" stroke-linejoin="round" stroke-miterlimit="10" fill="none" fill-rule="evenodd"/><path d="M609.657 914.24C617.628 922.078 621.069 932.595 626.054 942.194 619.819 948.746 614.961 944.285 610.043 940.267 608.141 935.913 604.228 934.807 600.033 934.087 580.477 930.903 565.348 919.669 550.943 907.142 546.247 903.182 541.823 898.591 542.55 891.462 545.408 886.832 549.792 887.599 553.499 889.303 571.989 897.902 592.022 903.481 609.657 914.24Z" stroke="#FFFFFF" stroke-width="6.86056" stroke-linejoin="round" stroke-miterlimit="10" fill="none" fill-rule="evenodd"/><path d="M609.654 914.24C591.358 910.746 575.492 900.895 558.281 894.409 553.342 892.559 548.918 889.103 543.193 891.369 532.117 886.123 523.887 878.66 522.328 865.594 523.76 860.138 527.504 862.599 530.139 863.748 542.159 868.948 554.271 873.937 565.739 880.043 571.755 883.193 577.421 885.795 584.286 885.13 593.771 893.862 603.378 902.561 609.654 914.24Z" stroke="#FFFFFF" stroke-width="6.86056" stroke-linejoin="round" stroke-miterlimit="10" fill="none" fill-rule="evenodd"/><path d="M651.57 722.331C654.166 732.985 644.441 741.736 646.826 752.299L601.053 771.854C595.322 769.118 594.723 764.543 596.519 759.38 598.316 754.218 598.747 748.864 601.318 744.098 617.022 734.45 635.594 731.422 651.57 722.331Z" stroke="#FFFFFF" stroke-width="6.86056" stroke-linejoin="round" stroke-miterlimit="10" fill="none" fill-rule="evenodd"/><path d="M525.142 916.74C511.848 912.162 500.417 902.388 485.259 903.004 483.032 893.526 482.008 883.805 482.211 874.071 482.674 872.825 483.598 871.805 484.793 871.222 486.268 870.503 487.999 870.527 489.454 871.286 505.265 878.813 522.777 882.911 536.24 895.096 539.027 905.518 534.899 912.591 525.142 916.74Z" stroke="#FFFFFF" stroke-width="6.86056" stroke-linejoin="round" stroke-miterlimit="10" fill="none" fill-rule="evenodd"/><path d="M610.528 938.704C615.325 941.509 620.11 944.402 626.057 942.193 630.534 951.376 635.804 960.31 634.662 971.182L632.794 971.264C611.424 967.138 591.791 959.372 575.083 944.899 569.077 939.82 564.787 933.002 562.803 925.39 562.161 922.938 562.526 917.561 566.17 919.988 579.775 929.061 596.343 930.882 610.528 938.704Z" stroke="#FFFFFF" stroke-width="6.86056" stroke-linejoin="round" stroke-miterlimit="10" fill="none" fill-rule="evenodd"/><path d="M234.285 876.076C250.434 879.705 262.427 890.006 274.057 900.928 263.021 906.31 251.908 911.535 240.947 917.073 235.249 920.018 233.106 918.629 232.29 912.363 230.564 900.254 231.24 887.922 234.285 876.076Z" stroke="#FFFFFF" stroke-width="6.86056" stroke-linejoin="round" stroke-miterlimit="10" fill="none" fill-rule="evenodd"/><path d="M634.665 971.182C638.538 980.764 638.827 991.428 635.478 1001.2 623.59 996.106 612.586 989.194 600.063 985.29 596.085 983.994 593.721 985.838 590.585 986.04 585.749 979.3 584.43 971.039 581.047 963.646 579.419 960.615 580.222 956.816 582.936 954.704 585.692 952.642 588.353 954.469 590.872 955.951 604.272 964.488 619.469 967.807 634.619 971.315L634.665 971.182Z" stroke="#FFFFFF" stroke-width="6.86056" stroke-linejoin="round" stroke-miterlimit="10" fill="none" fill-rule="evenodd"/><path d="M601.33 744.07C602.861 748.854 603.378 753.939 600.212 758.166 596.361 763.085 598.875 767.39 601.054 771.859 591.431 775.887 581.616 773.622 571.82 772.757 561.529 772.167 551.28 771.009 541.117 769.284 560.93 759.954 580.25 750.008 601.33 744.07Z" stroke="#FFFFFF" stroke-width="6.86056" stroke-linejoin="round" stroke-miterlimit="10" fill="none" fill-rule="evenodd"/><path d="M534.243 895.709C517.247 887.681 501.687 876.188 482.21 874.071L484.665 850.75C490.728 850.255 495.973 856.132 502.428 853.15 515.642 862.441 525.735 874.803 535.504 887.407 537.348 889.715 542.429 894.123 534.243 895.709Z" stroke="#FFFFFF" stroke-width="6.86056" stroke-linejoin="round" stroke-miterlimit="10" fill="none" fill-rule="evenodd"/><path d="M592.273 986.324C593.88 984.628 592.638 979.814 597.555 981.674 610.923 986.743 625.583 989.301 635.402 1001.22 634.614 1008.9 631.869 1015.52 625.21 1020.01 616.541 1009.78 603.632 1007.86 592.117 1003.19 593.663 997.455 589.24 991.786 592.273 986.324Z" stroke="#FFFFFF" stroke-width="6.86056" stroke-linejoin="round" stroke-miterlimit="10" fill="none" fill-rule="evenodd"/><path d="M653.53 749.028C657.533 747.711 660.842 743.609 665.79 745.815 661.708 747.086 658.422 751.177 653.53 749.028Z" stroke="#FFFFFF" stroke-width="6.86056" stroke-linejoin="round" stroke-miterlimit="10" fill="none" fill-rule="evenodd"/><path d="M396.28 1021.09C381.523 1036.19 365.925 1050.94 356.879 1070.72L356.706 1072.47C352.978 1079.62 347.548 1085.73 344.008 1092.98 333.91 1110.16 323.901 1127.34 316.468 1145.9 316.14 1146.99 315.732 1148.04 315.247 1149.07 302.583 1177.38 292.618 1206.82 285.482 1237.01 282.916 1246.83 282.967 1257.31 278.228 1266.59L273.105 1278.77C270.747 1267.7 273.015 1259.87 273.893 1252.03L283.248 1208.95 299.434 1165.3C268.902 1184.92 236.718 1192.92 201.192 1188.12 199.42 1183.01 201.88 1182.62 206.154 1183.21 239.824 1188.01 269.412 1178.36 296.444 1158.54 302.063 1154.46 306.413 1148.87 308.988 1142.42 314.653 1129.42 321.149 1116.77 328.357 1101.78 303.005 1120.28 276.525 1125.92 248.373 1126.37 243.956 1123.38 237.5 1127.61 233.627 1122.5 234.234 1118.42 237.37 1119.4 239.39 1119.69 276.008 1125.31 307.436 1112.86 334.896 1090.29 343.706 1083.06 348.727 1071.13 355.108 1061.08 357.591 1057.27 359.544 1053.16 363.537 1050.69 378.623 1031.61 393.202 1012.05 411.646 996.229L414.457 998.591 396.28 1021.09Z" stroke="#FFFFFF" stroke-width="6.86056" stroke-linejoin="round" stroke-miterlimit="10" fill="none" fill-rule="evenodd"/><path d="M801.736 712.691C796.407 705.278 789.089 700.081 781.905 694.707 769.629 687.17 756.872 681.085 742.022 680.971 740.334 676.263 738.179 676.153 734.015 679.068 716.422 690.893 700.635 705.204 687.147 721.557 680.991 719.028 680.738 718.792 685.42 714.103 694.83 704.647 704.592 695.517 714.2 686.242 740.575 668.872 767.993 652.681 777.42 619.103 781.547 604.37 780.772 589.455 780.588 573.312 787.3 576.924 784.012 583.395 787.335 586.863 785.398 607.165 783.172 627.609 770.462 645.892 816.517 632.587 832.931 606.248 832.372 557.351 832.372 556.218 826.102 546.195 836.674 551.769 839.859 578.092 833.838 602.266 817.964 625.686L870.568 609.99C882.378 608.462 893.924 604.408 905.923 605.083L906.538 608.102 876.07 615.603C864.953 623.541 851.068 623.592 838.858 628.495 831.916 631.272 824.857 633.414 818.155 636.627 790.807 642.359 770.455 662.266 747.576 672.455 761.257 675.048 776.758 679.048 788.607 691.439 796.8 701.547 808.051 709.307 814.64 722.99 805.774 722.502 803.915 717.159 801.736 712.691Z" stroke="#FFFFFF" stroke-width="6.86056" stroke-linejoin="round" stroke-miterlimit="10" fill="none" fill-rule="evenodd"/><path d="M815.86 633.898C834.899 624.81 855.197 618.64 876.072 615.598 876.629 631.089 867.807 644.019 864.396 658.458 863.768 661.198 862.963 663.914 862.236 666.619 859.677 669.083 857.562 667.128 855.854 665.611 844.098 655 829.829 648.877 815.551 642.677 813.124 639.629 813.875 636.746 815.86 633.898Z" stroke="#FFFFFF" stroke-width="6.86056" stroke-linejoin="round" stroke-miterlimit="10" fill="none" fill-rule="evenodd"/><path d="M816.896 641.691C834.296 645.844 848.392 655.978 862.226 666.598 865.739 671.135 869.183 675.705 872.797 680.165 874.543 682.328 877.933 684.63 874.661 687.221 870.392 690.602 869.316 685.845 867.674 683.271 866.788 681.907 866.236 680.323 865.339 678.879 859.759 669.931 849.722 666.363 842.185 659.751 832.49 650.873 820.332 648.284 807.859 646.07 805.748 644.86 801.678 648.365 801.114 643.58 800.74 639.808 803.737 639.148 806.61 638.632 810.631 637.86 813.713 639.758 816.896 641.691Z" stroke="#FFFFFF" stroke-width="6.86056" stroke-linejoin="round" stroke-miterlimit="10" fill="none" fill-rule="evenodd"/><path d="M313.878 1147C319.726 1126.72 330.95 1109.19 342.219 1091.7 348.845 1084.87 355.819 1083.41 363.377 1090.23 372.505 1108.04 379.876 1126.95 395.042 1141.16 396.163 1142.34 396.587 1144.02 396.155 1145.59 372.887 1154.59 349.57 1164.1 324.906 1169.27 316.152 1164.25 320.556 1152.87 313.878 1147Z" stroke="#FFFFFF" stroke-width="6.86056" stroke-linejoin="round" stroke-miterlimit="10" fill="none" fill-rule="evenodd"/><path d="M313.883 1147C318.123 1145.43 319.749 1147.35 320.553 1151.43 321.716 1157.45 323.381 1163.36 324.845 1169.31 333.824 1186.36 339.054 1205.93 356.493 1217.48 360.247 1226.71 370.737 1228.26 376.324 1235.46L371.856 1237.64C358.874 1235.12 351.204 1225.01 342.08 1216.96 330.009 1202.19 319.101 1186.85 314.767 1167.7 313.202 1160.74 311.968 1154.02 313.838 1147.02L313.883 1147Z" stroke="#FFFFFF" stroke-width="6.86056" stroke-linejoin="round" stroke-miterlimit="10" fill="none" fill-rule="evenodd"/><path d="M396.154 1145.59C379.596 1130.46 370.221 1110.72 361.126 1090.77 358.032 1084.42 353.969 1078.3 356.879 1070.72 356.999 1070.64 357.12 1070.58 357.245 1070.52 359.499 1069.42 362.262 1070.37 363.361 1072.62 363.422 1072.75 363.476 1072.88 363.526 1073.01 365.126 1085.56 369.161 1097.69 375.4 1108.7 383.963 1126.26 395.384 1141.4 412.772 1151.31 414.796 1153.53 418.91 1154.54 416.945 1159.87 408.672 1156.74 403.058 1150.05 396.154 1145.59Z" stroke="#FFFFFF" stroke-width="6.86056" stroke-linejoin="round" stroke-miterlimit="10" fill="none" fill-rule="evenodd"/><path d="M345.537 1217.3 372.016 1237.57C340.934 1247.55 310.063 1258.76 278.347 1266.65 277.45 1256.25 281.126 1246.6 283.225 1236.62 303.059 1227.56 323.296 1219.27 345.537 1217.3Z" stroke="#FFFFFF" stroke-width="6.86056" stroke-linejoin="round" stroke-miterlimit="10" fill="none" fill-rule="evenodd"/><path d="M601.055 658.466C589.88 649.728 577.466 646.103 563.35 649.197 551.136 648.876 542.797 652.417 539.546 666.336 535.923 681.93 529.948 697.012 524.95 712.169 521.526 713.314 518.972 713.066 519.917 708.484 520.735 704.49 521.864 700.566 522.859 696.597 525.592 678.948 537.995 664.631 540.03 646.742 559.946 614.769 555.628 581.699 544.565 548.294 543.238 544.268 543.238 544.268 546.647 541.223 556.453 561.33 559.32 582.635 558.834 606.987 574.674 591.382 580.124 574.316 580.033 554.45 580.158 535.108 576.082 515.968 568.084 498.359 574.356 498.065 574.045 502.587 575.968 504.829 584.898 524.617 586.124 545.561 584.654 569.314L616.764 531.892C623.102 527.197 628.158 520.667 639.008 516.206 632.446 527.702 623.794 532.529 617.842 539.718 609.453 557.221 593.75 569.082 584.791 584.623 596.74 582.474 610.584 579.844 622.87 589.726 628.491 593.484 635.248 595.885 639.36 602.73 633.342 605.415 630.744 600.598 627.138 598.706 614.136 591.662 600.747 587.572 586.055 593.851 566.439 602.394 563.748 622.51 553.698 639.441 567.621 641.114 581.268 637.058 592.183 646.171 596.557 649.072 600.998 651.884 605.303 654.928 607.168 656.258 609.852 658.019 606.815 660.524 604.27 662.677 602.479 660.536 601.055 658.466Z" stroke="#FFFFFF" stroke-width="6.86056" stroke-linejoin="round" stroke-miterlimit="10" fill="none" fill-rule="evenodd"/><path d="M622.858 589.756C609.453 586.255 596.047 582.808 581.666 588.079 590.607 568.703 604.202 554.22 617.83 539.748 621.568 556.204 625.162 572.704 622.858 589.756Z" stroke="#FFFFFF" stroke-width="6.86056" stroke-linejoin="round" stroke-miterlimit="10" fill="none" fill-rule="evenodd"/><path d="M816.895 641.696C813.708 641.342 810.522 640.877 807.323 640.611 805.268 640.424 802.709 640.677 803.149 643.393 803.393 644.574 806.232 645.236 807.891 646.142 794.719 656.049 796.122 672.594 789.911 685.661 789.278 687.537 788.842 689.473 788.609 691.439 773.492 685.675 760.232 675.383 743.028 673.845 766.802 658.629 788.237 640.544 815.894 633.86L816.895 641.696Z" stroke="#FFFFFF" stroke-width="6.86056" stroke-linejoin="round" stroke-miterlimit="10" fill="none" fill-rule="evenodd"/><path d="M592.286 646.151C579.821 644.237 567.658 639.992 554.716 644.644 549.25 646.59 550.077 641.651 551.285 638.684 557.526 623.973 564.956 609.795 573.506 596.295 576.499 591.489 581.87 594.677 586.136 593.842 591.08 610.955 594.887 628.29 592.286 646.151Z" stroke="#FFFFFF" stroke-width="6.86056" stroke-linejoin="round" stroke-miterlimit="10" fill="none" fill-rule="evenodd"/><path d="M592.265 986.327C593.821 991.956 597.778 997.632 592.1 1003 588.857 1002.7 590.462 1000.04 589.921 998.532L584.529 981.804C578.428 972.583 574.217 962.302 568.347 951.172 561.088 964.64 548.441 968.706 535.665 972.336 534.94 962.513 544.814 964.501 549.125 960.242 556.784 955.815 560.3 948.791 561.551 940.355 559.803 926.108 549.491 916.757 541.235 904.024 539.374 915.689 531.368 920.368 523.88 925.54 519.211 927.817 514.557 930.694 507.147 925.819 515.702 925.103 519.635 919.729 525.069 916.637 529.147 910.085 537.332 905.319 534.171 895.605 539.784 890.103 532.784 887.543 530.697 885.021 521.702 874.004 512.01 863.714 502.356 853.046 512.848 851.027 514.213 863.525 522.242 865.472 527.669 875.298 536.167 882.685 543.108 891.247 555.662 913.194 575.636 924.72 599.312 930.57 609.824 933.186 610.45 932.881 610.437 938.584 594.462 935.313 578.999 930.824 563.508 920.153 571.128 943.207 588.471 952.006 606.34 960.521 615.479 964.858 626.47 964.089 634.571 971.062 615.553 973.063 600.031 963.293 581.189 953.178 585.671 966.452 588.974 976.345 592.265 986.327Z" stroke="#FFFFFF" stroke-width="6.86056" stroke-linejoin="round" stroke-miterlimit="10" fill="none" fill-rule="evenodd"/><path d="M523.946 925.62C529.319 919.626 534.946 913.812 538.588 906.478 539.767 904.077 541.577 899.904 544.483 903.88 552.084 914.193 562.39 923.134 563.283 937.216 563.34 938.239 562.195 939.351 561.617 940.434 549.576 933.945 538.968 924.101 523.946 925.62Z" stroke="#FFFFFF" stroke-width="6.86056" stroke-linejoin="round" stroke-miterlimit="10" fill="none" fill-rule="evenodd"/><path d="M535.648 972.292C558.142 961.71 558.142 961.71 568.573 943.405 574.107 957.022 583.363 967.497 584.511 981.76 576.513 978.968 567.518 977.989 560.958 972.477 552.128 965.086 544.052 973.365 535.648 972.292Z" stroke="#FFFFFF" stroke-width="6.86056" stroke-linejoin="round" stroke-miterlimit="10" fill="none" fill-rule="evenodd"/><path d="M345.533 1217.3C324.94 1224.57 304.897 1233.43 283.088 1236.69 289.833 1205.55 299.161 1175.28 313.994 1146.95 316.975 1173.65 329.557 1196.16 345.533 1217.3Z" stroke="#FFFFFF" stroke-width="6.86056" stroke-linejoin="round" stroke-miterlimit="10" fill="none" fill-rule="evenodd"/><path d="M356.875 1070.72C358.632 1077.33 361.805 1083.66 361.122 1090.77 354.605 1086.59 348.437 1089.77 342.215 1091.69 345.151 1083.53 350.212 1076.29 356.875 1070.72Z" stroke="#FFFFFF" stroke-width="6.86056" stroke-linejoin="round" stroke-miterlimit="10" fill="none" fill-rule="evenodd"/><path d="M305.717 1492.74 353.478 1492.36C353.478 1487.42 353.55 1480.89 353.55 1476.77 353.55 1476.67 353.286 1476.74 353.151 1476.74L305.717 1476.74C296.083 1476.74 290.522 1474.32 288.3 1471.31 287.929 1470.4 287.56 1469.49 287.56 1468.89 287.56 1467.98 287.929 1467.08 288.3 1466.17 290.522 1463.15 296.083 1460.74 305.717 1460.74L343.525 1461.01C343.525 1465.23 343.393 1447.37 343.393 1444.74L305.717 1444.74M305.717 1444.74C288.3 1444.74 276.812 1450.48 271.254 1458.02 269.029 1461.34 267.549 1464.96 267.549 1468.89 267.549 1472.51 269.029 1476.14 271.254 1479.46 276.812 1487 288.3 1492.74 305.717 1492.74" stroke="#FFFFFF" stroke-width="17.1467" stroke-miterlimit="8" fill="#FFFFFF" fill-rule="evenodd"/><path d="M658.062 1873.64C658.062 1948.73 585.287 2247.02 541.249 2280.36 527.813 2290.58 501.687 2291.18 487.506 2280.36 443.094 2247.32 370.69 1948.73 371.063 1873.64L371.063 1497.25 658.062 1497.25 658.062 1873.64Z" stroke="#FFFFFF" stroke-width="13.6977" stroke-linejoin="round" stroke-miterlimit="10" fill="none" fill-rule="evenodd"/><path d="M353.562 1468.74 677.563 1468.74 677.563 1497.74 353.562 1497.74Z" stroke="#FFFFFF" stroke-width="17.1467" stroke-linecap="round" stroke-linejoin="round" stroke-miterlimit="10" fill="none" fill-rule="evenodd"/><path d="M343.562 1439.74 687.562 1439.74 687.562 1468.74 343.562 1468.74Z" stroke="#FFFFFF" stroke-width="17.1467" stroke-linecap="round" stroke-linejoin="round" stroke-miterlimit="10" fill="none" fill-rule="evenodd"/><path d="M393.059 1568.24 548.059 1568.24 393.059 1568.24ZM393.059 1763.59 548.059 1763.59 393.059 1763.59ZM393.059 1959.25 548.059 1959.25 393.059 1959.25Z" stroke="#FFFFFF" stroke-width="13.6977" stroke-linejoin="round" stroke-miterlimit="10" stroke-opacity="0.8" fill="none" fill-rule="evenodd"/><path d="M1391.08 278.508C1389.94 278.508 1388.83 278.958 1388.02 279.78 1387.2 280.583 1386.75 281.699 1386.75 282.835 1386.75 371.276 1386.75 1784.43 1386.75 2174.47 1386.75 2200.73 1397.18 2225.93 1415.74 2244.49 1434.31 2263.07 1459.48 2273.51 1485.74 2273.51L2451.75 2273.51 2451.75 358.667C2451.75 316.786 2417.87 282.776 2376 282.6L1391.08 278.508Z" stroke="#FFFFFF" stroke-width="19.7953" stroke-linecap="round" stroke-linejoin="round" stroke-miterlimit="10" fill="none" fill-rule="evenodd"/><path d="M1386.74 529.48 2451.74 529.48" stroke="#FFFFFF" stroke-width="19.5553" stroke-linecap="round" stroke-linejoin="round" stroke-miterlimit="10" fill="none" fill-rule="evenodd"/></g></svg>