<svg width="3738" height="1984" xmlns="http://www.w3.org/2000/svg" xmlns:xlink="http://www.w3.org/1999/xlink" overflow="hidden"><defs><clipPath id="clip0"><rect x="334" y="280" width="3738" height="1984"/></clipPath><clipPath id="clip1"><rect x="3017" y="1008" width="832" height="834"/></clipPath><clipPath id="clip2"><rect x="3017" y="1008" width="832" height="834"/></clipPath><clipPath id="clip3"><rect x="3017" y="1008" width="832" height="834"/></clipPath></defs><g clip-path="url(#clip0)" transform="translate(-334 -280)"><text fill="#FFFFFF" font-family="Avenir Next LT Pro,Avenir Next LT Pro_MSFontService,sans-serif" font-weight="400" font-size="202" transform="matrix(1 0 0 1 1791.74 1109)">Agilent <tspan font-size="202" x="-190.208" y="242">MassHunter</tspan><tspan font-family="Avenir Next LT Pro Demi,Avenir Next LT Pro Demi_MSFontService,sans-serif" font-weight="600" font-size="165" x="-112.05" y="-622">Component</tspan><tspan font-family="Avenir Next LT Pro Demi,Avenir Next LT Pro Demi_MSFontService,sans-serif" font-weight="600" font-size="165" x="-49.2128" y="-464">[Software]</tspan><tspan font-family="Avenir Next LT Pro Demi,Avenir Next LT Pro Demi_MSFontService,sans-serif" font-weight="600" font-size="202" x="264.78" y="590">…</tspan></text><path d="M1509.79 303.99C1508.8 303.99 1507.86 304.43 1507.16 305.234 1506.47 306.019 1506.08 307.09 1506.08 308.22 1506.08 394.608 1506.08 1775.94 1506.08 2157.19 1506.08 2182.85 1515.02 2207.49 1530.92 2225.63 1546.82 2243.79 1568.38 2253.99 1590.87 2253.99L2757.08 2253.99 2757.08 382.436C2757.08 341.443 2728.03 308.201 2692.13 308.066L1509.79 303.99Z" stroke="#FFFFFF" stroke-width="19.1013" stroke-linecap="round" stroke-linejoin="round" stroke-miterlimit="10" fill="none" fill-rule="evenodd"/><path d="M1506.02 751.949 2933.02 751.949" stroke="#FFFFFF" stroke-width="19.3532" stroke-linecap="round" stroke-linejoin="round" stroke-miterlimit="10" fill="none" fill-rule="evenodd"/><path d="M888.245 1530.15 918.235 1529.91C918.235 1526.72 918.28 1522.5 918.28 1519.84 918.28 1519.77 918.114 1519.82 918.029 1519.82L888.245 1519.82C882.196 1519.82 878.704 1518.26 877.309 1516.31 877.076 1515.73 876.844 1515.14 876.844 1514.75 876.844 1514.17 877.076 1513.58 877.309 1513 878.704 1511.05 882.196 1509.49 888.245 1509.49L911.985 1509.66C911.985 1512.39 911.902 1500.85 911.902 1499.15L888.245 1499.15M888.245 1499.15C877.309 1499.15 870.096 1502.86 866.606 1507.73 865.208 1509.88 864.279 1512.22 864.279 1514.75 864.279 1517.09 865.208 1519.43 866.606 1521.58 870.096 1526.45 877.309 1530.15 888.245 1530.15" stroke="#FFFFFF" stroke-width="13.8756" stroke-miterlimit="8" fill="#FFFFFF" fill-rule="evenodd"/><path d="M1108.78 1778.23C1108.78 1827.03 1063.39 2020.86 1035.93 2042.52 1027.55 2049.16 1011.25 2049.55 1002.41 2042.52 974.709 2021.05 929.551 1827.03 929.784 1778.23L929.784 1533.65 1108.78 1533.65 1108.78 1778.23Z" stroke="#FFFFFF" stroke-width="13.3877" stroke-linejoin="round" stroke-miterlimit="10" fill="none" fill-rule="evenodd"/><path d="M918.282 1514.16 1119.28 1514.16 1119.28 1533.16 918.282 1533.16Z" stroke="#FFFFFF" stroke-width="13.8756" stroke-linecap="round" stroke-linejoin="round" stroke-miterlimit="10" fill="none" fill-rule="evenodd"/><path d="M911.283 1495.15 1126.28 1495.15 1126.28 1514.15 911.283 1514.15Z" stroke="#FFFFFF" stroke-width="13.8756" stroke-linecap="round" stroke-linejoin="round" stroke-miterlimit="10" fill="none" fill-rule="evenodd"/><path d="M942.782 1579.65 1039.78 1579.65 942.782 1579.65ZM942.782 1706.55 1039.78 1706.55 942.782 1706.55ZM942.782 1833.65 1039.78 1833.65 942.782 1833.65Z" stroke="#FFFFFF" stroke-width="13.3877" stroke-linejoin="round" stroke-miterlimit="10" stroke-opacity="0.8" fill="none" fill-rule="evenodd"/><text fill="#FFFFFF" font-family="Avenir Next LT Pro Demi,Avenir Next LT Pro Demi_MSFontService,sans-serif" font-weight="600" font-size="110" transform="matrix(1 0 0 1 3087.47 474)">Component<tspan font-size="110" x="632.042" y="0">name</tspan><tspan font-size="110" x="199.215" y="106">in </tspan><tspan font-size="110" x="320.1" y="106">brackets</tspan></text><path d="M2681 605 2640 640.616 2675.29 682 2681 605Z" stroke="#FFFFFF" stroke-width="13.7796" stroke-linecap="round" stroke-miterlimit="8" fill="none" fill-rule="evenodd"/><path d="M2678 643.981C2748.2 650.604 2876.49 660.268 2950.77 638.868 3014.27 620.581 3048.66 589.722 3143 530" stroke="#FFFFFF" stroke-width="13.7796" stroke-linecap="round" stroke-linejoin="round" stroke-miterlimit="10" stroke-dasharray="27.5592 27.5592" fill="none" fill-rule="evenodd"/><path d="M699.5 764.302C699.5 755.575 706.575 748.5 715.302 748.5L1012.7 748.5C1021.43 748.5 1028.5 755.575 1028.5 764.302L1028.5 1096.7C1028.5 1105.43 1021.43 1112.5 1012.7 1112.5L715.302 1112.5C706.575 1112.5 699.5 1105.43 699.5 1096.7Z" stroke="#FFFFFF" stroke-width="20.625" stroke-miterlimit="8" fill="none" fill-rule="evenodd"/><path d="M755.5 781.5 755.5 1081.94" stroke="#FFFFFF" stroke-width="6.875" stroke-miterlimit="8" fill="none" fill-rule="evenodd"/><path d="M733.5 906.5 733.5 962.86" stroke="#FFFFFF" stroke-width="6.875" stroke-miterlimit="8" fill="none" fill-rule="evenodd"/><path d="M736 626 736 747.991" stroke="#FFFFFF" stroke-width="13.75" stroke-miterlimit="8" fill="none" fill-rule="evenodd"/><path d="M989 626 989 747.991" stroke="#FFFFFF" stroke-width="13.75" stroke-miterlimit="8" fill="none" fill-rule="evenodd"/><path d="M781 817.001C781 804.85 790.85 795 803 795L969 795C981.15 795 991 804.85 991 817.001L991 905C991 917.15 981.15 927 969 927L803 927C790.85 927 781 917.15 781 905Z" stroke="#FFFFFF" stroke-width="10.3125" stroke-miterlimit="8" fill="none" fill-rule="evenodd"/><path d="M810 839.667C810 833.776 814.776 829 820.667 829L872.333 829C878.224 829 883 833.776 883 839.667L883 882.333C883 888.224 878.224 893 872.333 893L820.667 893C814.776 893 810 888.224 810 882.333Z" stroke="#FFFFFF" stroke-width="10.3125" stroke-miterlimit="8" fill="#FFFFFF" fill-rule="evenodd"/><path d="M0 0 71.6119 0.000360892" stroke="#FFFFFF" stroke-width="13.75" stroke-miterlimit="8" fill="none" fill-rule="evenodd" transform="matrix(-1 0 0 1 948.612 721)"/><path d="M0 0 71.6119 0.000360892" stroke="#FFFFFF" stroke-width="13.75" stroke-miterlimit="8" fill="none" fill-rule="evenodd" transform="matrix(-1 0 0 1 849.612 721)"/><path d="M344.5 764.302C344.5 755.575 351.575 748.5 360.302 748.5L657.698 748.5C666.425 748.5 673.5 755.575 673.5 764.302L673.5 1096.7C673.5 1105.43 666.425 1112.5 657.698 1112.5L360.302 1112.5C351.575 1112.5 344.5 1105.43 344.5 1096.7Z" stroke="#FFFFFF" stroke-width="20.625" stroke-miterlimit="8" fill="none" fill-rule="evenodd"/><path d="M401.5 781.5 401.5 1081.94" stroke="#FFFFFF" stroke-width="6.875" stroke-miterlimit="8" fill="none" fill-rule="evenodd"/><path d="M379.5 906.5 379.5 962.86" stroke="#FFFFFF" stroke-width="6.875" stroke-miterlimit="8" fill="none" fill-rule="evenodd"/><path d="M426 817.001C426 804.85 435.85 795 448 795L614 795C626.15 795 636 804.85 636 817.001L636 905C636 917.15 626.15 927 614 927L448 927C435.85 927 426 917.15 426 905Z" stroke="#FFFFFF" stroke-width="10.3125" stroke-miterlimit="8" fill="none" fill-rule="evenodd"/><path d="M456 839.667C456 833.776 460.776 829 466.667 829L517.333 829C523.224 829 528 833.776 528 839.667L528 882.333C528 888.224 523.224 893 517.333 893L466.667 893C460.776 893 456 888.224 456 882.333Z" stroke="#FFFFFF" stroke-width="10.3125" stroke-miterlimit="8" fill="#FFFFFF" fill-rule="evenodd"/><path d="M0 0 71.6119 0.000360892" stroke="#FFFFFF" stroke-width="13.75" stroke-miterlimit="8" fill="none" fill-rule="evenodd" transform="matrix(-1 0 0 1 593.612 721)"/><path d="M0 0 71.6119 0.000360892" stroke="#FFFFFF" stroke-width="13.75" stroke-miterlimit="8" fill="none" fill-rule="evenodd" transform="matrix(-1 0 0 1 494.612 721)"/><path d="M570 572.834C570 567.955 573.955 564 578.834 564L1099.17 564C1104.04 564 1108 567.955 1108 572.834L1108 608.166C1108 613.045 1104.04 617 1099.17 617L578.834 617C573.955 617 570 613.045 570 608.166Z" stroke="#FFFFFF" stroke-width="13.75" stroke-miterlimit="8" fill="none" fill-rule="evenodd"/><path d="M906.5 533C915.612 533 923 540.388 923 549.501L923 638.499C923 647.612 915.612 655 906.5 655L840.5 655C831.387 655 824 647.612 824 638.499L824 549.501C824 540.388 831.387 533 840.5 533Z" fill="#0BB5DD" fill-rule="evenodd"/><path d="M898.333 293C904.776 293 910 298.223 910 304.667L910 609.333C910 615.777 904.776 621 898.333 621L851.667 621C845.224 621 840 615.777 840 609.333L840 304.667C840 298.223 845.224 293 851.667 293Z" stroke="#FFFFFF" stroke-width="13.75" stroke-miterlimit="8" fill="none" fill-rule="evenodd"/><path d="M885.5 309.5 885.5 609.936" stroke="#FFFFFF" stroke-width="6.875" stroke-miterlimit="8" fill="none" fill-rule="evenodd"/><g clip-path="url(#clip1)"><g clip-path="url(#clip2)"><g clip-path="url(#clip3)"><path d="M281.719 290.394 299.052 290.394 299.052 275.297C382.087 299.875 421.252 359.008 418.219 454.939L394.385 454.939 394.385 520 459.446 520 459.446 454.939 435.647 454.939C438.204 366.652 406.475 305.786 341.033 273.121 340.756 272.983 340.773 272.913 341.033 272.965L481.433 298.775C483.428 311.379 494.291 320.661 507.052 320.667 507.243 320.667 507.416 320.615 507.598 320.615L507.052 437.667C507.062 439.517 508.245 441.157 509.999 441.749 510.449 441.896 510.92 441.972 511.394 441.974 512.748 441.989 514.029 441.37 514.861 440.301L554.823 390.104 619.069 388.882C621.461 388.882 623.402 386.941 623.402 384.549 623.402 383.184 622.76 381.9 621.669 381.082L527.843 310.137C532.588 303.87 534.21 295.778 532.246 288.167 528.695 274.297 514.574 265.932 500.705 269.483 493.911 271.222 488.113 275.64 484.631 281.727L299.052 247.624 299.052 225.333 234 225.333 234 290.394 281.719 290.394ZM442.113 502.667 411.719 502.667 411.719 472.273 442.113 472.273ZM554.45 372.797 546.295 372.953 541.216 379.331 524.749 400.053C524.663 400.166 524.593 400.14 524.593 400.001L524.914 329.801C524.914 329.706 524.983 329.671 525.061 329.732L581.065 372.121C581.169 372.207 581.152 372.277 581.013 372.277ZM251.333 242.667 281.719 242.667 281.719 273.061 251.333 273.061Z" fill="#FFFFFF" transform="matrix(1 0 0 1 3017 1009)"/><path d="M728 129.835 104 129.835C84.8779 129.893 69.3904 145.38 69.3333 164.502L69.3333 580.667C69.3952 599.787 84.8798 615.272 104 615.333L355.333 615.333 355.333 702 260 702 260 719.333 572 719.333 572 702 476.667 702 476.667 615.333 728 615.333C747.12 615.272 762.605 599.787 762.667 580.667L762.667 164.511C762.615 145.385 747.125 129.893 728 129.835ZM459.333 702 372.667 702 372.667 615.333 459.333 615.333ZM745.333 580.667C745.333 590.24 737.573 598 728 598L104 598C94.4268 598 86.6666 590.24 86.6666 580.667L86.6666 164.511C86.6666 154.937 94.4268 147.177 104 147.177L728 147.177C737.573 147.177 745.333 154.937 745.333 164.511Z" fill="#FFFFFF" transform="matrix(1 0 0 1 3017 1009)"/><path d="M130 173.186 112.667 173.186 112.667 572 719.333 572 719.333 173.186 130 173.186ZM702 554.667 130 554.667 130 190.519 702 190.519Z" fill="#FFFFFF" transform="matrix(1 0 0 1 3017 1009)"/></g></g></g></g></svg>