<svg width="6248" height="3083" xmlns="http://www.w3.org/2000/svg" xmlns:xlink="http://www.w3.org/1999/xlink" overflow="hidden"><defs><clipPath id="clip0"><rect x="-610" y="-126" width="6248" height="3083"/></clipPath><clipPath id="clip1"><rect x="-223" y="2118" width="406" height="407"/></clipPath><clipPath id="clip2"><rect x="-223" y="2118" width="406" height="407"/></clipPath><clipPath id="clip3"><rect x="-223" y="2118" width="406" height="407"/></clipPath><clipPath id="clip4"><rect x="-579" y="1809" width="1147" height="1148"/></clipPath><clipPath id="clip5"><rect x="-579" y="1809" width="1147" height="1148"/></clipPath><clipPath id="clip6"><rect x="-579" y="1809" width="1147" height="1148"/></clipPath></defs><g clip-path="url(#clip0)" transform="translate(610 126)"><text fill="#FFFFFF" font-family="Avenir Next LT Pro,Avenir Next LT Pro_MSFontService,sans-serif" font-weight="400" font-size="183" transform="matrix(1 0 0 1 885.094 1074)">Extract1<tspan font-family="Avenir Next LT Pro Demi,Avenir Next LT Pro Demi_MSFontService,sans-serif" font-weight="600" font-size="165" x="-1288.54" y="220">Annotated</tspan><tspan font-family="Avenir Next LT Pro Demi,Avenir Next LT Pro Demi_MSFontService,sans-serif" font-weight="600" font-size="165" x="-1241.5" y="378">workflow</tspan><tspan font-size="183" x="25.0958" y="699">Lysate1</tspan><tspan font-family="Avenir Next LT Pro Demi,Avenir Next LT Pro Demi_MSFontService,sans-serif" font-weight="600" font-size="128" x="-69.3527" y="-559">Sample Name</tspan></text><path d="M696.256 281.49C695.402 281.49 694.587 281.94 693.991 282.762 693.395 283.564 693.057 284.659 693.057 285.813 693.057 374.106 693.057 1785.9 693.057 2175.56 693.057 2201.79 700.767 2226.96 714.479 2245.5 728.19 2264.06 746.79 2274.49 766.185 2274.49 1008.84 2274.49 1772.06 2274.49 1772.06 2274.49L1772.06 361.666C1772.06 319.769 1747 285.793 1716.04 285.656L696.256 281.49Z" stroke="#FFFFFF" stroke-width="19.5297" stroke-linecap="round" stroke-linejoin="round" stroke-miterlimit="10" fill="none" fill-rule="evenodd"/><path d="M0.0528748-7.81093 1064.05-7.81093" stroke="#FFFFFF" stroke-width="19.7877" stroke-linecap="round" stroke-linejoin="round" stroke-miterlimit="10" fill="none" fill-rule="evenodd" transform="matrix(1 0 0 -1 693 684)"/><path d="M453.047 875.664C450.272 873.637 446.717 873.449 443.769 875.171 440.838 876.895 439 880.25 439 883.902L439 1062.1C439 1065.75 440.838 1069.11 443.769 1070.83 446.717 1072.55 450.272 1072.36 453.047 1070.34L574.977 981.237C577.491 979.401 579 976.31 579 973.001 579 969.69 577.491 966.599 574.977 964.763L453.047 875.664ZM457.07 902.398 553.681 973.001C553.681 973.001 457.07 1043.6 457.07 1043.6L457.07 902.398Z" fill="#FFFFFF" fill-rule="evenodd"/><path d="M-572.642 982 442.64 982C445.593 982 448 977.743 448 972.501 448 967.257 445.593 963 442.64 963L-572.642 963C-575.598 963-578 967.257-578 972.501-578 977.743-575.598 982-572.642 982Z" fill="#FFFFFF" fill-rule="evenodd"/><path d="M452.144 1616.66C449.548 1614.64 446.221 1614.45 443.462 1616.17 440.72 1617.89 439 1621.25 439 1624.9L439 1803.1C439 1806.75 440.72 1810.1 443.462 1811.83 446.221 1813.55 449.548 1813.36 452.144 1811.34L566.235 1722.24C568.588 1720.4 570 1717.31 570 1714 570 1710.69 568.588 1707.6 566.235 1705.76L452.144 1616.66ZM455.908 1643.4 546.309 1714C546.309 1714 455.908 1784.6 455.908 1784.6L455.908 1643.4Z" fill="#FFFFFF" fill-rule="evenodd"/><path d="M-572.642 1721 442.64 1721C445.593 1721 448 1717.19 448 1712.5 448 1707.81 445.593 1704 442.64 1704L-572.642 1704C-575.598 1704-578 1707.81-578 1712.5-578 1717.19-575.598 1721-572.642 1721Z" fill="#FFFFFF" fill-rule="evenodd"/><path d="M-306.954 744.167C-325.362 750.659-343.595 757.783-363.425 758.632-425.319 761.309-471.998 717.453-475.115 651.515-478.983 569.886-447.722 501.899-390.713 444.801-386.288 440.315-381.423 436.189-376.775 431.896-374.466 424.992-369.04 421.05-363.411 417.024-315.714 382.094-258.05 363.364-198.93 363.602-184.566 363.588-175.012 359.097-167.825 346.788-149.08 314.723-127.745 284.236-108.49 251.151-142.255 261.136-176.034 261.97-208.975 267.871-254.579 275.982-299.72 286.51-344.209 299.41-350.657 301.198-357.011 304.348-364.053 301.028-398.09 306.554-431.934 313.697-466.759 312.497-497.127 311.421-526.481 306.239-553.159 290.876-584.792 272.664-605.537 246.701-603.891 208.578-602.245 170.455-579.426 145.112-546.841 128.114-512.789 110.171-476.071 110.223-439.033 113.786-412.806 116.316-386.755 120.405-361.015 126.026-345.356 129.45-314.904 130.418-317.744 132.338-258.053 144.926-202.959 169.756-145.034 185.581-129.16 189.527-113.058 192.503-96.8203 194.492-89.9056 195.797-82.8607 192.716-79.1263 186.752-68.7042 172.413-58.3155 158.054-47.9603 143.677-44.7806 139.199-43.2258 133.765-43.5551 128.284-44.542 106.905-42.5311 85.4934-37.5813 64.6734-35.028 54.3573-28.2512 40.7392-26.5072 33.2608-10.6969-16.9507 16.0383-59.9601 58.9294-91.7185 73.8623-102.986 90.7441-111.405 108.729-116.55 159.704-130.908 196.437-103.397 196.982-50.0104 197.021-39.648 196.237-29.2844 195.819-18.937 196.993-14.6997 195.522-10.8058 194.557-6.82494 168.48 70.3517 117.373 124.51 43.1629 157.186 28.9193 163.354 13.6233 166.727-1.89392 167.126-13.5461 167.523-20.7386 172.351-23.594 184.848-0.791443 183.883 20.6581 176.604 42.6859 173.048 63.6915 169.69 84.3546 164.075 105.431 160.868 114.81 159.43 121.379 155.625 124.866 146.325 143.108 97.9337 174.697 60.2677 217.575 31.6304 252.182 9.45235 290.393-1.05605 331.052-3.65534 339.124-3.05886 344.051-5.53014 342.073-15.015 341.679-16.9464 342.195-19.5834 345.447-19.4078 347.193-2.88673 356.791 1.67942 372.518 2.59084 393.426 4.11277 413.716 10.3596 431.858 20.8589 485.859 50.9515 497.186 110.107 458.036 157.918 441.373 178.268 420.215 192.834 396.571 203.952 395.242 206.837 393.135 209.295 390.49 211.051 366.355 222.147 340.632 229.394 314.252 232.527 283.944 235.658 253.604 236.218 223.294 230.961 198.529 226.688 174.304 220.479 151.791 209.404 141.251 203.925 129.049 202.533 117.547 205.492 103.105 209.014 88.8911 213.663 73.7712 213.717 72.0735 214.442-46.7365 220.799-42.9461 222.386-50.6144 244.145-30.4254 261.355-10.8636 274.83 12.1072 289.519 65.0308 371.482 69.5223 413.486 73.254 434.87 69.4281 456.901 58.7043 475.776 45.6072 492.02 28.5714 496.714 8.63513 492.888-19.3331 485.649-39.4095 467.72-55.0822 444.516-75.0931 414.863-91.403 383.533-95.0743 347.082-95.0602 344.669-96.7227 342.548-99.0675 341.982-110.12 360.181-123.461 377.285-132.84 396.919-134.64 401.632-135.181 406.737-134.405 411.722-131.67 452.173-135.175 492.806-144.795 532.193-161.942 593.631-191.443 648.233-236.101 694.17-252.296 711.414-270.843 726.289-291.192 738.352-295.322 741.184-300.008 743.1-304.938 743.977L-306.954 744.167Z" stroke="#FFFFFF" stroke-width="11.0289" stroke-linejoin="round" stroke-miterlimit="10" fill="none" fill-rule="evenodd"/><path d="M-454.732 260.989C-457.008 271.795-459.888 282.57-455.333 295.421-448.524 285.938-453.058 275.207-447.519 267.379-447.209 267.067-446.926 266.449-446.596 266.415-433.891 265.727-407.728 288.742-406.759 301.54-430.884 306.527-455.106 309.019-479.567 304.719-487.444 294.092-497.527 285.835-507.545 277.303-537.803 251.682-568.185 225.924-596.792 198.285-595.027 178.581-583.851 164.202-570.16 151.224-564.073 146.702-558.945 150.07-554.369 153.591-536.782 167.138-520.178 181.949-503.659 196.755-494.558 204.946-495.798 208.038-507.116 211.686-514.326 213.997-522.304 214.253-528.704 218.975-533.196 221.07-539.166 220.288-543.833 226.967-528.454 226.416-516.356 220.37-503.569 217.732-487.053 231.915-470.158 245.625-454.732 260.989Z" stroke="#FFFFFF" stroke-width="11.0289" stroke-linejoin="round" stroke-miterlimit="10" fill="none" fill-rule="evenodd"/><path d="M-409.685 475.244C-396.85 455.702-379.624 440.553-360.538 427.61-350.98 420.482-339.704 419.339-328.385 418.355-285.365 414.563-242.878 407.007-200.104 401.611-186.603 399.908-173.027 399.092-159.544 397.225-152.671 396.255-143.918 395.727-145.095 407.532-142.218 415.608-141.764 424.35-143.792 432.678-164.623 435.336-185.105 442.318-206.52 437.966-210.574 435.406-208.812 432.764-206.382 430.389-202.539 426.81-198.441 423.514-194.122 420.529-208.486 431.795-222.713 443.249-236.633 454.988-241.011 458.723-244.898 463.514-251.634 462.831-274.454 460.258-296.636 465.302-318.975 468.349-344.51 471.829-370.196 474.047-395.704 477.831-400.542 478.577-405.539 479.055-409.685 475.244Z" stroke="#FFFFFF" stroke-width="11.0289" stroke-linejoin="round" stroke-miterlimit="10" fill="none" fill-rule="evenodd"/><path d="M392.361 199.073C383.887 205.107 373.904 207.024 364.14 209.731 357.711 214.348 349.816 214.496 342.676 216.957 337.236 218.805 333.759 215.461 335.7 211.012 343.885 192.9 347.741 172.048 366.181 160.049 368.467 160.322 369.965 161.635 371.3 164.61 370.169 157.668 364.076 153.887 364.119 147.498 370.296 128.072 382.293 111.539 391.195 93.4542 398.764 89.3722 407.053 91.1555 414.221 90.3301 405.709 88.8639 395.762 93.2651 386.729 87.9756 385.728 87.0232 385.252 85.6446 385.448 84.2779 392.237 62.5562 402.94 42.5839 414.721 23.333 415.823 21.7637 417.779 21.0201 419.643 21.4582 440.561 29.4786 457.866 44.8323 468.32 64.6475 462.523 69.0827 457.909 74.8797 454.887 81.522 437.385 118.372 414.517 152.43 398.271 189.924 396.8 193.268 394.804 196.355 392.361 199.073Z" stroke="#FFFFFF" stroke-width="11.0289" stroke-linejoin="round" stroke-miterlimit="10" fill="none" fill-rule="evenodd"/><path d="M-243.337 686.836C-267.035 713.812-295.115 735.201-329.003 746.58-368.065 759.846-417.968 756.704-448.637 712.632-446.542 706.383-441.161 705.147-435.681 704.364-376.341 695.849-317.103 686.455-257.268 681.771-252.171 681.35-246.075 680.028-243.337 686.836Z" stroke="#FFFFFF" stroke-width="11.0289" stroke-linejoin="round" stroke-miterlimit="10" fill="none" fill-rule="evenodd"/><path d="M124.53 193.958 116.635 196.147C112.2 182.808 123.217 174.908 127.761 164.721 140.521 128.958 157.729 96.158 185.118 69.2071 205.848 48.317 230.635 31.8852 257.949 20.9291 258.209 30.3514 253.059 37.8445 248.734 45.449 233.791 71.6984 219.184 98.1378 205.87 125.353 203.627 129.942 201.298 134.216 203.748 139.375 197.356 150.67 183.786 152.221 175.122 160.433 171.913 163.477 165.15 164.331 168.265 171.375 170.099 183.309 160.791 191.444 157.874 201.776 151.37 198.761 144.107 197.713 138.434 192.994 133.567 190.772 129.298 195.924 124.53 193.958Z" stroke="#FFFFFF" stroke-width="11.0289" stroke-linejoin="round" stroke-miterlimit="10" fill="none" fill-rule="evenodd"/><path d="M-145.033 407.545C-150.085 394.945-160.237 401.161-168.167 401.999-195.307 404.903-222.362 408.521-249.411 412.165-286.457 417.163-323.474 422.467-360.477 427.623-339.08 408.909-313.615 397.201-287.344 387.792-254.043 375.777-218.614 370.782-183.288 373.116-176.419 373.564-172.514 371.801-169.008 365.841-163.978 357.304-157.763 349.459-152.06 341.303-141.466 330.855-128.141 332.915-115.26 333.68-111.604 333.885-108.297 336.001-109.69 340.894-119.996 357.185-129.925 373.712-140.825 389.6-144.75 395.479-142.354 401.871-145.033 407.545Z" stroke="#FFFFFF" stroke-width="11.0289" stroke-linejoin="round" stroke-miterlimit="10" fill="none" fill-rule="evenodd"/><path d="M-409.687 475.243C-379.836 471.692-349.993 468.14-320.16 464.594-300.553 462.219-281.038 459.416-261.375 457.451-256.771 456.679-252.082 458.358-249.011 461.874-280.431 511.085-335.67 531.529-388.824 516.761-389.872 516.457-390.863 515.541-392.102 516.083-390.849 516.603-389.755 517.442-388.932 518.52-387.601 520.56-389.119 521.831-390.263 523.225-408.011 530.158-425.853 536.238-445.267 530.51-436.703 510.164-424.661 491.462-409.687 475.243Z" stroke="#FFFFFF" stroke-width="11.0289" stroke-linejoin="round" stroke-miterlimit="10" fill="none" fill-rule="evenodd"/><path d="M-168.076 569.813C-174.871 592.136-185.318 613.183-198.992 632.091-229.645 635.714-260.161 640.547-291.024 642.499-310.021 627.133-314.083 605.529-316.022 582.997-314.087 579.852-310.58 578.008-306.894 578.198-283.442 576.713-260.658 570.567-237.306 568.826-229.075 568.868-225.077 575.214-220.202 580.324-219.398 581.178-219.327 581.13-217.357 577.296-206.913 566.409-183.268 562.858-168.076 569.813Z" stroke="#FFFFFF" stroke-width="11.0289" stroke-linejoin="round" stroke-miterlimit="10" fill="none" fill-rule="evenodd"/><path d="M-165.559 251.688C-186.191 256.699-207.266 258.375-228.282 260.574-221.154 254.488-221.862 249.073-229.053 243.273-234.627 238.809-240.814 234.998-245.967 230.107-251.122 225.215-259.043 221.176-256.034 211.584L-232.067 218.09-231.03 214.572C-243.526 206.302-259.475 207.861-272.849 202.046-289.038 185.649-306.137 170.179-324.07 155.709-329.109 151.437-335.819 147.884-332.731 139.291-301.836 142.062-273.427 154.366-244.002 162.873-218.88 182.748-195.567 204.684-171.281 225.527-167.155 229.06-163.075 232.634-159.342 236.388-156.517 239.318-153.065 242.47-154.457 246.853-156.087 252.321-160.919 252.272-165.559 251.688Z" stroke="#FFFFFF" stroke-width="11.0289" stroke-linejoin="round" stroke-miterlimit="10" fill="none" fill-rule="evenodd"/><path d="M-445.258 530.449C-426.045 529.108-407.03 525.738-388.529 520.39-380.598 516.179-372.526 520.148-364.658 520.518-344.768 521.568-324.881 518.356-306.335 511.094-303.441 509.98-300.5 507.096-297.873 510.335-295.621 513.141-297.598 516.438-299.237 519.216-332.85 573.4-366.963 591.841-436.213 579.637-441.484 578.717-446.746 576.095-451.86 580.035-455.084 582.179-459.23 582.405-462.666 580.622-460.109 562.653-452.233 546.695-445.258 530.449Z" stroke="#FFFFFF" stroke-width="11.0289" stroke-linejoin="round" stroke-miterlimit="10" fill="none" fill-rule="evenodd"/><path d="M-243.336 686.836C-264.598 683.236-285.441 688.306-306.281 690.626-349.706 695.409-392.844 702.664-436.182 708.273-441.031 708.88-444.504 711.175-448.635 712.632-459.368 700.19-462.107 684.483-466.303 669.349-460.782 663.397-452.843 663.719-446 662.842-426.847 660.366-407.941 653.934-388.211 657.421-381.674 664.338-387.676 670.905-388.025 677.209-390.555 678.307-386.735 679.515-387.935 678.148-387.987 677.964-387.674 677.763-386.919 677.214-385.381 676.176-383.671 675.423-381.867 674.991-347.696 669.741-313.355 666.54-279.104 661.58-276.867 660.96-274.63 660.34-272.334 659.93-259.853 658.028-247.254 657.058-234.706 655.705-229.017 655.063-221.398 653.716-221.179 663.604L-243.336 686.836Z" stroke="#FFFFFF" stroke-width="11.0289" stroke-linejoin="round" stroke-miterlimit="10" fill="none" fill-rule="evenodd"/><path d="M202.63 138.3C192.916 138.328 198.05 133.023 199.813 129.671 213.153 104.49 226.695 79.4228 240.162 54.2909 246.099 43.1987 252.028 32.1053 257.947 21.0182 279.438 15.627 300.232 7.312 322.711 5.898 325.489 5.69465 328.048 4.70158 330.468 6.58154 325.392 18.0218 318.448 28.4493 312.203 39.2501 309.823 43.3397 307.196 48.1776 300.798 45.955 299.295 45.748 298.158 42.4639 298.04 43.5735 296.011 68.3542 284.5 91.4217 265.919 107.944 248.439 124.314 226.337 134.913 202.63 138.3Z" stroke="#FFFFFF" stroke-width="11.0289" stroke-linejoin="round" stroke-miterlimit="10" fill="none" fill-rule="evenodd"/><path d="M157.942 48.6532C147.474 64.5647 136.815 80.3013 121.955 92.6401 119.785 91.8868 118.145 90.0716 117.618 87.834 115.148 67.0642 113.701 46.4074 123.193 26.7707 125.795 25.1138 128.176 25.7294 131.52 28.4866 128.109 22.8287 122.116 20.6356 121.442 14.7291 125.047-2.9355 123.749-21.1112 126.418-38.8845 130.355-45.253 136.427-50.0205 143.549-52.3348 137.877-52.8593 133.971-43.841 126.765-48.1636 121.548-69.8442 124.96-91.1681 129.229-112.474 129.498-113.852 131.181-114.121 132.585-114.169 145.747-116.685 156.77-112.088 166.643-103.772 160.695-62.0483 160.431-19.8589 157.588 22.0249 157.007 30.6605 153.825 39.7333 157.942 48.6532Z" stroke="#FFFFFF" stroke-width="11.0289" stroke-linejoin="round" stroke-miterlimit="10" fill="none" fill-rule="evenodd"/><path d="M-165.559 251.691C-155.167 249.405-153.359 246.013-162.434 238.326-186.043 218.286-209.13 197.677-232.243 177.075-236.826 173.017-243.076 170.102-244.014 162.936-203.995 175.819-164.899 191.707-123.549 200.394-110.811 203.098-101.515 212.708-93.4588 222.548-87.9183 229.344-92.4889 235.656-98.5804 237.912-119.95 246.316-142.607 250.976-165.559 251.691Z" stroke="#FFFFFF" stroke-width="11.0289" stroke-linejoin="round" stroke-miterlimit="10" fill="none" fill-rule="evenodd"/><path d="M-144.776 469.827C-145.243 485.828-145.684 501.822-151.525 517.045-153.234 519.191-155.733 520.567-158.458 520.866-183.442 523.881-208.187 528.984-233.329 530.711-238.745 531.407-244.243 530.302-248.967 527.564-258.237 514.574-258.589 500.218-255.437 485.315-252.134 478.929-246.325 477.29-239.756 476.348-213.915 472.641-187.894 470.302-162.203 465.646-156.071 464.456-149.498 463.937-144.776 469.827Z" stroke="#FFFFFF" stroke-width="11.0289" stroke-linejoin="round" stroke-miterlimit="10" fill="none" fill-rule="evenodd"/><path d="M-528.841 219.184C-521.265 210.933-509.317 213.345-500.47 207.634-502.744 198.203-511.766 195.206-517.835 189.775-530.466 178.255-543.537 167.197-556.702 156.307-560.399 153.195-564.708 150.024-570.261 151.564-555.849 136.997-538.089 128.474-518.639 123.082-514.779 124.534-510.335 122.367-506.652 125.427-492.938 157.619-468.888 179.861-437.507 195.422-469.318 200.698-498.629 211.516-528.841 219.184Z" stroke="#FFFFFF" stroke-width="11.0289" stroke-linejoin="round" stroke-miterlimit="10" fill="none" fill-rule="evenodd"/><path d="M-506.717 125.192C-510.863 126.124-515.214 125.272-518.704 122.847-495.277 115.956-471.335 117.566-447.423 118.249-441.855 118.185-436.765 121.476-434.542 126.581-421.264 154.47-398.587 176.817-370.509 189.689-427.706 204.809-466.847 179.552-495.458 136.157-498.086 132.096-496.742 122.427-506.717 125.192Z" stroke="#FFFFFF" stroke-width="11.0289" stroke-linejoin="round" stroke-miterlimit="10" fill="none" fill-rule="evenodd"/><path d="M-596.962 198.388C-587.847 199.574-583.796 207.747-577.747 212.9-546.71 239.185-516.097 265.983-485.677 293.006-482.633 295.704-476.11 298.176-479.73 304.848-526.706 305.003-584.94 278.352-596.642 230.722-599.361 220.128-599.473 209.032-596.962 198.388Z" stroke="#FFFFFF" stroke-width="11.0289" stroke-linejoin="round" stroke-miterlimit="10" fill="none" fill-rule="evenodd"/><path d="M392.361 199.075C393.824 187.077 400.413 177.004 405.608 166.607 421.735 134.815 439.199 103.757 456.298 72.4036 458.868 67.6669 460.882 61.9498 468.327 64.6761 489.312 112.056 461.244 158.127 423.941 180.599 413.399 186.837 403.816 194.596 392.361 199.075Z" stroke="#FFFFFF" stroke-width="11.0289" stroke-linejoin="round" stroke-miterlimit="10" fill="none" fill-rule="evenodd"/><path d="M-462.669 580.621-452.141 577.703C-447.691 574.23-443.422 577.156-439.289 578.362-408.78 587.306-379.333 582.6-350.515 571.437-347.595 570.315-344.891 567.497-341.896 569.812-338.25 572.742-340.192 576.879-342.026 579.57-350.729 592.441-353.605 609.364-368.346 618.043-397.42 619.386-426.228 623.943-454.872 627.86-460.333 628.608-465.743 630.052-470.128 625.174-468.685 610.036-468.044 594.865-462.669 580.621Z" stroke="#FFFFFF" stroke-width="11.0289" stroke-linejoin="round" stroke-miterlimit="10" fill="none" fill-rule="evenodd"/><path d="M-1.62035 158.067C-27.2518 155.679-30.2088 178.237-40.3948 193.021-42.9287 196.558-42.8008 204.174-49.7066 202.574-57.5857 200.734-53.4403 194.115-53.986 189.08-55.7759 172.401-49.5238 159.274-38.9126 147.149-35.1165 142.583-33.3862 136.639-34.1352 130.747-36.8479 92.1322-28.5471 55.1121-16.425 18.7902-14.5361 14.6753-12.1916 10.7833-9.43838 7.18858-0.365868 7.50733-3.67945 14.7749-3.62291 19.067-3.23741 43.0507-6.28756 66.9099-7.43711 90.9791-7.75329 97.3018-8.91729 103.633-5.52682 109.524-1.1152 115.726-12.503 123.106-4.10445 128.968 3.01268 138.077-0.0114136 148.127-1.62035 158.067Z" stroke="#FFFFFF" stroke-width="11.0289" stroke-linejoin="round" stroke-miterlimit="10" fill="none" fill-rule="evenodd"/><path d="M-406.812 301.558C-416.496 286.266-430.693 274.353-447.437 267.474-446.196 247.007-435.532 231.495-421.535 217.78-415.649 217.339-411.338 220.622-407.194 224.121-394.683 234.285-382.842 245.202-370.351 255.399-367.978 256.771-366.577 259.369-366.734 262.106-367.73 271.905-368.76 281.684-369.696 291.495-369.917 293.767-370.007 296.712-372.857 296.453-384.546 295.386-394.606 304.693-406.812 301.558Z" stroke="#FFFFFF" stroke-width="11.0289" stroke-linejoin="round" stroke-miterlimit="10" fill="none" fill-rule="evenodd"/><path d="M-469.992 625.163C-445.966 622.272-421.935 619.294-397.906 616.516-387.824 615.364-377.664 611.528-367.582 616.611-368.384 633.247-375.044 649.071-386.377 661.274-391.863 657.637-397.471 659.39-403.391 660.322-424.38 663.534-445.323 666.505-466.371 669.507-471.929 654.978-469.999 639.96-469.992 625.163Z" stroke="#FFFFFF" stroke-width="11.0289" stroke-linejoin="round" stroke-miterlimit="10" fill="none" fill-rule="evenodd"/><path d="M301.653 45.6637C310.687 41.3453 311.835 31.2774 317.093 24.378 321.634 18.4712 322.527 9.83467 330.526 6.48332 342.861 4.51171 355.454 4.86365 367.66 7.52543 370.68 13.2067 366.696 16.0118 362.967 18.916 357.532 23.03 358.366 29.5161 357.103 35.0813 353.43 51.016 346.579 66.043 336.958 79.2673 322.209 100.078 300.022 104.188 277.82 108.955 273.246 109.939 266.73 108.515 272.131 102.03 285.535 85.8715 293.199 67.3082 298.297 47.3595 298.476 46.0627 300.122 45.6631 301.653 45.6637Z" stroke="#FFFFFF" stroke-width="11.0289" stroke-linejoin="round" stroke-miterlimit="10" fill="none" fill-rule="evenodd"/><path d="M361.901 17.6267C364.89 15.0093 366.904 11.4526 367.607 7.54179 385.773 8.2509 403.552 13.0064 419.647 21.4568 405.781 41.8811 396.523 64.7123 386.865 87.2287 382.907 93.3992 376.245 91.4482 370.748 92.3768 358.72 94.3798 346.463 94.9436 334.344 96.5179 330.077 97.077 322.256 95.9575 327.918 90.1084 347.619 69.5689 354.217 43.479 361.901 17.6267Z" stroke="#FFFFFF" stroke-width="11.0289" stroke-linejoin="round" stroke-miterlimit="10" fill="none" fill-rule="evenodd"/><path d="M-248.021 526.792C-220.335 528.413-193.643 520.418-166.337 518.317-161.423 517.947-156.498 517.517-151.579 517.06-155.024 535.304-159.299 553.211-168.126 569.829-181.03 568.163-193.538 571.914-206.295 572.617-210.786 573.071-214.639 576.072-216.178 580.316-225.536 580.502-228.757 572.155-232.649 566.602-240.876 554.712-251.794 543.341-248.021 526.792Z" stroke="#FFFFFF" stroke-width="11.0289" stroke-linejoin="round" stroke-miterlimit="10" fill="none" fill-rule="evenodd"/><path d="M-256.036 211.583C-253.321 220.353-246.9 225.829-239.688 230.887-234.099 234.731-228.833 239.024-223.942 243.725-213.142 254.363-213.683 255.987-228.291 260.547L-271.323 272.477C-275.507 273.637-279.753 276.316-284.29 273.238-275.82 267.602-275.165 263.112-283.55 255.461-298.631 241.956-313.87 228.495-328.858 214.71-323.039 201.76-312.743 200.153-300.196 202.881-285.53 206.1-270.746 208.718-256.036 211.583Z" stroke="#FFFFFF" stroke-width="11.0289" stroke-linejoin="round" stroke-miterlimit="10" fill="none" fill-rule="evenodd"/><path d="M157.943 48.654C153.433 47.7219 150.329 45.5213 151.158 40.3322 158.118-3.26033 156.302-47.5366 161.317-91.2982 161.876-96.1295 160.718-101.534 166.759-103.973 186.182-91.673 190.425-72.0745 191.144-51.3862 192.292-14.1228 178.664 18.5069 157.943 48.654Z" stroke="#FFFFFF" stroke-width="11.0289" stroke-linejoin="round" stroke-miterlimit="10" fill="none" fill-rule="evenodd"/><path d="M-144.774 469.827C-166.089 466.751-186.251 475.402-207.254 476.01-218.512 476.297-229.362 478.766-240.465 479.917-245.432 480.217-250.123 482.322-253.646 485.838-257.096 485.63-260.135 483.46-261.454 480.266-260.566 473.246-254.914 469.61-250.108 465.784-239.955 457.527-230.467 448.407-219.752 440.845-216.316 438.418-213.35 433.883-207.926 436.376-191.063 436.454-174.243 434.642-157.784 430.977-153.076 429.443-147.922 430.094-143.743 432.753-141.375 445.037-141.727 457.693-144.774 469.827Z" stroke="#FFFFFF" stroke-width="11.0289" stroke-linejoin="round" stroke-miterlimit="10" fill="none" fill-rule="evenodd"/><path d="M297.609 225.337C287.247 225.376 276.876 227.939 266.47 225.468 266.246 207.589 279.245 186.187 291.913 183.525 294.62 184.702 295.201 187.716 297.11 189.595 295.796 187.409 295.234 184.872 293.848 182.734 288.939 175.252 282.241 168.777 280.427 159.473 283.184 142.837 293.572 130.009 302.121 116.274 304.268 113.264 307.728 111.452 311.426 111.399 326.248 114.772 340.11 119.687 347.326 134.776 334.084 153.922 322.807 174.36 313.674 195.773 309.227 205.905 301.491 214.597 297.609 225.337Z" stroke="#FFFFFF" stroke-width="11.0289" stroke-linejoin="round" stroke-miterlimit="10" fill="none" fill-rule="evenodd"/><path d="M126.225 26.2678C118.634 47.5573 117.152 70.5536 121.952 92.6392 112.507 104.78 100.427 113.854 87.5804 122.007 81.779 126.025 77.6721 123.479 77.4219 117.568 76.9378 106.62 74.7858 94.9734 83.4205 85.6356 85.0907 84.6058 89.6168 84.8814 85.2603 81.1292 81.5488 77.9637 77.8076 74.693 77.7958 69.0279 80.6786 50.2883 79.3387 31.2456 81.9622 12.493 97.3149 4.69381 117.087 10.8892 126.225 26.2678Z" stroke="#FFFFFF" stroke-width="11.0289" stroke-linejoin="round" stroke-miterlimit="10" fill="none" fill-rule="evenodd"/><path d="M-6.12531 111.137C-15.006 106.91-11.5097 99.2803-11.2328 92.7134-9.82157 66.0406-8.31174 39.3863-6.70277 12.7522-6.56255 10.1909-6.94168 8.31187-9.50402 7.35014-7.42262-8.75816 3.91185-20.3179 11.1204-33.8798 14.0227-38.4088 17.329-42.6665 21.0011-46.5952 26.6176-43.3063 26.6122-37.8061 26.4457-32.3752 25.7078-7.2298 25.6069 17.9656 22.1018 42.943 21.1863 48.2787 21.6708 53.7589 23.5076 58.8499 25.266 65.1927 21.8398 70.1108 19.0386 75.1383 12.1984 88.1478 3.74193 100.244-6.12531 111.137Z" stroke="#FFFFFF" stroke-width="11.0289" stroke-linejoin="round" stroke-miterlimit="10" fill="none" fill-rule="evenodd"/><path d="M-332.75 139.32C-331.428 145.416-327.199 149.118-322.562 152.962-307.942 164.808-293.86 177.06-279.576 189.226-275.935 192.615-273.559 197.146-272.841 202.069L-332.046 192.974C-349.547 171.355-373.138 156.185-392.626 136.902-396.462 133.289-402.105 131.027-402.032 124.545-378.554 127.446-354.967 130.741-332.75 139.32Z" stroke="#FFFFFF" stroke-width="11.0289" stroke-linejoin="round" stroke-miterlimit="10" fill="none" fill-rule="evenodd"/><path d="M240.593 224.136C226.295 223.37 212.172 220.607 198.639 215.928 193.568 211.949 194.627 206.978 197.217 202.519 209.658 181.045 219.315 158.018 233.261 137.373 251.59 137.138 264.885 145.838 274.714 160.742 258.776 179.416 251.222 202.568 240.593 224.136Z" stroke="#FFFFFF" stroke-width="11.0289" stroke-linejoin="round" stroke-miterlimit="10" fill="none" fill-rule="evenodd"/><path d="M-366.733 262.107-421.534 217.781C-409.429 192.744-386.112 198.439-365.471 197.96-352.491 197.649-339.536 199.499-323.791 200.575-345.629 217.598-357.367 239.048-366.733 262.107Z" stroke="#FFFFFF" stroke-width="11.0289" stroke-linejoin="round" stroke-miterlimit="10" fill="none" fill-rule="evenodd"/><path d="M-1.6202 158.069C-7.25452 148.89 1.08761 137.168-7.0146 128.389-10.1655 124.076-6.70377 120.82-5.11572 117.347 1.794 102.196 11.3928 88.5667 19.4455 74.0623 25.8242 62.5159 35.0148 60.7049 48.0608 67.688 46.3635 93.666 45.2847 119.728 43.1002 145.586 29.9361 156.066 13.6021 155.011-1.6202 158.069Z" stroke="#FFFFFF" stroke-width="11.0289" stroke-linejoin="round" stroke-miterlimit="10" fill="none" fill-rule="evenodd"/><path d="M233.765 138.168C225.212 159.557 213.732 179.489 202.407 199.464 199.496 204.607 195.811 209.512 198.645 215.953 184.109 213.918 171.073 207.584 157.864 201.751 155.114 195.513 158.663 190.732 161.363 185.646 164.063 180.562 167.986 176.924 166.352 171.028 165.303 168.952 166.113 166.384 168.16 165.283 185.492 151.934 204.437 140.825 224.549 132.22 230.07 129.952 235.771 128.231 233.765 138.168Z" stroke="#FFFFFF" stroke-width="11.0289" stroke-linejoin="round" stroke-miterlimit="10" fill="none" fill-rule="evenodd"/><path d="M53.9167-81.2247C67.2335-91.9312 81.9426-100.776 97.6429-107.518 98.4448-99.32 95.7579-91.1523 90.2442-85.0323 85.8182-81.3683 89.9097-77.3439 90.1096-73.6582 91.6357-50.9885 88.4642-28.2438 80.7981-6.85421 76.9215 3.7998 67.9399 10.4563 60.7446 18.5443 58.3604 21.1895 54.887 23.4845 51.1136 21.0161 47.9887 19.048 48.5461 15.436 49.1559 12.3191 53.288-8.86375 51.2519-30.0092 48.8444-51.165 52.1288-60.8899 51.8385-71.239 53.9167-81.2247Z" stroke="#FFFFFF" stroke-width="11.0289" stroke-linejoin="round" stroke-miterlimit="10" fill="none" fill-rule="evenodd"/><path d="M53.9151-81.2262C57.2897-70.9952 57.5085-61.1076 50.684-51.9885 47.4844-45.4335 50.0482-38.4349 51.0274-32.2446 54.8603-8.19663 50.2394 14.5962 42.6387 36.9678 39.1863 47.1078 33.3733 56.3998 22.4441 60.7334 16.0107 56.8485 17.0519 50.8915 18.0662 44.9419 22.685 18.154 21.3086-9.0979 23.4043-36.0936 23.6678-39.5393 21.8799-43.1248 21.012-46.7671 29.7612-60.189 41.9274-70.5908 53.9151-81.2262Z" stroke="#FFFFFF" stroke-width="11.0289" stroke-linejoin="round" stroke-miterlimit="10" fill="none" fill-rule="evenodd"/><path d="M297.609 225.339C297.575 205.792 313.208 192.87 319.324 175.672 323.65 164.961 329.029 154.706 335.382 145.061 337.824 140.665 341.69 137.227 346.338 135.306 357.811 140.089 366.07 147.493 367.524 160.609 353.354 173.493 348.945 192.146 339.761 207.985 338.643 209.881 337.102 212.094 338.647 214.189 340.706 217.019 343.605 215.308 346.067 214.682L364.332 209.618C356.449 217.472 345.718 217.613 335.914 219.566 323.148 222.283 310.256 223.419 297.609 225.339Z" stroke="#FFFFFF" stroke-width="11.0289" stroke-linejoin="round" stroke-miterlimit="10" fill="none" fill-rule="evenodd"/><path d="M-109.615 341.048C-118.994 331.547-129.891 339.471-140.174 338.467-143.968 338.073-148.136 340.419-151.985 341.458-143.835 320.663-129.462 303.499-117.63 284.943-110.398 273.613-105.609 260.524-95.6145 250.979-92.8588 248.345-91.8802 241.243-87.6623 243.474-83.4438 245.706-78.2445 252.909-80.1952 256.709-93.953 283.452-87.2184 317.352-109.615 341.048Z" stroke="#FFFFFF" stroke-width="11.0289" stroke-linejoin="round" stroke-miterlimit="10" fill="none" fill-rule="evenodd"/><path d="M-328.844 214.761C-311.607 221.121-301.368 236.279-287.957 247.44-285.129 249.644-282.539 252.137-280.227 254.877-276.976 258.935-269.117 260.498-270.588 266.744-272.059 272.99-279.742 271.039-284.387 273.404L-315.838 282.123C-329.54 271.751-340.815 258.58-353.831 247.309-348.538 233.995-340.844 222.594-328.844 214.761Z" stroke="#FFFFFF" stroke-width="11.0289" stroke-linejoin="round" stroke-miterlimit="10" fill="none" fill-rule="evenodd"/><path d="M89.592-85.4447C91.786-92.9686 92.6964-100.93 97.6442-107.517 109.39-109.413 119.956-117.103 132.588-114.37 128.489-92.4986 127.054-70.2151 128.315-47.9988 130.331-42.4645 125.332-40.7666 122.426-38.5724 112.751-31.0436 103.619-22.7865 93.4838-15.8956 89.2633-13.025 82.9818-11.9641 84.9549-19.568 90.6222-41.3473 89.0999-63.4001 89.592-85.4447Z" stroke="#FFFFFF" stroke-width="11.0289" stroke-linejoin="round" stroke-miterlimit="10" fill="none" fill-rule="evenodd"/><path d="M43.1234 145.667C38.2254 134.952 41.3217 123.833 42.0783 112.967 43.1342 97.9646 41.2111 82.5416 47.0833 68.046 61.5573 62.3897 78.8511 70.1793 85.9628 85.6094 77.3833 95.5551 81.6579 107.804 80.1669 118.988 79.646 122.732 84.3784 122.525 87.5719 121.98 74.563 132.878 59.4238 140.947 43.1234 145.667Z" stroke="#FFFFFF" stroke-width="11.0289" stroke-linejoin="round" stroke-miterlimit="10" fill="none" fill-rule="evenodd"/><path d="M-402.04 124.517C-381.308 142.662-360.402 160.617-340.064 179.182-336.301 182.533-329.005 185.129-332.053 192.946-351.96 197.303-366.804 185.575-382.156 176.511-403.745 163.961-420.23 146.311-429.215 121.876-419.389 120.003-410.762 123.11-402.04 124.517Z" stroke="#FFFFFF" stroke-width="11.0289" stroke-linejoin="round" stroke-miterlimit="10" fill="none" fill-rule="evenodd"/><path d="M-454.731 260.992C-473.865 250.215-490.498 235.509-503.539 217.839-474.399 209.166-445.083 201.435-410.53 200.018-433.743 216.883-445.387 238.165-454.731 260.992Z" stroke="#FFFFFF" stroke-width="11.0289" stroke-linejoin="round" stroke-miterlimit="10" fill="none" fill-rule="evenodd"/><path d="M39.6711 480.855C17.5028 489.834-1.56943 483.502-19.2125 469.036-36.4826 454.891-51.5415 439.113-59.9517 417.978-60.4653 409.788-57.7947 407.971-50.1538 412.427-41.281 417.648-32.8865 423.597-24.0911 429.151-14.2699 435.441-4.50615 441.832 5.11784 448.431 7.09619 450.15 6.45417 454.069 10.1425 454.493 18.8658 457.743 25.7489 463.657 33.2195 468.728 37.2312 471.442 41.9038 474.596 39.6711 480.855Z" stroke="#FFFFFF" stroke-width="11.0289" stroke-linejoin="round" stroke-miterlimit="10" fill="none" fill-rule="evenodd"/><path d="M-73.9681 387.852C-85.2579 371.766-84.9852 352.815-87.1487 334.482-87.5099 331.748-87.7337 329.203-88.0464 326.54-87.403 325.325-86.2883 324.429-84.9644 324.062-83.6406 323.695-82.2232 323.889-81.0457 324.6-69.1652 331.877-55.1384 336.264-47.12 349.034-49.08 354.027-53.8558 355.408-58.215 357.779-55.4811 357.418-53.3385 355.945-50.8394 355.45-33.1952 357.758-21.0467 368.249-11.0625 381.976-12.7497 392.76-17.9009 400.452-29.3304 402.572-43.5577 393.167-55.7766 380.683-72.8022 374.066-74.8366 378.485-70.4952 383.715-73.9681 387.852Z" stroke="#FFFFFF" stroke-width="11.0289" stroke-linejoin="round" stroke-miterlimit="10" fill="none" fill-rule="evenodd"/><path d="M-221.4 663.726C-226.011 655.68-232.777 659.284-239.38 660.208-250.309 661.679-261.542 662.667-272.633 663.759-281.552 658.267-292.117 653.998-290.457 640.358-262.337 634.036-233.41 633.386-205.012 628.886-203.303 628.61-201.205 630.862-199.289 631.947L-221.4 663.726Z" stroke="#FFFFFF" stroke-width="11.0289" stroke-linejoin="round" stroke-miterlimit="10" fill="none" fill-rule="evenodd"/><path d="M-73.9703 387.853C-75.1045 381.309-78.7443 375.233-77.8861 366.265-60.8293 377.493-41.8504 383.795-30.5303 401.318-31.7887 405.776-37.3318 405.102-39.1714 408.588-32.8638 406.703-26.0084 408.204-21.0669 412.554-12.5752 419.977-0.949814 422.961 6.44881 431.963 8.86391 438.323 9.94377 444.57 5.98604 450.74-13.2785 442.59-29.4116 429.378-46.5723 417.98-54.7156 412.529-56.078 412.113-59.7707 418.012-67.6259 409.306-71.2011 398.762-73.9703 387.853Z" stroke="#FFFFFF" stroke-width="11.0289" stroke-linejoin="round" stroke-miterlimit="10" fill="none" fill-rule="evenodd"/><path d="M-78.2912 270.016C-73.9331 261.099-71.6126 252.293-78.9579 243.588-80.3923 241.888-81.4905 239.358-79.2004 237.703-77.6041 236.929-75.7637 236.83-74.0921 237.421-71.6263 238.239-67.9235 239.225-67.2113 241.181-59.6809 262.107-38.4399 267.471-23.6524 280.121-6.84152 294.449 10.2724 308.439 22.5584 327.196 14.3749 331.619 8.56331 326.4 3.42688 321.673-6.71619 312.383-19.441 307.069-29.9758 298.511-33.1787 295.904-37.2939 294.687-41.3999 295.131-50.419 293.266-50.3572 280.609-60.2031 279.852-67.4083 279.492-74.0723 275.87-78.2912 270.016Z" stroke="#FFFFFF" stroke-width="11.0289" stroke-linejoin="round" stroke-miterlimit="10" fill="none" fill-rule="evenodd"/><path d="M240.592 224.137C241.381 204.391 254.62 189.781 262.054 172.84 264.369 167.494 267.117 161.97 274.051 161.012 284.707 165.2 290.286 173.261 291.875 184.412 284.293 185.381 281.936 191.703 279.221 197.245 274.68 206.525 270.688 216.049 266.461 225.44 257.752 225.615 249.052 226.639 240.592 224.137Z" stroke="#FFFFFF" stroke-width="11.0289" stroke-linejoin="round" stroke-miterlimit="10" fill="none" fill-rule="evenodd"/><path d="M44.0245 363.646C51.0663 373.711 52.6788 385.763 56.1422 397.131 48.0939 402.962 43.7388 397.169 39.2298 391.843 38.0466 386.758 34.0406 384.78 29.6527 383.162 9.16272 375.805-4.93321 360.639-17.9878 344.22-22.2685 339.001-26.1282 333.156-23.9151 325.599-19.9 321.17-15.3176 322.875-11.6536 325.459 6.60113 338.452 27.1264 348.492 44.0245 363.646Z" stroke="#FFFFFF" stroke-width="11.0289" stroke-linejoin="round" stroke-miterlimit="10" fill="none" fill-rule="evenodd"/><path d="M44.0267 363.645C24.9592 356.206 9.79097 342.386-7.50493 331.932-12.4709 328.944-16.5578 324.324-23.1973 325.626-34.1129 317.741-41.51 308.029-40.5787 293.601-37.9386 287.994-34.3859 291.402-31.7701 293.171-19.8238 301.196-7.73763 309.011 3.42891 317.904 9.29797 322.513 14.8984 326.458 22.4491 327.114 30.9473 338.447 39.5845 349.77 44.0267 363.645Z" stroke="#FFFFFF" stroke-width="11.0289" stroke-linejoin="round" stroke-miterlimit="10" fill="none" fill-rule="evenodd"/><path d="M127.758 164.717C128.429 176.747 116.169 184.255 116.631 196.144L63.2633 208.105C57.6191 204.001 57.8883 198.939 60.8629 193.721 63.8376 188.503 65.3755 182.805 69.1076 178.171 88.0055 170.891 108.678 171.339 127.758 164.717Z" stroke="#FFFFFF" stroke-width="11.0289" stroke-linejoin="round" stroke-miterlimit="10" fill="none" fill-rule="evenodd"/><path d="M-47.7782 349.415C-61.2243 341.806-71.6166 328.957-88.1168 326.588-88.625 315.902-87.7843 305.194-85.6153 294.718-84.8661 293.464-83.6637 292.548-82.2553 292.157-80.5185 291.676-78.6521 292.048-77.233 293.16-61.6584 304.459-43.5591 312.393-31.4533 328.253-30.5298 340.07-36.4057 346.885-47.7782 349.415Z" stroke="#FFFFFF" stroke-width="11.0289" stroke-linejoin="round" stroke-miterlimit="10" fill="none" fill-rule="evenodd"/><path d="M40.0628 390.252C44.6837 394.243 49.2734 398.327 56.1408 397.132 59.1397 407.949 63.0439 418.657 59.6327 430.174L57.5982 429.888C35.3366 421.151 15.6809 408.83 0.527098 389.848-4.94407 383.157-8.21385 374.932-8.83191 366.311-9.03539 363.533-7.56498 357.797-4.11311 361.148 8.76935 373.675 26.3041 378.961 40.0628 390.252Z" stroke="#FFFFFF" stroke-width="11.0289" stroke-linejoin="round" stroke-miterlimit="10" fill="none" fill-rule="evenodd"/><path d="M-353.862 247.202C-337.14 254.357-326.247 267.889-315.868 282.017-328.87 285.621-341.922 289.041-354.873 292.83-361.619 294.871-363.657 292.941-363.283 286.007-362.723 272.579-359.523 259.392-353.862 247.202Z" stroke="#FFFFFF" stroke-width="11.0289" stroke-linejoin="round" stroke-miterlimit="10" fill="none" fill-rule="evenodd"/><path d="M59.6315 430.174C61.8974 441.303 60.0742 452.881 54.4984 462.774 42.6746 454.885 32.1714 445.213 19.4234 438.488 15.3848 436.291 12.4617 437.81 9.03197 437.401 5.1579 429.15 5.38776 419.96 3.21232 411.296 2.06105 407.695 3.68859 403.752 7.04449 402.014 10.4342 400.337 12.9431 402.844 15.3685 404.949 28.136 416.856 43.8895 423.485 59.5555 430.309L59.6315 430.174Z" stroke="#FFFFFF" stroke-width="11.0289" stroke-linejoin="round" stroke-miterlimit="10" fill="none" fill-rule="evenodd"/><path d="M69.1255 178.135C69.8212 183.61 69.3609 189.208 65.0941 193.14 59.9486 197.684 61.8029 202.838 63.2622 208.102 52.0597 210.528 41.9085 206.115 31.498 203.219 20.4983 200.521 9.65705 197.218-0.977664 193.319 22.297 187.206 45.161 180.329 69.1255 178.135Z" stroke="#FFFFFF" stroke-width="11.0289" stroke-linejoin="round" stroke-miterlimit="10" fill="none" fill-rule="evenodd"/><path d="M-33.7315 328.516C-50.4855 316.439-64.9949 300.906-85.6142 294.718L-78.292 270.015C-71.6416 270.694-67.1529 278.094-59.5818 276.165-47.166 288.849-38.737 304.226-30.7065 319.799-29.1759 322.662-24.5692 328.442-33.7315 328.516Z" stroke="#FFFFFF" stroke-width="11.0289" stroke-linejoin="round" stroke-miterlimit="10" fill="none" fill-rule="evenodd"/><path d="M10.7966 438.044C12.8722 436.533 12.4946 431.083 17.4346 434.078 30.8612 442.231 46.1876 447.93 54.4105 462.769 52.0206 470.914 47.7295 477.517 39.6355 481.036 32.3189 468.242 18.7559 463.584 7.25085 456.231 10.07 450.348 6.42579 443.337 10.7966 438.044Z" stroke="#FFFFFF" stroke-width="11.0289" stroke-linejoin="round" stroke-miterlimit="10" fill="none" fill-rule="evenodd"/><path d="M124.527 193.956C129.116 193.336 133.513 189.566 138.416 192.94 133.752 193.496 129.382 197.258 124.527 193.956Z" stroke="#FFFFFF" stroke-width="11.0289" stroke-linejoin="round" stroke-miterlimit="10" fill="none" fill-rule="evenodd"/><path d="M-207.919 436.312C-226.887 449.677-246.692 462.479-260.427 482.045L-260.963 483.894C-266.424 490.878-273.513 496.386-278.791 503.518-293.14 520.052-307.395 536.616-319.141 555.177-319.713 556.282-320.365 557.344-321.094 558.354-340.446 586.407-357.108 616.219-370.863 647.399-375.601 657.499-377.645 668.835-384.623 677.912L-392.597 690.042C-392.927 677.607-388.91 669.606-386.391 661.312L-367.657 616.638-341.429 572.721C-378.344 587.801-414.719 590.006-452.138 577.707-453.031 571.832-450.292 571.895-445.795 573.397-410.378 585.317-376.481 580.823-343.306 564.823-336.418 561.536-330.599 556.366-326.524 549.911-317.802 537.007-308.25 524.637-297.461 509.884-328.555 524.797-358.294 525.587-388.799 520.44-392.972 516.325-400.794 519.599-403.956 513.305-402.482 509.014-399.291 510.708-397.166 511.423-358.73 524.83-322.283 517.672-288.095 498.786-277.131 492.741-269.316 480.854-260.409 471.271-256.963 467.651-254.031 463.607-249.222 461.735-229.102 444.141-209.435 425.935-186.34 412.531L-183.776 415.646-207.919 436.312Z" stroke="#FFFFFF" stroke-width="11.0289" stroke-linejoin="round" stroke-miterlimit="10" fill="none" fill-rule="evenodd"/><path d="M291.931 184.398C287.658 175.323 280.792 168.242 274.107 160.998 262.353 150.397 249.79 141.268 233.768 138.17 232.888 132.746 230.581 132.195 225.498 134.512 204.123 143.764 184.202 156.064 166.355 171.031 160.211 167.066 159.984 166.76 165.982 162.631 178.041 154.3 190.417 146.391 202.654 138.294 234.627 124.81 267.492 112.808 284.402 78.4181 291.809 63.3271 293.959 47.0579 296.993 29.5802 303.521 34.8274 298.673 41.1598 301.568 45.5722 295.411 67.1182 288.912 88.7595 271.519 105.967 323.941 100.815 346.949 75.6458 356.136 22.7068 356.363 21.482 351.596 9.39777 361.902 17.5369 360.071 46.613 348.726 71.5253 326.886 93.65L386.862 87.2256C399.927 87.9399 413.213 85.8718 426.042 89.0042L426.101 92.3888 391.682 94.3915C378.082 100.741 363.07 98.016 348.896 100.868 340.84 102.478 332.786 103.379 324.902 105.508 294.207 106.224 268.233 123.656 241.474 130.083 255.735 135.623 271.682 143.05 282.002 158.809 288.829 171.37 299.43 182.007 303.81 198.11 294.328 195.807 293.39 189.662 291.931 184.398Z" stroke="#FFFFFF" stroke-width="11.0289" stroke-linejoin="round" stroke-miterlimit="10" fill="none" fill-rule="evenodd"/><path d="M322.966 102.108C345.355 96.1025 368.52 93.5009 391.682 94.3946 389.183 111.242 377.063 123.445 370.485 138.363 369.259 141.197 367.845 143.969 366.518 146.746 363.259 148.897 361.366 146.361 359.825 144.379 349.248 130.561 335.059 121.089 320.874 111.53 318.863 107.752 320.252 104.788 322.966 102.108Z" stroke="#FFFFFF" stroke-width="11.0289" stroke-linejoin="round" stroke-miterlimit="10" fill="none" fill-rule="evenodd"/><path d="M322.522 110.733C340.491 118.704 353.69 132.475 366.51 146.72 369.396 152.325 372.203 157.952 375.213 163.494 376.666 166.18 379.868 169.346 375.814 171.49 370.525 174.288 370.316 168.933 369.057 165.824 368.372 164.172 368.094 162.35 367.414 160.612 363.176 149.826 353.048 143.961 346.228 135.309 337.532 123.775 324.915 118.544 311.882 113.654 309.844 111.924 304.744 114.896 305.094 109.613 305.445 105.463 308.815 105.35 312.023 105.368 316.521 105.34 319.471 108.008 322.522 110.733Z" stroke="#FFFFFF" stroke-width="11.0289" stroke-linejoin="round" stroke-miterlimit="10" fill="none" fill-rule="evenodd"/><path d="M-322.158 555.844C-311.779 535.111-296.142 518.419-280.464 501.772-271.938 495.724-264.111 495.538-257.311 504.423-251.017 525.493-246.841 547.405-233.299 565.786-232.325 567.285-232.205 569.193-232.986 570.801-259.925 575.86-287.022 581.474-314.704 582.119-323.156 574.939-316.118 563.522-322.158 555.844Z" stroke="#FFFFFF" stroke-width="11.0289" stroke-linejoin="round" stroke-miterlimit="10" fill="none" fill-rule="evenodd"/><path d="M-322.161 555.843C-317.266 554.996-315.893 557.393-315.843 561.971-315.791 568.702-315.176 575.418-314.786 582.141-308.499 602.363-306.768 624.556-290.24 640.522-288.032 651.247-277.009 655.021-272.416 663.922L-277.68 665.382C-291.2 660.061-297.461 647.597-305.707 637.072-315.79 618.696-324.504 599.941-325.351 578.381-325.65 570.556-325.635 563.042-322.214 555.858L-322.161 555.843Z" stroke="#FFFFFF" stroke-width="11.0289" stroke-linejoin="round" stroke-miterlimit="10" fill="none" fill-rule="evenodd"/><path d="M-232.986 570.803C-247.845 551.144-254.022 527.944-259.852 504.562-261.924 497.088-265.089 489.66-260.425 482.048-260.282 481.994-260.137 481.945-259.989 481.904-257.334 481.168-254.54 482.748-253.804 485.404-253.763 485.551-253.73 485.701-253.702 485.852-254.487 499.736-252.556 513.644-248.021 526.79-242.286 547.477-232.979 566.124-216.178 580.314-214.436 583.119-210.193 585.032-213.383 590.394-221.695 585.358-226.42 577.003-232.986 570.803Z" stroke="#FFFFFF" stroke-width="11.0289" stroke-linejoin="round" stroke-miterlimit="10" fill="none" fill-rule="evenodd"/><path d="M-302.045 638.125-277.497 665.33C-313.077 669.893-348.674 675.822-384.52 677.994-383.406 666.576-377.504 656.89-373.235 646.524-349.993 640.704-326.469 635.798-302.045 638.125Z" stroke="#FFFFFF" stroke-width="11.0289" stroke-linejoin="round" stroke-miterlimit="10" fill="none" fill-rule="evenodd"/><path d="M85.993 85.6019C75.6701 73.924 62.9838 67.5218 47.1135 68.0386 33.9822 65.2452 24.2632 67.4014 17.9639 81.7881 10.9264 97.9099 1.45139 113.007-6.98332 128.383-10.9119 128.933-13.6218 128.154-11.6823 123.394-9.9992 119.242-7.9943 115.229-6.12382 111.14 0.362171 92.6194 16.6302 79.6355 22.4098 60.716 50.3304 30.1606 52.2872-6.43279 47.0248-44.7375 46.3968-49.353 46.3968-49.353 50.6906-51.9609 57.2575-28.2734 56.0892-4.68082 50.687 21.531 70.9257 7.84222 80.2312-9.50345 84.1107-30.9853 88.1194-51.8564 87.5482-73.3511 82.4337-93.9776 89.2691-93.0386 88.0267-88.2161 89.6559-85.4084 95.3414-62.242 92.4715-39.368 86.1269-14.0003L128.312-48.0004C136.1-51.8031 142.87-57.8467 155.486-60.4938 146.094-49.3878 135.78-45.9047 127.909-39.3296 115.341-22.0994 96.0003-12.4297 83.209 2.56658 96.5497 2.63773 112.033 2.56816 123.328 15.7052 128.648 20.8908 135.467 24.8383 138.539 33.0562 131.499 34.7528 129.657 29.0284 126.141 26.2621 113.503 16.0483 99.8578 8.94778 82.7274 12.7897 59.8229 18.091 52.8882 39.286 38.6391 55.5651 53.3468 60.1603 68.9034 58.5117 78.8708 70.5428 83.0149 74.552 87.2493 78.4798 91.291 82.6308 93.0402 84.4415 95.5874 86.8814 91.8041 88.9787 88.6233 90.7962 87.1176 88.1241 85.993 85.6019Z" stroke="#FFFFFF" stroke-width="11.0289" stroke-linejoin="round" stroke-miterlimit="10" fill="none" fill-rule="evenodd"/><path d="M123.31 15.7399C109.528 9.27288 95.7349 2.8654 79.1416 5.68015 92.6814-13.4635 110.27-26.3886 127.892-39.2945 128.635-20.7668 129.213-2.22138 123.31 15.7399Z" stroke="#FFFFFF" stroke-width="11.0289" stroke-linejoin="round" stroke-miterlimit="10" fill="none" fill-rule="evenodd"/><path d="M322.523 110.731C319.15 109.71 315.802 108.57 312.399 107.643 310.216 107.029 307.4 106.79 307.332 109.813 307.358 111.137 310.294 112.421 311.904 113.732 295.69 121.798 293.892 139.953 284.566 152.827 283.506 154.728 282.647 156.731 282.002 158.809 266.824 149.555 254.559 135.78 236.28 130.673 265.012 118.994 291.791 103.748 323.011 102.065L322.523 110.731Z" stroke="#FFFFFF" stroke-width="11.0289" stroke-linejoin="round" stroke-miterlimit="10" fill="none" fill-rule="evenodd"/><path d="M78.9817 70.5394C65.8979 65.9759 53.6064 58.9539 38.6929 61.3878 32.3974 62.3962 34.2803 57.2258 36.1793 54.2623 45.8681 39.6189 56.7351 25.7879 68.6748 12.9153 72.8717 8.32217 78.0357 12.8425 82.8123 12.7935 84.7264 32.2722 85.3684 51.7636 78.9817 70.5394Z" stroke="#FFFFFF" stroke-width="11.0289" stroke-linejoin="round" stroke-miterlimit="10" fill="none" fill-rule="evenodd"/><path d="M10.8006 438.042C11.3544 444.436 14.4926 451.359 7.28253 456.022 3.83896 455.05 6.10616 452.494 5.82324 450.759L3.3479 431.606C-1.39661 420.422-3.88732 408.472-8.00081 395.271-18.5406 408.368-33.0176 410.228-47.5477 411.592-46.364 400.834-36.094 404.959-30.5834 401.221-21.4227 397.972-16.2176 391.088-13.1767 382.224-12.2126 366.482-21.4811 354.314-27.85 338.904-32.197 351.134-41.7835 354.586-50.9097 358.675-56.41 360.199-62.0136 362.376-69.0436 355.624-59.657 356.565-54.3315 351.546-47.8421 349.293-42.1243 343.031-32.3272 339.522-33.7964 328.394-26.6306 323.573-33.681 319.406-35.4309 316.263-42.9428 302.559-51.3525 289.501-59.6468 276.042-47.9073 275.962-48.9349 289.738-40.6502 293.45-36.754 305.152-29.0531 314.835-23.2688 325.476-14.0996 351.701 5.17096 368.153 29.5787 379.213 40.412 384.146 41.1493 383.941 39.9938 390.1 23.3896 383.367 7.58257 375.42-7.01673 360.79-3.40135 387.223 13.5742 400.202 31.1741 412.98 40.1792 419.496 52.2079 420.866 59.5642 430.022 38.6166 428.375 23.8033 414.711 5.47217 400.011 7.65602 415.249 9.24382 426.599 10.8006 438.042Z" stroke="#FFFFFF" stroke-width="11.0289" stroke-linejoin="round" stroke-miterlimit="10" fill="none" fill-rule="evenodd"/><path d="M-50.8546 358.772C-43.8492 353.372-36.6051 348.217-31.2026 341.023-29.4471 338.665-26.6572 334.519-24.3131 339.396-18.1661 352.061-8.82254 363.784-10.6767 379.177-10.8209 380.294-12.2802 381.265-13.1214 382.321-24.8312 372.898-34.3204 360.139-50.8546 358.772Z" stroke="#FFFFFF" stroke-width="11.0289" stroke-linejoin="round" stroke-miterlimit="10" fill="none" fill-rule="evenodd"/><path d="M-47.565 411.54C-21.1436 404.612-21.1436 404.612-6.20768 386.923-2.95564 402.744 4.94697 415.914 3.33068 431.553-4.75137 426.935-14.2735 424.076-20.2565 416.807-28.3173 407.054-38.6996 414.382-47.565 411.54Z" stroke="#FFFFFF" stroke-width="11.0289" stroke-linejoin="round" stroke-miterlimit="10" fill="none" fill-rule="evenodd"/><path d="M-302.042 638.124C-325.748 641.862-349.176 647.421-373.39 646.567-359.867 614.277-343.729 583.446-322.029 555.805-324.155 585.246-315.07 612.089-302.042 638.124Z" stroke="#FFFFFF" stroke-width="11.0289" stroke-linejoin="round" stroke-miterlimit="10" fill="none" fill-rule="evenodd"/><path d="M-260.424 482.046C-259.849 489.539-257.69 497.018-259.85 504.56-266.055 498.742-273.354 500.935-280.463 501.772-275.655 493.535-268.737 486.726-260.424 482.046Z" stroke="#FFFFFF" stroke-width="11.0289" stroke-linejoin="round" stroke-miterlimit="10" fill="none" fill-rule="evenodd"/><g clip-path="url(#clip1)"><g clip-path="url(#clip2)"><g clip-path="url(#clip3)"><path d="M84.375 59.0625 59.0625 59.0625 59.0625 345.937 345.937 345.937 345.937 320.625 84.375 320.625Z" fill="#FFFFFF" transform="matrix(1 0 0 1.00247 -222 2119)"/><path d="M109.687 147.656 156.094 147.656 156.094 295.312 109.687 295.312Z" fill="#FFFFFF" transform="matrix(1 0 0 1.00247 -222 2119)"/><path d="M172.969 59.0625 219.375 59.0625 219.375 295.312 172.969 295.312Z" fill="#FFFFFF" transform="matrix(1 0 0 1.00247 -222 2119)"/><path d="M236.25 147.656 282.656 147.656 282.656 295.312 236.25 295.312Z" fill="#FFFFFF" transform="matrix(1 0 0 1.00247 -222 2119)"/><path d="M299.531 219.375 345.937 219.375 345.937 295.312 299.531 295.312Z" fill="#FFFFFF" transform="matrix(1 0 0 1.00247 -222 2119)"/></g></g></g><g clip-path="url(#clip4)"><g clip-path="url(#clip5)"><g clip-path="url(#clip6)"><path d="M908.042 716.875 238.958 716.875 238.958 310.646 908.042 310.646 908.042 716.875ZM979.729 286.75C979.729 260.465 958.223 238.958 931.937 238.958L215.062 238.958C188.777 238.958 167.271 260.465 167.271 286.75L167.271 788.562 979.729 788.562 979.729 286.75Z" fill="#FFFFFF" transform="matrix(1 0 0 1 -579 1810)"/><path d="M645.187 836.354 645.187 848.302C645.187 855.471 640.408 860.25 633.239 860.25L513.76 860.25C506.592 860.25 501.812 855.471 501.812 848.302L501.812 836.354 23.8958 836.354 23.8958 860.25C23.8958 886.535 45.4021 908.042 71.6875 908.042L1075.31 908.042C1101.6 908.042 1123.1 886.535 1123.1 860.25L1123.1 836.354 645.187 836.354Z" fill="#FFFFFF" transform="matrix(1 0 0 1 -579 1810)"/></g></g></g><text fill="#FFFFFF" font-family="Avenir Next LT Pro,Avenir Next LT Pro_MSFontService,sans-serif" font-weight="400" font-size="183" transform="matrix(1 0 0 1 2181.37 1074)">Ath1.wiff<tspan font-family="Avenir Next LT Pro Demi,Avenir Next LT Pro Demi_MSFontService,sans-serif" font-weight="600" font-size="128" x="-30.47" y="-559">Raw Data File</tspan></text><path d="M2031.17 281.49C2030.34 281.49 2029.54 281.94 2028.96 282.762 2028.38 283.564 2028.06 284.659 2028.06 285.813 2028.06 374.106 2028.06 1785.9 2028.06 2175.56 2028.06 2201.79 2035.55 2226.96 2048.88 2245.5 2062.21 2264.06 2080.29 2274.49 2099.15 2274.49 2335.06 2274.49 3077.06 2274.49 3077.06 2274.49L3077.06 361.666C3077.06 319.769 3052.69 285.793 3022.59 285.656L2031.17 281.49Z" stroke="#FFFFFF" stroke-width="19.5297" stroke-linecap="round" stroke-linejoin="round" stroke-miterlimit="10" fill="none" fill-rule="evenodd"/><path d="M0.0521294-4.30939 1049.05-4.30939" stroke="#FFFFFF" stroke-width="19.7877" stroke-linecap="round" stroke-linejoin="round" stroke-miterlimit="10" fill="none" fill-rule="evenodd" transform="matrix(1 0 0 -1 2028 677)"/><text fill="#FFFFFF" font-family="Avenir Next LT Pro,Avenir Next LT Pro_MSFontService,sans-serif" font-weight="400" font-size="183" transform="matrix(1 0 0 1 3481.5 1074)">Proc1.csv<tspan font-family="Avenir Next LT Pro Demi,Avenir Next LT Pro Demi_MSFontService,sans-serif" font-weight="600" font-size="128" x="1.90772" y="-621">Derived</tspan><tspan font-family="Avenir Next LT Pro Demi,Avenir Next LT Pro Demi_MSFontService,sans-serif" font-weight="600" font-size="128" x="507.793" y="-621">Data </tspan><tspan font-family="Avenir Next LT Pro Demi,Avenir Next LT Pro Demi_MSFontService,sans-serif" font-weight="600" font-size="128" x="289.191" y="-497">File</tspan></text><path d="M3355.16 281.49C3354.33 281.49 3353.54 281.94 3352.96 282.762 3352.38 283.564 3352.06 284.659 3352.06 285.813 3352.06 374.106 3352.06 1785.9 3352.06 2175.56 3352.06 2201.79 3359.54 2226.96 3372.86 2245.5 3386.18 2264.06 3404.25 2274.49 3423.08 2274.49 3658.77 2274.49 4400.06 2274.49 4400.06 2274.49L4400.06 361.666C4400.06 319.769 4375.72 285.793 4345.65 285.656L3355.16 281.49Z" stroke="#FFFFFF" stroke-width="19.5297" stroke-linecap="round" stroke-linejoin="round" stroke-miterlimit="10" fill="none" fill-rule="evenodd"/><path d="M0.0520797-5.92549 1048.05-5.92549" stroke="#FFFFFF" stroke-width="19.7877" stroke-linecap="round" stroke-linejoin="round" stroke-miterlimit="10" fill="none" fill-rule="evenodd" transform="matrix(1 0 0 -1 3352 677)"/><text fill="#FFFFFF" font-family="Avenir Next LT Pro Demi,Avenir Next LT Pro Demi_MSFontService,sans-serif" font-weight="600" font-size="128" transform="matrix(1 0 0 1 1805.8 1387)">OR<tspan font-family="Avenir Next LT Pro,Avenir Next LT Pro_MSFontService,sans-serif" font-weight="400" font-size="183" x="375.57" y="386">Ath2.wiff</tspan><tspan font-family="Avenir Next LT Pro,Avenir Next LT Pro_MSFontService,sans-serif" font-weight="400" font-size="183" x="1675.7" y="386">Proc2.csv</tspan><tspan font-size="165" x="2777.1" y="-356">Annotated</tspan><tspan font-size="165" x="2824.15" y="-198">workflow</tspan><tspan font-size="165" x="3100.87" y="-39">or</tspan><tspan font-size="165" x="2789.98" y="119">annotated </tspan><tspan font-size="165" x="2629.57" y="277">computational</tspan><tspan font-size="165" x="2882.86" y="436">analysis</tspan><tspan font-size="128" x="1303.94" y="0">OR</tspan></text><path d="M5456.44 625.663C5453.79 623.637 5450.39 623.449 5447.56 625.171 5444.76 626.895 5443 630.25 5443 633.901L5443 812.1C5443 815.75 5444.76 819.105 5447.56 820.829 5450.39 822.551 5453.79 822.363 5456.44 820.336L5573.15 731.237C5575.56 729.401 5577 726.31 5577 723.001 5577 719.69 5575.56 716.599 5573.15 714.763L5456.44 625.663ZM5460.3 652.398 5552.77 723.001C5552.77 723.001 5460.3 793.602 5460.3 793.602L5460.3 652.398Z" fill="#FFFFFF" fill-rule="evenodd"/><path d="M4470.15 732 5445.85 732C5448.69 732 5451 727.743 5451 722.501 5451 717.257 5448.69 713 5445.85 713L4470.15 713C4467.31 713 4465 717.257 4465 722.501 4465 727.743 4467.31 732 4470.15 732Z" fill="#FFFFFF" fill-rule="evenodd"/><path d="M5454.64 1965.66C5452.15 1963.64 5448.95 1963.45 5446.29 1965.17 5443.65 1966.89 5442 1970.25 5442 1973.9L5442 2152.1C5442 2155.75 5443.65 2159.1 5446.29 2160.83 5448.95 2162.55 5452.15 2162.36 5454.64 2160.34L5564.38 2071.24C5566.64 2069.4 5568 2066.31 5568 2063 5568 2059.69 5566.64 2056.6 5564.38 2054.76L5454.64 1965.66ZM5458.26 1992.4 5545.21 2063C5545.21 2063 5458.26 2133.6 5458.26 2133.6L5458.26 1992.4Z" fill="#FFFFFF" fill-rule="evenodd"/><path d="M4470.15 2070 5445.85 2070C5448.69 2070 5451 2066.19 5451 2061.5 5451 2056.81 5448.69 2053 5445.85 2053L4470.15 2053C4467.31 2053 4465 2056.81 4465 2061.5 4465 2066.19 4467.31 2070 4470.15 2070Z" fill="#FFFFFF" fill-rule="evenodd"/></g></svg>