<svg width="4210" height="2160" xmlns="http://www.w3.org/2000/svg" xmlns:xlink="http://www.w3.org/1999/xlink" overflow="hidden"><defs><clipPath id="clip0"><rect x="86" y="60" width="4210" height="2160"/></clipPath></defs><g clip-path="url(#clip0)" transform="translate(-86 -60)"><text fill="#2D3E50" font-family="Avenir Next LT Pro Demi,Avenir Next LT Pro Demi_MSFontService,sans-serif" font-weight="600" font-size="110" transform="matrix(1 0 0 1 1121.43 907)">Parameter<tspan font-size="110" x="83.5083" y="93">[Night </tspan><tspan font-size="110" x="25.4146" y="185">duration</tspan>]<tspan font-family="Avenir Next LT Pro,Avenir Next LT Pro_MSFontService,sans-serif" font-weight="400" font-size="202" x="140.767" y="707">8h</tspan><tspan font-family="Avenir Next LT Pro,Avenir Next LT Pro_MSFontService,sans-serif" font-weight="400" font-size="202" x="907.683" y="707">16h</tspan><tspan font-family="Avenir Next LT Pro,Avenir Next LT Pro_MSFontService,sans-serif" font-weight="400" font-size="202" x="1570.39" y="707">10 </tspan><tspan font-family="Avenir Next LT Pro,Avenir Next LT Pro_MSFontService,sans-serif" font-weight="400" font-size="202" x="1854.56" y="707">days</tspan><tspan font-family="Avenir Next LT Pro,Avenir Next LT Pro_MSFontService,sans-serif" font-weight="700" font-size="202" x="2693.41" y="707">…</tspan><tspan font-size="110" x="835.459" y="0">Parameter</tspan><tspan font-size="110" x="959.988" y="93">[Day </tspan><tspan font-size="110" x="860.873" y="185">duration</tspan><tspan font-size="110" x="1288.27" y="185">]</tspan><tspan font-size="110" x="1670.92" y="0">Parameter</tspan><tspan font-size="110" x="1707.54" y="93">[Growth </tspan><tspan font-size="110" x="1696.33" y="185">duration</tspan>]<tspan font-size="110" x="2500.23" y="35">Parameter</tspan><tspan font-size="110" x="2666.29" y="128">[…]</tspan></text><text fill="#2D3E50" font-family="Avenir Next LT Pro Demi,Avenir Next LT Pro Demi_MSFontService,sans-serif" font-style="italic" font-weight="600" font-size="110" transform="matrix(0.99672 0.0809241 -0.0809241 0.99672 1983.7 315)">A. <tspan font-size="110" x="122.77" y="0.0651855">thaliana</tspan><tspan font-style="normal" font-size="110" x="552.964" y="-0.750565">growth</tspan><tspan font-style="normal" font-size="110" x="942.517" y="-0.273239">protocol</tspan></text><path d="M485.818 673.712C468.86 673.656 451.814 674.194 435.767 668.882 385.674 652.323 364.477 600.621 385.836 543.31 412.27 472.357 461.655 423.763 527.542 392.316 532.676 389.829 538.028 387.783 543.269 385.529 547.597 380.331 553.329 378.614 559.252 376.886 609.735 361.552 662.273 363.102 709.111 381.307 720.518 385.669 729.723 384.739 739.878 376.406 766.344 354.706 794.298 335.142 821.539 312.725 791.131 310.978 764.019 301.405 735.74 296.419 696.612 289.466 656.978 284.719 617.004 282.199 611.24 281.764 605.058 282.522 600.669 277.54 571.656 271.899 542.212 267.699 515.005 256.069 491.29 245.903 469.864 232.534 454.243 211.279 435.718 186.08 428.636 157.57 443.723 125.485 458.809 93.3997 486.08 78.6849 518.087 74.0779 551.601 69.1096 580.725 80.3346 608.835 94.658 628.736 104.806 647.936 116.234 666.334 128.877 677.525 136.572 701.345 146.671 698.397 147.449 741.225 176.384 775.979 214.384 816.234 245.55 827.407 253.756 839.112 261.203 851.282 267.847 856.298 271.069 863.003 270.58 868.123 266.62 881.578 257.536 895.013 248.426 908.429 239.29 912.572 236.43 915.769 232.259 917.489 227.474 924.433 208.899 933.769 191.209 945.223 174.92 950.978 166.879 961.279 157.302 965.366 151.441 996.064 113.335 1032.83 84.7129 1078.35 70.627 1094.28 65.5425 1110.72 63.4868 1126.85 64.566 1172.5 67.8144 1191.71 102.515 1172.85 148.315 1169.14 157.185 1164.77 165.805 1160.7 174.522 1160.1 178.502 1157.52 181.382 1155.32 184.49 1106.72 242.519 1046.58 273.251 975.872 278.584 962.337 279.519 948.977 277.745 936.516 273.361 927.125 270.152 919.671 272.089 912.888 281.901 931.335 288.02 950.991 288.33 969.76 291.997 987.646 295.524 1006.08 297.016 1023.96 300.692 1031.93 302.319 1038.52 301.066 1044.65 294.18 1076.62 258.37 1115.3 235.793 1159.69 224.37 1195.17 215.951 1229.3 218.604 1262.51 228.763 1268.7 231.731 1273.5 231.119 1275.36 222.409 1275.75 220.638 1277.11 218.541 1279.63 219.681 1275.04 234.335 1281.01 241.16 1293.16 246.729 1309.21 254.396 1323.05 265.914 1333.66 280.412 1365.64 322.578 1353.25 376.592 1304.9 405.539 1284.31 417.859 1262.26 423.868 1239.47 426.172 1237.37 428.233 1234.81 429.693 1232.08 430.388 1208.91 432.523 1185.88 430.886 1163.81 425.531 1138.62 418.978 1114.33 410.218 1092.18 396.495 1074.07 385.302 1057.08 372.619 1043.22 356.296 1036.83 348.404 1027.65 343.498 1017.45 342.525 1004.72 341.138 991.753 340.784 979.733 336.226 978.123 336.329 881.525 305.584 883.959 308.096 870.008 324.359 879.812 345.217 890.468 362.692 903.391 382.243 915.772 468.419 904.154 505.691 899.387 525.105 888.388 542.772 873.053 555.641 856.787 565.537 841.569 564.362 827.128 555.021 807.546 540.317 798.091 518.878 794.039 494.272 788.874 462.832 787.253 431.085 797.514 398.81 798.397 396.752 797.844 394.433 796.188 393.235 780.837 405.425 764.066 415.983 749.525 429.91 746.393 433.391 744.119 437.589 742.933 442.087 730.482 477.496 713.014 511.161 691.142 541.899 655.326 589.193 612.174 626.883 560.126 652.551 541.038 662.359 520.941 669.426 500.429 673.541 496.128 674.704 491.716 674.916 487.487 674.164L485.818 673.712Z" stroke="#2D3E50" stroke-width="6.94393" stroke-linejoin="round" stroke-miterlimit="10" fill="none" fill-rule="evenodd"/><path d="M543.161 215.721C537.449 224.265 531.268 232.598 530.239 244.97 539.07 238.937 539.351 228.383 546.576 223.379 546.936 223.206 547.383 222.765 547.657 222.836 557.99 226.117 570.437 253.757 566.581 264.99 545.63 261.908 525.504 256.662 507.643 245.538 505.232 234.056 500.213 223.927 495.346 213.584 480.591 182.47 465.787 151.201 453.071 118.866 461.593 102.56 475.662 93.6729 491.219 86.7482 497.685 84.7364 500.538 89.177 502.897 93.5801 511.959 110.515 519.785 128.231 527.544 145.917 531.807 155.689 529.705 157.955 519.404 157.627 512.846 157.406 506.421 155.196 499.635 157.284 495.312 157.707 490.856 155.22 484.738 159.508 497.143 163.72 508.931 162.236 520.034 163.874 528.016 181.027 536.47 197.891 543.161 215.721Z" stroke="#2D3E50" stroke-width="6.94393" stroke-linejoin="round" stroke-miterlimit="10" fill="none" fill-rule="evenodd"/><path d="M501.483 412.572C518.733 399.775 537.882 392.072 557.708 386.819 567.872 383.637 577.233 386.094 586.573 388.7 622.089 398.558 658.543 405.037 694.444 413.449 705.775 416.105 716.845 419.541 728.222 422.05 734.028 423.314 741.166 425.528 735.965 435.26 735.329 443.04 732.53 450.651 727.91 457.151 710.416 453.08 691.634 452.811 676.211 442.571 673.918 439.148 676.272 437.426 679.059 436.137 683.403 434.247 687.846 432.678 692.353 431.441 676.881 436.697 661.449 442.156 646.157 447.951 641.332 449.811 636.516 452.722 631.416 450.087 614.234 440.939 594.804 438.497 575.972 434.299 554.447 429.498 533.258 423.572 511.645 419.04 507.535 418.204 503.396 417.091 501.483 412.572Z" stroke="#2D3E50" stroke-width="6.94393" stroke-linejoin="round" stroke-miterlimit="10" fill="none" fill-rule="evenodd"/><path d="M1237.89 420.702C1228.98 423.279 1220.37 421.878 1211.64 421.219 1204.87 423.208 1198.55 420.93 1191.99 420.86 1187.01 420.783 1185.45 416.866 1188.6 413.654 1201.65 400.664 1212.24 384.015 1231.22 379.373 1232.93 380.303 1233.65 381.881 1233.63 384.831 1235.24 378.552 1231.77 373.465 1234.12 368.017 1246.04 353.293 1261.54 342.814 1275.14 330.067 1282.63 328.882 1288.56 332.93 1294.55 334.407 1288.32 330.562 1278.84 331.296 1273.58 324.023 1273.13 322.904 1273.25 321.581 1273.9 320.472 1287.14 303.973 1302.85 290.16 1319.16 277.292 1320.6 276.286 1322.42 276.246 1323.74 277.188 1337.45 290.413 1345.63 308.807 1346.77 328.927 1340.56 330.954 1334.81 334.504 1330.01 339.261 1302.8 365.43 1272.34 387.579 1245.89 414.681 1243.51 417.092 1240.81 419.123 1237.89 420.702Z" stroke="#2D3E50" stroke-width="6.94393" stroke-linejoin="round" stroke-miterlimit="10" fill="none" fill-rule="evenodd"/><path d="M557.044 644.093C528.485 659.936 498.466 669.668 467.456 669.075 431.657 668.521 393.184 650.64 384.772 603.629 388.693 598.926 393.412 599.507 398.044 600.507 448.22 611.297 498.633 621.306 547.818 635.521 552.016 636.713 557.332 637.44 557.044 644.093Z" stroke="#2D3E50" stroke-width="6.94393" stroke-linejoin="round" stroke-miterlimit="10" fill="none" fill-rule="evenodd"/><path d="M1027.16 334.783 1020.1 334.25C1021.4 321.498 1033 318.1 1040.29 310.775 1063.34 284.092 1088.86 261.294 1120.34 246.597 1144.34 235.053 1169.96 228.556 1195.59 227.508 1192.4 235.641 1185.6 240.477 1179.42 245.661 1158.07 263.548 1136.92 281.7 1116.51 300.908 1113.08 304.149 1109.68 307.092 1109.76 312.248 1100.61 319.957 1089.28 317.151 1079.43 321.532 1075.78 323.156 1070.11 321.828 1070.03 328.797 1067.18 339.556 1056.85 343.676 1050.8 351.619 1046.72 347.061 1041.34 343.954 1038.54 338.193 1035.48 334.812 1030.23 337.915 1027.16 334.783Z" stroke="#2D3E50" stroke-width="6.94393" stroke-linejoin="round" stroke-miterlimit="10" fill="none" fill-rule="evenodd"/><path d="M736.008 435.289C736.553 422.98 726.248 425.201 719.651 423.503 697.06 417.721 674.279 412.575 651.493 407.454 620.282 400.447 588.984 393.707 557.751 386.848 581.498 377.366 605.941 375.113 630.194 375.07 660.969 374.94 690.894 381.458 718.089 394.21 723.38 396.685 727.116 396.367 732.053 392.34 739.131 386.575 746.899 381.761 754.374 376.526 766.559 370.822 776.39 376.639 786.337 381.215 789.165 382.504 791.026 385.32 788.152 389.078 774.083 399.865 760.229 410.968 745.834 421.231 740.594 425.06 740.185 431.254 736.008 435.289Z" stroke="#2D3E50" stroke-width="6.94393" stroke-linejoin="round" stroke-miterlimit="10" fill="none" fill-rule="evenodd"/><path d="M501.483 412.572C526.46 418.626 551.43 424.678 576.391 430.731 592.811 434.671 609.314 438.218 625.631 442.525 629.564 443.267 632.678 446.13 633.846 450.071 591.12 482.568 539.886 483.223 503.035 454.414 502.313 453.834 501.858 452.75 500.679 452.836 501.485 453.662 502.05 454.712 502.314 455.884 502.633 458.034 500.969 458.658 499.557 459.501 482.965 460.023 466.606 459.787 453.266 448.979 467.418 434.196 483.735 421.876 501.483 412.572Z" stroke="#2D3E50" stroke-width="6.94393" stroke-linejoin="round" stroke-miterlimit="10" fill="none" fill-rule="evenodd"/><path d="M659.075 566.976C645.613 583.989 629.713 598.798 612.026 610.797 586.386 604.56 560.419 599.399 535.218 591.67 525.693 572.75 530.278 553.047 536.883 533.196 539.555 531.098 543.005 530.588 545.862 531.874 565.013 537.746 585.319 539.43 604.483 545.052 611.001 547.595 611.88 554.236 613.903 560.089 614.232 561.064 614.306 561.044 617.255 558.367 629.48 552.241 649.53 556.405 659.075 566.976Z" stroke="#2D3E50" stroke-width="6.94393" stroke-linejoin="round" stroke-miterlimit="10" fill="none" fill-rule="evenodd"/><path d="M776.043 295.814C757.856 293.815 740.523 288.83 723.048 284.31 730.904 281.279 732.3 276.434 728.689 269.286 725.878 263.774 722.345 258.632 720.022 252.882 717.7 247.131 712.872 241.267 718.727 233.984L735.399 246.843 737.493 244.152C730.565 233.278 717.342 229.754 708.829 220.711 701.906 201.766 693.926 183.336 684.922 165.506 682.467 160.32 678.425 155.24 683.982 148.834 707.503 160.611 725.604 179.779 745.884 196.01 758.64 220.649 769.215 246.498 780.957 271.71 782.955 275.986 784.901 280.283 786.508 284.629 787.69 287.993 789.292 291.739 786.602 295.061 783.332 299.239 779.515 297.726 776.043 295.814Z" stroke="#2D3E50" stroke-width="6.94393" stroke-linejoin="round" stroke-miterlimit="10" fill="none" fill-rule="evenodd"/><path d="M453.297 448.932C469.031 453.635 485.342 456.545 501.959 457.608 509.776 456.423 514.748 462.274 520.86 464.986 536.267 471.939 553.212 475.25 570.557 474.69 573.257 474.619 576.634 473.049 577.548 476.618 578.321 479.701 575.56 481.918 573.255 483.794 526.991 519.873 493.25 525.25 442.697 493.731 438.845 491.34 435.617 487.496 430.133 489.307 426.8 490.157 423.428 489.088 421.345 486.518 429.869 471.937 441.889 460.695 453.297 448.932Z" stroke="#2D3E50" stroke-width="6.94393" stroke-linejoin="round" stroke-miterlimit="10" fill="none" fill-rule="evenodd"/><path d="M557.044 644.093C541.469 634.542 523.094 632.528 505.714 628.165 469.518 619.031 432.657 612.097 396.231 603.695 392.164 602.738 388.577 603.642 384.772 603.629 380.75 589.725 384.254 575.465 386.393 561.252 392.926 557.845 399.112 560.538 404.86 561.872 420.957 565.588 438.288 565.847 452.687 574.835 455.375 582.738 448.238 586.524 445.682 591.806 443.277 591.974 445.873 594.17 445.414 592.635 445.44 592.463 445.761 592.386 446.558 592.147 448.154 591.727 449.783 591.606 451.372 591.785 480.391 597.703 508.805 605.424 537.783 611.613 539.783 611.764 541.783 611.916 543.753 612.264 554.347 614.44 564.697 617.446 575.146 620.11 579.893 621.294 586.427 622.463 583.027 630.981L557.044 644.093Z" stroke="#2D3E50" stroke-width="6.94393" stroke-linejoin="round" stroke-miterlimit="10" fill="none" fill-rule="evenodd"/><path d="M1109.26 310.986C1101.54 308.053 1107.54 305.08 1110.15 302.752 1129.84 285.29 1149.64 267.987 1169.42 250.605 1178.14 242.932 1186.85 235.255 1195.56 227.58 1214.57 229.516 1234.08 228.74 1252.43 234.377 1254.71 235.048 1257.1 234.979 1258.34 237.323 1250.18 245.556 1240.89 252.355 1232.03 259.686 1228.67 262.456 1224.83 265.792 1220.56 261.944 1219.44 261.309 1219.72 258.156 1219.23 259.068 1208.66 279.632 1191.19 295.845 1170.47 304.309 1150.68 312.979 1129.3 315.31 1109.26 310.986Z" stroke="#2D3E50" stroke-width="6.94393" stroke-linejoin="round" stroke-miterlimit="10" fill="none" fill-rule="evenodd"/><path d="M1106.19 220.754C1092.13 231.167 1077.98 241.373 1061.73 247.395 1060.28 246.091 1059.63 244.04 1060.03 241.967 1065.57 223.461 1071.89 205.363 1086.52 191.468 1089.19 190.845 1090.85 192.096 1092.51 195.471 1091.85 189.596 1087.88 185.896 1089.48 180.642 1098.73 166.641 1104.27 150.709 1112.81 136.33 1118.24 132.085 1124.78 129.859 1131.27 130.049 1126.96 127.874 1120.6 134.393 1116.44 128.504 1120.14 108.383 1130.55 91.1953 1141.64 74.2827 1142.35 73.1867 1143.79 73.4699 1144.92 73.8556 1156.27 75.7132 1163.36 82.9989 1168.19 93.1134 1148.39 126.967 1132.93 162.95 1115.54 197.885 1111.95 205.089 1106.15 211.876 1106.19 220.754Z" stroke="#2D3E50" stroke-width="6.94393" stroke-linejoin="round" stroke-miterlimit="10" fill="none" fill-rule="evenodd"/><path d="M776.043 295.814C785.117 297.024 787.779 294.675 783.354 285.341 771.859 261.023 760.984 236.376 750.085 211.728 747.914 206.864 744.007 202.469 745.853 196.058 772.96 219.256 798.248 244.741 827.928 264.758 837.061 270.948 840.966 281.993 843.804 292.857 845.744 300.354 839.835 304.358 834.185 304.431 814.186 305.107 794.519 302.192 776.043 295.814Z" stroke="#2D3E50" stroke-width="6.94393" stroke-linejoin="round" stroke-miterlimit="10" fill="none" fill-rule="evenodd"/><path d="M713.704 488.603C707.55 502.138 701.419 515.675 691.281 526.909 689.148 528.223 686.668 528.638 684.397 528.064 663.477 523.034 641.993 519.861 621.413 513.681 616.862 512.627 612.898 510.008 610.138 506.229 607.476 492.303 612.385 479.924 620.274 468.145 625.203 463.693 630.406 464.061 635.961 465.255 657.811 469.956 679.309 475.88 701.383 479.723 706.681 480.573 712.085 482.131 713.704 488.603Z" stroke="#2D3E50" stroke-width="6.94393" stroke-linejoin="round" stroke-miterlimit="10" fill="none" fill-rule="evenodd"/><path d="M499.448 157.419C508.443 152.674 517.054 158.374 526.141 156.185 527.744 147.432 521.667 142.123 518.813 135.632 512.951 121.939 506.574 108.508 500.06 95.1906 498.251 91.404 495.978 87.3822 491.013 87.0072 507.717 78.944 524.894 77.0667 542.281 78.3801 544.82 80.797 549.13 80.2978 550.947 84.0349 550.197 115.728 561.246 142.063 580.529 164.919 553.373 159.743 526.199 160.065 499.448 157.419Z" stroke="#2D3E50" stroke-width="6.94393" stroke-linejoin="round" stroke-miterlimit="10" fill="none" fill-rule="evenodd"/><path d="M550.981 83.8126C547.354 83.3461 544.208 81.2933 542.315 78.1579 563.4 79.4006 581.821 88.0671 600.553 95.9323 604.996 97.573 607.846 101.936 607.765 106.977 608.224 134.859 618.145 160.866 635.778 180.418 584.916 175.925 562.977 142.418 555.954 96.6131 555.336 92.3413 559.898 84.486 550.981 83.8126Z" stroke="#2D3E50" stroke-width="6.94393" stroke-linejoin="round" stroke-miterlimit="10" fill="none" fill-rule="evenodd"/><path d="M452.899 118.903C459.704 122.692 459.966 130.912 462.904 137.159 478.038 169.077 492.65 201.305 507.027 233.666 508.468 236.9 512.752 240.999 507.467 245.599 470.126 231.428 433.538 190.915 441.465 146.639 443.136 136.755 447.059 127.236 452.899 118.903Z" stroke="#2D3E50" stroke-width="6.94393" stroke-linejoin="round" stroke-miterlimit="10" fill="none" fill-rule="evenodd"/><path d="M1237.89 420.702C1243.39 410.892 1252.26 404.288 1260.14 396.983 1284.43 374.718 1309.52 353.488 1334.42 331.895 1338.18 328.628 1341.84 324.355 1346.77 328.952 1346.3 375.842 1307.37 406.676 1269.64 414.525 1259.01 416.648 1248.6 420.361 1237.89 420.702Z" stroke="#2D3E50" stroke-width="6.94393" stroke-linejoin="round" stroke-miterlimit="10" fill="none" fill-rule="evenodd"/><path d="M421.345 486.517 430.756 487.229C435.543 485.615 437.874 489.416 440.718 491.706 461.701 508.641 486.774 513.585 513.682 512.818 516.405 512.748 519.57 511.163 521.11 514.054 522.946 517.668 519.908 520.613 517.481 522.355 505.92 530.706 497.521 544.297 482.684 547.226 459.122 539.521 434.61 534.644 410.459 529.27 405.854 528.247 401.038 527.833 399.321 522.328 405.938 509.828 411.93 497.056 421.345 486.517Z" stroke="#2D3E50" stroke-width="6.94393" stroke-linejoin="round" stroke-miterlimit="10" fill="none" fill-rule="evenodd"/><path d="M940.001 265.699C920.521 255.853 910.02 274.235 896.592 283.77 893.302 286.021 890.651 292.571 885.748 289.101 880.159 285.129 885.842 280.733 887.229 276.263 891.836 261.461 901.544 252.144 914.348 245.012 919.012 242.264 922.534 237.71 924.069 232.446 935.872 198.613 955.842 169.496 978.592 142.14 981.578 139.198 984.846 136.585 988.33 134.351 995.417 137.386 990.16 142.589 988.653 146.275 980.29 166.894 969.245 186.359 959.633 206.583 957.097 211.891 953.885 216.948 954.446 223.016 955.706 229.661 944 232.502 948.547 240.07 950.904 250.023 944.871 257.692 940.001 265.699Z" stroke="#2D3E50" stroke-width="6.94393" stroke-linejoin="round" stroke-miterlimit="10" fill="none" fill-rule="evenodd"/><path d="M566.534 264.986C564.375 248.966 557.412 234.46 546.608 223.481 554.991 206.365 569.062 196.353 585.129 188.892 589.96 190.307 592.195 194.425 594.22 198.678 600.476 211.176 605.928 224.112 612.157 236.633 613.545 238.528 613.717 241.176 612.604 243.467 608.271 251.539 603.919 259.586 599.63 267.686 598.634 269.561 597.498 272.05 595.329 270.962 586.437 266.49 575.088 271.383 566.534 264.986Z" stroke="#2D3E50" stroke-width="6.94393" stroke-linejoin="round" stroke-miterlimit="10" fill="none" fill-rule="evenodd"/><path d="M399.435 522.362C419.549 527.207 439.699 531.979 459.775 536.92 468.194 539.006 477.644 538.82 483.809 546.236 477.16 560.211 466.154 571.71 452.749 578.689 449.709 573.91 444.624 573.701 439.588 572.695 421.768 569.049 404.071 565.212 386.281 561.369 387.12 547.257 394.081 535.008 399.435 522.362Z" stroke="#2D3E50" stroke-width="6.94393" stroke-linejoin="round" stroke-miterlimit="10" fill="none" fill-rule="evenodd"/><path d="M1221.34 261.953C1230.07 261.012 1234.62 252.756 1241.29 248.46 1247.03 244.793 1250.86 237.683 1258.42 237.254 1268.92 239.324 1278.79 243.46 1287.52 249.452 1287.86 255.228 1283.68 256.412 1279.67 257.759 1273.87 259.621 1272.19 265.419 1269.18 269.791 1260.5 282.293 1249.63 293.052 1237.22 301.427 1217.99 314.724 1198.89 311.482 1179.55 308.795 1175.56 308.244 1170.91 305.042 1177.54 301.143 1194.02 291.413 1206.81 277.88 1218.07 262.38 1218.68 261.326 1220.13 261.486 1221.34 261.953Z" stroke="#2D3E50" stroke-width="6.94393" stroke-linejoin="round" stroke-miterlimit="10" fill="none" fill-rule="evenodd"/><path d="M1279.3 256.331C1282.61 255.004 1285.5 252.577 1287.47 249.449 1301.63 255.586 1314.02 265.065 1323.74 277.189 1305.36 290.425 1289.76 307.121 1273.95 323.427 1268.58 327.496 1264 323.8 1259.3 322.92 1249.03 320.969 1239.1 317.719 1228.91 315.375 1225.32 314.553 1219.52 311.215 1226.12 307.939 1249.19 296.381 1263.85 276.089 1279.3 256.331Z" stroke="#2D3E50" stroke-width="6.94393" stroke-linejoin="round" stroke-miterlimit="10" fill="none" fill-rule="evenodd"/><path d="M611.17 505.857C632.558 515.673 656.634 516.967 679.066 523.486 683.1 524.666 687.165 525.798 691.234 526.906 681.906 541.451 672.04 555.455 659.027 566.973 649.388 561.619 638.105 561.017 627.725 557.733 623.996 556.754 619.853 558.146 617.098 561.305 609.603 558.614 610.064 550.499 608.982 544.567 606.749 531.898 602.193 518.854 611.17 505.857Z" stroke="#2D3E50" stroke-width="6.94393" stroke-linejoin="round" stroke-miterlimit="10" fill="none" fill-rule="evenodd"/><path d="M718.728 233.984C717.713 242.307 720.83 248.942 724.726 255.462 727.773 260.45 730.401 265.723 732.584 271.23 737.311 283.612 736.294 284.835 723.052 284.285L684.585 281.379C680.844 281.097 676.506 282.094 674.017 278.081 682.777 275.843 684.92 272.204 681.03 263.111 673.942 246.975 666.712 230.829 659.798 214.482 669.098 205.185 677.851 206.946 686.823 213.098 697.301 220.315 708.088 227.055 718.728 233.984Z" stroke="#2D3E50" stroke-width="6.94393" stroke-linejoin="round" stroke-miterlimit="10" fill="none" fill-rule="evenodd"/><path d="M1106.19 220.754C1102.95 218.584 1101.28 215.758 1103.81 211.575 1125.1 176.433 1139.66 138.033 1159.46 102.153 1161.65 98.1939 1162.68 93.222 1168.36 92.976 1179.33 109.405 1175.61 127.449 1168.7 145.352 1156.15 177.553 1133.54 201.295 1106.19 220.754Z" stroke="#2D3E50" stroke-width="6.94393" stroke-linejoin="round" stroke-miterlimit="10" fill="none" fill-rule="evenodd"/><path d="M713.704 488.603C697.898 479.484 678.768 480.739 661.878 474.863 652.84 471.68 643.335 470.488 634.107 468.091 630.056 466.834 625.571 467.206 621.505 469.138 618.841 467.91 617.213 465.129 617.321 461.998 620.563 456.267 626.363 454.881 631.561 453.073 642.604 449.108 653.432 444.201 664.669 440.999 668.274 439.972 672.267 436.998 675.671 440.781 689.027 445.982 703.032 449.555 717.421 451.434 721.712 451.556 725.568 453.682 727.923 457.228 725.362 468.449 720.509 479.16 713.704 488.603Z" stroke="#2D3E50" stroke-width="6.94393" stroke-linejoin="round" stroke-miterlimit="10" fill="none" fill-rule="evenodd"/><path d="M1153.19 414.304C1144.96 411.182 1135.8 410.215 1128.43 404.934 1134.72 389.583 1152.77 375.247 1163.79 376.83 1165.51 378.66 1164.88 381.412 1165.72 383.6 1165.46 381.331 1165.93 378.992 1165.61 376.742 1164.42 368.852 1161.44 361.277 1163.36 352.773 1171.56 339.392 1184.45 331.59 1196.2 322.453 1198.99 320.534 1202.39 320.039 1205.34 321.119 1215.89 328.516 1225.11 336.938 1225.39 352.033 1207.96 364.366 1191.62 378.402 1176.63 393.925 1169.44 401.232 1160.16 406.305 1153.19 414.304Z" stroke="#2D3E50" stroke-width="6.94393" stroke-linejoin="round" stroke-miterlimit="10" fill="none" fill-rule="evenodd"/><path d="M1089.11 191.964C1075.39 207.85 1065.9 227.055 1061.73 247.395 1049.85 254.897 1036.98 258.975 1023.83 262.032 1017.78 263.7 1015.44 260.273 1017.38 255.144 1020.95 245.639 1023.45 235.029 1033.68 229.676 1035.38 229.304 1038.87 230.918 1036.77 226.385 1034.97 222.549 1033.18 218.613 1035.22 213.767 1044.28 198.627 1050.1 181.942 1058.96 166.711 1073.96 164.72 1087.42 176.036 1089.11 191.964Z" stroke="#2D3E50" stroke-width="6.94393" stroke-linejoin="round" stroke-miterlimit="10" fill="none" fill-rule="evenodd"/><path d="M953.386 224.211C947.865 217.894 953.398 212.437 955.991 206.908 966.752 184.538 977.585 162.214 988.489 139.938 989.526 137.791 989.904 136.07 988.218 134.467 995.692 121.332 1008.87 114.902 1019.49 105.505 1023.43 102.518 1027.59 99.8847 1031.93 97.6447 1035.2 102.167 1033.21 106.866 1031.11 111.458 1021.44 132.727 1012.25 154.233 1000.44 174.516 997.784 178.797 996.187 183.629 995.805 188.54 994.908 194.498 990.411 197.658 986.371 201.103 976.239 210.14 965.155 217.905 953.386 224.211Z" stroke="#2D3E50" stroke-width="6.94393" stroke-linejoin="round" stroke-miterlimit="10" fill="none" fill-rule="evenodd"/><path d="M683.955 148.857C682.801 154.47 684.819 158.922 687.11 163.62 694.433 178.199 701.181 192.959 708.122 207.708 709.786 211.713 710.034 216.309 708.825 220.736L665.121 194.934C659.044 171.125 645.803 150.975 637.304 128.558 635.566 124.302 631.904 120.65 634.305 115.132 651.891 124.76 669.422 134.759 683.955 148.857Z" stroke="#2D3E50" stroke-width="6.94393" stroke-linejoin="round" stroke-miterlimit="10" fill="none" fill-rule="evenodd"/><path d="M1108.37 395.918C1097.3 390.909 1087.09 384.248 1078.04 376.127 1075.45 371.181 1078.09 367.255 1081.76 364.233 1099.39 349.665 1115.38 332.923 1133.91 319.523 1148.55 324.903 1155.95 336.388 1158.37 352.12 1138.97 363.229 1124.6 380.719 1108.37 395.918Z" stroke="#2D3E50" stroke-width="6.94393" stroke-linejoin="round" stroke-miterlimit="10" fill="none" fill-rule="evenodd"/><path d="M612.604 243.467 585.129 188.892C603.786 171.176 620.234 183.144 636.791 189.02 647.206 192.706 656.819 198.232 668.927 203.947 645.442 211.848 628.372 226.608 612.604 243.467Z" stroke="#2D3E50" stroke-width="6.94393" stroke-linejoin="round" stroke-miterlimit="10" fill="none" fill-rule="evenodd"/><path d="M940.002 265.699C938.848 256.137 949.706 248.657 946.448 238.686 945.506 234.04 949.43 232.312 951.946 229.827 962.906 218.98 975.452 210.253 987.086 200.306 996.322 192.379 1004.27 193.63 1012.1 203.571 1001.36 225.26 991.089 247.209 980.008 268.646 965.772 273.596 953.189 267.72 940.002 265.699Z" stroke="#2D3E50" stroke-width="6.94393" stroke-linejoin="round" stroke-miterlimit="10" fill="none" fill-rule="evenodd"/><path d="M1134.03 320.356C1119.51 336.034 1103.19 349.577 1086.98 363.202 1082.81 366.712 1078.12 369.782 1078.04 376.152 1067.23 369.985 1059.18 360.602 1050.8 351.594 1050.87 345.424 1055.42 342.418 1059.4 338.894 1063.38 335.369 1067.81 333.454 1068.64 327.917 1068.56 325.823 1070.13 323.874 1072.15 323.557 1090.74 317.423 1109.79 313.698 1128.86 312.466 1134.06 312.209 1139.21 312.473 1134.03 320.356Z" stroke="#2D3E50" stroke-width="6.94393" stroke-linejoin="round" stroke-miterlimit="10" fill="none" fill-rule="evenodd"/><path d="M1070.57 78.0637C1085.01 72.9669 1099.88 69.8853 1114.78 68.9034 1112.45 76.155 1107.37 82.3184 1100.78 85.8708 1095.94 87.6553 1097.73 92.3407 1096.56 95.5519 1089.58 115.394 1078.84 133.871 1065.02 149.82 1058.1 157.746 1048.56 160.701 1039.93 165.423 1037.08 166.958 1033.49 167.862 1031.39 164.603 1029.62 161.97 1031.37 159.052 1032.98 156.574 1043.91 139.725 1049.94 121.03 1055.68 102.214 1061.8 94.9011 1065.31 85.9661 1070.57 78.0637Z" stroke="#2D3E50" stroke-width="6.94393" stroke-linejoin="round" stroke-miterlimit="10" fill="none" fill-rule="evenodd"/><path d="M1070.57 78.0638C1069.55 87.8368 1066.15 96.3549 1057.44 102.071 1052.53 106.701 1052.03 113.463 1050.57 119.053 1044.92 140.776 1033.02 158.852 1018.9 175.66 1012.49 183.276 1004.52 189.449 994.279 189.825 990.577 184.545 993.556 179.771 996.512 174.994 1009.86 153.503 1018.62 129.789 1030.04 107.352 1031.49 104.487 1031.37 100.877 1032 97.5 1043.79 88.6909 1057.21 83.5046 1070.57 78.0638Z" stroke="#2D3E50" stroke-width="6.94393" stroke-linejoin="round" stroke-miterlimit="10" fill="none" fill-rule="evenodd"/><path d="M1153.19 414.304C1160.23 397.586 1177.31 391.301 1188.38 378.462 1195.69 370.624 1203.66 363.496 1212.19 357.186 1215.72 354.172 1220.03 352.411 1224.41 352.184 1231.79 359.766 1235.67 368.609 1232.08 380.263 1216.18 386.962 1205.94 401.563 1192.92 412.305 1191.35 413.586 1189.33 415.008 1189.8 417.269 1190.41 420.315 1193.33 419.736 1195.51 419.95L1211.84 421.184C1202.74 425.496 1194.17 422.349 1185.68 421.033 1174.57 419.469 1163.93 416.515 1153.19 414.304Z" stroke="#2D3E50" stroke-width="6.94393" stroke-linejoin="round" stroke-miterlimit="10" fill="none" fill-rule="evenodd"/><path d="M788.153 389.228C784.143 378.25 772.63 381.705 764.831 377.716 761.962 376.224 757.806 376.96 754.375 376.676 768.361 361.383 785.972 351.088 802.07 338.829 811.906 331.347 820.438 321.617 831.82 316.502 834.96 315.089 838.304 309.317 840.845 312.508 843.386 315.701 844.91 323.44 841.988 326.095 821.402 344.765 814.494 375.793 788.153 389.228Z" stroke="#2D3E50" stroke-width="6.94393" stroke-linejoin="round" stroke-miterlimit="10" fill="none" fill-rule="evenodd"/><path d="M659.79 214.532C671.173 225.217 673.822 241.292 680.431 254.916 681.879 257.66 683.034 260.58 683.879 263.626 684.992 268.085 690.665 271.814 687.24 276.705 683.815 281.596 678.421 277.589 673.881 278.196L645.766 276.072C638.639 263.034 634.451 248.342 628.193 234.745 637.207 224.976 647.435 217.573 659.79 214.532Z" stroke="#2D3E50" stroke-width="6.94393" stroke-linejoin="round" stroke-miterlimit="10" fill="none" fill-rule="evenodd"/><path d="M1100.41 85.3179C1104.87 79.5548 1108.47 73.0267 1114.78 68.9034 1124.79 70.8593 1135.95 67.503 1144.99 73.6857 1133.83 91.1324 1124.64 109.743 1117.61 129.117 1117.21 134.462 1112.63 134.391 1109.53 135.382 1099.13 138.871 1088.9 143.148 1078.36 145.952 1073.97 147.12 1068.6 146.115 1072.92 140.216 1085.29 123.325 1092.05 104.011 1100.41 85.3179Z" stroke="#2D3E50" stroke-width="6.94393" stroke-linejoin="round" stroke-miterlimit="10" fill="none" fill-rule="evenodd"/><path d="M979.997 268.721C979.983 258.07 986.459 249.509 990.988 240.451 997.248 227.949 1001.3 214.18 1011.2 203.578 1024.73 203.15 1035.64 215.075 1035.71 230.43 1025.3 236.319 1024.27 248.09 1019.04 257.196 1017.28 260.237 1021.11 261.501 1023.84 262.008 1009.57 267.363 994.641 269.65 979.997 268.721Z" stroke="#2D3E50" stroke-width="6.94393" stroke-linejoin="round" stroke-miterlimit="10" fill="none" fill-rule="evenodd"/><path d="M634.309 115.107C644.206 136.93 654.309 158.643 663.741 180.705 665.517 184.714 670.369 189.156 665.124 194.909 647.749 192.572 640.207 178.027 631.299 165.604 618.698 148.303 611.994 128.196 613.694 104.575 622.17 105.965 627.895 111.247 634.309 115.107Z" stroke="#2D3E50" stroke-width="6.94393" stroke-linejoin="round" stroke-miterlimit="10" fill="none" fill-rule="evenodd"/><path d="M543.161 215.721C531.869 200.683 523.983 183.048 520.019 163.973 546.283 165.432 572.345 167.751 600.282 177.062 575.762 184.409 558.828 199.055 543.161 215.721Z" stroke="#2D3E50" stroke-width="6.94393" stroke-linejoin="round" stroke-miterlimit="10" fill="none" fill-rule="evenodd"/><path d="M856.116 554.186C835.275 555.112 822.426 543.891 813.652 526.153 805.056 508.804 798.807 490.732 799.771 470.105 802.324 462.948 805.1 462.208 809.554 468.344 814.709 475.509 819.222 483.149 824.195 490.575 829.717 498.942 835.157 507.378 840.41 515.95 841.359 518.021 839.433 521.176 842.207 522.661 847.957 528.095 851.282 535.246 855.379 541.855 857.582 545.397 860.151 549.516 856.116 554.186Z" stroke="#2D3E50" stroke-width="6.94393" stroke-linejoin="round" stroke-miterlimit="10" fill="none" fill-rule="evenodd"/><path d="M799.532 440.087C796.385 422.899 803.451 406.783 808.36 390.454 809.062 388.007 809.804 385.763 810.518 383.392 811.469 382.549 812.677 382.123 813.861 382.212 815.044 382.302 816.099 382.899 816.777 383.865 823.576 393.704 833.123 401.725 834.872 415.082 831.511 418.753 827.222 418.479 822.905 419.178 825.206 419.701 827.439 419.095 829.601 419.434 842.771 426.778 848.621 439.445 851.584 454.219 846.348 462.923 839.479 467.93 829.641 466.261 821.748 453.89 816.562 439.499 805.44 428.658 802.228 431.816 803.783 437.608 799.532 440.087Z" stroke="#2D3E50" stroke-width="6.94393" stroke-linejoin="round" stroke-miterlimit="10" fill="none" fill-rule="evenodd"/><path d="M582.808 631.014C582.056 622.733 575.382 623.754 569.808 622.533 560.602 620.462 551.329 617.887 542.132 615.442 537.037 608.032 530.195 601.165 536.443 590.012 561.047 593.171 584.241 601.423 608.408 606.224 609.864 606.508 610.715 609.073 611.844 610.583L582.808 631.014Z" stroke="#2D3E50" stroke-width="6.94393" stroke-linejoin="round" stroke-miterlimit="10" fill="none" fill-rule="evenodd"/><path d="M799.531 440.087C800.997 434.148 800.304 427.846 804.226 420.442 813.706 435.233 826.492 446.399 829.143 464.824 826.533 468.252 822.377 465.988 819.657 468.407 825.345 468.717 830.244 472.087 832.593 477.31 836.65 486.241 844.799 492.332 847.417 502.279 847.036 508.45 845.635 514.12 840.263 518.189 827.918 505.356 819.889 489.15 810.388 474.182 805.895 467.043 804.964 466.272 799.901 470.19 796.813 460.357 797.786 450.255 799.531 440.087Z" stroke="#2D3E50" stroke-width="6.94393" stroke-linejoin="round" stroke-miterlimit="10" fill="none" fill-rule="evenodd"/><path d="M838.689 338.046C845.371 331.751 850.396 324.93 847.713 315.252 847.188 313.363 847.231 310.866 849.647 310.149 851.194 309.973 852.691 310.449 853.804 311.462 855.465 312.913 858.047 314.883 857.906 316.773 856.319 336.953 871.24 348.005 878.404 363.321 886.568 380.688 895.096 397.856 898.067 417.631 889.973 418.92 887.247 412.689 884.878 407.085 880.186 396.055 872.007 387.637 866.738 377.115 865.139 373.911 862.312 371.618 858.893 370.747 852.408 366.407 857.032 355.606 849.491 351.962 843.902 349.459 839.922 344.334 838.689 338.046Z" stroke="#2D3E50" stroke-width="6.94393" stroke-linejoin="round" stroke-miterlimit="10" fill="none" fill-rule="evenodd"/><path d="M1108.37 395.918C1116.14 379.28 1131.92 370.823 1143.95 358.606 1147.72 354.741 1151.9 350.857 1157.75 352.148 1164.69 358.973 1166.2 367.562 1163.43 377.578 1157.07 376.097 1152.91 380.783 1148.75 384.694 1141.79 391.243 1135.18 398.169 1128.43 404.909 1121.46 402.407 1114.18 400.632 1108.37 395.918Z" stroke="#2D3E50" stroke-width="6.94393" stroke-linejoin="round" stroke-miterlimit="10" fill="none" fill-rule="evenodd"/><path d="M901.934 455.323C903.885 466.07 900.809 476.863 899.448 487.635 890.953 490.168 889.59 483.89 887.936 477.965 888.835 473.258 886.371 470.347 883.472 467.628 869.869 455.1 864.162 437.844 859.735 419.835 858.224 414.071 857.273 407.899 861.761 402.113 866.549 399.55 869.57 402.403 871.544 405.727 881.337 422.392 893.999 437.224 901.934 455.323Z" stroke="#2D3E50" stroke-width="6.94393" stroke-linejoin="round" stroke-miterlimit="10" fill="none" fill-rule="evenodd"/><path d="M901.934 455.323C889.489 443.158 882.445 426.726 872.495 412.524 869.634 408.458 868.06 403.264 862.32 402.356 856.506 392.291 854.145 381.738 860.1 369.688 864.222 365.7 865.81 369.695 867.247 372.003 873.828 382.5 880.596 392.861 886.244 403.863 889.237 409.589 892.256 414.667 898.012 417.527 900.661 429.802 903.423 442.11 901.934 455.323Z" stroke="#2D3E50" stroke-width="6.94393" stroke-linejoin="round" stroke-miterlimit="10" fill="none" fill-rule="evenodd"/><path d="M1040.29 310.776C1036.48 321.262 1024.03 323.947 1020.1 334.25L973.418 328.223C970.422 322.997 972.465 318.752 976.712 315.197 980.959 311.643 984.239 307.241 988.876 304.416 1006.51 303.948 1022.75 310.625 1040.29 310.776Z" stroke="#2D3E50" stroke-width="6.94393" stroke-linejoin="round" stroke-miterlimit="10" fill="none" fill-rule="evenodd"/><path d="M834.21 415.207C826.288 404.608 822.684 390.461 810.444 383.412 813.903 374.123 818.441 365.226 823.948 356.932 824.996 356.089 826.282 355.671 827.541 355.766 829.094 355.883 830.44 356.77 831.165 358.152 839.443 372.552 850.94 384.846 854.817 402.089 851.278 412.471 844.151 416.508 834.21 415.207Z" stroke="#2D3E50" stroke-width="6.94393" stroke-linejoin="round" stroke-miterlimit="10" fill="none" fill-rule="evenodd"/><path d="M889.174 476.859C891.399 481.677 893.566 486.566 899.448 487.635 897.919 497.794 897.147 508.136 890.277 516.942L888.765 516.078C874.254 501.832 863.106 485.314 857.94 464.474 856.016 457.089 856.394 449.063 859.018 441.506 859.861 439.07 863.102 434.615 864.63 438.53 870.327 453.16 882.335 463.017 889.174 476.859Z" stroke="#2D3E50" stroke-width="6.94393" stroke-linejoin="round" stroke-miterlimit="10" fill="none" fill-rule="evenodd"/><path d="M628.209 234.646C638.894 245.853 642.65 260.736 645.781 275.973 634.159 275.095 622.562 274.044 610.914 273.339 604.821 273.029 603.902 270.759 606.705 264.946 612.003 253.639 619.309 243.341 628.209 234.646Z" stroke="#2D3E50" stroke-width="6.94393" stroke-linejoin="round" stroke-miterlimit="10" fill="none" fill-rule="evenodd"/><path d="M890.277 516.942C888.053 527.144 882.421 536.486 874.42 543.244 867.887 532.901 863.046 521.435 855.359 511.804 852.947 508.697 850.078 509.105 847.504 507.711 847.411 499.479 850.915 491.694 852.32 483.625 852.708 480.197 855.425 477.322 858.717 476.858 862.013 476.457 863.098 479.364 864.263 481.902 870.093 495.967 880.2 506.431 890.168 517.034L890.277 516.942Z" stroke="#2D3E50" stroke-width="6.94393" stroke-linejoin="round" stroke-miterlimit="10" fill="none" fill-rule="evenodd"/><path d="M988.903 304.393C987.477 309.285 985.088 313.93 980.28 315.992 974.554 318.309 974.162 323.28 973.418 328.223 963.65 326.886 957.187 320.022 949.971 314.377 942.216 308.721 934.805 302.597 927.774 296.025 948.456 297.888 969.09 298.972 988.903 304.393Z" stroke="#2D3E50" stroke-width="6.94393" stroke-linejoin="round" stroke-miterlimit="10" fill="none" fill-rule="evenodd"/><path d="M852.912 401.62C843.98 386.195 838.078 368.499 823.948 356.932L838.689 338.046C843.722 340.651 844.61 348.343 851.317 348.999 856.587 363.623 857.719 379.333 858.464 395.089 858.644 398.003 860.211 404.346 852.912 401.62Z" stroke="#2D3E50" stroke-width="6.94393" stroke-linejoin="round" stroke-miterlimit="10" fill="none" fill-rule="evenodd"/><path d="M848.672 508.799C850.866 508.14 852.536 503.366 855.375 507.431 863.085 518.488 873.189 528.026 874.353 543.214 869.512 549.448 863.719 553.786 856.023 554.329 854.84 541.165 845.758 533.054 839.285 523.265 843.648 519.095 843.29 511.993 848.672 508.799Z" stroke="#2D3E50" stroke-width="6.94393" stroke-linejoin="round" stroke-miterlimit="10" fill="none" fill-rule="evenodd"/><path d="M1027.16 334.783C1031.03 335.65 1035.88 333.767 1038.55 338.144 1034.65 337.199 1029.82 339.084 1027.16 334.783Z" stroke="#2D3E50" stroke-width="6.94393" stroke-linejoin="round" stroke-miterlimit="10" fill="none" fill-rule="evenodd"/><path d="M675.702 440.733C655.816 446.381 635.47 451.294 617.496 463.836L616.403 465.253C609.544 469.56 601.926 472.109 595.159 476.598 577.794 486.361 560.493 496.179 544.461 508.468 543.607 509.239 542.706 509.948 541.762 510.589 516.263 528.675 492.263 549.085 470.075 571.549 462.664 578.739 456.944 587.806 448.125 593.44L437.411 601.381C441.644 590.651 447.724 585.035 452.721 578.713L483.738 546.231 520.429 516.678C485.679 518.328 456.011 509.137 430.756 487.229 432.171 481.936 434.322 482.823 437.349 485.477 461.15 506.45 489.68 512.93 521.794 509.356 528.449 508.644 534.937 505.996 540.504 501.719 552.091 493.345 564.144 485.68 578.04 476.355 547.969 479.633 524.08 471.254 501.728 457.565 499.903 452.778 492.511 453.194 492.276 446.851 494.998 443.632 496.918 446.052 498.346 447.31 524.007 470.473 555.523 475.454 589.484 469.72 600.372 467.892 610.871 460.11 621.404 454.631 625.448 452.586 629.236 450.023 633.73 449.887 656.059 440.974 678.249 431.401 701.425 426.976L702.334 430.42 675.702 440.733Z" stroke="#2D3E50" stroke-width="6.94393" stroke-linejoin="round" stroke-miterlimit="10" fill="none" fill-rule="evenodd"/><path d="M1163.48 377.581C1163.37 368.523 1160.48 360.38 1157.79 352.152 1152.3 339.512 1145.62 327.882 1134.03 320.356 1135.29 315.452 1133.66 314.278 1128.79 314.711 1108.48 316.111 1088.22 320.558 1068.64 327.917 1065.2 322.657 1065.13 322.327 1071.38 320.624 1083.97 317.175 1096.65 314.183 1109.29 310.988 1139.54 309.198 1169.96 308.946 1195.81 284.699 1207.15 274.055 1214.73 260.804 1223.46 246.788 1226.74 253.261 1220.61 257.197 1221.31 261.85 1208.64 278.393 1195.65 294.912 1175.63 304.324 1219.1 315.883 1246.46 301.375 1272.89 258.922 1273.51 257.944 1274.09 246.163 1279.33 256.258 1267.37 280.555 1249.36 298.394 1224.03 310.655L1273.95 323.427C1284.06 328.016 1295.36 330.294 1304.41 336.877L1303.23 339.789 1275.19 331.02C1262.1 332.306 1251.17 325.406 1238.89 323.528 1231.91 322.451 1225.19 320.768 1218.17 320.188 1193.55 311.453 1166.63 318.444 1143.07 315.789 1152.38 324.868 1162.36 336.071 1164.85 352.685 1165.73 365.501 1170.3 377.821 1167.95 392.919 1161.26 388.064 1162.74 382.525 1163.48 377.581Z" stroke="#2D3E50" stroke-width="6.94393" stroke-linejoin="round" stroke-miterlimit="10" fill="none" fill-rule="evenodd"/><path d="M1217.86 316.689C1237.8 318.373 1257.13 323.203 1275.19 331.02 1267.11 344.66 1253.08 351.4 1242.47 362.148 1240.47 364.198 1238.35 366.137 1236.29 368.107 1232.93 368.953 1232.34 366.208 1231.84 364.045 1228.44 349.013 1220.6 336.596 1212.79 324.107 1212.56 320.264 1214.74 318.154 1217.86 316.689Z" stroke="#2D3E50" stroke-width="6.94393" stroke-linejoin="round" stroke-miterlimit="10" fill="none" fill-rule="evenodd"/><path d="M1214.39 323.927C1225.77 336.212 1231.27 352.002 1236.3 368.082 1236.56 373.752 1236.75 379.417 1237.14 385.071 1237.32 387.81 1238.72 391.49 1234.73 392.089 1229.52 392.87 1231.29 388.229 1231.41 385.188 1231.47 383.567 1231.9 381.925 1231.99 380.232 1232.53 369.722 1226.61 361.625 1224.32 352.152 1221.59 339.646 1213.47 331.333 1204.89 323.185 1203.9 321.085 1198.77 322.073 1200.96 317.663 1202.74 314.222 1205.46 315.153 1208 316.144 1211.58 317.49 1212.95 320.669 1214.39 323.927Z" stroke="#2D3E50" stroke-width="6.94393" stroke-linejoin="round" stroke-miterlimit="10" fill="none" fill-rule="evenodd"/><path d="M541.825 508.119C557.556 493.558 576.001 484.051 594.461 474.596 603.415 472.022 609.695 474.246 611.88 483.911 609.261 503.838 604.655 523.84 608.759 543.675 608.99 545.253 608.397 546.92 607.195 548.057 583.984 544.179 560.448 540.726 538.244 532.849 534.13 524.138 543.843 516.522 541.825 508.119Z" stroke="#2D3E50" stroke-width="6.94393" stroke-linejoin="round" stroke-miterlimit="10" fill="none" fill-rule="evenodd"/><path d="M541.825 508.119C546.016 508.886 546.239 511.353 544.625 515.281 542.233 521.05 540.294 526.979 538.174 532.843 535.854 552.043 529.206 571.541 536.554 590.221 534.43 600.06 541.815 606.643 542.243 615.651L537.538 615.295C528.73 606.63 528.265 594.069 525.524 582.562 524.164 563.785 524.026 545.1 531.147 526.413 533.738 519.633 536.465 513.214 541.778 508.116L541.825 508.119Z" stroke="#2D3E50" stroke-width="6.94393" stroke-linejoin="round" stroke-miterlimit="10" fill="none" fill-rule="evenodd"/><path d="M607.195 548.057C602.507 526.728 605.99 505.016 609.813 483.255 610.87 476.235 611.043 468.923 617.496 463.836 617.63 463.833 617.763 463.836 617.895 463.846 620.268 464.025 621.914 466.227 621.539 468.721 621.518 468.859 621.49 468.997 621.457 469.135 615.816 480.764 612.322 493.24 611.169 505.857 608.244 525.286 608.892 544.06 617.098 561.305 617.466 564.233 620.143 567.16 615.672 570.772 610.896 563.936 610.165 555.356 607.195 548.057Z" stroke="#2D3E50" stroke-width="6.94393" stroke-linejoin="round" stroke-miterlimit="10" fill="none" fill-rule="evenodd"/><path d="M528.052 584.578 537.702 615.307C507.813 608.374 477.416 602.603 448.18 593.544 453.191 584.123 461.377 577.642 468.512 570.081 489.063 572.183 509.508 575.152 528.052 584.578Z" stroke="#2D3E50" stroke-width="6.94393" stroke-linejoin="round" stroke-miterlimit="10" fill="none" fill-rule="evenodd"/><path d="M1035.73 230.431C1031.76 217.306 1024 207.97 1011.22 203.58 1001.81 197.194 993.314 196.077 983.114 206.456 971.701 218.094 958.724 228.114 946.471 238.688 943.155 237.963 941.285 236.472 944.545 232.993 947.382 229.957 950.424 227.137 953.386 224.211 965.228 210.355 982.834 204.21 994.26 189.798 1027.46 172.182 1042.24 141.499 1051.91 107.154 1053.08 103.017 1053.08 103.017 1057.43 102.096 1054.08 124.343 1044.63 144.154 1030.87 164.914 1051.88 159.376 1065.53 147.383 1076.38 130.202 1087.1 113.582 1094.42 95.0353 1097.81 75.847 1102.9 78.731 1100.17 82.4748 1100.45 85.3709 1096.59 106.904 1086.04 125.582 1071.84 145.334L1117.61 129.117C1125.17 128.238 1132.72 125.134 1143.69 126.713 1132.23 133.346 1122.78 133.183 1114.16 136.406 1097.95 147.307 1079.11 149.683 1063.53 158.607 1074.1 162.73 1086.41 167.385 1090.63 182.053 1092.98 188.106 1096.96 193.557 1096.43 201.517 1090.23 200.823 1090.84 195.369 1089.04 191.934 1082.71 179.355 1074.44 169.131 1059.46 167.199 1039.36 164.756 1026.2 180.761 1009 190.337 1019.02 198.744 1031.96 202.072 1035.52 215.39 1037.36 220.079 1039.3 224.726 1041.01 229.505 1041.74 231.585 1042.88 234.447 1039.12 235.088 1035.94 235.672 1035.71 232.93 1035.73 230.431Z" stroke="#2D3E50" stroke-width="6.94393" stroke-linejoin="round" stroke-miterlimit="10" fill="none" fill-rule="evenodd"/><path d="M1090.6 182.077C1082 172.352 1073.37 162.675 1059.18 160.028 1076.85 147.788 1095.48 142.095 1114.13 136.429 1108.02 152.493 1101.78 168.521 1090.6 182.077Z" stroke="#2D3E50" stroke-width="6.94393" stroke-linejoin="round" stroke-miterlimit="10" fill="none" fill-rule="evenodd"/><path d="M1214.39 323.927C1212.08 322.028 1209.84 320.033 1207.47 318.204 1205.96 317.016 1203.81 315.953 1202.67 318.517 1202.21 319.657 1204.07 321.648 1204.88 323.259 1189.09 325.216 1181.1 340.188 1169.05 348.352 1167.52 349.654 1166.11 351.105 1164.85 352.685 1156.15 340.152 1151.39 324.643 1138.73 314.712 1165.76 313.478 1192.52 308.601 1217.91 316.668L1214.39 323.927Z" stroke="#2D3E50" stroke-width="6.94393" stroke-linejoin="round" stroke-miterlimit="10" fill="none" fill-rule="evenodd"/><path d="M1035.61 215.422C1026.88 207.537 1019.66 197.792 1006.94 195.331 1001.58 194.276 1004.94 190.43 1007.52 188.475 1020.5 178.908 1034.13 170.395 1048.26 163.028 1053.25 160.38 1055.72 165.816 1059.52 167.229 1054 184.461 1047.47 201.318 1035.61 215.422Z" stroke="#2D3E50" stroke-width="6.94393" stroke-linejoin="round" stroke-miterlimit="10" fill="none" fill-rule="evenodd"/><path d="M848.673 508.799C846.802 514.433 846.79 521.307 839.382 523.097 837 521.217 839.724 519.723 840.126 518.153L845.084 501.028C845.361 490.024 847.703 479.051 849.209 466.515 836.11 474.5 823.947 471.681 811.922 468.423 816.75 459.588 823.41 466.241 829.135 464.723 837.58 464.736 844.2 460.436 849.818 453.786 856.272 440.624 853.314 427.4 853.829 412.289 845.958 421.419 837.102 421.45 828.38 422.167 823.463 421.795 818.229 421.95 815.089 414.038 822.2 417.7 828.241 415.031 834.206 415.082 841.007 411.47 850.052 411.454 852.908 401.494 860.338 399.556 856.248 393.847 855.995 390.628 854.986 376.626 853.031 362.904 851.312 348.874 860.659 352.38 854.865 363.842 860.099 369.538 858.961 380.727 861.574 391.349 862.318 402.205 860.117 427.414 869.466 447.345 884.841 464.232 891.657 471.747 892.316 471.796 889.172 476.709 878.427 465.897 868.753 454.291 862.454 437.34 855.769 461.036 864.552 477.299 873.902 493.58 878.695 501.892 887.747 506.726 890.276 516.792 874.245 509.006 867.426 492.816 858.19 474.668 854.415 488.358 851.573 498.543 848.673 508.799Z" stroke="#2D3E50" stroke-width="6.94393" stroke-linejoin="round" stroke-miterlimit="10" fill="none" fill-rule="evenodd"/><path d="M828.388 422.267C835.901 419.785 843.513 417.585 850.402 413.08 852.647 411.6 856.36 408.905 856.458 413.788 856.759 426.485 859.938 439.35 852.902 451.944 852.384 452.855 850.875 453.241 849.826 453.887 843.937 442.267 841.017 428.471 828.388 422.267Z" stroke="#2D3E50" stroke-width="6.94393" stroke-linejoin="round" stroke-miterlimit="10" fill="none" fill-rule="evenodd"/><path d="M811.929 468.373C835.404 470.497 835.404 470.497 853.652 459.925 850.515 474.438 852.026 488.102 845.091 500.978 840.345 494.57 833.821 489.227 831.699 481.192 828.827 470.4 817.938 473.503 811.929 468.373Z" stroke="#2D3E50" stroke-width="6.94393" stroke-linejoin="round" stroke-miterlimit="10" fill="none" fill-rule="evenodd"/><path d="M528.052 584.578C507.885 580.555 487.281 578.173 468.371 570.07 490.775 546.587 514.728 525.147 541.942 508.128 529.613 532.646 527.122 558.358 528.052 584.578Z" stroke="#2D3E50" stroke-width="6.94393" stroke-linejoin="round" stroke-miterlimit="10" fill="none" fill-rule="evenodd"/><path d="M617.496 463.836C615.244 470.416 614.254 477.466 609.813 483.255 606.992 476.392 600.405 476.045 594.461 474.596 601.254 469.019 609.206 465.305 617.496 463.836Z" stroke="#2D3E50" stroke-width="6.94393" stroke-linejoin="round" stroke-miterlimit="10" fill="none" fill-rule="evenodd"/><path d="M987.395 799.043C986.273 799.029 985.21 799.472 984.409 800.262 983.608 801.065 983.17 802.131 983.17 803.253 983.17 873.823 983.17 1807.41 983.17 2113.55 983.17 2139.14 993.339 2163.68 1011.43 2181.78 1029.53 2199.88 1054.06 2210.04 1079.65 2210.04 1290.61 2210.04 1774.17 2210.04 1774.17 2210.04L1774.17 875.969C1774.17 835.145 1741.16 802.007 1700.34 801.854L987.395 799.043Z" stroke="#2D3E50" stroke-width="19.2796" stroke-linecap="round" stroke-linejoin="round" stroke-miterlimit="10" fill="none" fill-rule="evenodd"/><path d="M984.167 1132.08 1775.17 1132.08" stroke="#2D3E50" stroke-width="19.1176" stroke-linecap="round" stroke-linejoin="round" stroke-miterlimit="10" fill="none" fill-rule="evenodd"/><path d="M1824.56 799.043C1823.44 799.029 1822.37 799.472 1821.57 800.262 1820.77 801.065 1820.33 802.131 1820.33 803.253 1820.33 873.823 1820.33 1807.41 1820.33 2113.55 1820.33 2139.14 1830.5 2163.68 1848.6 2181.78 1866.69 2199.88 1891.22 2210.04 1916.82 2210.04 2127.77 2210.04 2611.33 2210.04 2611.33 2210.04L2611.33 875.969C2611.33 835.145 2578.32 802.007 2537.5 801.854L1824.56 799.043Z" stroke="#2D3E50" stroke-width="19.2796" stroke-linecap="round" stroke-linejoin="round" stroke-miterlimit="10" fill="none" fill-rule="evenodd"/><path d="M1815.33 1132.08 2606.33 1132.08" stroke="#2D3E50" stroke-width="19.1176" stroke-linecap="round" stroke-linejoin="round" stroke-miterlimit="10" fill="none" fill-rule="evenodd"/><path d="M2660.72 799.043C2659.6 799.029 2658.54 799.472 2657.74 800.262 2656.94 801.065 2656.5 802.131 2656.5 803.253 2656.5 873.823 2656.5 1807.41 2656.5 2113.55 2656.5 2139.14 2666.67 2163.68 2684.76 2181.78 2702.85 2199.88 2727.39 2210.04 2752.98 2210.04 2963.94 2210.04 3447.5 2210.04 3447.5 2210.04L3447.5 875.969C3447.5 835.145 3414.49 802.007 3373.67 801.854L2660.72 799.043Z" stroke="#2D3E50" stroke-width="19.2796" stroke-linecap="round" stroke-linejoin="round" stroke-miterlimit="10" fill="none" fill-rule="evenodd"/><path d="M3497.88 799.043C3496.76 799.029 3495.7 799.472 3494.9 800.262 3494.1 801.065 3493.66 802.131 3493.66 803.253 3493.66 873.823 3493.66 1807.41 3493.66 2113.55 3493.66 2139.14 3503.83 2163.68 3521.92 2181.78 3540.01 2199.88 3564.55 2210.04 3590.14 2210.04 3801.1 2210.04 4284.66 2210.04 4284.66 2210.04L4284.66 875.969C4284.66 835.145 4251.65 802.007 4210.83 801.854L3497.88 799.043Z" stroke="#2D3E50" stroke-width="19.2796" stroke-linecap="round" stroke-linejoin="round" stroke-miterlimit="10" fill="none" fill-rule="evenodd"/><path d="M3494.66 1132.08 4285.66 1132.08" stroke="#2D3E50" stroke-width="19.1176" stroke-linecap="round" stroke-linejoin="round" stroke-miterlimit="10" fill="none" fill-rule="evenodd"/><path d="M987.992 747.993C1190.92 628.916 1498.94 507.993 1782.49 548.115 2064.15 588.238 2364.28 516.868 2618.46 406.482 2732.07 480.812 3004.36 560.689 3385.06 582.321 3637.53 596.559 4046.48 666.266 4284.99 766.482" stroke="#2D3E50" stroke-width="6.67543" stroke-linecap="round" stroke-linejoin="round" stroke-miterlimit="10" fill="none" fill-rule="evenodd"/><text fill="#2D3E50" font-family="Avenir Next LT Pro Demi,Avenir Next LT Pro Demi_MSFontService,sans-serif" font-weight="600" font-size="128" transform="matrix(1 0 0 1 163.954 995)">Protocol REF<tspan font-family="Avenir Next LT Pro,Avenir Next LT Pro_MSFontService,sans-serif" font-style="italic" font-weight="700" font-size="128" x="13.3906" y="438">A. </tspan><tspan font-family="Avenir Next LT Pro,Avenir Next LT Pro_MSFontService,sans-serif" font-style="italic" font-weight="700" font-size="128" x="171.126" y="438">thaliana</tspan><tspan font-family="Avenir Next LT Pro,Avenir Next LT Pro_MSFontService,sans-serif" font-weight="700" font-size="128" x="13.3906" y="592">growth</tspan><tspan font-family="Avenir Next LT Pro,Avenir Next LT Pro_MSFontService,sans-serif" font-weight="700" font-size="128" x="13.3906" y="746">protocol.txt</tspan></text><path d="M152.396 791.043C151.273 791.029 150.21 791.472 149.409 792.262 148.608 793.065 148.171 794.131 148.171 795.253 148.171 865.823 148.171 1799.41 148.171 2105.55 148.171 2131.14 158.339 2155.68 176.432 2173.78 194.525 2191.88 219.057 2202.04 244.653 2202.04 455.609 2202.04 939.171 2202.04 939.171 2202.04L939.171 867.969C939.171 827.145 906.16 794.007 865.341 793.854L152.396 791.043Z" stroke="#2D3E50" stroke-width="19.2796" stroke-linecap="round" stroke-linejoin="round" stroke-miterlimit="10" fill="none" fill-rule="evenodd"/><path d="M149.167 1124.08 940.167 1124.08" stroke="#2D3E50" stroke-width="19.1176" stroke-linecap="round" stroke-linejoin="round" stroke-miterlimit="10" fill="none" fill-rule="evenodd"/><path d="M2656.66 1128.29 3447.66 1128.29" stroke="#2D3E50" stroke-width="19.1176" stroke-linecap="round" stroke-linejoin="round" stroke-miterlimit="10" fill="none" fill-rule="evenodd"/></g></svg>