<?xml version="1.0" encoding="UTF-8" standalone="no"?>
<!DOCTYPE svg PUBLIC "-//W3C//DTD SVG 1.1//EN" "http://www.w3.org/Graphics/SVG/1.1/DTD/svg11.dtd">
<svg width="100%" height="100%" viewBox="0 0 2317 1060" version="1.1" xmlns="http://www.w3.org/2000/svg" xmlns:xlink="http://www.w3.org/1999/xlink" xml:space="preserve" xmlns:serif="http://www.serif.com/" style="fill-rule:evenodd;clip-rule:evenodd;stroke-linecap:round;stroke-linejoin:round;stroke-miterlimit:1.5;">
    <g transform="matrix(1,0,0,1,-5456.27,-1109.78)">
        <g id="Sample-Name" serif:id="Sample Name" transform="matrix(1,0,0,1,4903.57,-256.462)">
            <g transform="matrix(1,0,0,1,-362.181,353.987)">
                <g transform="matrix(100,0,0,100,1618.03,1571.24)">
                    <path d="M0.544,-0.15L0.219,-0.15L0.157,-0L-0.009,-0L0.303,-0.7L0.463,-0.7L0.776,-0L0.606,-0L0.544,-0.15ZM0.493,-0.273L0.382,-0.541L0.271,-0.273L0.493,-0.273Z" style="fill:white;fill-rule:nonzero;"/>
                </g>
                <g transform="matrix(100,0,0,100,1694.63,1571.24)">
                    <path d="M0.399,-0.546C0.466,-0.546 0.52,-0.526 0.561,-0.486C0.602,-0.446 0.622,-0.387 0.622,-0.308L0.622,-0L0.466,-0L0.466,-0.284C0.466,-0.327 0.457,-0.359 0.438,-0.38C0.419,-0.401 0.392,-0.411 0.357,-0.411C0.318,-0.411 0.286,-0.399 0.263,-0.375C0.24,-0.35 0.228,-0.314 0.228,-0.266L0.228,-0L0.072,-0L0.072,-0.538L0.221,-0.538L0.221,-0.475C0.242,-0.498 0.267,-0.515 0.298,-0.528C0.329,-0.54 0.362,-0.546 0.399,-0.546Z" style="fill:white;fill-rule:nonzero;"/>
                </g>
                <g transform="matrix(100,0,0,100,1763.73,1571.24)">
                    <path d="M0.399,-0.546C0.466,-0.546 0.52,-0.526 0.561,-0.486C0.602,-0.446 0.622,-0.387 0.622,-0.308L0.622,-0L0.466,-0L0.466,-0.284C0.466,-0.327 0.457,-0.359 0.438,-0.38C0.419,-0.401 0.392,-0.411 0.357,-0.411C0.318,-0.411 0.286,-0.399 0.263,-0.375C0.24,-0.35 0.228,-0.314 0.228,-0.266L0.228,-0L0.072,-0L0.072,-0.538L0.221,-0.538L0.221,-0.475C0.242,-0.498 0.267,-0.515 0.298,-0.528C0.329,-0.54 0.362,-0.546 0.399,-0.546Z" style="fill:white;fill-rule:nonzero;"/>
                </g>
                <g transform="matrix(100,0,0,100,1833.43,1571.24)">
                    <path d="M0.328,0.008C0.271,0.008 0.221,-0.004 0.175,-0.028C0.131,-0.051 0.095,-0.084 0.07,-0.126C0.045,-0.168 0.032,-0.216 0.032,-0.269C0.032,-0.322 0.045,-0.37 0.07,-0.412C0.095,-0.454 0.131,-0.487 0.175,-0.51C0.221,-0.534 0.271,-0.546 0.328,-0.546C0.385,-0.546 0.435,-0.534 0.48,-0.51C0.525,-0.487 0.56,-0.454 0.585,-0.412C0.61,-0.37 0.623,-0.322 0.623,-0.269C0.623,-0.216 0.61,-0.168 0.585,-0.126C0.56,-0.084 0.525,-0.051 0.48,-0.028C0.435,-0.004 0.385,0.008 0.328,0.008ZM0.328,-0.12C0.368,-0.12 0.401,-0.134 0.427,-0.161C0.452,-0.188 0.465,-0.224 0.465,-0.269C0.465,-0.314 0.452,-0.35 0.427,-0.378C0.401,-0.405 0.368,-0.418 0.328,-0.418C0.288,-0.418 0.255,-0.405 0.229,-0.378C0.203,-0.35 0.19,-0.314 0.19,-0.269C0.19,-0.224 0.203,-0.188 0.229,-0.161C0.255,-0.134 0.288,-0.12 0.328,-0.12Z" style="fill:white;fill-rule:nonzero;"/>
                </g>
                <g transform="matrix(100,0,0,100,1898.93,1571.24)">
                    <path d="M0.419,-0.026C0.404,-0.015 0.385,-0.006 0.363,-0.001C0.34,0.005 0.317,0.008 0.292,0.008C0.228,0.008 0.179,-0.008 0.143,-0.041C0.109,-0.074 0.091,-0.122 0.091,-0.185L0.091,-0.406L0.008,-0.406L0.008,-0.526L0.091,-0.526L0.091,-0.657L0.247,-0.657L0.247,-0.526L0.381,-0.526L0.381,-0.406L0.247,-0.406L0.247,-0.187C0.247,-0.164 0.253,-0.147 0.265,-0.135C0.276,-0.122 0.293,-0.116 0.314,-0.116C0.339,-0.116 0.36,-0.123 0.377,-0.136L0.419,-0.026Z" style="fill:white;fill-rule:nonzero;"/>
                </g>
                <g transform="matrix(100,0,0,100,1942.43,1571.24)">
                    <path d="M0.289,-0.546C0.372,-0.546 0.436,-0.526 0.481,-0.487C0.526,-0.447 0.548,-0.387 0.548,-0.307L0.548,-0L0.402,-0L0.402,-0.067C0.373,-0.017 0.318,0.008 0.238,0.008C0.197,0.008 0.161,0.001 0.131,-0.013C0.1,-0.027 0.077,-0.046 0.061,-0.071C0.045,-0.096 0.037,-0.124 0.037,-0.155C0.037,-0.205 0.056,-0.244 0.094,-0.273C0.131,-0.302 0.189,-0.316 0.268,-0.316L0.392,-0.316C0.392,-0.35 0.382,-0.376 0.361,-0.395C0.34,-0.413 0.309,-0.422 0.268,-0.422C0.239,-0.422 0.211,-0.418 0.184,-0.408C0.156,-0.4 0.132,-0.387 0.113,-0.372L0.057,-0.481C0.086,-0.502 0.122,-0.518 0.163,-0.529C0.203,-0.54 0.246,-0.546 0.289,-0.546ZM0.277,-0.097C0.304,-0.097 0.327,-0.103 0.348,-0.116C0.369,-0.128 0.383,-0.146 0.392,-0.17L0.392,-0.225L0.285,-0.225C0.221,-0.225 0.189,-0.204 0.189,-0.162C0.189,-0.142 0.197,-0.126 0.213,-0.115C0.228,-0.103 0.25,-0.097 0.277,-0.097Z" style="fill:white;fill-rule:nonzero;"/>
                </g>
                <g transform="matrix(100,0,0,100,2004.13,1571.24)">
                    <path d="M0.419,-0.026C0.404,-0.015 0.385,-0.006 0.363,-0.001C0.34,0.005 0.317,0.008 0.292,0.008C0.228,0.008 0.179,-0.008 0.143,-0.041C0.109,-0.074 0.091,-0.122 0.091,-0.185L0.091,-0.406L0.008,-0.406L0.008,-0.526L0.091,-0.526L0.091,-0.657L0.247,-0.657L0.247,-0.526L0.381,-0.526L0.381,-0.406L0.247,-0.406L0.247,-0.187C0.247,-0.164 0.253,-0.147 0.265,-0.135C0.276,-0.122 0.293,-0.116 0.314,-0.116C0.339,-0.116 0.36,-0.123 0.377,-0.136L0.419,-0.026Z" style="fill:white;fill-rule:nonzero;"/>
                </g>
                <g transform="matrix(100,0,0,100,2045.93,1571.24)">
                    <path d="M0.599,-0.267C0.599,-0.265 0.598,-0.251 0.596,-0.225L0.189,-0.225C0.196,-0.192 0.214,-0.165 0.241,-0.146C0.268,-0.127 0.302,-0.117 0.343,-0.117C0.371,-0.117 0.396,-0.121 0.418,-0.13C0.439,-0.138 0.459,-0.151 0.478,-0.169L0.561,-0.079C0.51,-0.021 0.436,0.008 0.339,0.008C0.278,0.008 0.225,-0.004 0.178,-0.028C0.131,-0.051 0.095,-0.084 0.07,-0.126C0.045,-0.168 0.032,-0.216 0.032,-0.269C0.032,-0.322 0.045,-0.369 0.07,-0.411C0.095,-0.454 0.129,-0.487 0.172,-0.51C0.216,-0.534 0.265,-0.546 0.319,-0.546C0.372,-0.546 0.419,-0.535 0.462,-0.512C0.505,-0.489 0.538,-0.457 0.563,-0.414C0.587,-0.372 0.599,-0.323 0.599,-0.267ZM0.32,-0.428C0.285,-0.428 0.255,-0.418 0.231,-0.398C0.207,-0.378 0.192,-0.351 0.187,-0.316L0.452,-0.316C0.447,-0.35 0.432,-0.377 0.408,-0.398C0.384,-0.418 0.355,-0.428 0.32,-0.428Z" style="fill:white;fill-rule:nonzero;"/>
                </g>
                <g transform="matrix(100,0,0,100,2109.03,1571.24)">
                    <path d="M0.62,-0.742L0.62,-0L0.471,-0L0.471,-0.062C0.432,-0.015 0.376,0.008 0.303,0.008C0.252,0.008 0.206,-0.003 0.166,-0.026C0.125,-0.049 0.092,-0.081 0.069,-0.123C0.046,-0.165 0.034,-0.214 0.034,-0.269C0.034,-0.324 0.046,-0.373 0.069,-0.415C0.092,-0.457 0.125,-0.489 0.166,-0.512C0.206,-0.535 0.252,-0.546 0.303,-0.546C0.372,-0.546 0.425,-0.524 0.464,-0.481L0.464,-0.742L0.62,-0.742ZM0.33,-0.12C0.369,-0.12 0.402,-0.134 0.428,-0.161C0.454,-0.188 0.467,-0.224 0.467,-0.269C0.467,-0.314 0.454,-0.35 0.428,-0.378C0.402,-0.405 0.369,-0.418 0.33,-0.418C0.29,-0.418 0.257,-0.405 0.231,-0.378C0.205,-0.35 0.192,-0.314 0.192,-0.269C0.192,-0.224 0.205,-0.188 0.231,-0.161C0.257,-0.134 0.29,-0.12 0.33,-0.12Z" style="fill:white;fill-rule:nonzero;"/>
                </g>
                <g transform="matrix(100,0,0,100,1651.68,1671.24)">
                    <path d="M0.936,-0.538L0.741,-0L0.591,-0L0.47,-0.334L0.345,-0L0.195,-0L0.001,-0.538L0.148,-0.538L0.275,-0.174L0.407,-0.538L0.539,-0.538L0.667,-0.174L0.798,-0.538L0.936,-0.538Z" style="fill:white;fill-rule:nonzero;"/>
                </g>
                <g transform="matrix(100,0,0,100,1743.88,1671.24)">
                    <path d="M0.328,0.008C0.271,0.008 0.221,-0.004 0.175,-0.028C0.131,-0.051 0.095,-0.084 0.07,-0.126C0.045,-0.168 0.032,-0.216 0.032,-0.269C0.032,-0.322 0.045,-0.37 0.07,-0.412C0.095,-0.454 0.131,-0.487 0.175,-0.51C0.221,-0.534 0.271,-0.546 0.328,-0.546C0.385,-0.546 0.435,-0.534 0.48,-0.51C0.525,-0.487 0.56,-0.454 0.585,-0.412C0.61,-0.37 0.623,-0.322 0.623,-0.269C0.623,-0.216 0.61,-0.168 0.585,-0.126C0.56,-0.084 0.525,-0.051 0.48,-0.028C0.435,-0.004 0.385,0.008 0.328,0.008ZM0.328,-0.12C0.368,-0.12 0.401,-0.134 0.427,-0.161C0.452,-0.188 0.465,-0.224 0.465,-0.269C0.465,-0.314 0.452,-0.35 0.427,-0.378C0.401,-0.405 0.368,-0.418 0.328,-0.418C0.288,-0.418 0.255,-0.405 0.229,-0.378C0.203,-0.35 0.19,-0.314 0.19,-0.269C0.19,-0.224 0.203,-0.188 0.229,-0.161C0.255,-0.134 0.288,-0.12 0.328,-0.12Z" style="fill:white;fill-rule:nonzero;"/>
                </g>
                <g transform="matrix(100,0,0,100,1809.38,1671.24)">
                    <path d="M0.221,-0.467C0.24,-0.493 0.265,-0.513 0.297,-0.526C0.328,-0.539 0.365,-0.546 0.406,-0.546L0.406,-0.402C0.389,-0.403 0.377,-0.404 0.371,-0.404C0.326,-0.404 0.291,-0.392 0.266,-0.367C0.241,-0.342 0.228,-0.304 0.228,-0.254L0.228,-0L0.072,-0L0.072,-0.538L0.221,-0.538L0.221,-0.467Z" style="fill:white;fill-rule:nonzero;"/>
                </g>
                <g transform="matrix(100,0,0,100,1852.08,1671.24)">
                    <path d="M0.303,-0.211L0.228,-0.137L0.228,-0L0.072,-0L0.072,-0.742L0.228,-0.742L0.228,-0.322L0.456,-0.538L0.642,-0.538L0.418,-0.31L0.662,-0L0.473,-0L0.303,-0.211Z" style="fill:white;fill-rule:nonzero;"/>
                </g>
                <g transform="matrix(100,0,0,100,1918.08,1671.24)">
                    <path d="M0.243,-0.526L0.381,-0.526L0.381,-0.406L0.247,-0.406L0.247,-0L0.091,-0L0.091,-0.406L0.008,-0.406L0.008,-0.526L0.091,-0.526L0.091,-0.55C0.091,-0.611 0.109,-0.66 0.146,-0.696C0.182,-0.732 0.233,-0.75 0.299,-0.75C0.322,-0.75 0.344,-0.748 0.366,-0.743C0.387,-0.738 0.404,-0.73 0.418,-0.721L0.377,-0.608C0.359,-0.621 0.338,-0.627 0.314,-0.627C0.267,-0.627 0.243,-0.601 0.243,-0.549L0.243,-0.526ZM0.459,-0.742L0.615,-0.742L0.615,-0L0.459,-0L0.459,-0.742Z" style="fill:white;fill-rule:nonzero;"/>
                </g>
                <g transform="matrix(100,0,0,100,1986.88,1671.24)">
                    <path d="M0.328,0.008C0.271,0.008 0.221,-0.004 0.175,-0.028C0.131,-0.051 0.095,-0.084 0.07,-0.126C0.045,-0.168 0.032,-0.216 0.032,-0.269C0.032,-0.322 0.045,-0.37 0.07,-0.412C0.095,-0.454 0.131,-0.487 0.175,-0.51C0.221,-0.534 0.271,-0.546 0.328,-0.546C0.385,-0.546 0.435,-0.534 0.48,-0.51C0.525,-0.487 0.56,-0.454 0.585,-0.412C0.61,-0.37 0.623,-0.322 0.623,-0.269C0.623,-0.216 0.61,-0.168 0.585,-0.126C0.56,-0.084 0.525,-0.051 0.48,-0.028C0.435,-0.004 0.385,0.008 0.328,0.008ZM0.328,-0.12C0.368,-0.12 0.401,-0.134 0.427,-0.161C0.452,-0.188 0.465,-0.224 0.465,-0.269C0.465,-0.314 0.452,-0.35 0.427,-0.378C0.401,-0.405 0.368,-0.418 0.328,-0.418C0.288,-0.418 0.255,-0.405 0.229,-0.378C0.203,-0.35 0.19,-0.314 0.19,-0.269C0.19,-0.224 0.203,-0.188 0.229,-0.161C0.255,-0.134 0.288,-0.12 0.328,-0.12Z" style="fill:white;fill-rule:nonzero;"/>
                </g>
                <g transform="matrix(100,0,0,100,2050.88,1671.24)">
                    <path d="M0.936,-0.538L0.741,-0L0.591,-0L0.47,-0.334L0.345,-0L0.195,-0L0.001,-0.538L0.148,-0.538L0.275,-0.174L0.407,-0.538L0.539,-0.538L0.667,-0.174L0.798,-0.538L0.936,-0.538Z" style="fill:white;fill-rule:nonzero;"/>
                </g>
            </g>
            <g transform="matrix(1,0,0,1,561.284,-94.3996)">
                <g transform="matrix(100,0,0,100,1555.09,1571.24)">
                    <path d="M0.313,0.012C0.258,0.012 0.204,0.004 0.153,-0.011C0.101,-0.025 0.059,-0.045 0.028,-0.069L0.083,-0.191C0.113,-0.169 0.149,-0.151 0.19,-0.138C0.231,-0.125 0.273,-0.118 0.314,-0.118C0.36,-0.118 0.394,-0.125 0.416,-0.139C0.438,-0.152 0.449,-0.17 0.449,-0.193C0.449,-0.21 0.443,-0.224 0.43,-0.234C0.417,-0.246 0.4,-0.254 0.38,-0.261C0.359,-0.268 0.332,-0.275 0.297,-0.283C0.244,-0.296 0.2,-0.308 0.166,-0.321C0.132,-0.334 0.103,-0.354 0.079,-0.382C0.054,-0.41 0.042,-0.447 0.042,-0.494C0.042,-0.535 0.053,-0.572 0.075,-0.605C0.097,-0.637 0.13,-0.664 0.174,-0.683C0.219,-0.702 0.273,-0.712 0.337,-0.712C0.382,-0.712 0.425,-0.707 0.468,-0.696C0.511,-0.685 0.548,-0.67 0.58,-0.65L0.53,-0.527C0.465,-0.564 0.401,-0.582 0.336,-0.582C0.291,-0.582 0.257,-0.575 0.235,-0.56C0.214,-0.545 0.203,-0.526 0.203,-0.502C0.203,-0.478 0.216,-0.46 0.241,-0.449C0.266,-0.437 0.304,-0.425 0.355,-0.414C0.408,-0.401 0.452,-0.389 0.486,-0.376C0.52,-0.363 0.549,-0.343 0.574,-0.316C0.598,-0.289 0.61,-0.252 0.61,-0.205C0.61,-0.165 0.599,-0.129 0.577,-0.096C0.554,-0.063 0.521,-0.036 0.476,-0.017C0.431,0.002 0.377,0.012 0.313,0.012Z" style="fill:white;fill-rule:nonzero;"/>
                </g>
                <g transform="matrix(100,0,0,100,1618.89,1571.24)">
                    <path d="M0.289,-0.546C0.372,-0.546 0.436,-0.526 0.481,-0.487C0.526,-0.447 0.548,-0.387 0.548,-0.307L0.548,-0L0.402,-0L0.402,-0.067C0.373,-0.017 0.318,0.008 0.238,0.008C0.197,0.008 0.161,0.001 0.131,-0.013C0.1,-0.027 0.077,-0.046 0.061,-0.071C0.045,-0.096 0.037,-0.124 0.037,-0.155C0.037,-0.205 0.056,-0.244 0.094,-0.273C0.131,-0.302 0.189,-0.316 0.268,-0.316L0.392,-0.316C0.392,-0.35 0.382,-0.376 0.361,-0.395C0.34,-0.413 0.309,-0.422 0.268,-0.422C0.239,-0.422 0.211,-0.418 0.184,-0.408C0.156,-0.4 0.132,-0.387 0.113,-0.372L0.057,-0.481C0.086,-0.502 0.122,-0.518 0.163,-0.529C0.203,-0.54 0.246,-0.546 0.289,-0.546ZM0.277,-0.097C0.304,-0.097 0.327,-0.103 0.348,-0.116C0.369,-0.128 0.383,-0.146 0.392,-0.17L0.392,-0.225L0.285,-0.225C0.221,-0.225 0.189,-0.204 0.189,-0.162C0.189,-0.142 0.197,-0.126 0.213,-0.115C0.228,-0.103 0.25,-0.097 0.277,-0.097Z" style="fill:white;fill-rule:nonzero;"/>
                </g>
                <g transform="matrix(100,0,0,100,1680.59,1571.24)">
                    <path d="M0.761,-0.546C0.828,-0.546 0.882,-0.526 0.922,-0.487C0.961,-0.447 0.981,-0.387 0.981,-0.308L0.981,-0L0.825,-0L0.825,-0.284C0.825,-0.327 0.816,-0.359 0.799,-0.38C0.781,-0.401 0.756,-0.411 0.723,-0.411C0.686,-0.411 0.657,-0.399 0.636,-0.376C0.615,-0.352 0.604,-0.317 0.604,-0.27L0.604,-0L0.448,-0L0.448,-0.284C0.448,-0.369 0.414,-0.411 0.346,-0.411C0.31,-0.411 0.281,-0.399 0.26,-0.376C0.239,-0.352 0.228,-0.317 0.228,-0.27L0.228,-0L0.072,-0L0.072,-0.538L0.221,-0.538L0.221,-0.476C0.241,-0.499 0.266,-0.516 0.295,-0.528C0.324,-0.54 0.355,-0.546 0.39,-0.546C0.428,-0.546 0.462,-0.539 0.493,-0.524C0.524,-0.508 0.548,-0.487 0.567,-0.458C0.589,-0.486 0.617,-0.508 0.651,-0.523C0.684,-0.538 0.721,-0.546 0.761,-0.546Z" style="fill:white;fill-rule:nonzero;"/>
                </g>
                <g transform="matrix(100,0,0,100,1785.49,1571.24)">
                    <path d="M0.39,-0.546C0.44,-0.546 0.486,-0.535 0.527,-0.511C0.568,-0.489 0.6,-0.456 0.623,-0.414C0.646,-0.373 0.658,-0.324 0.658,-0.269C0.658,-0.214 0.646,-0.165 0.623,-0.124C0.6,-0.082 0.568,-0.05 0.527,-0.027C0.486,-0.004 0.44,0.008 0.39,0.008C0.321,0.008 0.267,-0.014 0.228,-0.057L0.228,0.194L0.072,0.194L0.072,-0.538L0.221,-0.538L0.221,-0.476C0.26,-0.523 0.316,-0.546 0.39,-0.546ZM0.363,-0.12C0.403,-0.12 0.436,-0.134 0.462,-0.161C0.487,-0.188 0.5,-0.224 0.5,-0.269C0.5,-0.314 0.487,-0.35 0.462,-0.378C0.436,-0.405 0.403,-0.418 0.363,-0.418C0.323,-0.418 0.29,-0.405 0.265,-0.378C0.239,-0.35 0.226,-0.314 0.226,-0.269C0.226,-0.224 0.239,-0.188 0.265,-0.161C0.29,-0.134 0.323,-0.12 0.363,-0.12Z" style="fill:white;fill-rule:nonzero;"/>
                </g>
                <g transform="matrix(100,0,0,100,1854.49,1571.24)">
                    <rect x="0.072" y="-0.742" width="0.156" height="0.742" style="fill:white;fill-rule:nonzero;"/>
                </g>
                <g transform="matrix(100,0,0,100,1884.59,1571.24)">
                    <path d="M0.599,-0.267C0.599,-0.265 0.598,-0.251 0.596,-0.225L0.189,-0.225C0.196,-0.192 0.214,-0.165 0.241,-0.146C0.268,-0.127 0.302,-0.117 0.343,-0.117C0.371,-0.117 0.396,-0.121 0.418,-0.13C0.439,-0.138 0.459,-0.151 0.478,-0.169L0.561,-0.079C0.51,-0.021 0.436,0.008 0.339,0.008C0.278,0.008 0.225,-0.004 0.178,-0.028C0.131,-0.051 0.095,-0.084 0.07,-0.126C0.045,-0.168 0.032,-0.216 0.032,-0.269C0.032,-0.322 0.045,-0.369 0.07,-0.411C0.095,-0.454 0.129,-0.487 0.172,-0.51C0.216,-0.534 0.265,-0.546 0.319,-0.546C0.372,-0.546 0.419,-0.535 0.462,-0.512C0.505,-0.489 0.538,-0.457 0.563,-0.414C0.587,-0.372 0.599,-0.323 0.599,-0.267ZM0.32,-0.428C0.285,-0.428 0.255,-0.418 0.231,-0.398C0.207,-0.378 0.192,-0.351 0.187,-0.316L0.452,-0.316C0.447,-0.35 0.432,-0.377 0.408,-0.398C0.384,-0.418 0.355,-0.428 0.32,-0.428Z" style="fill:white;fill-rule:nonzero;"/>
                </g>
                <g transform="matrix(100,0,0,100,1975.99,1571.24)">
                    <path d="M0.725,-0.7L0.725,-0L0.592,-0L0.243,-0.425L0.243,-0L0.083,-0L0.083,-0.7L0.217,-0.7L0.565,-0.275L0.565,-0.7L0.725,-0.7Z" style="fill:white;fill-rule:nonzero;"/>
                </g>
                <g transform="matrix(100,0,0,100,2056.79,1571.24)">
                    <path d="M0.289,-0.546C0.372,-0.546 0.436,-0.526 0.481,-0.487C0.526,-0.447 0.548,-0.387 0.548,-0.307L0.548,-0L0.402,-0L0.402,-0.067C0.373,-0.017 0.318,0.008 0.238,0.008C0.197,0.008 0.161,0.001 0.131,-0.013C0.1,-0.027 0.077,-0.046 0.061,-0.071C0.045,-0.096 0.037,-0.124 0.037,-0.155C0.037,-0.205 0.056,-0.244 0.094,-0.273C0.131,-0.302 0.189,-0.316 0.268,-0.316L0.392,-0.316C0.392,-0.35 0.382,-0.376 0.361,-0.395C0.34,-0.413 0.309,-0.422 0.268,-0.422C0.239,-0.422 0.211,-0.418 0.184,-0.408C0.156,-0.4 0.132,-0.387 0.113,-0.372L0.057,-0.481C0.086,-0.502 0.122,-0.518 0.163,-0.529C0.203,-0.54 0.246,-0.546 0.289,-0.546ZM0.277,-0.097C0.304,-0.097 0.327,-0.103 0.348,-0.116C0.369,-0.128 0.383,-0.146 0.392,-0.17L0.392,-0.225L0.285,-0.225C0.221,-0.225 0.189,-0.204 0.189,-0.162C0.189,-0.142 0.197,-0.126 0.213,-0.115C0.228,-0.103 0.25,-0.097 0.277,-0.097Z" style="fill:white;fill-rule:nonzero;"/>
                </g>
                <g transform="matrix(100,0,0,100,2118.49,1571.24)">
                    <path d="M0.761,-0.546C0.828,-0.546 0.882,-0.526 0.922,-0.487C0.961,-0.447 0.981,-0.387 0.981,-0.308L0.981,-0L0.825,-0L0.825,-0.284C0.825,-0.327 0.816,-0.359 0.799,-0.38C0.781,-0.401 0.756,-0.411 0.723,-0.411C0.686,-0.411 0.657,-0.399 0.636,-0.376C0.615,-0.352 0.604,-0.317 0.604,-0.27L0.604,-0L0.448,-0L0.448,-0.284C0.448,-0.369 0.414,-0.411 0.346,-0.411C0.31,-0.411 0.281,-0.399 0.26,-0.376C0.239,-0.352 0.228,-0.317 0.228,-0.27L0.228,-0L0.072,-0L0.072,-0.538L0.221,-0.538L0.221,-0.476C0.241,-0.499 0.266,-0.516 0.295,-0.528C0.324,-0.54 0.355,-0.546 0.39,-0.546C0.428,-0.546 0.462,-0.539 0.493,-0.524C0.524,-0.508 0.548,-0.487 0.567,-0.458C0.589,-0.486 0.617,-0.508 0.651,-0.523C0.684,-0.538 0.721,-0.546 0.761,-0.546Z" style="fill:white;fill-rule:nonzero;"/>
                </g>
                <g transform="matrix(100,0,0,100,2223.99,1571.24)">
                    <path d="M0.599,-0.267C0.599,-0.265 0.598,-0.251 0.596,-0.225L0.189,-0.225C0.196,-0.192 0.214,-0.165 0.241,-0.146C0.268,-0.127 0.302,-0.117 0.343,-0.117C0.371,-0.117 0.396,-0.121 0.418,-0.13C0.439,-0.138 0.459,-0.151 0.478,-0.169L0.561,-0.079C0.51,-0.021 0.436,0.008 0.339,0.008C0.278,0.008 0.225,-0.004 0.178,-0.028C0.131,-0.051 0.095,-0.084 0.07,-0.126C0.045,-0.168 0.032,-0.216 0.032,-0.269C0.032,-0.322 0.045,-0.369 0.07,-0.411C0.095,-0.454 0.129,-0.487 0.172,-0.51C0.216,-0.534 0.265,-0.546 0.319,-0.546C0.372,-0.546 0.419,-0.535 0.462,-0.512C0.505,-0.489 0.538,-0.457 0.563,-0.414C0.587,-0.372 0.599,-0.323 0.599,-0.267ZM0.32,-0.428C0.285,-0.428 0.255,-0.418 0.231,-0.398C0.207,-0.378 0.192,-0.351 0.187,-0.316L0.452,-0.316C0.447,-0.35 0.432,-0.377 0.408,-0.398C0.384,-0.418 0.355,-0.428 0.32,-0.428Z" style="fill:white;fill-rule:nonzero;"/>
                </g>
            </g>
            <g transform="matrix(1,0,0,1,586.93,580.895)">
                <g transform="matrix(100,0,0,100,1723.68,1571.24)">
                    <path d="M0.114,-0.7L0.188,-0.7L0.188,-0.064L0.58,-0.064L0.58,-0L0.114,-0L0.114,-0.7Z" style="fill:white;fill-rule:nonzero;"/>
                </g>
                <g transform="matrix(100,0,0,100,1778.68,1571.24)">
                    <path d="M0.541,-0.526L0.278,0.063C0.257,0.112 0.232,0.147 0.204,0.168C0.176,0.189 0.142,0.199 0.103,0.199C0.078,0.199 0.054,0.195 0.032,0.187C0.01,0.179 -0.009,0.167 -0.025,0.151L0.008,0.098C0.035,0.125 0.067,0.138 0.104,0.138C0.128,0.138 0.149,0.131 0.166,0.118C0.183,0.105 0.198,0.082 0.213,0.05L0.236,-0.001L0.001,-0.526L0.075,-0.526L0.273,-0.079L0.471,-0.526L0.541,-0.526Z" style="fill:white;fill-rule:nonzero;"/>
                </g>
                <g transform="matrix(100,0,0,100,1832.28,1571.24)">
                    <path d="M0.24,0.005C0.197,0.005 0.157,-0.001 0.117,-0.014C0.079,-0.026 0.048,-0.041 0.026,-0.06L0.058,-0.116C0.08,-0.099 0.108,-0.085 0.141,-0.074C0.174,-0.063 0.209,-0.057 0.245,-0.057C0.293,-0.057 0.329,-0.065 0.352,-0.08C0.375,-0.095 0.386,-0.116 0.386,-0.143C0.386,-0.162 0.38,-0.178 0.367,-0.189C0.354,-0.2 0.338,-0.208 0.319,-0.214C0.3,-0.219 0.274,-0.225 0.242,-0.23C0.199,-0.238 0.165,-0.246 0.139,-0.255C0.113,-0.263 0.091,-0.277 0.073,-0.297C0.054,-0.317 0.045,-0.345 0.045,-0.38C0.045,-0.424 0.063,-0.46 0.1,-0.488C0.137,-0.516 0.188,-0.53 0.253,-0.53C0.287,-0.53 0.321,-0.526 0.355,-0.517C0.389,-0.507 0.417,-0.496 0.439,-0.481L0.408,-0.424C0.365,-0.454 0.313,-0.469 0.253,-0.469C0.208,-0.469 0.173,-0.461 0.151,-0.445C0.128,-0.429 0.116,-0.408 0.116,-0.382C0.116,-0.362 0.123,-0.346 0.136,-0.334C0.149,-0.322 0.165,-0.313 0.184,-0.308C0.203,-0.302 0.23,-0.296 0.264,-0.29C0.306,-0.282 0.34,-0.274 0.365,-0.266C0.39,-0.258 0.412,-0.244 0.43,-0.225C0.448,-0.206 0.457,-0.179 0.457,-0.145C0.457,-0.099 0.438,-0.063 0.4,-0.035C0.361,-0.009 0.308,0.005 0.24,0.005Z" style="fill:white;fill-rule:nonzero;"/>
                </g>
                <g transform="matrix(100,0,0,100,1881.18,1571.24)">
                    <path d="M0.283,-0.53C0.352,-0.53 0.404,-0.513 0.441,-0.478C0.478,-0.444 0.496,-0.393 0.496,-0.326L0.496,-0L0.428,-0L0.428,-0.082C0.412,-0.055 0.389,-0.033 0.358,-0.018C0.327,-0.003 0.29,0.005 0.247,0.005C0.188,0.005 0.142,-0.009 0.107,-0.037C0.072,-0.065 0.055,-0.102 0.055,-0.148C0.055,-0.193 0.071,-0.229 0.103,-0.256C0.136,-0.283 0.187,-0.297 0.258,-0.297L0.425,-0.297L0.425,-0.329C0.425,-0.374 0.412,-0.409 0.387,-0.433C0.362,-0.456 0.325,-0.468 0.276,-0.468C0.243,-0.468 0.211,-0.463 0.18,-0.452C0.149,-0.441 0.123,-0.425 0.101,-0.406L0.069,-0.459C0.096,-0.482 0.128,-0.499 0.165,-0.511C0.202,-0.524 0.242,-0.53 0.283,-0.53ZM0.258,-0.051C0.298,-0.051 0.332,-0.06 0.361,-0.079C0.39,-0.097 0.411,-0.123 0.425,-0.158L0.425,-0.244L0.26,-0.244C0.17,-0.244 0.125,-0.213 0.125,-0.15C0.125,-0.119 0.137,-0.095 0.16,-0.078C0.183,-0.06 0.216,-0.051 0.258,-0.051Z" style="fill:white;fill-rule:nonzero;"/>
                </g>
                <g transform="matrix(100,0,0,100,1940.18,1571.24)">
                    <path d="M0.376,-0.032C0.363,-0.02 0.346,-0.011 0.327,-0.005C0.307,0.002 0.286,0.005 0.265,0.005C0.216,0.005 0.178,-0.008 0.151,-0.035C0.124,-0.062 0.111,-0.099 0.111,-0.148L0.111,-0.466L0.017,-0.466L0.017,-0.526L0.111,-0.526L0.111,-0.641L0.182,-0.641L0.182,-0.526L0.342,-0.526L0.342,-0.466L0.182,-0.466L0.182,-0.152C0.182,-0.121 0.19,-0.097 0.205,-0.081C0.221,-0.064 0.244,-0.056 0.273,-0.056C0.288,-0.056 0.302,-0.058 0.316,-0.063C0.329,-0.068 0.341,-0.074 0.351,-0.083L0.376,-0.032Z" style="fill:white;fill-rule:nonzero;"/>
                </g>
                <g transform="matrix(100,0,0,100,1978.88,1571.24)">
                    <path d="M0.557,-0.241L0.117,-0.241C0.121,-0.186 0.142,-0.142 0.18,-0.109C0.218,-0.075 0.266,-0.058 0.324,-0.058C0.357,-0.058 0.387,-0.064 0.414,-0.076C0.441,-0.087 0.465,-0.104 0.485,-0.127L0.525,-0.081C0.502,-0.053 0.472,-0.032 0.438,-0.017C0.403,-0.002 0.364,0.005 0.322,0.005C0.268,0.005 0.22,-0.007 0.179,-0.029C0.137,-0.053 0.104,-0.084 0.081,-0.125C0.058,-0.166 0.046,-0.212 0.046,-0.263C0.046,-0.314 0.057,-0.36 0.08,-0.401C0.102,-0.442 0.133,-0.473 0.172,-0.496C0.211,-0.519 0.254,-0.53 0.303,-0.53C0.352,-0.53 0.395,-0.519 0.434,-0.496C0.473,-0.473 0.503,-0.442 0.525,-0.402C0.547,-0.361 0.558,-0.315 0.558,-0.263L0.557,-0.241ZM0.303,-0.469C0.252,-0.469 0.21,-0.453 0.175,-0.421C0.141,-0.388 0.122,-0.346 0.117,-0.294L0.49,-0.294C0.485,-0.346 0.466,-0.388 0.432,-0.421C0.397,-0.453 0.354,-0.469 0.303,-0.469Z" style="fill:white;fill-rule:nonzero;"/>
                </g>
                <g transform="matrix(100,0,0,100,2036.48,1571.24)">
                    <path d="M0.246,-0.7L0.246,-0L0.174,-0L0.174,-0.636L0.009,-0.636L0.009,-0.7L0.246,-0.7Z" style="fill:white;fill-rule:nonzero;"/>
                </g>
            </g>
            <g transform="matrix(1,0,0,1,586.93,190.991)">
                <g transform="matrix(100,0,0,100,1703.48,1571.24)">
                    <path d="M0.609,-0.064L0.609,-0L0.114,-0L0.114,-0.7L0.594,-0.7L0.594,-0.636L0.188,-0.636L0.188,-0.387L0.55,-0.387L0.55,-0.324L0.188,-0.324L0.188,-0.064L0.609,-0.064Z" style="fill:white;fill-rule:nonzero;"/>
                </g>
                <g transform="matrix(100,0,0,100,1768.88,1571.24)">
                    <path d="M0.434,-0L0.267,-0.22L0.099,-0L0.019,-0L0.227,-0.27L0.029,-0.526L0.109,-0.526L0.267,-0.32L0.425,-0.526L0.503,-0.526L0.305,-0.27L0.515,-0L0.434,-0Z" style="fill:white;fill-rule:nonzero;"/>
                </g>
                <g transform="matrix(100,0,0,100,1822.28,1571.24)">
                    <path d="M0.376,-0.032C0.363,-0.02 0.346,-0.011 0.327,-0.005C0.307,0.002 0.286,0.005 0.265,0.005C0.216,0.005 0.178,-0.008 0.151,-0.035C0.124,-0.062 0.111,-0.099 0.111,-0.148L0.111,-0.466L0.017,-0.466L0.017,-0.526L0.111,-0.526L0.111,-0.641L0.182,-0.641L0.182,-0.526L0.342,-0.526L0.342,-0.466L0.182,-0.466L0.182,-0.152C0.182,-0.121 0.19,-0.097 0.205,-0.081C0.221,-0.064 0.244,-0.056 0.273,-0.056C0.288,-0.056 0.302,-0.058 0.316,-0.063C0.329,-0.068 0.341,-0.074 0.351,-0.083L0.376,-0.032Z" style="fill:white;fill-rule:nonzero;"/>
                </g>
                <g transform="matrix(100,0,0,100,1862.88,1571.24)">
                    <path d="M0.167,-0.423C0.184,-0.458 0.209,-0.485 0.242,-0.503C0.275,-0.521 0.315,-0.53 0.364,-0.53L0.364,-0.461L0.347,-0.462C0.292,-0.462 0.248,-0.445 0.217,-0.411C0.186,-0.377 0.17,-0.329 0.17,-0.268L0.17,-0L0.099,-0L0.099,-0.526L0.167,-0.526L0.167,-0.423Z" style="fill:white;fill-rule:nonzero;"/>
                </g>
                <g transform="matrix(100,0,0,100,1902.08,1571.24)">
                    <path d="M0.283,-0.53C0.352,-0.53 0.404,-0.513 0.441,-0.478C0.478,-0.444 0.496,-0.393 0.496,-0.326L0.496,-0L0.428,-0L0.428,-0.082C0.412,-0.055 0.389,-0.033 0.358,-0.018C0.327,-0.003 0.29,0.005 0.247,0.005C0.188,0.005 0.142,-0.009 0.107,-0.037C0.072,-0.065 0.055,-0.102 0.055,-0.148C0.055,-0.193 0.071,-0.229 0.103,-0.256C0.136,-0.283 0.187,-0.297 0.258,-0.297L0.425,-0.297L0.425,-0.329C0.425,-0.374 0.412,-0.409 0.387,-0.433C0.362,-0.456 0.325,-0.468 0.276,-0.468C0.243,-0.468 0.211,-0.463 0.18,-0.452C0.149,-0.441 0.123,-0.425 0.101,-0.406L0.069,-0.459C0.096,-0.482 0.128,-0.499 0.165,-0.511C0.202,-0.524 0.242,-0.53 0.283,-0.53ZM0.258,-0.051C0.298,-0.051 0.332,-0.06 0.361,-0.079C0.39,-0.097 0.411,-0.123 0.425,-0.158L0.425,-0.244L0.26,-0.244C0.17,-0.244 0.125,-0.213 0.125,-0.15C0.125,-0.119 0.137,-0.095 0.16,-0.078C0.183,-0.06 0.216,-0.051 0.258,-0.051Z" style="fill:white;fill-rule:nonzero;"/>
                </g>
                <g transform="matrix(100,0,0,100,1961.28,1571.24)">
                    <path d="M0.317,0.005C0.265,0.005 0.219,-0.006 0.178,-0.029C0.137,-0.052 0.104,-0.084 0.081,-0.125C0.058,-0.166 0.046,-0.212 0.046,-0.263C0.046,-0.314 0.058,-0.36 0.081,-0.401C0.104,-0.442 0.137,-0.473 0.178,-0.496C0.219,-0.519 0.265,-0.53 0.317,-0.53C0.362,-0.53 0.403,-0.521 0.439,-0.503C0.474,-0.486 0.502,-0.46 0.523,-0.426L0.47,-0.39C0.453,-0.416 0.431,-0.436 0.404,-0.449C0.377,-0.462 0.348,-0.468 0.317,-0.468C0.279,-0.468 0.245,-0.46 0.215,-0.443C0.184,-0.426 0.161,-0.401 0.143,-0.37C0.127,-0.339 0.118,-0.303 0.118,-0.263C0.118,-0.222 0.127,-0.187 0.143,-0.156C0.161,-0.125 0.184,-0.101 0.215,-0.084C0.245,-0.067 0.279,-0.058 0.317,-0.058C0.348,-0.058 0.377,-0.064 0.404,-0.077C0.431,-0.09 0.453,-0.109 0.47,-0.135L0.523,-0.099C0.502,-0.065 0.474,-0.039 0.438,-0.021C0.402,-0.004 0.362,0.005 0.317,0.005Z" style="fill:white;fill-rule:nonzero;"/>
                </g>
                <g transform="matrix(100,0,0,100,2018.18,1571.24)">
                    <path d="M0.376,-0.032C0.363,-0.02 0.346,-0.011 0.327,-0.005C0.307,0.002 0.286,0.005 0.265,0.005C0.216,0.005 0.178,-0.008 0.151,-0.035C0.124,-0.062 0.111,-0.099 0.111,-0.148L0.111,-0.466L0.017,-0.466L0.017,-0.526L0.111,-0.526L0.111,-0.641L0.182,-0.641L0.182,-0.526L0.342,-0.526L0.342,-0.466L0.182,-0.466L0.182,-0.152C0.182,-0.121 0.19,-0.097 0.205,-0.081C0.221,-0.064 0.244,-0.056 0.273,-0.056C0.288,-0.056 0.302,-0.058 0.316,-0.063C0.329,-0.068 0.341,-0.074 0.351,-0.083L0.376,-0.032Z" style="fill:white;fill-rule:nonzero;"/>
                </g>
                <g transform="matrix(100,0,0,100,2056.68,1571.24)">
                    <path d="M0.246,-0.7L0.246,-0L0.174,-0L0.174,-0.636L0.009,-0.636L0.009,-0.7L0.246,-0.7Z" style="fill:white;fill-rule:nonzero;"/>
                </g>
            </g>
            <g transform="matrix(1,0,0,1,753.925,-50.8387)">
                <g transform="matrix(1.41565,0,0,1.03007,-700.334,-53.8984)">
                    <path d="M1443.69,1433.1C1443.26,1433.1 1442.85,1433.33 1442.55,1433.75C1442.25,1434.16 1442.08,1434.72 1442.08,1435.31C1442.08,1480.45 1442.08,2202.23 1442.08,2401.44C1442.08,2414.85 1445.96,2427.72 1452.86,2437.2C1459.76,2446.69 1469.12,2452.02 1478.88,2452.02C1600.99,2452.02 1985.06,2452.02 1985.06,2452.02L1985.06,1474.09C1985.06,1452.67 1972.45,1435.3 1956.87,1435.23L1443.69,1433.1Z" style="fill:none;stroke:white;stroke-width:8.41px;"/>
                </g>
                <path d="M1341.14,1554.39L2109.81,1554.39" style="fill:none;stroke:white;stroke-width:10.42px;"/>
            </g>
            <g transform="matrix(0.792725,0,0,0.792725,-1115.29,357.748)">
                <g transform="matrix(0.313088,0.0701404,-0.0701404,0.313088,2171.67,1529.27)">
                    <g>
                        <g transform="matrix(4.16667,0,0,4.16667,-1841.5,-1941.2)">
                            <path d="M495.94,728.93C488.81,729.42 481.68,730.15 474.6,728.51C452.5,723.4 440.32,703.36 445.67,679.79C452.29,650.61 469.97,629.68 495.67,615.11C497.67,613.96 499.79,612.98 501.85,611.92C503.34,609.71 505.64,608.85 508.02,607.98C528.266,600.321 550.444,599.353 571.28,605.22C576.35,606.62 580.16,605.97 583.9,602.33C593.65,592.85 604.16,584.18 614.19,574.39C601.3,574.61 589.3,571.6 577.1,570.46C560.216,568.861 543.259,568.16 526.3,568.36C523.85,568.36 521.3,568.85 519.14,566.99C506.59,565.61 493.95,564.82 481.78,560.99C471.17,557.64 461.32,552.94 453.41,544.91C444.03,535.39 439.25,524.2 443.56,510.91C447.87,497.62 458.4,490.91 471.56,488.1C485.33,485.1 498.28,488.71 511,493.59C520.006,497.048 528.798,501.039 537.33,505.54C542.52,508.28 553.17,511.6 551.98,512C571.81,522.28 588.82,536.43 607.71,547.68C612.925,550.625 618.315,553.25 623.85,555.54C626.162,556.677 628.949,556.279 630.85,554.54C635.93,550.5 641,546.45 646.06,542.39C647.62,541.121 648.7,539.356 649.12,537.39C650.863,529.75 653.667,522.392 657.45,515.53C659.36,512.14 663.083,507.998 664.43,505.53C674.92,489.36 688.56,476.8 706.8,469.79C713.171,467.275 719.951,465.956 726.8,465.9C746.19,465.82 756.46,479.12 751.43,498.01C750.43,501.67 749.14,505.25 747.98,508.86C747.98,510.47 747.08,511.7 746.35,513.01C729.6,537.69 706.27,551.8 676.89,556.07C671.261,556.853 665.534,556.547 660.02,555.17C655.87,554.17 652.86,555.17 650.63,559.3C658.77,561.19 667.05,560.72 675.17,561.62C682.91,562.49 690.75,562.53 698.5,563.46C701.95,563.87 704.64,563.17 706.78,560.23C717.95,544.94 732.78,534.74 750.71,528.83C765.09,524.39 779.6,524.42 794.2,527.48C796.99,528.48 798.97,528.09 799.2,524.55C799.25,523.83 799.69,522.95 800.82,523.33C799.82,529.33 802.76,531.88 808.22,533.74C815.448,536.322 821.996,540.511 827.37,545.99C843.48,561.89 841.69,583.87 823.2,596.91C815.33,602.46 806.44,605.53 797.01,607.14C796.259,608.028 795.275,608.689 794.17,609.05C784.569,610.604 774.784,610.645 765.17,609.17C754.17,607.31 743.41,604.54 733.23,599.72C724.91,595.79 716.97,591.23 710.11,585.12C706.927,582.156 702.758,580.471 698.41,580.39C692.97,580.22 687.5,580.47 682.16,579.01C681.49,579.1 638.948,569.721 640.13,570.652C635.296,577.579 640.736,585.626 646.32,592.294C652.988,599.724 663.644,633.82 661.12,649.08C660.345,656.99 656.84,664.389 651.21,670C645,674.45 638.53,674.44 631.87,671.14C622.71,665.85 617.38,657.56 614.12,647.84C609.96,635.42 607.27,622.77 609.54,609.55C609.781,608.7 609.402,607.789 608.63,607.36C602.95,612.7 596.57,617.43 591.34,623.44C590.244,624.927 589.554,626.675 589.34,628.51C586.348,643.05 581.137,657.044 573.89,670C561.83,690 546.08,706.38 525.83,718.22C518.429,722.72 510.43,726.154 502.07,728.42C500.336,729.015 498.495,729.233 496.67,729.06L495.94,728.93Z" style="fill:none;fill-rule:nonzero;stroke:white;stroke-width:5.48px;stroke-linecap:butt;stroke-miterlimit:2;"/>
                        </g>
                        <g transform="matrix(4.16667,0,0,4.16667,-1841.5,-1941.2)">
                            <path d="M491.06,544C489.2,547.59 487.13,551.11 487.48,556.09C490.81,553.41 490.26,549.18 492.98,546.96C493.12,546.88 493.28,546.69 493.4,546.71C497.95,547.71 504.93,558.39 504.02,563C495.02,562.4 486.23,560.91 478.02,557C476.28,552.48 473.53,548.58 470.83,544.59C462.66,532.59 454.46,520.53 447.07,507.98C449.62,501.2 454.97,497.22 461.07,493.98C463.66,492.98 465.14,494.67 466.41,496.36C471.29,502.86 475.7,509.71 480.08,516.55C482.49,520.33 481.75,521.3 477.4,521.48C474.63,521.59 471.79,520.9 469.07,521.94C467.28,522.24 465.25,521.38 462.95,523.28C468.43,524.59 473.29,523.64 478.06,523.96C482.5,530.58 487.12,537.07 491.06,544Z" style="fill:none;fill-rule:nonzero;stroke:white;stroke-width:5.48px;stroke-linecap:butt;stroke-miterlimit:2;"/>
                        </g>
                        <g transform="matrix(4.16667,0,0,4.16667,-1841.5,-1941.2)">
                            <path d="M486,624C492.44,618.36 500,614.7 508,612C512.07,610.42 516.16,611.12 520.25,611.88C535.8,614.75 551.53,616.24 567.15,618.52C572.08,619.24 576.95,620.28 581.89,620.94C584.41,621.27 587.55,621.94 585.98,625.99C586.205,629.121 585.51,632.25 583.98,634.99C576.37,633.89 568.46,634.35 561.33,630.72C560.15,629.42 561.03,628.66 562.12,628.06C563.826,627.173 565.594,626.411 567.41,625.78C561.24,628.35 555.1,631 549.04,633.78C547.13,634.67 545.29,635.98 542.98,635.08C535.18,631.94 526.86,631.55 518.68,630.44C509.33,629.17 500.05,627.44 490.68,626.28C488.9,626.07 487.09,625.75 486,624Z" style="fill:none;fill-rule:nonzero;stroke:white;stroke-width:5.48px;stroke-linecap:butt;stroke-miterlimit:2;"/>
                        </g>
                        <g transform="matrix(4.16667,0,0,4.16667,-1841.5,-1941.2)">
                            <path d="M796,605C792.42,606.3 788.71,606 785,606C782.28,607 779.48,606.28 776.72,606.45C774.62,606.57 773.72,605.05 774.84,603.67C779.5,598.08 782.9,591.1 790.58,588.67C791.36,588.99 791.76,589.6 791.94,590.78C792.22,588.22 790.44,586.29 791.08,584.04C795.16,577.79 801.01,573.13 805.92,567.62C808.99,566.92 811.74,568.36 814.35,568.77C811.49,567.42 807.55,568 804.88,565.25C804.62,564.816 804.587,564.283 804.79,563.82C809.31,556.82 815.04,550.82 821.08,545.18C821.622,544.734 822.385,544.663 823,545C829.596,549.876 834.2,556.986 835.95,565C833.471,565.998 831.276,567.592 829.56,569.64C819.78,580.93 808.38,590.71 798.98,602.35C798.134,603.386 797.128,604.28 796,605Z" style="fill:none;fill-rule:nonzero;stroke:white;stroke-width:5.48px;stroke-linecap:butt;stroke-miterlimit:2;"/>
                        </g>
                        <g transform="matrix(4.16667,0,0,4.16667,-1841.5,-1941.2)">
                            <path d="M524,714.93C513,722.13 501,726.93 487.93,727.63C472.85,728.49 455.55,722.5 449.04,703.95C450.39,701.95 452.41,702.04 454.42,702.3C476.19,705.1 498.01,707.58 519.58,711.78C521.42,712.13 523.7,712.26 524,714.93Z" style="fill:none;fill-rule:nonzero;stroke:white;stroke-width:5.48px;stroke-linecap:butt;stroke-miterlimit:2;"/>
                        </g>
                        <g transform="matrix(4.16667,0,0,4.16667,-1841.5,-1941.2)">
                            <path d="M702,577L699,577C698.74,571.86 703.4,570.15 706,567C714,555.63 723.28,545.74 735.58,538.91C744.938,533.567 755.291,530.194 766,529C765.17,532.35 762.62,534.49 760.35,536.75C752.51,544.55 744.77,552.45 737.41,560.75C736.17,562.15 734.93,563.43 735.29,565.49C731.93,568.85 726.99,568.07 723.13,570.12C721.7,570.88 719.23,570.52 719.64,573.31C719.12,577.7 715.04,579.66 713,583.02C711,581.32 708.54,580.24 707,578.02C705.5,576.76 703.49,578.16 702,577Z" style="fill:none;fill-rule:nonzero;stroke:white;stroke-width:5.48px;stroke-linecap:butt;stroke-miterlimit:2;"/>
                        </g>
                        <g transform="matrix(4.16667,0,0,4.16667,-1841.5,-1941.2)">
                            <path d="M586,626C585.45,621.06 581.26,622.26 578.38,621.78C568.52,620.15 558.62,618.78 548.72,617.42C535.16,615.56 521.58,613.81 508.02,612.01C517.4,607.5 527.53,605.86 537.72,605.11C550.645,604.128 563.634,605.831 575.87,610.11C578.25,610.94 579.8,610.7 581.62,608.94C584.23,606.42 587.19,604.26 590,601.94C594.76,599.29 599.26,601.32 603.73,602.85C605,603.28 605.96,604.35 604.99,605.94C599.76,610.68 594.64,615.54 589.24,620.08C587.28,621.77 587.5,624.26 586,626Z" style="fill:none;fill-rule:nonzero;stroke:white;stroke-width:5.48px;stroke-linecap:butt;stroke-miterlimit:2;"/>
                        </g>
                        <g transform="matrix(4.16667,0,0,4.16667,-1841.5,-1941.2)">
                            <path d="M486,624C496.88,625.667 507.757,627.333 518.63,629C525.78,630.08 532.94,631 540.07,632.23C541.77,632.408 543.26,633.459 544,635C528.1,649.29 506.61,651.1 489.3,640.69C488.96,640.48 488.7,640.06 488.21,640.13C488.601,640.436 488.905,640.839 489.09,641.3C489.36,642.15 488.7,642.45 488.16,642.83C481.22,643.54 474.33,643.94 468.04,640.02C473.052,633.679 479.13,628.258 486,624Z" style="fill:none;fill-rule:nonzero;stroke:white;stroke-width:5.48px;stroke-linecap:butt;stroke-miterlimit:2;"/>
                        </g>
                        <g transform="matrix(4.16667,0,0,4.16667,-1841.5,-1941.2)">
                            <path d="M562,681C557.419,688.212 551.674,694.616 545,699.95C533.83,698.23 522.59,696.95 511.51,694.62C506.31,687.34 506.99,679.32 508.51,671.18C509.5,670.26 510.918,669.952 512.2,670.38C520.62,672.15 529.26,672.21 537.67,673.88C540.57,674.7 541.36,677.33 542.58,679.61C542.78,679.99 542.81,679.98 543.88,678.82C548.63,676 557.32,677.06 562,681Z" style="fill:none;fill-rule:nonzero;stroke:white;stroke-width:5.48px;stroke-linecap:butt;stroke-miterlimit:2;"/>
                        </g>
                        <g transform="matrix(4.16667,0,0,4.16667,-1841.5,-1941.2)">
                            <path d="M594,569C586.23,568.75 578.63,567.28 571,566C574.11,564.55 574.39,562.57 572.42,559.82C570.89,557.7 569.08,555.75 567.74,553.52C566.4,551.29 564,549.09 566,546L573.82,550.64L574.53,549.5C570.93,545.36 565.15,544.35 561,540.99C556.892,533.621 552.372,526.49 547.46,519.63C546.1,517.63 544.08,515.72 546.01,512.99C556.64,516.99 565.46,524.11 575.01,529.99C581.93,539.46 588.01,549.48 594.54,559.21C595.65,560.86 596.74,562.52 597.69,564.21C598.4,565.52 599.31,566.97 598.39,568.38C597.28,570.15 595.58,569.66 594,569Z" style="fill:none;fill-rule:nonzero;stroke:white;stroke-width:5.48px;stroke-linecap:butt;stroke-miterlimit:2;"/>
                        </g>
                        <g transform="matrix(4.16667,0,0,4.16667,-1841.5,-1941.2)">
                            <path d="M468.05,640C474.96,641.406 481.999,642.077 489.05,642C492.26,641.29 494.72,643.48 497.46,644.38C504.375,646.696 511.706,647.508 518.96,646.76C520.09,646.65 521.41,645.92 522.02,647.32C522.54,648.53 521.52,649.5 520.67,650.32C503.51,666.15 489.67,669.32 466.43,658.24C464.66,657.4 463.06,655.96 460.87,656.85C459.523,657.291 458.038,656.965 457,656C459.66,649.91 464,645.05 468.05,640Z" style="fill:none;fill-rule:nonzero;stroke:white;stroke-width:5.48px;stroke-linecap:butt;stroke-miterlimit:2;"/>
                        </g>
                        <g transform="matrix(4.16667,0,0,4.16667,-1841.5,-1941.2)">
                            <path d="M524,714.93C516.85,711.58 509,711.33 501.42,710.11C485.63,707.55 469.7,705.89 453.86,703.63C452.09,703.37 450.64,703.84 449.04,703.95C446.47,698.51 447.04,692.7 447.04,686.95C449.57,685.39 452.34,686.28 454.84,686.64C461.84,687.64 469.14,687.22 475.76,690.38C477.39,693.46 474.63,695.19 473.89,697.38C472.89,697.52 474.12,698.32 473.83,697.72C473.83,697.65 473.96,697.61 474.28,697.49C474.924,697.274 475.601,697.176 476.28,697.2C488.85,698.69 501.28,700.92 513.85,702.52C514.7,702.52 515.55,702.52 516.4,702.6C520.99,703.15 525.53,704.04 530.09,704.79C532.16,705.12 534.98,705.39 534.09,708.9L524,714.93Z" style="fill:none;fill-rule:nonzero;stroke:white;stroke-width:5.48px;stroke-linecap:butt;stroke-miterlimit:2;"/>
                        </g>
                        <g transform="matrix(4.16667,0,0,4.16667,-1841.5,-1941.2)">
                            <path d="M735,565C731.57,564.06 733.9,562.69 734.85,561.68C742.02,554.1 749.25,546.58 756.46,539.03C759.64,535.697 762.817,532.363 765.99,529.03C774.1,529.23 782.25,528.33 790.32,530.03C791.32,530.23 792.32,530.13 792.99,531.03C790.08,534.57 786.61,537.57 783.35,540.77C782.11,541.98 780.71,543.43 778.67,542.02C778.16,541.8 778.08,540.53 777.93,540.91C774.79,549.455 768.472,556.468 760.3,560.48C752.531,564.546 743.696,566.124 735,565Z" style="fill:none;fill-rule:nonzero;stroke:white;stroke-width:5.48px;stroke-linecap:butt;stroke-miterlimit:2;"/>
                        </g>
                        <g transform="matrix(4.16667,0,0,4.16667,-1841.5,-1941.2)">
                            <path d="M728,529C722.75,533.59 717.45,538.1 711,541C710.308,540.522 709.907,539.721 709.94,538.88C711.1,531.31 712.61,523.88 717.88,517.88C718.96,517.55 719.74,518 720.65,519.3C720,516.97 718.1,515.61 718.44,513.46C721.44,507.58 722.76,501.04 725.44,495.03C727.452,493.168 730.061,492.08 732.8,491.96C730.85,491.22 728.59,494.02 726.47,491.79C726.75,483.63 730.04,476.44 733.63,469.34C733.86,468.88 734.48,468.95 734.98,469.07C739.87,469.47 743.31,472.17 745.98,476.07C739.8,490.21 735.58,505.07 730.48,519.57C729.43,522.56 727.42,525.45 728,529Z" style="fill:none;fill-rule:nonzero;stroke:white;stroke-width:5.48px;stroke-linecap:butt;stroke-miterlimit:2;"/>
                        </g>
                        <g transform="matrix(4.16667,0,0,4.16667,-1841.5,-1941.2)">
                            <path d="M594,569C597.89,569.21 598.86,568.19 596.41,564.59C590.04,555.21 583.91,545.68 577.77,536.15C576.55,534.27 574.63,532.63 575,530.01C587.86,538.47 600.1,547.9 613.84,555.01C618.07,557.21 620.41,561.51 622.29,565.77C623.58,568.71 621.35,570.49 618.98,570.69C610.618,571.565 602.168,570.993 594,569Z" style="fill:none;fill-rule:nonzero;stroke:white;stroke-width:5.48px;stroke-linecap:butt;stroke-miterlimit:2;"/>
                        </g>
                        <g transform="matrix(4.16667,0,0,4.16667,-1841.5,-1941.2)">
                            <path d="M580,648C578.27,653.6 576.55,659.2 573,664C572.187,664.59 571.171,664.831 570.18,664.67C561.07,663.29 551.84,662.67 542.8,660.82C540.821,660.536 538.989,659.608 537.59,658.18C535.59,652.69 536.87,647.59 539.44,642.64C541.23,640.71 543.44,640.7 545.85,641.01C555.33,642.23 564.74,643.95 574.26,644.82C576.54,645 578.91,645.46 580,648Z" style="fill:none;fill-rule:nonzero;stroke:white;stroke-width:5.48px;stroke-linecap:butt;stroke-miterlimit:2;"/>
                        </g>
                        <g transform="matrix(4.16667,0,0,4.16667,-1841.5,-1941.2)">
                            <path d="M469,522C472.48,519.83 476.46,521.85 480.14,520.7C480.26,517.15 477.37,515.21 475.76,512.7C472.43,507.4 468.9,502.22 465.32,497.09C464.32,495.63 463.11,494.09 461,494.09C467.51,490.36 474.61,489.09 482,489.09C483.22,489.98 485,489.65 486,491.09C487.69,503.79 494,513.99 503.55,522.55C491.81,521.3 480.41,522.25 469,522Z" style="fill:none;fill-rule:nonzero;stroke:white;stroke-width:5.48px;stroke-linecap:butt;stroke-miterlimit:2;"/>
                        </g>
                        <g transform="matrix(4.16667,0,0,4.16667,-1841.5,-1941.2)">
                            <path d="M486,491C484.446,490.923 482.994,490.197 482,489C490.94,488.86 499.23,491.77 507.6,494.35C509.571,494.872 511.045,496.531 511.33,498.55C513.287,509.689 519.102,519.792 527.75,527.08C506.09,526.82 494.75,514.08 488.9,495.97C488.37,494.28 489.79,491 486,491Z" style="fill:none;fill-rule:nonzero;stroke:white;stroke-width:5.48px;stroke-linecap:butt;stroke-miterlimit:2;"/>
                        </g>
                        <g transform="matrix(4.16667,0,0,4.16667,-1841.5,-1941.2)">
                            <path d="M447,508C450.1,509.31 450.73,512.59 452.36,515C460.74,527.31 468.92,539.76 477.01,552.27C477.82,553.52 479.88,555.03 477.95,557.03C461.36,552.49 443.42,537.39 443.95,519.44C444.027,515.436 445.073,511.51 447,508Z" style="fill:none;fill-rule:nonzero;stroke:white;stroke-width:5.48px;stroke-linecap:butt;stroke-miterlimit:2;"/>
                        </g>
                        <g transform="matrix(4.16667,0,0,4.16667,-1841.5,-1941.2)">
                            <path d="M796,605C797.69,600.91 801,598 803.85,594.84C812.65,585.2 821.85,575.95 830.95,566.56C832.32,565.14 833.59,563.32 835.95,565.01C838.72,583.78 824.31,597.29 808.95,601.57C804.62,602.74 800.48,604.54 796,605Z" style="fill:none;fill-rule:nonzero;stroke:white;stroke-width:5.48px;stroke-linecap:butt;stroke-miterlimit:2;"/>
                        </g>
                        <g transform="matrix(4.16667,0,0,4.16667,-1841.5,-1941.2)">
                            <path d="M457,656L461,656C462.91,655.21 464.13,656.66 465.47,657.49C475.36,663.63 486.21,664.85 497.47,663.73C498.61,663.62 499.84,662.89 500.67,664C501.67,665.39 500.58,666.66 499.67,667.43C495.34,671.12 492.67,676.81 486.62,678.43C476.23,676.06 465.62,674.85 455.13,673.43C453.13,673.16 451.08,673.14 450.01,670.99C452,665.79 453.71,660.5 457,656Z" style="fill:none;fill-rule:nonzero;stroke:white;stroke-width:5.48px;stroke-linecap:butt;stroke-miterlimit:2;"/>
                        </g>
                        <g transform="matrix(4.16667,0,0,4.16667,-1841.5,-1941.2)">
                            <path d="M661,552C652.19,548.65 648.94,556.32 643.9,560.54C642.66,561.54 641.96,564.24 639.68,563C637.08,561.58 639.19,559.65 639.49,557.82C640.49,551.76 643.98,547.74 648.91,544.5C650.696,543.26 651.888,541.332 652.2,539.18C655.02,525.29 661.57,513.04 669.4,501.41C670.469,500.143 671.677,498.999 673,498C676.17,499 674.29,501.24 673.89,502.76C671.68,511.26 668.27,519.38 665.51,527.76C664.78,529.96 663.75,532.08 664.37,534.49C665.32,537.11 660.58,538.6 662.97,541.49C664.59,545.4 662.54,548.65 661,552Z" style="fill:none;fill-rule:nonzero;stroke:white;stroke-width:5.48px;stroke-linecap:butt;stroke-miterlimit:2;"/>
                        </g>
                        <g transform="matrix(4.16667,0,0,4.16667,-1841.5,-1941.2)">
                            <path d="M504,563C502.079,556.657 498.235,551.065 493,547C495.44,539.9 500.72,535.47 507,532C509.12,532.42 510.32,534 511.44,535.64C514.86,540.45 517.97,545.46 521.38,550.28C522.083,550.996 522.323,552.05 522,553C520.69,556.36 519.37,559.71 518.08,563.08C517.78,563.86 517.46,564.89 516.48,564.52C512.46,563 508,565.3 504,563Z" style="fill:none;fill-rule:nonzero;stroke:white;stroke-width:5.48px;stroke-linecap:butt;stroke-miterlimit:2;"/>
                        </g>
                        <g transform="matrix(4.16667,0,0,4.16667,-1841.5,-1941.2)">
                            <path d="M450.06,671C458.82,672.33 467.59,673.63 476.34,675C480.01,675.58 483.97,675.22 487.03,678C485.12,683.791 481.222,688.723 476.03,691.92C474.45,690.1 472.3,690.17 470.12,689.92C462.4,689 454.72,688 447,687C446.46,681.33 448.61,676.22 450.06,671Z" style="fill:none;fill-rule:nonzero;stroke:white;stroke-width:5.48px;stroke-linecap:butt;stroke-miterlimit:2;"/>
                        </g>
                        <g transform="matrix(4.16667,0,0,4.16667,-1841.5,-1941.2)">
                            <path d="M779,542C782.61,541.36 784,537.92 786.53,536C788.71,534.36 789.87,531.4 793.02,531C797.565,531.511 801.974,532.867 806.02,535C806.53,537.3 804.85,537.9 803.25,538.56C800.93,539.48 800.59,541.85 799.6,543.69C796.745,548.953 792.858,553.585 788.17,557.31C780.93,563.21 772.7,562.49 764.4,562C762.69,561.9 760.53,560.76 763.07,559C769.38,554.61 773.9,548.81 777.65,542.27C777.84,541.83 778.46,541.85 779,542Z" style="fill:none;fill-rule:nonzero;stroke:white;stroke-width:5.48px;stroke-linecap:butt;stroke-miterlimit:2;"/>
                        </g>
                        <g transform="matrix(4.16667,0,0,4.16667,-1841.5,-1941.2)">
                            <path d="M803,538C804.311,537.369 805.369,536.311 806,535C812.34,537.027 818.148,540.444 823,545C816.11,550.85 810.61,558 805,565C803,566.79 800.84,565.45 798.81,565.24C794.37,564.77 789.99,563.77 785.56,563.14C784,562.92 781.35,561.76 783.92,560.25C792.88,554.93 797.76,546.37 803,538Z" style="fill:none;fill-rule:nonzero;stroke:white;stroke-width:5.48px;stroke-linecap:butt;stroke-miterlimit:2;"/>
                        </g>
                        <g transform="matrix(4.16667,0,0,4.16667,-1841.5,-1941.2)">
                            <path d="M538,658C547.61,661.28 557.81,661.07 567.65,663C569.42,663.35 571.2,663.68 572.98,664C569.98,670.1 566.72,676 561.98,681C557.59,679.15 552.81,679.25 548.24,678.25C546.611,677.971 544.958,678.653 544,680C540.68,679.15 540.36,675.89 539.53,673.55C537.79,668.55 535.05,663.47 538,658Z" style="fill:none;fill-rule:nonzero;stroke:white;stroke-width:5.48px;stroke-linecap:butt;stroke-miterlimit:2;"/>
                        </g>
                        <g transform="matrix(4.16667,0,0,4.16667,-1841.5,-1941.2)">
                            <path d="M566,546C566.1,549.36 567.83,551.92 569.88,554.41C571.476,556.313 572.914,558.343 574.18,560.48C576.95,565.29 576.6,565.81 571,565.99L554.65,565.99C553.06,565.99 551.3,566.52 550,564.99C553.54,563.83 554.21,562.31 552,558.79C548,552.55 543.94,546.31 540,539.98C543.32,535.98 547.11,536.42 551.27,538.61C556.13,541.18 561.09,543.55 566,546Z" style="fill:none;fill-rule:nonzero;stroke:white;stroke-width:5.48px;stroke-linecap:butt;stroke-miterlimit:2;"/>
                        </g>
                        <g transform="matrix(4.16667,0,0,4.16667,-1841.5,-1941.2)">
                            <path d="M728,529C726.5,528.23 725.62,527.15 726.42,525.4C733.14,510.7 736.83,494.9 742.88,479.95C743.55,478.3 743.67,476.28 746.04,476.01C751.69,482.25 751.27,489.58 749.5,496.95C746.26,510.21 738.26,520.39 728,529Z" style="fill:none;fill-rule:nonzero;stroke:white;stroke-width:5.48px;stroke-linecap:butt;stroke-miterlimit:2;"/>
                        </g>
                        <g transform="matrix(4.16667,0,0,4.16667,-1841.5,-1941.2)">
                            <path d="M580,648C572.78,644.83 564.82,645.91 557.35,644.07C553.35,643.07 549.28,642.88 545.25,642.2C543.468,641.82 541.607,642.104 540.02,643C538.823,642.589 537.963,641.526 537.81,640.27C538.81,637.88 541.16,637.15 543.23,636.27C547.62,634.35 551.86,632.06 556.38,630.44C557.83,629.92 559.32,628.61 560.99,630.02C566.932,631.697 573.044,632.703 579.21,633.02C581.021,632.939 582.776,633.673 583.99,635.02C583.624,639.586 582.262,644.017 580,648Z" style="fill:none;fill-rule:nonzero;stroke:white;stroke-width:5.48px;stroke-linecap:butt;stroke-miterlimit:2;"/>
                        </g>
                        <g transform="matrix(4.16667,0,0,4.16667,-1841.5,-1941.2)">
                            <path d="M760,605C756.34,604 752.43,603.89 749,602C750.67,595.67 757.35,589.39 762.08,589.69C762.92,590.37 762.83,591.49 763.32,592.34C763.07,591.44 763.12,590.49 762.84,589.6C761.84,586.48 760.11,583.54 760.38,580.08C762.98,574.48 767.9,570.97 772.26,566.96C773.312,566.108 774.71,565.807 776.02,566.15C780.92,568.79 785.33,571.88 786.4,577.91C779.855,583.37 773.877,589.478 768.56,596.14C766,599.28 762.42,601.59 760,605Z" style="fill:none;fill-rule:nonzero;stroke:white;stroke-width:5.48px;stroke-linecap:butt;stroke-miterlimit:2;"/>
                        </g>
                        <g transform="matrix(4.16667,0,0,4.16667,-1841.5,-1941.2)">
                            <path d="M719,518C714.239,524.769 711.467,532.738 711,541C706.48,544.36 701.33,546.38 696,548C693.56,548.85 692.36,547.55 692.85,545.44C693.75,541.53 694.13,537.21 698.09,534.76C698.78,534.56 700.35,535.1 699.18,533.35C698.18,531.87 697.18,530.35 697.73,528.35C700.58,522.02 701.97,515.17 704.73,508.81C710.91,507.56 717.28,511.68 719,518Z" style="fill:none;fill-rule:nonzero;stroke:white;stroke-width:5.48px;stroke-linecap:butt;stroke-miterlimit:2;"/>
                        </g>
                        <g transform="matrix(4.16667,0,0,4.16667,-1841.5,-1941.2)">
                            <path d="M664,535C661.28,532.64 663.26,530.29 664,528C667.107,518.727 670.247,509.47 673.42,500.23C673.72,499.34 673.77,498.64 672.96,498.05C675.27,492.57 680.4,489.6 684.27,485.52C685.737,484.206 687.32,483.027 689,482C690.66,483.71 690.12,485.65 689.53,487.55C686.81,496.35 684.31,505.23 680.63,513.7C679.785,515.493 679.42,517.474 679.57,519.45C679.57,521.86 677.88,523.26 676.4,524.76C672.714,528.681 668.547,532.122 664,535Z" style="fill:none;fill-rule:nonzero;stroke:white;stroke-width:5.48px;stroke-linecap:butt;stroke-miterlimit:2;"/>
                        </g>
                        <g transform="matrix(4.16667,0,0,4.16667,-1841.5,-1941.2)">
                            <path d="M546,513C545.87,515.28 547,517 548.26,518.81C552.26,524.42 556.03,530.12 559.88,535.81C560.833,537.362 561.228,539.193 561,541L541,532C536.94,522.66 530.1,515 525.11,506.29C524.11,504.64 522.34,503.29 523,501.01C531,504.33 539,507.8 546,513Z" style="fill:none;fill-rule:nonzero;stroke:white;stroke-width:5.48px;stroke-linecap:butt;stroke-miterlimit:2;"/>
                        </g>
                        <g transform="matrix(4.16667,0,0,4.16667,-1841.5,-1941.2)">
                            <path d="M740,599C735.03,597.331 730.317,594.975 726,592C724.6,590.1 725.46,588.45 726.81,587.13C733.3,580.77 738.96,573.59 745.9,567.67C752.39,569.38 756.23,573.75 758.24,579.97C750.79,585 745.86,592.43 740,599Z" style="fill:none;fill-rule:nonzero;stroke:white;stroke-width:5.48px;stroke-linecap:butt;stroke-miterlimit:2;"/>
                        </g>
                        <g transform="matrix(4.16667,0,0,4.16667,-1841.5,-1941.2)">
                            <path d="M522,553L507,532C513.72,524.35 521.39,528.64 528.72,530.49C533.33,531.65 537.72,533.57 543.17,535.49C533.8,539.36 527.56,545.78 522,553Z" style="fill:none;fill-rule:nonzero;stroke:white;stroke-width:5.48px;stroke-linecap:butt;stroke-miterlimit:2;"/>
                        </g>
                        <g transform="matrix(4.16667,0,0,4.16667,-1841.5,-1941.2)">
                            <path d="M661,552C659.91,548.21 664,544.89 662,541C661.31,539.17 662.85,538.36 663.75,537.29C667.67,532.62 672.39,528.75 676.65,524.42C680.03,520.97 683.45,521.23 687.37,524.97C684.23,533.97 681.3,543.06 678,551.97C672.33,554.38 666.67,552.41 661,552Z" style="fill:none;fill-rule:nonzero;stroke:white;stroke-width:5.48px;stroke-linecap:butt;stroke-miterlimit:2;"/>
                        </g>
                        <g transform="matrix(4.16667,0,0,4.16667,-1841.5,-1941.2)">
                            <path d="M746,568C740.89,574.71 734.89,580.62 728.94,586.56C727.41,588.09 725.63,589.46 726,592.01C721.07,589.87 717.09,586.36 713,583.01C712.64,580.54 714.36,579.2 715.81,577.67C717.26,576.14 719,575.24 719,573C718.833,572.165 719.37,571.338 720.2,571.15C727.621,568.135 735.392,566.069 743.33,565C745.5,564.74 747.68,564.69 746,568Z" style="fill:none;fill-rule:nonzero;stroke:white;stroke-width:5.48px;stroke-linecap:butt;stroke-miterlimit:2;"/>
                        </g>
                        <g transform="matrix(4.16667,0,0,4.16667,-1841.5,-1941.2)">
                            <path d="M704,473C709.746,470.525 715.801,468.843 722,468C721.481,470.971 719.734,473.59 717.19,475.21C715.27,476.07 716.32,477.89 716.03,479.21C714.351,487.358 711.007,495.073 706.21,501.87C703.8,505.25 699.98,506.72 696.65,508.87C695.55,509.57 694.1,510.04 693.01,508.8C692.1,507.8 692.65,506.58 693.17,505.54C696.7,498.47 698.05,490.81 699.27,483.11C701.38,480 702.29,476.32 704,473Z" style="fill:none;fill-rule:nonzero;stroke:white;stroke-width:5.48px;stroke-linecap:butt;stroke-miterlimit:2;"/>
                        </g>
                        <g transform="matrix(4.16667,0,0,4.16667,-1841.5,-1941.2)">
                            <path d="M704,473C704.19,476.94 703.3,480.45 700,483C698.23,485 698.45,487.72 698.19,490C697.19,498.86 693.33,506.45 688.46,513.6C686.25,516.84 683.29,519.55 679.01,520.01C677.12,518.01 678.07,516.01 679.01,514.01C683.26,505.01 685.44,495.26 688.82,485.94C689.25,484.75 688.97,483.31 689.02,481.94C693.42,478.06 698.73,475.58 704,473Z" style="fill:none;fill-rule:nonzero;stroke:white;stroke-width:5.48px;stroke-linecap:butt;stroke-miterlimit:2;"/>
                        </g>
                        <g transform="matrix(4.16667,0,0,4.16667,-1841.5,-1941.2)">
                            <path d="M760,605C761.9,598.1 768.68,595.07 772.52,589.6C775.094,586.244 777.995,583.152 781.18,580.37C782.472,579.058 784.172,578.223 786,578C789.58,580.81 791.77,584.23 791,589C784.74,592.16 781.36,598.31 776.57,603C775.99,603.56 775.23,604.19 775.57,605.08C776.02,606.28 777.21,605.96 778.14,605.98L785.08,605.98C781.53,607.98 777.73,606.98 774.08,606.71C769.31,606.42 764.65,605.56 760,605Z" style="fill:none;fill-rule:nonzero;stroke:white;stroke-width:5.48px;stroke-linecap:butt;stroke-miterlimit:2;"/>
                        </g>
                        <g transform="matrix(4.16667,0,0,4.16667,-1841.5,-1941.2)">
                            <path d="M605,606C602.62,601.73 598,603.46 594.47,602.1C593.17,601.59 591.47,602.01 590.01,602C594.92,595.46 601.67,590.81 607.66,585.42C611.32,582.13 614.29,577.98 618.75,575.59C619.98,574.93 621.02,572.52 622.29,573.72C623.56,574.92 624.69,577.97 623.63,579.12C616.16,587.21 615.22,599.83 605,606Z" style="fill:none;fill-rule:nonzero;stroke:white;stroke-width:5.48px;stroke-linecap:butt;stroke-miterlimit:2;"/>
                        </g>
                        <g transform="matrix(4.16667,0,0,4.16667,-1841.5,-1941.2)">
                            <path d="M540,540C545.46,543.93 547.59,550.28 551.23,555.53C552.012,556.584 552.682,557.717 553.23,558.91C553.98,560.66 556.6,561.98 555.47,564.04C554.34,566.1 551.82,564.66 549.95,565.04L538,565.04C534.18,560.04 531.49,554.29 528,549.04C531.17,544.86 535,541.59 540,540Z" style="fill:none;fill-rule:nonzero;stroke:white;stroke-width:5.48px;stroke-linecap:butt;stroke-miterlimit:2;"/>
                        </g>
                        <g transform="matrix(4.16667,0,0,4.16667,-1841.5,-1941.2)">
                            <path d="M717,475C718.51,472.56 719.61,469.84 722,468C726.33,468.48 730.81,466.8 735,469C731.414,476.316 728.728,484.038 727,492C727.17,494.15 725.24,494.26 724,494.75C719.85,496.46 715.82,498.48 711.57,499.92C709.8,500.52 707.48,500.28 708.92,497.79C713.05,490.66 714.67,482.73 717,475Z" style="fill:none;fill-rule:nonzero;stroke:white;stroke-width:5.48px;stroke-linecap:butt;stroke-miterlimit:2;"/>
                        </g>
                        <g transform="matrix(4.16667,0,0,4.16667,-1841.5,-1941.2)">
                            <path d="M678,552C677.32,547.74 679.5,544.12 680.83,540.36C682.67,535.17 683.5,529.54 686.99,525C692.65,524.42 697.99,528.86 698.99,535C694.99,537.67 695.3,542.41 693.68,546.21C693.13,547.48 694.82,547.87 696,547.99C690.344,550.563 684.213,551.929 678,552Z" style="fill:none;fill-rule:nonzero;stroke:white;stroke-width:5.48px;stroke-linecap:butt;stroke-miterlimit:2;"/>
                        </g>
                        <g transform="matrix(4.16667,0,0,4.16667,-1841.5,-1941.2)">
                            <path d="M523,501C528.54,509.43 534.16,517.81 539.52,526.35C540.52,527.9 542.84,529.53 541,531.99C533.55,531.58 529.46,525.99 524.93,521.29C518.54,514.75 514.45,506.91 513.67,497.41C517.32,497.71 520.06,499.65 523,501Z" style="fill:none;fill-rule:nonzero;stroke:white;stroke-width:5.48px;stroke-linecap:butt;stroke-miterlimit:2;"/>
                        </g>
                        <g transform="matrix(4.16667,0,0,4.16667,-1841.5,-1941.2)">
                            <path d="M491.06,544C485.363,538.326 480.933,531.51 478.06,524C489.19,523.79 500.29,523.93 512.62,526.81C502.78,530.49 496.59,536.86 491.06,544Z" style="fill:none;fill-rule:nonzero;stroke:white;stroke-width:5.48px;stroke-linecap:butt;stroke-miterlimit:2;"/>
                        </g>
                        <g transform="matrix(4.16667,0,0,4.16667,-1841.5,-1941.2)">
                            <path d="M644,669.93C635.3,670.93 629.19,666.83 624.38,660C619.67,653.32 615.9,646.28 615,638C615.62,635.06 616.74,634.68 619,637C621.62,639.71 624,642.63 626.56,645.45C629.41,648.63 632.23,651.84 634.98,655.11C635.51,655.91 634.9,657.23 636.16,657.74C638.92,659.74 640.77,662.5 642.91,665.02C644.06,666.37 645.4,667.94 644,669.93Z" style="fill:none;fill-rule:nonzero;stroke:white;stroke-width:5.48px;stroke-linecap:butt;stroke-miterlimit:2;"/>
                        </g>
                        <g transform="matrix(4.16667,0,0,4.16667,-1841.5,-1941.2)">
                            <path d="M613,626C610.59,619.22 612.54,612.56 613.57,605.88C613.71,604.88 613.88,603.96 614.03,602.99C614.376,602.624 614.857,602.417 615.36,602.417C615.863,602.417 616.344,602.624 616.69,602.99C620.17,606.72 624.69,609.64 626.27,614.93C625.09,616.5 623.27,616.52 621.5,616.93C622.5,617.07 623.4,616.76 624.33,616.83C630.33,619.37 633.59,624.26 635.77,630.08C634.12,633.72 631.55,635.93 627.31,635.56C623.21,630.85 620.12,625.25 614.76,621.25C613.61,622.61 614.63,624.88 613,626Z" style="fill:none;fill-rule:nonzero;stroke:white;stroke-width:5.48px;stroke-linecap:butt;stroke-miterlimit:2;"/>
                        </g>
                        <g transform="matrix(4.16667,0,0,4.16667,-1841.5,-1941.2)">
                            <path d="M534,708.92C533.16,705.63 530.42,706.24 528,705.92C524,705.37 519.94,704.62 515.92,703.92C513.31,701.11 510,698.57 511.92,693.92C522.46,694.44 532.73,697.04 543.19,698.23C543.82,698.3 544.34,699.3 544.91,699.87L534,708.92Z" style="fill:none;fill-rule:nonzero;stroke:white;stroke-width:5.48px;stroke-linecap:butt;stroke-miterlimit:2;"/>
                        </g>
                        <g transform="matrix(4.16667,0,0,4.16667,-1841.5,-1941.2)">
                            <path d="M613,626C613.24,623.58 612.55,621.08 613.73,618C618.65,623.63 624.73,627.71 627.01,635C626.13,636.45 624.24,635.67 623.25,636.72C625.66,636.672 627.932,637.872 629.25,639.89C631.52,643.34 635.33,645.53 637.06,649.43C637.29,651.91 637.06,654.22 635.06,656.01C629.06,651.25 624.66,645.01 619.72,639.31C617.38,636.59 616.94,636.31 615.06,638.03C613.14,634.19 612.91,630.12 613,626Z" style="fill:none;fill-rule:nonzero;stroke:white;stroke-width:5.48px;stroke-linecap:butt;stroke-miterlimit:2;"/>
                        </g>
                        <g transform="matrix(4.16667,0,0,4.16667,-1841.5,-1941.2)">
                            <path d="M623,584C625.41,581.28 627.09,578.4 625.35,574.61C625.01,573.87 624.87,572.87 625.84,572.51C626.479,572.393 627.138,572.538 627.67,572.91C628.46,573.44 629.67,574.15 629.73,574.91C630.34,583.03 637.31,587 641.29,592.91C645.82,599.61 650.49,606.22 652.99,614.04C649.67,614.8 648.13,612.39 646.78,610.22C644.11,605.95 640.14,602.83 637.26,598.78C636.385,597.547 635.052,596.715 633.56,596.47C630.56,594.93 631.82,590.47 628.42,589.24C625.913,588.408 623.916,586.478 623,584Z" style="fill:none;fill-rule:nonzero;stroke:white;stroke-width:5.48px;stroke-linecap:butt;stroke-miterlimit:2;"/>
                        </g>
                        <g transform="matrix(4.16667,0,0,4.16667,-1841.5,-1941.2)">
                            <path d="M740,599C742.21,592.11 748.31,588.25 752.59,583C753.93,581.34 755.44,579.66 757.98,580C761.33,582.52 762.51,585.91 761.98,590C759.21,589.6 757.76,591.6 756.26,593.29C753.75,596.12 751.41,599.09 749,601.99C745.91,601.2 742.74,600.71 740,599Z" style="fill:none;fill-rule:nonzero;stroke:white;stroke-width:5.48px;stroke-linecap:butt;stroke-miterlimit:2;"/>
                        </g>
                        <g transform="matrix(4.16667,0,0,4.16667,-1841.5,-1941.2)">
                            <path d="M657,629C658.5,633.24 657.89,637.65 658,642C654.59,643.27 653.62,640.8 652.55,638.48C652.63,636.57 651.41,635.48 650.02,634.48C643.51,629.88 640.02,623.15 637.02,616.08C636.02,613.82 635.23,611.38 636.75,608.93C638.6,607.76 640.05,608.81 641.09,610.08C646.26,616.45 652.52,622 657,629Z" style="fill:none;fill-rule:nonzero;stroke:white;stroke-width:5.48px;stroke-linecap:butt;stroke-miterlimit:2;"/>
                        </g>
                        <g transform="matrix(4.16667,0,0,4.16667,-1841.5,-1941.2)">
                            <path d="M657,629C651,624.51 647,618.15 641.92,612.77C640.46,611.23 639.47,609.2 637,609.01C633.92,605.16 632.26,601.01 634,596.01C635.48,594.29 636.4,595.84 637.15,596.72C640.58,600.72 644.08,604.66 647.15,608.89C648.77,611.09 650.36,613.03 652.96,614C654.85,618.83 656.79,623.67 657,629Z" style="fill:none;fill-rule:nonzero;stroke:white;stroke-width:5.48px;stroke-linecap:butt;stroke-miterlimit:2;"/>
                        </g>
                        <g transform="matrix(4.16667,0,0,4.16667,-1841.5,-1941.2)">
                            <path d="M706,567C705.06,571.31 700,572.76 699,577L679,576C677.41,574 678,572.24 679.56,570.69C681.12,569.14 682.22,567.28 683.99,566.01C691.37,565.29 698.62,567.47 706,567Z" style="fill:none;fill-rule:nonzero;stroke:white;stroke-width:5.48px;stroke-linecap:butt;stroke-miterlimit:2;"/>
                        </g>
                        <g transform="matrix(4.16667,0,0,4.16667,-1841.5,-1941.2)">
                            <path d="M626,615C622,611 619.59,605.45 614,603C614.866,599.18 616.21,595.484 618,592C618.387,591.631 618.901,591.425 619.436,591.425C620.096,591.425 620.718,591.739 621.11,592.27C625.5,597.78 631.11,602.35 633.83,609.13C633,613.39 630.26,615.22 626,615Z" style="fill:none;fill-rule:nonzero;stroke:white;stroke-width:5.48px;stroke-linecap:butt;stroke-miterlimit:2;"/>
                        </g>
                        <g transform="matrix(4.16667,0,0,4.16667,-1841.5,-1941.2)">
                            <path d="M653,638C654.24,639.86 655.46,641.75 658,642C658,646.11 658.33,650.27 656,654L655.31,653.7C648.31,648.44 642.58,642.17 639.09,633.99C637.814,631.094 637.465,627.872 638.09,624.77C638.29,623.77 639.37,621.89 640.26,623.41C643.58,629.09 649.25,632.67 653,638Z" style="fill:none;fill-rule:nonzero;stroke:white;stroke-width:5.48px;stroke-linecap:butt;stroke-miterlimit:2;"/>
                        </g>
                        <g transform="matrix(4.16667,0,0,4.16667,-1841.5,-1941.2)">
                            <path d="M528,549C533.2,553.16 535.72,559 538,565C533.06,565 528.12,564.93 523.18,565C520.6,565.06 520.07,564.18 520.88,561.77C522.391,557.087 524.81,552.747 528,549Z" style="fill:none;fill-rule:nonzero;stroke:white;stroke-width:5.48px;stroke-linecap:butt;stroke-miterlimit:2;"/>
                        </g>
                        <g transform="matrix(4.16667,0,0,4.16667,-1841.5,-1941.2)">
                            <path d="M656,654C655.711,658.148 653.935,662.055 651,665C647.6,661.06 644.84,656.62 641,653C639.79,651.83 638.61,652.08 637.44,651.6C636.88,648.31 637.86,645.09 637.94,641.82C637.886,640.437 638.846,639.205 640.2,638.92C641.56,638.66 642.2,639.79 642.85,640.77C646.19,646.22 651.1,650.1 655.96,654.04L656,654Z" style="fill:none;fill-rule:nonzero;stroke:white;stroke-width:5.48px;stroke-linecap:butt;stroke-miterlimit:2;"/>
                        </g>
                        <g transform="matrix(4.16667,0,0,4.16667,-1841.5,-1941.2)">
                            <path d="M684,566C683.71,568 683,569.93 681.11,570.9C678.85,572 679,574 679,576C674.81,575.76 671.66,573.21 668.27,571.17C664.653,569.142 661.151,566.916 657.78,564.5C666.59,564.62 675.33,564.43 684,566Z" style="fill:none;fill-rule:nonzero;stroke:white;stroke-width:5.48px;stroke-linecap:butt;stroke-miterlimit:2;"/>
                        </g>
                        <g transform="matrix(4.16667,0,0,4.16667,-1841.5,-1941.2)">
                            <path d="M633,609C628.27,603.1 624.67,596.2 618,592L623,584C625.28,584.89 626.14,587.94 629,588C632.14,593.69 633.61,599.94 634.92,606.22C635.18,607.38 636.24,609.87 633,609Z" style="fill:none;fill-rule:nonzero;stroke:white;stroke-width:5.48px;stroke-linecap:butt;stroke-miterlimit:2;"/>
                        </g>
                        <g transform="matrix(4.16667,0,0,4.16667,-1841.5,-1941.2)">
                            <path d="M638,652C638.88,651.67 639.28,649.71 640.73,651.25C644.67,655.44 649.52,658.95 650.97,664.99C649.33,667.63 647.17,669.54 643.97,669.99C642.64,664.76 638.31,661.79 634.97,658.07C636.54,656.27 635.94,653.44 638,652Z" style="fill:none;fill-rule:nonzero;stroke:white;stroke-width:5.48px;stroke-linecap:butt;stroke-miterlimit:2;"/>
                        </g>
                        <g transform="matrix(4.16667,0,0,4.16667,-1841.5,-1941.2)">
                            <path d="M702,577C703.68,577.23 705.6,576.33 707,578C705.3,577.74 703.39,578.64 702,577Z" style="fill:none;fill-rule:nonzero;stroke:white;stroke-width:5.48px;stroke-linecap:butt;stroke-miterlimit:2;"/>
                        </g>
                        <g transform="matrix(4.16667,0,0,4.16667,-1841.5,-1941.2)">
                            <path d="M561,630C553,632.86 544.76,635.44 538,641L537.63,641.6C535.02,643.53 531.98,644.78 529.42,646.78C522.74,651.21 516.09,655.66 510.13,661.06C509.82,661.394 509.486,661.705 509.13,661.99C499.558,669.995 490.763,678.884 482.86,688.54C480.2,691.64 478.37,695.44 475.02,697.96L471.02,701.46C472.12,697.04 474.32,694.61 476.02,691.93L487,678L500.55,665.07C486.05,666.78 473,664 461,656C461.26,653.84 462.22,654.13 463.66,655.1C474.99,662.77 487.39,664.5 500.66,662.1C503.412,661.614 505.971,660.359 508.04,658.48C512.38,654.78 516.96,651.35 522.21,647.2C509.78,649.42 499.21,646.79 488.95,641.99C487.88,640.13 484.8,640.52 484.3,637.99C485.24,636.62 486.2,637.53 486.88,637.99C499.13,646.48 512.69,647.52 526.6,644.2C531.06,643.14 534.98,639.71 539.06,637.2C540.63,636.26 542.06,635.12 543.94,634.93C552.76,630.69 561.48,626.19 570.94,623.72L571.54,625.07L561,630Z" style="fill:none;fill-rule:nonzero;stroke:white;stroke-width:5.48px;stroke-linecap:butt;stroke-miterlimit:2;"/>
                        </g>
                        <g transform="matrix(4.16667,0,0,4.16667,-1841.5,-1941.2)">
                            <path d="M762,590C761.38,586.38 759.65,583.21 758,580C754.89,575.11 751.35,570.66 746,568C746.22,566 745.46,565.58 743.44,565.9C734.993,567.074 726.761,569.465 719,573C717.22,571 717.17,570.87 719.69,570C724.76,568.24 729.9,566.66 735.01,565C747.61,563.37 760.38,562.35 769.71,551.87C773.8,547.27 776.15,541.74 778.93,535.87C780.72,538.36 778.39,540.12 778.98,541.96C774.7,548.96 770.29,555.96 762.47,560.33C781.47,563.64 792.05,557.01 800.47,539.23C800.67,538.82 800.17,534.09 803.01,537.97C799.52,548.05 793.08,555.73 783.21,561.4L805,565C809.54,566.53 814.43,567.1 818.65,569.46L818.34,570.66L806,568C800.58,568.91 795.55,566.48 790.27,566.1C787.27,565.88 784.34,565.41 781.35,565.39C770.45,562.64 759.58,566.25 749.51,565.9C754,569.25 758.9,573.43 761,580C762.18,585.1 764.88,589.89 764.85,596C761.73,594.26 762,592 762,590Z" style="fill:none;fill-rule:nonzero;stroke:white;stroke-width:5.48px;stroke-linecap:butt;stroke-miterlimit:2;"/>
                        </g>
                        <g transform="matrix(4.16667,0,0,4.16667,-1841.5,-1941.2)">
                            <path d="M781,564C789.487,564.071 797.915,565.419 806,568C803.47,573.7 798,576.82 794.22,581.44C793.51,582.32 792.74,583.16 792,584.01C790.64,584.45 790.22,583.37 789.87,582.52C787.49,576.61 783.41,571.88 779.34,567.12C779,565.59 779.78,564.68 781,564Z" style="fill:none;fill-rule:nonzero;stroke:white;stroke-width:5.48px;stroke-linecap:butt;stroke-miterlimit:2;"/>
                        </g>
                        <g transform="matrix(4.16667,0,0,4.16667,-1841.5,-1941.2)">
                            <path d="M780,567C785.56,571.57 788.87,577.72 792,584C792.47,586.26 792.91,588.52 793.43,590.77C793.68,591.86 794.5,593.29 792.86,593.65C790.72,594.12 791.17,592.21 791.03,590.99C790.95,590.34 791.03,589.67 790.96,588.99C790.52,584.77 787.52,581.71 785.96,577.99C784.02,573.07 780.08,569.99 775.96,566.99C775.41,566.18 773.32,566.73 773.96,564.9C774.49,563.47 775.69,563.76 776.82,564.08C778.41,564.51 779.19,565.74 780,567Z" style="fill:none;fill-rule:nonzero;stroke:white;stroke-width:5.48px;stroke-linecap:butt;stroke-miterlimit:2;"/>
                        </g>
                        <g transform="matrix(4.16667,0,0,4.16667,-1841.5,-1941.2)">
                            <path d="M509,661C514.69,654.7 521.84,650.34 529,646C532.6,644.7 535.38,645.4 536.91,649.2C537.07,657.25 536.4,665.39 539.38,673.2C539.577,673.824 539.433,674.509 539,675C529,674.15 518.89,673.48 509.06,671C506.78,667.64 510.38,664.3 509,661Z" style="fill:none;fill-rule:nonzero;stroke:white;stroke-width:5.48px;stroke-linecap:butt;stroke-miterlimit:2;"/>
                        </g>
                        <g transform="matrix(4.16667,0,0,4.16667,-1841.5,-1941.2)">
                            <path d="M509,661C510.81,661.18 511.06,662.16 510.63,663.78C509.99,666.16 509.55,668.59 509.03,671C509.27,678.75 507.71,686.75 511.98,694C511.71,698 515.23,700.41 515.98,704L513.98,704C509.73,700.8 508.74,695.79 506.86,691.27C505.1,683.8 503.86,676.33 505.67,668.64C506.33,665.85 507.07,663.2 508.98,661L509,661Z" style="fill:none;fill-rule:nonzero;stroke:white;stroke-width:5.48px;stroke-linecap:butt;stroke-miterlimit:2;"/>
                        </g>
                        <g transform="matrix(4.16667,0,0,4.16667,-1841.5,-1941.2)">
                            <path d="M539,675C535.68,666.61 535.77,657.82 536,649C536,646.16 535.61,643.23 538,641C538.056,640.995 538.112,640.992 538.168,640.992C539.177,640.992 540.008,641.823 540.008,642.832C540.008,642.888 540.005,642.944 540,643C538.365,647.822 537.686,652.918 538,658C538,665.86 539.46,673.35 544,680C544.34,681.16 545.65,682.25 544,683.83C541.56,681.24 540.71,677.83 539,675Z" style="fill:none;fill-rule:nonzero;stroke:white;stroke-width:5.48px;stroke-linecap:butt;stroke-miterlimit:2;"/>
                        </g>
                        <g transform="matrix(4.16667,0,0,4.16667,-1841.5,-1941.2)">
                            <path d="M508.05,692L514.05,704C501.05,702.13 487.91,700.74 475.05,698C476.56,694.08 479.59,691.24 482.11,688C490.88,688.22 499.66,688.79 508.05,692Z" style="fill:none;fill-rule:nonzero;stroke:white;stroke-width:5.48px;stroke-linecap:butt;stroke-miterlimit:2;"/>
                        </g>
                        <g transform="matrix(4.16667,0,0,4.16667,-1841.5,-1941.2)">
                            <path d="M699,535C696.5,529.87 692.65,526.37 687,525C682.64,522.73 679,522.54 675.37,527C671.31,532 666.49,536.4 662.01,541C660.57,540.81 659.69,540.27 660.84,538.78C661.84,537.48 662.94,536.26 664,535C668.1,529.1 675.11,526.11 679,520C691.84,511.95 696.11,499.23 698,485.2C698.23,483.51 698.23,483.51 700,483.01C700,492.01 697.28,500.22 692.81,508.94C701.29,506.09 706.27,500.88 709.74,493.68C713.196,486.708 715.097,479.068 715.31,471.29C717.63,472.29 716.72,473.87 717.02,475.02C716.76,483.75 713.51,491.54 708.79,499.87L727,492C730.12,491.42 733.1,489.95 737.81,490.25C733.41,493.25 729.43,493.47 726.01,495.02C719.89,499.87 712.12,501.39 706.14,505.43C710.84,506.76 716.31,508.25 719.01,513.99C720.38,516.34 722.4,518.4 722.68,521.6C720.03,521.51 719.94,519.31 718.97,517.99C715.51,513.15 711.39,509.31 704.97,508.99C696.37,508.62 691.85,515.42 685.23,519.77C689.97,522.83 695.62,523.77 697.96,528.99C699.03,530.81 700.14,532.61 701.16,534.47C701.6,535.28 702.26,536.39 700.72,536.76C699.42,537.09 699.15,536 699,535Z" style="fill:none;fill-rule:nonzero;stroke:white;stroke-width:5.48px;stroke-linecap:butt;stroke-miterlimit:2;"/>
                        </g>
                        <g transform="matrix(4.16667,0,0,4.16667,-1841.5,-1941.2)">
                            <path d="M719,514C714.77,510.37 710.53,506.76 704.4,506.13C711.05,500.7 718.52,497.86 726,495.03C724.45,501.64 722.84,508.24 719,514Z" style="fill:none;fill-rule:nonzero;stroke:white;stroke-width:5.48px;stroke-linecap:butt;stroke-miterlimit:2;"/>
                        </g>
                        <g transform="matrix(4.16667,0,0,4.16667,-1841.5,-1941.2)">
                            <path d="M780,567C778.91,566.31 777.84,565.58 776.73,564.92C776.02,564.49 775.05,564.13 774.73,565.19C774.61,565.66 775.52,566.4 775.96,567.02C769.45,568.28 767.04,574.51 762.49,578.14C761.93,578.707 761.431,579.33 761,580C756.55,575.25 753.57,569.19 747.62,565.6C758.9,564.29 769.84,561.53 781.02,563.99L780,567Z" style="fill:none;fill-rule:nonzero;stroke:white;stroke-width:5.48px;stroke-linecap:butt;stroke-miterlimit:2;"/>
                        </g>
                        <g transform="matrix(4.16667,0,0,4.16667,-1841.5,-1941.2)">
                            <path d="M698,529C693.83,526.11 690.18,522.43 684.68,521.83C682.36,521.57 683.53,519.93 684.49,519.07C689.341,514.851 694.528,511.034 700,507.66C701.93,506.45 703.31,508.55 705,509C703.77,516.06 702.09,523 698,529Z" style="fill:none;fill-rule:nonzero;stroke:white;stroke-width:5.48px;stroke-linecap:butt;stroke-miterlimit:2;"/>
                        </g>
                        <g transform="matrix(4.16667,0,0,4.16667,-1841.5,-1941.2)">
                            <path d="M638,652C637.57,654.31 638,657.06 635,658C633.88,657.32 634.93,656.64 635,656L636,649C635.42,644.59 635.71,640.13 635.55,635.07C630.55,638.66 625.26,637.9 620,636.96C621.47,633.28 624.69,635.74 627,634.96C630.55,634.71 633.06,632.79 635,629.96C636.88,624.5 634.8,619.3 634.06,613.24C631.33,617.13 627.61,617.41 623.99,617.96C621.9,617.96 619.71,618.18 617.89,615.11C621.11,616.36 623.48,615.11 625.99,614.95C628.62,613.3 632.42,613.02 632.99,608.95C635.99,607.95 633.91,605.79 633.6,604.51C632.29,598.94 630.6,593.51 628.99,587.95C633.14,589.07 631.43,593.83 633.99,595.95C634.22,600.46 635.99,604.63 636.99,608.95C637.66,619.1 642.85,626.79 650.38,633.08C653.72,635.88 654,635.88 652.99,637.94C647.79,633.94 642.99,629.59 639.27,623C637.96,632.68 642.68,638.92 647.64,645.15C650.18,648.33 654.29,649.99 655.99,653.94C648.76,651.31 644.87,645.04 639.84,638.06C639.12,643.65 638.57,647.81 638,652Z" style="fill:none;fill-rule:nonzero;stroke:white;stroke-width:5.48px;stroke-linecap:butt;stroke-miterlimit:2;"/>
                        </g>
                        <g transform="matrix(4.16667,0,0,4.16667,-1841.5,-1941.2)">
                            <path d="M624,618C627,616.78 630.06,615.67 632.67,613.66C633.52,613 634.91,611.81 635.26,613.76C636.19,618.83 638.34,623.88 636.18,629.13C636.02,629.51 635.41,629.71 635.01,630C631.8,625.53 629.7,620.1 624,618Z" style="fill:none;fill-rule:nonzero;stroke:white;stroke-width:5.48px;stroke-linecap:butt;stroke-miterlimit:2;"/>
                        </g>
                        <g transform="matrix(4.16667,0,0,4.16667,-1841.5,-1941.2)">
                            <path d="M620,636.94C630,637.08 630,637.08 637,632.3C636.6,638.2 638.1,643.62 636,648.98C633.6,646.56 630.52,644.62 629.12,641.47C627.23,637.24 622.85,638.81 620,636.94Z" style="fill:none;fill-rule:nonzero;stroke:white;stroke-width:5.48px;stroke-linecap:butt;stroke-miterlimit:2;"/>
                        </g>
                        <g transform="matrix(4.16667,0,0,4.16667,-1841.5,-1941.2)">
                            <path d="M508.05,692C499.32,691 490.51,690.67 482.05,688C489.98,677.93 498.69,668.63 509.05,661C505.42,671.18 506,681.54 508.05,692Z" style="fill:none;fill-rule:nonzero;stroke:white;stroke-width:5.48px;stroke-linecap:butt;stroke-miterlimit:2;"/>
                        </g>
                        <g transform="matrix(4.16667,0,0,4.16667,-1841.5,-1941.2)">
                            <path d="M538,641C537.47,643.7 537.5,646.55 536,649C534.38,646.34 531.59,646.4 529,646C531.502,643.564 534.609,641.838 538,641Z" style="fill:none;fill-rule:nonzero;stroke:white;stroke-width:5.48px;stroke-linecap:butt;stroke-miterlimit:2;"/>
                        </g>
                    </g>
                </g>
                <g transform="matrix(0.35233,0,0,0.283898,2267.95,1993.31)">
                    <g id="path28" transform="matrix(4.16667,0,0,4.16667,-28.7328,-37.669)">
                        <path d="M22.952,33.319L40.318,33.152C40.318,30.947 40.344,28.029 40.344,26.193C40.344,26.145 40.248,26.178 40.199,26.178L22.952,26.178C19.449,26.178 17.427,25.1 16.619,23.753C16.484,23.348 16.35,22.944 16.35,22.675C16.35,22.271 16.484,21.866 16.619,21.462C17.427,20.115 19.449,19.037 22.952,19.037L36.699,19.157C36.699,21.043 36.651,13.068 36.651,11.895L22.952,11.895M22.952,11.895C16.619,11.895 12.442,14.456 10.421,17.824C9.612,19.306 9.074,20.923 9.074,22.675C9.074,24.292 9.612,25.909 10.421,27.391C12.442,30.759 16.619,33.319 22.952,33.319" style="fill:white;stroke:white;stroke-width:7.11px;stroke-linecap:butt;stroke-linejoin:miter;stroke-miterlimit:4;"/>
                    </g>
                    <g id="path30" transform="matrix(4.16667,0,0,4.16667,-28.7328,-37.669)">
                        <path d="M150.551,204.44C150.551,238.125 124.277,371.923 108.378,386.879C103.527,391.461 94.095,391.73 88.975,386.879C72.941,372.058 46.801,238.125 46.936,204.44L46.936,35.61L150.551,35.61L150.551,204.44Z" style="fill:none;stroke:white;stroke-width:6.86px;stroke-linecap:butt;stroke-miterlimit:2;"/>
                    </g>
                    <g id="path38" transform="matrix(4.16667,0,0,4.16667,-28.7328,-37.669)">
                        <rect x="40.333" y="22.675" width="116.82" height="12.935" style="fill:none;stroke:white;stroke-width:7.11px;stroke-miterlimit:4;"/>
                    </g>
                    <g id="path40" transform="matrix(4.16667,0,0,4.16667,-28.7328,-37.669)">
                        <rect x="36.695" y="9.605" width="124.231" height="13.07" style="fill:none;stroke:white;stroke-width:7.11px;stroke-miterlimit:4;"/>
                    </g>
                    <g id="path50" transform="matrix(4.16667,0,0,4.16667,-28.7328,-37.669)">
                        <path d="M54.616,67.409L110.803,67.409L54.616,67.409ZM54.616,154.99L110.803,154.99L54.616,154.99ZM54.616,242.707L110.803,242.707L54.616,242.707Z" style="fill:none;stroke:white;stroke-opacity:0.8;stroke-width:6.86px;stroke-linecap:butt;stroke-miterlimit:2;"/>
                    </g>
                </g>
            </g>
            <g transform="matrix(4.59411,-1.38778e-17,0,1.3569,-11588.5,-814.704)">
                <g transform="matrix(0.21767,2.22623e-18,-0,0.736971,2642.78,1607.3)">
                    <path d="M1474.41,317.962C1472.81,316.896 1470.76,316.797 1469.06,317.703C1467.37,318.61 1466.31,320.375 1466.31,322.296L1466.31,416.046C1466.31,417.966 1467.37,419.731 1469.06,420.638C1470.76,421.544 1472.81,421.445 1474.41,420.379L1544.72,373.504C1546.17,372.538 1547.04,370.912 1547.04,369.171C1547.04,367.429 1546.17,365.803 1544.72,364.837L1474.41,317.962ZM1476.73,332.027L1532.44,369.171C1532.44,369.171 1476.73,406.314 1476.73,406.314L1476.73,332.027Z" style="fill:white;"/>
                    <path d="M484.715,374.379L1471.52,374.379C1474.39,374.379 1476.73,372.045 1476.73,369.171C1476.73,366.296 1474.39,363.962 1471.52,363.962L484.715,363.962C481.841,363.962 479.507,366.296 479.507,369.171C479.507,372.045 481.841,374.379 484.715,374.379Z" style="fill:white;"/>
                </g>
            </g>
            <g transform="matrix(4.59411,-2.77556e-17,0,1.3569,-11588.5,-424.617)">
                <g transform="matrix(0.21767,4.45246e-18,-0,0.736971,2642.78,1319.81)">
                    <path d="M1474.41,708.049C1472.81,706.984 1470.76,706.884 1469.06,707.791C1467.37,708.697 1466.31,710.462 1466.31,712.383L1466.31,806.133C1466.31,808.053 1467.37,809.818 1469.06,810.725C1470.76,811.631 1472.81,811.532 1474.41,810.466L1544.72,763.591C1546.17,762.625 1547.04,760.999 1547.04,759.258C1547.04,757.516 1546.17,755.89 1544.72,754.924L1474.41,708.049ZM1476.73,722.115L1532.44,759.258C1532.44,759.258 1476.73,796.401 1476.73,796.401L1476.73,722.115Z" style="fill:white;"/>
                    <path d="M484.715,764.466L1471.52,764.466C1474.39,764.466 1476.73,762.132 1476.73,759.258C1476.73,756.383 1474.39,754.049 1471.52,754.049L484.715,754.049C481.841,754.049 479.507,756.383 479.507,759.258C479.507,762.132 481.841,764.466 484.715,764.466Z" style="fill:white;"/>
                </g>
            </g>
        </g>
    </g>
</svg>
