<svg width="1187" height="403" xmlns="http://www.w3.org/2000/svg" xmlns:xlink="http://www.w3.org/1999/xlink" xml:space="preserve" overflow="hidden"><defs><clipPath id="clip0"><rect x="368" y="894" width="1187" height="403"/></clipPath><clipPath id="clip1"><rect x="396" y="962" width="226" height="199"/></clipPath><clipPath id="clip2"><rect x="396" y="962" width="226" height="199"/></clipPath><clipPath id="clip3"><rect x="396" y="962" width="226" height="199"/></clipPath><clipPath id="clip4"><rect x="733" y="982" width="185" height="159"/></clipPath><clipPath id="clip5"><rect x="733" y="982" width="185" height="159"/></clipPath><clipPath id="clip6"><rect x="733" y="982" width="185" height="159"/></clipPath></defs><g clip-path="url(#clip0)" transform="translate(-368 -894)"><g clip-path="url(#clip1)"><g clip-path="url(#clip2)"><g clip-path="url(#clip3)"><path d="M166.219 155.959 30.7813 155.959C26.2667 155.959 22.573 152.265 22.573 147.75L22.573 49.2501C22.573 44.7355 26.2667 41.0417 30.7813 41.0417L69.3605 41.0417C71.0022 41.0417 72.6439 41.4522 73.8751 42.4782L96.4481 57.4584 166.219 57.4584C170.734 57.4584 174.427 61.1522 174.427 65.6668L174.427 147.75C174.427 152.265 170.734 155.959 166.219 155.959Z" stroke="#3A3838" stroke-width="4.10417" fill="none" transform="matrix(1.14721 0 0 1 396 963)"/></g></g></g><text fill="#3A3838" font-family="Calibri,Calibri_MSFontService,sans-serif" font-weight="400" font-size="48" transform="matrix(1 0 0 1 407.311 1176)">workflows</text><rect x="464.5" y="1057.5" width="25.0001" height="46.0001" stroke="#41719C" stroke-width="3.4375" stroke-linecap="round" stroke-linejoin="round" stroke-miterlimit="10" fill="#5B9BD5"/><rect x="497.5" y="1045.5" width="26.0002" height="58.0001" stroke="#41719C" stroke-width="3.4375" stroke-linecap="round" stroke-linejoin="round" stroke-miterlimit="10" fill="#5B9BD5"/><rect x="530.5" y="1033.5" width="25.0001" height="69.9998" stroke="#41719C" stroke-width="3.4375" stroke-linecap="round" stroke-linejoin="round" stroke-miterlimit="10" fill="#5B9BD5"/><path d="M626 1061 677.409 1061" stroke="#5B9BD5" stroke-width="13.75" stroke-linecap="round" stroke-linejoin="round" stroke-miterlimit="10" fill="none" fill-rule="evenodd"/><path d="M679 1198.75 679 1096" stroke="#5B9BD5" stroke-width="13.75" stroke-linecap="round" stroke-linejoin="round" stroke-miterlimit="10" fill="none" fill-rule="evenodd"/><path d="M679 1225 730.409 1225" stroke="#5B9BD5" stroke-width="13.75" stroke-linecap="round" stroke-linejoin="round" stroke-miterlimit="10" fill="none" fill-rule="evenodd"/><path d="M677 1061 728.409 1061" stroke="#5B9BD5" stroke-width="13.75" stroke-linecap="round" stroke-linejoin="round" stroke-miterlimit="10" fill="none" fill-rule="evenodd"/><path d="M0 0 0.000360892 64.4738" stroke="#5B9BD5" stroke-width="13.75" stroke-linecap="round" stroke-linejoin="round" stroke-miterlimit="10" fill="none" fill-rule="evenodd" transform="matrix(1 0 0 -1 507 1268.47)"/><text fill="#3A3838" font-family="Calibri,Calibri_MSFontService,sans-serif" font-weight="400" font-size="48" transform="matrix(1 0 0 1 714.444 1179)">&lt;workflow1&gt;</text><g clip-path="url(#clip4)"><g clip-path="url(#clip5)"><g clip-path="url(#clip6)"><path d="M134.156 125.875 24.8437 125.875C21.2 125.875 18.2187 122.894 18.2187 119.25L18.2187 39.75C18.2187 36.1062 21.2 33.125 24.8437 33.125L55.9812 33.125C57.3062 33.125 58.6312 33.4562 59.6249 34.2843L77.8437 46.3749 134.156 46.3749C137.8 46.3749 140.781 49.3562 140.781 52.9999L140.781 119.25C140.781 122.894 137.8 125.875 134.156 125.875Z" stroke="#3A3838" stroke-width="3.3125" fill="none" transform="matrix(1.15095 0 0 1 734 982)"/></g></g></g><text fill="#3A3838" font-family="Calibri,Calibri_MSFontService,sans-serif" font-weight="700" font-size="48" transform="matrix(1 0 0 1 795.972 1254)">…<tspan font-weight="400" font-size="48" x="388.401" y="-123">script / code /  …</tspan></text><path d="M950 1067 1007.74 1067" stroke="#5B9BD5" stroke-width="13.75" stroke-linecap="round" stroke-linejoin="round" stroke-miterlimit="10" fill="none" fill-rule="evenodd"/><path d="M1004 1067 1092.12 1067" stroke="#5B9BD5" stroke-width="13.75" stroke-linecap="round" stroke-linejoin="round" stroke-miterlimit="10" fill="none" fill-rule="evenodd"/><path d="M0 0 0.106102 68.8958" stroke="#5B9BD5" stroke-width="13.75" stroke-linecap="round" stroke-linejoin="round" stroke-miterlimit="10" fill="none" fill-rule="evenodd" transform="matrix(1 0 0 -1 1038 1164.9)"/><path d="M1035 1203 1123.12 1203" stroke="#5B9BD5" stroke-width="13.75" stroke-linecap="round" stroke-linejoin="round" stroke-miterlimit="10" fill="none" fill-rule="evenodd"/><rect x="791.5" y="1060.5" width="17.9999" height="34" stroke="#41719C" stroke-width="3.4375" stroke-linecap="round" stroke-linejoin="round" stroke-miterlimit="10" fill="#5B9BD5"/><rect x="813.5" y="1052.5" width="18.9999" height="41.9999" stroke="#41719C" stroke-width="3.4375" stroke-linecap="round" stroke-linejoin="round" stroke-miterlimit="10" fill="#5B9BD5"/><rect x="837.5" y="1043.5" width="19.0002" height="50.9999" stroke="#41719C" stroke-width="3.4375" stroke-linecap="round" stroke-linejoin="round" stroke-miterlimit="10" fill="#5B9BD5"/><path d="M1156.45 1085 1138 1069 1156.45 1053 1161 1056.95 1147.14 1069 1161 1081.05 1156.45 1085Z" fill="#5B9BD5" fill-rule="evenodd"/><path d="M1199.75 1085 1195 1081.05 1209.46 1069 1195 1056.95 1199.75 1053 1219 1069 1199.75 1085Z" fill="#5B9BD5" fill-rule="evenodd"/><path d="M1168.2 1084.79 1181.81 1051.95 1187.86 1054.45 1174.25 1087.29Z" fill="#5B9BD5" fill-rule="evenodd"/><path d="M1152.01 1172.51 1170.64 1153.55 1176.6 1159.41 1157.98 1178.36Z" fill="#ED7D31" fill-rule="evenodd"/><path d="M1151.23 1199.42 1170.64 1179.67 1176.6 1185.53 1157.2 1205.28Z" fill="#ED7D31" fill-rule="evenodd"/><path d="M1150.92 1227.18 1170.24 1207.52 1176.2 1213.38 1156.89 1233.04Z" fill="#ED7D31" fill-rule="evenodd"/><path d="M1170.86 1191.14 1152.36 1172.97 1158.22 1167 1176.71 1185.17Z" fill="#ED7D31" fill-rule="evenodd"/><path d="M1170.71 1218.86 1151.17 1199.66 1157.03 1193.7 1176.57 1212.89Z" fill="#ED7D31" fill-rule="evenodd"/><path d="M1164.58 1240.59 1151.16 1227.41 1157.02 1221.44 1170.44 1234.63Z" fill="#ED7D31" fill-rule="evenodd"/><text fill="#3A3838" font-family="Calibri,Calibri_MSFontService,sans-serif" font-weight="400" font-size="48" transform="matrix(1 0 0 1 1189.71 1219)">CWL</text><path d="M0 0 0.000360892 64.4738" stroke="#5B9BD5" stroke-width="13.75" stroke-linecap="round" stroke-linejoin="round" stroke-miterlimit="10" fill="none" fill-rule="evenodd" transform="matrix(1 0 0 -1 510 965.474)"/></g></svg>