<svg width="2058" height="1769" xmlns="http://www.w3.org/2000/svg" xmlns:xlink="http://www.w3.org/1999/xlink" xml:space="preserve" overflow="hidden"><defs><clipPath id="clip0"><rect x="1184" y="609" width="2058" height="1769"/></clipPath></defs><g clip-path="url(#clip0)" transform="translate(-1184 -609)"><path d="M0 626.594C130.28 627.033 127.874 614.976 202.661 511.091 277.448 407.206 342.017-42.6808 448.723 3.28497 555.428 49.2508 670.653 641.472 842.897 786.885 1015.14 932.298 1196.39 872.819 1310 894" stroke="#595959" stroke-width="13.75" stroke-miterlimit="8" fill="none" fill-rule="evenodd" transform="matrix(-1 0 0 1 2993 852)"/><path d="M1478 2098.13 3164.98 2098.13 3164.98 2111.88 1478 2111.88ZM3158.1 2084.38 3199.35 2105 3158.1 2125.63Z" fill="#595959"/><path d="M1477.12 2114.14 1477.13 686.372 1490.88 686.372 1490.88 2114.14ZM1463.38 693.25 1484 652 1504.63 693.25Z" fill="#595959"/><text font-family="Arial,Arial_MSFontService,sans-serif" font-weight="400" font-size="110" transform="matrix(1 0 0 1 1922.4 2287)">reaction coordinate</text><text font-family="Arial,Arial_MSFontService,sans-serif" font-weight="400" font-size="110" transform="matrix(-1.83697e-16 -1 1 -1.83697e-16 1324.64 1499)">energy</text><text font-family="Arial,Arial_MSFontService,sans-serif" font-weight="400" font-size="83" transform="matrix(1 0 0 1 2764.14 1589)">FAIR data</text><rect x="2839.5" y="1468.5" width="160" height="27.9999" stroke="#0684A2" stroke-width="4.58333" stroke-miterlimit="8" fill="#0BB5DD"/><rect x="1677.5" y="1728.5" width="160" height="29.0002" stroke="#0684A2" stroke-width="4.58333" stroke-miterlimit="8" fill="#0BB5DD"/><text font-family="Arial,Arial_MSFontService,sans-serif" font-weight="400" font-size="83" transform="matrix(1 0 0 1 1592.04 1882)">experiment</text></g></svg>