<svg width="1549" height="1105" xmlns="http://www.w3.org/2000/svg" xmlns:xlink="http://www.w3.org/1999/xlink" xml:space="preserve" overflow="hidden"><g transform="translate(-1260 -650)"><g><path d="M1890.24 751 1985 847.719 1985 848 1911.98 848C1899.29 848 1889 837.708 1889 825.013L1889 751.001Z" stroke="#1FC2A7" stroke-width="27.5" stroke-linecap="butt" stroke-linejoin="round" stroke-miterlimit="10" stroke-opacity="1" fill="#CEF7F0" fill-rule="evenodd" fill-opacity="1"/><path d="M1631 772.237C1631 759.472 1641.3 749.123 1654 749.123L1890.14 749 1985 846.251 1984.94 1168.89C1984.94 1181.65 1974.64 1192 1961.94 1192L1654 1192C1641.3 1192 1631 1181.65 1631 1168.89L1631 772.237Z" stroke="#1FC2A7" stroke-width="27.5" stroke-linecap="butt" stroke-linejoin="round" stroke-miterlimit="10" stroke-opacity="1" fill="none" fill-rule="evenodd"/><path d="M1535 850.237C1535 837.472 1545.3 827.123 1558 827.123L1794.14 827 1889 924.251 1888.94 1246.89C1888.94 1259.65 1878.64 1270 1865.94 1270L1558 1270C1545.3 1270 1535 1259.65 1535 1246.89L1535 850.237Z" stroke="#1FC2A7" stroke-width="27.5" stroke-linecap="butt" stroke-linejoin="round" stroke-miterlimit="10" stroke-opacity="1" fill="#FFFFFF" fill-rule="evenodd" fill-opacity="1"/><path d="M1599 911 1715.72 911" stroke="#1FC2A7" stroke-width="27.5" stroke-linecap="round" stroke-linejoin="miter" stroke-miterlimit="8" stroke-opacity="1" fill="none" fill-rule="evenodd"/><path d="M1599 1000 1828.87 1000" stroke="#1FC2A7" stroke-width="27.5" stroke-linecap="round" stroke-linejoin="miter" stroke-miterlimit="8" stroke-opacity="1" fill="none" fill-rule="evenodd"/><path d="M1599 1089 1757.77 1089" stroke="#1FC2A7" stroke-width="27.5" stroke-linecap="round" stroke-linejoin="miter" stroke-miterlimit="8" stroke-opacity="1" fill="none" fill-rule="evenodd"/><path d="M1599 1178 1792.57 1178" stroke="#1FC2A7" stroke-width="27.5" stroke-linecap="round" stroke-linejoin="miter" stroke-miterlimit="8" stroke-opacity="1" fill="none" fill-rule="evenodd"/><path d="M1794.24 830 1889 926.719 1889 927 1815.98 927C1803.29 927 1793 916.708 1793 904.013L1793 830.001Z" stroke="#1FC2A7" stroke-width="27.5" stroke-linecap="butt" stroke-linejoin="round" stroke-miterlimit="10" stroke-opacity="1" fill="#CEF7F0" fill-rule="evenodd" fill-opacity="1"/><path d="M1441.5 1298.93C1428.08 1336.93 1380.38 1454.65 1372.21 1476.69 1361.27 1506.21 1330.51 1559.16 1400.5 1559L1786.71 1558.78C1850.37 1560.54 1813.55 1502.33 1800.81 1471.14 1788.07 1439.95 1768.47 1388.58 1749.28 1327.48 1704.58 1297.74 1693.58 1292.49 1652.44 1263.47 1605.55 1262.65 1573.19 1263.05 1483.44 1263.52 1456.13 1263.66 1453.93 1263.72 1441.5 1298.93Z" stroke="#0BB5DD" stroke-width="27.5" stroke-linecap="butt" stroke-linejoin="miter" stroke-miterlimit="8" stroke-opacity="1" fill="#FFFFFF" fill-rule="evenodd" fill-opacity="1"/><path d="M1656 1269C1661.82 1291.38 1662.4 1315.51 1675.59 1324.52 1688.78 1333.54 1709.7 1329.21 1743 1327.02 1720.44 1313.7 1675.29 1281.44 1656 1269Z" stroke="#4472C4" stroke-width="27.5" stroke-linecap="butt" stroke-linejoin="miter" stroke-miterlimit="8" stroke-opacity="1" fill="#DAE3F3" fill-rule="evenodd" fill-opacity="1"/><path d="M1442.5 1231.93C1429.08 1269.93 1381.38 1387.65 1373.21 1409.69 1362.27 1439.21 1331.51 1492.16 1401.5 1492L1787.71 1491.78C1851.37 1493.54 1814.55 1435.33 1801.81 1404.14 1789.07 1372.95 1769.47 1321.58 1750.28 1260.48 1705.58 1230.74 1694.58 1225.49 1653.44 1196.47 1606.55 1195.65 1574.19 1196.05 1484.44 1196.52 1457.13 1196.66 1454.93 1196.72 1442.5 1231.93Z" stroke="#0BB5DD" stroke-width="27.5" stroke-linecap="butt" stroke-linejoin="miter" stroke-miterlimit="8" stroke-opacity="1" fill="#FFFFFF" fill-rule="evenodd" fill-opacity="1"/><path d="M1657 1202C1662.82 1224.38 1663.4 1248.51 1676.59 1257.52 1689.78 1266.54 1710.7 1262.21 1744 1260.02 1721.44 1246.7 1676.29 1214.44 1657 1202Z" stroke="#4472C4" stroke-width="27.5" stroke-linecap="butt" stroke-linejoin="miter" stroke-miterlimit="8" stroke-opacity="1" fill="#DAE3F3" fill-rule="evenodd" fill-opacity="1"/><path d="M1442.5 1166.93C1429.08 1204.93 1381.38 1322.65 1373.21 1344.69 1362.27 1374.21 1331.51 1427.16 1401.5 1427L1787.71 1426.78C1851.37 1428.54 1814.55 1370.33 1801.81 1339.14 1789.07 1307.95 1769.47 1256.58 1750.28 1195.48 1705.58 1165.74 1694.58 1160.49 1653.44 1131.47 1606.55 1130.65 1574.19 1131.05 1484.44 1131.52 1457.13 1131.66 1454.93 1131.72 1442.5 1166.93Z" stroke="#0BB5DD" stroke-width="27.5" stroke-linecap="butt" stroke-linejoin="miter" stroke-miterlimit="8" stroke-opacity="1" fill="#FFFFFF" fill-rule="evenodd" fill-opacity="1"/><path d="M1657 1137C1662.82 1159.38 1663.4 1183.51 1676.59 1192.52 1689.78 1201.54 1710.7 1197.21 1744 1195.02 1721.44 1181.7 1676.29 1149.44 1657 1137Z" stroke="#4472C4" stroke-width="27.5" stroke-linecap="butt" stroke-linejoin="miter" stroke-miterlimit="8" stroke-opacity="1" fill="#DAE3F3" fill-rule="evenodd" fill-opacity="1"/><path d="M1436.07 1102.93C1421.94 1140.93 1371.69 1258.65 1363.08 1280.7 1351.56 1310.21 1319.14 1363.16 1392.89 1363L1799.77 1362.78C1866.84 1364.54 1828.04 1306.33 1814.62 1275.14 1801.2 1243.95 1780.55 1192.58 1760.33 1131.48 1713.24 1101.74 1701.65 1096.49 1658.31 1067.47 1608.91 1066.65 1574.82 1067.05 1480.27 1067.52 1451.49 1067.66 1449.17 1067.72 1436.07 1102.93Z" stroke="#0BB5DD" stroke-width="27.5" stroke-linecap="butt" stroke-linejoin="miter" stroke-miterlimit="8" stroke-opacity="1" fill="#FFFFFF" fill-rule="evenodd" fill-opacity="1"/><path d="M1471 1123 1634.29 1123" stroke="#0BB5DD" stroke-width="27.5" stroke-linecap="round" stroke-linejoin="miter" stroke-miterlimit="8" stroke-opacity="1" fill="none" fill-rule="evenodd"/><path d="M1458 1169 1736.86 1169" stroke="#0BB5DD" stroke-width="27.5" stroke-linecap="round" stroke-linejoin="miter" stroke-miterlimit="8" stroke-opacity="1" fill="none" fill-rule="evenodd"/><path d="M1432 1225 1654.12 1225" stroke="#0BB5DD" stroke-width="27.5" stroke-linecap="round" stroke-linejoin="miter" stroke-miterlimit="8" stroke-opacity="1" fill="none" fill-rule="evenodd"/><path d="M1406 1291 1700.79 1291" stroke="#0BB5DD" stroke-width="27.5" stroke-linecap="round" stroke-linejoin="miter" stroke-miterlimit="8" stroke-opacity="1" fill="none" fill-rule="evenodd"/><path d="M1659 1070C1665.62 1094.21 1666.28 1120.33 1681.29 1130.08 1696.3 1139.83 1720.11 1135.15 1758 1132.77 1732.32 1118.36 1680.95 1083.46 1659 1070Z" stroke="#0BB5DD" stroke-width="27.5" stroke-linecap="butt" stroke-linejoin="miter" stroke-miterlimit="8" stroke-opacity="1" fill="#CAF3FC" fill-rule="evenodd" fill-opacity="1"/><path d="M1299.86 1169.5 1291.28 1155.34 1287.88 1139.04 1286.24 1124.2 1286.02 1109.27 1287.23 1094.36 1289.88 1079.57 1293.96 1065.03 1299.5 1050.83 1306.5 1037.1 1314.96 1023.95 1324.88 1011.49 1336.28 999.862 1348.73 989.559 1362.11 980.647 1376.3 973.179 1391.19 967.21 1406.47 962.844 1414.56 961.202 1422.56 960.003 1430.65 959.22 1438.45 958.876 1439.67 986.349 1432.23 986.678 1432.94 986.627 1425.57 987.341 1426.28 987.253 1418.98 988.346 1419.68 988.222 1412.48 989.687 1413.51 989.434 1399.42 993.458 1400.76 992.999 1387.19 998.44 1388.48 997.846 1375.54 1004.65 1376.76 1003.93 1364.57 1012.05 1365.71 1011.2 1354.36 1020.59 1355.41 1019.62 1345.02 1030.23 1345.95 1029.17 1336.91 1040.54 1337.71 1039.41 1330.01 1051.39 1330.69 1050.2 1324.32 1062.71 1324.87 1061.47 1319.83 1074.4 1320.26 1073.12 1316.53 1086.37 1316.83 1085.07 1314.42 1098.55 1314.59 1097.24 1313.48 1110.83 1313.53 1109.52 1313.73 1123.14 1313.65 1121.83 1315.14 1135.36 1314.94 1134.06 1317.72 1147.42 1316.02 1143.1 1323.38 1155.25ZM1339.51 1129.01 1347.72 1220.88 1269.3 1172.33Z" fill="#1FC2A7" fill-rule="nonzero" fill-opacity="1"/><text fill="#595959" fill-opacity="1" font-family="Calibri,Calibri_MSFontService,sans-serif" font-style="normal" font-variant="normal" font-weight="400" font-stretch="normal" font-size="83" text-anchor="start" direction="ltr" writing-mode="lr-tb" unicode-bidi="normal" text-decoration="none" transform="matrix(1 0 0 1 1610.05 1682)">sugar_result.csv</text><text fill="#595959" fill-opacity="1" font-family="Calibri,Calibri_MSFontService,sans-serif" font-style="normal" font-variant="normal" font-weight="400" font-stretch="normal" font-size="83" text-anchor="start" direction="ltr" writing-mode="lr-tb" unicode-bidi="normal" text-decoration="none" transform="matrix(1 0 0 1 1999.85 757)">DataMAP</text><rect x="2267" y="1276" width="174" height="144" fill="#595959" fill-opacity="0.501961"/><rect x="2450" y="1276" width="173" height="144" fill="#595959" fill-opacity="0.501961"/><rect x="2632" y="1276" width="174" height="144" fill="#595959" fill-opacity="0.501961"/><rect x="2267" y="1428" width="174" height="145" fill="#595959" fill-opacity="0.501961"/><rect x="2450" y="1428" width="173" height="145" fill="#595959" fill-opacity="0.501961"/><rect x="2632" y="1428" width="174" height="145" fill="#595959" fill-opacity="0.501961"/><rect x="2267" y="1578" width="174" height="144" fill="#595959" fill-opacity="0.501961"/><rect x="2450" y="1578" width="173" height="144" fill="#595959" fill-opacity="0.501961"/><rect x="2632" y="1578" width="174" height="144" fill="#595959" fill-opacity="0.501961"/><rect x="2272" y="1180" width="173" height="69.9998" fill="#0BB5DD" fill-opacity="1"/><rect x="2629" y="1180" width="174" height="69.9998" fill="#0BB5DD" fill-opacity="1"/><rect x="2450" y="1180" width="174" height="69.9998" fill="#0BB5DD" fill-opacity="1"/><path d="M1941.5 1391 2107.5 1391 2107.5 1363.5 2162.5 1418.5 2107.5 1473.5 2107.5 1446 1941.5 1446Z" stroke="#075044" stroke-width="4.58333" stroke-linecap="butt" stroke-linejoin="miter" stroke-miterlimit="8" stroke-opacity="1" fill="#1FC2A7" fill-rule="evenodd" fill-opacity="1"/></g></g></svg>