<svg width="1561" height="1111" xmlns="http://www.w3.org/2000/svg" xmlns:xlink="http://www.w3.org/1999/xlink" xml:space="preserve" overflow="hidden"><defs><clipPath id="clip0"><rect x="1457" y="672" width="1561" height="1111"/></clipPath><clipPath id="clip1"><rect x="1871" y="1469" width="127" height="129"/></clipPath><clipPath id="clip2"><rect x="1871" y="1469" width="127" height="129"/></clipPath><clipPath id="clip3"><rect x="1871" y="1469" width="127" height="129"/></clipPath><clipPath id="clip4"><rect x="1846" y="1544" width="129" height="127"/></clipPath><clipPath id="clip5"><rect x="1846" y="1544" width="129" height="127"/></clipPath><clipPath id="clip6"><rect x="1846" y="1544" width="129" height="127"/></clipPath><clipPath id="clip7"><rect x="1894" y="1556" width="127" height="129"/></clipPath><clipPath id="clip8"><rect x="1894" y="1556" width="127" height="129"/></clipPath><clipPath id="clip9"><rect x="1894" y="1556" width="127" height="129"/></clipPath></defs><g clip-path="url(#clip0)" transform="translate(-1457 -672)"><path d="M2204.76 1701.8C1990.24 1700.8 1817.17 1526.12 1818.21 1311.65 1819.25 1097.17 1994 924.112 2208.53 925.113 2406.88 926.037 2572.64 1076.22 2593.03 1273.47" stroke="#05B4DD" stroke-width="27.5" stroke-linecap="round" stroke-miterlimit="8" fill="none" fill-rule="evenodd"/><path d="M0 0 77.5457 85.6733" stroke="#05B4DD" stroke-width="27.5" stroke-linecap="round" stroke-miterlimit="8" fill="none" fill-rule="evenodd" transform="matrix(1 0 0 -1 2587 1290.67)"/><path d="M0 0 77.5222 85.699" stroke="#05B4DD" stroke-width="27.5" stroke-linecap="round" stroke-miterlimit="8" fill="none" fill-rule="evenodd" transform="matrix(-1.83697e-16 -1 -1 1.83697e-16 2585.7 1290.52)"/><path d="M2043.04 1402.08C2025.55 1371.49 2025.4 1303.6 2044.13 1262.99 2062.86 1222.38 2097.65 1165.26 2194.45 1163.86 2228.07 1163.37 2277.37 1155.54 2309.02 1147.9 2340.66 1140.26 2370.31 1117.52 2384.31 1118.01 2398.32 1118.5 2395.33 1131.55 2393.07 1150.83 2390.8 1170.11 2380.54 1209.04 2370.73 1233.7 2360.92 1258.36 2333.97 1330.12 2313.6 1362.88 2293.23 1395.64 2275.93 1416.32 2248.51 1430.26 2221.09 1444.21 2183.31 1451.25 2149.06 1446.55 2114.82 1441.85 2060.53 1432.68 2043.04 1402.08Z" stroke="#2D3E50" stroke-width="27.5" stroke-linecap="round" stroke-miterlimit="8" fill="none" fill-rule="evenodd"/><path d="M2005 1499C2021.48 1427.9 2037.96 1356.79 2183 1310" stroke="#2D3E50" stroke-width="27.5" stroke-linecap="round" stroke-miterlimit="8" fill="none" fill-rule="evenodd"/><rect x="1589.5" y="867.5" width="180" height="80.9998" stroke="#0684A2" stroke-width="9.16667" stroke-miterlimit="8" fill="#0BB5DD"/><path d="M1769.5 907.5 1912.56 907.5" stroke="#05B4DD" stroke-width="3.4375" stroke-miterlimit="8" fill="none" fill-rule="evenodd"/><path d="M1912.5 907.5 1972.94 1153.19" stroke="#05B4DD" stroke-width="3.4375" stroke-miterlimit="8" fill="none" fill-rule="evenodd"/><rect x="1721.5" y="1691.5" width="180" height="80.9998" stroke="#0684A2" stroke-width="9.16667" stroke-miterlimit="8" fill="#0BB5DD"/><path d="M1901.5 1731.5 2030.18 1731.5" stroke="#05B4DD" stroke-width="3.4375" stroke-miterlimit="8" fill="none" fill-rule="evenodd"/><path d="M0 0 60.4419 245.691" stroke="#05B4DD" stroke-width="3.4375" stroke-miterlimit="8" fill="none" fill-rule="evenodd" transform="matrix(1 0 0 -1 2030.5 1731.19)"/><rect x="2684.5" y="1024.5" width="180" height="81.0001" stroke="#0684A2" stroke-width="9.16667" stroke-miterlimit="8" fill="#0BB5DD"/><path d="M2588.5 1064.5 2682.49 1064.5" stroke="#05B4DD" stroke-width="3.4375" stroke-miterlimit="8" fill="none" fill-rule="evenodd"/><path d="M0 0 264.98 141.078" stroke="#05B4DD" stroke-width="3.4375" stroke-miterlimit="8" fill="none" fill-rule="evenodd" transform="matrix(1 0 0 -1 2323.5 1205.58)"/><text fill="#767171" font-family="Arial,Arial_MSFontService,sans-serif" font-style="italic" font-weight="400" font-size="48" transform="matrix(1 0 0 1 2538.88 875)">transcriptomics<tspan font-size="48" x="26.354" y="46">metabolomics</tspan><tspan font-size="48" x="88.229" y="93">proteomics</tspan><tspan font-size="48" x="90.5208" y="139">phenomics</tspan></text><path d="M2209.42 1703.12C1995.4 1706.84 1818.88 1536.35 1815.16 1322.33 1811.44 1108.3 1981.93 931.788 2195.95 928.069 2394.99 924.61 2564.28 1072.49 2587.6 1270.18" stroke="#0BB5DD" stroke-width="27.5" stroke-linecap="round" stroke-miterlimit="8" fill="none" fill-rule="evenodd"/><path d="M2268.79 1741.16C2262.37 1729.95 2262.31 1705.05 2269.19 1690.16 2276.06 1675.27 2288.83 1654.33 2324.37 1653.81 2336.72 1653.64 2354.82 1650.77 2366.43 1647.96 2378.05 1645.16 2388.93 1636.82 2394.08 1637 2399.22 1637.18 2398.12 1641.97 2397.29 1649.04 2396.46 1656.11 2392.69 1670.38 2389.09 1679.42 2385.49 1688.47 2375.59 1714.78 2368.11 1726.79 2360.64 1738.8 2354.29 1746.38 2344.22 1751.5 2334.15 1756.61 2320.28 1759.19 2307.71 1757.47 2295.14 1755.75 2275.21 1752.38 2268.79 1741.16Z" stroke="#2D3E50" stroke-width="13.75" stroke-linecap="round" stroke-miterlimit="8" fill="none" fill-rule="evenodd"/><path d="M2255 1776C2261.11 1750.04 2267.22 1724.08 2321 1707" stroke="#2D3E50" stroke-width="13.75" stroke-linecap="round" stroke-miterlimit="8" fill="none" fill-rule="evenodd"/><path d="M2367.5 1036.5C2367.5 973.54 2418.54 922.5 2481.5 922.5 2544.46 922.5 2595.5 973.54 2595.5 1036.5 2595.5 1099.46 2544.46 1150.5 2481.5 1150.5 2418.54 1150.5 2367.5 1099.46 2367.5 1036.5Z" stroke="#2D3E50" stroke-width="4.58333" stroke-miterlimit="8" fill="#FFFFFF" fill-rule="evenodd"/><path d="M2429.5 965.911C2429.5 961.238 2451.88 957.5 2479 957.5 2506.12 957.5 2528.5 961.238 2528.5 965.911 2528.5 999.089 2528.5 999.089 2528.5 999.089 2528.5 1003.76 2506.12 1007.5 2479 1007.5 2451.88 1007.5 2429.5 1003.76 2429.5 999.089L2429.5 965.911Z" stroke="#0684A2" stroke-width="4.58333" stroke-miterlimit="8" fill="#0BB5DD" fill-rule="evenodd"/><path d="M2429.5 1026.08C2429.5 1021.31 2451.88 1017.5 2479 1017.5 2506.12 1017.5 2528.5 1021.31 2528.5 1026.08 2528.5 1059.92 2528.5 1059.92 2528.5 1059.92 2528.5 1064.69 2506.12 1068.5 2479 1068.5 2451.88 1068.5 2429.5 1064.69 2429.5 1059.92L2429.5 1026.08Z" stroke="#0684A2" stroke-width="4.58333" stroke-miterlimit="8" fill="#0BB5DD" fill-rule="evenodd"/><path d="M2528.5 1026.5C2528.5 1030.5 2506.12 1034.5 2479 1034.5 2451.88 1034.5 2429.5 1030.5 2429.5 1026.5" stroke="#0684A2" stroke-width="4.58333" stroke-miterlimit="8" fill="#0BB5DD" fill-rule="evenodd"/><path d="M2429.5 1026.08C2429.5 1021.31 2451.88 1017.5 2479 1017.5 2506.12 1017.5 2528.5 1021.31 2528.5 1026.08 2528.5 1059.92 2528.5 1059.92 2528.5 1059.92 2528.5 1064.69 2506.12 1068.5 2479 1068.5 2451.88 1068.5 2429.5 1064.69 2429.5 1059.92L2429.5 1026.08Z" stroke="#0684A2" stroke-width="4.58333" stroke-miterlimit="8" fill="#0BB5DD" fill-rule="evenodd"/><path d="M2429.5 996C2429.5 991.278 2451.88 987.5 2479 987.5 2506.12 987.5 2528.5 991.278 2528.5 996 2528.5 1030 2528.5 1030 2528.5 1030 2528.5 1034.72 2506.12 1038.5 2479 1038.5 2451.88 1038.5 2429.5 1034.72 2429.5 1030L2429.5 996Z" stroke="#0684A2" stroke-width="4.58333" stroke-miterlimit="8" fill="#0BB5DD" fill-rule="evenodd"/><path d="M2528.5 995.5C2528.5 1000.5 2506.12 1004.5 2479 1004.5 2451.88 1004.5 2429.5 1000.5 2429.5 995.5" stroke="#0684A2" stroke-width="4.58333" stroke-miterlimit="8" fill="#0BB5DD" fill-rule="evenodd"/><path d="M2429.5 996C2429.5 991.278 2451.88 987.5 2479 987.5 2506.12 987.5 2528.5 991.278 2528.5 996 2528.5 1030 2528.5 1030 2528.5 1030 2528.5 1034.72 2506.12 1038.5 2479 1038.5 2451.88 1038.5 2429.5 1034.72 2429.5 1030L2429.5 996Z" stroke="#0684A2" stroke-width="4.58333" stroke-miterlimit="8" fill="#0BB5DD" fill-rule="evenodd"/><path d="M2429.5 965.911C2429.5 961.238 2451.88 957.5 2479 957.5 2506.12 957.5 2528.5 961.238 2528.5 965.911 2528.5 999.089 2528.5 999.089 2528.5 999.089 2528.5 1003.76 2506.12 1007.5 2479 1007.5 2451.88 1007.5 2429.5 1003.76 2429.5 999.089L2429.5 965.911Z" stroke="#0684A2" stroke-width="4.58333" stroke-miterlimit="8" fill="#0BB5DD" fill-rule="evenodd"/><path d="M2528.5 965.5C2528.5 970.5 2506.12 974.5 2479 974.5 2451.88 974.5 2429.5 970.5 2429.5 965.5" stroke="#0684A2" stroke-width="4.58333" stroke-miterlimit="8" fill="#0BB5DD" fill-rule="evenodd"/><path d="M2535.5 1055.27 2527.1 1063.5 2518.68 1055.27 2523.38 1055.27C2521.79 1052.24 2518.6 1050.33 2515.13 1050.33 2512.88 1050.33 2510.72 1051.14 2509.05 1052.6L2500.5 1052.6C2504.31 1044.68 2513.95 1041.28 2522.04 1045.01 2526.35 1047 2529.55 1050.76 2530.78 1055.27Z" stroke="#0BB5DD" stroke-width="4.58333" stroke-miterlimit="8" fill="#FFFFFF" fill-rule="evenodd"/><path d="M2494.5 1063.73 2502.92 1055.5 2511.32 1063.73 2506.59 1063.73C2508.17 1066.76 2511.35 1068.66 2514.82 1068.67 2517.07 1068.67 2519.24 1067.86 2520.92 1066.4L2529.5 1066.4C2525.68 1074.32 2516.02 1077.72 2507.92 1073.98 2503.61 1071.99 2500.41 1068.24 2499.18 1063.73Z" stroke="#0BB5DD" stroke-width="4.58333" stroke-miterlimit="8" fill="#FFFFFF" fill-rule="evenodd"/><path d="M2555.58 1090.5C2566.84 1090.23 2575.76 1080.89 2575.49 1069.63 2575.26 1059.7 2567.89 1051.38 2558.06 1049.94 2557.02 1043.56 2553.51 1037.85 2548.3 1034.03 2542.9 1030.21 2536.16 1028.79 2529.68 1030.12 2523.31 1020.28 2511.42 1015.53 2500.02 1018.26 2488.91 1021.13 2480.6 1030.38 2478.96 1041.73 2471.56 1041.93 2464.66 1045.51 2460.23 1051.45 2454.99 1058.73 2454.03 1068.26 2457.72 1076.43 2461.49 1084.49 2469.37 1089.84 2478.26 1090.36ZM2478.61 1082.26C2472.71 1081.89 2467.47 1078.34 2464.95 1072.99 2462.5 1067.54 2463.14 1061.2 2466.61 1056.34 2470.16 1051.56 2476.07 1049.15 2481.95 1050.08L2486.58 1050.85 2486.58 1045.74C2486.63 1036.5 2492.91 1028.46 2501.86 1026.18 2510.84 1024.01 2520.13 1028.34 2524.24 1036.61L2525.82 1039.75 2529.1 1038.59C2534 1036.86 2539.43 1037.62 2543.67 1040.63 2547.88 1043.71 2550.38 1048.61 2550.39 1053.83L2550.39 1057.9 2555.71 1057.9C2562.47 1058.16 2567.75 1063.84 2567.49 1070.6 2567.25 1077.05 2562.04 1082.2 2555.58 1082.38Z" stroke="#0BB5DD" stroke-width="4.58333" stroke-miterlimit="8" fill="#FFFFFF" fill-rule="evenodd"/><text fill="#767171" font-family="Arial,Arial_MSFontService,sans-serif" font-weight="700" font-size="64" transform="matrix(1 0 0 1 2579.09 827)">core data <tspan font-size="64" x="-81.9273" y="62">repositories</tspan><tspan font-style="italic" font-weight="400" font-size="48" x="-1082.98" y="728">eLab</tspan><tspan font-style="italic" font-weight="400" font-size="48" x="-962.096" y="728">notebook</tspan><tspan font-style="italic" font-weight="400" font-size="48" x="-1082.98" y="774">ISA model</tspan><tspan font-size="64" x="-1082.98" y="686">experiment</tspan><tspan font-style="italic" font-weight="400" font-size="48" x="-711.525" y="-21">software</tspan><tspan font-style="italic" font-weight="400" font-size="48" x="-711.525" y="25">scripts</tspan><tspan font-size="64" x="-711.525" y="-73">computatio</tspan><tspan font-size="64" x="-711.525" y="-11">n</tspan><tspan font-size="64" x="-1069.86" y="199">reference</tspan><tspan font-size="64" x="-1069.86" y="261">knowledge</tspan></text><path d="M2535.55 1407.71 2622.18 1390.76 2623.03 1395.09 2536.39 1412.05Z" stroke="#3F3F3F" stroke-width="4.58333" stroke-miterlimit="8" fill="#595959" fill-rule="evenodd"/><path d="M2532.15 1390.39 2573.31 1382.33 2574.15 1386.66 2533 1394.72Z" stroke="#3F3F3F" stroke-width="4.58333" stroke-miterlimit="8" fill="#595959" fill-rule="evenodd"/><path d="M2538.94 1425.04 2625.57 1408.08 2626.42 1412.42 2539.79 1429.37Z" stroke="#3F3F3F" stroke-width="4.58333" stroke-miterlimit="8" fill="#595959" fill-rule="evenodd"/><path d="M2542.33 1442.37 2628.97 1425.41 2629.81 1429.74 2543.18 1446.7Z" stroke="#3F3F3F" stroke-width="4.58333" stroke-miterlimit="8" fill="#595959" fill-rule="evenodd"/><path d="M2545.72 1459.7 2632.36 1442.74 2633.21 1447.07 2546.57 1464.03Z" stroke="#3F3F3F" stroke-width="4.58333" stroke-miterlimit="8" fill="#595959" fill-rule="evenodd"/><path d="M2549.11 1477.02 2635.75 1460.06 2636.6 1464.4 2549.96 1481.36Z" stroke="#3F3F3F" stroke-width="4.58333" stroke-miterlimit="8" fill="#595959" fill-rule="evenodd"/><path d="M2499.47 1338.31 2533.39 1511.59 2663.34 1486.15 2638.58 1359.63 2582.67 1322.03ZM2585.43 1329.2 2630.89 1359.78C2630.9 1359.78 2630.9 1359.8 2630.9 1359.81 2630.89 1359.81 2630.89 1359.82 2630.88 1359.82L2592.85 1367.26 2585.4 1329.23C2585.4 1329.21 2585.41 1329.2 2585.42 1329.2 2585.42 1329.2 2585.43 1329.2 2585.43 1329.2ZM2536.87 1506.41 2504.65 1341.8 2580.46 1326.96 2589.36 1372.44 2634.85 1363.54 2658.16 1482.66Z" stroke="#3F3F3F" stroke-width="4.58333" stroke-miterlimit="8" fill="#595959" fill-rule="evenodd"/><path d="M1813.5 1573.5C1813.5 1510.54 1864.76 1459.5 1928 1459.5 1991.24 1459.5 2042.5 1510.54 2042.5 1573.5 2042.5 1636.46 1991.24 1687.5 1928 1687.5 1864.76 1687.5 1813.5 1636.46 1813.5 1573.5Z" stroke="#2D3E50" stroke-width="4.58333" stroke-miterlimit="8" fill="#FFFFFF" fill-rule="evenodd"/><path d="M1711.5 1218.5C1711.5 1155.54 1762.54 1104.5 1825.5 1104.5 1888.46 1104.5 1939.5 1155.54 1939.5 1218.5 1939.5 1281.46 1888.46 1332.5 1825.5 1332.5 1762.54 1332.5 1711.5 1281.46 1711.5 1218.5Z" stroke="#2D3E50" stroke-width="4.58333" stroke-miterlimit="8" fill="#FFFFFF" fill-rule="evenodd"/><path d="M1976.5 949C1976.5 885.763 2027.54 834.5 2090.5 834.5 2153.46 834.5 2204.5 885.763 2204.5 949 2204.5 1012.24 2153.46 1063.5 2090.5 1063.5 2027.54 1063.5 1976.5 1012.24 1976.5 949Z" stroke="#2D3E50" stroke-width="4.58333" stroke-miterlimit="8" fill="#FFFFFF" fill-rule="evenodd"/><path d="M0 0 37.6598 41.6199" stroke="#0BB5DD" stroke-width="27.5" stroke-linecap="round" stroke-miterlimit="8" fill="none" fill-rule="evenodd" transform="matrix(1 0 0 -1 2586 1292.62)"/><path d="M0 0 37.6598 41.6199" stroke="#0BB5DD" stroke-width="27.5" stroke-linecap="round" stroke-miterlimit="8" fill="none" fill-rule="evenodd" transform="matrix(-1.83697e-16 -1 -1 1.83697e-16 2585.62 1292.66)"/><path d="M1764.5 1269.5 1879.5 1269.5 1879.5 1279.5 1764.5 1279.5Z" stroke="#BC8C00" stroke-width="4.58333" stroke-miterlimit="8" fill="#FFC000" fill-rule="evenodd"/><path d="M1764.5 1165.5 1778.5 1165.5 1778.5 1263.5 1764.5 1263.5Z" stroke="#BC8C00" stroke-width="4.58333" stroke-miterlimit="8" fill="#FFC000" fill-rule="evenodd"/><path d="M1849.5 1249.5 1879.5 1249.5 1879.5 1263.5 1849.5 1263.5Z" stroke="#BC8C00" stroke-width="4.58333" stroke-miterlimit="8" fill="#FFC000" fill-rule="evenodd"/><path d="M1849.5 1192.5 1879.5 1192.5 1879.5 1242.5 1849.5 1242.5Z" stroke="#BC8C00" stroke-width="4.58333" stroke-miterlimit="8" fill="#FFC000" fill-rule="evenodd"/><path d="M1849.5 1171.5 1879.5 1171.5 1879.5 1185.5 1849.5 1185.5Z" stroke="#BC8C00" stroke-width="4.58333" stroke-miterlimit="8" fill="#FFC000" fill-rule="evenodd"/><path d="M1829 1202.14C1827.14 1202.14 1825.62 1200.6 1825.62 1198.73 1825.62 1196.85 1827.14 1195.32 1829 1195.32 1830.86 1195.32 1832.38 1196.85 1832.38 1198.73 1832.38 1200.6 1830.86 1202.14 1829 1202.14ZM1829 1256.68C1827.14 1256.68 1825.62 1255.15 1825.62 1253.27 1825.62 1251.4 1827.14 1249.86 1829 1249.86 1830.86 1249.86 1832.38 1251.4 1832.38 1253.27 1832.38 1255.15 1830.86 1256.68 1829 1256.68ZM1842.5 1188.5 1815.5 1188.5 1815.5 1263.5 1842.5 1263.5 1842.5 1188.5Z" stroke="#BC8C00" stroke-width="4.58333" stroke-miterlimit="8" fill="#FFC000" fill-rule="evenodd"/><path d="M1801.93 1192.42 1792.07 1192.42 1792.07 1182.27 1801.93 1182.27 1801.93 1192.42ZM1808.5 1175.5 1785.5 1175.5 1785.5 1263.5 1808.5 1263.5 1808.5 1175.5Z" stroke="#BC8C00" stroke-width="4.58333" stroke-miterlimit="8" fill="#FFC000" fill-rule="evenodd"/><text fill="#767171" font-family="Arial,Arial_MSFontService,sans-serif" font-style="italic" font-weight="400" font-size="48" transform="matrix(1 0 0 1 1509.24 1128)">databases<tspan font-size="48" x="0" y="46">articles</tspan></text><g clip-path="url(#clip1)"><g clip-path="url(#clip2)"><g clip-path="url(#clip3)"><path d="M60.8541 29.1041C60.8541 33.4879 57.3004 37.0416 52.9166 37.0416 48.5328 37.0416 44.9791 33.4879 44.9791 29.1041 44.9791 24.7204 48.5328 21.1666 52.9166 21.1666 57.3004 21.1666 60.8541 24.7204 60.8541 29.1041Z" fill="#1FC2A7" transform="matrix(1 0 0 1 1871 1470)"/><path d="M52.9166 9.2604C52.9166 11.4523 51.1397 13.2291 48.9479 13.2291 46.756 13.2291 44.9791 11.4523 44.9791 9.2604 44.9791 7.06853 46.756 5.29166 48.9479 5.29166 51.1397 5.29166 52.9166 7.06853 52.9166 9.2604Z" fill="#1FC2A7" transform="matrix(1 0 0 1 1871 1470)"/><path d="M75.4062 33.0729C75.4062 35.2648 73.6293 37.0416 71.4374 37.0416 69.2455 37.0416 67.4687 35.2648 67.4687 33.0729 67.4687 30.881 69.2455 29.1041 71.4374 29.1041 73.6293 29.1041 75.4062 30.881 75.4062 33.0729Z" fill="#1FC2A7" transform="matrix(1 0 0 1 1871 1470)"/><path d="M79.3749 15.875C79.3749 18.7975 77.0057 21.1666 74.0832 21.1666 71.1607 21.1666 68.7916 18.7975 68.7916 15.875 68.7916 12.9525 71.1607 10.5833 74.0832 10.5833 77.0057 10.5833 79.3749 12.9525 79.3749 15.875Z" fill="#1FC2A7" transform="matrix(1 0 0 1 1871 1470)"/><path d="M100.409 42.9947C100.145 41.8041 99.0863 41.0104 97.8957 41.0104L29.1041 41.0104C27.9135 41.0104 26.8552 41.8041 26.5906 42.9947 26.326 44.1854 26.8552 45.376 27.9135 45.9052 27.9135 45.9052 31.8823 48.1541 31.8823 52.9166L31.8823 113.771C31.8823 118.136 35.4541 121.708 39.8197 121.708L87.4447 121.708C91.8103 121.708 95.3822 118.136 95.3822 113.771L95.3822 52.9166C95.3822 48.1541 99.0863 46.0374 99.2186 46.0374 100.145 45.376 100.806 44.1854 100.409 42.9947ZM82.0207 111.125 66.1457 111.125 66.1457 105.833 82.0207 105.833 82.0207 111.125ZM82.0207 100.542 66.1457 100.542 66.1457 95.2499 82.0207 95.2499 82.0207 100.542ZM82.0207 89.9582 66.1457 89.9582 66.1457 84.6666 82.0207 84.6666 82.0207 89.9582ZM82.0207 79.3749 66.1457 79.3749 66.1457 74.0832 82.0207 74.0832 82.0207 79.3749ZM82.0207 68.7916 66.1457 68.7916 66.1457 63.4999 82.0207 63.4999 82.0207 68.7916ZM89.9582 52.9166 89.9582 55.4301C85.8572 53.8426 79.2426 51.5937 72.7603 51.5937 65.6166 51.5937 61.251 52.7843 56.7531 53.9749 51.8583 55.2978 46.6989 56.6208 37.0416 56.8853L37.0416 52.9166C37.0416 50.2708 36.2479 48.0218 35.3218 46.302L91.678 46.302C90.752 48.0218 89.9582 50.2708 89.9582 52.9166Z" fill="#1FC2A7" transform="matrix(1 0 0 1 1871 1470)"/></g></g></g><g clip-path="url(#clip4)"><g clip-path="url(#clip5)"><g clip-path="url(#clip6)"><path d="M38.3645 62.177C50.9746 62.177 60.8541 56.3654 60.8541 48.9479 60.8541 41.5303 50.9746 35.7187 38.3645 35.7187 25.7545 35.7187 15.875 41.5303 15.875 48.9479 15.875 56.3654 25.7545 62.177 38.3645 62.177ZM38.3645 41.0104C48.4994 41.0104 55.5624 45.1934 55.5624 48.9479 55.5624 52.7023 48.4994 56.8853 38.3645 56.8853 28.2297 56.8853 21.1666 52.7023 21.1666 48.9479 21.1666 45.1934 28.2297 41.0104 38.3645 41.0104Z" fill="#2D3E50" transform="matrix(1 0 0 1 1847 1544)"/><path d="M50.2708 48.9479C50.2708 51.8704 44.9402 54.2395 38.3645 54.2395 31.7889 54.2395 26.4583 51.8704 26.4583 48.9479 26.4583 46.0253 31.7889 43.6562 38.3645 43.6562 44.9402 43.6562 50.2708 46.0253 50.2708 48.9479Z" fill="#2D3E50" transform="matrix(1 0 0 1 1847 1544)"/><path d="M118.615 52.6361C104.006 46.0573 88.8919 46.1539 73.6215 52.8425 73.9261 51.5666 74.0811 50.2597 74.0832 48.9479 74.0832 35.5957 58.3948 25.1354 38.3645 25.1354 18.3343 25.1354 2.64583 35.5957 2.64583 48.9479L2.64583 76.3243C2.64583 90.6461 19.009 101.864 39.8978 101.864 52.4655 101.864 65.5121 94.9707 72.5196 91.2666 87.147 83.5355 101.56 82.7642 115.356 88.9766L124.354 93.0313 124.354 55.2211ZM80.6978 58.5575C82.4328 57.9447 84.1992 57.4246 85.9895 56.9991L85.9895 74.0832 80.6978 74.0832ZM14.5521 67.4687 15.6739 67.4687C17.0241 68.1981 18.4166 68.8466 19.8437 69.4107L19.8437 76.7291 14.5521 76.7291ZM41.0104 72.6915C42.8184 72.6033 44.5822 72.4353 46.302 72.1875L46.302 80.6978 41.0104 80.6978ZM54.2395 70.3592C56.0499 69.776 57.818 69.0687 59.5312 68.2426L59.5312 84.6666 54.2395 84.6666ZM67.4687 64.5966C69.3671 63.7566 71.0776 62.9244 72.5196 62.1624 72.6003 62.1201 72.6796 62.0844 72.7603 62.0421L72.7603 71.4374 67.4687 71.4374ZM33.0729 87.3124 27.7812 87.3124 27.7812 71.7351C29.5308 72.0827 31.297 72.341 33.0729 72.509ZM93.927 64.8228 93.927 55.8164C95.6892 55.7093 97.4564 55.7093 99.2186 55.8164L99.2186 64.8228ZM38.3645 33.0729C53.4233 33.0729 66.1457 40.3489 66.1457 48.9479 66.1457 57.5468 53.4233 64.8228 38.3645 64.8228 23.3058 64.8228 10.5833 57.5534 10.5833 48.9479 10.5833 40.3423 23.3058 33.0729 38.3645 33.0729ZM116.417 80.801C113.735 79.7193 110.972 78.8484 108.155 78.1962 106.708 75.0114 105.919 71.5676 105.833 68.0706 105.885 64.332 106.985 60.6832 109.008 57.5389 111.176 58.1691 113.298 58.9488 115.358 59.8725L116.417 60.3501Z" fill="#2D3E50" transform="matrix(1 0 0 1 1847 1544)"/></g></g></g><g clip-path="url(#clip7)"><g clip-path="url(#clip8)"><g clip-path="url(#clip9)"><path d="M95.779 4.10104 4.10104 95.779 31.2208 122.899 122.767 31.3531 95.779 4.10104ZM97.6311 45.2437 87.3124 55.5624 79.1103 47.3604 75.4062 51.0645 83.6082 59.2666 73.2895 69.5853 65.0874 61.3833 61.3833 65.0874 69.5853 73.2895 59.2666 83.6082 51.0645 75.4062 47.3604 79.1103 55.5624 87.3124 45.2437 97.6311 37.0416 89.429 33.3375 93.1332 41.5395 101.335 31.3531 111.522 15.4781 95.6468 95.779 15.3458 111.654 31.2208 101.468 41.4072 93.2655 33.2052 89.429 37.0416 97.6311 45.2437Z" fill="#6B8BAC" transform="matrix(1 0 0 1 1894 1557)"/></g></g></g><path d="M2046.85 872.5 2034.5 872.5 2034.5 1012.5 2174.5 1012.5 2174.5 1000.15 2046.85 1000.15Z" stroke="#148E7A" stroke-width="4.58333" stroke-miterlimit="8" fill="#1FC2A7" fill-rule="evenodd"/><path d="M2058.5 915.5 2081.5 915.5 2081.5 987.5 2058.5 987.5Z" stroke="#148E7A" stroke-width="4.58333" stroke-miterlimit="8" fill="#1FC2A7" fill-rule="evenodd"/><path d="M2089.5 872.5 2112.5 872.5 2112.5 987.5 2089.5 987.5Z" stroke="#148E7A" stroke-width="4.58333" stroke-miterlimit="8" fill="#1FC2A7" fill-rule="evenodd"/><path d="M2120.5 915.5 2143.5 915.5 2143.5 987.5 2120.5 987.5Z" stroke="#148E7A" stroke-width="4.58333" stroke-miterlimit="8" fill="#1FC2A7" fill-rule="evenodd"/><path d="M2151.5 950.5 2174.5 950.5 2174.5 987.5 2151.5 987.5Z" stroke="#148E7A" stroke-width="4.58333" stroke-miterlimit="8" fill="#1FC2A7" fill-rule="evenodd"/><text fill="#767171" font-family="Arial,Arial_MSFontService,sans-serif" font-weight="700" font-size="64" transform="matrix(1 0 0 1 2374.73 1582)">journal publication</text></g></svg>