<svg width="1284" height="1202" xmlns="http://www.w3.org/2000/svg" xmlns:xlink="http://www.w3.org/1999/xlink" xml:space="preserve" overflow="hidden"><defs><clipPath id="clip0"><rect x="1585" y="575" width="1284" height="1202"/></clipPath></defs><g clip-path="url(#clip0)" transform="translate(-1585 -575)"><path d="M2204.76 1701.8C1990.24 1700.8 1817.17 1526.12 1818.21 1311.65 1819.25 1097.17 1994 924.112 2208.53 925.113 2406.88 926.037 2572.64 1076.22 2593.03 1273.47" stroke="#05B4DD" stroke-width="27.5" stroke-linecap="round" stroke-miterlimit="8" fill="none" fill-rule="evenodd"/><path d="M0 0 77.5457 85.6733" stroke="#05B4DD" stroke-width="27.5" stroke-linecap="round" stroke-miterlimit="8" fill="none" fill-rule="evenodd" transform="matrix(1 0 0 -1 2587 1290.67)"/><path d="M0 0 77.5222 85.699" stroke="#05B4DD" stroke-width="27.5" stroke-linecap="round" stroke-miterlimit="8" fill="none" fill-rule="evenodd" transform="matrix(-1.83697e-16 -1 -1 1.83697e-16 2585.7 1290.52)"/><path d="M2043.04 1402.08C2025.55 1371.49 2025.4 1303.6 2044.13 1262.99 2062.86 1222.38 2097.65 1165.26 2194.45 1163.86 2228.07 1163.37 2277.37 1155.54 2309.02 1147.9 2340.66 1140.26 2370.31 1117.52 2384.31 1118.01 2398.32 1118.5 2395.33 1131.55 2393.07 1150.83 2390.8 1170.11 2380.54 1209.04 2370.73 1233.7 2360.92 1258.36 2333.97 1330.12 2313.6 1362.88 2293.23 1395.64 2275.93 1416.32 2248.51 1430.26 2221.09 1444.21 2183.31 1451.25 2149.06 1446.55 2114.82 1441.85 2060.53 1432.68 2043.04 1402.08Z" stroke="#2D3E50" stroke-width="27.5" stroke-linecap="round" stroke-miterlimit="8" fill="none" fill-rule="evenodd"/><path d="M2005 1499C2021.48 1427.9 2037.96 1356.79 2183 1310" stroke="#2D3E50" stroke-width="27.5" stroke-linecap="round" stroke-miterlimit="8" fill="none" fill-rule="evenodd"/><rect x="1589.5" y="867.5" width="180" height="80.9998" stroke="#0684A2" stroke-width="9.16667" stroke-miterlimit="8" fill="#0BB5DD"/><path d="M1769.5 907.5 1912.56 907.5" stroke="#05B4DD" stroke-width="3.4375" stroke-miterlimit="8" fill="none" fill-rule="evenodd"/><path d="M1912.5 907.5 1972.94 1153.19" stroke="#05B4DD" stroke-width="3.4375" stroke-miterlimit="8" fill="none" fill-rule="evenodd"/><rect x="1721.5" y="1691.5" width="180" height="80.9998" stroke="#0684A2" stroke-width="9.16667" stroke-miterlimit="8" fill="#0BB5DD"/><path d="M1901.5 1731.5 2030.18 1731.5" stroke="#05B4DD" stroke-width="3.4375" stroke-miterlimit="8" fill="none" fill-rule="evenodd"/><path d="M0 0 60.4419 245.691" stroke="#05B4DD" stroke-width="3.4375" stroke-miterlimit="8" fill="none" fill-rule="evenodd" transform="matrix(1 0 0 -1 2030.5 1731.19)"/><rect x="2684.5" y="1024.5" width="180" height="81.0001" stroke="#0684A2" stroke-width="9.16667" stroke-miterlimit="8" fill="#0BB5DD"/><path d="M2588.5 1064.5 2682.49 1064.5" stroke="#05B4DD" stroke-width="3.4375" stroke-miterlimit="8" fill="none" fill-rule="evenodd"/><path d="M0 0 264.98 141.078" stroke="#05B4DD" stroke-width="3.4375" stroke-miterlimit="8" fill="none" fill-rule="evenodd" transform="matrix(1 0 0 -1 2323.5 1205.58)"/><path d="M2658.03 588.962C2675.84 589.006 2693.84 593.993 2709.76 604.257 2731.21 619.244 2744.47 641.052 2748.63 664.475 2752.78 687.898 2747.82 712.936 2732.83 734.385L2598.95 925.891C2580.75 951.935 2552.19 965.051 2522.63 964.923L2502.73 993.396 2493.15 984.687C2480.36 974.14 2467.06 964.194 2453.29 954.894L2417.23 932.995 2436.82 904.974C2426.54 877.269 2429.04 845.954 2447.25 819.91L2581.12 628.404C2599.19 602.551 2628.34 588.89 2658.03 588.962Z" stroke="#05B4DD" stroke-width="27.5" stroke-linecap="round" stroke-miterlimit="8" fill="none" fill-rule="evenodd"/></g></svg>