<svg width="3538" height="1101" xmlns="http://www.w3.org/2000/svg" xmlns:xlink="http://www.w3.org/1999/xlink" xml:space="preserve" overflow="hidden"><defs><clipPath id="clip0"><rect x="478" y="560" width="3538" height="1101"/></clipPath><clipPath id="clip1"><rect x="1226" y="1082" width="331" height="288"/></clipPath><clipPath id="clip2"><rect x="1226" y="1082" width="331" height="288"/></clipPath><clipPath id="clip3"><rect x="1226" y="1082" width="331" height="288"/></clipPath><clipPath id="clip4"><rect x="1273" y="990" width="331" height="288"/></clipPath><clipPath id="clip5"><rect x="1273" y="990" width="331" height="288"/></clipPath><clipPath id="clip6"><rect x="1273" y="990" width="331" height="288"/></clipPath></defs><g clip-path="url(#clip0)" transform="translate(-478 -560)"><path d="M3195.5 851.07C3195.5 836.864 3259.24 825.5 3336.5 825.5 3413.76 825.5 3477.5 836.864 3477.5 851.07 3477.5 951.93 3477.5 951.93 3477.5 951.93 3477.5 966.136 3413.76 977.5 3336.5 977.5 3259.24 977.5 3195.5 966.136 3195.5 951.93L3195.5 851.07Z" stroke="#787878" stroke-width="4.58333" stroke-miterlimit="8" fill="#A5A5A5" fill-rule="evenodd"/><path d="M3195.5 1033.07C3195.5 1018.86 3259.24 1007.5 3336.5 1007.5 3413.76 1007.5 3477.5 1018.86 3477.5 1033.07 3477.5 1133.93 3477.5 1133.93 3477.5 1133.93 3477.5 1148.14 3413.76 1159.5 3336.5 1159.5 3259.24 1159.5 3195.5 1148.14 3195.5 1133.93L3195.5 1033.07Z" stroke="#787878" stroke-width="4.58333" stroke-miterlimit="8" fill="#A5A5A5" fill-rule="evenodd"/><path d="M3477.5 1033.5C3477.5 1046 3413.76 1058.5 3336.5 1058.5 3259.24 1058.5 3195.5 1046 3195.5 1033.5" stroke="#787878" stroke-width="4.58333" stroke-miterlimit="8" fill="#A5A5A5" fill-rule="evenodd"/><path d="M3195.5 1033.07C3195.5 1018.86 3259.24 1007.5 3336.5 1007.5 3413.76 1007.5 3477.5 1018.86 3477.5 1033.07 3477.5 1133.93 3477.5 1133.93 3477.5 1133.93 3477.5 1148.14 3413.76 1159.5 3336.5 1159.5 3259.24 1159.5 3195.5 1148.14 3195.5 1133.93L3195.5 1033.07Z" stroke="#787878" stroke-width="4.58333" stroke-miterlimit="8" fill="#A5A5A5" fill-rule="evenodd"/><path d="M3195.5 941.833C3195.5 927.759 3259.24 916.5 3336.5 916.5 3413.76 916.5 3477.5 927.759 3477.5 941.833 3477.5 1043.17 3477.5 1043.17 3477.5 1043.17 3477.5 1057.24 3413.76 1068.5 3336.5 1068.5 3259.24 1068.5 3195.5 1057.24 3195.5 1043.17L3195.5 941.833Z" stroke="#787878" stroke-width="4.58333" stroke-miterlimit="8" fill="#A5A5A5" fill-rule="evenodd"/><path d="M3477.5 941.5C3477.5 955.389 3413.76 966.5 3336.5 966.5 3259.24 966.5 3195.5 955.389 3195.5 941.5" stroke="#787878" stroke-width="4.58333" stroke-miterlimit="8" fill="#A5A5A5" fill-rule="evenodd"/><path d="M3195.5 941.833C3195.5 927.759 3259.24 916.5 3336.5 916.5 3413.76 916.5 3477.5 927.759 3477.5 941.833 3477.5 1043.17 3477.5 1043.17 3477.5 1043.17 3477.5 1057.24 3413.76 1068.5 3336.5 1068.5 3259.24 1068.5 3195.5 1057.24 3195.5 1043.17L3195.5 941.833Z" stroke="#787878" stroke-width="4.58333" stroke-miterlimit="8" fill="#A5A5A5" fill-rule="evenodd"/><path d="M3195.5 851.07C3195.5 836.864 3259.24 825.5 3336.5 825.5 3413.76 825.5 3477.5 836.864 3477.5 851.07 3477.5 951.93 3477.5 951.93 3477.5 951.93 3477.5 966.136 3413.76 977.5 3336.5 977.5 3259.24 977.5 3195.5 966.136 3195.5 951.93L3195.5 851.07Z" stroke="#787878" stroke-width="4.58333" stroke-miterlimit="8" fill="#A5A5A5" fill-rule="evenodd"/><path d="M3477.5 851.5C3477.5 865.389 3413.76 876.5 3336.5 876.5 3259.24 876.5 3195.5 865.389 3195.5 851.5" stroke="#787878" stroke-width="4.58333" stroke-miterlimit="8" fill="#A5A5A5" fill-rule="evenodd"/><path d="M3359.5 800.07C3359.5 785.864 3406.29 774.5 3463 774.5 3519.71 774.5 3566.5 785.864 3566.5 800.07 3566.5 900.93 3566.5 900.93 3566.5 900.93 3566.5 915.135 3519.71 926.5 3463 926.5 3406.29 926.5 3359.5 915.135 3359.5 900.93L3359.5 800.07Z" stroke="#148E7A" stroke-width="4.58333" stroke-miterlimit="8" fill="#1FC2A7" fill-rule="evenodd"/><path d="M3359.5 982.07C3359.5 967.865 3406.29 956.5 3463 956.5 3519.71 956.5 3566.5 967.865 3566.5 982.07 3566.5 1082.93 3566.5 1082.93 3566.5 1082.93 3566.5 1097.14 3519.71 1108.5 3463 1108.5 3406.29 1108.5 3359.5 1097.14 3359.5 1082.93L3359.5 982.07Z" stroke="#148E7A" stroke-width="4.58333" stroke-miterlimit="8" fill="#1FC2A7" fill-rule="evenodd"/><path d="M3566.5 982.5C3566.5 995 3519.71 1007.5 3463 1007.5 3406.29 1007.5 3359.5 995 3359.5 982.5" stroke="#148E7A" stroke-width="4.58333" stroke-miterlimit="8" fill="#1FC2A7" fill-rule="evenodd"/><path d="M3359.5 982.07C3359.5 967.865 3406.29 956.5 3463 956.5 3519.71 956.5 3566.5 967.865 3566.5 982.07 3566.5 1082.93 3566.5 1082.93 3566.5 1082.93 3566.5 1097.14 3519.71 1108.5 3463 1108.5 3406.29 1108.5 3359.5 1097.14 3359.5 1082.93L3359.5 982.07Z" stroke="#148E7A" stroke-width="4.58333" stroke-miterlimit="8" fill="#1FC2A7" fill-rule="evenodd"/><path d="M3359.5 890.833C3359.5 876.759 3406.29 865.5 3463 865.5 3519.71 865.5 3566.5 876.759 3566.5 890.833 3566.5 992.167 3566.5 992.167 3566.5 992.167 3566.5 1006.24 3519.71 1017.5 3463 1017.5 3406.29 1017.5 3359.5 1006.24 3359.5 992.167L3359.5 890.833Z" stroke="#148E7A" stroke-width="4.58333" stroke-miterlimit="8" fill="#1FC2A7" fill-rule="evenodd"/><path d="M3566.5 890.5C3566.5 904.945 3519.71 916.5 3463 916.5 3406.29 916.5 3359.5 904.945 3359.5 890.5" stroke="#148E7A" stroke-width="4.58333" stroke-miterlimit="8" fill="#1FC2A7" fill-rule="evenodd"/><path d="M3359.5 890.833C3359.5 876.759 3406.29 865.5 3463 865.5 3519.71 865.5 3566.5 876.759 3566.5 890.833 3566.5 992.167 3566.5 992.167 3566.5 992.167 3566.5 1006.24 3519.71 1017.5 3463 1017.5 3406.29 1017.5 3359.5 1006.24 3359.5 992.167L3359.5 890.833Z" stroke="#148E7A" stroke-width="4.58333" stroke-miterlimit="8" fill="#1FC2A7" fill-rule="evenodd"/><path d="M3359.5 800.07C3359.5 785.864 3406.29 774.5 3463 774.5 3519.71 774.5 3566.5 785.864 3566.5 800.07 3566.5 900.93 3566.5 900.93 3566.5 900.93 3566.5 915.135 3519.71 926.5 3463 926.5 3406.29 926.5 3359.5 915.135 3359.5 900.93L3359.5 800.07Z" stroke="#148E7A" stroke-width="4.58333" stroke-miterlimit="8" fill="#1FC2A7" fill-rule="evenodd"/><path d="M3566.5 800.5C3566.5 814.389 3519.71 825.5 3463 825.5 3406.29 825.5 3359.5 814.389 3359.5 800.5" stroke="#148E7A" stroke-width="4.58333" stroke-miterlimit="8" fill="#1FC2A7" fill-rule="evenodd"/><path d="M2152.5 1138.25 2302 1138.25 2302 1113.5 2351.5 1163 2302 1212.5 2302 1187.75 2152.5 1187.75Z" stroke="#1E2B38" stroke-width="4.58333" stroke-miterlimit="8" fill="#2D3E50" fill-rule="evenodd"/><text fill="#595959" font-family="Calibri,Calibri_MSFontService,sans-serif" font-weight="400" font-size="83" transform="matrix(1 0 0 1 2022.64 1052)">(auto)process</text><g clip-path="url(#clip1)"><g clip-path="url(#clip2)"><g clip-path="url(#clip3)"><path d="M242.156 227.208 44.8438 227.208C38.2667 227.208 32.8854 221.827 32.8854 215.25L32.8854 71.75C32.8854 65.1729 38.2667 59.7917 44.8438 59.7917L101.048 59.7917C103.44 59.7917 105.831 60.3896 107.625 61.8844L140.51 83.7083 242.156 83.7083C248.733 83.7083 254.115 89.0896 254.115 95.6667L254.115 215.25C254.115 221.827 248.733 227.208 242.156 227.208Z" stroke="#595959" stroke-width="5.97917" fill="#E7E6E6" transform="matrix(1.14983 0 0 1 1227 1082)"/></g></g></g><g clip-path="url(#clip4)"><g clip-path="url(#clip5)"><g clip-path="url(#clip6)"><path d="M242.156 227.208 44.8438 227.208C38.2667 227.208 32.8854 221.827 32.8854 215.25L32.8854 71.75C32.8854 65.1729 38.2667 59.7917 44.8438 59.7917L101.048 59.7917C103.44 59.7917 105.831 60.3896 107.625 61.8844L140.51 83.7083 242.156 83.7083C248.733 83.7083 254.115 89.0896 254.115 95.6667L254.115 215.25C254.115 221.827 248.733 227.208 242.156 227.208Z" stroke="#595959" stroke-width="5.97917" fill="#0BB5DD" transform="matrix(1.14983 0 0 1 1274 990)"/></g></g></g><text fill="#595959" font-family="Calibri,Calibri_MSFontService,sans-serif" font-weight="400" font-size="83" transform="matrix(1 0 0 1 1262.12 1576)">raw data  <tspan font-size="83" x="765.875" y="-267">(auto)publish</tspan><tspan font-size="83" x="2377.45" y="-502">public </tspan><tspan font-size="83" x="2307.44" y="-403">repository  </tspan></text><path d="M634.5 1185 784.5 1185 784.5 1160.5 833.5 1209.5 784.5 1258.5 784.5 1234 634.5 1234Z" stroke="#1E2B38" stroke-width="4.58333" stroke-miterlimit="8" fill="#2D3E50" fill-rule="evenodd"/><text fill="#595959" font-family="Calibri,Calibri_MSFontService,sans-serif" font-weight="400" font-size="83" transform="matrix(1 0 0 1 561.257 1052)">annotate  </text><rect x="2977" y="1106" width="95.0002" height="84.0002" fill="#1FC2A7"/><rect x="3077" y="1106" width="95.0002" height="84.0002" fill="#1FC2A7"/><rect x="3177" y="1106" width="95.0002" height="84.0002" fill="#1FC2A7"/><rect x="2977" y="1194" width="95.0002" height="84.0002" fill="#1FC2A7"/><rect x="3077" y="1194" width="95.0002" height="84.0002" fill="#1FC2A7"/><rect x="3177" y="1194" width="95.0002" height="84.0002" fill="#1FC2A7"/><rect x="2977" y="1281" width="95.0002" height="83.9999" fill="#1FC2A7"/><rect x="3077" y="1281" width="95.0002" height="83.9999" fill="#1FC2A7"/><rect x="3177" y="1281" width="95.0002" height="83.9999" fill="#1FC2A7"/><rect x="2977.5" y="1051.5" width="291" height="40.9999" stroke="#0684A2" stroke-width="4.58333" stroke-miterlimit="8" fill="#0BB5DD"/><rect x="0" y="0" width="157" height="71.0002" stroke="#0684A2" stroke-width="4.58333" stroke-miterlimit="8" fill="#0BB5DD" transform="matrix(1 0 0 -1 2777.5 1460.5)"/><path d="M0 0 124.447 0.000360892" stroke="#0BB5DD" stroke-width="2.29167" stroke-miterlimit="8" fill="none" fill-rule="evenodd" transform="matrix(1 0 0 -1 2934 1425)"/><path d="M0 0 52.5791 213.793" stroke="#0BB5DD" stroke-width="2.29167" stroke-miterlimit="8" fill="none" fill-rule="evenodd" transform="matrix(1 0 0 -1 3058 1424.79)"/><rect x="0" y="0" width="157" height="71.0002" stroke="#0684A2" stroke-width="4.58333" stroke-miterlimit="8" fill="#0BB5DD" transform="matrix(-1 0 0 1 3660.5 562.5)"/><path d="M0 0 124.447 0.000360892" stroke="#0BB5DD" stroke-width="2.29167" stroke-miterlimit="8" fill="none" fill-rule="evenodd" transform="matrix(-1 0 0 1 3503.45 598)"/><path d="M0 0 52.5791 213.794" stroke="#0BB5DD" stroke-width="2.29167" stroke-miterlimit="8" fill="none" fill-rule="evenodd" transform="matrix(-1 0 0 1 3376.58 600)"/><text fill="#595959" font-family="Calibri,Calibri_MSFontService,sans-serif" font-weight="400" font-size="83" transform="matrix(1 0 0 1 2936.94 1589)">(meta)data  </text><rect x="0" y="0" width="157" height="70.9998" stroke="#0684A2" stroke-width="4.58333" stroke-miterlimit="8" fill="#0BB5DD" transform="matrix(1 0 0 -1 1041.5 1408.5)"/><path d="M0 0 124.447 0.000360892" stroke="#0BB5DD" stroke-width="2.29167" stroke-miterlimit="8" fill="none" fill-rule="evenodd" transform="matrix(1 0 0 -1 1198 1373)"/><path d="M0 0 52.5791 213.793" stroke="#0BB5DD" stroke-width="2.29167" stroke-miterlimit="8" fill="none" fill-rule="evenodd" transform="matrix(1 0 0 -1 1322 1372.79)"/><rect x="0" y="0" width="157" height="70.0001" stroke="#0684A2" stroke-width="4.58333" stroke-miterlimit="8" fill="#0BB5DD" transform="matrix(-1 0 0 1 1680.5 908.5)"/><path d="M0 0 124.447 0.000360892" stroke="#0BB5DD" stroke-width="2.29167" stroke-miterlimit="8" fill="none" fill-rule="evenodd" transform="matrix(-1 0 0 1 1523.45 943)"/><path d="M0 0 52.5791 213.793" stroke="#0BB5DD" stroke-width="2.29167" stroke-miterlimit="8" fill="none" fill-rule="evenodd" transform="matrix(-1 0 0 1 1398.58 943)"/><rect x="1563.5" y="1244.5" width="156" height="71.0001" stroke="#0684A2" stroke-width="4.58333" stroke-miterlimit="8" fill="#0BB5DD"/><path d="M1562.45 1279 1438 1279" stroke="#0BB5DD" stroke-width="2.29167" stroke-miterlimit="8" fill="none" fill-rule="evenodd"/><path d="M1438.58 1279.79 1386 1066" stroke="#0BB5DD" stroke-width="2.29167" stroke-miterlimit="8" fill="none" fill-rule="evenodd"/><rect x="994.5" y="977.5" width="157" height="69.9998" stroke="#0684A2" stroke-width="4.58333" stroke-miterlimit="8" fill="#0BB5DD"/><path d="M1151 1012 1275.45 1012" stroke="#0BB5DD" stroke-width="2.29167" stroke-miterlimit="8" fill="none" fill-rule="evenodd"/><path d="M1275 1012 1327.58 1225.79" stroke="#0BB5DD" stroke-width="2.29167" stroke-miterlimit="8" fill="none" fill-rule="evenodd"/><rect x="3392.5" y="1354.5" width="157" height="71.0001" stroke="#0684A2" stroke-width="4.58333" stroke-miterlimit="8" fill="#0BB5DD"/><path d="M3392.45 1390 3268 1390" stroke="#0BB5DD" stroke-width="2.29167" stroke-miterlimit="8" fill="none" fill-rule="evenodd"/><path d="M3267.58 1389.79 3215 1176" stroke="#0BB5DD" stroke-width="2.29167" stroke-miterlimit="8" fill="none" fill-rule="evenodd"/><rect x="2744.5" y="925.5" width="157" height="71.0002" stroke="#0684A2" stroke-width="4.58333" stroke-miterlimit="8" fill="#0BB5DD"/><path d="M2901 960 3025.45 960" stroke="#0BB5DD" stroke-width="2.29167" stroke-miterlimit="8" fill="none" fill-rule="evenodd"/><path d="M3025 960 3077.58 1173.79" stroke="#0BB5DD" stroke-width="2.29167" stroke-miterlimit="8" fill="none" fill-rule="evenodd"/></g></svg>