<svg width="1617" height="1616" xmlns="http://www.w3.org/2000/svg" xmlns:xlink="http://www.w3.org/1999/xlink" xml:space="preserve" overflow="hidden"><defs><clipPath id="clip0"><rect x="504" y="467" width="1617" height="1616"/></clipPath></defs><g clip-path="url(#clip0)" transform="translate(-504 -467)"><path d="M819.755 892.256 1096.22 838.14 1098.92 851.963 822.46 906.079Z" stroke="#3F3F3F" stroke-width="4.58333" stroke-miterlimit="8" fill="#595959" fill-rule="evenodd"/><path d="M808.931 836.963 940.252 811.258 942.958 825.081 811.637 850.786Z" stroke="#3F3F3F" stroke-width="4.58333" stroke-miterlimit="8" fill="#595959" fill-rule="evenodd"/><path d="M830.578 947.549 1107.04 893.433 1109.75 907.256 833.283 961.372Z" stroke="#3F3F3F" stroke-width="4.58333" stroke-miterlimit="8" fill="#595959" fill-rule="evenodd"/><path d="M841.401 1002.84 1117.86 948.726 1120.57 962.549 844.107 1016.66Z" stroke="#3F3F3F" stroke-width="4.58333" stroke-miterlimit="8" fill="#595959" fill-rule="evenodd"/><path d="M852.224 1058.13 1128.69 1004.02 1131.39 1017.84 854.93 1071.96Z" stroke="#3F3F3F" stroke-width="4.58333" stroke-miterlimit="8" fill="#595959" fill-rule="evenodd"/><path d="M863.047 1113.43 1139.51 1059.31 1142.22 1073.14 865.753 1127.25Z" stroke="#3F3F3F" stroke-width="4.58333" stroke-miterlimit="8" fill="#595959" fill-rule="evenodd"/><path d="M704.64 670.79 812.872 1223.72 1227.57 1142.55 1148.54 738.81 970.142 618.82ZM978.952 641.717 1124.01 739.284C1124.04 739.305 1124.05 739.35 1124.03 739.382 1124.02 739.397 1124 739.407 1123.98 739.411L1002.6 763.17 978.844 641.789C978.837 641.75 978.862 641.714 978.9 641.707 978.918 641.704 978.937 641.708 978.952 641.717ZM823.989 1207.19 721.168 681.907 963.076 634.555 991.486 779.699 1136.63 751.288 1211.04 1131.43Z" stroke="#3F3F3F" stroke-width="4.58333" stroke-miterlimit="8" fill="#595959" fill-rule="evenodd"/><text fill="#595959" font-family="Shadows Into Light Two,Shadows Into Light Two_MSFontService,sans-serif" font-weight="300" font-size="92" transform="matrix(1 0 0 1 645.843 580)">classical publication</text><rect x="1739.5" y="1705.5" width="83.0002" height="171" stroke="#BC8C00" stroke-width="4.58333" stroke-miterlimit="8" fill="#FFC000"/><rect x="1839.5" y="1660.5" width="83.0002" height="216" stroke="#BC8C00" stroke-width="4.58333" stroke-miterlimit="8" fill="#FFC000"/><rect x="1938.5" y="1615.5" width="83.0002" height="261" stroke="#BC8C00" stroke-width="4.58333" stroke-miterlimit="8" fill="#FFC000"/><path d="M1702.89 1787.62C1565.93 1790 1452.97 1680.9 1450.59 1543.94 1448.21 1406.98 1557.31 1294.01 1694.27 1291.63 1831.24 1289.25 1944.2 1398.36 1946.58 1535.32 1946.68 1541.54 1946.56 1547.76 1946.2 1553.97" stroke="#FFC000" stroke-width="27.5" stroke-linecap="round" stroke-miterlimit="8" fill="none" fill-rule="evenodd"/><path d="M0 0 49.5141 54.7199" stroke="#FFC000" stroke-width="27.5" stroke-linecap="round" stroke-miterlimit="8" fill="none" fill-rule="evenodd" transform="matrix(1 0 0 -1 1942 1566.72)"/><path d="M0 0 49.5141 54.7199" stroke="#FFC000" stroke-width="27.5" stroke-linecap="round" stroke-miterlimit="8" fill="none" fill-rule="evenodd" transform="matrix(-1.83697e-16 -1 -1 1.83697e-16 1941.72 1566.51)"/><path d="M1594.32 1596.64C1583.16 1577.08 1583.07 1533.67 1595.02 1507.7 1606.97 1481.74 1629.18 1445.22 1690.97 1444.32 1712.44 1444.01 1743.91 1439 1764.11 1434.12 1784.31 1429.23 1803.24 1414.69 1812.18 1415 1821.12 1415.32 1819.21 1423.66 1817.77 1435.99 1816.32 1448.32 1809.77 1473.21 1803.51 1488.98 1797.24 1504.75 1780.04 1550.63 1767.04 1571.57 1754.03 1592.52 1742.99 1605.74 1725.49 1614.66 1707.98 1623.58 1683.87 1628.08 1662.01 1625.07 1640.15 1622.07 1605.49 1616.2 1594.32 1596.64Z" stroke="#595959" stroke-width="13.75" stroke-linecap="round" stroke-miterlimit="8" fill="none" fill-rule="evenodd"/><path d="M1570 1658C1580.56 1612.85 1591.11 1567.71 1684 1538" stroke="#595959" stroke-width="13.75" stroke-linecap="round" stroke-miterlimit="8" fill="none" fill-rule="evenodd"/><rect x="1304.5" y="1254.5" width="115" height="52.0002" stroke="#BC8C00" stroke-width="4.58333" stroke-miterlimit="8" fill="#FFC000"/><path d="M1419.5 1280.5 1510.84 1280.5" stroke="#FFC000" stroke-width="6.875" stroke-miterlimit="8" fill="none" fill-rule="evenodd"/><path d="M1510.5 1280.5 1549.09 1437.42" stroke="#FFC000" stroke-width="6.875" stroke-miterlimit="8" fill="none" fill-rule="evenodd"/><rect x="1388.5" y="1780.5" width="115" height="51.9999" stroke="#BC8C00" stroke-width="4.58333" stroke-miterlimit="8" fill="#FFC000"/><path d="M1503.5 1806.5 1585.66 1806.5" stroke="#FFC000" stroke-width="6.875" stroke-miterlimit="8" fill="none" fill-rule="evenodd"/><path d="M0 0 38.5931 156.924" stroke="#FFC000" stroke-width="6.875" stroke-miterlimit="8" fill="none" fill-rule="evenodd" transform="matrix(1 0 0 -1 1586.5 1806.42)"/><rect x="2003.5" y="1355.5" width="115" height="51.0002" stroke="#BC8C00" stroke-width="4.58333" stroke-miterlimit="8" fill="#FFC000"/><path d="M1942.5 1380.5 2002.51 1380.5" stroke="#FFC000" stroke-width="6.875" stroke-miterlimit="8" fill="none" fill-rule="evenodd"/><path d="M0 0 169.194 90.1069" stroke="#FFC000" stroke-width="6.875" stroke-miterlimit="8" fill="none" fill-rule="evenodd" transform="matrix(1 0 0 -1 1773.5 1470.61)"/><path d="M1986.79 1076.89C1998.16 1076.92 2009.66 1080.11 2019.82 1086.66 2033.52 1096.24 2041.99 1110.17 2044.64 1125.13 2047.29 1140.09 2044.13 1156.08 2034.55 1169.78L1949.08 1292.09C1937.46 1308.72 1919.22 1317.1 1900.35 1317.02L1887.64 1335.2 1881.52 1329.64C1873.36 1322.9 1864.87 1316.55 1856.07 1310.61L1833.05 1296.62 1845.56 1278.72C1838.99 1261.03 1840.59 1241.03 1852.21 1224.39L1937.68 1102.08C1949.22 1085.57 1967.84 1076.85 1986.79 1076.89Z" stroke="#FFC000" stroke-width="27.5" stroke-linecap="round" stroke-miterlimit="8" fill="none" fill-rule="evenodd"/><text fill="#595959" font-family="Shadows Into Light Two,Shadows Into Light Two_MSFontService,sans-serif" font-weight="300" font-size="92" transform="matrix(1 0 0 1 1445.59 2002)">ARC publication</text><path d="M1289.69 657.914 1312.63 656.589 1335.54 656.225 1358.33 656.879 1380.96 658.488 1403.34 661.058 1425.5 664.586 1447.39 669.011 1468.95 674.339 1490.24 680.564 1511.19 687.692 1531.74 695.66 1551.95 704.464 1571.71 714.118 1591.04 724.541 1609.87 735.826 1628.26 747.805 1646.09 760.591 1663.42 774.079 1680.12 788.312 1696.25 803.183 1711.81 818.791 1726.7 835.064 1740.93 852 1754.49 869.598 1767.32 887.733 1779.37 906.56 1790.68 925.903 1801.19 945.8 1810.92 966.305 1819.78 987.294 1827.73 1008.85 1831.71 1021.1 1821.9 1024.28 1818.06 1012.41 1810.28 991.304 1801.6 970.722 1792.08 950.617 1781.77 931.105 1770.69 912.119 1758.9 893.687 1746.32 875.892 1733.03 858.631 1719.09 842.024 1704.5 826.069 1689.26 810.765 1673.43 796.158 1657.09 782.217 1640.08 768.97 1622.63 756.445 1604.57 744.67 1586.14 733.618 1567.18 723.382 1547.83 713.917 1528.01 705.274 1507.87 697.455 1487.34 690.462 1466.48 684.35 1445.35 679.119 1423.88 674.77 1402.16 671.303 1380.23 668.774 1358.03 667.187 1335.7 666.536 1313.22 666.884 1290.28 668.21ZM1839.47 988.795 1829.96 1032.43 1796.66 1002.68C1794.54 1000.78 1794.35 997.522 1796.25 995.398 1798.15 993.274 1801.41 993.09 1803.53 994.988L1830.24 1018.85 1821.77 1021.6 1829.39 986.6C1830 983.818 1832.74 982.053 1835.53 982.66 1838.31 983.266 1840.07 986.012 1839.47 988.795Z" fill="#595959"/><path d="M1374 1699.82 1351.07 1701.15 1328.15 1701.51 1305.36 1700.86 1282.73 1699.25 1260.36 1696.68 1238.19 1693.15 1216.3 1688.72 1194.74 1683.4 1173.45 1677.17 1152.5 1670.04 1131.95 1662.08 1111.74 1653.27 1091.99 1643.62 1072.65 1633.19 1053.82 1621.91 1035.43 1609.93 1017.6 1597.14 1000.27 1583.66 983.575 1569.42 967.439 1554.55 951.885 1538.94 936.993 1522.67 922.766 1505.74 909.203 1488.14 896.375 1470 884.321 1451.18 873.015 1431.83 862.499 1411.94 852.773 1391.43 843.909 1370.44 835.961 1348.89 831.982 1336.63 841.791 1333.45 845.637 1345.32 853.41 1366.43 862.092 1387.01 871.617 1407.12 881.919 1426.63 893.007 1445.62 904.795 1464.05 917.372 1481.84 930.663 1499.1 944.603 1515.71 959.191 1531.67 974.429 1546.97 990.266 1561.58 1006.61 1575.52 1023.62 1588.77 1041.06 1601.29 1059.12 1613.07 1077.55 1624.12 1096.52 1634.35 1115.86 1643.82 1135.68 1652.46 1155.82 1660.28 1176.35 1667.27 1197.22 1673.39 1218.35 1678.62 1239.81 1682.97 1261.54 1686.43 1283.46 1688.96 1305.66 1690.55 1327.99 1691.2 1350.47 1690.85 1373.41 1689.53ZM824.226 1368.94 833.729 1325.31 867.032 1355.06C869.156 1356.95 869.34 1360.21 867.443 1362.34 865.546 1364.46 862.286 1364.65 860.162 1362.75L833.451 1338.89 841.924 1336.14 834.302 1371.14C833.696 1373.92 830.949 1375.68 828.167 1375.08 825.385 1374.47 823.62 1371.72 824.226 1368.94Z" fill="#595959"/></g></svg>