<svg width="3678" height="1569" xmlns="http://www.w3.org/2000/svg" xmlns:xlink="http://www.w3.org/1999/xlink" xml:space="preserve" overflow="hidden"><defs><clipPath id="clip0"><rect x="361" y="514" width="3678" height="1569"/></clipPath></defs><g clip-path="url(#clip0)" transform="translate(-361 -514)"><path d="M1883.68 613.675 1961.83 613.675C1962.45 613.675 1963.06 613.854 1963.64 614.212 1964.22 614.57 1964.74 615.152 1965.18 615.957 1965.63 616.763 1965.94 617.815 1966.12 619.113 1966.3 620.411 1966.39 621.91 1966.39 623.611 1966.39 625.312 1966.3 626.789 1966.12 628.042 1965.94 629.296 1965.63 630.303 1965.18 631.063 1964.74 631.824 1964.22 632.384 1963.64 632.742 1963.06 633.1 1962.45 633.279 1961.83 633.279L1898.18 633.279 1898.18 692.361 1958.34 692.361C1958.96 692.361 1959.57 692.518 1960.15 692.831 1960.73 693.144 1961.24 693.659 1961.69 694.375 1962.14 695.091 1962.45 696.054 1962.63 697.262 1962.81 698.471 1962.9 700.015 1962.9 701.895 1962.9 703.596 1962.81 705.05 1962.63 706.259 1962.45 707.467 1962.14 708.452 1961.69 709.213 1961.24 709.974 1960.73 710.556 1960.15 710.958 1959.57 711.361 1958.96 711.563 1958.34 711.563L1898.18 711.563 1898.18 783.938C1898.18 784.565 1898 785.169 1897.64 785.751 1897.28 786.333 1896.66 786.78 1895.76 787.094 1894.87 787.407 1893.7 787.676 1892.27 787.899 1890.84 788.123 1888.96 788.235 1886.63 788.235 1884.48 788.235 1882.65 788.123 1881.13 787.899 1879.6 787.676 1878.4 787.407 1877.5 787.094 1876.6 786.78 1875.98 786.333 1875.62 785.751 1875.26 785.169 1875.08 784.565 1875.08 783.938L1875.08 623.074C1875.08 619.583 1876 617.143 1877.84 615.756 1879.67 614.368 1881.62 613.675 1883.68 613.675Z" stroke="#2D3E50" stroke-width="7" stroke-linejoin="round" stroke-miterlimit="10" fill="#B8D0DA" fill-rule="evenodd"/><text fill="#000000" fill-opacity="0" font-family="Arial,Arial_MSFontService,sans-serif" font-size="174.561" x="1875.08" y="766.415">F</text><text fill="#2D3E50" font-family="Calibri,Calibri_MSFontService,sans-serif" font-weight="400" font-size="161" transform="matrix(1 0 0 1 1978.6 787)">INDABLE</text><path d="M1862.58 1021.77 1832.63 1108.38 1893.06 1108.38 1862.71 1021.77ZM1863.38 997.869C1866.25 997.869 1868.62 997.936 1870.5 998.07 1872.38 998.205 1873.9 998.451 1875.06 998.809 1876.23 999.167 1877.12 999.682 1877.75 1000.35 1878.38 1001.02 1878.87 1001.85 1879.23 1002.84L1937.5 1164.24C1938.22 1166.21 1938.6 1167.8 1938.64 1169.01 1938.69 1170.21 1938.35 1171.13 1937.64 1171.76 1936.92 1172.38 1935.73 1172.79 1934.08 1172.97 1932.42 1173.15 1930.21 1173.24 1927.43 1173.24 1924.66 1173.24 1922.44 1173.17 1920.78 1173.03 1919.13 1172.9 1917.88 1172.68 1917.02 1172.36 1916.17 1172.05 1915.55 1171.62 1915.14 1171.09 1914.74 1170.55 1914.36 1169.88 1914 1169.07L1899.1 1126.78 1826.86 1126.78 1812.62 1168.54C1812.36 1169.34 1812 1170.03 1811.55 1170.62 1811.1 1171.2 1810.45 1171.69 1809.6 1172.09 1808.75 1172.5 1807.54 1172.79 1805.98 1172.97 1804.41 1173.15 1802.37 1173.24 1799.87 1173.24 1797.27 1173.24 1795.15 1173.12 1793.49 1172.9 1791.83 1172.68 1790.67 1172.25 1790 1171.62 1789.33 1171 1789.01 1170.08 1789.06 1168.87 1789.1 1167.66 1789.48 1166.07 1790.2 1164.1L1848.48 1002.7C1848.83 1001.72 1849.3 1000.91 1849.89 1000.29 1850.47 999.659 1851.32 999.167 1852.44 998.809 1853.56 998.451 1854.99 998.205 1856.73 998.07 1858.48 997.936 1860.7 997.869 1863.38 997.869Z" stroke="#2D3E50" stroke-width="7" stroke-linejoin="round" stroke-miterlimit="10" fill="#B8D0DA" fill-rule="evenodd"/><text fill="#000000" fill-opacity="0" font-family="Arial,Arial_MSFontService,sans-serif" font-size="175.366" x="1789.05" y="1151.31">A</text><text fill="#2D3E50" font-family="Calibri,Calibri_MSFontService,sans-serif" font-weight="400" font-size="161" transform="matrix(1 0 0 1 1943.56 1172)">CCESSIBLE</text><path d="M1684 1382.87C1686.24 1382.87 1688.1 1382.98 1689.57 1383.2 1691.05 1383.43 1692.24 1383.7 1693.13 1384.01 1694.03 1384.32 1694.65 1384.75 1695.01 1385.29 1695.37 1385.82 1695.55 1386.45 1695.55 1387.17L1695.55 1553.94C1695.55 1554.65 1695.37 1555.28 1695.01 1555.82 1694.65 1556.36 1694.03 1556.78 1693.13 1557.09 1692.24 1557.41 1691.05 1557.68 1689.57 1557.9 1688.1 1558.12 1686.24 1558.24 1684 1558.24 1681.85 1558.24 1680.02 1558.12 1678.5 1557.9 1676.97 1557.68 1675.77 1557.41 1674.87 1557.09 1673.98 1556.78 1673.35 1556.36 1672.99 1555.82 1672.63 1555.28 1672.45 1554.65 1672.45 1553.94L1672.45 1387.17C1672.45 1386.45 1672.66 1385.82 1673.06 1385.29 1673.46 1384.75 1674.13 1384.32 1675.07 1384.01 1676.01 1383.7 1677.22 1383.43 1678.7 1383.2 1680.17 1382.98 1681.94 1382.87 1684 1382.87Z" stroke="#2D3E50" stroke-width="7" stroke-linejoin="round" stroke-miterlimit="10" fill="#B8D0DA" fill-rule="evenodd"/><text fill="#000000" fill-opacity="0" font-family="Arial,Arial_MSFontService,sans-serif" font-size="175.366" x="1672.45" y="1536.31">I</text><text fill="#2D3E50" font-family="Calibri,Calibri_MSFontService,sans-serif" font-weight="400" font-size="161" transform="matrix(1 0 0 1 1718.68 1557)">NTEROPERABLE</text><path d="M1879.85 1787.74 1879.85 1846.29 1902.4 1846.29C1908.49 1846.29 1913.75 1845.55 1918.18 1844.07 1922.61 1842.59 1926.31 1840.54 1929.26 1837.89 1932.21 1835.25 1934.38 1832.14 1935.77 1828.56 1937.16 1824.98 1937.85 1821.09 1937.85 1816.88 1937.85 1810.08 1936.33 1804.33 1933.29 1799.63 1930.24 1794.93 1925.14 1791.55 1917.98 1789.49 1915.74 1788.86 1913.21 1788.41 1910.39 1788.14 1907.57 1787.88 1903.88 1787.74 1899.32 1787.74ZM1865.34 1768.67 1902.27 1768.67C1906.66 1768.67 1910.3 1768.79 1913.21 1769.01 1916.12 1769.23 1918.74 1769.48 1921.07 1769.75 1927.78 1770.91 1933.71 1772.75 1938.86 1775.25 1944.01 1777.76 1948.33 1780.94 1951.82 1784.79 1955.31 1788.64 1957.93 1793.05 1959.67 1798.01 1961.42 1802.98 1962.29 1808.47 1962.29 1814.46 1962.29 1820.28 1961.51 1825.5 1959.94 1830.11 1958.38 1834.72 1956.11 1838.79 1953.16 1842.33 1950.21 1845.86 1946.67 1848.93 1942.55 1851.52 1938.44 1854.12 1933.82 1856.31 1928.72 1858.1 1931.59 1859.36 1934.18 1860.95 1936.51 1862.87 1938.84 1864.79 1941.01 1867.1 1943.02 1869.79 1945.04 1872.47 1946.94 1875.56 1948.73 1879.05 1950.52 1882.54 1952.31 1886.48 1954.1 1890.87L1969.68 1929.14C1970.93 1932.36 1971.74 1934.62 1972.09 1935.92 1972.45 1937.21 1972.63 1938.22 1972.63 1938.94 1972.63 1939.65 1972.5 1940.28 1972.23 1940.82 1971.96 1941.36 1971.38 1941.8 1970.48 1942.16 1969.59 1942.52 1968.33 1942.79 1966.72 1942.97 1965.11 1943.15 1962.96 1943.23 1960.28 1943.23 1957.95 1943.23 1956.05 1943.15 1954.57 1942.97 1953.09 1942.79 1951.91 1942.5 1951.01 1942.09 1950.12 1941.69 1949.42 1941.13 1948.93 1940.42 1948.44 1939.7 1948.01 1938.8 1947.66 1937.73L1931.68 1896.78C1929.8 1892.12 1927.85 1887.85 1925.84 1883.95 1923.82 1880.06 1921.43 1876.7 1918.65 1873.88 1915.88 1871.06 1912.61 1868.87 1908.85 1867.3 1905.09 1865.73 1900.57 1864.95 1895.29 1864.95L1879.85 1864.95 1879.85 1938.94C1879.85 1939.65 1879.64 1940.28 1879.24 1940.82 1878.84 1941.36 1878.21 1941.78 1877.36 1942.09 1876.51 1942.41 1875.35 1942.68 1873.87 1942.9 1872.39 1943.12 1870.54 1943.23 1868.3 1943.23 1866.06 1943.23 1864.2 1943.12 1862.73 1942.9 1861.25 1942.68 1860.06 1942.41 1859.17 1942.09 1858.27 1941.78 1857.64 1941.36 1857.29 1940.82 1856.93 1940.28 1856.75 1939.65 1856.75 1938.94L1856.75 1778.07C1856.75 1774.58 1857.67 1772.14 1859.5 1770.76 1861.34 1769.37 1863.28 1768.67 1865.34 1768.67Z" stroke="#2D3E50" stroke-width="7" stroke-linejoin="round" stroke-miterlimit="10" fill="#B8D0DA" fill-rule="evenodd"/><text fill="#000000" fill-opacity="0" font-family="Arial,Arial_MSFontService,sans-serif" font-size="174.561" x="1856.75" y="1921.41">R</text><text fill="#2D3E50" font-family="Calibri,Calibri_MSFontService,sans-serif" font-weight="400" font-size="161" transform="matrix(1 0 0 1 1983.19 1942)">EUSABLE</text></g></svg>