<svg width="1436" height="1433" xmlns="http://www.w3.org/2000/svg" xmlns:xlink="http://www.w3.org/1999/xlink" xml:space="preserve" overflow="hidden"><defs><clipPath id="clip0"><rect x="2557" y="556" width="1436" height="1433"/></clipPath><clipPath id="clip1"><rect x="3359" y="711" width="331" height="331"/></clipPath><clipPath id="clip2"><rect x="3359" y="711" width="331" height="331"/></clipPath><clipPath id="clip3"><rect x="3359" y="711" width="331" height="331"/></clipPath></defs><g clip-path="url(#clip0)" transform="translate(-2557 -556)"><path d="M3157.98 1989 3157.98 1834.05C3158.59 1809.49 3147.27 1786.23 3127.8 1772.04 3084.46 1737.37 3034.25 1712.97 2980.72 1700.55 2940.55 1688.13 2898.97 1681.22 2857.05 1680 2815.32 1679.9 2773.83 1686.54 2734.08 1699.66 2681.32 1714.28 2631.51 1738.49 2587.01 1771.15 2568.21 1785.9 2557.12 1808.81 2557 1833.16L2557 1989Z" fill="#75797C" fill-rule="evenodd"/><path d="M3007 1482.5C3007 1567.83 2939.62 1637 2856.5 1637 2773.38 1637 2706 1567.83 2706 1482.5 2706 1397.17 2773.38 1328 2856.5 1328 2939.62 1328 3007 1397.17 3007 1482.5Z" fill="#75797C" fill-rule="evenodd"/><g clip-path="url(#clip1)"><g clip-path="url(#clip2)"><g clip-path="url(#clip3)"><path d="M3553.12 969.097 3493.96 969.097C3488.49 969.097 3484.05 973.533 3484.05 979.004 3484.05 984.476 3488.49 988.911 3493.96 988.911L3553.12 988.911C3558.59 988.911 3563.03 984.476 3563.03 979.004 3563.03 973.533 3558.59 969.097 3553.12 969.097Z" fill="#1FC2A7"/><path d="M3523.54 1022.5C3534.77 1022.5 3544.12 1013.86 3545 1002.66L3502.08 1002.66C3502.96 1013.86 3512.3 1022.5 3523.54 1022.5Z" fill="#1FC2A7"/><path d="M3609.38 864.879 3609.38 861.909C3608.53 815.019 3570.44 777.366 3523.54 777.051L3523.54 777.051C3476.64 777.362 3438.54 815.016 3437.68 861.909L3437.68 864.879C3438 875.049 3440.03 885.094 3443.66 894.596 3447.14 903.564 3452.2 911.839 3458.58 919.03 3466.44 927.624 3475.06 944.289 3478.69 951.686 3479.81 953.931 3482.1 955.351 3484.6 955.351L3562.47 955.351C3564.97 955.35 3567.26 953.93 3568.38 951.686 3572.01 944.292 3580.63 927.624 3588.48 919.03 3594.87 911.839 3599.93 903.564 3603.41 894.596 3607.04 885.093 3609.06 875.049 3609.38 864.879ZM3589.57 864.536C3589.28 872.45 3587.68 880.261 3584.84 887.656 3582.22 894.321 3578.45 900.469 3573.68 905.816 3566.11 914.939 3559.63 924.911 3554.37 935.53L3492.69 935.53C3487.43 924.91 3480.95 914.939 3473.38 905.816 3468.61 900.47 3464.83 894.321 3462.22 887.656 3459.39 880.263 3457.79 872.454 3457.49 864.542L3457.49 862.067C3458.16 826.011 3487.47 797.072 3523.53 796.861L3523.53 796.861C3559.6 797.07 3588.91 826.016 3589.57 862.074Z" fill="#1FC2A7"/><path d="M3524.21 763.562C3528.01 763.562 3531.09 760.484 3531.09 756.687L3531.09 732.625C3531.09 728.828 3528.01 725.75 3524.21 725.75 3520.42 725.75 3517.34 728.828 3517.34 732.625L3517.34 756.687C3517.34 760.484 3520.42 763.562 3524.21 763.562Z" fill="#1FC2A7"/><path d="M3442.62 793.812C3445.26 796.543 3449.61 796.619 3452.34 793.982 3455.07 791.344 3455.15 786.991 3452.51 784.26 3452.46 784.203 3452.4 784.146 3452.34 784.091L3435.31 767.062C3432.58 764.424 3428.23 764.499 3425.59 767.231 3423.02 769.895 3423.02 774.119 3425.59 776.783Z" fill="#1FC2A7"/><path d="M3601.04 797.116C3602.86 797.115 3604.61 796.391 3605.9 795.101L3622.91 778.086C3625.49 775.302 3625.33 770.952 3622.55 768.37 3619.91 765.921 3615.83 765.923 3613.19 768.375L3596.19 785.38C3593.5 788.066 3593.5 792.418 3596.19 795.103 3597.48 796.392 3599.23 797.115 3601.05 797.116Z" fill="#1FC2A7"/><path d="M3417.44 854.656 3393.38 854.656C3389.58 854.656 3386.5 857.734 3386.5 861.531 3386.5 865.328 3389.58 868.406 3393.38 868.406L3417.44 868.406C3421.23 868.406 3424.31 865.328 3424.31 861.531 3424.31 857.734 3421.23 854.656 3417.44 854.656Z" fill="#1FC2A7"/><path d="M3442.62 929.03 3425.61 946.046C3422.81 948.615 3422.63 952.964 3425.2 955.76 3427.77 958.555 3432.11 958.738 3434.91 956.169 3435.05 956.041 3435.18 955.906 3435.31 955.767L3452.33 938.751C3455.06 936.113 3455.14 931.761 3452.5 929.03 3449.86 926.299 3445.51 926.223 3442.78 928.861 3442.72 928.916 3442.66 928.972 3442.61 929.03Z" fill="#1FC2A7"/><path d="M3605.9 927.727C3603.31 924.946 3598.96 924.788 3596.18 927.373 3593.4 929.959 3593.24 934.309 3595.83 937.09 3595.94 937.214 3596.06 937.333 3596.19 937.448L3613.2 954.461C3615.93 957.098 3620.28 957.023 3622.92 954.291 3625.49 951.627 3625.49 947.403 3622.92 944.739Z" fill="#1FC2A7"/><path d="M3653.77 854.422 3629.7 854.422C3625.91 854.422 3622.83 857.5 3622.83 861.297 3622.83 865.094 3625.91 868.172 3629.7 868.172L3653.77 868.172C3657.56 868.172 3660.64 865.094 3660.64 861.297 3660.64 857.5 3657.56 854.422 3653.77 854.422Z" fill="#1FC2A7"/></g></g></g><path d="M3142.55 770.054C3131.72 695.315 3187.5 626.485 3267.14 616.319 3299.41 612.199 3332.22 618.358 3360.32 633.808 3390.1 581.134 3459.68 561.115 3515.74 589.095 3525.54 593.987 3534.54 600.188 3542.45 607.505 3565.64 563.842 3622.13 546.102 3668.62 567.883 3681.48 573.911 3692.71 582.63 3701.43 593.369 3738.81 552.077 3804.86 546.977 3848.96 581.976 3867.49 596.686 3879.98 616.976 3884.29 639.366 3945.53 655.049 3981.67 714.453 3964.99 772.05 3963.59 776.892 3961.83 781.637 3959.72 786.249 4008.84 846.264 3996.82 932.283 3932.87 978.378 3912.96 992.726 3889.45 1002.02 3864.6 1005.35 3864.05 1069.92 3807.78 1121.84 3738.93 1121.32 3715.93 1121.15 3693.42 1115.01 3673.91 1103.59 3650.62 1175.97 3569.39 1216.89 3492.47 1194.97 3460.24 1185.79 3432.39 1166.36 3413.67 1140.01 3334.92 1184.59 3232.7 1160.61 3185.36 1086.45 3184.76 1085.51 3184.18 1084.57 3183.6 1083.62 3132.06 1089.29 3085.38 1054.77 3079.33 1006.53 3076.1 980.814 3085.15 955.077 3104.05 936.175 3059.42 911.518 3044.43 857.396 3070.57 815.29 3085.64 790.999 3112.09 774.941 3141.76 772.054Z" stroke="#75797C" stroke-width="4.58333" stroke-miterlimit="8" fill="none" fill-rule="evenodd"/><path d="M3159.64 945.519C3140.59 946.919 3121.54 942.786 3105.05 933.675M3207.8 1075.14C3200.14 1078 3192.11 1079.91 3183.92 1080.81M3413.62 1137.42C3407.85 1129.31 3403.03 1120.64 3399.22 1111.56M3679.75 1072.94C3678.9 1082.56 3676.97 1092.07 3674 1101.31M3794.01 897.622C3837.21 917.354 3864.47 958.609 3864.08 1003.67M3959.29 784.678C3952.29 800.02 3941.61 813.631 3928.08 824.441M3884.42 637.136C3885.61 643.332 3886.16 649.621 3886.06 655.916M3685.16 615.231C3689.22 606.567 3694.61 598.501 3701.14 591.282M3535.66 626.645C3537.32 619.485 3539.92 612.547 3543.4 605.99M3360.21 633.659C3370.38 639.249 3379.79 645.978 3388.23 653.697M3147.44 791.142C3145.22 784.247 3143.59 777.197 3142.55 770.059" stroke="#75797C" stroke-width="4.58333" stroke-miterlimit="8" fill="none" fill-rule="evenodd"/><path d="M3174.5 1237C3174.5 1204.69 3200.69 1178.5 3233 1178.5 3265.31 1178.5 3291.5 1204.69 3291.5 1237 3291.5 1269.31 3265.31 1295.5 3233 1295.5 3200.69 1295.5 3174.5 1269.31 3174.5 1237Z" stroke="#75797C" stroke-width="4.58333" stroke-miterlimit="8" fill="none" fill-rule="evenodd"/><path d="M3102.5 1341C3102.5 1315.87 3122.65 1295.5 3147.5 1295.5 3172.35 1295.5 3192.5 1315.87 3192.5 1341 3192.5 1366.13 3172.35 1386.5 3147.5 1386.5 3122.65 1386.5 3102.5 1366.13 3102.5 1341Z" stroke="#75797C" stroke-width="4.58333" stroke-miterlimit="8" fill="none" fill-rule="evenodd"/><path d="M3026.5 1402C3026.5 1384.05 3041.05 1369.5 3059 1369.5 3076.95 1369.5 3091.5 1384.05 3091.5 1402 3091.5 1419.95 3076.95 1434.5 3059 1434.5 3041.05 1434.5 3026.5 1419.95 3026.5 1402Z" stroke="#75797C" stroke-width="4.58333" stroke-miterlimit="8" fill="none" fill-rule="evenodd"/></g></svg>