<svg width="2752" height="1938" xmlns="http://www.w3.org/2000/svg" xmlns:xlink="http://www.w3.org/1999/xlink" overflow="hidden"><defs><clipPath id="clip0"><rect x="884" y="487" width="2752" height="1938"/></clipPath></defs><g clip-path="url(#clip0)" transform="translate(-884 -487)"><path d="M2237.5 608.169C2237.5 543.182 2290.18 490.5 2355.17 490.5L3514.83 490.5C3579.82 490.5 3632.5 543.182 3632.5 608.169L3632.5 1078.83C3632.5 1143.82 3579.82 1196.5 3514.83 1196.5L2355.17 1196.5C2290.18 1196.5 2237.5 1143.82 2237.5 1078.83Z" stroke="#B4CE82" stroke-width="6.875" stroke-linejoin="round" stroke-miterlimit="10" fill="none" fill-rule="evenodd"/><rect x="1226.5" y="1659.5" width="2133" height="542" stroke="#148E7A" stroke-width="4.58333" stroke-miterlimit="8" fill="#9DEFE2"/><rect x="1226.5" y="2072.5" width="382" height="128" stroke="#148E7A" stroke-width="4.58333" stroke-miterlimit="8" fill="#1FC2A7"/><text fill="#FFFFFF" font-family="Calibri,Calibri_MSFontService,sans-serif" font-weight="400" font-size="64" transform="matrix(1 0 0 1 1291.9 2158)">Process A</text><rect x="1608.5" y="2072.5" width="381" height="128" stroke="#148E7A" stroke-width="4.58333" stroke-miterlimit="8" fill="#6CE7D3"/><text fill="#106153" font-family="Calibri,Calibri_MSFontService,sans-serif" font-weight="400" font-size="64" transform="matrix(1 0 0 1 1674.94 2157)">Process B</text><path d="M1291.5 1757.83C1291.5 1748.81 1298.81 1741.5 1307.83 1741.5L1592.17 1741.5C1601.19 1741.5 1608.5 1748.81 1608.5 1757.83L1608.5 1823.17C1608.5 1832.19 1601.19 1839.5 1592.17 1839.5L1307.83 1839.5C1298.81 1839.5 1291.5 1832.19 1291.5 1823.17Z" stroke="#0684A2" stroke-width="4.58333" stroke-miterlimit="8" fill="#0BB5DD" fill-rule="evenodd"/><path d="M3002.5 1757.83C3002.5 1748.81 3009.81 1741.5 3018.83 1741.5L3303.17 1741.5C3312.19 1741.5 3319.5 1748.81 3319.5 1757.83L3319.5 1823.17C3319.5 1832.19 3312.19 1839.5 3303.17 1839.5L3018.83 1839.5C3009.81 1839.5 3002.5 1832.19 3002.5 1823.17Z" stroke="#0684A2" stroke-width="4.58333" stroke-miterlimit="8" fill="#0BB5DD" fill-rule="evenodd"/><path d="M1291.5 1889.83C1291.5 1880.81 1298.81 1873.5 1307.83 1873.5L1592.17 1873.5C1601.19 1873.5 1608.5 1880.81 1608.5 1889.83L1608.5 1955.17C1608.5 1964.19 1601.19 1971.5 1592.17 1971.5L1307.83 1971.5C1298.81 1971.5 1291.5 1964.19 1291.5 1955.17Z" stroke="#148E7A" stroke-width="4.58333" stroke-miterlimit="8" fill="#1FC2A7" fill-rule="evenodd"/><path d="M3002.5 1889.83C3002.5 1880.81 3009.81 1873.5 3018.83 1873.5L3303.17 1873.5C3312.19 1873.5 3319.5 1880.81 3319.5 1889.83L3319.5 1955.17C3319.5 1964.19 3312.19 1971.5 3303.17 1971.5L3018.83 1971.5C3009.81 1971.5 3002.5 1964.19 3002.5 1955.17Z" stroke="#148E7A" stroke-width="4.58333" stroke-miterlimit="8" fill="#1FC2A7" fill-rule="evenodd"/><path d="M1624.5 1757.5C1624.5 1748.66 1631.66 1741.5 1640.5 1741.5L2218.5 1741.5C2227.34 1741.5 2234.5 1748.66 2234.5 1757.5L2234.5 1821.5C2234.5 1830.34 2227.34 1837.5 2218.5 1837.5L1640.5 1837.5C1631.66 1837.5 1624.5 1830.34 1624.5 1821.5Z" stroke="#0684A2" stroke-width="4.58333" stroke-miterlimit="8" fill="#0BB5DD" fill-rule="evenodd"/><path d="M1624.5 1889.5C1624.5 1880.66 1631.66 1873.5 1640.5 1873.5L2218.5 1873.5C2227.34 1873.5 2234.5 1880.66 2234.5 1889.5L2234.5 1953.5C2234.5 1962.34 2227.34 1969.5 2218.5 1969.5L1640.5 1969.5C1631.66 1969.5 1624.5 1962.34 1624.5 1953.5Z" stroke="#148E7A" stroke-width="4.58333" stroke-miterlimit="8" fill="#1FC2A7" fill-rule="evenodd"/><text fill="#595959" font-family="Calibri,Calibri_MSFontService,sans-serif" font-weight="400" font-size="64" transform="matrix(1 0 0 1 1360.7 1809)">Source<tspan font-size="64" x="1743.33" y="-3">Sink</tspan><tspan font-size="64" x="310.41" y="0">Parameter [</tspan><tspan font-size="64" x="617.219" y="0">´</tspan>term a’]<tspan font-size="64" x="457.992" y="137">´</tspan>value a’</text><path d="M2251.5 1758.5C2251.5 1749.66 2258.66 1742.5 2267.5 1742.5L2970.5 1742.5C2979.34 1742.5 2986.5 1749.66 2986.5 1758.5L2986.5 1822.5C2986.5 1831.34 2979.34 1838.5 2970.5 1838.5L2267.5 1838.5C2258.66 1838.5 2251.5 1831.34 2251.5 1822.5Z" stroke="#0684A2" stroke-width="4.58333" stroke-miterlimit="8" fill="#0BB5DD" fill-rule="evenodd"/><text fill="#595959" font-family="Calibri,Calibri_MSFontService,sans-serif" font-weight="400" font-size="64" transform="matrix(1 0 0 1 2298.66 1809)">Characteristics [<tspan font-size="64" x="415.525" y="0">´</tspan>term b’]</text><path d="M2250.5 1888.5C2250.5 1879.66 2257.66 1872.5 2266.5 1872.5L2970.5 1872.5C2979.34 1872.5 2986.5 1879.66 2986.5 1888.5L2986.5 1952.5C2986.5 1961.34 2979.34 1968.5 2970.5 1968.5L2266.5 1968.5C2257.66 1968.5 2250.5 1961.34 2250.5 1952.5Z" stroke="#148E7A" stroke-width="4.58333" stroke-miterlimit="8" fill="#1FC2A7" fill-rule="evenodd"/><text fill="#595959" font-family="Calibri,Calibri_MSFontService,sans-serif" font-weight="400" font-size="64" transform="matrix(1 0 0 1 2505.95 1946)">´<tspan font-size="64" x="18.9063" y="0">value b’</tspan></text><rect x="1989.5" y="2073.5" width="382" height="127" stroke="#148E7A" stroke-width="4.58333" stroke-miterlimit="8" fill="#6CE7D3"/><text fill="#106153" font-family="Calibri,Calibri_MSFontService,sans-serif" font-weight="400" font-size="64" transform="matrix(1 0 0 1 2057.13 2158)">Process C</text><rect x="1124.5" y="776.5" width="116" height="116" stroke="#0684A2" stroke-width="4.58333" stroke-miterlimit="8" fill="#0BB5DD"/><path d="M886.5 836C886.5 804.244 912.244 778.5 944 778.5 975.756 778.5 1001.5 804.244 1001.5 836 1001.5 867.756 975.756 893.5 944 893.5 912.244 893.5 886.5 867.756 886.5 836Z" stroke="#1E2B38" stroke-width="4.58333" stroke-miterlimit="8" fill="#2D3E50" fill-rule="evenodd"/><path d="M1127.5 1074.5C1127.5 1042.47 1153.47 1016.5 1185.5 1016.5 1217.53 1016.5 1243.5 1042.47 1243.5 1074.5 1243.5 1106.53 1217.53 1132.5 1185.5 1132.5 1153.47 1132.5 1127.5 1106.53 1127.5 1074.5Z" stroke="#1E2B38" stroke-width="4.58333" stroke-miterlimit="8" fill="#2D3E50" fill-rule="evenodd"/><rect x="886.5" y="534.5" width="115" height="115" stroke="#0684A2" stroke-width="4.58333" stroke-miterlimit="8" fill="#0BB5DD"/><rect x="1366.5" y="1013.5" width="116" height="115" stroke="#0684A2" stroke-width="4.58333" stroke-miterlimit="8" fill="#0BB5DD"/><path d="M0 0 0.00108268 424.778" stroke="#2D3E50" stroke-width="20.625" stroke-miterlimit="8" fill="none" fill-rule="evenodd" transform="matrix(-1 0 0 1 943.501 649.5)"/><path d="M1183.5 893.5 1183.5 1070.69" stroke="#2D3E50" stroke-width="20.625" stroke-miterlimit="8" fill="none" fill-rule="evenodd"/><path d="M941.5 1071.5 1362.06 1071.5" stroke="#2D3E50" stroke-width="20.625" stroke-miterlimit="8" fill="none" fill-rule="evenodd"/><path d="M0 0 182.727 1.83189" stroke="#2D3E50" stroke-width="20.625" stroke-miterlimit="8" fill="none" fill-rule="evenodd" transform="matrix(1 0 0 -1 941.5 836.332)"/><text fill="#0BB5DD" font-family="Calibri,Calibri_MSFontService,sans-serif" font-weight="700" font-size="110" transform="matrix(1 0 0 1 1279.84 650)">container<tspan font-size="110" x="0" y="132">ontology</tspan></text><path d="M1270.21 1209.06 1276.1 1221.49 1263.67 1227.37 1257.79 1214.94ZM1281.99 1233.82 1288.02 1246.18 1275.66 1252.21 1269.63 1239.85ZM1294.11 1258.41 1300.14 1270.41 1300.1 1270.32 1300.24 1270.61 1288.05 1276.96 1287.88 1276.63 1281.82 1264.59ZM1306.6 1282.8 1310.16 1289.64 1310.1 1289.53 1312.99 1294.84 1300.91 1301.4 1297.99 1296.04 1294.4 1289.15ZM1319.55 1306.92 1320.29 1308.28 1320.24 1308.2 1326.22 1318.84 1314.23 1325.57 1308.23 1314.89 1307.47 1313.49ZM1332.97 1330.66 1339.94 1342.51 1328.09 1349.48 1321.12 1337.63ZM1347.02 1354.17 1351.37 1361.29 1351.29 1361.17 1354.2 1365.72 1342.62 1373.13 1339.67 1368.52 1335.28 1361.33ZM1361.61 1377.31 1362.04 1377.98 1361.96 1377.86 1369.16 1388.62 1357.74 1396.27 1350.5 1385.45 1350.02 1384.71ZM1376.85 1399.85 1384.13 1410.24 1384.05 1410.13 1384.68 1410.99 1373.57 1419.1 1372.91 1418.19 1365.59 1407.73ZM1392.78 1422.09 1395.55 1425.88 1395.4 1425.68 1401.01 1432.79 1390.21 1441.3 1384.52 1434.1 1381.68 1430.2ZM1409.52 1443.58 1418.04 1454.38 1407.24 1462.89 1398.73 1452.1ZM1426.72 1464.73 1431.87 1470.8 1431.77 1470.69 1435.61 1475.03 1425.31 1484.14 1421.43 1479.75 1416.23 1473.62ZM1444.6 1485.2 1453.97 1495.26 1443.9 1504.63 1434.54 1494.56ZM1463.36 1505.09 1471.74 1513.7 1471.64 1513.61 1472.88 1514.82 1463.22 1524.61 1461.93 1523.35 1453.5 1514.69ZM1482.66 1524.48 1485.95 1527.73 1485.83 1527.61 1492.48 1533.85 1483.08 1543.88 1476.36 1537.58 1473 1534.27ZM1502.45 1543.13 1512.66 1552.34 1503.45 1562.55 1493.24 1553.33ZM1522.89 1561.27 1531.86 1568.97 1531.78 1568.91 1533.26 1570.15 1524.46 1580.71 1522.93 1579.43 1513.93 1571.7ZM1543.82 1578.95 1548.34 1582.72 1548.23 1582.63 1554.38 1587.55 1545.79 1598.28 1539.59 1593.32 1535.02 1589.51ZM1565.11 1596.14 1565.42 1596.38 1565.32 1596.3 1575.9 1604.44 1567.52 1615.34 1556.88 1607.16 1556.52 1606.87ZM1586.76 1612.72 1597.78 1620.95 1589.55 1631.97 1578.53 1623.73ZM1608.79 1628.99 1619.94 1637.03 1611.9 1648.18 1600.75 1640.14ZM1631.12 1644.88 1640.82 1651.68 1640.74 1651.63 1642.31 1652.7 1634.58 1664.07 1632.97 1662.97 1623.23 1656.14ZM1653.68 1660.44 1661.49 1665.75 1661.42 1665.7 1665 1668.08 1657.42 1679.54 1653.79 1677.15 1645.94 1671.8ZM1676.47 1675.67 1683.04 1680.02 1682.98 1679.98 1687.91 1683.16 1680.45 1694.71 1675.49 1691.5 1668.88 1687.13ZM1699.46 1690.62 1705.42 1694.48 1705.36 1694.44 1710.98 1698 1703.63 1709.62 1697.98 1706.04 1691.99 1702.17ZM1697.61 1662.17 1725.03 1715.02 1665.52 1712.87C1661.73 1712.73 1658.77 1709.55 1658.9 1705.75 1659.04 1701.96 1662.23 1698.99 1666.02 1699.13L1713.74 1700.85 1707.39 1710.89 1685.4 1668.5C1683.65 1665.13 1684.97 1660.98 1688.34 1659.23 1691.71 1657.48 1695.86 1658.8 1697.61 1662.17Z" fill="#1FC2A7"/><path d="M6.79224-1.06352 8.91929 12.521-4.6652 14.648-6.79224 1.06352ZM11.0463 26.1054 13.1734 39.6899-0.411109 41.817-2.53815 28.2325ZM15.3203 53.2473 17.4941 66.8244 3.91698 68.9982 1.74318 55.4211ZM19.6679 80.4015 21.601 92.4756 21.5945 92.4353 21.844 93.9368 8.28008 96.1912 8.02719 94.6695 6.09079 82.5753ZM24.0984 107.501 26.3527 121.065 12.7888 123.319 10.5344 109.755ZM28.607 134.629 29.032 137.185 29.0245 137.141 30.9256 148.136 17.3767 150.479 15.4717 139.462 15.0431 136.883ZM33.2684 161.685 35.6112 175.234 22.0622 177.577 19.7194 164.028ZM37.9873 188.744 40.394 202.282 26.8563 204.689 24.4496 191.151ZM42.8007 215.82 44.0189 222.672 44.0091 222.618 45.2507 229.294 31.7325 231.808 30.4859 225.105 29.263 218.226ZM47.7648 242.812 50.2788 256.331 36.7606 258.845 34.2466 245.326ZM52.8314 269.787 55.4508 283.285 41.9526 285.904 39.3332 272.406ZM58.0701 296.783 59.3741 303.503 59.3652 303.458 60.7257 310.228 47.2452 312.937 45.8802 306.145 44.5719 299.403ZM63.4348 323.708 66.1439 337.189 52.6634 339.898 49.9543 326.417ZM68.954 350.546 71.8595 363.985 58.42 366.891 55.5145 353.451ZM74.7651 377.425 77.6706 390.864 64.2311 393.77 61.3256 380.33ZM80.5761 404.304 83.3447 417.11 83.3159 416.982 83.4648 417.613 70.0831 420.774 69.9191 420.079 67.1366 407.209ZM86.6259 430.994 89.7869 444.376 76.4052 447.537 73.2442 434.155ZM92.9479 457.758 96.109 471.139 82.7273 474.301 79.5662 460.919ZM99.27 484.521 100.191 488.419 100.154 488.273 102.603 497.705 89.2937 501.159 86.8265 491.654 85.8883 487.682ZM106.057 511.014 109.512 524.323 96.2027 527.777 92.7482 514.468ZM112.966 537.632 116.421 550.941 103.112 554.395 99.6572 541.086ZM120.01 564.038 123.789 577.259 110.569 581.038 106.79 567.817ZM127.568 590.479 131.347 603.7 118.127 607.479 114.348 594.258ZM135.127 616.92 136.86 622.985 136.808 622.812 139.041 629.911 125.925 634.037 123.665 626.852 121.906 620.699ZM143.167 643.027 147.293 656.144 134.177 660.27 130.051 647.153ZM151.419 669.26 155.545 682.377 142.429 686.502 138.303 673.386ZM159.829 695.253 164.294 708.259 151.288 712.723 146.824 699.717ZM168.758 721.264 173.222 734.269 160.216 738.733 155.752 725.728ZM177.686 747.274 178.628 750.018 178.563 749.839 182.368 759.999 169.492 764.821 165.653 754.572 164.681 751.738ZM187.19 772.875 192.013 785.752 179.136 790.574 174.314 777.698ZM196.835 798.629 201.657 811.505 188.781 816.328 183.958 803.451ZM206.738 824.086 211.9 836.83 199.156 841.992 193.993 829.248ZM217.062 849.574 222.224 862.318 209.48 867.48 204.318 854.736ZM227.351 874.89 232.831 887.5 220.221 892.981 214.74 880.371ZM238.312 900.111 243.793 912.722 231.182 918.202 225.702 905.592ZM249.273 925.332 253.805 935.76 253.735 935.603 254.738 937.761 242.268 943.556 241.229 941.319 236.663 930.813ZM260.532 950.231 266.326 962.7 253.857 968.495 248.063 956.025ZM272.121 975.17 277.915 987.639 265.445 993.434 259.651 980.964ZM283.682 999.96 289.74 1012.3 277.396 1018.36 271.338 1006.02ZM295.797 1024.65 301.855 1036.99 289.511 1043.05 283.453 1030.71ZM307.912 1049.34 313.97 1061.68 301.626 1067.74 295.568 1055.39ZM320.2 1073.78 326.507 1086 314.288 1092.3 307.982 1080.09ZM332.813 1098.22 339.12 1110.44 326.902 1116.74 320.595 1104.52ZM345.147 1071.69 342.077 1131.15 291.829 1099.21C288.624 1097.18 287.678 1092.93 289.715 1089.72 291.752 1086.52 296.001 1085.57 299.205 1087.61L339.507 1113.23 328.953 1118.67 331.415 1070.98C331.611 1067.19 334.844 1064.28 338.636 1064.47 342.428 1064.67 345.343 1067.9 345.147 1071.69Z" fill="#1FC2A7" transform="matrix(-0.162007 0.98679 0.98679 0.162007 1339.33 1201.26)"/><text fill="#0BB5DD" font-family="Calibri,Calibri_MSFontService,sans-serif" font-weight="700" font-size="110" transform="matrix(1 0 0 1 1223.36 2329)">i<tspan font-size="110" x="26.9271" y="0">sa.study.xlsx or isa.</tspan>assay.xlsx</text><rect x="2622.5" y="772.5" width="116" height="116" stroke="#83975E" stroke-width="4.58333" stroke-miterlimit="8" fill="#B4CE82"/><path d="M2976.5 828.5C2976.5 860.533 2950.76 886.5 2919 886.5 2887.24 886.5 2861.5 860.533 2861.5 828.5 2861.5 796.467 2887.24 770.5 2919 770.5 2950.76 770.5 2976.5 796.467 2976.5 828.5Z" stroke="#1E2B38" stroke-width="4.58333" stroke-miterlimit="8" fill="#2D3E50" fill-rule="evenodd"/><path d="M2734.5 590C2734.5 621.756 2708.76 647.5 2677 647.5 2645.24 647.5 2619.5 621.756 2619.5 590 2619.5 558.244 2645.24 532.5 2677 532.5 2708.76 532.5 2734.5 558.244 2734.5 590Z" stroke="#1E2B38" stroke-width="4.58333" stroke-miterlimit="8" fill="#2D3E50" fill-rule="evenodd"/><rect x="2861.5" y="1014.5" width="115" height="116" stroke="#83975E" stroke-width="4.58333" stroke-miterlimit="8" fill="#B4CE82"/><rect x="2380.5" y="535.5" width="116" height="116" stroke="#83975E" stroke-width="4.58333" stroke-miterlimit="8" fill="#B4CE82"/><path d="M0 0 0.00108268 424.778" stroke="#2D3E50" stroke-width="20.625" stroke-miterlimit="8" fill="none" fill-rule="evenodd" transform="matrix(1 -1.22465e-16 -1.22465e-16 -1 2918.5 1014.28)"/><path d="M2678.5 770.686 2678.5 593.5" stroke="#2D3E50" stroke-width="20.625" stroke-miterlimit="8" fill="none" fill-rule="evenodd"/><path d="M2921.06 593.5 2500.5 593.5" stroke="#2D3E50" stroke-width="20.625" stroke-miterlimit="8" fill="none" fill-rule="evenodd"/><path d="M0 0 182.727 1.83189" stroke="#2D3E50" stroke-width="20.625" stroke-miterlimit="8" fill="none" fill-rule="evenodd" transform="matrix(-1 1.22465e-16 1.22465e-16 1 2921.23 828.5)"/><path d="M2562.02 1104.09C2532.57 1116.67 2471.29 1109.67 2436.61 1088.48 2401.93 1067.3 2354.05 1029.87 2362.97 942.271 2366.06 911.844 2364.19 866.482 2360.62 837.091 2357.05 807.701 2339.65 778.531 2341.56 765.927 2343.48 753.323 2354.94 757.395 2372.1 761.467 2389.26 765.539 2423.32 778.901 2444.54 790.358 2465.76 801.815 2527.68 833.701 2555.1 855.546 2582.53 877.39 2599.37 895.188 2609.07 921.426 2618.77 947.664 2621.14 982.532 2613.3 1012.98 2605.46 1043.42 2591.47 1091.5 2562.02 1104.09Z" stroke="#2D3E50" stroke-width="13.75" stroke-linecap="round" stroke-miterlimit="8" fill="none" fill-rule="evenodd"/><path d="M2645.34 1148.06C2583.05 1125.72 2520.76 1103.38 2493.87 967.533" stroke="#2D3E50" stroke-width="13.75" stroke-linecap="round" stroke-miterlimit="8" fill="none" fill-rule="evenodd"/><text fill="#595959" font-family="Calibri,Calibri_MSFontService,sans-serif" font-weight="700" font-size="275" transform="matrix(1 0 0 1 3219.16 955)">…<tspan fill="#B4CE82" font-size="110" x="-174.045" y="-300">bio &amp; tech</tspan><tspan fill="#B4CE82" font-size="110" x="-174.045" y="-168">ontologies</tspan><tspan font-size="275" x="-1309.9" y="-46">+</tspan></text><path d="M2781.09 1282.15 2767.92 1286.12 2763.95 1272.95 2777.12 1268.99ZM2754.83 1290.07 2741.7 1294.17 2737.6 1281.05 2750.72 1276.95ZM2728.67 1298.28 2715.6 1302.55 2711.33 1289.48 2724.4 1285.21ZM2702.65 1306.85 2689.65 1311.32 2685.18 1298.31 2698.18 1293.84ZM2676.78 1315.84 2663.84 1320.51 2659.17 1307.58 2672.11 1302.91ZM2651.08 1325.29 2638.22 1330.18 2633.34 1317.33 2646.19 1312.44ZM2625.57 1335.23 2615.36 1339.33 2615.47 1339.28 2612.94 1340.35 2607.59 1327.68 2610.18 1326.59 2620.45 1322.47ZM2600.27 1345.7 2593.97 1348.36 2594.1 1348.3 2587.79 1351.12 2582.18 1338.56 2588.56 1335.72 2594.93 1333.03ZM2575.24 1356.72 2573.05 1357.7 2573.19 1357.63 2562.94 1362.5 2557.04 1350.08 2567.37 1345.18 2569.63 1344.17ZM2550.65 1368.39 2538.34 1374.52 2532.22 1362.21 2544.52 1356.08ZM2526.25 1380.72 2514.08 1387.12 2507.68 1374.96 2519.84 1368.55ZM2502.22 1393.72 2493.22 1398.76 2493.35 1398.68 2490.39 1400.43 2483.41 1388.58 2486.44 1386.8 2495.5 1381.72ZM2478.54 1407.4 2474 1410.07 2474.12 1410 2466.91 1414.46 2459.68 1402.76 2466.96 1398.26 2471.56 1395.55ZM2455.22 1421.69 2455.02 1421.81 2455.17 1421.71 2443.86 1429.12 2436.33 1417.62 2447.71 1410.16 2447.98 1409.99ZM2432.53 1436.65 2421.2 1444.43 2413.42 1433.09 2424.76 1425.31ZM2410.11 1452.29 2399.03 1460.29 2399.15 1460.19 2399.09 1460.24 2390.8 1449.28 2390.92 1449.18 2402.07 1441.14ZM2388.12 1468.54 2380.5 1474.3 2380.62 1474.2 2377.33 1476.81 2368.79 1466.02 2372.14 1463.37 2379.83 1457.57ZM2366.54 1485.34 2362.05 1488.89 2362.17 1488.8 2355.98 1493.91 2347.22 1483.31 2353.47 1478.15 2358.01 1474.56ZM2345.38 1502.67 2343.63 1504.12 2343.74 1504.03 2335.04 1511.52 2326.07 1501.1 2334.81 1493.57 2336.62 1492.07ZM2324.73 1520.42 2314.49 1529.59 2305.32 1519.34 2315.56 1510.17ZM2304.38 1538.71 2294.31 1548.08 2284.95 1538.01 2295.02 1528.64ZM2284.38 1557.42 2274.47 1566.95 2264.94 1557.04 2274.85 1547.51ZM2264.71 1576.48 2254.96 1586.17 2245.27 1576.42 2255.02 1566.72ZM2245.35 1595.86 2235.75 1605.7 2225.91 1596.09 2235.51 1586.25ZM2226.29 1615.53 2216.83 1625.52 2206.85 1616.06 2216.3 1606.08ZM2207.48 1635.49 2198.14 1645.58 2188.05 1636.24 2197.39 1626.15ZM2188.9 1655.63 2179.7 1665.85 2169.48 1656.65 2178.68 1646.44ZM2170.56 1676.02 2161.48 1686.35 2151.16 1677.26 2160.24 1666.94ZM2152.4 1696.67 2150.49 1698.84 2150.53 1698.8 2143.41 1707.01 2133.02 1698 2140.15 1689.78 2142.08 1687.59ZM2180.57 1699.45 2124.21 1718.67 2135.23 1660.15C2135.93 1656.42 2139.52 1653.97 2143.25 1654.67 2146.99 1655.37 2149.44 1658.96 2148.74 1662.7L2139.91 1709.63 2130.93 1701.85 2176.13 1686.44C2179.72 1685.21 2183.63 1687.13 2184.86 1690.73 2186.08 1694.32 2184.16 1698.23 2180.57 1699.45Z" fill="#595959"/><path d="M1.82487-6.62839 15.0816-2.97865 11.4319 10.2781-1.82487 6.62839ZM28.3384 0.671079 37.0124 3.05911 36.8166 3.0083 41.4345 4.13463 38.1764 17.493 33.4602 16.3427 24.6887 13.9279ZM54.6916 7.36824 68.0979 10.4234 65.0427 23.8297 51.6364 20.7745ZM81.4172 13.3004 92.0325 15.5206 91.9124 15.4966 94.766 16.0406 92.1913 29.5474 89.2775 28.9919 78.6023 26.7592ZM108.273 18.6153 111.912 19.3091 111.788 19.2865 121.688 20.9854 119.362 34.5373 109.4 32.8278 105.698 32.1221ZM135.197 23.2878 143.868 24.7165 143.795 24.7049 148.701 25.4596 146.61 39.0497 141.668 38.2895 132.962 36.8549ZM162.233 27.4689 166.852 28.1323 166.818 28.1275 175.816 29.3733 173.93 42.9934 164.915 41.7451 160.279 41.0793ZM189.414 31.213 191.54 31.4987 191.506 31.4942 203.015 32.9809 201.253 46.6176 189.727 45.1286 187.583 44.8406ZM216.605 34.6303 218.009 34.7993 230.255 36.2687 228.616 49.9208 216.366 48.4507 214.962 48.2817ZM243.864 37.8081 246.516 38.1053 246.484 38.1018 257.503 39.2856 256.034 52.9569 245 51.7715 242.333 51.4726ZM271.175 40.7558 277.298 41.4144 277.244 41.4089 284.798 42.1614 283.435 55.8437 275.854 55.0885 269.704 54.4269ZM298.483 43.5265 310.434 44.7216 310.405 44.7188 312.137 44.8846 310.826 58.572 309.08 58.4048 297.115 57.2083ZM325.824 46.1951 328.03 46.4063 328.008 46.4042 339.493 47.4661 338.227 61.1577 326.731 60.0948 324.513 59.8825ZM353.164 48.707 365.173 49.7771 366.856 49.9263 365.642 63.6226 363.952 63.4729 351.943 62.4027ZM380.552 51.1399 384.919 51.5268 391.774 52.1137 390.601 65.8136 383.706 65.2232 379.339 64.8362ZM356.099 25.8483 404.782 60.1277 350.979 85.6315C347.548 87.2579 343.449 85.795 341.822 82.364 340.196 78.933 341.659 74.8332 345.09 73.2068L388.242 52.7513 387.229 64.5849 348.182 37.0909C345.078 34.9049 344.333 30.6161 346.519 27.5115 348.705 24.407 352.994 23.6623 356.099 25.8483Z" fill="#595959" transform="matrix(-0.162007 0.98679 0.98679 0.162007 2860.6 1293.68)"/></g></svg>