<svg width="4453" height="2068" xmlns="http://www.w3.org/2000/svg" xmlns:xlink="http://www.w3.org/1999/xlink" overflow="hidden"><defs><clipPath id="clip0"><rect x="-53" y="151" width="4453" height="2068"/></clipPath></defs><g clip-path="url(#clip0)" transform="translate(53 -151)"><text fill="#FFFFFF" font-family="Avenir Next LT Pro Demi,Avenir Next LT Pro Demi_MSFontService,sans-serif" font-weight="600" font-size="110" transform="matrix(1 0 0 1 3294.59 441)">And <tspan font-size="110" x="239.479" y="0">continues</tspan><tspan font-size="110" x="758.542" y="0">here</tspan><tspan font-size="110" x="-918.756" y="1559">Workflow </tspan><tspan font-size="110" x="-402.122" y="1559">starts</tspan><tspan font-size="110" x="-104.664" y="1559">with</tspan><tspan font-size="110" x="141.69" y="1559">these</tspan><tspan font-size="220" x="-158.122" y="709">Annotated</tspan><tspan font-size="220" x="-95.2842" y="921">workflow</tspan><tspan font-family="Avenir Next LT Pro,Avenir Next LT Pro_MSFontService,sans-serif" font-weight="400" font-size="202" x="-2984.18" y="1017">Sample1</tspan><tspan font-size="202" x="-3210.1" y="-37">Source Name</tspan><tspan font-size="202" x="-2675.4" y="1607">…</tspan></text><path d="M0.253753 220.99C-0.876394 220.99-1.95387 221.43-2.74205 222.233-3.5306 223.018-3.97753 224.089-3.97753 225.218-3.97753 311.562-3.97753 1692.19-3.97753 2073.24-3.97753 2098.89 6.2194 2123.51 24.3533 2141.64 42.4872 2159.79 67.0861 2169.99 92.7364 2169.99L1423.02 2169.99 1423.02 299.396C1423.02 258.424 1389.88 225.199 1348.94 225.064L0.253753 220.99Z" stroke="#FFFFFF" stroke-width="19.1013" stroke-linecap="round" stroke-linejoin="round" stroke-miterlimit="10" fill="none" fill-rule="evenodd"/><path d="M-3.98186 465.949 1423.02 465.949" stroke="#FFFFFF" stroke-width="19.3532" stroke-linecap="round" stroke-linejoin="round" stroke-miterlimit="10" fill="none" fill-rule="evenodd"/><path d="M1642.62 1023.71C1628.72 1021.58 1614.71 1019.92 1601.81 1013.72 1561.56 994.395 1546.79 950.663 1567.21 907.693 1592.48 854.495 1635.45 821.902 1691.08 804.975 1695.42 803.627 1699.91 802.657 1704.32 801.507 1708.13 797.904 1712.92 797.242 1717.87 796.595 1760.05 790.596 1803.07 798.28 1840.56 818.514 1849.7 823.385 1857.29 823.776 1866.04 818.394 1888.85 804.38 1912.77 792.25 1936.25 777.762 1911.39 772.638 1889.64 761.693 1866.7 754.254 1834.96 743.918 1802.69 735.275 1770.03 728.361 1765.32 727.307 1760.21 727.151 1756.86 722.649 1733.35 714.598 1709.42 707.642 1687.69 695.049 1668.75 684.049 1651.85 670.783 1640.12 651.956 1626.2 629.635 1621.83 606.085 1635.83 582.413 1649.82 558.741 1672.94 550.384 1699.42 550.649 1727.16 550.812 1750.48 563.319 1772.81 578.165 1788.62 588.682 1803.79 600.131 1818.24 612.447 1827.03 619.943 1846.06 630.903 1843.6 631.159 1877.27 659.437 1903.85 693.935 1935.29 723.671 1944.04 731.572 1953.26 738.933 1962.91 745.713 1966.86 748.892 1972.39 749.327 1976.79 746.804 1988.28 741.231 1999.76 735.633 2011.23 730.012 2014.77 728.246 2017.6 725.321 2019.26 721.725 2025.89 707.801 2034.44 694.875 2044.66 683.323 2049.79 677.633 2058.72 671.28 2062.37 667.119 2089.48 640.574 2121.08 622.319 2159.13 616.704 2172.45 614.615 2186.04 614.998 2199.22 617.838 2236.5 626.028 2250.5 655.992 2232.71 690.111 2229.22 696.71 2225.2 703.032 2221.42 709.466 2220.72 712.559 2218.47 714.534 2216.5 716.736 2173.71 756.932 2122.83 773.995 2064.56 769.554 2053.41 768.636 2042.54 765.584 2032.54 760.566 2025 756.86 2018.79 757.485 2012.73 764.458 2027.55 771.591 2043.66 774.251 2058.87 779.474 2073.36 784.475 2088.4 787.926 2102.89 793.047 2109.34 795.319 2114.8 795.132 2120.18 790.406 2148.21 765.844 2181.09 752.634 2218.07 748.998 2247.6 746.657 2275.46 752.958 2302.18 765.119 2307.11 768.24 2311.08 768.343 2313.05 761.642 2313.45 760.281 2314.67 758.78 2316.68 759.996 2312.18 771.09 2316.73 777.253 2326.42 783.175 2339.19 791.245 2349.96 802.108 2357.93 814.944 2382.03 852.416 2369.13 893.863 2328.01 910.953 2310.5 918.227 2292.11 920.298 2273.3 919.333 2271.48 920.715 2269.3 921.561 2267.02 921.779 2247.91 920.633 2229.1 916.501 2211.27 909.531 2190.94 901.225 2171.47 891.275 2153.99 877.637 2139.7 866.508 2126.41 854.333 2115.86 839.646 2111.03 832.583 2103.74 827.552 2095.43 825.526 2085.05 822.859 2074.44 820.985 2064.81 815.883 2063.48 815.767 1985.81 779.448 1987.68 781.744 1975.41 792.969 1982.4 810.766 1990.25 825.976 1999.86 843.116 2005.66 913.191 1994.25 941.415 1989.35 956.274 1979.44 968.978 1966.21 977.333 1952.37 983.208 1939.95 980.404 1928.57 971.2 1913.26 957.098 1906.58 938.882 1904.51 918.809 1901.86 893.164 1902.14 867.709 1912.19 843.294 1913.01 841.765 1912.68 839.852 1911.38 838.696 1898.17 846.509 1883.88 852.848 1871.25 862.141 1868.51 864.526 1866.43 867.586 1865.23 871.019 1853.22 897.659 1837.19 922.295 1817.7 944.062 1785.93 977.287 1748.63 1001.97 1704.64 1016 1688.49 1021.46 1671.65 1024.61 1654.62 1025.37 1651.03 1025.76 1647.4 1025.39 1643.97 1024.27L1642.62 1023.71Z" stroke="#FFFFFF" stroke-width="10.7867" stroke-linejoin="round" stroke-miterlimit="10" fill="none" fill-rule="evenodd"/><path d="M1712.83 666.396C1707.71 672.491 1702.22 678.361 1700.75 688.077 1708.3 684.362 1709.06 676.001 1715.24 672.907 1715.55 672.814 1715.94 672.518 1716.16 672.608 1724.47 676.486 1733.28 700.003 1729.55 708.466 1712.52 703.441 1696.28 696.797 1682.19 685.754 1680.79 676.324 1677.19 667.65 1673.72 658.824 1663.19 632.26 1652.63 605.567 1643.84 578.282 1651.65 566.357 1663.64 561.015 1676.75 557.416 1682.16 556.61 1684.27 560.493 1685.98 564.286 1692.56 578.87 1698.08 593.925 1703.55 608.947 1706.55 617.244 1704.72 618.789 1696.28 617.263 1690.92 616.282 1685.76 613.735 1680.09 614.562 1676.52 614.368 1672.99 611.843 1667.75 614.503 1677.72 619.377 1687.46 619.643 1696.48 622.311 1702.16 636.936 1708.24 651.39 1712.83 666.396Z" stroke="#FFFFFF" stroke-width="10.7867" stroke-linejoin="round" stroke-miterlimit="10" fill="none" fill-rule="evenodd"/><path d="M1668.68 817.881C1683.48 809.819 1699.57 806.042 1716.1 804.299 1724.6 803.016 1732.15 806.12 1739.68 809.34 1768.31 821.543 1797.88 831.174 1826.9 842.274 1836.06 845.778 1844.97 849.871 1854.17 853.265 1858.87 854.983 1864.62 857.621 1859.86 864.724 1858.94 870.835 1856.26 876.546 1852.14 881.15 1838 875.763 1822.61 873.243 1810.48 863.203 1808.77 860.198 1810.79 859.117 1813.14 858.433 1816.8 857.464 1820.52 856.761 1824.28 856.331 1811.32 858.612 1798.39 861.06 1785.55 863.792 1781.5 864.679 1777.4 866.404 1773.35 863.681 1759.72 854.294 1743.91 849.965 1728.68 844.313 1711.26 837.85 1694.19 830.534 1676.69 824.274 1673.36 823.105 1670.02 821.711 1668.68 817.881Z" stroke="#FFFFFF" stroke-width="10.7867" stroke-linejoin="round" stroke-miterlimit="10" fill="none" fill-rule="evenodd"/><path d="M2272.28 914.802C2264.85 915.759 2257.85 913.586 2250.72 911.99 2245.07 912.74 2240 910.152 2234.63 909.291 2230.54 908.618 2229.47 905.311 2232.21 903.142 2243.57 894.411 2253.1 882.467 2268.9 881.104 2270.26 882.055 2270.77 883.398 2270.6 885.742 2272.24 880.946 2269.65 876.473 2271.85 872.427 2282.38 862.178 2295.62 855.744 2307.42 847.274 2313.62 847.25 2318.28 851.199 2323.12 853.11 2318.21 849.286 2310.39 848.705 2306.44 842.274 2306.13 841.328 2306.3 840.291 2306.89 839.489 2318.58 827.989 2332.17 818.93 2346.19 810.696 2347.43 810.073 2348.92 810.265 2349.96 811.177 2360.53 823.38 2366.31 839.017 2366.23 855.163 2361.04 856.013 2356.13 858.13 2351.96 861.326 2328.31 878.803 2302.21 892.682 2279.15 910.994 2277.08 912.62 2274.76 913.905 2272.28 914.802Z" stroke="#FFFFFF" stroke-width="10.7867" stroke-linejoin="round" stroke-miterlimit="10" fill="none" fill-rule="evenodd"/><path d="M1702.53 1008.88C1678.31 1017.98 1653.19 1022.03 1627.79 1017.75 1598.45 1012.91 1567.8 993.965 1563.28 955.535 1566.73 952.274 1570.57 953.316 1574.32 954.68 1614.93 969.426 1655.78 983.578 1695.4 1000.93 1698.78 1002.39 1703.11 1003.62 1702.53 1008.88Z" stroke="#FFFFFF" stroke-width="10.7867" stroke-linejoin="round" stroke-miterlimit="10" fill="none" fill-rule="evenodd"/><path d="M2103.78 820.567 2098.02 819.276C2099.73 809.292 2109.42 808.013 2115.77 803.082 2136.03 784.685 2158.11 769.682 2184.67 761.856 2204.95 755.62 2226.28 753.597 2247.37 755.911 2244.33 761.989 2238.51 765.002 2233.18 768.366 2214.76 779.974 2196.5 791.818 2178.79 804.593 2175.81 806.748 2172.87 808.673 2172.68 812.785 2164.78 817.792 2155.63 814.168 2147.33 816.445 2144.26 817.289 2139.67 815.535 2139.25 821.071 2136.37 829.279 2127.69 831.288 2122.32 836.864 2119.21 832.738 2114.95 829.605 2112.95 824.678 2110.61 821.612 2106.15 823.437 2103.78 820.567Z" stroke="#FFFFFF" stroke-width="10.7867" stroke-linejoin="round" stroke-miterlimit="10" fill="none" fill-rule="evenodd"/><path d="M1859.89 864.754C1860.96 855.029 1852.4 855.531 1847.07 853.37 1828.83 845.996 1810.41 839.105 1791.98 832.233 1766.73 822.825 1741.4 813.621 1716.13 804.328 1736.09 799.702 1756.25 800.911 1776.15 803.855 1801.4 807.531 1825.61 816.391 1847.27 829.875 1851.49 832.493 1854.57 832.699 1858.82 830.102 1864.92 826.384 1871.53 823.509 1877.93 820.263 1888.21 817.221 1895.98 823.056 1903.91 827.918 1906.16 829.291 1907.55 831.759 1905 834.396 1892.91 841.249 1880.99 848.381 1868.66 854.777 1864.17 857.18 1863.52 862.057 1859.89 864.754Z" stroke="#FFFFFF" stroke-width="10.7867" stroke-linejoin="round" stroke-miterlimit="10" fill="none" fill-rule="evenodd"/><path d="M1668.68 817.878C1688.86 825.762 1709.03 833.642 1729.2 841.522 1742.47 846.674 1755.82 851.521 1768.99 856.952 1772.18 858.026 1774.59 860.685 1775.35 863.964 1738.66 884.569 1696.6 878.798 1667.83 851.355 1667.27 850.806 1666.95 849.887 1665.98 849.811 1666.6 850.567 1667.01 851.471 1667.17 852.436 1667.32 854.185 1665.92 854.478 1664.72 854.975 1651.09 853.352 1637.68 851.156 1627.29 840.92 1639.64 830.898 1653.65 823.101 1668.68 817.878Z" stroke="#FFFFFF" stroke-width="10.7867" stroke-linejoin="round" stroke-miterlimit="10" fill="none" fill-rule="evenodd"/><path d="M1790.12 960.064C1778.22 971.945 1764.43 981.774 1749.32 989.147 1728.6 981.037 1707.56 973.742 1687.28 964.499 1680.43 948.279 1685.19 933.167 1691.61 918.186 1693.91 916.845 1696.76 916.864 1699.04 918.237 1714.45 925.26 1731.02 929.093 1746.45 935.92 1751.67 938.742 1752.06 944.134 1753.42 949.038 1753.64 949.854 1753.7 949.848 1756.26 948.08 1766.59 944.708 1782.83 950.483 1790.12 960.064Z" stroke="#FFFFFF" stroke-width="10.7867" stroke-linejoin="round" stroke-miterlimit="10" fill="none" fill-rule="evenodd"/><path d="M1899.79 758.716C1884.97 754.893 1871.01 748.799 1856.9 743.058 1863.5 741.61 1864.89 737.928 1862.29 731.798 1860.26 727.068 1857.63 722.544 1856.01 717.684 1854.4 712.824 1850.74 707.566 1855.91 702.491L1868.93 714.769 1870.78 712.884C1865.65 703.383 1854.98 698.957 1848.46 690.717 1843.74 674.796 1838.13 659.154 1831.64 643.864 1829.89 639.438 1826.83 634.9 1831.72 630.487 1850.41 642.744 1864.29 660.214 1880.1 675.617 1889.32 696.784 1896.68 718.646 1905.04 740.145 1906.46 743.792 1907.84 747.449 1908.94 751.104 1909.74 753.926 1910.86 757.102 1908.49 759.414 1905.6 762.337 1902.54 760.664 1899.79 758.716Z" stroke="#FFFFFF" stroke-width="10.7867" stroke-linejoin="round" stroke-miterlimit="10" fill="none" fill-rule="evenodd"/><path d="M1627.32 840.884C1639.98 846.558 1653.21 850.876 1666.79 853.762 1673.26 853.78 1677.04 859.045 1681.92 861.952 1694.2 869.376 1707.94 874.09 1722.19 875.775 1724.41 876.05 1727.26 875.216 1727.83 878.167 1728.31 880.715 1725.93 882.139 1723.94 883.349 1684.17 906.37 1656.22 906.503 1616.35 875.221 1613.32 872.847 1610.86 869.392 1606.27 870.159 1603.5 870.427 1600.78 869.162 1599.21 866.861 1606.94 856.309 1617.36 848.842 1627.32 840.884Z" stroke="#FFFFFF" stroke-width="10.7867" stroke-linejoin="round" stroke-miterlimit="10" fill="none" fill-rule="evenodd"/><path d="M1702.53 1008.88C1690.24 999.368 1675.27 995.511 1661.24 989.906 1632.01 978.194 1602.13 968.151 1572.68 956.994 1569.39 955.733 1566.4 956.012 1563.28 955.535 1560.69 943.98 1564.28 933.066 1566.75 922.022 1572.28 920.115 1577.22 923.016 1581.87 924.783 1594.88 929.716 1609.09 932.05 1620.44 940.968 1622.25 947.585 1616.2 949.721 1613.84 953.609 1611.86 953.447 1613.87 955.513 1613.58 954.236 1613.61 954.102 1613.87 954.081 1614.54 953.988 1615.87 953.85 1617.21 953.953 1618.51 954.292 1642.01 962.562 1664.92 972.194 1688.38 980.676 1690.01 981.042 1691.64 981.407 1693.24 981.927 1701.82 984.958 1710.16 988.621 1718.59 992.024 1722.43 993.549 1727.73 995.281 1724.51 1001.64L1702.53 1008.88Z" stroke="#FFFFFF" stroke-width="10.7867" stroke-linejoin="round" stroke-miterlimit="10" fill="none" fill-rule="evenodd"/><path d="M2172.33 811.721C2166.15 808.44 2171.21 806.811 2173.47 805.28 2190.51 793.806 2207.63 782.473 2224.73 771.074 2232.27 766.041 2239.8 761.004 2247.33 755.968 2262.82 759.841 2278.87 761.62 2293.63 768.358 2295.47 769.172 2297.43 769.41 2298.33 771.427 2291.22 776.974 2283.26 781.243 2275.63 785.987 2272.72 787.777 2269.41 789.96 2266.1 786.374 2265.21 785.732 2265.61 783.258 2265.16 783.924 2255.45 798.985 2240.29 809.737 2222.87 813.926 2206.2 818.393 2188.55 817.622 2172.33 811.721Z" stroke="#FFFFFF" stroke-width="10.7867" stroke-linejoin="round" stroke-miterlimit="10" fill="none" fill-rule="evenodd"/><path d="M2174.38 739.561C2162.32 746.118 2150.2 752.499 2136.57 755.294 2135.44 754.078 2135.02 752.367 2135.44 750.766 2140.93 736.725 2147.02 723.104 2159.73 713.847 2161.95 713.678 2163.25 714.878 2164.44 717.767 2164.19 713.012 2161.13 709.582 2162.71 705.599 2171 695.596 2176.35 683.602 2184.08 673.212 2188.75 670.501 2194.23 669.534 2199.54 670.482 2196.11 668.222 2190.57 672.627 2187.45 667.432 2191.5 651.879 2200.92 639.485 2210.87 627.392 2211.51 626.608 2212.67 627.009 2213.58 627.455 2222.8 630.327 2228.24 636.993 2231.69 645.633 2213.74 670.133 2199.24 696.859 2183.2 722.515 2179.9 727.806 2174.8 732.492 2174.38 739.561Z" stroke="#FFFFFF" stroke-width="10.7867" stroke-linejoin="round" stroke-miterlimit="10" fill="none" fill-rule="evenodd"/><path d="M1899.79 758.719C1907.17 760.796 1909.47 759.254 1906.32 751.285 1898.12 730.528 1890.44 709.586 1882.75 688.639 1881.22 684.503 1878.24 680.527 1880.07 675.654 1901.13 697.437 1920.59 720.816 1943.92 740.385 1951.09 746.43 1953.74 755.697 1955.52 764.688 1956.73 770.89 1951.68 773.349 1947.04 772.713 1930.6 770.796 1914.62 766.061 1899.79 758.719Z" stroke="#FFFFFF" stroke-width="10.7867" stroke-linejoin="round" stroke-miterlimit="10" fill="none" fill-rule="evenodd"/><path d="M1838.9 904.428C1833.17 914.44 1827.45 924.455 1818.57 932.148 1816.75 932.931 1814.7 932.957 1812.86 932.221 1795.96 925.65 1778.5 920.488 1761.93 913.045 1758.25 911.648 1755.13 909.077 1753.06 905.732 1751.58 894.327 1756.23 885.082 1763.3 876.68 1767.57 873.743 1771.82 874.675 1776.31 876.308 1794 882.73 1811.33 890.083 1829.24 895.85 1833.54 897.177 1837.9 899.08 1838.9 904.428Z" stroke="#FFFFFF" stroke-width="10.7867" stroke-linejoin="round" stroke-miterlimit="10" fill="none" fill-rule="evenodd"/><path d="M1679.93 614.648C1687.55 611.977 1694.32 617.57 1701.88 616.944 1703.64 610.177 1698.93 605.208 1696.91 599.694 1692.8 588.081 1688.25 576.613 1683.58 565.219 1682.29 561.985 1680.62 558.506 1676.57 557.598 1690.68 553.235 1704.86 553.851 1719.06 557.031 1721.02 559.265 1724.58 559.397 1725.88 562.593 1723.66 587.714 1731.39 610.02 1746.05 630.571 1724.04 623.118 1701.74 620.038 1679.93 614.648Z" stroke="#FFFFFF" stroke-width="10.7867" stroke-linejoin="round" stroke-miterlimit="10" fill="none" fill-rule="evenodd"/><path d="M1725.92 562.422C1722.97 561.606 1720.49 559.586 1719.1 556.86 1736.33 560.437 1751 569.594 1765.96 578.151 1769.53 580.002 1771.64 583.822 1771.32 587.823 1770.29 610.06 1777.11 631.967 1790.58 649.687 1749.09 639.867 1732.79 610.518 1729.35 573.216 1729.06 569.742 1733.2 564.053 1725.92 562.422Z" stroke="#FFFFFF" stroke-width="10.7867" stroke-linejoin="round" stroke-miterlimit="10" fill="none" fill-rule="evenodd"/><path d="M1643.69 578.289C1649.08 582.139 1648.88 588.71 1650.98 594.041 1661.77 621.291 1672.13 648.724 1682.28 676.233 1683.3 678.983 1686.61 682.769 1682.04 685.78 1652.13 669.921 1624.17 633.199 1632.91 598.95 1634.78 591.292 1638.48 584.202 1643.69 578.289Z" stroke="#FFFFFF" stroke-width="10.7867" stroke-linejoin="round" stroke-miterlimit="10" fill="none" fill-rule="evenodd"/><path d="M2272.28 914.803C2277.29 907.674 2284.9 903.51 2291.73 898.666 2312.78 883.937 2334.43 870.129 2355.95 856.009 2359.19 853.871 2362.42 850.922 2366.22 855.184 2363.47 892.427 2329.97 912.176 2298.63 913.787 2289.81 914.171 2281.08 915.847 2272.28 914.803Z" stroke="#FFFFFF" stroke-width="10.7867" stroke-linejoin="round" stroke-miterlimit="10" fill="none" fill-rule="evenodd"/><path d="M1599.2 866.86 1606.89 868.581C1610.9 867.886 1612.62 871.196 1614.83 873.366 1631.19 889.415 1651.5 896.427 1673.61 899.121 1675.85 899.401 1678.52 898.528 1679.64 901.017 1680.96 904.117 1678.32 906.087 1676.24 907.175 1666.34 912.399 1658.76 922.179 1646.45 922.687 1627.51 913.665 1607.65 906.775 1588.11 899.534 1584.39 898.155 1580.46 897.234 1579.33 892.644 1585.39 883.512 1590.95 874.088 1599.2 866.86Z" stroke="#FFFFFF" stroke-width="10.7867" stroke-linejoin="round" stroke-miterlimit="10" fill="none" fill-rule="evenodd"/><path d="M2035.79 754.901C2020.31 744.676 2010.77 758.009 1999.28 763.946 1996.46 765.333 1993.96 770.218 1990.11 766.855 1985.73 763.009 1990.61 760.21 1991.98 756.824 1996.5 745.615 2004.94 739.395 2015.8 735.293 2019.76 733.68 2022.88 730.49 2024.41 726.491 2035.8 701.025 2053.65 680.315 2073.7 661.346 2076.3 659.372 2079.11 657.695 2082.08 656.345 2087.74 659.63 2083.16 663.123 2081.74 665.871 2073.84 681.246 2063.79 695.375 2054.89 710.283 2052.54 714.195 2049.65 717.823 2049.8 722.719 2050.5 728.16 2040.75 728.983 2044.1 735.562 2045.53 743.769 2040.19 749.129 2035.79 754.901Z" stroke="#FFFFFF" stroke-width="10.7867" stroke-linejoin="round" stroke-miterlimit="10" fill="none" fill-rule="evenodd"/><path d="M1729.51 708.46C1728.55 695.45 1723.57 683.055 1715.26 672.995 1723.01 660.408 1735.05 654.171 1748.61 650.208 1752.5 651.927 1754.12 655.478 1755.57 659.11 1760.07 669.82 1763.89 680.781 1768.36 691.507 1769.4 693.185 1769.41 695.312 1768.38 696.998 1764.42 702.888 1760.44 708.754 1756.52 714.672 1755.6 716.041 1754.55 717.882 1752.82 716.75 1745.76 712.1 1736.2 714.599 1729.51 708.46Z" stroke="#FFFFFF" stroke-width="10.7867" stroke-linejoin="round" stroke-miterlimit="10" fill="none" fill-rule="evenodd"/><path d="M1579.42 892.684C1595.67 899.008 1611.96 905.279 1628.18 911.675 1634.97 914.368 1642.74 915.381 1647.42 922.037 1641.26 932.338 1631.65 940.134 1620.3 944.041 1618.05 939.865 1613.89 939.074 1609.81 937.656 1595.38 932.567 1581.06 927.342 1566.66 922.099 1568.06 910.976 1574.39 902.086 1579.42 892.684Z" stroke="#FFFFFF" stroke-width="10.7867" stroke-linejoin="round" stroke-miterlimit="10" fill="none" fill-rule="evenodd"/><path d="M2266.74 786.48C2273.95 786.804 2278.1 780.794 2283.79 778.195 2288.68 775.983 2292.18 770.797 2298.4 771.384 2306.91 774.321 2314.8 778.823 2321.65 784.661 2321.64 789.298 2318.16 789.728 2314.8 790.307 2309.95 791.076 2308.27 795.482 2305.58 798.59 2297.83 807.47 2288.37 814.694 2277.77 819.832 2261.32 828.049 2245.82 823.124 2230.09 818.612 2226.85 817.684 2223.19 814.565 2228.83 812.277 2242.84 806.561 2254.01 797.365 2264.03 786.417 2264.59 785.654 2265.77 785.959 2266.74 786.48Z" stroke="#FFFFFF" stroke-width="10.7867" stroke-linejoin="round" stroke-miterlimit="10" fill="none" fill-rule="evenodd"/><path d="M2314.56 789.125C2317.35 788.477 2319.84 786.901 2321.61 784.654 2332.92 791.276 2342.6 800.338 2349.96 811.176 2334.21 819.448 2320.57 830.814 2306.78 841.846 2302.17 844.423 2298.6 840.92 2294.79 839.643 2286.46 836.83 2278.48 833.025 2270.24 829.908 2267.34 828.814 2262.75 825.446 2268.34 823.651 2287.84 817.289 2300.89 802.947 2314.56 789.125Z" stroke="#FFFFFF" stroke-width="10.7867" stroke-linejoin="round" stroke-miterlimit="10" fill="none" fill-rule="evenodd"/><path d="M1753.92 905.562C1770.97 915.997 1790.65 919.983 1808.72 927.924 1811.97 929.358 1815.25 930.758 1818.53 932.138 1810.14 942.564 1801.34 952.493 1790.09 960.057 1782.45 954.615 1773.23 952.75 1764.88 948.863 1761.87 947.626 1758.4 948.225 1755.98 950.4 1749.97 947.339 1750.76 940.94 1750.17 936.088 1748.98 925.736 1745.9 914.799 1753.92 905.562Z" stroke="#FFFFFF" stroke-width="10.7867" stroke-linejoin="round" stroke-miterlimit="10" fill="none" fill-rule="evenodd"/><path d="M1855.91 702.49C1854.65 708.987 1856.87 714.648 1859.74 720.313 1861.99 724.655 1863.88 729.173 1865.39 733.822 1868.64 744.253 1867.74 745.101 1856.91 743.037L1825.5 736.002C1822.45 735.317 1818.84 735.578 1817 732.08 1824.3 731.375 1826.24 728.744 1823.51 721.032 1818.51 707.326 1813.4 693.593 1808.56 679.74 1816.66 673.485 1823.75 675.961 1830.79 681.958 1839.02 688.985 1847.53 695.672 1855.91 702.49Z" stroke="#FFFFFF" stroke-width="10.7867" stroke-linejoin="round" stroke-miterlimit="10" fill="none" fill-rule="evenodd"/><path d="M2174.38 739.561C2171.83 737.437 2170.61 734.984 2172.9 731.967 2192.13 706.624 2206.02 677.864 2224.07 651.753 2226.07 648.872 2227.17 645.043 2231.83 645.545 2240 659.961 2236.04 673.859 2229.47 687.253 2217.54 711.328 2197.79 727.439 2174.38 739.561Z" stroke="#FFFFFF" stroke-width="10.7867" stroke-linejoin="round" stroke-miterlimit="10" fill="none" fill-rule="evenodd"/><path d="M1838.9 904.428C1826.4 895.233 1810.64 893.882 1797.09 887.134 1789.83 883.492 1782.1 881.376 1774.65 878.335 1771.39 876.838 1767.69 876.583 1764.26 877.621 1762.14 876.317 1760.94 873.905 1761.19 871.427 1764.14 867.266 1768.97 866.876 1773.32 866.076 1782.58 864.277 1791.71 861.703 1801.09 860.537 1804.1 860.162 1807.52 858.287 1810.12 861.714 1820.81 867.492 1832.12 872.054 1843.83 875.316 1847.34 875.94 1850.4 878.104 1852.15 881.214 1849.48 889.827 1844.96 897.751 1838.9 904.428Z" stroke="#FFFFFF" stroke-width="10.7867" stroke-linejoin="round" stroke-miterlimit="10" fill="none" fill-rule="evenodd"/><path d="M2203.14 899.308C2196.54 895.813 2189.07 893.919 2183.3 888.813 2189.23 877.373 2204.76 868.185 2213.72 870.797 2215.04 872.464 2214.38 874.577 2214.96 876.42 2214.87 874.584 2215.37 872.781 2215.22 870.951 2214.64 864.528 2212.58 858.136 2214.59 851.607 2221.99 841.97 2232.95 837.345 2243.05 831.519 2245.44 830.335 2248.25 830.359 2250.62 831.581 2258.9 838.76 2266.04 846.593 2265.5 858.635 2250.58 866.306 2236.47 875.466 2223.39 885.974 2217.12 890.903 2209.25 893.8 2203.14 899.308Z" stroke="#FFFFFF" stroke-width="10.7867" stroke-linejoin="round" stroke-miterlimit="10" fill="none" fill-rule="evenodd"/><path d="M2161.83 714.558C2149.77 725.511 2141.02 739.624 2136.56 755.292 2126.44 759.801 2115.68 761.465 2104.74 762.283 2099.69 762.866 2097.94 759.852 2099.79 756.01 2103.2 748.888 2105.79 740.753 2114.45 737.752 2115.86 737.665 2118.65 739.377 2117.15 735.512 2115.87 732.239 2114.6 728.89 2116.52 725.285 2124.72 714.353 2130.33 701.794 2138.37 690.766 2150.78 691.024 2161.24 701.679 2161.83 714.558Z" stroke="#FFFFFF" stroke-width="10.7867" stroke-linejoin="round" stroke-miterlimit="10" fill="none" fill-rule="evenodd"/><path d="M2048.87 723.541C2044.66 717.838 2049.48 714.176 2051.89 710.097 2061.84 693.622 2071.86 677.193 2081.93 660.811 2082.89 659.231 2083.28 657.908 2081.98 656.426 2088.78 646.895 2099.91 643.397 2109.1 637.226 2112.48 635.333 2116.03 633.75 2119.7 632.5 2122.15 636.499 2120.28 639.993 2118.33 643.388 2109.32 659.12 2100.69 675.101 2089.98 689.786 2087.59 692.866 2086.03 696.514 2085.47 700.374 2084.43 705.003 2080.59 706.965 2077.1 709.209 2068.33 715.154 2058.85 719.97 2048.87 723.541Z" stroke="#FFFFFF" stroke-width="10.7867" stroke-linejoin="round" stroke-miterlimit="10" fill="none" fill-rule="evenodd"/><path d="M1831.69 630.499C1830.46 634.822 1831.89 638.612 1833.54 642.631 1838.8 655.127 1843.59 667.698 1848.54 680.283 1849.7 683.674 1849.67 687.361 1848.46 690.734L1813.91 664.841C1810.14 645.155 1800.29 627.499 1794.46 608.622 1793.25 605.022 1790.43 601.668 1792.68 597.573 1806.61 607.392 1820.49 617.499 1831.69 630.499Z" stroke="#FFFFFF" stroke-width="10.7867" stroke-linejoin="round" stroke-miterlimit="10" fill="none" fill-rule="evenodd"/><path d="M2167.3 879.175C2158.48 873.831 2150.44 867.278 2143.43 859.706 2141.55 855.454 2143.92 852.655 2147.08 850.701 2162.28 841.277 2176.24 829.922 2192.12 821.538 2203.85 827.615 2209.34 837.661 2210.53 850.473 2194.05 856.928 2181.39 869.078 2167.3 879.175Z" stroke="#FFFFFF" stroke-width="10.7867" stroke-linejoin="round" stroke-miterlimit="10" fill="none" fill-rule="evenodd"/><path d="M1768.38 697 1748.61 650.21C1764.81 638.408 1777.69 649.948 1790.98 656.656 1799.33 660.868 1806.94 666.444 1816.58 672.477 1796.92 675.878 1782.17 685.524 1768.38 697Z" stroke="#FFFFFF" stroke-width="10.7867" stroke-linejoin="round" stroke-miterlimit="10" fill="none" fill-rule="evenodd"/><path d="M2035.79 754.902C2035.33 747.154 2044.62 742.537 2042.45 734.204 2041.91 730.393 2045.22 729.5 2047.41 727.832 2056.94 720.549 2067.68 715.146 2077.72 708.663 2085.7 703.491 2092.15 705.462 2098.07 714.332 2088.17 730.267 2078.63 746.466 2068.46 762.16 2056.53 764.349 2046.51 758.129 2035.79 754.902Z" stroke="#FFFFFF" stroke-width="10.7867" stroke-linejoin="round" stroke-miterlimit="10" fill="none" fill-rule="evenodd"/><path d="M2192.17 822.214C2179.47 832.903 2165.4 841.673 2151.41 850.521 2147.82 852.802 2143.81 854.667 2143.42 859.724 2134.87 853.493 2128.74 845.038 2122.32 836.844 2122.7 831.945 2126.58 830.111 2130.02 827.796 2133.46 825.482 2137.19 824.502 2138.16 820.199 2138.19 818.524 2139.58 817.166 2141.26 817.162 2156.81 814.565 2172.62 813.94 2188.33 815.302 2192.61 815.737 2196.82 816.579 2192.17 822.214Z" stroke="#FFFFFF" stroke-width="10.7867" stroke-linejoin="round" stroke-miterlimit="10" fill="none" fill-rule="evenodd"/><path d="M2152.38 621.671C2164.48 619.39 2176.84 618.764 2189.11 619.813 2186.83 625.296 2182.35 629.575 2176.77 631.591 2172.71 632.417 2173.94 636.365 2172.82 638.775 2166.09 653.703 2156.34 667.082 2144.2 678.073 2138.12 683.528 2130.15 684.708 2122.83 687.405 2120.42 688.276 2117.43 688.555 2115.87 685.704 2114.55 683.392 2116.13 681.285 2117.58 679.511 2127.4 667.451 2133.29 653.319 2138.95 639.054 2144.34 633.989 2147.67 627.312 2152.38 621.671Z" stroke="#FFFFFF" stroke-width="10.7867" stroke-linejoin="round" stroke-miterlimit="10" fill="none" fill-rule="evenodd"/><path d="M2152.38 621.67C2151.05 629.319 2147.83 635.678 2140.4 639.156 2136.14 642.235 2135.39 647.555 2133.91 651.822 2128.17 668.409 2117.49 681.327 2105.06 692.964 2099.43 698.237 2092.57 702.168 2084.15 701.21 2081.39 696.555 2084.07 693.122 2086.74 689.685 2098.77 674.228 2107.15 656.439 2117.66 639.992 2119 637.891 2119.08 635.005 2119.76 632.395 2129.88 626.836 2141.15 624.357 2152.38 621.67Z" stroke="#FFFFFF" stroke-width="10.7867" stroke-linejoin="round" stroke-miterlimit="10" fill="none" fill-rule="evenodd"/><path d="M2203.14 899.309C2209.75 886.873 2224.08 883.971 2233.81 875.117 2240.2 869.778 2247.1 865.088 2254.41 861.115 2257.46 859.151 2261.08 858.279 2264.69 858.637 2270.36 865.575 2273.09 873.086 2269.56 881.916 2256.18 885.292 2247.04 895.65 2235.82 902.597 2234.47 903.423 2232.74 904.306 2233.01 906.162 2233.35 908.661 2235.78 908.558 2237.56 908.997L2250.89 911.983C2243.21 914.297 2236.34 910.741 2229.44 908.652 2220.41 906.042 2211.83 902.385 2203.14 899.309Z" stroke="#FFFFFF" stroke-width="10.7867" stroke-linejoin="round" stroke-miterlimit="10" fill="none" fill-rule="evenodd"/><path d="M1904.99 834.519C1902.26 825.294 1892.64 826.629 1886.45 822.498 1884.17 820.958 1880.72 821.034 1877.92 820.387 1890.17 809.938 1905.13 803.911 1918.96 796.135 1927.4 791.391 1934.89 784.698 1944.49 782.027 1947.14 781.288 1950.17 777.107 1952.09 779.958 1954.02 782.809 1954.87 789.154 1952.34 790.907 1934.51 803.231 1927.28 827.066 1904.99 834.519Z" stroke="#FFFFFF" stroke-width="10.7867" stroke-linejoin="round" stroke-miterlimit="10" fill="none" fill-rule="evenodd"/><path d="M1808.55 679.777C1817.35 689.675 1818.7 702.788 1823.44 714.438 1824.48 716.799 1825.28 719.263 1825.82 721.791 1826.51 725.474 1830.97 729.137 1827.92 732.608 1824.86 736.078 1820.64 732.228 1816.89 732.153L1793.93 727.011C1788.75 715.764 1786.05 703.562 1781.61 691.977 1789.5 685.312 1798.26 680.679 1808.55 679.777Z" stroke="#FFFFFF" stroke-width="10.7867" stroke-linejoin="round" stroke-miterlimit="10" fill="none" fill-rule="evenodd"/><path d="M2176.49 631.108C2180.44 627.071 2183.73 622.32 2189.11 619.814 2197.22 622.599 2206.55 621.3 2213.65 627.328 2203.61 639.837 2195.13 653.514 2188.38 668.063 2187.79 672.265 2184.03 671.646 2181.44 672.054 2172.73 673.552 2164.12 675.698 2155.34 676.635 2151.68 677.026 2147.33 675.567 2151.17 671.404 2162.17 659.486 2168.69 644.952 2176.49 631.108Z" stroke="#FFFFFF" stroke-width="10.7867" stroke-linejoin="round" stroke-miterlimit="10" fill="none" fill-rule="evenodd"/><path d="M2068.45 762.219C2068.97 753.744 2074.72 747.729 2078.89 741.079 2084.66 731.902 2088.67 721.446 2097.33 714.227 2108.45 715.549 2116.8 726.375 2116.08 738.598 2107.25 742.005 2105.8 751.243 2101.05 757.845 2099.45 760.048 2102.53 761.524 2104.74 762.262 2092.77 764.77 2080.41 764.756 2068.45 762.219Z" stroke="#FFFFFF" stroke-width="10.7867" stroke-linejoin="round" stroke-miterlimit="10" fill="none" fill-rule="evenodd"/><path d="M1792.68 597.553C1799.69 616.128 1806.88 634.642 1813.5 653.352 1814.76 656.759 1818.51 660.888 1813.92 664.821 1799.79 660.828 1794.34 648.331 1787.66 637.354 1778.2 622.043 1773.72 605.225 1776.31 586.643 1783.19 588.789 1787.62 593.695 1792.68 597.553Z" stroke="#FFFFFF" stroke-width="10.7867" stroke-linejoin="round" stroke-miterlimit="10" fill="none" fill-rule="evenodd"/><path d="M1712.83 666.397C1704.33 653.047 1698.75 638.049 1696.47 622.389 1717.93 626.774 1739.19 631.82 1761.64 642.657 1741.15 645.491 1726.52 655.062 1712.83 666.397Z" stroke="#FFFFFF" stroke-width="10.7867" stroke-linejoin="round" stroke-miterlimit="10" fill="none" fill-rule="evenodd"/><path d="M1952.39 974.094C1935.25 972.272 1925.28 961.767 1918.98 946.579 1912.8 931.722 1908.59 916.578 1910.43 900.287 1912.88 894.907 1915.2 894.659 1918.54 900.087 1922.41 906.42 1925.72 913.053 1929.42 919.571 1933.53 926.905 1937.56 934.284 1941.44 941.748 1942.11 943.513 1940.37 945.786 1942.57 947.307 1947.01 952.336 1949.38 958.434 1952.41 964.195 1954.03 967.282 1955.93 970.875 1952.39 974.094Z" stroke="#FFFFFF" stroke-width="10.7867" stroke-linejoin="round" stroke-miterlimit="10" fill="none" fill-rule="evenodd"/><path d="M1911.75 876.377C1910.04 862.318 1916.65 850.365 1921.5 837.978 1922.2 836.117 1922.92 834.423 1923.63 832.625 1924.45 832.071 1925.47 831.88 1926.43 832.096 1927.4 832.313 1928.23 832.918 1928.74 833.769 1933.82 842.431 1941.24 849.984 1942 860.825 1939.06 863.333 1935.56 862.588 1931.98 862.614 1933.84 863.313 1935.7 863.105 1937.46 863.64 1947.89 871.1 1952.05 881.895 1953.73 894.012 1948.99 900.293 1943.11 903.432 1935.12 900.897 1929.27 890.086 1925.75 878.001 1917.18 868.011 1914.38 870.129 1915.36 874.928 1911.75 876.377Z" stroke="#FFFFFF" stroke-width="10.7867" stroke-linejoin="round" stroke-miterlimit="10" fill="none" fill-rule="evenodd"/><path d="M1724.33 1001.64C1724.13 994.961 1718.6 994.954 1714.09 993.298 1706.65 990.521 1699.17 987.333 1691.75 984.259 1687.95 977.739 1682.68 971.436 1688.37 963.33 1708.39 968.864 1727 978.278 1746.58 985.064 1747.76 985.47 1748.33 987.614 1749.18 988.954L1724.33 1001.64Z" stroke="#FFFFFF" stroke-width="10.7867" stroke-linejoin="round" stroke-miterlimit="10" fill="none" fill-rule="evenodd"/><path d="M1911.75 876.378C1913.25 871.833 1913 866.734 1916.59 861.326 1923.62 874.257 1933.54 884.71 1934.79 899.693 1932.47 902.099 1929.18 899.787 1926.82 901.378 1931.47 902.323 1935.32 905.606 1936.98 910.049 1939.86 917.652 1946.24 923.498 1947.88 931.733 1947.25 936.595 1945.82 940.933 1941.21 943.511 1931.73 931.787 1925.96 917.908 1918.93 904.834 1915.6 898.603 1914.88 897.876 1910.53 900.37 1908.49 892.169 1909.8 884.252 1911.75 876.378Z" stroke="#FFFFFF" stroke-width="10.7867" stroke-linejoin="round" stroke-miterlimit="10" fill="none" fill-rule="evenodd"/><path d="M1949.03 800.011C1954.83 795.824 1959.3 791.015 1957.59 782.987 1957.25 781.419 1957.41 779.438 1959.43 779.164 1960.71 779.215 1961.91 779.777 1962.77 780.72 1964.06 782.078 1966.08 783.962 1965.87 785.448 1963.55 801.307 1975.23 811.931 1980.33 824.995 1986.15 839.813 1992.27 854.519 1993.71 870.615 1987.01 870.646 1985.08 865.354 1983.42 860.605 1980.13 851.255 1973.85 843.554 1970.06 834.536 1968.91 831.791 1966.71 829.619 1963.95 828.507 1958.85 824.258 1963.19 816.234 1957.19 812.408 1952.73 809.731 1949.73 805.165 1949.03 800.011Z" stroke="#FFFFFF" stroke-width="10.7867" stroke-linejoin="round" stroke-miterlimit="10" fill="none" fill-rule="evenodd"/><path d="M2167.3 879.177C2174.51 866.894 2187.89 862.104 2198.37 853.862 2201.66 851.251 2205.28 848.673 2210.01 850.419 2215.36 856.701 2216.17 863.72 2213.39 871.348 2208.24 869.388 2204.6 872.605 2200.99 875.206 2194.95 879.561 2189.18 884.259 2183.3 888.792 2177.71 885.945 2171.83 883.64 2167.3 879.177Z" stroke="#FFFFFF" stroke-width="10.7867" stroke-linejoin="round" stroke-miterlimit="10" fill="none" fill-rule="evenodd"/><path d="M1994.97 901.075C1996.03 909.864 1992.96 918.072 1991.3 926.474 1984.2 927.447 1983.4 922.285 1982.34 917.368 1983.32 913.734 1981.45 911.116 1979.21 908.597 1968.68 896.96 1964.87 882.532 1962.15 867.661 1961.21 862.89 1960.74 857.864 1964.71 853.812 1968.77 852.361 1971.1 855.002 1972.55 857.889 1979.74 872.348 1989.38 885.702 1994.97 901.075Z" stroke="#FFFFFF" stroke-width="10.7867" stroke-linejoin="round" stroke-miterlimit="10" fill="none" fill-rule="evenodd"/><path d="M1994.97 901.074C1985.38 889.869 1980.43 875.932 1972.99 863.412 1970.85 859.826 1969.82 855.501 1965.16 854.073 1960.9 845.353 1959.5 836.668 1964.99 827.813 1968.57 825.146 1969.67 828.519 1970.74 830.532 1975.6 839.691 1980.63 848.764 1984.71 858.21 1986.87 863.133 1989.09 867.543 1993.67 870.525 1995.22 880.615 1996.86 890.747 1994.97 901.074Z" stroke="#FFFFFF" stroke-width="10.7867" stroke-linejoin="round" stroke-miterlimit="10" fill="none" fill-rule="evenodd"/><path d="M2115.77 803.078C2112.11 810.952 2101.77 811.56 2098.02 819.273L2060.04 808.747C2057.84 804.221 2059.73 801.094 2063.4 798.789 2067.06 796.483 2069.97 793.383 2073.92 791.706 2088.4 793.498 2101.39 800.805 2115.77 803.078Z" stroke="#FFFFFF" stroke-width="10.7867" stroke-linejoin="round" stroke-miterlimit="10" fill="none" fill-rule="evenodd"/><path d="M1941.45 860.843C1935.49 851.439 1933.25 839.742 1923.57 832.631 1926.88 825.666 1931.05 819.146 1935.99 813.224 1936.89 812.682 1937.96 812.507 1938.99 812.738 1940.26 813.022 1941.32 813.893 1941.84 815.081 1947.9 827.553 1956.71 838.745 1959.02 852.938 1955.59 860.763 1949.54 863.099 1941.45 860.843Z" stroke="#FFFFFF" stroke-width="10.7867" stroke-linejoin="round" stroke-miterlimit="10" fill="none" fill-rule="evenodd"/><path d="M1983.41 916.64C1985 920.746 1986.53 924.901 1991.3 926.474 1989.53 934.368 1988.37 942.501 1982.29 948.663L1981.1 947.789C1969.91 934.674 1961.61 920.166 1958.42 902.953 1957.22 896.841 1957.93 890.502 1960.47 884.813 1961.28 882.978 1964.17 879.832 1965.22 883.135 1969.16 895.473 1978.51 904.789 1983.41 916.64Z" stroke="#FFFFFF" stroke-width="10.7867" stroke-linejoin="round" stroke-miterlimit="10" fill="none" fill-rule="evenodd"/><path d="M1781.63 691.898C1789.83 702.126 1792.15 714.428 1793.95 726.933 1784.46 724.808 1775 722.547 1765.48 720.556 1760.5 719.561 1759.86 717.643 1762.46 713.363 1767.37 705.018 1773.89 697.723 1781.63 691.898Z" stroke="#FFFFFF" stroke-width="10.7867" stroke-linejoin="round" stroke-miterlimit="10" fill="none" fill-rule="evenodd"/><path d="M1982.29 948.662C1979.95 956.505 1974.86 963.245 1967.95 967.639 1963.12 958.608 1959.73 948.892 1953.91 940.287 1952.09 937.519 1949.72 937.491 1947.67 936.066 1948.02 929.506 1951.28 923.743 1952.84 917.496 1953.33 914.817 1955.71 912.864 1958.43 912.899 1961.16 912.985 1961.9 915.43 1962.73 917.593 1966.8 929.498 1974.56 939.063 1982.2 948.722L1982.29 948.662Z" stroke="#FFFFFF" stroke-width="10.7867" stroke-linejoin="round" stroke-miterlimit="10" fill="none" fill-rule="evenodd"/><path d="M2073.94 791.689C2072.53 795.406 2070.33 798.807 2066.28 799.857 2061.47 800.997 2060.9 804.903 2060.04 808.745 2052.09 806.481 2047.14 800.228 2041.51 794.851 2035.43 789.399 2029.66 783.617 2024.23 777.526 2041.1 781.547 2057.97 784.943 2073.94 791.689Z" stroke="#FFFFFF" stroke-width="10.7867" stroke-linejoin="round" stroke-miterlimit="10" fill="none" fill-rule="evenodd"/><path d="M1957.48 852.331C1950.94 838.964 1946.99 824.162 1935.99 813.225L1949.03 800.01C1953.03 802.701 1953.37 808.929 1958.84 810.275 1962.42 822.555 1962.55 835.192 1962.37 847.818 1962.37 850.158 1963.33 855.396 1957.48 852.331Z" stroke="#FFFFFF" stroke-width="10.7867" stroke-linejoin="round" stroke-miterlimit="10" fill="none" fill-rule="evenodd"/><path d="M1948.58 937.075C1950.41 936.82 1952.02 933.227 1954.14 936.809 1959.91 946.552 1967.71 955.381 1967.9 967.606 1963.61 971.971 1958.64 974.71 1952.3 974.198 1952 963.58 1944.96 956.012 1940.15 947.43 1943.94 944.648 1944 938.954 1948.58 937.075Z" stroke="#FFFFFF" stroke-width="10.7867" stroke-linejoin="round" stroke-miterlimit="10" fill="none" fill-rule="evenodd"/><path d="M2103.78 820.565C2106.91 821.73 2110.99 820.827 2112.96 824.638 2109.8 823.407 2105.75 824.313 2103.78 820.565Z" stroke="#FFFFFF" stroke-width="10.7867" stroke-linejoin="round" stroke-miterlimit="10" fill="none" fill-rule="evenodd"/><path d="M1810.15 861.675C1793.55 863.726 1776.62 865.136 1761.24 872.907L1760.27 873.9C1754.43 876.484 1748.05 877.577 1742.27 880.316 1727.53 885.951 1712.85 891.636 1699.08 899.444 1698.34 899.952 1697.56 900.406 1696.76 900.8 1674.93 912.057 1654.21 925.346 1634.87 940.492 1628.43 945.301 1623.28 951.812 1615.76 955.211L1606.57 960.213C1610.59 952.196 1615.86 948.475 1620.28 944.059L1647.36 922.029 1678.95 903.024C1650.36 900.069 1626.49 889.114 1606.89 868.585 1608.32 864.548 1610.04 865.518 1612.38 868.001 1630.85 887.608 1653.92 896.267 1680.44 897.367 1685.93 897.617 1691.39 896.308 1696.17 893.589 1706.1 888.35 1716.37 883.732 1728.24 878.021 1703.41 876.936 1684.24 867.336 1666.6 853.702 1665.35 849.669 1659.26 849.093 1659.39 844.018 1661.79 841.791 1663.24 843.952 1664.35 845.129 1684.22 866.707 1709.82 874.539 1737.97 874.148 1746.99 874.031 1755.99 869.129 1764.91 866.064 1768.33 864.934 1771.57 863.36 1775.26 863.804 1794.02 859.455 1812.71 854.564 1831.94 853.89L1832.51 856.741 1810.15 861.675Z" stroke="#FFFFFF" stroke-width="10.7867" stroke-linejoin="round" stroke-miterlimit="10" fill="none" fill-rule="evenodd"/><path d="M2213.43 871.358C2213.8 864.138 2211.84 857.305 2210.05 850.43 2206.18 839.699 2201.3 829.628 2192.17 822.217 2193.45 818.471 2192.17 817.337 2188.15 817.082 2171.43 815.702 2154.58 816.753 2138.16 820.203 2135.6 815.596 2135.56 815.324 2140.77 814.738 2151.27 813.539 2161.82 812.716 2172.35 811.726 2197.25 814.017 2222.22 817.553 2244.65 801.438 2254.48 794.363 2261.38 784.752 2269.24 774.674 2271.61 780.227 2266.38 782.605 2266.72 786.393 2255.49 797.996 2244 809.544 2227.1 814.572 2262.17 829.105 2285.35 820.924 2309.17 790.396 2309.73 789.695 2310.81 780.395 2314.59 789.069 2303.55 806.928 2287.88 818.908 2266.48 825.552L2306.78 841.842C2314.84 846.735 2323.99 849.934 2331.08 856.283L2329.97 858.454 2307.41 848.035C2296.61 847.451 2287.99 840.619 2278.02 837.617 2272.35 835.904 2266.92 833.74 2261.19 832.415 2241.44 822.443 2219 824.699 2199.81 819.694 2207 828.06 2214.61 838.198 2215.82 851.721 2215.89 862.024 2219.01 872.386 2216.33 884.109 2211.08 879.424 2212.57 875.2 2213.43 871.358Z" stroke="#FFFFFF" stroke-width="10.7867" stroke-linejoin="round" stroke-miterlimit="10" fill="none" fill-rule="evenodd"/><path d="M2261.11 829.597C2277.38 833.385 2292.99 839.601 2307.41 848.037 2300.1 857.897 2288.25 861.535 2279 868.783 2277.26 870.168 2275.42 871.45 2273.63 872.764 2270.83 873.024 2270.49 870.769 2270.18 868.985 2268.15 856.61 2262.35 845.769 2256.58 834.875 2256.59 831.79 2258.48 830.378 2261.11 829.597Z" stroke="#FFFFFF" stroke-width="10.7867" stroke-linejoin="round" stroke-miterlimit="10" fill="none" fill-rule="evenodd"/><path d="M2257.9 834.928C2266.61 846.098 2270.33 859.335 2273.64 872.744 2273.57 877.287 2273.44 881.817 2273.47 886.362 2273.48 888.564 2274.44 891.663 2271.14 891.649 2266.82 891.631 2268.51 888.156 2268.76 885.752 2268.89 884.469 2269.33 883.217 2269.49 881.881 2270.46 873.586 2266.02 866.418 2264.62 858.601 2263.01 848.317 2256.77 840.705 2250.15 833.17 2249.44 831.378 2245.19 831.535 2247.2 828.295 2248.84 825.777 2251.02 826.85 2253.05 827.951 2255.92 829.461 2256.89 832.159 2257.9 834.928Z" stroke="#FFFFFF" stroke-width="10.7867" stroke-linejoin="round" stroke-miterlimit="10" fill="none" fill-rule="evenodd"/><path d="M1696.93 898.843C1710.57 889.191 1726.18 883.894 1741.8 878.638 1749.27 877.69 1754.31 880.231 1755.62 888.188 1752.46 903.719 1747.67 919.065 1750.03 935.349 1750.14 936.632 1749.57 937.886 1748.53 938.642 1729.69 932.707 1710.56 927.07 1692.74 918.077 1689.81 910.642 1698.16 905.775 1696.93 898.843Z" stroke="#FFFFFF" stroke-width="10.7867" stroke-linejoin="round" stroke-miterlimit="10" fill="none" fill-rule="evenodd"/><path d="M1696.93 898.842C1700.33 899.967 1700.39 901.957 1698.86 904.883 1696.61 909.179 1694.72 913.657 1692.68 918.062 1689.81 933.051 1683.37 947.746 1688.45 963.509 1686.21 971.075 1691.94 977.219 1691.83 984.437L1687.99 983.577C1681.21 975.601 1681.46 965.553 1679.79 956.062 1679.63 940.957 1680.46 926.075 1687.25 912.084 1689.71 907.009 1692.28 902.237 1696.89 898.834L1696.93 898.842Z" stroke="#FFFFFF" stroke-width="10.7867" stroke-linejoin="round" stroke-miterlimit="10" fill="none" fill-rule="evenodd"/><path d="M1748.53 938.644C1745.76 921.1 1749.72 904.256 1753.95 887.414 1755.18 881.959 1755.69 876.164 1761.24 872.909 1761.35 872.923 1761.46 872.942 1761.56 872.966 1763.5 873.4 1764.74 875.354 1764.31 877.292 1764.28 877.399 1764.25 877.506 1764.22 877.611 1759 886.169 1755.51 895.665 1753.92 905.561 1750.54 920.658 1750.12 935.673 1755.98 950.399 1756.14 952.773 1758.18 955.431 1754.33 957.756 1750.76 951.731 1750.6 944.815 1748.53 938.644Z" stroke="#FFFFFF" stroke-width="10.7867" stroke-linejoin="round" stroke-miterlimit="10" fill="none" fill-rule="evenodd"/><path d="M1681.76 957.974 1688.13 983.605C1663.96 974.419 1639.32 966.095 1615.8 955.299 1620.39 948.419 1627.43 944.268 1633.66 939.129 1650.41 943.326 1667.03 948.199 1681.76 957.974Z" stroke="#FFFFFF" stroke-width="10.7867" stroke-linejoin="round" stroke-miterlimit="10" fill="none" fill-rule="evenodd"/><path d="M2116.1 738.604C2113.5 727.675 2107.62 719.296 2097.35 714.233 2089.96 707.997 2083.05 706.066 2074.15 713.07 2064.2 720.927 2053.05 727.304 2042.47 734.211 2039.79 733.227 2038.33 731.811 2041.18 729.444 2043.66 727.378 2046.3 725.508 2048.87 723.543 2059.29 713.975 2074.04 711.249 2084.14 701.187 2112.26 691.25 2125.94 668.656 2135.61 642.521 2136.78 639.374 2136.78 639.374 2140.39 639.176 2136.52 656.462 2127.76 671.061 2115.42 685.886 2132.94 684.061 2144.74 676.197 2154.51 663.861 2164.15 651.957 2171.08 638.1 2174.84 623.252 2178.87 626.171 2176.44 628.814 2176.52 631.153 2172.26 647.809 2162.67 661.373 2150.02 675.341L2188.38 668.061C2194.62 668.289 2200.98 666.748 2209.9 669.351 2200.16 673.22 2192.42 671.93 2185.18 673.435 2171.34 680.118 2155.76 679.694 2142.54 684.88 2150.99 689.457 2160.86 694.673 2163.57 706.859 2165.19 711.963 2168.19 716.789 2167.35 723.056 2162.3 721.742 2163.07 717.478 2161.78 714.525 2157.21 703.74 2150.95 694.592 2138.76 691.215 2122.4 686.803 2110.79 697.919 2096.2 703.426 2103.99 711.343 2114.44 715.58 2116.69 726.613 2117.96 730.569 2119.32 734.504 2120.48 738.515 2120.97 740.26 2121.76 742.677 2118.65 742.725 2116.01 742.799 2115.96 740.589 2116.1 738.604Z" stroke="#FFFFFF" stroke-width="10.7867" stroke-linejoin="round" stroke-miterlimit="10" fill="none" fill-rule="evenodd"/><path d="M2163.55 706.876C2156.99 698.083 2150.4 689.325 2138.89 685.477 2154 677.909 2169.57 675.669 2185.16 673.452 2179.34 685.481 2173.4 697.465 2163.55 706.876Z" stroke="#FFFFFF" stroke-width="10.7867" stroke-linejoin="round" stroke-miterlimit="10" fill="none" fill-rule="evenodd"/><path d="M2257.9 834.926C2256.11 833.132 2254.36 831.269 2252.52 829.524 2251.34 828.393 2249.63 827.284 2248.56 829.182 2248.13 830.033 2249.56 831.846 2250.13 833.226 2237.09 832.845 2229.78 843.774 2219.48 848.789 2218.16 849.637 2216.93 850.619 2215.81 851.72 2209.31 840.682 2206.2 827.76 2196.31 818.304 2218.54 820.642 2240.74 820.048 2261.16 829.584L2257.9 834.926Z" stroke="#FFFFFF" stroke-width="10.7867" stroke-linejoin="round" stroke-miterlimit="10" fill="none" fill-rule="evenodd"/><path d="M2116.76 726.648C2109.99 719.303 2104.57 710.664 2094.26 707.145 2089.92 705.648 2092.87 703.001 2095.08 701.762 2106.22 695.746 2117.82 690.647 2129.78 686.521 2134.01 685.027 2135.76 689.654 2138.81 691.246 2133.41 704.277 2127.2 716.884 2116.76 726.648Z" stroke="#FFFFFF" stroke-width="10.7867" stroke-linejoin="round" stroke-miterlimit="10" fill="none" fill-rule="evenodd"/><path d="M1948.58 937.075C1946.76 941.326 1946.4 946.794 1940.24 947.308 1938.38 945.52 1940.69 944.666 1941.1 943.467L1946.03 930.452C1946.81 921.732 1949.29 913.29 1951.16 903.503 1940.01 908.246 1930.18 904.51 1920.48 900.442 1924.89 894.006 1930.01 900.116 1934.79 899.612 1941.71 900.66 1947.36 898.052 1952.3 893.451 1958.26 883.773 1956.51 872.89 1957.69 860.932 1950.77 867.229 1943.51 866.166 1936.32 865.665 1932.3 864.766 1928 864.245 1925.83 857.566 1931.48 861.352 1936.57 859.971 1941.46 860.744 1947.22 858.706 1954.64 859.804 1957.48 852.232 1963.67 851.602 1960.61 846.558 1960.56 843.966 1960.44 832.704 1959.54 821.547 1958.84 810.175 1966.32 814.112 1960.99 822.519 1965 827.692 1963.5 836.454 1965.1 845.225 1965.17 853.953 1962.08 873.736 1968.74 890.74 1980.5 906.061 1985.71 912.877 1986.25 912.997 1983.42 916.519 1975.16 906.599 1967.81 896.179 1963.5 881.92 1956.82 899.949 1963.2 913.965 1970.04 928.066 1973.55 935.267 1980.73 940.224 1982.3 948.542 1969.54 940.379 1964.77 926.662 1958.11 911.092 1954.32 921.519 1951.48 929.272 1948.58 937.075Z" stroke="#FFFFFF" stroke-width="10.7867" stroke-linejoin="round" stroke-miterlimit="10" fill="none" fill-rule="evenodd"/><path d="M1936.32 865.745C1942.61 864.693 1948.96 863.878 1954.84 861.14 1956.76 860.238 1959.94 858.55 1959.77 862.447 1959.38 872.585 1961.33 883.21 1954.93 892.364 1954.46 893.025 1953.2 893.147 1952.3 893.532 1948.06 883.565 1946.37 872.232 1936.32 865.745Z" stroke="#FFFFFF" stroke-width="10.7867" stroke-linejoin="round" stroke-miterlimit="10" fill="none" fill-rule="evenodd"/><path d="M1920.49 900.403C1939.63 904.975 1939.63 904.975 1955.14 898.805 1951.83 909.966 1952.38 921.022 1946.04 930.413 1942.47 924.732 1937.39 919.681 1936.05 913.028 1934.24 904.09 1925.16 905.221 1920.49 900.403Z" stroke="#FFFFFF" stroke-width="10.7867" stroke-linejoin="round" stroke-miterlimit="10" fill="none" fill-rule="evenodd"/><path d="M1681.77 957.975C1665.43 952.297 1648.65 947.873 1633.55 939.104 1653.11 923.174 1673.84 909.06 1697.03 898.862 1685.67 916.853 1682.33 937.002 1681.77 957.975Z" stroke="#FFFFFF" stroke-width="10.7867" stroke-linejoin="round" stroke-miterlimit="10" fill="none" fill-rule="evenodd"/><path d="M1761.24 872.908C1759.06 877.866 1757.89 883.353 1753.96 887.413 1751.99 881.607 1746.6 880.522 1741.8 878.639 1747.66 875.037 1754.37 873.059 1761.24 872.908Z" stroke="#FFFFFF" stroke-width="10.7867" stroke-linejoin="round" stroke-miterlimit="10" fill="none" fill-rule="evenodd"/><path d="M1828.53 1221.18 1866.3 1220.89C1866.3 1217.09 1866.35 1212.05 1866.35 1208.88 1866.35 1208.79 1866.14 1208.85 1866.04 1208.85L1828.53 1208.85C1820.91 1208.85 1816.52 1206.99 1814.76 1204.66 1814.47 1203.96 1814.17 1203.26 1814.17 1202.8 1814.17 1202.1 1814.47 1201.4 1814.76 1200.71 1816.52 1198.38 1820.91 1196.52 1828.53 1196.52L1858.43 1196.72C1858.43 1199.98 1858.32 1186.21 1858.32 1184.18L1828.53 1184.18M1828.53 1184.18C1814.76 1184.18 1805.68 1188.61 1801.28 1194.42 1799.52 1196.98 1798.35 1199.77 1798.35 1202.8 1798.35 1205.59 1799.52 1208.39 1801.28 1210.95 1805.68 1216.76 1814.76 1221.18 1828.53 1221.18" stroke="#FFFFFF" stroke-width="13.8756" stroke-miterlimit="8" fill="#FFFFFF" fill-rule="evenodd"/><path d="M2104.85 1519.75C2104.85 1578.42 2048.05 1811.47 2013.68 1837.52 2003.2 1845.5 1982.81 1845.97 1971.74 1837.52 1937.07 1811.7 1880.56 1578.42 1880.86 1519.75L1880.86 1225.68 2104.85 1225.68 2104.85 1519.75Z" stroke="#FFFFFF" stroke-width="13.3877" stroke-linejoin="round" stroke-miterlimit="10" fill="none" fill-rule="evenodd"/><path d="M1866.35 1202.19 2118.35 1202.19 2118.35 1225.19 1866.35 1225.19Z" stroke="#FFFFFF" stroke-width="13.8756" stroke-linecap="round" stroke-linejoin="round" stroke-miterlimit="10" fill="none" fill-rule="evenodd"/><path d="M1858.35 1180.18 2127.36 1180.18 2127.36 1202.18 1858.35 1202.18Z" stroke="#FFFFFF" stroke-width="13.8756" stroke-linecap="round" stroke-linejoin="round" stroke-miterlimit="10" fill="none" fill-rule="evenodd"/><path d="M1897.85 1280.68 2018.85 1280.68 1897.85 1280.68ZM1897.85 1433.56 2018.85 1433.56 1897.85 1433.56ZM1897.85 1586.68 2018.85 1586.68 1897.85 1586.68Z" stroke="#FFFFFF" stroke-width="13.3877" stroke-linejoin="round" stroke-miterlimit="10" stroke-opacity="0.8" fill="none" fill-rule="evenodd"/><path d="M2905.03 707.62C2902.08 705.647 2898.25 705.462 2895.11 707.142 2891.95 708.821 2890 712.091 2890 715.651L2890 889.35C2890 892.91 2891.95 896.18 2895.11 897.858 2898.25 899.537 2902.08 899.354 2905.03 897.379L3035.69 810.529C3038.38 808.739 3040 805.726 3040 802.5 3040 799.273 3038.38 796.26 3035.69 794.47L2905.03 707.62ZM2909.34 733.682 3012.87 802.5C3012.87 802.5 2909.34 871.319 2909.34 871.319L2909.34 733.682Z" fill="#FFFFFF" fill-rule="evenodd"/><path d="M2456.67 812 2899.35 812C2904.67 812 2909 807.743 2909 802.501 2909 797.257 2904.67 793 2899.35 793L2456.67 793C2451.33 793 2447 797.257 2447 802.501 2447 807.743 2451.33 812 2456.67 812Z" fill="#FFFFFF" fill-rule="evenodd"/><path d="M2905.03 1431.63C2902.08 1429.64 2898.25 1429.46 2895.11 1431.15 2891.95 1432.83 2890 1436.12 2890 1439.7L2890 1614.3C2890 1617.88 2891.95 1621.16 2895.11 1622.85 2898.25 1624.54 2902.08 1624.36 2905.03 1622.37L3035.69 1535.07C3038.38 1533.27 3040 1530.24 3040 1527 3040 1523.76 3038.38 1520.73 3035.69 1518.93L2905.03 1431.63ZM2909.34 1457.82 3012.87 1527C3012.87 1527 2909.34 1596.18 2909.34 1596.18L2909.34 1457.82Z" fill="#FFFFFF" fill-rule="evenodd"/><path d="M2456.67 1537 2899.35 1537C2904.67 1537 2909 1532.52 2909 1527 2909 1521.48 2904.67 1517 2899.35 1517L2456.67 1517C2451.33 1517 2447 1521.48 2447 1527 2447 1532.52 2451.33 1537 2456.67 1537Z" fill="#FFFFFF" fill-rule="evenodd"/><path d="M2023.17 1932.2 1969.95 1925.09 1962.86 1978.29 2023.17 1932.2Z" stroke="#FFFFFF" stroke-width="13.4656" stroke-linecap="round" stroke-miterlimit="8" fill="none" fill-rule="evenodd"/><path d="M1993 1955.24C2019.86 1982.45 2061.06 2015.09 2100.77 2019.72 2141.44 2024.46 2194.78 1947.57 2291.46 1990.29" stroke="#FFFFFF" stroke-width="13.4656" stroke-linecap="round" stroke-linejoin="round" stroke-miterlimit="10" stroke-dasharray="26.9312 26.9312" fill="none" fill-rule="evenodd"/><path d="M3762.5 821.214 3814.28 836.5 3829.5 784.5 3762.5 821.214Z" stroke="#FFFFFF" stroke-width="13.4656" stroke-linecap="round" stroke-miterlimit="8" fill="none" fill-rule="evenodd"/><path d="M3795.5 802.5C3769.55 730.207 3735.89 585.325 3776.12 509.5" stroke="#FFFFFF" stroke-width="13.4656" stroke-linecap="round" stroke-linejoin="round" stroke-miterlimit="10" stroke-dasharray="26.9312 26.9312" fill="none" fill-rule="evenodd"/><text fill="#FFFFFF" font-family="Avenir Next LT Pro,Avenir Next LT Pro_MSFontService,sans-serif" font-weight="400" font-size="202" transform="matrix(1 0 0 1 200.887 858)">Organism1</text></g></svg>