<svg width="96" height="96" xmlns="http://www.w3.org/2000/svg" xmlns:xlink="http://www.w3.org/1999/xlink" xml:space="preserve" overflow="hidden"><g transform="translate(-621 -279)"><path d="M671.41 320 679.57 328.16C681.572 325.886 682.776 323.021 683 320Z" fill="#1EC2A7"/><path d="M668 319.41 668 305.05C660.286 305.58 654.463 312.263 654.993 319.977 655.524 327.691 662.207 333.514 669.921 332.984 672.966 332.775 675.859 331.576 678.16 329.57Z" fill="#1EC2A7"/><path d="M670 318 683 318C682.494 311.049 676.953 305.529 670 305.05Z" fill="#1EC2A7"/><path d="M697 301 697 337 641 337 641 301ZM705 339 703 339 703 298 705 298C706.105 298 707 297.105 707 296 707 294.895 706.105 294 705 294L671 294 671 292C671 290.895 670.105 290 669 290 667.895 290 667 290.895 667 292L667 294 633 294C631.895 294 631 294.895 631 296 631 297.105 631.895 298 633 298L635 298 635 339 633 339C631.895 339 631 339.895 631 341 631 342.105 631.895 343 633 343L663.54 343 648.14 358.4C647.359 359.19 647.365 360.464 648.155 361.245 648.945 362.026 650.219 362.02 651 361.23L667 345.23 667 363C667 364.105 667.895 365 669 365 670.105 365 671 364.105 671 363L671 345.2 687 361.2C687.781 361.982 689.049 361.982 689.83 361.2 690.612 360.419 690.612 359.151 689.83 358.37L674.46 343 705 343C706.105 343 707 342.105 707 341 707 339.895 706.105 339 705 339Z" fill="#1EC2A7"/></g></svg>