<svg width="3598" height="1614" xmlns="http://www.w3.org/2000/svg" xmlns:xlink="http://www.w3.org/1999/xlink" xml:space="preserve" overflow="hidden"><g transform="translate(-527 -531)"><g><path d="M942.978 1721.21C939.549 1724.39 937.228 1725.74 933.048 1727.48 928.867 1729.22 920.612 1735.02 917.897 1731.65" stroke="#FFC000" stroke-width="10.3125" stroke-linecap="round" stroke-linejoin="miter" stroke-miterlimit="8" stroke-opacity="1" fill="none" fill-rule="evenodd"/><path d="M934.906 1692.04C936.237 1694.49 936.432 1696.06 936.18 1698.81 935.928 1701.55 937.498 1707.25 933.394 1708.53" stroke="#FFC000" stroke-width="10.3125" stroke-linecap="round" stroke-linejoin="miter" stroke-miterlimit="8" stroke-opacity="1" fill="none" fill-rule="evenodd"/><path d="M917.939 1666.64C920.278 1667.83 923.267 1673.61 927.189 1675.12 931.111 1676.64 930.822 1672.84 941.474 1675.74" stroke="#FFC000" stroke-width="10.3125" stroke-linecap="round" stroke-linejoin="miter" stroke-miterlimit="8" stroke-opacity="1" fill="none" fill-rule="evenodd"/><path d="M895.857 1690.87C898.249 1686.71 902.322 1685.11 906.539 1685.83 910.755 1686.55 915.115 1689.6 921.155 1695.21" stroke="#FFC000" stroke-width="10.3125" stroke-linecap="round" stroke-linejoin="miter" stroke-miterlimit="8" stroke-opacity="1" fill="none" fill-rule="evenodd"/><path d="M907.669 1720.03C909.316 1715.64 912.259 1712.7 915.366 1711.64 918.472 1710.58 921.743 1711.4 926.309 1713.68" stroke="#FFC000" stroke-width="10.3125" stroke-linecap="round" stroke-linejoin="miter" stroke-miterlimit="8" stroke-opacity="1" fill="none" fill-rule="evenodd"/><rect x="749.5" y="1511.5" width="644" height="7.99988" stroke="#787878" stroke-width="4.58333" stroke-linecap="butt" stroke-linejoin="miter" stroke-miterlimit="8" stroke-opacity="1" fill="#A5A5A5" fill-opacity="1"/><rect x="749.5" y="1542.5" width="644" height="8.00024" stroke="#787878" stroke-width="4.58333" stroke-linecap="butt" stroke-linejoin="miter" stroke-miterlimit="8" stroke-opacity="1" fill="#A5A5A5" fill-opacity="1"/><path d="M758.5 1753.43C772.417 1754.44 786.126 1757.55 794.545 1750.38 802.964 1743.22 804.374 1710.61 809.013 1710.44 813.652 1710.27 817.583 1743.05 822.38 1749.37 827.178 1755.69 833.827 1752.41 837.799 1748.36 841.77 1744.3 844.407 1724.35 846.209 1725.02 848.011 1725.7 843.806 1748.52 848.612 1752.41 853.418 1756.3 867.235 1764.76 875.045 1748.36 882.854 1731.96 887.26 1679.54 895.47 1654.01 903.68 1628.48 912.692 1590.95 924.306 1595.18 935.92 1599.4 955.945 1655.03 965.157 1679.37 974.368 1703.72 975.274 1728.76 979.575 1741.25 983.876 1753.75 986.157 1754.4 990.962 1754.34 995.768 1754.27 1003.7 1756.79 1008.41 1752.41 1013.12 1748.03 1015.24 1734.83 1019.22 1728.07 1023.21 1721.3 1027.93 1710.13 1032.34 1711.82 1036.75 1713.51 1040.23 1731.45 1045.66 1738.21 1051.08 1744.98 1056.67 1750.22 1064.88 1752.41 1073.09 1754.61 1088.31 1757.49 1094.92 1751.4 1101.53 1745.31 1100.52 1725.95 1104.53 1715.89 1108.54 1705.84 1112.27 1691.3 1118.96 1691.06 1125.64 1690.83 1128.46 1713.53 1130.96 1726.04 1133.47 1738.54 1135.33 1753.5 1145.38 1756.47 1155.43 1759.44 1172.88 1756.28 1191.27 1743.85 1210.15 1722.22 1211.14 1564.03 1223 1564.5 1234.86 1564.97 1231.03 1738.31 1262.44 1746.67 1293.84 1755.03 1353.92 1753.48 1377.27 1755.46 1400.61 1757.43 1402.3 1757.23 1402.5 1758.5" stroke="#595959" stroke-width="4.58333" stroke-linecap="butt" stroke-linejoin="miter" stroke-miterlimit="8" stroke-opacity="1" fill="none" fill-rule="evenodd"/><path d="M932.534 1644.01C929.105 1647.19 926.784 1648.54 922.604 1650.28 918.424 1652.02 910.169 1657.82 907.453 1654.45" stroke="#FFC000" stroke-width="10.3125" stroke-linecap="round" stroke-linejoin="miter" stroke-miterlimit="8" stroke-opacity="1" fill="none" fill-rule="evenodd"/><path d="M915.322 1634.85C916.969 1630.46 919.912 1627.52 923.019 1626.46 926.125 1625.4 929.396 1626.22 933.962 1628.5" stroke="#FFC000" stroke-width="10.3125" stroke-linecap="round" stroke-linejoin="miter" stroke-miterlimit="8" stroke-opacity="1" fill="none" fill-rule="evenodd"/><path d="M961.312 1712.52C960.499 1710.03 962.469 1703.83 960.767 1699.98 959.066 1696.14 956.586 1699.03 951.105 1689.44" stroke="#FFC000" stroke-width="10.3125" stroke-linecap="round" stroke-linejoin="miter" stroke-miterlimit="8" stroke-opacity="1" fill="none" fill-rule="evenodd"/><path d="M952.547 1678.02C951.734 1675.53 953.703 1669.33 952.002 1665.49 950.3 1661.64 947.82 1664.53 942.339 1654.95" stroke="#FFC000" stroke-width="10.3125" stroke-linecap="round" stroke-linejoin="miter" stroke-miterlimit="8" stroke-opacity="1" fill="none" fill-rule="evenodd"/><path d="M916.449 1745.41C911.644 1745.45 909.17 1744.34 905.382 1741.38 901.594 1738.42 891.83 1735.89 893.721 1727.64" stroke="#FFC000" stroke-width="10.3125" stroke-linecap="round" stroke-linejoin="miter" stroke-miterlimit="8" stroke-opacity="1" fill="none" fill-rule="evenodd"/><path d="M943.096 1745.56C944.743 1741.16 947.686 1738.22 950.793 1737.17 953.899 1736.11 957.17 1736.93 961.736 1739.21" stroke="#FFC000" stroke-width="10.3125" stroke-linecap="round" stroke-linejoin="miter" stroke-miterlimit="8" stroke-opacity="1" fill="none" fill-rule="evenodd"/><path d="M1229.49 1713.61C1226.07 1716.79 1223.74 1718.14 1219.56 1719.88 1215.38 1721.62 1207.13 1727.42 1204.41 1724.05" stroke="#70AD47" stroke-width="10.3125" stroke-linecap="round" stroke-linejoin="miter" stroke-miterlimit="8" stroke-opacity="1" fill="none" fill-rule="evenodd"/><path d="M1219.6 1689.28C1220.93 1691.73 1221.13 1693.3 1220.87 1696.04 1220.62 1698.79 1222.19 1704.48 1218.09 1705.77" stroke="#70AD47" stroke-width="10.3125" stroke-linecap="round" stroke-linejoin="miter" stroke-miterlimit="8" stroke-opacity="1" fill="none" fill-rule="evenodd"/><path d="M1213.65 1659.07C1214.98 1661.33 1214.41 1667.81 1216.9 1671.19 1219.4 1674.58 1221.19 1671.22 1228.62 1679.38" stroke="#70AD47" stroke-width="10.3125" stroke-linecap="round" stroke-linejoin="miter" stroke-miterlimit="8" stroke-opacity="1" fill="none" fill-rule="evenodd"/><path d="M1231.27 1660.47C1230.46 1657.98 1232.43 1651.78 1230.73 1647.94 1229.03 1644.09 1226.55 1646.98 1221.06 1637.4" stroke="#70AD47" stroke-width="10.3125" stroke-linecap="round" stroke-linejoin="miter" stroke-miterlimit="8" stroke-opacity="1" fill="none" fill-rule="evenodd"/><path d="M1227.79 1742.8C1229.44 1738.4 1232.38 1735.46 1235.48 1734.4 1238.59 1733.35 1241.86 1734.16 1246.43 1736.44" stroke="#70AD47" stroke-width="10.3125" stroke-linecap="round" stroke-linejoin="miter" stroke-miterlimit="8" stroke-opacity="1" fill="none" fill-rule="evenodd"/><path d="M0 0.226128C4.21113-0.475727 7.8608 0.506938 10.1068 2.4721 12.3527 4.43726 13.195 7.38501 13.4757 12.0174" stroke="#70AD47" stroke-width="10.3125" stroke-linecap="round" stroke-linejoin="miter" stroke-miterlimit="8" stroke-opacity="1" fill="none" fill-rule="evenodd" transform="matrix(0.5 -0.866025 -0.866025 -0.5 1222.97 1625)"/><path d="M1234.63 1702C1235.27 1706.53 1235.06 1709.15 1234.12 1713.49 1233.18 1717.82 1233.22 1727.7 1229 1728" stroke="#70AD47" stroke-width="10.3125" stroke-linecap="round" stroke-linejoin="miter" stroke-miterlimit="8" stroke-opacity="1" fill="none" fill-rule="evenodd"/><path d="M1112.84 1738.29C1113.73 1739.93 1113.86 1740.99 1113.69 1742.83 1113.52 1744.67 1114.57 1748.49 1111.82 1749.35" stroke="#4472C4" stroke-width="10.3125" stroke-linecap="round" stroke-linejoin="miter" stroke-miterlimit="8" stroke-opacity="1" fill="none" fill-rule="evenodd"/><path d="M1108.89 1721.53C1110.46 1722.33 1112.46 1726.2 1115.09 1727.21 1117.72 1728.23 1117.53 1725.69 1124.67 1727.63" stroke="#4472C4" stroke-width="10.3125" stroke-linecap="round" stroke-linejoin="miter" stroke-miterlimit="8" stroke-opacity="1" fill="none" fill-rule="evenodd"/><path d="M1130.54 1752.03C1130 1750.35 1131.32 1746.2 1130.18 1743.62 1129.04 1741.04 1127.37 1742.98 1123.7 1736.55" stroke="#4472C4" stroke-width="10.3125" stroke-linecap="round" stroke-linejoin="miter" stroke-miterlimit="8" stroke-opacity="1" fill="none" fill-rule="evenodd"/><path d="M1121.93 1717.44C1121.39 1715.77 1122.71 1711.61 1121.57 1709.03 1120.43 1706.45 1118.76 1708.39 1115.09 1701.97" stroke="#4472C4" stroke-width="10.3125" stroke-linecap="round" stroke-linejoin="miter" stroke-miterlimit="8" stroke-opacity="1" fill="none" fill-rule="evenodd"/><path d="M1034.62 1749.28C1034.25 1746.58 1037.11 1739.24 1036.1 1735.15 1035.1 1731.06 1032.28 1734.73 1028.61 1724.74" stroke="#E7E6E6" stroke-width="10.3125" stroke-linecap="round" stroke-linejoin="miter" stroke-miterlimit="8" stroke-opacity="1" fill="none" fill-rule="evenodd"/><path d="M1020.88 1745.54C1022.15 1741.94 1024.63 1739.61 1027.33 1738.86 1030.03 1738.11 1032.96 1738.93 1037.1 1741.03" stroke="#E7E6E6" stroke-width="10.3125" stroke-linecap="round" stroke-linejoin="miter" stroke-miterlimit="8" stroke-opacity="1" fill="none" fill-rule="evenodd"/><path d="M0 0.797488C2.09603-0.592991 3.30709-0.129498 5.31 1.9098 7.31291 3.94911 11.8776 3.85627 12.0174 13.0336" stroke="#5B9BD5" stroke-width="10.3125" stroke-linecap="round" stroke-linejoin="miter" stroke-miterlimit="8" stroke-opacity="1" fill="none" fill-rule="evenodd" transform="matrix(-0.820962 0.570983 0.570983 0.820962 811.066 1731.97)"/><path d="M1395.5 1515.5 1465.43 1519.74" stroke="#7F7F7F" stroke-width="6.875" stroke-linecap="butt" stroke-linejoin="miter" stroke-miterlimit="8" stroke-opacity="1" fill="none" fill-rule="evenodd"/><path d="M0 0 69.9326 4.23615" stroke="#7F7F7F" stroke-width="6.875" stroke-linecap="butt" stroke-linejoin="miter" stroke-miterlimit="8" stroke-opacity="1" fill="none" fill-rule="evenodd" transform="matrix(1 0 0 -1 1395.5 1546.74)"/><path d="M746 1524.84 1469.7 1524.84 1469.7 1535.16 746 1535.16ZM1464.54 1514.53 1495.48 1530 1464.54 1545.47Z" fill="#4472C4" fill-rule="nonzero" fill-opacity="1"/><path d="M0 35.0001C-5.46174e-14 15.6701 96.0349-4.45598e-15 214.5-4.45598e-15 332.965-8.91195e-15 429 15.6701 429 35.0001 429 54.3301 332.965 70.0001 214.5 70.0001 96.0349 70.0001-1.09235e-13 54.3301 0 35.0001Z" stroke="#787878" stroke-width="4.58333" stroke-linecap="butt" stroke-linejoin="miter" stroke-miterlimit="8" stroke-opacity="1" fill="#A5A5A5" fill-rule="evenodd" fill-opacity="1" transform="matrix(-1.83697e-16 -1 -1 1.83697e-16 1306.5 1178.5)"/><rect x="0" y="0" width="13.0001" height="342" stroke="#787878" stroke-width="4.58333" stroke-linecap="butt" stroke-linejoin="miter" stroke-miterlimit="8" stroke-opacity="1" fill="#A5A5A5" fill-opacity="1" transform="matrix(-1 1.22465e-16 1.22465e-16 1 1613.5 1078.5)"/><rect x="0" y="0" width="12" height="342" stroke="#787878" stroke-width="4.58333" stroke-linecap="butt" stroke-linejoin="miter" stroke-miterlimit="8" stroke-opacity="1" fill="#A5A5A5" fill-opacity="1" transform="matrix(-1 1.22465e-16 1.22465e-16 1 1546.5 1078.5)"/><path d="M0 45C-1.14582e-14 20.1472 20.1472-5.7291e-15 45-5.7291e-15 69.8529-1.14582e-14 90.0001 20.1472 90.0001 45 90.0001 69.8529 69.8529 90.0001 45 90.0001 20.1472 90.0001-2.29164e-14 69.8529 0 45Z" stroke="#787878" stroke-width="4.58333" stroke-linecap="butt" stroke-linejoin="miter" stroke-miterlimit="8" stroke-opacity="1" fill="#A5A5A5" fill-rule="evenodd" fill-opacity="1" transform="matrix(-1.83697e-16 -1 -1 1.83697e-16 1506.5 1295.5)"/><path d="M0 44.9999C-1.14582e-14 20.1471 20.1472-5.72908e-15 45-5.72908e-15 69.8529-1.14582e-14 90.0001 20.1471 90.0001 44.9999 90.0001 69.8526 69.8529 89.9997 45 89.9997 20.1472 89.9997-2.29164e-14 69.8526 0 44.9999Z" stroke="#787878" stroke-width="4.58333" stroke-linecap="butt" stroke-linejoin="miter" stroke-miterlimit="8" stroke-opacity="1" fill="#A5A5A5" fill-rule="evenodd" fill-opacity="1" transform="matrix(-1.83697e-16 -1 -1 1.83697e-16 1717.5 1295.5)"/><path d="M156.239 1.28553C253.596-10.4928 342.067 58.8823 353.846 156.239 355.758 172.046 355.536 188.038 353.185 203.785" stroke="#A5A5A5" stroke-width="13.75" stroke-linecap="butt" stroke-linejoin="miter" stroke-miterlimit="8" stroke-opacity="1" fill="none" fill-rule="evenodd" transform="matrix(0.707107 -0.707107 -0.707107 -0.707107 1529.64 1126.37)"/><path d="M0 412.211C4.04626 418.825 4.16185 445.147 19.4224 443.961 34.683 442.775 31.0753 410.659 31.6304 411.663 32.1855 412.667 33.5728 174.035 32.7406 0" stroke="#4472C4" stroke-width="10.3125" stroke-linecap="round" stroke-linejoin="miter" stroke-miterlimit="8" stroke-opacity="1" fill="none" fill-rule="evenodd" transform="matrix(-1.83697e-16 -1 -1 1.83697e-16 1643 909)"/><path d="M3.68049e-06-5.15625 479.818-5.15591 479.818 5.15659-3.68049e-06 5.15625ZM474.662-15.4684 505.599 0.000360892 474.662 15.4691Z" fill="#4472C4" fill-rule="nonzero" fill-opacity="1" transform="matrix(-1.83697e-16 -1 -1 1.83697e-16 1573 1491.6)"/><path d="M783 610 782.574 610 768.998 610 14.0013 610 1.16125 610 0 610 0 0 1.16125 0 14.0013 0 782.574 0 782.574 0.0602376 782.999 0.0602376 782.999 403.401 768.998 403.401 768.998 13.9797 14.0013 13.9797 14.0013 596.02 768.998 596.02 768.998 453.536 783 453.536Z" stroke="#787878" stroke-width="4.58333" stroke-linecap="butt" stroke-linejoin="miter" stroke-miterlimit="8" stroke-opacity="1" fill="#A5A5A5" fill-rule="evenodd" fill-opacity="1" transform="matrix(6.12323e-17 1 1 -6.12323e-17 1143.5 669.5)"/><path d="M0 38.7473C2.20254 26.46 4.40507 13.716 8.25957 8.05211 12.1141 2.38817 19.2723-5.01182 23.1268 4.76322 26.9813 14.5383 27.3482 45.0509 31.3861 66.7019 35.424 88.3529 41.3894 121.515 47.3547 134.67 53.3199 147.825 60.5699 148.464 67.1775 145.632 73.7851 142.8 80.3927 130.239 87.0003 117.678" stroke="#4472C4" stroke-width="10.3125" stroke-linecap="round" stroke-linejoin="miter" stroke-miterlimit="8" stroke-opacity="1" fill="none" fill-rule="evenodd" transform="matrix(-1.83697e-16 -1 -1 1.83697e-16 1347 1050)"/><path d="M36.4484 106.992C31.5195 118.137 26.9561 129.646 21.6622 134.832 16.3683 140.018 10.4358 141.656 4.68559 138.108-1.06457 134.559-0.0607144 127.19 0.304492 120.093 0.669698 112.997 1.94746 106.901 6.87614 95.529 11.8048 84.1566 18.0113 66.1425 29.8768 51.8588 41.7423 37.5751 63.7391 18.2874 78.0689 9.82636 92.3986 1.36535 103.534-1.91003 115.856 1.09233 128.178 4.09468 146.889 18.1054 152 27.84" stroke="#4472C4" stroke-width="10.3125" stroke-linecap="round" stroke-linejoin="miter" stroke-miterlimit="8" stroke-opacity="1" fill="none" fill-rule="evenodd" transform="matrix(-1.83697e-16 -1 -1 1.83697e-16 1340 1089)"/><text fill="#595959" fill-opacity="1" font-family="Arial,Arial_MSFontService,sans-serif" font-style="normal" font-variant="normal" font-weight="400" font-stretch="normal" font-size="49" text-anchor="start" direction="ltr" writing-mode="lr-tb" unicode-bidi="normal" text-decoration="none" transform="matrix(1 0 0 1 881.528 694)">MS/MS</text><path d="M2.29167-3.11419e-06 2.292 242.657-2.29134 242.657-2.29167 3.11419e-06ZM13.7503 238.073 0.000360892 265.573-13.7497 238.073Z" fill="#7F7F7F" fill-rule="nonzero" fill-opacity="1" transform="matrix(1 0 0 -1 656.5 976.073)"/><path d="M1.84013e-06-2.29167 426.532-2.29132 426.532 2.29201-1.84013e-06 2.29167ZM421.949-13.7497 449.449 0.000360892 421.949 13.7503Z" fill="#7F7F7F" fill-rule="nonzero" fill-opacity="1" transform="matrix(1 0 0 -1 656.5 975.5)"/><text fill="#595959" fill-opacity="1" font-family="Arial,Arial_MSFontService,sans-serif" font-style="normal" font-variant="normal" font-weight="400" font-stretch="normal" font-size="34" text-anchor="start" direction="ltr" writing-mode="lr-tb" unicode-bidi="normal" text-decoration="none" transform="matrix(1 0 0 1 792.362 1017)">m/z</text><text fill="#595959" fill-opacity="1" font-family="Arial,Arial_MSFontService,sans-serif" font-style="normal" font-variant="normal" font-weight="400" font-stretch="normal" font-size="34" text-anchor="start" direction="ltr" writing-mode="lr-tb" unicode-bidi="normal" text-decoration="none" transform="matrix(-1.83697e-16 -1 1 -1.83697e-16 586.622 1031)">intensity</text><path d="M0 0 0.000360892 177.174" stroke="#4472C4" stroke-width="4.58333" stroke-linecap="butt" stroke-linejoin="miter" stroke-miterlimit="8" stroke-opacity="1" fill="none" fill-rule="evenodd" transform="matrix(1 0 0 -1 682.5 976.674)"/><path d="M705.5 902.5 705.5 976.451" stroke="#4472C4" stroke-width="4.58333" stroke-linecap="butt" stroke-linejoin="miter" stroke-miterlimit="8" stroke-opacity="1" fill="none" fill-rule="evenodd"/><path d="M764.5 902.5 764.5 976.451" stroke="#4472C4" stroke-width="4.58333" stroke-linecap="butt" stroke-linejoin="miter" stroke-miterlimit="8" stroke-opacity="1" fill="none" fill-rule="evenodd"/><path d="M898.5 902.5 898.5 976.451" stroke="#4472C4" stroke-width="4.58333" stroke-linecap="butt" stroke-linejoin="miter" stroke-miterlimit="8" stroke-opacity="1" fill="none" fill-rule="evenodd"/><path d="M743.5 828.5 743.5 977.032" stroke="#4472C4" stroke-width="4.58333" stroke-linecap="butt" stroke-linejoin="miter" stroke-miterlimit="8" stroke-opacity="1" fill="none" fill-rule="evenodd"/><path d="M881.5 828.5 881.5 977.032" stroke="#4472C4" stroke-width="4.58333" stroke-linecap="butt" stroke-linejoin="miter" stroke-miterlimit="8" stroke-opacity="1" fill="none" fill-rule="evenodd"/><path d="M988.5 828.5 988.5 977.032" stroke="#4472C4" stroke-width="4.58333" stroke-linecap="butt" stroke-linejoin="miter" stroke-miterlimit="8" stroke-opacity="1" fill="none" fill-rule="evenodd"/><path d="M1056.5 828.5 1056.5 977.032" stroke="#4472C4" stroke-width="4.58333" stroke-linecap="butt" stroke-linejoin="miter" stroke-miterlimit="8" stroke-opacity="1" fill="none" fill-rule="evenodd"/><path d="M817.5 774.5 817.5 976.325" stroke="#4472C4" stroke-width="4.58333" stroke-linecap="butt" stroke-linejoin="miter" stroke-miterlimit="8" stroke-opacity="1" fill="none" fill-rule="evenodd"/><path d="M925.5 739.5 925.5 976.76" stroke="#4472C4" stroke-width="4.58333" stroke-linecap="butt" stroke-linejoin="miter" stroke-miterlimit="8" stroke-opacity="1" fill="none" fill-rule="evenodd"/><path d="M957.5 739.5 957.5 976.76" stroke="#4472C4" stroke-width="4.58333" stroke-linecap="butt" stroke-linejoin="miter" stroke-miterlimit="8" stroke-opacity="1" fill="none" fill-rule="evenodd"/><path d="M970.5 798.5 970.5 976.648" stroke="#4472C4" stroke-width="4.58333" stroke-linecap="butt" stroke-linejoin="miter" stroke-miterlimit="8" stroke-opacity="1" fill="none" fill-rule="evenodd"/><path d="M674.5 957.5 674.5 974.206" stroke="#4472C4" stroke-width="4.58333" stroke-linecap="butt" stroke-linejoin="miter" stroke-miterlimit="8" stroke-opacity="1" fill="none" fill-rule="evenodd"/><path d="M668.5 944.5 668.5 974.83" stroke="#4472C4" stroke-width="4.58333" stroke-linecap="butt" stroke-linejoin="miter" stroke-miterlimit="8" stroke-opacity="1" fill="none" fill-rule="evenodd"/><path d="M0 0 0.000360892 30.3301" stroke="#4472C4" stroke-width="4.58333" stroke-linecap="butt" stroke-linejoin="miter" stroke-miterlimit="8" stroke-opacity="1" fill="none" fill-rule="evenodd" transform="matrix(-1 0 0 1 714.5 944.5)"/><path d="M0 0 0.000360892 16.7064" stroke="#4472C4" stroke-width="4.58333" stroke-linecap="butt" stroke-linejoin="miter" stroke-miterlimit="8" stroke-opacity="1" fill="none" fill-rule="evenodd" transform="matrix(-1 0 0 1 690.5 957.5)"/><path d="M0 0 0.000360892 16.7064" stroke="#4472C4" stroke-width="4.58333" stroke-linecap="butt" stroke-linejoin="miter" stroke-miterlimit="8" stroke-opacity="1" fill="none" fill-rule="evenodd" transform="matrix(-1 0 0 1 700.5 957.5)"/><path d="M0 0 0.000360892 16.7064" stroke="#4472C4" stroke-width="4.58333" stroke-linecap="butt" stroke-linejoin="miter" stroke-miterlimit="8" stroke-opacity="1" fill="none" fill-rule="evenodd" transform="matrix(-1 0 0 1 733.5 957.5)"/><path d="M0 0 0.000360892 16.7064" stroke="#4472C4" stroke-width="4.58333" stroke-linecap="butt" stroke-linejoin="miter" stroke-miterlimit="8" stroke-opacity="1" fill="none" fill-rule="evenodd" transform="matrix(-1 0 0 1 721.5 957.5)"/><path d="M0 0 0.000360892 30.3301" stroke="#4472C4" stroke-width="4.58333" stroke-linecap="butt" stroke-linejoin="miter" stroke-miterlimit="8" stroke-opacity="1" fill="none" fill-rule="evenodd" transform="matrix(-1 0 0 1 727.5 944.5)"/><path d="M809.5 957.5 809.5 974.206" stroke="#4472C4" stroke-width="4.58333" stroke-linecap="butt" stroke-linejoin="miter" stroke-miterlimit="8" stroke-opacity="1" fill="none" fill-rule="evenodd"/><path d="M803.5 944.5 803.5 974.83" stroke="#4472C4" stroke-width="4.58333" stroke-linecap="butt" stroke-linejoin="miter" stroke-miterlimit="8" stroke-opacity="1" fill="none" fill-rule="evenodd"/><path d="M0 0 0.000360892 30.3301" stroke="#4472C4" stroke-width="4.58333" stroke-linecap="butt" stroke-linejoin="miter" stroke-miterlimit="8" stroke-opacity="1" fill="none" fill-rule="evenodd" transform="matrix(-1 0 0 1 849.5 944.5)"/><path d="M0 0 0.000360892 16.7064" stroke="#4472C4" stroke-width="4.58333" stroke-linecap="butt" stroke-linejoin="miter" stroke-miterlimit="8" stroke-opacity="1" fill="none" fill-rule="evenodd" transform="matrix(-1 0 0 1 825.5 957.5)"/><path d="M0 0 0.000360892 16.7064" stroke="#4472C4" stroke-width="4.58333" stroke-linecap="butt" stroke-linejoin="miter" stroke-miterlimit="8" stroke-opacity="1" fill="none" fill-rule="evenodd" transform="matrix(-1 0 0 1 835.5 957.5)"/><path d="M0 0 0.000360892 16.7064" stroke="#4472C4" stroke-width="4.58333" stroke-linecap="butt" stroke-linejoin="miter" stroke-miterlimit="8" stroke-opacity="1" fill="none" fill-rule="evenodd" transform="matrix(-1 0 0 1 868.5 957.5)"/><path d="M0 0 0.000360892 16.7064" stroke="#4472C4" stroke-width="4.58333" stroke-linecap="butt" stroke-linejoin="miter" stroke-miterlimit="8" stroke-opacity="1" fill="none" fill-rule="evenodd" transform="matrix(-1 0 0 1 857.5 957.5)"/><path d="M0 0 0.000360892 30.3301" stroke="#4472C4" stroke-width="4.58333" stroke-linecap="butt" stroke-linejoin="miter" stroke-miterlimit="8" stroke-opacity="1" fill="none" fill-rule="evenodd" transform="matrix(-1 0 0 1 862.5 944.5)"/><path d="M0 0 0.000360892 16.7064" stroke="#4472C4" stroke-width="4.58333" stroke-linecap="butt" stroke-linejoin="miter" stroke-miterlimit="8" stroke-opacity="1" fill="none" fill-rule="evenodd" transform="matrix(-1 0 0 1 791.5 957.5)"/><path d="M0 0 0.000360892 30.3301" stroke="#4472C4" stroke-width="4.58333" stroke-linecap="butt" stroke-linejoin="miter" stroke-miterlimit="8" stroke-opacity="1" fill="none" fill-rule="evenodd" transform="matrix(-1 0 0 1 796.5 944.5)"/><path d="M758.5 957.5 758.501 974.206" stroke="#4472C4" stroke-width="4.58333" stroke-linecap="butt" stroke-linejoin="miter" stroke-miterlimit="8" stroke-opacity="1" fill="none" fill-rule="evenodd"/><path d="M752.5 944.5 752.5 974.83" stroke="#4472C4" stroke-width="4.58333" stroke-linecap="butt" stroke-linejoin="miter" stroke-miterlimit="8" stroke-opacity="1" fill="none" fill-rule="evenodd"/><path d="M0 0 0.000360892 16.7064" stroke="#4472C4" stroke-width="4.58333" stroke-linecap="butt" stroke-linejoin="miter" stroke-miterlimit="8" stroke-opacity="1" fill="none" fill-rule="evenodd" transform="matrix(-1 0 0 1 774.5 957.5)"/><path d="M0 0 0.000360892 16.7064" stroke="#4472C4" stroke-width="4.58333" stroke-linecap="butt" stroke-linejoin="miter" stroke-miterlimit="8" stroke-opacity="1" fill="none" fill-rule="evenodd" transform="matrix(-1 0 0 1 784.5 957.5)"/><path d="M925.5 957.5 925.5 974.206" stroke="#4472C4" stroke-width="4.58333" stroke-linecap="butt" stroke-linejoin="miter" stroke-miterlimit="8" stroke-opacity="1" fill="none" fill-rule="evenodd"/><path d="M919.5 944.5 919.5 974.83" stroke="#4472C4" stroke-width="4.58333" stroke-linecap="butt" stroke-linejoin="miter" stroke-miterlimit="8" stroke-opacity="1" fill="none" fill-rule="evenodd"/><path d="M0 0 0.000360892 30.3301" stroke="#4472C4" stroke-width="4.58333" stroke-linecap="butt" stroke-linejoin="miter" stroke-miterlimit="8" stroke-opacity="1" fill="none" fill-rule="evenodd" transform="matrix(-1 0 0 1 965.5 944.5)"/><path d="M0 0 0.000360892 16.7064" stroke="#4472C4" stroke-width="4.58333" stroke-linecap="butt" stroke-linejoin="miter" stroke-miterlimit="8" stroke-opacity="1" fill="none" fill-rule="evenodd" transform="matrix(-1 0 0 1 941.5 957.5)"/><path d="M0 0 0.000360892 16.7064" stroke="#4472C4" stroke-width="4.58333" stroke-linecap="butt" stroke-linejoin="miter" stroke-miterlimit="8" stroke-opacity="1" fill="none" fill-rule="evenodd" transform="matrix(-1 0 0 1 951.5 957.5)"/><path d="M0 0 0.000360892 16.7064" stroke="#4472C4" stroke-width="4.58333" stroke-linecap="butt" stroke-linejoin="miter" stroke-miterlimit="8" stroke-opacity="1" fill="none" fill-rule="evenodd" transform="matrix(-1 0 0 1 984.5 957.5)"/><path d="M0 0 0.000360892 16.7064" stroke="#4472C4" stroke-width="4.58333" stroke-linecap="butt" stroke-linejoin="miter" stroke-miterlimit="8" stroke-opacity="1" fill="none" fill-rule="evenodd" transform="matrix(-1 0 0 1 972.5 957.5)"/><path d="M0 0 0.000360892 30.3301" stroke="#4472C4" stroke-width="4.58333" stroke-linecap="butt" stroke-linejoin="miter" stroke-miterlimit="8" stroke-opacity="1" fill="none" fill-rule="evenodd" transform="matrix(-1 0 0 1 978.5 944.5)"/><path d="M1060.5 957.5 1060.5 974.206" stroke="#4472C4" stroke-width="4.58333" stroke-linecap="butt" stroke-linejoin="miter" stroke-miterlimit="8" stroke-opacity="1" fill="none" fill-rule="evenodd"/><path d="M1054.5 944.5 1054.5 974.83" stroke="#4472C4" stroke-width="4.58333" stroke-linecap="butt" stroke-linejoin="miter" stroke-miterlimit="8" stroke-opacity="1" fill="none" fill-rule="evenodd"/><path d="M0 0 0.000360892 16.7064" stroke="#4472C4" stroke-width="4.58333" stroke-linecap="butt" stroke-linejoin="miter" stroke-miterlimit="8" stroke-opacity="1" fill="none" fill-rule="evenodd" transform="matrix(-1 0 0 1 1042.5 957.5)"/><path d="M0 0 0.000360892 30.3301" stroke="#4472C4" stroke-width="4.58333" stroke-linecap="butt" stroke-linejoin="miter" stroke-miterlimit="8" stroke-opacity="1" fill="none" fill-rule="evenodd" transform="matrix(-1 0 0 1 1047.5 944.5)"/><path d="M1009.5 957.5 1009.5 974.206" stroke="#4472C4" stroke-width="4.58333" stroke-linecap="butt" stroke-linejoin="miter" stroke-miterlimit="8" stroke-opacity="1" fill="none" fill-rule="evenodd"/><path d="M1003.5 944.5 1003.5 974.83" stroke="#4472C4" stroke-width="4.58333" stroke-linecap="butt" stroke-linejoin="miter" stroke-miterlimit="8" stroke-opacity="1" fill="none" fill-rule="evenodd"/><path d="M0 0 0.000360892 16.7064" stroke="#4472C4" stroke-width="4.58333" stroke-linecap="butt" stroke-linejoin="miter" stroke-miterlimit="8" stroke-opacity="1" fill="none" fill-rule="evenodd" transform="matrix(-1 0 0 1 1025.5 957.5)"/><path d="M0 0 0.000360892 16.7064" stroke="#4472C4" stroke-width="4.58333" stroke-linecap="butt" stroke-linejoin="miter" stroke-miterlimit="8" stroke-opacity="1" fill="none" fill-rule="evenodd" transform="matrix(-1 0 0 1 1035.5 957.5)"/><path d="M893.5 957.5 893.5 974.206" stroke="#4472C4" stroke-width="4.58333" stroke-linecap="butt" stroke-linejoin="miter" stroke-miterlimit="8" stroke-opacity="1" fill="none" fill-rule="evenodd"/><path d="M888.5 944.5 888.5 974.83" stroke="#4472C4" stroke-width="4.58333" stroke-linecap="butt" stroke-linejoin="miter" stroke-miterlimit="8" stroke-opacity="1" fill="none" fill-rule="evenodd"/><path d="M0 0 0.000360892 16.7064" stroke="#4472C4" stroke-width="4.58333" stroke-linecap="butt" stroke-linejoin="miter" stroke-miterlimit="8" stroke-opacity="1" fill="none" fill-rule="evenodd" transform="matrix(-1 0 0 1 909.5 957.5)"/><path d="M0 0 0.000360892 16.7064" stroke="#4472C4" stroke-width="4.58333" stroke-linecap="butt" stroke-linejoin="miter" stroke-miterlimit="8" stroke-opacity="1" fill="none" fill-rule="evenodd" transform="matrix(-1 0 0 1 919.5 957.5)"/><path d="M796.5 1315.5 796.5 1410.18" stroke="#4472C4" stroke-width="6.875" stroke-linecap="butt" stroke-linejoin="miter" stroke-miterlimit="8" stroke-opacity="1" fill="none" fill-rule="evenodd"/><path d="M808.5 1337.5 808.5 1409.71" stroke="#4472C4" stroke-width="6.875" stroke-linecap="butt" stroke-linejoin="miter" stroke-miterlimit="8" stroke-opacity="1" fill="none" fill-rule="evenodd"/><path d="M821.5 1357.5 821.5 1410.12" stroke="#4472C4" stroke-width="6.875" stroke-linecap="butt" stroke-linejoin="miter" stroke-miterlimit="8" stroke-opacity="1" fill="none" fill-rule="evenodd"/><path d="M832.5 1373.5 832.5 1409.5" stroke="#4472C4" stroke-width="6.875" stroke-linecap="butt" stroke-linejoin="miter" stroke-miterlimit="8" stroke-opacity="1" fill="none" fill-rule="evenodd"/><path d="M699.5 1188.5 699.5 1409.41" stroke="#4472C4" stroke-width="6.875" stroke-linecap="butt" stroke-linejoin="miter" stroke-miterlimit="8" stroke-opacity="1" fill="none" fill-rule="evenodd"/><path d="M712.5 1241.5 712.5 1409.98" stroke="#4472C4" stroke-width="6.875" stroke-linecap="butt" stroke-linejoin="miter" stroke-miterlimit="8" stroke-opacity="1" fill="none" fill-rule="evenodd"/><path d="M724.5 1286.5 724.5 1409.27" stroke="#4472C4" stroke-width="6.875" stroke-linecap="butt" stroke-linejoin="miter" stroke-miterlimit="8" stroke-opacity="1" fill="none" fill-rule="evenodd"/><path d="M736.5 1325.5 736.501 1409.5" stroke="#4472C4" stroke-width="6.875" stroke-linecap="butt" stroke-linejoin="miter" stroke-miterlimit="8" stroke-opacity="1" fill="none" fill-rule="evenodd"/><path d="M890.5 1220.5 890.501 1409.86" stroke="#4472C4" stroke-width="6.875" stroke-linecap="butt" stroke-linejoin="miter" stroke-miterlimit="8" stroke-opacity="1" fill="none" fill-rule="evenodd"/><path d="M902.5 1265.5 902.5 1409.91" stroke="#4472C4" stroke-width="6.875" stroke-linecap="butt" stroke-linejoin="miter" stroke-miterlimit="8" stroke-opacity="1" fill="none" fill-rule="evenodd"/><path d="M915.5 1304.5 915.5 1409.73" stroke="#4472C4" stroke-width="6.875" stroke-linecap="butt" stroke-linejoin="miter" stroke-miterlimit="8" stroke-opacity="1" fill="none" fill-rule="evenodd"/><path d="M926.5 1337.5 926.5 1409.5" stroke="#4472C4" stroke-width="6.875" stroke-linecap="butt" stroke-linejoin="miter" stroke-miterlimit="8" stroke-opacity="1" fill="none" fill-rule="evenodd"/><path d="M2.29167-3.11418e-06 2.292 242.658-2.29134 242.658-2.29167 3.11418e-06ZM13.7503 238.074 0.000360892 265.574-13.7497 238.074Z" fill="#7F7F7F" fill-rule="nonzero" fill-opacity="1" transform="matrix(1 0 0 -1 650.5 1412.07)"/><path d="M1.84014e-06-2.29167 426.531-2.29132 426.531 2.29201-1.84014e-06 2.29167ZM421.948-13.7497 449.448 0.000360892 421.948 13.7503Z" fill="#7F7F7F" fill-rule="nonzero" fill-opacity="1" transform="matrix(1 0 0 -1 650.5 1412.5)"/><text fill="#595959" fill-opacity="1" font-family="Arial,Arial_MSFontService,sans-serif" font-style="normal" font-variant="normal" font-weight="400" font-stretch="normal" font-size="34" text-anchor="start" direction="ltr" writing-mode="lr-tb" unicode-bidi="normal" text-decoration="none" transform="matrix(1 0 0 1 799.597 1456)">m/z</text><text fill="#595959" fill-opacity="1" font-family="Arial,Arial_MSFontService,sans-serif" font-style="normal" font-variant="normal" font-weight="400" font-stretch="normal" font-size="34" text-anchor="start" direction="ltr" writing-mode="lr-tb" unicode-bidi="normal" text-decoration="none" transform="matrix(-1.83697e-16 -1 1 -1.83697e-16 580.535 1468)">intensity</text><path d="M972.5 1188.5 972.5 1409.41" stroke="#4472C4" stroke-width="6.875" stroke-linecap="butt" stroke-linejoin="miter" stroke-miterlimit="8" stroke-opacity="1" fill="none" fill-rule="evenodd"/><path d="M984.5 1241.5 984.5 1409.98" stroke="#4472C4" stroke-width="6.875" stroke-linecap="butt" stroke-linejoin="miter" stroke-miterlimit="8" stroke-opacity="1" fill="none" fill-rule="evenodd"/><path d="M997.5 1286.5 997.5 1409.27" stroke="#4472C4" stroke-width="6.875" stroke-linecap="butt" stroke-linejoin="miter" stroke-miterlimit="8" stroke-opacity="1" fill="none" fill-rule="evenodd"/><path d="M1008.5 1325.5 1008.5 1409.5" stroke="#4472C4" stroke-width="6.875" stroke-linecap="butt" stroke-linejoin="miter" stroke-miterlimit="8" stroke-opacity="1" fill="none" fill-rule="evenodd"/><rect x="963.5" y="1158.5" width="69.0001" height="247" stroke="#A5A5A5" stroke-width="4.58333" stroke-linecap="butt" stroke-linejoin="miter" stroke-miterlimit="8" stroke-dasharray="4.58333 4.58333" stroke-opacity="1" fill="none"/><path d="M70.0658-3.42369 76.9132-2.80815 76.2976 4.03924 69.4502 3.42369ZM84.15-0.948518 84.9906-0.720128 90.9635 2.01395 88.102 8.26515 82.386 5.64865 82.9155 5.84029 82.3475 5.68596ZM97.2456 5.87442 98.9772 7.00266 102.97 10.4273 98.4949 15.646 94.6733 12.3686 95.0345 12.6393 93.4924 11.6346ZM108.165 15.5012 111.404 19.0044 112.878 20.9671 107.381 25.0962 106.012 23.2738 106.237 23.5429 103.117 20.1686ZM117.167 26.7322 120.781 32.5804 114.933 36.1949 111.319 30.3467ZM124.211 38.8544 126.707 43.7436 127.342 45.2568 121.004 47.9193 120.418 46.5239 120.525 46.7557 118.087 41.9805ZM130.005 51.5953 130.818 53.5309 132.437 58.2745 125.93 60.4949 124.349 55.8632 124.433 56.0843 123.666 54.2578ZM134.663 65.0113 136.459 71.6477 129.823 73.4434 128.027 66.8071ZM138.097 78.5388 139.481 85.2729 132.747 86.6574 131.363 79.9233ZM140.576 92.2647 141.516 98.7665 141.559 99.2695 134.709 99.8568 134.674 99.4529 134.697 99.6507 133.772 93.2475ZM142.146 106.119 142.589 111.294 142.643 113.171 135.77 113.366 135.72 111.587 135.731 111.784 135.296 106.707ZM142.838 120.043 142.957 124.243 142.776 127.218 135.913 126.8 136.085 123.979 136.08 124.285 135.965 120.238ZM153.214 125.798 137.7 152.343 125.773 124.004Z" fill="#FFC000" fill-rule="nonzero" fill-opacity="1" transform="matrix(0.823882 -0.566762 -0.566762 -0.823882 994.61 1202.4)"/><text fill="#595959" fill-opacity="1" font-family="Arial,Arial_MSFontService,sans-serif" font-style="normal" font-variant="normal" font-weight="400" font-stretch="normal" font-size="49" text-anchor="start" direction="ltr" writing-mode="lr-tb" unicode-bidi="normal" text-decoration="none" transform="matrix(1 0 0 1 882.319 1119)">full MS</text><path d="M1601.5 1514C1601.5 1505.99 1607.99 1499.5 1616 1499.5 1624.01 1499.5 1630.5 1505.99 1630.5 1514 1630.5 1522.01 1624.01 1528.5 1616 1528.5 1607.99 1528.5 1601.5 1522.01 1601.5 1514Z" stroke="#2F528F" stroke-width="4.58333" stroke-linecap="butt" stroke-linejoin="miter" stroke-miterlimit="8" stroke-opacity="1" fill="#4472C4" fill-rule="evenodd" fill-opacity="1"/><path d="M1553.5 1550C1553.5 1541.99 1559.77 1535.5 1567.5 1535.5 1575.23 1535.5 1581.5 1541.99 1581.5 1550 1581.5 1558.01 1575.23 1564.5 1567.5 1564.5 1559.77 1564.5 1553.5 1558.01 1553.5 1550Z" stroke="#2F528F" stroke-width="4.58333" stroke-linecap="butt" stroke-linejoin="miter" stroke-miterlimit="8" stroke-opacity="1" fill="#4472C4" fill-rule="evenodd" fill-opacity="1"/><path d="M1527.5 1551C1527.5 1546.86 1530.63 1543.5 1534.5 1543.5 1538.37 1543.5 1541.5 1546.86 1541.5 1551 1541.5 1555.14 1538.37 1558.5 1534.5 1558.5 1530.63 1558.5 1527.5 1555.14 1527.5 1551Z" stroke="#2F528F" stroke-width="4.58333" stroke-linecap="butt" stroke-linejoin="miter" stroke-miterlimit="8" stroke-opacity="1" fill="#4472C4" fill-rule="evenodd" fill-opacity="1"/><path d="M1566.5 1515.5C1566.5 1511.63 1569.63 1508.5 1573.5 1508.5 1577.37 1508.5 1580.5 1511.63 1580.5 1515.5 1580.5 1519.37 1577.37 1522.5 1573.5 1522.5 1569.63 1522.5 1566.5 1519.37 1566.5 1515.5Z" stroke="#2F528F" stroke-width="4.58333" stroke-linecap="butt" stroke-linejoin="miter" stroke-miterlimit="8" stroke-opacity="1" fill="#4472C4" fill-rule="evenodd" fill-opacity="1"/><path d="M1521.5 1511.5C1521.5 1503.77 1527.77 1497.5 1535.5 1497.5 1543.23 1497.5 1549.5 1503.77 1549.5 1511.5 1549.5 1519.23 1543.23 1525.5 1535.5 1525.5 1527.77 1525.5 1521.5 1519.23 1521.5 1511.5Z" stroke="#2F528F" stroke-width="4.58333" stroke-linecap="butt" stroke-linejoin="miter" stroke-miterlimit="8" stroke-opacity="1" fill="#4472C4" fill-rule="evenodd" fill-opacity="1"/><text fill="#595959" fill-opacity="1" font-family="Calibri,Calibri_MSFontService,sans-serif" font-style="normal" font-variant="normal" font-weight="400" font-stretch="normal" font-size="83" text-anchor="start" direction="ltr" writing-mode="lr-tb" unicode-bidi="normal" text-decoration="none" transform="matrix(1 0 0 1 920.546 1887)">MS Measurement</text><text fill="#595959" fill-opacity="1" font-family="Arial,Arial_MSFontService,sans-serif" font-style="normal" font-variant="normal" font-weight="400" font-stretch="normal" font-size="128" text-anchor="start" direction="ltr" writing-mode="lr-tb" unicode-bidi="normal" text-decoration="none" transform="matrix(1 0 0 1 2046.03 695)">•</text><text fill="#595959" fill-opacity="1" font-family="Calibri,Calibri_MSFontService,sans-serif" font-style="normal" font-variant="normal" font-weight="400" font-stretch="normal" font-size="128" text-anchor="start" direction="ltr" writing-mode="lr-tb" unicode-bidi="normal" text-decoration="none" transform="matrix(1 0 0 1 2157.75 695)">Component</text><text fill="#595959" fill-opacity="1" font-family="Calibri,Calibri_MSFontService,sans-serif" font-style="normal" font-variant="normal" font-weight="400" font-stretch="normal" font-size="128" text-anchor="start" direction="ltr" writing-mode="lr-tb" unicode-bidi="normal" text-decoration="none" transform="matrix(1 0 0 1 2801.09 695)">[]</text><text fill="#595959" fill-opacity="1" font-family="Calibri,Calibri_MSFontService,sans-serif" font-style="normal" font-variant="normal" font-weight="400" font-stretch="normal" font-size="110" text-anchor="start" direction="ltr" writing-mode="lr-tb" unicode-bidi="normal" text-decoration="none" transform="matrix(1 0 0 1 2211.03 841)">chromatography instrument model</text><text fill="#595959" fill-opacity="1" font-family="Calibri,Calibri_MSFontService,sans-serif" font-style="normal" font-variant="normal" font-weight="400" font-stretch="normal" font-size="110" text-anchor="start" direction="ltr" writing-mode="lr-tb" unicode-bidi="normal" text-decoration="none" transform="matrix(1 0 0 1 2284.94 983)">nanoElute2</text><text fill="#595959" fill-opacity="1" font-family="Calibri,Calibri_MSFontService,sans-serif" font-style="normal" font-variant="normal" font-weight="400" font-stretch="normal" font-size="110" text-anchor="start" direction="ltr" writing-mode="lr-tb" unicode-bidi="normal" text-decoration="none" transform="matrix(1 0 0 1 2211.03 1125)">chromatography column model</text><text fill="#595959" fill-opacity="1" font-family="Arial,Arial_MSFontService,sans-serif" font-style="normal" font-variant="normal" font-weight="400" font-stretch="normal" font-size="110" text-anchor="start" direction="ltr" writing-mode="lr-tb" unicode-bidi="normal" text-decoration="none" transform="matrix(1 0 0 1 2211.03 1266)">•</text><text fill="#595959" fill-opacity="1" font-family="Calibri,Calibri_MSFontService,sans-serif" font-style="normal" font-variant="normal" font-weight="400" font-stretch="normal" font-size="110" text-anchor="start" direction="ltr" writing-mode="lr-tb" unicode-bidi="normal" text-decoration="none" transform="matrix(1 0 0 1 2293.53 1266)">PepSep C18 1.9u, 25cm x 75um</text><text fill="#595959" fill-opacity="1" font-family="Calibri,Calibri_MSFontService,sans-serif" font-style="normal" font-variant="normal" font-weight="400" font-stretch="normal" font-size="110" text-anchor="start" direction="ltr" writing-mode="lr-tb" unicode-bidi="normal" text-decoration="none" transform="matrix(1 0 0 1 2211.03 1408)">...</text><text fill="#595959" fill-opacity="1" font-family="Calibri,Calibri_MSFontService,sans-serif" font-style="normal" font-variant="normal" font-weight="400" font-stretch="normal" font-size="110" text-anchor="start" direction="ltr" writing-mode="lr-tb" unicode-bidi="normal" text-decoration="none" transform="matrix(1 0 0 1 2284.94 1550)">…</text><text fill="#595959" fill-opacity="1" font-family="Calibri,Calibri_MSFontService,sans-serif" font-style="normal" font-variant="normal" font-weight="400" font-stretch="normal" font-size="110" text-anchor="start" direction="ltr" writing-mode="lr-tb" unicode-bidi="normal" text-decoration="none" transform="matrix(1 0 0 1 2211.03 1692)">…</text><text fill="#595959" fill-opacity="1" font-family="Arial,Arial_MSFontService,sans-serif" font-style="normal" font-variant="normal" font-weight="400" font-stretch="normal" font-size="110" text-anchor="start" direction="ltr" writing-mode="lr-tb" unicode-bidi="normal" text-decoration="none" transform="matrix(1 0 0 1 2211.03 1833)">•</text><text fill="#595959" fill-opacity="1" font-family="Calibri,Calibri_MSFontService,sans-serif" font-style="normal" font-variant="normal" font-weight="400" font-stretch="normal" font-size="110" text-anchor="start" direction="ltr" writing-mode="lr-tb" unicode-bidi="normal" text-decoration="none" transform="matrix(1 0 0 1 2293.53 1833)">…</text><rect x="2188.5" y="916.5" width="77" height="77" stroke="#0D141D" stroke-width="4.58333" stroke-linecap="butt" stroke-linejoin="miter" stroke-miterlimit="8" stroke-opacity="1" fill="#2D3E50" fill-opacity="1"/><rect x="2188.5" y="1201.5" width="77" height="77" stroke="#0D141D" stroke-width="4.58333" stroke-linecap="butt" stroke-linejoin="miter" stroke-miterlimit="8" stroke-opacity="1" fill="#2D3E50" fill-opacity="1"/><rect x="2188.5" y="1485.5" width="77" height="77" stroke="#0D141D" stroke-width="4.58333" stroke-linecap="butt" stroke-linejoin="miter" stroke-miterlimit="8" stroke-opacity="1" fill="#2D3E50" fill-opacity="1"/><rect x="2073" y="755" width="115" height="115" fill="#FFC000" fill-opacity="0.501961"/><rect x="2073" y="1044" width="115" height="116" fill="#FFC000" fill-opacity="0.501961"/><rect x="2073" y="1343" width="115" height="115" fill="#FFC000" fill-opacity="0.501961"/><rect x="2073" y="1608" width="115" height="115" fill="#FFC000" fill-opacity="0.501961"/><rect x="2187.5" y="1764.5" width="77" height="77" stroke="#0D141D" stroke-width="4.58333" stroke-linecap="butt" stroke-linejoin="miter" stroke-miterlimit="8" stroke-opacity="1" fill="#2D3E50" fill-opacity="1"/></g></g></svg>