<svg width="4061" height="1137" xmlns="http://www.w3.org/2000/svg" xmlns:xlink="http://www.w3.org/1999/xlink" xml:space="preserve" overflow="hidden"><g transform="translate(-174 -687)"><g><rect x="179.5" y="690.5" width="4050" height="1118" stroke="#148E7A" stroke-width="4.58333" stroke-linecap="butt" stroke-linejoin="miter" stroke-miterlimit="8" stroke-opacity="1" fill="#9DEFE2" fill-opacity="1"/><path d="M2246.5 788.333C2246.5 779.589 2253.59 772.5 2262.33 772.5L2820.67 772.5C2829.41 772.5 2836.5 779.589 2836.5 788.333L2836.5 851.667C2836.5 860.411 2829.41 867.5 2820.67 867.5L2262.33 867.5C2253.59 867.5 2246.5 860.411 2246.5 851.667Z" stroke="#0684A2" stroke-width="4.58333" stroke-linecap="butt" stroke-linejoin="miter" stroke-miterlimit="8" stroke-opacity="1" fill="#0BB5DD" fill-rule="evenodd" fill-opacity="1"/><rect x="179.5" y="1683.5" width="254" height="125" stroke="#148E7A" stroke-width="4.58333" stroke-linecap="butt" stroke-linejoin="miter" stroke-miterlimit="8" stroke-opacity="1" fill="#1FC2A7" fill-opacity="1"/><text fill="#FFFFFF" fill-opacity="1" font-family="Calibri,Calibri_MSFontService,sans-serif" font-style="normal" font-variant="normal" font-weight="400" font-stretch="normal" font-size="64" text-anchor="start" direction="ltr" writing-mode="lr-tb" unicode-bidi="normal" text-decoration="none" transform="matrix(1 0 0 1 287.197 1767)">A</text><rect x="433.5" y="1683.5" width="253" height="125" stroke="#148E7A" stroke-width="4.58333" stroke-linecap="butt" stroke-linejoin="miter" stroke-miterlimit="8" stroke-opacity="1" fill="#6CE7D3" fill-opacity="1"/><text fill="#106153" fill-opacity="1" font-family="Calibri,Calibri_MSFontService,sans-serif" font-style="normal" font-variant="normal" font-weight="400" font-stretch="normal" font-size="64" text-anchor="start" direction="ltr" writing-mode="lr-tb" unicode-bidi="normal" text-decoration="none" transform="matrix(1 0 0 1 541.719 1767)">B</text><rect x="686.5" y="1683.5" width="253" height="125" stroke="#148E7A" stroke-width="4.58333" stroke-linecap="butt" stroke-linejoin="miter" stroke-miterlimit="8" stroke-opacity="1" fill="#6CE7D3" fill-opacity="1"/><text fill="#106153" fill-opacity="1" font-family="Calibri,Calibri_MSFontService,sans-serif" font-style="normal" font-variant="normal" font-weight="400" font-stretch="normal" font-size="64" text-anchor="start" direction="ltr" writing-mode="lr-tb" unicode-bidi="normal" text-decoration="none" transform="matrix(1 0 0 1 795.381 1767)">C</text><path d="M243.5 788.333C243.5 779.589 250.589 772.5 259.333 772.5L825.666 772.5C834.411 772.5 841.5 779.589 841.5 788.333L841.5 851.667C841.5 860.411 834.411 867.5 825.666 867.5L259.333 867.5C250.589 867.5 243.5 860.411 243.5 851.667Z" stroke="#0684A2" stroke-width="4.58333" stroke-linecap="butt" stroke-linejoin="miter" stroke-miterlimit="8" stroke-opacity="1" fill="#0BB5DD" fill-rule="evenodd" fill-opacity="1"/><path d="M243.5 919.333C243.5 910.589 250.589 903.5 259.333 903.5L825.666 903.5C834.411 903.5 841.5 910.589 841.5 919.333L841.5 982.667C841.5 991.411 834.411 998.5 825.666 998.5L259.333 998.5C250.589 998.5 243.5 991.411 243.5 982.667Z" stroke="#148E7A" stroke-width="4.58333" stroke-linecap="butt" stroke-linejoin="miter" stroke-miterlimit="8" stroke-opacity="1" fill="#1FC2A7" fill-rule="evenodd" fill-opacity="1"/><path d="M243.5 1050.5C243.5 1041.66 250.663 1034.5 259.5 1034.5L825.5 1034.5C834.336 1034.5 841.5 1041.66 841.5 1050.5L841.5 1114.5C841.5 1123.34 834.336 1130.5 825.5 1130.5L259.5 1130.5C250.663 1130.5 243.5 1123.34 243.5 1114.5Z" stroke="#148E7A" stroke-width="4.58333" stroke-linecap="butt" stroke-linejoin="miter" stroke-miterlimit="8" stroke-opacity="1" fill="#1FC2A7" fill-rule="evenodd" fill-opacity="1"/><rect x="939.5" y="1683.5" width="254" height="125" stroke="#148E7A" stroke-width="4.58333" stroke-linecap="butt" stroke-linejoin="miter" stroke-miterlimit="8" stroke-opacity="1" fill="#6CE7D3" fill-opacity="1"/><text fill="#106153" fill-opacity="1" font-family="Calibri,Calibri_MSFontService,sans-serif" font-style="normal" font-variant="normal" font-weight="400" font-stretch="normal" font-size="64" text-anchor="start" direction="ltr" writing-mode="lr-tb" unicode-bidi="normal" text-decoration="none" transform="matrix(1 0 0 1 1046.18 1767)">D</text><path d="M243.5 1179.5C243.5 1170.66 250.663 1163.5 259.5 1163.5L825.5 1163.5C834.336 1163.5 841.5 1170.66 841.5 1179.5L841.5 1243.5C841.5 1252.34 834.336 1259.5 825.5 1259.5L259.5 1259.5C250.663 1259.5 243.5 1252.34 243.5 1243.5Z" stroke="#148E7A" stroke-width="4.58333" stroke-linecap="butt" stroke-linejoin="miter" stroke-miterlimit="8" stroke-opacity="1" fill="#1FC2A7" fill-rule="evenodd" fill-opacity="1"/><path d="M243.5 1311.5C243.5 1302.66 250.663 1295.5 259.5 1295.5L825.5 1295.5C834.336 1295.5 841.5 1302.66 841.5 1311.5L841.5 1375.5C841.5 1384.34 834.336 1391.5 825.5 1391.5L259.5 1391.5C250.663 1391.5 243.5 1384.34 243.5 1375.5Z" stroke="#148E7A" stroke-width="4.58333" stroke-linecap="butt" stroke-linejoin="miter" stroke-miterlimit="8" stroke-opacity="1" fill="#1FC2A7" fill-rule="evenodd" fill-opacity="1"/><path d="M243.5 1437.5C243.5 1428.66 250.663 1421.5 259.5 1421.5L825.5 1421.5C834.336 1421.5 841.5 1428.66 841.5 1437.5L841.5 1501.5C841.5 1510.34 834.336 1517.5 825.5 1517.5L259.5 1517.5C250.663 1517.5 243.5 1510.34 243.5 1501.5Z" stroke="#148E7A" stroke-width="4.58333" stroke-linecap="butt" stroke-linejoin="miter" stroke-miterlimit="8" stroke-opacity="1" fill="#1FC2A7" fill-rule="evenodd" fill-opacity="1"/><path d="M877.5 788.334C877.5 779.589 884.589 772.5 893.334 772.5L1619.67 772.5C1628.41 772.5 1635.5 779.589 1635.5 788.334L1635.5 851.666C1635.5 860.411 1628.41 867.5 1619.67 867.5L893.334 867.5C884.589 867.5 877.5 860.411 877.5 851.666Z" stroke="#0684A2" stroke-width="4.58333" stroke-linecap="butt" stroke-linejoin="miter" stroke-miterlimit="8" stroke-opacity="1" fill="#0BB5DD" fill-rule="evenodd" fill-opacity="1"/><path d="M877.5 919.334C877.5 910.589 884.589 903.5 893.334 903.5L1619.67 903.5C1628.41 903.5 1635.5 910.589 1635.5 919.334L1635.5 982.666C1635.5 991.411 1628.41 998.5 1619.67 998.5L893.334 998.5C884.589 998.5 877.5 991.411 877.5 982.666Z" stroke="#148E7A" stroke-width="4.58333" stroke-linecap="butt" stroke-linejoin="miter" stroke-miterlimit="8" stroke-opacity="1" fill="#1FC2A7" fill-rule="evenodd" fill-opacity="1"/><path d="M877.5 1051.17C877.5 1042.51 884.515 1035.5 893.167 1035.5L1619.83 1035.5C1628.49 1035.5 1635.5 1042.51 1635.5 1051.17L1635.5 1113.83C1635.5 1122.49 1628.49 1129.5 1619.83 1129.5L893.167 1129.5C884.515 1129.5 877.5 1122.49 877.5 1113.83Z" stroke="#148E7A" stroke-width="4.58333" stroke-linecap="butt" stroke-linejoin="miter" stroke-miterlimit="8" stroke-opacity="1" fill="#1FC2A7" fill-rule="evenodd" fill-opacity="1"/><path d="M877.5 1180.17C877.5 1171.51 884.515 1164.5 893.167 1164.5L1619.83 1164.5C1628.49 1164.5 1635.5 1171.51 1635.5 1180.17L1635.5 1242.83C1635.5 1251.49 1628.49 1258.5 1619.83 1258.5L893.167 1258.5C884.515 1258.5 877.5 1251.49 877.5 1242.83Z" stroke="#148E7A" stroke-width="4.58333" stroke-linecap="butt" stroke-linejoin="miter" stroke-miterlimit="8" stroke-opacity="1" fill="#1FC2A7" fill-rule="evenodd" fill-opacity="1"/><path d="M877.5 1312.17C877.5 1303.51 884.515 1296.5 893.167 1296.5L1619.83 1296.5C1628.49 1296.5 1635.5 1303.51 1635.5 1312.17L1635.5 1374.83C1635.5 1383.49 1628.49 1390.5 1619.83 1390.5L893.167 1390.5C884.515 1390.5 877.5 1383.49 877.5 1374.83Z" stroke="#148E7A" stroke-width="4.58333" stroke-linecap="butt" stroke-linejoin="miter" stroke-miterlimit="8" stroke-opacity="1" fill="#1FC2A7" fill-rule="evenodd" fill-opacity="1"/><path d="M877.5 1438.17C877.5 1429.51 884.515 1422.5 893.167 1422.5L1619.83 1422.5C1628.49 1422.5 1635.5 1429.51 1635.5 1438.17L1635.5 1500.83C1635.5 1509.49 1628.49 1516.5 1619.83 1516.5L893.167 1516.5C884.515 1516.5 877.5 1509.49 877.5 1500.83Z" stroke="#148E7A" stroke-width="4.58333" stroke-linecap="butt" stroke-linejoin="miter" stroke-miterlimit="8" stroke-opacity="1" fill="#1FC2A7" fill-rule="evenodd" fill-opacity="1"/><text fill="#595959" fill-opacity="1" font-family="Calibri,Calibri_MSFontService,sans-serif" font-style="normal" font-variant="normal" font-weight="400" font-stretch="normal" font-size="64" text-anchor="start" direction="ltr" writing-mode="lr-tb" unicode-bidi="normal" text-decoration="none" transform="matrix(1 0 0 1 280.973 840)">Input[Source Name]</text><text fill="#595959" fill-opacity="1" font-family="Calibri,Calibri_MSFontService,sans-serif" font-style="normal" font-variant="normal" font-weight="400" font-stretch="normal" font-size="64" text-anchor="start" direction="ltr" writing-mode="lr-tb" unicode-bidi="normal" text-decoration="none" transform="matrix(1 0 0 1 407.383 972)">leaf_nrm</text><text fill="#595959" fill-opacity="1" font-family="Calibri,Calibri_MSFontService,sans-serif" font-style="normal" font-variant="normal" font-weight="400" font-stretch="normal" font-size="64" text-anchor="start" direction="ltr" writing-mode="lr-tb" unicode-bidi="normal" text-decoration="none" transform="matrix(1 0 0 1 402.601 1103)">leaf_cold</text><text fill="#595959" fill-opacity="1" font-family="Calibri,Calibri_MSFontService,sans-serif" font-style="normal" font-variant="normal" font-weight="400" font-stretch="normal" font-size="64" text-anchor="start" direction="ltr" writing-mode="lr-tb" unicode-bidi="normal" text-decoration="none" transform="matrix(1 0 0 1 910.439 840)">Parameter [</text><text fill="#595959" fill-opacity="1" font-family="Calibri,Calibri_MSFontService,sans-serif" font-style="normal" font-variant="normal" font-weight="400" font-stretch="normal" font-size="64" text-anchor="start" direction="ltr" writing-mode="lr-tb" unicode-bidi="normal" text-decoration="none" transform="matrix(1 0 0 1 1217.25 840)">temperature</text><text fill="#595959" fill-opacity="1" font-family="Calibri,Calibri_MSFontService,sans-serif" font-style="normal" font-variant="normal" font-weight="400" font-stretch="normal" font-size="64" text-anchor="start" direction="ltr" writing-mode="lr-tb" unicode-bidi="normal" text-decoration="none" transform="matrix(1 0 0 1 1547.82 840)">]</text><path d="M2247.5 919.333C2247.5 910.589 2254.59 903.5 2263.33 903.5L2820.67 903.5C2829.41 903.5 2836.5 910.589 2836.5 919.333L2836.5 982.667C2836.5 991.411 2829.41 998.5 2820.67 998.5L2263.33 998.5C2254.59 998.5 2247.5 991.411 2247.5 982.667Z" stroke="#148E7A" stroke-width="4.58333" stroke-linecap="butt" stroke-linejoin="miter" stroke-miterlimit="8" stroke-opacity="1" fill="#1FC2A7" fill-rule="evenodd" fill-opacity="1"/><path d="M2247.5 1051.17C2247.5 1042.51 2254.51 1035.5 2263.17 1035.5L2820.83 1035.5C2829.49 1035.5 2836.5 1042.51 2836.5 1051.17L2836.5 1113.83C2836.5 1122.49 2829.49 1129.5 2820.83 1129.5L2263.17 1129.5C2254.51 1129.5 2247.5 1122.49 2247.5 1113.83Z" stroke="#148E7A" stroke-width="4.58333" stroke-linecap="butt" stroke-linejoin="miter" stroke-miterlimit="8" stroke-opacity="1" fill="#1FC2A7" fill-rule="evenodd" fill-opacity="1"/><path d="M2247.5 1180.17C2247.5 1171.51 2254.51 1164.5 2263.17 1164.5L2820.83 1164.5C2829.49 1164.5 2836.5 1171.51 2836.5 1180.17L2836.5 1242.83C2836.5 1251.49 2829.49 1258.5 2820.83 1258.5L2263.17 1258.5C2254.51 1258.5 2247.5 1251.49 2247.5 1242.83Z" stroke="#148E7A" stroke-width="4.58333" stroke-linecap="butt" stroke-linejoin="miter" stroke-miterlimit="8" stroke-opacity="1" fill="#1FC2A7" fill-rule="evenodd" fill-opacity="1"/><path d="M2247.5 1312.17C2247.5 1303.51 2254.51 1296.5 2263.17 1296.5L2820.83 1296.5C2829.49 1296.5 2836.5 1303.51 2836.5 1312.17L2836.5 1374.83C2836.5 1383.49 2829.49 1390.5 2820.83 1390.5L2263.17 1390.5C2254.51 1390.5 2247.5 1383.49 2247.5 1374.83Z" stroke="#148E7A" stroke-width="4.58333" stroke-linecap="butt" stroke-linejoin="miter" stroke-miterlimit="8" stroke-opacity="1" fill="#1FC2A7" fill-rule="evenodd" fill-opacity="1"/><path d="M2247.5 1438.17C2247.5 1429.51 2254.51 1422.5 2263.17 1422.5L2820.83 1422.5C2829.49 1422.5 2836.5 1429.51 2836.5 1438.17L2836.5 1500.83C2836.5 1509.49 2829.49 1516.5 2820.83 1516.5L2263.17 1516.5C2254.51 1516.5 2247.5 1509.49 2247.5 1500.83Z" stroke="#148E7A" stroke-width="4.58333" stroke-linecap="butt" stroke-linejoin="miter" stroke-miterlimit="8" stroke-opacity="1" fill="#1FC2A7" fill-rule="evenodd" fill-opacity="1"/><text fill="#595959" fill-opacity="1" font-family="Calibri,Calibri_MSFontService,sans-serif" font-style="normal" font-variant="normal" font-weight="400" font-stretch="normal" font-size="64" text-anchor="start" direction="ltr" writing-mode="lr-tb" unicode-bidi="normal" text-decoration="none" transform="matrix(1 0 0 1 2263.14 840)">TSR(PATO:0000146)</text><path d="M1671.5 788.334C1671.5 779.589 1678.59 772.5 1687.33 772.5L2195.67 772.5C2204.41 772.5 2211.5 779.589 2211.5 788.334L2211.5 851.666C2211.5 860.411 2204.41 867.5 2195.67 867.5L1687.33 867.5C1678.59 867.5 1671.5 860.411 1671.5 851.666Z" stroke="#0684A2" stroke-width="4.58333" stroke-linecap="butt" stroke-linejoin="miter" stroke-miterlimit="8" stroke-opacity="1" fill="#0BB5DD" fill-rule="evenodd" fill-opacity="1"/><path d="M1671.5 919.334C1671.5 910.589 1678.59 903.5 1687.33 903.5L2196.67 903.5C2205.41 903.5 2212.5 910.589 2212.5 919.334L2212.5 982.666C2212.5 991.411 2205.41 998.5 2196.67 998.5L1687.33 998.5C1678.59 998.5 1671.5 991.411 1671.5 982.666Z" stroke="#148E7A" stroke-width="4.58333" stroke-linecap="butt" stroke-linejoin="miter" stroke-miterlimit="8" stroke-opacity="1" fill="#1FC2A7" fill-rule="evenodd" fill-opacity="1"/><path d="M1671.5 1051.17C1671.5 1042.51 1678.51 1035.5 1687.17 1035.5L2196.83 1035.5C2205.49 1035.5 2212.5 1042.51 2212.5 1051.17L2212.5 1113.83C2212.5 1122.49 2205.49 1129.5 2196.83 1129.5L1687.17 1129.5C1678.51 1129.5 1671.5 1122.49 1671.5 1113.83Z" stroke="#148E7A" stroke-width="4.58333" stroke-linecap="butt" stroke-linejoin="miter" stroke-miterlimit="8" stroke-opacity="1" fill="#1FC2A7" fill-rule="evenodd" fill-opacity="1"/><path d="M1671.5 1180.17C1671.5 1171.51 1678.51 1164.5 1687.17 1164.5L2196.83 1164.5C2205.49 1164.5 2212.5 1171.51 2212.5 1180.17L2212.5 1242.83C2212.5 1251.49 2205.49 1258.5 2196.83 1258.5L1687.17 1258.5C1678.51 1258.5 1671.5 1251.49 1671.5 1242.83Z" stroke="#148E7A" stroke-width="4.58333" stroke-linecap="butt" stroke-linejoin="miter" stroke-miterlimit="8" stroke-opacity="1" fill="#1FC2A7" fill-rule="evenodd" fill-opacity="1"/><path d="M1671.5 1312.17C1671.5 1303.51 1678.51 1296.5 1687.17 1296.5L2196.83 1296.5C2205.49 1296.5 2212.5 1303.51 2212.5 1312.17L2212.5 1374.83C2212.5 1383.49 2205.49 1390.5 2196.83 1390.5L1687.17 1390.5C1678.51 1390.5 1671.5 1383.49 1671.5 1374.83Z" stroke="#148E7A" stroke-width="4.58333" stroke-linecap="butt" stroke-linejoin="miter" stroke-miterlimit="8" stroke-opacity="1" fill="#1FC2A7" fill-rule="evenodd" fill-opacity="1"/><path d="M1671.5 1438.17C1671.5 1429.51 1678.51 1422.5 1687.17 1422.5L2196.83 1422.5C2205.49 1422.5 2212.5 1429.51 2212.5 1438.17L2212.5 1500.83C2212.5 1509.49 2205.49 1516.5 2196.83 1516.5L1687.17 1516.5C1678.51 1516.5 1671.5 1509.49 1671.5 1500.83Z" stroke="#148E7A" stroke-width="4.58333" stroke-linecap="butt" stroke-linejoin="miter" stroke-miterlimit="8" stroke-opacity="1" fill="#1FC2A7" fill-rule="evenodd" fill-opacity="1"/><text fill="#595959" fill-opacity="1" font-family="Calibri,Calibri_MSFontService,sans-serif" font-style="normal" font-variant="normal" font-weight="400" font-stretch="normal" font-size="64" text-anchor="start" direction="ltr" writing-mode="lr-tb" unicode-bidi="normal" text-decoration="none" transform="matrix(1 0 0 1 1727.44 840)">Unit</text><text fill="#595959" fill-opacity="1" font-family="Calibri,Calibri_MSFontService,sans-serif" font-style="normal" font-variant="normal" font-weight="400" font-stretch="normal" font-size="64" text-anchor="start" direction="ltr" writing-mode="lr-tb" unicode-bidi="normal" text-decoration="none" transform="matrix(1 0 0 1 1717.62 972)">degree</text><text fill="#595959" fill-opacity="1" font-family="Calibri,Calibri_MSFontService,sans-serif" font-style="normal" font-variant="normal" font-weight="400" font-stretch="normal" font-size="64" text-anchor="start" direction="ltr" writing-mode="lr-tb" unicode-bidi="normal" text-decoration="none" transform="matrix(1 0 0 1 1913.86 972)">celsius</text><text fill="#595959" fill-opacity="1" font-family="Calibri,Calibri_MSFontService,sans-serif" font-style="normal" font-variant="normal" font-weight="400" font-stretch="normal" font-size="64" text-anchor="start" direction="ltr" writing-mode="lr-tb" unicode-bidi="normal" text-decoration="none" transform="matrix(1 0 0 1 1711.81 1103)">degree</text><text fill="#595959" fill-opacity="1" font-family="Calibri,Calibri_MSFontService,sans-serif" font-style="normal" font-variant="normal" font-weight="400" font-stretch="normal" font-size="64" text-anchor="start" direction="ltr" writing-mode="lr-tb" unicode-bidi="normal" text-decoration="none" transform="matrix(1 0 0 1 1908.04 1103)">celsius</text><text fill="#595959" fill-opacity="1" font-family="Calibri,Calibri_MSFontService,sans-serif" font-style="normal" font-variant="normal" font-weight="400" font-stretch="normal" font-size="64" text-anchor="start" direction="ltr" writing-mode="lr-tb" unicode-bidi="normal" text-decoration="none" transform="matrix(1 0 0 1 2294.64 972)">UO</text><text fill="#595959" fill-opacity="1" font-family="Calibri,Calibri_MSFontService,sans-serif" font-style="normal" font-variant="normal" font-weight="400" font-stretch="normal" font-size="64" text-anchor="start" direction="ltr" writing-mode="lr-tb" unicode-bidi="normal" text-decoration="none" transform="matrix(1 0 0 1 2294.95 1103)">UO</text><text fill="#595959" fill-opacity="1" font-family="Calibri,Calibri_MSFontService,sans-serif" font-style="normal" font-variant="normal" font-weight="400" font-stretch="normal" font-size="64" text-anchor="start" direction="ltr" writing-mode="lr-tb" unicode-bidi="normal" text-decoration="none" transform="matrix(1 0 0 1 1242.59 1103)">6</text><text fill="#595959" fill-opacity="1" font-family="Calibri,Calibri_MSFontService,sans-serif" font-style="normal" font-variant="normal" font-weight="400" font-stretch="normal" font-size="64" text-anchor="start" direction="ltr" writing-mode="lr-tb" unicode-bidi="normal" text-decoration="none" transform="matrix(1 0 0 1 1225.63 972)">25</text><path d="M3490.5 788.333C3490.5 779.589 3497.59 772.5 3506.33 772.5L4133.67 772.5C4142.41 772.5 4149.5 779.589 4149.5 788.333L4149.5 851.667C4149.5 860.411 4142.41 867.5 4133.67 867.5L3506.33 867.5C3497.59 867.5 3490.5 860.411 3490.5 851.667Z" stroke="#0684A2" stroke-width="4.58333" stroke-linecap="butt" stroke-linejoin="miter" stroke-miterlimit="8" stroke-opacity="1" fill="#0BB5DD" fill-rule="evenodd" fill-opacity="1"/><path d="M3491.5 919.333C3491.5 910.589 3498.59 903.5 3507.33 903.5L4134.67 903.5C4143.41 903.5 4150.5 910.589 4150.5 919.333L4150.5 982.667C4150.5 991.411 4143.41 998.5 4134.67 998.5L3507.33 998.5C3498.59 998.5 3491.5 991.411 3491.5 982.667Z" stroke="#148E7A" stroke-width="4.58333" stroke-linecap="butt" stroke-linejoin="miter" stroke-miterlimit="8" stroke-opacity="1" fill="#1FC2A7" fill-rule="evenodd" fill-opacity="1"/><path d="M3491.5 1051.17C3491.5 1042.51 3498.51 1035.5 3507.17 1035.5L4134.83 1035.5C4143.49 1035.5 4150.5 1042.51 4150.5 1051.17L4150.5 1113.83C4150.5 1122.49 4143.49 1129.5 4134.83 1129.5L3507.17 1129.5C3498.51 1129.5 3491.5 1122.49 3491.5 1113.83Z" stroke="#148E7A" stroke-width="4.58333" stroke-linecap="butt" stroke-linejoin="miter" stroke-miterlimit="8" stroke-opacity="1" fill="#1FC2A7" fill-rule="evenodd" fill-opacity="1"/><path d="M3491.5 1180.17C3491.5 1171.51 3498.51 1164.5 3507.17 1164.5L4134.83 1164.5C4143.49 1164.5 4150.5 1171.51 4150.5 1180.17L4150.5 1242.83C4150.5 1251.49 4143.49 1258.5 4134.83 1258.5L3507.17 1258.5C3498.51 1258.5 3491.5 1251.49 3491.5 1242.83Z" stroke="#148E7A" stroke-width="4.58333" stroke-linecap="butt" stroke-linejoin="miter" stroke-miterlimit="8" stroke-opacity="1" fill="#1FC2A7" fill-rule="evenodd" fill-opacity="1"/><path d="M3491.5 1312.17C3491.5 1303.51 3498.51 1296.5 3507.17 1296.5L4134.83 1296.5C4143.49 1296.5 4150.5 1303.51 4150.5 1312.17L4150.5 1374.83C4150.5 1383.49 4143.49 1390.5 4134.83 1390.5L3507.17 1390.5C3498.51 1390.5 3491.5 1383.49 3491.5 1374.83Z" stroke="#148E7A" stroke-width="4.58333" stroke-linecap="butt" stroke-linejoin="miter" stroke-miterlimit="8" stroke-opacity="1" fill="#1FC2A7" fill-rule="evenodd" fill-opacity="1"/><path d="M3491.5 1438.17C3491.5 1429.51 3498.51 1422.5 3507.17 1422.5L4134.83 1422.5C4143.49 1422.5 4150.5 1429.51 4150.5 1438.17L4150.5 1500.83C4150.5 1509.49 4143.49 1516.5 4134.83 1516.5L3507.17 1516.5C3498.51 1516.5 3491.5 1509.49 3491.5 1500.83Z" stroke="#148E7A" stroke-width="4.58333" stroke-linecap="butt" stroke-linejoin="miter" stroke-miterlimit="8" stroke-opacity="1" fill="#1FC2A7" fill-rule="evenodd" fill-opacity="1"/><text fill="#595959" fill-opacity="1" font-family="Calibri,Calibri_MSFontService,sans-serif" font-style="normal" font-variant="normal" font-weight="400" font-stretch="normal" font-size="64" text-anchor="start" direction="ltr" writing-mode="lr-tb" unicode-bidi="normal" text-decoration="none" transform="matrix(1 0 0 1 3522.55 840)">Output[Sample Name]</text><text fill="#595959" fill-opacity="1" font-family="Calibri,Calibri_MSFontService,sans-serif" font-style="normal" font-variant="normal" font-weight="400" font-stretch="normal" font-size="64" text-anchor="start" direction="ltr" writing-mode="lr-tb" unicode-bidi="normal" text-decoration="none" transform="matrix(1 0 0 1 3688.56 972)">spl_nrm</text><text fill="#595959" fill-opacity="1" font-family="Calibri,Calibri_MSFontService,sans-serif" font-style="normal" font-variant="normal" font-weight="400" font-stretch="normal" font-size="64" text-anchor="start" direction="ltr" writing-mode="lr-tb" unicode-bidi="normal" text-decoration="none" transform="matrix(1 0 0 1 3693.92 1103)">spl_cold</text><path d="M2870.5 788.333C2870.5 779.589 2877.59 772.5 2886.33 772.5L3443.67 772.5C3452.41 772.5 3459.5 779.589 3459.5 788.333L3459.5 851.667C3459.5 860.411 3452.41 867.5 3443.67 867.5L2886.33 867.5C2877.59 867.5 2870.5 860.411 2870.5 851.667Z" stroke="#0684A2" stroke-width="4.58333" stroke-linecap="butt" stroke-linejoin="miter" stroke-miterlimit="8" stroke-opacity="1" fill="#0BB5DD" fill-rule="evenodd" fill-opacity="1"/><path d="M2871.5 919.333C2871.5 910.589 2878.59 903.5 2887.33 903.5L3444.67 903.5C3453.41 903.5 3460.5 910.589 3460.5 919.333L3460.5 982.667C3460.5 991.411 3453.41 998.5 3444.67 998.5L2887.33 998.5C2878.59 998.5 2871.5 991.411 2871.5 982.667Z" stroke="#148E7A" stroke-width="4.58333" stroke-linecap="butt" stroke-linejoin="miter" stroke-miterlimit="8" stroke-opacity="1" fill="#1FC2A7" fill-rule="evenodd" fill-opacity="1"/><path d="M2871.5 1051.17C2871.5 1042.51 2878.51 1035.5 2887.17 1035.5L3444.83 1035.5C3453.49 1035.5 3460.5 1042.51 3460.5 1051.17L3460.5 1113.83C3460.5 1122.49 3453.49 1129.5 3444.83 1129.5L2887.17 1129.5C2878.51 1129.5 2871.5 1122.49 2871.5 1113.83Z" stroke="#148E7A" stroke-width="4.58333" stroke-linecap="butt" stroke-linejoin="miter" stroke-miterlimit="8" stroke-opacity="1" fill="#1FC2A7" fill-rule="evenodd" fill-opacity="1"/><path d="M2871.5 1180.17C2871.5 1171.51 2878.51 1164.5 2887.17 1164.5L3444.83 1164.5C3453.49 1164.5 3460.5 1171.51 3460.5 1180.17L3460.5 1242.83C3460.5 1251.49 3453.49 1258.5 3444.83 1258.5L2887.17 1258.5C2878.51 1258.5 2871.5 1251.49 2871.5 1242.83Z" stroke="#148E7A" stroke-width="4.58333" stroke-linecap="butt" stroke-linejoin="miter" stroke-miterlimit="8" stroke-opacity="1" fill="#1FC2A7" fill-rule="evenodd" fill-opacity="1"/><path d="M2871.5 1312.17C2871.5 1303.51 2878.51 1296.5 2887.17 1296.5L3444.83 1296.5C3453.49 1296.5 3460.5 1303.51 3460.5 1312.17L3460.5 1374.83C3460.5 1383.49 3453.49 1390.5 3444.83 1390.5L2887.17 1390.5C2878.51 1390.5 2871.5 1383.49 2871.5 1374.83Z" stroke="#148E7A" stroke-width="4.58333" stroke-linecap="butt" stroke-linejoin="miter" stroke-miterlimit="8" stroke-opacity="1" fill="#1FC2A7" fill-rule="evenodd" fill-opacity="1"/><path d="M2871.5 1438.17C2871.5 1429.51 2878.51 1422.5 2887.17 1422.5L3444.83 1422.5C3453.49 1422.5 3460.5 1429.51 3460.5 1438.17L3460.5 1500.83C3460.5 1509.49 3453.49 1516.5 3444.83 1516.5L2887.17 1516.5C2878.51 1516.5 2871.5 1509.49 2871.5 1500.83Z" stroke="#148E7A" stroke-width="4.58333" stroke-linecap="butt" stroke-linejoin="miter" stroke-miterlimit="8" stroke-opacity="1" fill="#1FC2A7" fill-rule="evenodd" fill-opacity="1"/><text fill="#595959" fill-opacity="1" font-family="Calibri,Calibri_MSFontService,sans-serif" font-style="normal" font-variant="normal" font-weight="400" font-stretch="normal" font-size="64" text-anchor="start" direction="ltr" writing-mode="lr-tb" unicode-bidi="normal" text-decoration="none" transform="matrix(1 0 0 1 2887.02 840)">TAN(PATO:0000146)</text><text fill="#595959" fill-opacity="1" font-family="Calibri,Calibri_MSFontService,sans-serif" font-style="normal" font-variant="normal" font-weight="400" font-stretch="normal" font-size="64" text-anchor="start" direction="ltr" writing-mode="lr-tb" unicode-bidi="normal" text-decoration="none" transform="matrix(1 0 0 1 2910.95 1109)">UO:000027</text><text fill="#595959" fill-opacity="1" font-family="Calibri,Calibri_MSFontService,sans-serif" font-style="normal" font-variant="normal" font-weight="400" font-stretch="normal" font-size="64" text-anchor="start" direction="ltr" writing-mode="lr-tb" unicode-bidi="normal" text-decoration="none" transform="matrix(1 0 0 1 2910.95 972)">UO:000027</text></g></g></svg>