<svg width="2146" height="1346" xmlns="http://www.w3.org/2000/svg" xmlns:xlink="http://www.w3.org/1999/xlink" xml:space="preserve" overflow="hidden"><defs><clipPath id="clip0"><rect x="925" y="464" width="2146" height="1346"/></clipPath></defs><g clip-path="url(#clip0)" transform="translate(-925 -464)"><rect x="1065" y="1695" width="17.0002" height="35.0001" stroke="#0684A2" stroke-width="2.29167" stroke-miterlimit="8" fill="#0BB5DD"/><rect x="1085" y="1686" width="17.0002" height="44" stroke="#0684A2" stroke-width="2.29167" stroke-miterlimit="8" fill="#0BB5DD"/><rect x="1105" y="1677" width="16.9999" height="52.9999" stroke="#0684A2" stroke-width="2.29167" stroke-miterlimit="8" fill="#0BB5DD"/><path d="M1057.72 1711.88C1029.89 1712.37 1006.93 1690.19 1006.45 1662.36 1005.96 1634.52 1028.14 1611.56 1055.97 1611.08 1083.81 1610.59 1106.77 1632.77 1107.25 1660.6 1107.27 1661.87 1107.25 1663.13 1107.17 1664.39" stroke="#0BB5DD" stroke-width="6.875" stroke-linecap="round" stroke-miterlimit="8" fill="none" fill-rule="evenodd"/><path d="M0 0 10.0631 11.1213" stroke="#0BB5DD" stroke-width="6.875" stroke-linecap="round" stroke-miterlimit="8" fill="none" fill-rule="evenodd" transform="matrix(1 0 0 -1 1106.5 1667.62)"/><path d="M0 0 10.0631 11.1213" stroke="#0BB5DD" stroke-width="6.875" stroke-linecap="round" stroke-miterlimit="8" fill="none" fill-rule="evenodd" transform="matrix(-1.83697e-16 -1 -1 1.83697e-16 1106.62 1667.56)"/><path d="M1036.18 1673.52C1033.93 1669.53 1033.91 1660.68 1036.32 1655.39 1038.73 1650.1 1043.21 1642.66 1055.68 1642.48 1060 1642.41 1066.35 1641.39 1070.43 1640.4 1074.5 1639.4 1078.32 1636.44 1080.12 1636.5 1081.93 1636.56 1081.54 1638.27 1081.25 1640.78 1080.96 1643.29 1079.64 1648.36 1078.37 1651.58 1077.11 1654.79 1073.64 1664.14 1071.02 1668.41 1068.39 1672.68 1066.17 1675.37 1062.64 1677.19 1059.11 1679.01 1054.24 1679.92 1049.83 1679.31 1045.42 1678.7 1038.43 1677.5 1036.18 1673.52Z" stroke="#2D3E50" stroke-width="6.875" stroke-linecap="round" stroke-miterlimit="8" fill="none" fill-rule="evenodd"/><path d="M1031.5 1686.5C1033.63 1677.09 1035.76 1667.69 1054.5 1661.5" stroke="#2D3E50" stroke-width="6.875" stroke-linecap="round" stroke-miterlimit="8" fill="none" fill-rule="evenodd"/><rect x="977" y="1603" width="23.0001" height="11" stroke="#0684A2" stroke-width="2.29167" stroke-miterlimit="8" fill="#0BB5DD"/><path d="M1000 1609 1018.56 1609" stroke="#0BB5DD" stroke-width="2.29167" stroke-miterlimit="8" fill="none" fill-rule="evenodd"/><path d="M1019 1609 1026.84 1640.89" stroke="#0BB5DD" stroke-width="2.29167" stroke-miterlimit="8" fill="none" fill-rule="evenodd"/><rect x="994" y="1710" width="23.0001" height="11" stroke="#0684A2" stroke-width="2.29167" stroke-miterlimit="8" fill="#0BB5DD"/><path d="M1017 1716 1033.7 1716" stroke="#0BB5DD" stroke-width="2.29167" stroke-miterlimit="8" fill="none" fill-rule="evenodd"/><path d="M0 0 7.84364 31.8928" stroke="#0BB5DD" stroke-width="2.29167" stroke-miterlimit="8" fill="none" fill-rule="evenodd" transform="matrix(1 0 0 -1 1034 1715.89)"/><rect x="1119" y="1624" width="23" height="10" stroke="#0684A2" stroke-width="2.29167" stroke-miterlimit="8" fill="#0BB5DD"/><path d="M1106 1629 1118.2 1629" stroke="#0BB5DD" stroke-width="2.29167" stroke-miterlimit="8" fill="none" fill-rule="evenodd"/><path d="M0 0 34.3865 18.3131" stroke="#0BB5DD" stroke-width="2.29167" stroke-miterlimit="8" fill="none" fill-rule="evenodd" transform="matrix(1 0 0 -1 1072 1647.31)"/><path d="M1115.42 1567.43C1117.73 1567.44 1120.07 1568.09 1122.14 1569.42 1124.92 1571.37 1126.64 1574.2 1127.18 1577.24 1127.72 1580.28 1127.08 1583.53 1125.13 1586.31L1107.76 1611.17C1105.4 1614.55 1101.69 1616.25 1097.86 1616.24L1095.27 1619.93 1094.03 1618.8C1092.37 1617.43 1090.64 1616.14 1088.86 1614.93L1084.18 1612.09 1086.72 1608.45C1085.38 1604.86 1085.71 1600.79 1088.07 1597.41L1105.44 1572.55C1107.79 1569.2 1111.57 1567.42 1115.42 1567.43Z" stroke="#0BB5DD" stroke-width="6.875" stroke-linecap="round" stroke-miterlimit="8" fill="none" fill-rule="evenodd"/><path d="M960 1761C951.716 1761 945 1753.84 945 1745.01L945 1671.49C945 1662.66 938.284 1655.5 930 1655.5 938.284 1655.5 945 1648.34 945 1639.51L945 1565.99C945 1557.16 951.716 1550 960 1550" stroke="#2D3E50" stroke-width="10.3125" stroke-miterlimit="8" fill="none" fill-rule="evenodd"/><path d="M1162 1550C1170.28 1550 1177 1557.16 1177 1565.99L1177 1639.51C1177 1648.34 1183.72 1655.5 1192 1655.5 1183.72 1655.5 1177 1662.66 1177 1671.49L1177 1745.01C1177 1753.84 1170.28 1761 1162 1761" stroke="#2D3E50" stroke-width="10.3125" stroke-miterlimit="8" fill="none" fill-rule="evenodd"/><rect x="1540" y="1696" width="16.9999" height="35.0001" stroke="#0684A2" stroke-width="2.29167" stroke-miterlimit="8" fill="#0BB5DD"/><rect x="1560" y="1687" width="17.0002" height="44" stroke="#0684A2" stroke-width="2.29167" stroke-miterlimit="8" fill="#0BB5DD"/><rect x="1581" y="1678" width="16.0001" height="53.0002" stroke="#0684A2" stroke-width="2.29167" stroke-miterlimit="8" fill="#0BB5DD"/><path d="M1532.75 1712.95C1504.91 1713.43 1481.96 1691.26 1481.47 1663.42 1480.99 1635.58 1503.16 1612.63 1531 1612.14 1558.83 1611.66 1581.79 1633.83 1582.28 1661.67 1582.3 1662.93 1582.27 1664.2 1582.2 1665.46" stroke="#0BB5DD" stroke-width="6.875" stroke-linecap="round" stroke-miterlimit="8" fill="none" fill-rule="evenodd"/><path d="M0 0 10.0631 11.1213" stroke="#0BB5DD" stroke-width="6.875" stroke-linecap="round" stroke-miterlimit="8" fill="none" fill-rule="evenodd" transform="matrix(1 0 0 -1 1581.5 1668.62)"/><path d="M0 0 10.0631 11.1213" stroke="#0BB5DD" stroke-width="6.875" stroke-linecap="round" stroke-miterlimit="8" fill="none" fill-rule="evenodd" transform="matrix(-1.83697e-16 -1 -1 1.83697e-16 1581.62 1668.56)"/><path d="M1511.18 1674.52C1508.93 1670.53 1508.91 1661.68 1511.32 1656.39 1513.73 1651.1 1518.21 1643.66 1530.68 1643.48 1535 1643.41 1541.35 1642.39 1545.43 1641.4 1549.5 1640.4 1553.32 1637.44 1555.12 1637.5 1556.93 1637.56 1556.54 1639.27 1556.25 1641.78 1555.96 1644.29 1554.64 1649.36 1553.37 1652.58 1552.11 1655.79 1548.64 1665.14 1546.02 1669.41 1543.39 1673.68 1541.17 1676.37 1537.64 1678.19 1534.11 1680.01 1529.24 1680.92 1524.83 1680.31 1520.42 1679.7 1513.43 1678.5 1511.18 1674.52Z" stroke="#2D3E50" stroke-width="6.875" stroke-linecap="round" stroke-miterlimit="8" fill="none" fill-rule="evenodd"/><path d="M1506.5 1687.5C1508.63 1678.09 1510.76 1668.69 1529.5 1662.5" stroke="#2D3E50" stroke-width="6.875" stroke-linecap="round" stroke-miterlimit="8" fill="none" fill-rule="evenodd"/><rect x="1452" y="1605" width="23" height="10" stroke="#0684A2" stroke-width="2.29167" stroke-miterlimit="8" fill="#0BB5DD"/><path d="M1475 1610 1493.56 1610" stroke="#0BB5DD" stroke-width="2.29167" stroke-miterlimit="8" fill="none" fill-rule="evenodd"/><path d="M1494 1610 1501.84 1641.89" stroke="#0BB5DD" stroke-width="2.29167" stroke-miterlimit="8" fill="none" fill-rule="evenodd"/><rect x="1469" y="1711" width="23" height="11" stroke="#0684A2" stroke-width="2.29167" stroke-miterlimit="8" fill="#0BB5DD"/><path d="M1492 1717 1508.7 1717" stroke="#0BB5DD" stroke-width="2.29167" stroke-miterlimit="8" fill="none" fill-rule="evenodd"/><path d="M0 0 7.84364 31.8928" stroke="#0BB5DD" stroke-width="2.29167" stroke-miterlimit="8" fill="none" fill-rule="evenodd" transform="matrix(1 0 0 -1 1509 1716.89)"/><rect x="1594" y="1625" width="23" height="10" stroke="#0684A2" stroke-width="2.29167" stroke-miterlimit="8" fill="#0BB5DD"/><path d="M1581 1630 1593.2 1630" stroke="#0BB5DD" stroke-width="2.29167" stroke-miterlimit="8" fill="none" fill-rule="evenodd"/><path d="M0 0 34.3865 18.3131" stroke="#0BB5DD" stroke-width="2.29167" stroke-miterlimit="8" fill="none" fill-rule="evenodd" transform="matrix(1 0 0 -1 1547 1648.31)"/><path d="M1590.45 1568.5C1592.76 1568.51 1595.1 1569.15 1597.16 1570.49 1599.95 1572.43 1601.67 1575.26 1602.21 1578.3 1602.74 1581.34 1602.1 1584.59 1600.16 1587.38L1582.78 1612.24C1580.42 1615.62 1576.72 1617.32 1572.88 1617.3L1570.3 1621 1569.05 1619.87C1567.39 1618.5 1565.67 1617.21 1563.88 1616L1559.2 1613.16 1561.74 1609.52C1560.41 1605.92 1560.73 1601.86 1563.1 1598.48L1580.47 1573.62C1582.81 1570.26 1586.6 1568.49 1590.45 1568.5Z" stroke="#0BB5DD" stroke-width="6.875" stroke-linecap="round" stroke-miterlimit="8" fill="none" fill-rule="evenodd"/><path d="M1435 1762C1426.72 1762 1420 1754.84 1420 1746.01L1420 1672.49C1420 1663.66 1413.28 1656.5 1405 1656.5 1413.28 1656.5 1420 1649.34 1420 1640.51L1420 1566.99C1420 1558.16 1426.72 1551 1435 1551" stroke="#2D3E50" stroke-width="10.3125" stroke-miterlimit="8" fill="none" fill-rule="evenodd"/><path d="M1637 1551C1645.28 1551 1652 1558.16 1652 1566.99L1652 1640.51C1652 1649.34 1658.72 1656.5 1667 1656.5 1658.72 1656.5 1652 1663.66 1652 1672.49L1652 1746.01C1652 1754.84 1645.28 1762 1637 1762" stroke="#2D3E50" stroke-width="10.3125" stroke-miterlimit="8" fill="none" fill-rule="evenodd"/><rect x="2020" y="1700" width="17.0002" height="35.0001" stroke="#0684A2" stroke-width="2.29167" stroke-miterlimit="8" fill="#0BB5DD"/><rect x="2040" y="1691" width="16.9999" height="44" stroke="#0684A2" stroke-width="2.29167" stroke-miterlimit="8" fill="#0BB5DD"/><rect x="2060" y="1682" width="16.9998" height="52.9999" stroke="#0684A2" stroke-width="2.29167" stroke-miterlimit="8" fill="#0BB5DD"/><path d="M2012.55 1717.16C1984.71 1717.64 1961.75 1695.47 1961.27 1667.63 1960.79 1639.8 1982.96 1616.84 2010.8 1616.36 2038.63 1615.87 2061.59 1638.05 2062.07 1665.88 2062.1 1667.15 2062.07 1668.41 2062 1669.67" stroke="#0BB5DD" stroke-width="6.875" stroke-linecap="round" stroke-miterlimit="8" fill="none" fill-rule="evenodd"/><path d="M0 0 10.0631 11.1213" stroke="#0BB5DD" stroke-width="6.875" stroke-linecap="round" stroke-miterlimit="8" fill="none" fill-rule="evenodd" transform="matrix(1 0 0 -1 2061.5 1672.62)"/><path d="M0 0 10.0631 11.1213" stroke="#0BB5DD" stroke-width="6.875" stroke-linecap="round" stroke-miterlimit="8" fill="none" fill-rule="evenodd" transform="matrix(-1.83697e-16 -1 -1 1.83697e-16 2061.62 1672.56)"/><path d="M1991.18 1678.52C1988.93 1674.53 1988.91 1665.68 1991.32 1660.39 1993.73 1655.1 1998.21 1647.66 2010.68 1647.48 2015 1647.41 2021.35 1646.39 2025.43 1645.4 2029.5 1644.4 2033.32 1641.44 2035.12 1641.5 2036.93 1641.56 2036.54 1643.26 2036.25 1645.78 2035.96 1648.29 2034.64 1653.36 2033.37 1656.58 2032.11 1659.79 2028.64 1669.14 2026.02 1673.41 2023.39 1677.68 2021.17 1680.37 2017.64 1682.19 2014.11 1684.01 2009.24 1684.92 2004.83 1684.31 2000.42 1683.7 1993.43 1682.5 1991.18 1678.52Z" stroke="#2D3E50" stroke-width="6.875" stroke-linecap="round" stroke-miterlimit="8" fill="none" fill-rule="evenodd"/><path d="M1986.5 1691.5C1988.63 1682.09 1990.76 1672.69 2009.5 1666.5" stroke="#2D3E50" stroke-width="6.875" stroke-linecap="round" stroke-miterlimit="8" fill="none" fill-rule="evenodd"/><rect x="1931" y="1609" width="24.0001" height="10" stroke="#0684A2" stroke-width="2.29167" stroke-miterlimit="8" fill="#0BB5DD"/><path d="M1955 1614 1973.56 1614" stroke="#0BB5DD" stroke-width="2.29167" stroke-miterlimit="8" fill="none" fill-rule="evenodd"/><path d="M1973 1614 1980.84 1645.89" stroke="#0BB5DD" stroke-width="2.29167" stroke-miterlimit="8" fill="none" fill-rule="evenodd"/><rect x="1949" y="1716" width="23" height="10" stroke="#0684A2" stroke-width="2.29167" stroke-miterlimit="8" fill="#0BB5DD"/><path d="M1972 1721 1988.7 1721" stroke="#0BB5DD" stroke-width="2.29167" stroke-miterlimit="8" fill="none" fill-rule="evenodd"/><path d="M0 0 7.84364 31.8928" stroke="#0BB5DD" stroke-width="2.29167" stroke-miterlimit="8" fill="none" fill-rule="evenodd" transform="matrix(1 0 0 -1 1989 1720.89)"/><rect x="2074" y="1629" width="23" height="11" stroke="#0684A2" stroke-width="2.29167" stroke-miterlimit="8" fill="#0BB5DD"/><path d="M2061 1634 2073.2 1634" stroke="#0BB5DD" stroke-width="2.29167" stroke-miterlimit="8" fill="none" fill-rule="evenodd"/><path d="M0 0 34.3865 18.3131" stroke="#0BB5DD" stroke-width="2.29167" stroke-miterlimit="8" fill="none" fill-rule="evenodd" transform="matrix(1 0 0 -1 2027 1652.31)"/><path d="M2070.25 1572.71C2072.56 1572.72 2074.89 1573.37 2076.96 1574.7 2079.74 1576.64 2081.46 1579.47 2082 1582.52 2082.54 1585.56 2081.9 1588.81 2079.95 1591.59L2062.58 1616.45C2060.22 1619.83 2056.51 1621.53 2052.68 1621.51L2050.1 1625.21 2048.85 1624.08C2047.19 1622.71 2045.47 1621.42 2043.68 1620.21L2039 1617.37 2041.54 1613.73C2040.21 1610.14 2040.53 1606.07 2042.89 1602.69L2060.27 1577.83C2062.61 1574.48 2066.39 1572.7 2070.25 1572.71Z" stroke="#0BB5DD" stroke-width="6.875" stroke-linecap="round" stroke-miterlimit="8" fill="none" fill-rule="evenodd"/><path d="M1915 1767C1906.72 1767 1900 1759.84 1900 1751.01L1900 1677.49C1900 1668.66 1893.28 1661.5 1885 1661.5 1893.28 1661.5 1900 1654.34 1900 1645.51L1900 1571.99C1900 1563.16 1906.72 1556 1915 1556" stroke="#2D3E50" stroke-width="10.3125" stroke-miterlimit="8" fill="none" fill-rule="evenodd"/><path d="M2117 1556C2125.01 1556 2131.5 1562.92 2131.5 1571.46L2131.5 1646.04C2131.5 1654.58 2137.99 1661.5 2146 1661.5 2137.99 1661.5 2131.5 1668.42 2131.5 1676.96L2131.5 1751.54C2131.5 1760.08 2125.01 1767 2117 1767" stroke="#2D3E50" stroke-width="10.3125" stroke-miterlimit="8" fill="none" fill-rule="evenodd"/><path d="M1317 735C1334.38 688.989 1372.27 632.062 1401.79 631.459 1431.32 630.857 1470.18 707.959 1494.14 716.829 1518.1 725.699 1525.09 687.475 1545.57 684.679 1566.05 681.884 1586.09 713.502 1617 700.055 1647.9 686.608 1683.79 665.217 1731 604" stroke="#0BB5DD" stroke-width="13.75" stroke-linecap="round" stroke-miterlimit="8" fill="none" fill-rule="evenodd"/><path d="M1318 599C1368.19 661.496 1418.39 723.992 1482.39 760.825 1546.39 797.658 1624.19 808.829 1702 820" stroke="#0684A2" stroke-width="13.75" stroke-linecap="round" stroke-miterlimit="8" stroke-dasharray="41.25 55" fill="none" fill-rule="evenodd"/><path d="M3.4375-3.07268e-06 3.43784 380.824-3.43716 380.824-3.4375 3.07268e-06ZM13.7503 376.241 0.000360892 403.741-13.7497 376.241Z" fill="#ACACAC" transform="matrix(1 0 0 -1 1288.5 899.241)"/><text fill="#939393" font-family="Arial,Arial_MSFontService,sans-serif" font-weight="400" font-size="55" transform="matrix(-1.83697e-16 -1 1 -1.83697e-16 1249.73 783)">abundance</text><path d="M1233.5 841.063 1793.71 841.279 1793.71 848.154 1233.5 847.938ZM1789.13 830.965 1816.63 844.726 1789.12 858.465Z" fill="#ACACAC"/><text fill="#939393" font-family="Arial,Arial_MSFontService,sans-serif" font-weight="400" font-size="55" transform="matrix(1 0 0 1 1369.65 922)">diff. experiments </text><path d="M2290.5 1582.33C2290.5 1560.89 2307.89 1543.5 2329.33 1543.5L2952.67 1543.5C2974.11 1543.5 2991.5 1560.89 2991.5 1582.33L2991.5 1737.67C2991.5 1759.11 2974.11 1776.5 2952.67 1776.5L2329.33 1776.5C2307.89 1776.5 2290.5 1759.11 2290.5 1737.67Z" stroke="#1E2B38" stroke-width="4.58333" stroke-miterlimit="8" fill="#2D3E50" fill-rule="evenodd"/><path d="M2290.5 1111.33C2290.5 1089.89 2307.89 1072.5 2329.33 1072.5L2952.67 1072.5C2974.11 1072.5 2991.5 1089.89 2991.5 1111.33L2991.5 1266.67C2991.5 1288.11 2974.11 1305.5 2952.67 1305.5L2329.33 1305.5C2307.89 1305.5 2290.5 1288.11 2290.5 1266.67Z" stroke="#148E7A" stroke-width="4.58333" stroke-miterlimit="8" fill="#1FC2A7" fill-rule="evenodd"/><path d="M2290.5 635.5C2290.5 613.961 2307.96 596.5 2329.5 596.5L2952.5 596.5C2974.04 596.5 2991.5 613.961 2991.5 635.5L2991.5 791.499C2991.5 813.039 2974.04 830.5 2952.5 830.5L2329.5 830.5C2307.96 830.5 2290.5 813.039 2290.5 791.499Z" stroke="#0684A2" stroke-width="4.58333" stroke-miterlimit="8" fill="#0BB5DD" fill-rule="evenodd"/><text fill="#FFC000" font-family="Arial,Arial_MSFontService,sans-serif" font-weight="400" font-size="83" transform="matrix(1 0 0 1 2460.94 687)">g<tspan fill="#595959" font-size="83" x="45.8333" y="0">enes </tspan><tspan font-size="83" x="247.5" y="0">o</tspan><tspan fill="#595959" font-size="83" x="293.333" y="0">f</tspan><tspan font-size="83" x="22.9167" y="99">i</tspan><tspan fill="#595959" font-size="83" x="41.25" y="99">nterest</tspan><tspan fill="#FFFFFF" font-size="83" x="6.76758" y="955">available</tspan><tspan fill="#FFFFFF" font-size="83" x="50.3091" y="1054">ARCs </tspan><tspan fill="#595959" font-size="83" x="-161.76" y="516">overarching query</tspan></text><path d="M2952 524.566C2908.83 438.814 2835.5 490.266 2835.5 538.287 2835.5 610.318 2952 699.5 2952 699.5 2952 699.5 3068.5 610.318 3068.5 538.287 3068.5 490.266 2995.17 438.814 2952 524.566Z" stroke="#FFC000" stroke-width="4.58333" stroke-miterlimit="8" fill="#FFFFFF" fill-rule="evenodd"/><text fill="#FFC000" font-family="Arial,Arial_MSFontService,sans-serif" font-weight="400" font-size="83" transform="matrix(1 0 0 1 2903.74 598)">goi</text><path d="M0 0 0.000360892 135.301" stroke="#1FC2A7" stroke-width="13.75" stroke-miterlimit="8" stroke-dasharray="41.25 13.75" fill="none" fill-rule="evenodd" transform="matrix(1 0 0 -1 1059 1356.3)"/><path d="M1066 1194 2007.5 1194" stroke="#1FC2A7" stroke-width="13.75" stroke-miterlimit="8" stroke-dasharray="41.25 13.75" fill="none" fill-rule="evenodd"/><path d="M0 0 0.000360892 135.301" stroke="#1FC2A7" stroke-width="13.75" stroke-miterlimit="8" stroke-dasharray="41.25 13.75" fill="none" fill-rule="evenodd" transform="matrix(1 0 0 -1 1536 1356.3)"/><path d="M0 0 0.000360892 135.301" stroke="#1FC2A7" stroke-width="13.75" stroke-miterlimit="8" stroke-dasharray="41.25 13.75" fill="none" fill-rule="evenodd" transform="matrix(1 0 0 -1 2017 1356.3)"/><path d="M0 0 0.000360892 135.301" stroke="#1FC2A7" stroke-width="13.75" stroke-miterlimit="8" stroke-dasharray="41.25 13.75" fill="none" fill-rule="evenodd" transform="matrix(1 0 0 -1 1536 1154.3)"/></g></svg>