<svg width="2151" height="1589" xmlns="http://www.w3.org/2000/svg" xmlns:xlink="http://www.w3.org/1999/xlink" xml:space="preserve" overflow="hidden"><defs><clipPath id="clip0"><rect x="579" y="280" width="2151" height="1589"/></clipPath><clipPath id="clip1"><rect x="1164" y="489" width="159" height="146"/></clipPath><clipPath id="clip2"><rect x="1164" y="489" width="159" height="146"/></clipPath><clipPath id="clip3"><rect x="1164" y="489" width="159" height="146"/></clipPath></defs><g clip-path="url(#clip0)" transform="translate(-579 -280)"><path d="M982 1114C982 798.093 1238.09 542 1554 542 1869.91 542 2126 798.093 2126 1114 2126 1429.91 1869.91 1686 1554 1686 1238.09 1686 982 1429.91 982 1114Z" fill="#1FC2A7" fill-rule="evenodd" fill-opacity="0.501961"/><path d="M1040 659C1040 543.572 1133.57 450 1249 450 1364.43 450 1458 543.572 1458 659 1458 774.427 1364.43 868 1249 868 1133.57 868 1040 774.427 1040 659Z" fill="#CAF3FC" fill-rule="evenodd"/><path d="M1193.76 646.369C1190.25 643.453 1188.54 641.04 1179.92 648.178 1171.29 655.317 1152.64 673.716 1142.01 689.2 1131.38 704.684 1120.65 728.312 1116.13 741.081 1111.62 753.849 1111.42 758.575 1114.93 765.814 1118.44 773.053 1124.16 776.572 1137.19 784.515 1150.23 792.458 1193.16 813.471 1193.16 813.471 1209.6 821.816 1223.04 832.173 1235.88 834.586 1248.72 836.999 1254.43 834.586 1270.18 827.95 1285.93 821.314 1313.2 804.523 1330.35 794.771 1347.5 785.018 1364.95 777.477 1373.08 769.434 1381.2 761.39 1381.7 755.76 1379.1 746.51 1376.49 737.26 1374.38 728.412 1364.65 713.934 1354.93 699.455 1332.16 671.002 1320.73 659.64 1309.29 648.279 1302.97 642.045 1296.06 645.765 1289.14 649.485 1286.63 666.578 1279.21 681.961 1271.78 697.344 1257.94 727.809 1251.53 738.064 1245.11 748.32 1246.01 748.32 1240.69 743.494 1235.38 738.667 1226.85 723.184 1219.63 709.108 1212.41 695.032 1204.69 676.331 1200.98 665.673 1197.27 655.015 1197.27 649.284 1193.76 646.369Z" stroke="#0684A2" stroke-width="4.58333" stroke-miterlimit="8" fill="#0BB5DD" fill-rule="evenodd"/><path d="M1171.5 561C1171.5 520.959 1203.96 488.5 1244 488.5 1284.04 488.5 1316.5 520.959 1316.5 561 1316.5 601.041 1284.04 633.5 1244 633.5 1203.96 633.5 1171.5 601.041 1171.5 561Z" stroke="#0684A2" stroke-width="4.58333" stroke-miterlimit="8" fill="#0BB5DD" fill-rule="evenodd"/><g clip-path="url(#clip1)"><g clip-path="url(#clip2)"><g clip-path="url(#clip3)"><path d="M138.052 53.3177C134.729 52.1094 120.229 47.5781 108.75 47.5781 99.2344 47.5781 77.4844 52.4115 72.5 53.4688 67.5157 52.4115 45.7656 47.5781 36.25 47.5781 24.9219 47.5781 10.4219 52.1094 6.94792 53.3177 6.49479 53.4688 6.04167 53.9219 6.04167 54.5261L6.04167 60.7188C6.04167 61.7761 6.34375 62.9844 7.25 63.5886L9.0625 65.099C9.21355 71.1407 9.96875 80.2032 12.6875 84.5834 16.1615 90.625 26.8854 97.4219 37.7604 97.4219 56.9427 97.4219 66.0052 82.9219 69.3282 69.6302 69.6302 68.2709 70.9896 67.2136 72.5 67.2136 74.0105 67.2136 75.2188 68.2709 75.6719 69.6302 79.1459 82.9219 88.2084 97.4219 107.24 97.4219 118.115 97.4219 128.839 90.625 132.313 84.5834 134.88 80.0521 135.635 71.1407 135.938 65.099L137.75 63.7396C138.656 63.1354 138.958 61.7761 138.958 60.8698L138.958 54.6771C138.807 53.9219 138.505 53.4688 138.052 53.3177ZM60.2657 68.4219C57.6979 77.4844 53.9219 89.8698 37.7604 89.8698 30.8125 89.8698 23.2604 86.5469 20.0886 81.7136 17.974 78.3907 18.125 70.3854 18.125 63.4375 18.125 61.3229 19.4844 59.5104 21.599 58.9063 26.1302 57.6979 31.5677 56.6407 36.25 56.6407 39.875 56.6407 47.125 57.6979 54.224 59.0573 58.6042 59.8125 61.474 64.1927 60.2657 68.4219ZM124.912 81.7136C121.74 86.5469 114.188 89.8698 107.24 89.8698 91.2292 89.8698 87.3021 77.4844 84.7344 68.4219 83.5261 64.1927 86.3959 59.8125 90.625 59.0573 97.724 57.6979 104.974 56.6407 108.599 56.6407 113.432 56.6407 118.719 57.6979 123.25 58.9063 125.365 59.5104 126.724 61.3229 126.724 63.4375 126.875 70.3854 127.026 78.3907 124.912 81.7136Z" stroke="#0888A6" stroke-width="1.51042" fill="#FFFFFF" transform="matrix(1.08276 0 0 1 1165 490)"/></g></g></g><path d="M1252.85 660.984 1258.01 643.984 1227.01 643.984 1232.18 660.984Z" stroke="#0684A2" stroke-width="4.58333" stroke-miterlimit="8" fill="#0BB5DD" fill-rule="evenodd"/><path d="M1257.5 737.1 1252.5 667.5 1232.5 667.5 1227.5 737.1 1242.5 751.5 1257.5 737.1Z" stroke="#0684A2" stroke-width="4.58333" stroke-miterlimit="8" fill="#0BB5DD" fill-rule="evenodd"/><path d="M1304 709 1304 745.665" stroke="#0888A6" stroke-width="13.75" stroke-linecap="round" stroke-miterlimit="8" fill="none" fill-rule="evenodd"/><path d="M1315 713 1315 749.664" stroke="#0888A6" stroke-width="13.75" stroke-linecap="round" stroke-miterlimit="8" fill="none" fill-rule="evenodd"/><path d="M1316.19 758.5 1308.81 758.5C1298.14 758.5 1289.5 749.836 1289.5 739.148L1289.5 723.5 1335.5 723.5 1335.5 739.148C1335.5 749.836 1326.86 758.5 1316.19 758.5Z" stroke="#0684A2" stroke-width="4.58333" stroke-miterlimit="8" fill="#0BB5DD" fill-rule="evenodd"/><path d="M1086.5 1244.48C1086.5 1203.62 1119.62 1170.5 1160.47 1170.5L2248.52 1170.5C2289.38 1170.5 2322.5 1203.62 2322.5 1244.48L2322.5 1318.52C2322.5 1359.38 2289.38 1392.5 2248.52 1392.5L1160.47 1392.5C1119.62 1392.5 1086.5 1359.38 1086.5 1318.52Z" stroke="#0684A2" stroke-width="4.58333" stroke-miterlimit="8" fill="#0BB5DD" fill-rule="evenodd"/><path d="M1182.5 1283.5C1182.5 1247.6 1211.6 1218.5 1247.5 1218.5 1283.4 1218.5 1312.5 1247.6 1312.5 1283.5 1312.5 1319.4 1283.4 1348.5 1247.5 1348.5 1211.6 1348.5 1182.5 1319.4 1182.5 1283.5Z" stroke="#0684A2" stroke-width="4.58333" stroke-miterlimit="8" fill="#FFFFFF" fill-rule="evenodd"/><path d="M1412.5 1283.5C1412.5 1247.6 1441.6 1218.5 1477.5 1218.5 1513.4 1218.5 1542.5 1247.6 1542.5 1283.5 1542.5 1319.4 1513.4 1348.5 1477.5 1348.5 1441.6 1348.5 1412.5 1319.4 1412.5 1283.5Z" stroke="#0684A2" stroke-width="4.58333" stroke-miterlimit="8" fill="#FFFFFF" fill-rule="evenodd"/><path d="M1642.5 1283.5C1642.5 1247.6 1671.38 1218.5 1707 1218.5 1742.62 1218.5 1771.5 1247.6 1771.5 1283.5 1771.5 1319.4 1742.62 1348.5 1707 1348.5 1671.38 1348.5 1642.5 1319.4 1642.5 1283.5Z" stroke="#0684A2" stroke-width="4.58333" stroke-miterlimit="8" fill="#FFFFFF" fill-rule="evenodd"/><path d="M1871.5 1283.5C1871.5 1247.6 1900.6 1218.5 1936.5 1218.5 1972.4 1218.5 2001.5 1247.6 2001.5 1283.5 2001.5 1319.4 1972.4 1348.5 1936.5 1348.5 1900.6 1348.5 1871.5 1319.4 1871.5 1283.5Z" stroke="#0684A2" stroke-width="4.58333" stroke-miterlimit="8" fill="#FFFFFF" fill-rule="evenodd"/><rect x="1209.5" y="1392.5" width="76" height="156" stroke="#0684A2" stroke-width="4.58333" stroke-miterlimit="8" fill="#0BB5DD"/><path d="M2104.5 1283.5C2104.5 1247.6 2133.6 1218.5 2169.5 1218.5 2205.4 1218.5 2234.5 1247.6 2234.5 1283.5 2234.5 1319.4 2205.4 1348.5 2169.5 1348.5 2133.6 1348.5 2104.5 1319.4 2104.5 1283.5Z" stroke="#0684A2" stroke-width="4.58333" stroke-miterlimit="8" fill="#FFFFFF" fill-rule="evenodd"/><rect x="2104.5" y="1393.5" width="76" height="155" stroke="#0684A2" stroke-width="4.58333" stroke-miterlimit="8" fill="#0BB5DD"/><rect x="2037.5" y="1047.5" width="37.0001" height="76" stroke="#0684A2" stroke-width="6.875" stroke-miterlimit="8" fill="#0BB5DD"/><rect x="2081.5" y="1028.5" width="37.0002" height="94.9999" stroke="#0684A2" stroke-width="6.875" stroke-miterlimit="8" fill="#0BB5DD"/><rect x="2125.5" y="1008.5" width="37.0002" height="115" stroke="#0684A2" stroke-width="6.875" stroke-miterlimit="8" fill="#0BB5DD"/><path d="M2020.93 1083.95C1960.45 1085 1910.57 1036.82 1909.52 976.344 1908.47 915.865 1956.65 865.986 2017.12 864.935 2077.6 863.884 2127.48 912.06 2128.53 972.538 2128.58 975.284 2128.53 978.031 2128.37 980.773" stroke="#0BB5DD" stroke-width="6.875" stroke-linecap="round" stroke-miterlimit="8" fill="none" fill-rule="evenodd"/><path d="M0 0 21.8639 24.1625" stroke="#0BB5DD" stroke-width="6.875" stroke-linecap="round" stroke-miterlimit="8" fill="none" fill-rule="evenodd" transform="matrix(1 0 0 -1 2127.5 986.662)"/><path d="M0 0 21.8639 24.1625" stroke="#0BB5DD" stroke-width="6.875" stroke-linecap="round" stroke-miterlimit="8" fill="none" fill-rule="evenodd" transform="matrix(-1.83697e-16 -1 -1 1.83697e-16 2126.66 986.364)"/><path d="M1973.18 999.56C1968.24 990.938 1968.2 971.804 1973.49 960.36 1978.77 948.916 1988.59 932.82 2015.91 932.424 2025.39 932.286 2039.31 930.08 2048.24 927.927 2057.17 925.773 2065.53 919.365 2069.48 919.502 2073.44 919.64 2072.59 923.317 2071.96 928.751 2071.32 934.186 2068.42 945.157 2065.65 952.107 2062.88 959.057 2055.28 979.279 2049.53 988.512 2043.78 997.744 2038.9 1003.57 2031.16 1007.5 2023.42 1011.43 2012.76 1013.41 2003.1 1012.09 1993.44 1010.77 1978.11 1008.18 1973.18 999.56Z" stroke="#2D3E50" stroke-width="6.875" stroke-linecap="round" stroke-miterlimit="8" fill="none" fill-rule="evenodd"/><path d="M1962.5 1027.5C1967.13 1007.56 1971.76 987.621 2012.5 974.5" stroke="#2D3E50" stroke-width="6.875" stroke-linecap="round" stroke-miterlimit="8" fill="none" fill-rule="evenodd"/><rect x="1845.5" y="848.5" width="50.9999" height="23.0001" stroke="#0684A2" stroke-width="6.875" stroke-miterlimit="8" fill="#0BB5DD"/><path d="M1896.5 860.5 1936.83 860.5" stroke="#0BB5DD" stroke-width="6.875" stroke-miterlimit="8" fill="none" fill-rule="evenodd"/><path d="M1936.5 860.5 1953.54 929.793" stroke="#0BB5DD" stroke-width="6.875" stroke-miterlimit="8" fill="none" fill-rule="evenodd"/><rect x="1882.5" y="1081.5" width="51.0002" height="23" stroke="#0684A2" stroke-width="6.875" stroke-miterlimit="8" fill="#0BB5DD"/><path d="M1933.5 1092.5 1969.78 1092.5" stroke="#0BB5DD" stroke-width="6.875" stroke-miterlimit="8" fill="none" fill-rule="evenodd"/><path d="M0 0 17.0413 69.2928" stroke="#0BB5DD" stroke-width="6.875" stroke-miterlimit="8" fill="none" fill-rule="evenodd" transform="matrix(1 0 0 -1 1969.5 1092.79)"/><rect x="2154.5" y="893.5" width="49.9998" height="23.0001" stroke="#0684A2" stroke-width="6.875" stroke-miterlimit="8" fill="#0BB5DD"/><path d="M2126.5 904.5 2153 904.5" stroke="#0BB5DD" stroke-width="6.875" stroke-miterlimit="8" fill="none" fill-rule="evenodd"/><path d="M0 0 74.7105 39.7884" stroke="#0BB5DD" stroke-width="6.875" stroke-miterlimit="8" fill="none" fill-rule="evenodd" transform="matrix(1 0 0 -1 2052.5 944.288)"/><path d="M2146.29 770.112C2151.31 770.124 2156.39 771.531 2160.88 774.426 2166.93 778.653 2170.67 784.804 2171.84 791.41 2173.01 798.016 2171.61 805.077 2167.38 811.126L2129.64 865.135C2124.51 872.48 2116.46 876.178 2108.12 876.142L2102.51 884.172 2099.81 881.715C2096.2 878.741 2092.45 875.935 2088.57 873.312L2078.4 867.136 2083.93 859.233C2081.03 851.419 2081.73 842.588 2086.87 835.243L2124.61 781.234C2129.7 773.943 2137.92 770.091 2146.29 770.112Z" stroke="#0BB5DD" stroke-width="6.875" stroke-linecap="round" stroke-miterlimit="8" fill="none" fill-rule="evenodd"/><path d="M788.179 1001.56C783.244 992.938 783.203 973.804 788.487 962.36 793.772 950.916 803.59 934.82 830.905 934.424 840.394 934.286 854.306 932.08 863.236 929.927 872.166 927.773 880.532 921.365 884.485 921.502 888.438 921.64 887.594 925.317 886.955 930.752 886.316 936.186 883.42 947.157 880.651 954.107 877.882 961.057 870.277 981.279 864.529 990.512 858.781 999.744 853.9 1005.57 846.162 1009.5 838.423 1013.43 827.763 1015.41 818.099 1014.09 808.435 1012.77 793.114 1010.18 788.179 1001.56Z" stroke="#2D3E50" stroke-width="6.875" stroke-linecap="round" stroke-miterlimit="8" fill="none" fill-rule="evenodd"/><path d="M777.5 1028.5C782.222 1008.56 786.944 988.621 828.5 975.5" stroke="#2D3E50" stroke-width="6.875" stroke-linecap="round" stroke-miterlimit="8" fill="none" fill-rule="evenodd"/><rect x="1413.5" y="1045.5" width="37.0001" height="76.0004" stroke="#0684A2" stroke-width="6.875" stroke-miterlimit="8" fill="#0BB5DD"/><rect x="1458.5" y="1025.5" width="36.0001" height="96.0002" stroke="#0684A2" stroke-width="6.875" stroke-miterlimit="8" fill="#0BB5DD"/><rect x="1501.5" y="1006.5" width="37.0001" height="115" stroke="#0684A2" stroke-width="6.875" stroke-miterlimit="8" fill="#0BB5DD"/><path d="M1350.18 997.56C1345.24 988.938 1345.2 969.805 1350.49 958.36 1355.77 946.916 1365.59 930.82 1392.91 930.424 1402.39 930.286 1416.31 928.08 1425.24 925.927 1434.17 923.773 1442.53 917.365 1446.48 917.502 1450.44 917.64 1449.59 921.317 1448.96 926.751 1448.32 932.185 1445.42 943.157 1442.65 950.107 1439.88 957.057 1432.28 977.279 1426.53 986.512 1420.78 995.744 1415.9 1001.57 1408.16 1005.5 1400.42 1009.43 1389.76 1011.41 1380.1 1010.09 1370.44 1008.77 1355.11 1006.18 1350.18 997.56Z" stroke="#2D3E50" stroke-width="6.875" stroke-linecap="round" stroke-miterlimit="8" fill="none" fill-rule="evenodd"/><path d="M1339.5 1025.5C1344.13 1005.56 1348.76 985.621 1389.5 972.5" stroke="#2D3E50" stroke-width="6.875" stroke-linecap="round" stroke-miterlimit="8" fill="none" fill-rule="evenodd"/><rect x="1259.5" y="1079.5" width="50.9999" height="23" stroke="#0684A2" stroke-width="6.875" stroke-miterlimit="8" fill="#0BB5DD"/><path d="M1310.5 1090.5 1346.78 1090.5" stroke="#0BB5DD" stroke-width="6.875" stroke-miterlimit="8" fill="none" fill-rule="evenodd"/><path d="M0 0 17.0413 69.2928" stroke="#0BB5DD" stroke-width="6.875" stroke-miterlimit="8" fill="none" fill-rule="evenodd" transform="matrix(1 0 0 -1 1346.5 1090.79)"/><path d="M1064.5 965.75 1123 965.75 1123 952.5 1149.5 979 1123 1005.5 1123 992.25 1064.5 992.25Z" stroke="#0684A2" stroke-width="4.58333" stroke-miterlimit="8" fill="#0BB5DD" fill-rule="evenodd"/><path d="M1658.5 974.75 1717 974.75 1717 961.5 1743.5 988 1717 1014.5 1717 1001.25 1658.5 1001.25Z" stroke="#0684A2" stroke-width="4.58333" stroke-miterlimit="8" fill="#0BB5DD" fill-rule="evenodd"/><text fill="#44546A" font-family="Shadows Into Light Two,Shadows Into Light Two_MSFontService,sans-serif" font-weight="700" font-size="83" transform="matrix(1 0 0 1 1910.75 614)">o<tspan font-size="83" x="31.5104" y="0">n</tspan><tspan font-size="83" x="69.3229" y="0">-</tspan><tspan font-size="83" x="105.99" y="0">site personnel </tspan><tspan font-size="83" x="118.594" y="99">assistance</tspan><tspan font-size="83" x="-1179.38" y="1083">t</tspan>echnical<tspan font-size="83" x="-919.848" y="1083">-</tspan>digital <tspan font-size="83" x="-1108.91" y="1182">assistance</tspan></text><path d="M553.786-4.85855 568.584-5.15521 583.419-5.03106 612.721-3.77651 641.741-1.00782 670.306 3.14762 698.436 8.69128 726.117 15.5582 753.183 23.7528 779.741 33.2715 805.717 43.9836 831.011 55.8983 855.614 69.0129 879.524 83.3265 902.659 98.6382 924.997 115.1 946.558 132.556 967.184 150.966 986.929 170.387 1005.73 190.754 1023.57 211.997 1040.41 234.06 1056.19 257.018 1070.83 280.73 1084.39 305.188 1096.75 330.352 1107.92 356.206 1117.83 382.761 1126.48 409.872 1133.8 437.558 1139.79 465.805 1144.34 494.571 1147.5 523.823 1149.21 553.454 1149.47 562.303 1139.16 562.599 1138.91 554.046 1137.25 524.927 1134.16 496.179 1129.71 467.945 1123.83 440.192 1116.65 413.003 1108.17 386.364 1098.45 360.294 1087.5 334.898 1075.36 310.187 1062.05 286.145 1047.69 262.857 1032.21 240.315 1015.68 218.628 998.148 197.746 979.696 177.738 960.316 158.659 940.067 140.569 918.878 123.4 896.966 107.237 874.226 92.1735 850.761 78.1121 826.614 65.2266 801.783 53.5164 776.259 42.9785 750.192 33.6222 723.633 25.5668 696.439 18.8087 668.819 13.3524 640.759 9.25782 612.279 6.52651 583.331 5.28106 568.791 5.15521 553.993 5.45188ZM1165.99 533.476 1144.61 572.68 1121.01 534.77C1119.5 532.352 1120.24 529.172 1122.66 527.667 1125.08 526.162 1128.26 526.902 1129.76 529.32L1148.69 559.726 1139.79 559.982 1156.94 528.538C1158.3 526.038 1161.43 525.117 1163.93 526.481 1166.43 527.844 1167.35 530.976 1165.99 533.476Z" fill="#44546A" transform="matrix(-0.659084 -0.75207 -0.75207 0.659084 2552.98 945.934)"/><path d="M553.786-4.85855 568.584-5.15521 583.419-5.03106 612.721-3.77651 641.741-1.00782 670.306 3.14762 698.436 8.69128 726.117 15.5582 753.183 23.7528 779.741 33.2715 805.717 43.9836 831.011 55.8983 855.614 69.0129 879.524 83.3265 902.659 98.6382 924.997 115.1 946.558 132.556 967.184 150.966 986.929 170.387 1005.73 190.754 1023.57 211.997 1040.41 234.06 1056.19 257.018 1070.83 280.73 1084.39 305.188 1096.75 330.352 1107.92 356.206 1117.83 382.761 1126.48 409.872 1133.8 437.558 1139.79 465.805 1144.34 494.571 1147.5 523.823 1149.21 553.454 1149.47 562.303 1139.16 562.599 1138.91 554.046 1137.25 524.927 1134.16 496.179 1129.71 467.945 1123.83 440.192 1116.65 413.003 1108.17 386.364 1098.45 360.294 1087.5 334.898 1075.36 310.187 1062.05 286.145 1047.69 262.857 1032.21 240.315 1015.68 218.628 998.148 197.746 979.696 177.738 960.316 158.659 940.067 140.569 918.878 123.4 896.966 107.237 874.226 92.1735 850.761 78.1121 826.614 65.2266 801.783 53.5164 776.259 42.9785 750.192 33.6222 723.633 25.5668 696.439 18.8087 668.819 13.3524 640.759 9.25782 612.279 6.52651 583.331 5.28106 568.791 5.15521 553.993 5.45188ZM1165.99 533.476 1144.61 572.68 1121.01 534.77C1119.5 532.352 1120.24 529.172 1122.66 527.667 1125.08 526.162 1128.26 526.902 1129.76 529.32L1148.69 559.726 1139.79 559.982 1156.94 528.538C1158.3 526.038 1161.43 525.117 1163.93 526.481 1166.43 527.844 1167.35 530.976 1165.99 533.476Z" fill="#44546A" transform="matrix(0.981659 0.190647 0.190647 -0.981659 598.127 1633.41)"/></g></svg>