<svg width="3525" height="1597" xmlns="http://www.w3.org/2000/svg" xmlns:xlink="http://www.w3.org/1999/xlink" xml:space="preserve" overflow="hidden"><defs><clipPath id="clip0"><rect x="540" y="383" width="3525" height="1597"/></clipPath></defs><g clip-path="url(#clip0)" transform="translate(-540 -383)"><path d="M545 857.471C545 852.793 548.793 849 553.471 849L1342.53 849C1347.21 849 1351 852.793 1351 857.471L1351 1751.53C1351 1756.21 1347.21 1760 1342.53 1760L553.471 1760C548.793 1760 545 1756.21 545 1751.53Z" stroke="#2D3E50" stroke-width="10.3125" stroke-linejoin="round" stroke-miterlimit="10" fill="none" fill-rule="evenodd"/><path d="M819 1654 1267.47 1654.33" stroke="#2D3E50" stroke-width="10.3125" stroke-linecap="round" stroke-linejoin="round" stroke-miterlimit="10" fill="none" fill-rule="evenodd"/><path d="M604 1653 694.796 1653.06" stroke="#2D3E50" stroke-width="10.3125" stroke-linecap="round" stroke-linejoin="round" stroke-miterlimit="10" fill="none" fill-rule="evenodd"/><path d="M616 922.616C616 916.753 620.753 912 626.616 912L1129.38 912C1135.25 912 1140 916.753 1140 922.616L1140 1010.38C1140 1016.25 1135.25 1021 1129.38 1021L626.616 1021C620.753 1021 616 1016.25 616 1010.38Z" fill="#0BB5DD" fill-rule="evenodd"/><path d="M542 1540 1357.31 1540" stroke="#2D3E50" stroke-width="10.3125" stroke-linejoin="round" stroke-miterlimit="10" fill="none" fill-rule="evenodd"/><path d="M741 1080.03C741 1076.15 744.147 1073 748.028 1073L1271.97 1073C1275.85 1073 1279 1076.15 1279 1080.03L1279 1311.97C1279 1315.85 1275.85 1319 1271.97 1319L748.028 1319C744.147 1319 741 1315.85 741 1311.97Z" fill="#0BB5DD" fill-rule="evenodd"/><path d="M747 1370.95C747 1368.22 749.218 1366 751.954 1366L1280.05 1366C1282.78 1366 1285 1368.22 1285 1370.95L1285 1470.05C1285 1472.78 1282.78 1475 1280.05 1475L751.954 1475C749.218 1475 747 1472.78 747 1470.05Z" fill="#0BB5DD" fill-rule="evenodd"/><path d="M621 1373.57C621 1368.84 624.838 1365 629.571 1365L700.429 1365C705.163 1365 709 1368.84 709 1373.57L709 1465.43C709 1470.16 705.163 1474 700.429 1474L629.571 1474C624.838 1474 621 1470.16 621 1465.43Z" fill="#0BB5DD" fill-rule="evenodd"/><path d="M1191 923.571C1191 918.838 1194.84 915 1199.57 915L1270.43 915C1275.16 915 1279 918.838 1279 923.571L1279 1015.43C1279 1020.16 1275.16 1024 1270.43 1024L1199.57 1024C1194.84 1024 1191 1020.16 1191 1015.43Z" fill="#0BB5DD" fill-rule="evenodd"/><path d="M621 1078.57C621 1073.84 624.838 1070 629.571 1070L700.429 1070C705.163 1070 709 1073.84 709 1078.57L709 1314.43C709 1319.16 705.163 1323 700.429 1323L629.571 1323C624.838 1323 621 1319.16 621 1314.43Z" fill="#0BB5DD" fill-rule="evenodd"/><path d="M713 1653.5C713 1627.27 734.043 1606 760 1606 785.957 1606 807 1627.27 807 1653.5 807 1679.73 785.957 1701 760 1701 734.043 1701 713 1679.73 713 1653.5Z" stroke="#2D3E50" stroke-width="10.3125" stroke-linejoin="round" stroke-miterlimit="10" fill="none" fill-rule="evenodd"/><text font-family="Arial,Arial_MSFontService,sans-serif" font-weight="400" font-size="83" transform="matrix(1 0 0 1 654.041 993)">sample name<tspan font-size="83" x="176.458" y="456">description</tspan><tspan font-size="110" x="229.167" y="244">tissue</tspan></text><path d="M1705.5 1168.25 1855 1168.25 1855 1143.5 1904.5 1193 1855 1242.5 1855 1217.75 1705.5 1217.75Z" stroke="#1E2B38" stroke-width="4.58333" stroke-miterlimit="8" fill="#2D3E50" fill-rule="evenodd"/><path d="M1835.5 1306.75 1686 1306.75 1686 1331.5 1636.5 1282 1686 1232.5 1686 1257.25 1835.5 1257.25Z" stroke="#1E2B38" stroke-width="4.58333" stroke-miterlimit="8" fill="#2D3E50" fill-rule="evenodd"/><text fill="#595959" font-family="Calibri,Calibri_MSFontService,sans-serif" font-weight="400" font-size="83" transform="matrix(1 0 0 1 773.998 1908)">static form<tspan font-size="83" x="2015.77" y="0">modular  schema</tspan></text><path d="M2179 1091.08C2179 1087.17 2182.17 1084 2186.08 1084L3868.92 1084C3872.83 1084 3876 1087.17 3876 1091.08L3876 1750.92C3876 1754.83 3872.83 1758 3868.92 1758L2186.08 1758C2182.17 1758 2179 1754.83 2179 1750.92Z" stroke="#2D3E50" stroke-width="10.3125" stroke-linejoin="round" stroke-miterlimit="10" fill="none" fill-rule="evenodd"/><path d="M2259.5 1314.12C2259.5 1293.9 2275.9 1277.5 2296.12 1277.5L2613.88 1277.5C2634.1 1277.5 2650.5 1293.9 2650.5 1314.12L2650.5 1616.88C2650.5 1637.1 2634.1 1653.5 2613.88 1653.5L2296.12 1653.5C2275.9 1653.5 2259.5 1637.1 2259.5 1616.88Z" stroke="#FFFFFF" stroke-width="6.875" stroke-miterlimit="8" fill="#1FC2A7" fill-rule="evenodd"/><path d="M2259.5 1184.25C2259.5 1172.79 2268.79 1163.5 2280.25 1163.5L2629.75 1163.5C2641.21 1163.5 2650.5 1172.79 2650.5 1184.25L2650.5 1355.75C2650.5 1367.21 2641.21 1376.5 2629.75 1376.5L2280.25 1376.5C2268.79 1376.5 2259.5 1367.21 2259.5 1355.75Z" stroke="#FFFFFF" stroke-width="6.875" stroke-miterlimit="8" fill="#0BB5DD" fill-rule="evenodd"/><text font-family="Arial,Arial_MSFontService,sans-serif" font-weight="400" font-size="64" transform="matrix(1 0 0 1 2269.19 1247)">characteristic<tspan font-size="64" x="39.2334" y="77">[organism]</tspan><tspan font-size="64" x="19.9524" y="277">´</tspan><tspan font-size="64" x="41.1502" y="277">value term’</tspan></text><path d="M3424.5 1328.03C3424.5 1307.85 3440.85 1291.5 3461.02 1291.5L3778.98 1291.5C3799.15 1291.5 3815.5 1307.85 3815.5 1328.03L3815.5 1629.97C3815.5 1650.15 3799.15 1666.5 3778.98 1666.5L3461.02 1666.5C3440.85 1666.5 3424.5 1650.15 3424.5 1629.97Z" stroke="#FFFFFF" stroke-width="6.875" stroke-miterlimit="8" fill="#1FC2A7" fill-rule="evenodd"/><path d="M3424.5 1198.25C3424.5 1186.79 3433.79 1177.5 3445.25 1177.5L3794.75 1177.5C3806.21 1177.5 3815.5 1186.79 3815.5 1198.25L3815.5 1369.75C3815.5 1381.21 3806.21 1390.5 3794.75 1390.5L3445.25 1390.5C3433.79 1390.5 3424.5 1381.21 3424.5 1369.75Z" stroke="#FFFFFF" stroke-width="6.875" stroke-miterlimit="8" fill="#0BB5DD" fill-rule="evenodd"/><text font-family="Arial,Arial_MSFontService,sans-serif" font-weight="400" font-size="64" transform="matrix(1 0 0 1 3477.38 1261)">parameter<tspan font-size="64" x="67.3062" y="77">[time]</tspan><tspan font-size="64" x="-23.0166" y="276">´</tspan><tspan font-size="64" x="-1.81885" y="276">value term’</tspan><tspan font-size="165" x="-758.518" y="175">+</tspan><tspan font-size="165" x="-199.428" y="189">+</tspan><tspan font-size="165" x="-462.367" y="297">…</tspan></text><path d="M3197.5 536.122C3197.5 515.896 3213.9 499.5 3234.12 499.5L3551.88 499.5C3572.1 499.5 3588.5 515.896 3588.5 536.122L3588.5 838.877C3588.5 859.103 3572.1 875.5 3551.88 875.5L3234.12 875.5C3213.9 875.5 3197.5 859.103 3197.5 838.877Z" stroke="#FFFFFF" stroke-width="6.875" stroke-miterlimit="8" fill="#1FC2A7" fill-rule="evenodd"/><path d="M3197.5 407.149C3197.5 395.745 3206.74 386.5 3218.15 386.5L3567.85 386.5C3579.25 386.5 3588.5 395.745 3588.5 407.149L3588.5 577.851C3588.5 589.255 3579.25 598.5 3567.85 598.5L3218.15 598.5C3206.74 598.5 3197.5 589.255 3197.5 577.851Z" stroke="#FFFFFF" stroke-width="6.875" stroke-miterlimit="8" fill="#0BB5DD" fill-rule="evenodd"/><text font-family="Arial,Arial_MSFontService,sans-serif" font-weight="400" font-size="64" transform="matrix(1 0 0 1 3207.46 469)">characteristic<tspan font-size="64" x="87.0835" y="77">[tissue]</tspan><tspan font-size="64" x="19.9524" y="277">´</tspan><tspan font-size="64" x="41.1504" y="277">value term’</tspan></text><path d="M3259.24 901.057 3250.47 931.213 3240.64 960.792 3229.83 989.478 3218.07 1017.15 3205.5 1043.75 3192.05 1069.25 3177.8 1093.55 3162.85 1116.57 3147.18 1138.26 3130.89 1158.54 3113.98 1177.31 3105.25 1186.23 3096.45 1194.65 3087.54 1202.64 3078.52 1210.22 3069.37 1217.36 3060.12 1224.07 3050.74 1230.33 3041.26 1236.17 3034.42 1239.96 3027.76 1227.93 3034.06 1224.45 3043.11 1218.89 3052.05 1212.94 3060.92 1206.51 3069.67 1199.7 3078.36 1192.4 3086.95 1184.7 3095.42 1176.61 3103.77 1168.1 3120.18 1149.92 3136.04 1130.2 3151.32 1109.08 3165.94 1086.6 3179.89 1062.83 3193.07 1037.88 3205.42 1011.77 3216.97 984.628 3227.59 956.453 3237.27 927.375 3246.04 897.219ZM3078.4 1243.43 3018.95 1240.16 3051.05 1190.02C3053.1 1186.82 3057.35 1185.89 3060.55 1187.94 3063.75 1189.98 3064.68 1194.23 3062.63 1197.43L3036.88 1237.65 3031.47 1227.08 3079.15 1229.7C3082.94 1229.91 3085.85 1233.15 3085.64 1236.94 3085.43 1240.73 3082.19 1243.63 3078.4 1243.43Z" fill="#595959"/><text font-family="Arial,Arial_MSFontService,sans-serif" font-weight="400" font-size="83" transform="matrix(1 0 0 1 3432.65 969)">building block</text></g></svg>