<svg width="2732" height="2467" xmlns="http://www.w3.org/2000/svg" xmlns:xlink="http://www.w3.org/1999/xlink" xml:space="preserve" overflow="hidden"><defs><clipPath id="clip0"><rect x="911" y="4" width="2732" height="2467"/></clipPath></defs><g clip-path="url(#clip0)" transform="translate(-911 -4)"><path d="M2383.44 1371.73 2386.27 1327.77 2358.79 1255.73 2352.77 1134.41 2379.52 1067.96 2460.18 987.746 2558.61 943.944 2641.45 935.182 2728.68 943.42 2779.51 969.423 2823.07 1014.81 2862.33 1086.56 2868.93 1182.58 2858.73 1272.04 2843.71 1330.63 2807.69 1382.89 2763.62 1434.38 2730.54 1465.42 2673.5 1483.16 2598.98 1476.26 2529.43 1461.07 2479.11 1443.46 2428.49 1462.92 2387.11 1488.98 2293.42 1576.71 2199.02 1659.43 2143.27 1705.73 2395.6 1721.74 2426.22 1712.74 2454.17 1680.33 2480.8 1639.99 2524.38 1608.32 2559.16 1591.5 2605.74 1581.97 2655.22 1592.47 2710.7 1590.82 2792.05 1613.31 2838.64 1631.99 2862.73 1647.38 2880.99 1663.97 2920.51 1691.08 2953.02 1713.55 2975.97 1738.27 2996.05 1771.17 3001.89 1798.19 3012.83 1847.22 3012.69 1893.97 3003.99 1931.54 2974.95 1980.86 2950.95 2008.83 2881.39 2042.48 2797.67 2064.77 2713.89 2071.9 2656.24 2058.52 2596.81 2036.4 2555.32 2011.53 2494.13 1988.25 2455.6 1949.72 2432.45 1907.74 2417.19 1856.87 2415.68 1831.69 2420.43 1798.57 2411.97 1783.91 2132.3 1754.38 2155.45 1796.36 2155.29 1786.69 2133.45 1752.63 2128.37 1709.99C2136.89 1704.7 2145.42 1699.42 2153.94 1694.14L2170.31 1679.26 2185.06 1665.32 2193.38 1649.66 2196.35 1636.01 2194.15 1613.41 2186.29 1601.67 2227.2 1574.79 2272.34 1527.03 2325.64 1482.14 2350.46 1453.71 2382.32 1409.27 2383.44 1371.73Z" stroke="#767171" stroke-width="1.14475" stroke-miterlimit="8" fill="#E2F0D9" fill-rule="evenodd"/><path d="M2061.62 1617.95 2061.62 1617.95 2046.59 1542.34 2041.21 1504.11 2045.03 1480.43 2053.13 1476.55 2083.89 1459.59 2099 1438.94 2106.16 1399.02 2105.58 1363.58 2107.86 1319.33 2096.12 1272.84 2086.48 1235.47 2074.35 1197.95 2068.82 1182.86 2061.93 1170.93C2058.99 1164.42 2060.24 1166.62 2058.74 1164.03L2057.27 1160.11 2053.3 1150.47 2046.51 1140.08 2041.09 1132.08 2036.11 1126.21 2029.6 1120.43 2025.56 1114.81 2019.64 1108.69 2015.09 1104.95 2015.09 1104.95 2010.8 1100.27 2003.85 1092.36 1999.4 1090.16 1992.63 1085.32 1986.46 1080.14 1978.15 1075.4 1972.67 1071.41 1968.81 1068.86 1961.7 1063.43 1957.16 1059.69 1957.16 1059.69 1950.73 1055.45 1947.22 1053.5 1941.83 1051.05 1933.62 1047.84 1927.29 1045.13 1919.17 1043.46 1914.12 1041.6 1906.85 1038.65 1897.1 1035.53 1888.38 1034.2 1879.82 1030.4 1873.93 1029.83 1866.49 1029.35 1856.49 1027.17C1850.37 1026.58 1852.31 1025.61 1850 1026.94L1843.76 1025.78 1835.13 1025.98 1824.63 1025.69 1813.62 1027.28 1807.47 1027.64 1801.32 1028.01 1794.92 1029.32 1784.42 1029.03 1777.33 1029.15 1771.09 1027.98C1764.71 1028.36 1766.72 1027.32 1764.34 1028.69L1761.27 1028.88 1751.29 1032.25 1743.11 1034.59 1732.97 1040.45 1730.93 1042.42 1724.8 1048.34 1719.19 1052.38 1711.96 1060.52 1705.77 1070.46 1696.92 1077.16 1688.76 1085.05 1685.11 1091.13 1682.93 1101.14 1675.28 1127.82 1671.57 1137.91 1673.3 1161.56 1672.89 1185.65 1682.91 1229.16 1686.86 1253.91 1693.84 1288.04 1702.39 1327.63 1712.36 1360.04 1718.17 1379.74 1729.87 1400.02 1758.67 1422.35 1778.74 1443.35 1800.36 1464.27 1826.77 1487.98 1842.53 1498.76 1856.32 1507.49 1876.26 1515.86 1898.12 1515.16 1917.66 1511.83C1923.97 1510.78 1921.51 1510.98 1925 1510.77L1940.97 1509.51 1954.89 1510.21 1969.66 1509.63 1981.39 1514.79 1992.13 1529.26 1995.23 1534.63 2003.67 1552.01C2006.27 1560.26 2004.52 1556.24 2009.02 1564.03L2011.2 1574.7C2012.07 1577.11 2013.01 1579.5 2013.8 1581.95 2014.02 1582.64 2013.94 1583.41 2014.24 1584.08 2014.79 1585.34 2015.61 1586.46 2016.3 1587.66L2018.58 1599.86C2020.69 1606.57 2019.42 1604.08 2021.51 1607.7L2023.6 1616.83 2025.51 1622.89 2027.42 1628.94C2028.05 1630.96 2028.85 1632.94 2029.32 1635 2029.55 1636 2029.51 1638.07 2029.51 1638.07L2032.19 1646.86 2034.7 1652.57 2035.32 1657.78C2037.43 1664.49 2036.16 1662 2038.26 1665.62L2038.1 1668.1 2039.15 1675.44 2044.52 1672.34 2051.24 1666.07 2053.69 1660.68 2054.95 1655.98 2058.51 1648.36 2061.62 1617.95Z" stroke="#767171" stroke-width="1.14475" stroke-miterlimit="8" fill="#E2F0D9" fill-rule="evenodd"/><path d="M1733.31 1405.98 1748.92 1439.9 1757.46 1458.82 1770.96 1478.06 1784.49 1487.74 1789.63 1491.13 1804.2 1502.6 1814.48 1509.38 1821.5 1513.28 1829.81 1518.03 1834.95 1521.42 1843.5 1525.23 1881.95 1528.47 1891.7 1531.59 1905.72 1533.83 1917.17 1534.38 1928.2 1538.34 1939.44 1550.93 1943.14 1555.96 1955.88 1578.02 1966.89 1597.1 1977.47 1614.05 1988.68 1636.2 1995.15 1651.55 2004.1 1667.05 2011.08 1680.52 2025.53 1684.89 2035.78 1686.13 2039.93 1678.17 2041.19 1673.46 2010.7 1576.58 1999.13 1548.28 1997.48 1541.28 1987.15 1523.39 1971.89 1510.73 1950.1 1507.41 1904.27 1514.79 1876.26 1515.86 1846.04 1500.7 1801.39 1466.06 1733.31 1405.98Z" stroke="#767171" stroke-width="1.14475" stroke-miterlimit="8" fill="#E2F0D9" fill-rule="evenodd"/><path d="M1985.82 1686.35 1912.34 1659.6 1833.38 1628.87 1770.93 1606.09 1717.27 1580.62 1698.09 1569.43 1680.46 1543.03 1667.88 1518.49 1656.93 1495.4 1646.51 1475.97 1635.84 1457.48 1623.82 1442.17 1611.54 1427.79 1594.56 1412.15 1572.53 1394.65 1536.74 1373.97 1496.43 1355.11 1464.36 1345 1451.69 1339.59 1430.13 1329.78 1389.87 1322.02 1344.86 1322.56 1301.44 1334.11 1243.46 1354.87 1222.77 1369.99 1192.77 1384.13 1165.8 1407.65 1150.76 1424.29 1136.41 1442.11 1114.55 1463.48 1101.1 1491.12 1085.59 1556.53 1081.82 1611.97 1091.73 1669.06 1115.3 1727.8 1129.83 1748.83 1201.76 1811.46 1290.23 1866.92 1357.01 1884.81 1410.72 1900.72 1468.55 1903.11 1518.65 1894.85 1584.08 1859.46 1636.04 1810.38 1658.51 1773.55 1676.3 1720.35 1697.69 1691.31 1727.85 1674.69 1769.23 1665.11 1817.61 1674.54 1961.32 1725.15 1971.38 1702.64 1985.82 1686.35Z" stroke="#767171" stroke-width="1.14475" stroke-miterlimit="8" fill="#E2F0D9" fill-rule="evenodd"/><path d="M2138.15 1849.66 2175.48 1947.37 2209.12 1983.6 2230.34 1992.82 2261.11 2017.19 2275.68 2028.66 2291.59 2072.74 2298.5 2110.89 2291.5 2168.99 2268.09 2205.57 2219.73 2237.47 2203.53 2245.23 2177.09 2251.75 2155.57 2253.04 2137.26 2246.12 2118.27 2238 2099.43 2227.41 2087.68 2216.7 2071.62 2195.76 2064.64 2182.3 2060.51 2175.15 2055.92 2160.31 2052.63 2151.87 2051.83 2143.58 2050.17 2136.59 2047.67 2130.88 2049.12 2129.25 2047.46 2122.25 2047.03 2120.12 2045.03 2112.53 2044.59 2110.39 2044.91 2105.44 2044.54 2099.29 2045.37 2092.46 2048.07 2086.12C2049.21 2077.89 2050.45 2080.61 2048.46 2077.15L2048.96 2075.27 2049.69 2066.9 2049.14 2057.68 2051.84 2051.35 2065.35 2034.8 2085.83 2011.05 2104.63 1995.43 2115.53 1986.75 2121.1 1971.61 2121.32 1965.12 2119.04 1932.25 2116.21 1910.82C2113.54 1903.36 2114.9 1905.8 2113.27 1902.98L2107.74 1887.89 2138.15 1849.66Z" stroke="#767171" stroke-width="1.14475" stroke-miterlimit="8" fill="#E2F0D9" fill-rule="evenodd"/><path d="M2151.63 1558.03 2177.91 1589.76 2192.21 1617.29 2191 1653.76 2164.66 1682.49C2155.8 1687.34 2146.93 1692.19 2138.07 1697.04L2122.16 1709.41 2099.38 1715.4 2082.11 1710.27 2065.24 1701.72 2050.86 1693.33 2038.01 1684.85 2041.03 1673.56 2056.51 1659.06 2064.81 1643.13 2065.24 1624.6 2067.26 1617.07 2074.11 1602.78 2079.8 1594.73 2085.74 1585.73 2091.42 1577.68 2094.82 1572.54 2101.28 1567.22 2110.82 1561.71 2119.17 1556.89 2151.63 1558.03Z" stroke="#767171" stroke-width="1.14475" stroke-miterlimit="8" fill="#E2F0D9" fill-rule="evenodd"/><path d="M1989.94 1939.99 2033.85 1941.67C2039.73 1938.54 2045.61 1935.41 2051.49 1932.28L2063.6 1928.47 2073.73 1922.62 2081.71 1911.65 2088.16 1900.78 2095.72 1893.23 2105.24 1882.17 2138.24 1851.19 2145.25 1834.42 2149.97 1820.56 2151.71 1808.43 2154.39 1796.54 2156.57 1786.54 2150.53 1773.33C2147.85 1767.2 2149.07 1769.42 2147.34 1766.43L2142.87 1758.68 2139.77 1753.31 2134.26 1743.77 2130.13 1736.61 2124.27 1726.47 2120.58 1721.45 2111.59 1715.51 2099.54 1715.31 2090.57 1714.92 2063.11 1704.54 2036.89 1683.9 2012.89 1685.04 1999.47 1682.45 1985.23 1686.7 1970.37 1706.41 1962.42 1722.92 1955.63 1733.2 1953.52 1739.19 1953.04 1746.62 1951.17 1766.79 1952.13 1772.59 1953.03 1782.41 1953.99 1788.21 1954.96 1794.01C1954.11 1801.08 1952.99 1798.86 1954.48 1801.45L1953.56 1806.75 1952.33 1817 1950.31 1824.53 1947.61 1830.86 1947.41 1842.9C1948.17 1850.1 1946.99 1847.69 1948.81 1850.84L1948.05 1853.66 1949.71 1860.65C1949.09 1867.01 1948.15 1864.84 1949.82 1867.74L1949.16 1872.1C1951.62 1879.37 1952.01 1876.49 1950.9 1880.63L1951.78 1884.9 1951.73 1894.47 1954.77 1903.85 1957.61 1910.15 1959.33 1913.14 1965.19 1923.27 1968.28 1928.64 1989.94 1939.99Z" stroke="#767171" stroke-width="1.14475" stroke-miterlimit="8" fill="#E2F0D9" fill-rule="evenodd"/><path d="M0 0 475.741 157.635" stroke="#A5A5A5" stroke-width="6.87356" stroke-miterlimit="8" fill="none" fill-rule="evenodd" transform="matrix(3.78155e-06 1 1 -3.78155e-06 993.007 1487.87)"/><path d="M1059.37 2436.57 1150.64 1963.62" stroke="#A5A5A5" stroke-width="6.87356" stroke-miterlimit="8" fill="none" fill-rule="evenodd"/><path d="M1158.52 1922.13 1250.22 1415.98" stroke="#A5A5A5" stroke-width="6.87356" stroke-miterlimit="8" fill="none" fill-rule="evenodd"/><path d="M0 0 236.125 282.285" stroke="#A5A5A5" stroke-width="6.87356" stroke-miterlimit="8" fill="none" fill-rule="evenodd" transform="matrix(3.78155e-06 1 1 -3.78155e-06 1237.85 1398.96)"/><path d="M1901.87 1789.67 1147.88 1972.64" stroke="#A5A5A5" stroke-width="6.87356" stroke-miterlimit="8" fill="none" fill-rule="evenodd"/><path d="M1901.87 1780.2 1655.8 2367" stroke="#A5A5A5" stroke-width="6.87356" stroke-miterlimit="8" fill="none" fill-rule="evenodd"/><path d="M0 0 397.501 523.693" stroke="#A5A5A5" stroke-width="6.87356" stroke-miterlimit="8" fill="none" fill-rule="evenodd" transform="matrix(-3.78155e-06 -1 -1 3.78155e-06 1668.41 2366.99)"/><path d="M0 0 164.601 407.454" stroke="#A5A5A5" stroke-width="6.87356" stroke-miterlimit="8" fill="none" fill-rule="evenodd" transform="matrix(-3.78155e-06 -1 -1 3.78155e-06 1911.34 1786.52)"/><path d="M0 0 154.196 304.986" stroke="#A5A5A5" stroke-width="6.87356" stroke-miterlimit="8" fill="none" fill-rule="evenodd" transform="matrix(3.78155e-06 1 1 -3.78155e-06 1893.43 1777.44)"/><path d="M0 0 337.553 59.9446" stroke="#A5A5A5" stroke-width="6.87356" stroke-miterlimit="8" fill="none" fill-rule="evenodd" transform="matrix(3.78155e-06 1 1 -3.78155e-06 1908.18 1780.21)"/><path d="M2138.48 1086.15 1905.03 1786.52" stroke="#A5A5A5" stroke-width="6.87356" stroke-miterlimit="8" fill="none" fill-rule="evenodd"/><path d="M2561.22 1546.76 1919.17 1795.71" stroke="#A5A5A5" stroke-width="6.87356" stroke-miterlimit="8" fill="none" fill-rule="evenodd"/><path d="M0 0 438.521 410.114" stroke="#A5A5A5" stroke-width="6.87356" stroke-miterlimit="8" fill="none" fill-rule="evenodd" transform="matrix(3.78155e-06 1 1 -3.78155e-06 2160.57 1111.39)"/><path d="M0 0 219.581 405.59" stroke="#A5A5A5" stroke-width="6.87356" stroke-miterlimit="8" fill="none" fill-rule="evenodd" transform="matrix(3.78155e-06 1 1 -3.78155e-06 1736.04 860.267)"/><path d="M0 0 359.647 179.82" stroke="#A5A5A5" stroke-width="6.87356" stroke-miterlimit="8" fill="none" fill-rule="evenodd" transform="matrix(3.78155e-06 1 1 -3.78155e-06 2065.92 64.0089)"/><path d="M0 0 376.804 269.818" stroke="#A5A5A5" stroke-width="6.87356" stroke-miterlimit="8" fill="none" fill-rule="evenodd" transform="matrix(-3.78155e-06 -1 -1 3.78155e-06 2944.61 825.692)"/><path d="M1999.67 688.653 2245.74 423.65" stroke="#A5A5A5" stroke-width="6.87356" stroke-miterlimit="8" fill="none" fill-rule="evenodd"/><path d="M2141.63 1086.15 2674.79 458.065" stroke="#A5A5A5" stroke-width="6.87356" stroke-miterlimit="8" fill="none" fill-rule="evenodd"/><path d="M2138.48 1101.92 2242.59 420.495" stroke="#A5A5A5" stroke-width="6.87356" stroke-miterlimit="8" fill="none" fill-rule="evenodd"/><path d="M0 0 369.395 135.656" stroke="#A5A5A5" stroke-width="6.87356" stroke-miterlimit="8" fill="none" fill-rule="evenodd" transform="matrix(-3.78155e-06 -1 -1 3.78155e-06 2135.33 1064.35)"/><path d="M0 0 303.801 361.426" stroke="#A5A5A5" stroke-width="6.87356" stroke-miterlimit="8" fill="none" fill-rule="evenodd" transform="matrix(-3.78155e-06 -1 -1 3.78155e-06 2920.86 1827.51)"/><path d="M0 0 98.2309 389.766" stroke="#A5A5A5" stroke-width="6.87356" stroke-miterlimit="8" fill="none" fill-rule="evenodd" transform="matrix(-3.78155e-06 -1 -1 3.78155e-06 3277.34 1884.31)"/><path d="M3271.04 1881.14 2860.92 2117.75" stroke="#A5A5A5" stroke-width="6.87356" stroke-miterlimit="8" fill="none" fill-rule="evenodd"/><path d="M0 0 365.954 25.235" stroke="#A5A5A5" stroke-width="6.87356" stroke-miterlimit="8" fill="none" fill-rule="evenodd" transform="matrix(-3.78155e-06 -1 -1 3.78155e-06 2580.14 1915.84)"/><path d="M2920.86 1789.66 3054.97 1453.31" stroke="#A5A5A5" stroke-width="6.87356" stroke-miterlimit="8" fill="none" fill-rule="evenodd"/><path d="M3271.05 1884.31 3577.06 1846.45" stroke="#A5A5A5" stroke-width="6.87356" stroke-miterlimit="8" fill="none" fill-rule="evenodd"/><path d="M2556.35 1906.49 2867.24 1818.05" stroke="#A5A5A5" stroke-width="6.87356" stroke-miterlimit="8" fill="none" fill-rule="evenodd"/><path d="M0 0 205.059 287.084" stroke="#A5A5A5" stroke-width="6.87356" stroke-miterlimit="8" fill="none" fill-rule="evenodd" transform="matrix(3.78155e-06 1 1 -3.78155e-06 2580.14 1906.43)"/><path d="M0 133.257C-2.10067e-14 59.6613 59.6613-2.10067e-14 133.257-4.20134e-14 206.853-8.40268e-14 266.515 59.6613 266.515 133.257 266.515 206.853 206.853 266.515 133.257 266.515 59.6613 266.515-8.40268e-14 206.853 0 133.257Z" stroke="#787878" stroke-width="4.58369" stroke-miterlimit="8" fill="#A5A5A5" fill-rule="evenodd" transform="matrix(3.78155e-06 1 1 -3.78155e-06 2012.16 957.428)"/><path d="M0 95.1323C-2.10067e-14 42.5922 42.5922 0 95.1323 0 147.672 0 190.265 42.5922 190.265 95.1323 190.265 147.672 147.672 190.265 95.1323 190.265 42.5922 190.265-4.20134e-14 147.672 0 95.1323Z" stroke="#787878" stroke-width="4.58369" stroke-miterlimit="8" fill="#A5A5A5" fill-rule="evenodd" transform="matrix(3.78155e-06 1 1 -3.78155e-06 3162.54 1786.08)"/><path d="M0 59.8702C-1.05034e-14 26.8048 26.8048-1.05034e-14 59.8702-2.10067e-14 92.9357-4.20134e-14 119.74 26.8048 119.74 59.8702 119.74 92.9357 92.9357 119.74 59.8702 119.74 26.8048 119.74-3.15101e-14 92.9357 0 59.8702Z" stroke="#787878" stroke-width="4.58369" stroke-miterlimit="8" fill="#A5A5A5" fill-rule="evenodd" transform="matrix(3.78155e-06 1 1 -3.78155e-06 2898.02 779.924)"/><path d="M0 59.8702C-1.05034e-14 26.8048 26.8048-1.05034e-14 59.8702-2.10067e-14 92.9357-4.20134e-14 119.74 26.8048 119.74 59.8702 119.74 92.9357 92.9357 119.74 59.8702 119.74 26.8048 119.74-3.15101e-14 92.9357 0 59.8702Z" stroke="#787878" stroke-width="4.58369" stroke-miterlimit="8" fill="#A5A5A5" fill-rule="evenodd" transform="matrix(3.78155e-06 1 1 -3.78155e-06 2003.86 6.99143)"/><path d="M0 59.8702C-1.05034e-14 26.8048 26.8048-1.05034e-14 59.8702-2.10067e-14 92.9357-4.20134e-14 119.74 26.8048 119.74 59.8702 119.74 92.9357 92.9357 119.74 59.8702 119.74 26.8048 119.74-3.15101e-14 92.9357 0 59.8702Z" stroke="#787878" stroke-width="4.58369" stroke-miterlimit="8" fill="#A5A5A5" fill-rule="evenodd" transform="matrix(3.78155e-06 1 1 -3.78155e-06 1704.22 816.567)"/><path d="M0 59.8702C-1.05034e-14 26.8048 26.8048-1.05034e-14 59.8702-2.10067e-14 92.9357-4.20134e-14 119.74 26.8048 119.74 59.8702 119.74 92.9357 92.9357 119.74 59.8702 119.74 26.8048 119.74-3.15101e-14 92.9357 0 59.8702Z" stroke="#787878" stroke-width="4.58369" stroke-miterlimit="8" fill="#A5A5A5" fill-rule="evenodd" transform="matrix(3.78155e-06 1 1 -3.78155e-06 1943.99 636.971)"/><path d="M0 59.8702C-1.05034e-14 26.8048 26.8048-1.05034e-14 59.8702-2.10067e-14 92.9357-4.20134e-14 119.74 26.8048 119.74 59.8702 119.74 92.9357 92.9357 119.74 59.8702 119.74 26.8048 119.74-3.15101e-14 92.9357 0 59.8702Z" stroke="#787878" stroke-width="4.58369" stroke-miterlimit="8" fill="#A5A5A5" fill-rule="evenodd" transform="matrix(3.78155e-06 1 1 -3.78155e-06 2610.6 386.894)"/><path d="M0 59.8702C-1.05034e-14 26.8048 26.8048-1.05034e-14 59.8702-2.10067e-14 92.9357-4.20134e-14 119.74 26.8048 119.74 59.8702 119.74 92.9357 92.9357 119.74 59.8702 119.74 26.8048 119.74-3.15101e-14 92.9357 0 59.8702Z" stroke="#787878" stroke-width="4.58369" stroke-miterlimit="8" fill="#A5A5A5" fill-rule="evenodd" transform="matrix(3.78155e-06 1 1 -3.78155e-06 2995.2 1401.86)"/><path d="M0 59.8702C-1.05034e-14 26.8048 26.8048-1.05034e-14 59.8702-2.10067e-14 92.9357-4.20134e-14 119.74 26.8048 119.74 59.8702 119.74 92.9357 92.9357 119.74 59.8702 119.74 26.8048 119.74-3.15101e-14 92.9357 0 59.8702Z" stroke="#787878" stroke-width="4.58369" stroke-miterlimit="8" fill="#A5A5A5" fill-rule="evenodd" transform="matrix(3.78155e-06 1 1 -3.78155e-06 2517.85 1845.94)"/><path d="M0 59.8702C-1.05034e-14 26.8048 26.8048-1.05034e-14 59.8702-2.10067e-14 92.9357-4.20134e-14 119.74 26.8048 119.74 59.8702 119.74 92.9357 92.9357 119.74 59.8702 119.74 26.8048 119.74-3.15101e-14 92.9357 0 59.8702Z" stroke="#787878" stroke-width="4.58369" stroke-miterlimit="8" fill="#A5A5A5" fill-rule="evenodd" transform="matrix(3.78155e-06 1 1 -3.78155e-06 2801.04 2057.94)"/><path d="M0 59.8702C-1.05034e-14 26.8048 26.8048-1.05034e-14 59.8702-2.10067e-14 92.9357-4.20134e-14 119.74 26.8048 119.74 59.8702 119.74 92.9357 92.9357 119.74 59.8702 119.74 26.8048 119.74-3.15101e-14 92.9357 0 59.8702Z" stroke="#787878" stroke-width="4.58369" stroke-miterlimit="8" fill="#A5A5A5" fill-rule="evenodd" transform="matrix(3.78155e-06 1 1 -3.78155e-06 1461.84 1574.9)"/><path d="M0 78.7431C0 35.2545 35.2545-1.05034e-14 78.7431-2.10067e-14 122.232-3.15101e-14 157.486 35.2545 157.486 78.7431 157.486 122.232 122.232 157.486 78.7431 157.486 35.2545 157.486-4.20134e-14 122.232 0 78.7431Z" stroke="#787878" stroke-width="4.58369" stroke-miterlimit="8" fill="#A5A5A5" fill-rule="evenodd" transform="matrix(3.78155e-06 1 1 -3.78155e-06 1581.57 2286.3)"/><path d="M0 78.7431C0 35.2545 35.2545-1.05034e-14 78.7431-2.10067e-14 122.232-3.15101e-14 157.486 35.2545 157.486 78.7431 157.486 122.232 122.232 157.486 78.7431 157.486 35.2545 157.486-4.20134e-14 122.232 0 78.7431Z" stroke="#787878" stroke-width="4.58369" stroke-miterlimit="8" fill="#A5A5A5" fill-rule="evenodd" transform="matrix(3.78155e-06 1 1 -3.78155e-06 2471.59 1470.36)"/><path d="M0 78.7431C0 35.2545 35.2545-1.05034e-14 78.7431-2.10067e-14 122.232-3.15101e-14 157.486 35.2545 157.486 78.7431 157.486 122.232 122.232 157.486 78.7431 157.486 35.2545 157.486-4.20134e-14 122.232 0 78.7431Z" stroke="#787878" stroke-width="4.58369" stroke-miterlimit="8" fill="#A5A5A5" fill-rule="evenodd" transform="matrix(3.78155e-06 1 1 -3.78155e-06 914.273 1487.87)"/><path d="M0 42.4002C-5.25168e-15 18.9832 18.9832-1.5755e-14 42.4002-2.10067e-14 65.8171-2.62584e-14 84.8003 18.9832 84.8003 42.4002 84.8003 65.8171 65.8171 84.8003 42.4002 84.8003 18.9832 84.8003-3.15101e-14 65.8171 0 42.4002Z" stroke="#787878" stroke-width="4.58369" stroke-miterlimit="8" fill="#A5A5A5" fill-rule="evenodd" transform="matrix(3.78155e-06 1 1 -3.78155e-06 1013.84 2383.21)"/><path d="M0 42.4002C-5.25168e-15 18.9832 18.9832-1.5755e-14 42.4002-2.10067e-14 65.8171-2.62584e-14 84.8003 18.9832 84.8003 42.4002 84.8003 65.8171 65.8171 84.8003 42.4002 84.8003 18.9832 84.8003-3.15101e-14 65.8171 0 42.4002Z" stroke="#787878" stroke-width="4.58369" stroke-miterlimit="8" fill="#A5A5A5" fill-rule="evenodd" transform="matrix(3.78155e-06 1 1 -3.78155e-06 1923.35 2075.41)"/><path d="M0 42.4002C-5.25168e-15 18.9832 18.9832-1.5755e-14 42.4002-2.10067e-14 65.8171-2.62584e-14 84.8003 18.9832 84.8003 42.4002 84.8003 65.8171 65.8171 84.8003 42.4002 84.8003 18.9832 84.8003-3.15101e-14 65.8171 0 42.4002Z" stroke="#787878" stroke-width="4.58369" stroke-miterlimit="8" fill="#A5A5A5" fill-rule="evenodd" transform="matrix(3.78155e-06 1 1 -3.78155e-06 2163.61 1891.54)"/><path d="M0 0 28.3932 429.049" stroke="#A5A5A5" stroke-width="6.87356" stroke-miterlimit="8" fill="none" fill-rule="evenodd" transform="matrix(3.78155e-06 1 1 -3.78155e-06 2242.59 417.344)"/><path d="M0 60.3372C-1.05034e-14 27.0139 27.0139-2.10067e-14 60.3372-2.10067e-14 93.6606-3.15101e-14 120.674 27.0139 120.674 60.3372 120.674 93.6606 93.6606 120.674 60.3372 120.674 27.0139 120.674-3.15101e-14 93.6606 0 60.3372Z" stroke="#787878" stroke-width="4.58369" stroke-miterlimit="8" fill="#A5A5A5" fill-rule="evenodd" transform="matrix(3.78155e-06 1 1 -3.78155e-06 2520.81 1841.68)"/><path d="M0 60.3372C-1.05034e-14 27.0139 27.0139-2.10067e-14 60.3372-2.10067e-14 93.6606-3.15101e-14 120.674 27.0139 120.674 60.3372 120.674 93.6606 93.6606 120.674 60.3372 120.674 27.0139 120.674-3.15101e-14 93.6606 0 60.3372Z" stroke="#787878" stroke-width="4.58369" stroke-miterlimit="8" fill="#A5A5A5" fill-rule="evenodd" transform="matrix(3.78155e-06 1 1 -3.78155e-06 2802.9 2052.87)"/><path d="M0 60.3372C-1.05034e-14 27.0139 27.0139-2.10067e-14 60.3372-2.10067e-14 93.6606-3.15101e-14 120.674 27.0139 120.674 60.3372 120.674 93.6606 93.6606 120.674 60.3372 120.674 27.0139 120.674-3.15101e-14 93.6606 0 60.3372Z" stroke="#787878" stroke-width="4.58369" stroke-miterlimit="8" fill="#A5A5A5" fill-rule="evenodd" transform="matrix(3.78155e-06 1 1 -3.78155e-06 2167.94 1887.1)"/><path d="M0 95.1323C-2.10067e-14 42.5922 42.5922 0 95.1323 0 147.672 0 190.265 42.5922 190.265 95.1323 190.265 147.672 147.672 190.265 95.1323 190.265 42.5922 190.265-4.20134e-14 147.672 0 95.1323Z" stroke="#0BB5DD" stroke-width="4.58369" stroke-miterlimit="8" fill="#0BB5DD" fill-rule="evenodd" transform="matrix(3.78155e-06 1 1 -3.78155e-06 2804.94 1694.65)"/><path d="M0 59.8702C-1.05034e-14 26.8048 26.8048-1.05034e-14 59.8702-2.10067e-14 92.9357-4.20134e-14 119.74 26.8048 119.74 59.8702 119.74 92.9357 92.9357 119.74 59.8702 119.74 26.8048 119.74-3.15101e-14 92.9357 0 59.8702Z" stroke="#0BB5DD" stroke-width="4.58369" stroke-miterlimit="8" fill="#0BB5DD" fill-rule="evenodd" transform="matrix(3.78155e-06 1 1 -3.78155e-06 3520.16 1786.07)"/><path d="M0 95.1323C-2.10067e-14 42.5922 42.5922 0 95.1323 0 147.672 0 190.265 42.5922 190.265 95.1323 190.265 147.672 147.672 190.265 95.1323 190.265 42.5922 190.265-4.20134e-14 147.672 0 95.1323Z" stroke="#0BB5DD" stroke-width="4.58369" stroke-miterlimit="8" fill="#0BB5DD" fill-rule="evenodd" transform="matrix(3.78155e-06 1 1 -3.78155e-06 1054.14 1872.34)"/><path d="M0 117.526C-2.10067e-14 52.6182 52.6182-4.20134e-14 117.526-4.20134e-14 182.434-8.40268e-14 235.052 52.6182 235.052 117.526 235.052 182.434 182.434 235.052 117.526 235.052 52.6182 235.052-8.40268e-14 182.434 0 117.526Z" stroke="#0BB5DD" stroke-width="4.58369" stroke-miterlimit="8" fill="#0BB5DD" fill-rule="evenodd" transform="matrix(3.78155e-06 1 1 -3.78155e-06 1124.2 1294.86)"/><path d="M0 78.7431C0 35.2545 35.2545-1.05034e-14 78.7431-2.10067e-14 122.232-3.15101e-14 157.486 35.2545 157.486 78.7431 157.486 122.232 122.232 157.486 78.7431 157.486 35.2545 157.486-4.20134e-14 122.232 0 78.7431Z" stroke="#0BB5DD" stroke-width="4.58369" stroke-miterlimit="8" fill="#0BB5DD" fill-rule="evenodd" transform="matrix(3.78155e-06 1 1 -3.78155e-06 1821.48 1707.33)"/><path d="M0 59.8702C-1.05034e-14 26.8048 26.8048-1.05034e-14 59.8702-2.10067e-14 92.9357-4.20134e-14 119.74 26.8048 119.74 59.8702 119.74 92.9357 92.9357 119.74 59.8702 119.74 26.8048 119.74-3.15101e-14 92.9357 0 59.8702Z" stroke="#787878" stroke-width="4.58369" stroke-miterlimit="8" fill="#A5A5A5" fill-rule="evenodd" transform="matrix(3.78155e-06 1 1 -3.78155e-06 2179.05 361.992)"/><path d="M0 60.3372C-1.05034e-14 27.0139 27.0139-2.10067e-14 60.3372-2.10067e-14 93.6606-3.15101e-14 120.674 27.0139 120.674 60.3372 120.674 93.6606 93.6606 120.674 60.3372 120.674 27.0139 120.674-3.15101e-14 93.6606 0 60.3372Z" stroke="#787878" stroke-width="4.58369" stroke-miterlimit="8" fill="#A5A5A5" fill-rule="evenodd" transform="matrix(3.78155e-06 1 1 -3.78155e-06 2613.2 388.287)"/></g></svg>