<svg width="2836" height="1510" xmlns="http://www.w3.org/2000/svg" xmlns:xlink="http://www.w3.org/1999/xlink" overflow="hidden"><defs><clipPath id="clip0"><rect x="281" y="360" width="2836" height="1510"/></clipPath></defs><g clip-path="url(#clip0)" transform="translate(-281 -360)"><path d="M1427 611C1427 566.265 1463.04 530 1507.5 530 1551.96 530 1588 566.265 1588 611 1588 655.735 1551.96 692 1507.5 692 1463.04 692 1427 655.735 1427 611Z" fill="#0BB5DD" fill-rule="evenodd"/><path d="M987 1197.5C987 1153.04 1023.04 1117 1067.5 1117 1111.96 1117 1148 1153.04 1148 1197.5 1148 1241.96 1111.96 1278 1067.5 1278 1023.04 1278 987 1241.96 987 1197.5Z" fill="#0BB5DD" fill-rule="evenodd"/><path d="M525 981.5C525 937.041 561.041 901 605.5 901 649.959 901 686 937.041 686 981.5 686 1025.96 649.959 1062 605.5 1062 561.041 1062 525 1025.96 525 981.5Z" fill="#0BB5DD" fill-rule="evenodd"/><path d="M869 986.5C869 953.639 895.415 927 928 927 960.585 927 987 953.639 987 986.5 987 1019.36 960.585 1046 928 1046 895.415 1046 869 1019.36 869 986.5Z" fill="#0BB5DD" fill-rule="evenodd"/><path d="M992 823.5C992 790.639 1018.42 764 1051 764 1083.58 764 1110 790.639 1110 823.5 1110 856.361 1083.58 883 1051 883 1018.42 883 992 856.361 992 823.5Z" fill="#0BB5DD" fill-rule="evenodd"/><path d="M1454 1177.5C1454 1144.64 1480.42 1118 1513 1118 1545.58 1118 1572 1144.64 1572 1177.5 1572 1210.36 1545.58 1237 1513 1237 1480.42 1237 1454 1210.36 1454 1177.5Z" fill="#0BB5DD" fill-rule="evenodd"/><path d="M1639 760.5C1639 727.639 1665.42 701 1698 701 1730.58 701 1757 727.639 1757 760.5 1757 793.361 1730.58 820 1698 820 1665.42 820 1639 793.361 1639 760.5Z" fill="#0BB5DD" fill-rule="evenodd"/><path d="M362 632.5C362 599.639 388.191 573 420.5 573 452.809 573 479 599.639 479 632.5 479 665.361 452.809 692 420.5 692 388.191 692 362 665.361 362 632.5Z" fill="#0BB5DD" fill-rule="evenodd"/><path d="M985 546.5C985 529.655 998.431 516 1015 516 1031.57 516 1045 529.655 1045 546.5 1045 563.345 1031.57 577 1015 577 998.431 577 985 563.345 985 546.5Z" fill="#0BB5DD" fill-rule="evenodd"/><path d="M1356 400.5C1356 383.655 1369.66 370 1386.5 370 1403.34 370 1417 383.655 1417 400.5 1417 417.345 1403.34 431 1386.5 431 1369.66 431 1356 417.345 1356 400.5Z" fill="#0BB5DD" fill-rule="evenodd"/><path d="M1630 390.5C1630 373.655 1643.43 360 1660 360 1676.57 360 1690 373.655 1690 390.5 1690 407.345 1676.57 421 1660 421 1643.43 421 1630 407.345 1630 390.5Z" fill="#0BB5DD" fill-rule="evenodd"/><path d="M1524 756.5C1524 739.655 1537.43 726 1554 726 1570.57 726 1584 739.655 1584 756.5 1584 773.345 1570.57 787 1554 787 1537.43 787 1524 773.345 1524 756.5Z" fill="#0BB5DD" fill-rule="evenodd"/><path d="M1352 959.5C1352 942.655 1365.66 929 1382.5 929 1399.34 929 1413 942.655 1413 959.5 1413 976.345 1399.34 990 1382.5 990 1365.66 990 1352 976.345 1352 959.5Z" fill="#0BB5DD" fill-rule="evenodd"/><path d="M1636 1154C1636 1136.88 1649.43 1123 1666 1123 1682.57 1123 1696 1136.88 1696 1154 1696 1171.12 1682.57 1185 1666 1185 1649.43 1185 1636 1171.12 1636 1154Z" fill="#0BB5DD" fill-rule="evenodd"/><path d="M1368 1309.5C1368 1292.66 1381.66 1279 1398.5 1279 1415.34 1279 1429 1292.66 1429 1309.5 1429 1326.34 1415.34 1340 1398.5 1340 1381.66 1340 1368 1326.34 1368 1309.5Z" fill="#0BB5DD" fill-rule="evenodd"/><path d="M375 1097.5C375 1080.66 388.431 1067 405 1067 421.568 1067 435 1080.66 435 1097.5 435 1114.34 421.568 1128 405 1128 388.431 1128 375 1114.34 375 1097.5Z" fill="#0BB5DD" fill-rule="evenodd"/><path d="M281 982.5C281 965.655 294.431 952 311 952 327.569 952 341 965.655 341 982.5 341 999.345 327.569 1013 311 1013 294.431 1013 281 999.345 281 982.5Z" fill="#0BB5DD" fill-rule="evenodd"/><path d="M607 703C607 685.879 620.655 672 637.5 672 654.345 672 668 685.879 668 703 668 720.121 654.345 734 637.5 734 620.655 734 607 720.121 607 703Z" fill="#0BB5DD" fill-rule="evenodd"/><path d="M423.158 658.877 437.72 651.119 627.362 1007.09 612.8 1014.85Z" fill="#0BB5DD" fill-rule="evenodd"/><path d="M630.193 682.434 646.651 683.608 623.17 1012.77 606.712 1011.6Z" fill="#0BB5DD" fill-rule="evenodd"/><rect x="589" y="978" width="330" height="17.0002" fill="#0BB5DD"/><path d="M1454.08 1175.03 1454.37 1191.53 1124.42 1197.29 1124.13 1180.79Z" fill="#0BB5DD" fill-rule="evenodd"/><path d="M1440.1 639.177 1447.06 654.137 1088.02 821.194 1081.06 806.234Z" fill="#0BB5DD" fill-rule="evenodd"/><path d="M1008.61 552.497 1024.96 550.316 1059.86 811.999 1043.51 814.18Z" fill="#0BB5DD" fill-rule="evenodd"/><path d="M1384.46 405.809 1398.89 397.809 1494.88 570.984 1480.45 578.983Z" fill="#0BB5DD" fill-rule="evenodd"/><path d="M1038.34 825.907 1051.42 835.961 930.774 992.958 917.691 982.904Z" fill="#0BB5DD" fill-rule="evenodd"/><path d="M930.126 989.44 944.119 980.696 1049.04 1148.61 1035.05 1157.35Z" fill="#0BB5DD" fill-rule="evenodd"/><path d="M1386.65 987.664 1400.8 979.166 1502.77 1148.89 1488.63 1157.38Z" fill="#0BB5DD" fill-rule="evenodd"/><path d="M1647.21 394.487 1660.38 404.417 1541.22 562.547 1528.05 552.617Z" fill="#0BB5DD" fill-rule="evenodd"/><path d="M1526.85 1148.25 1539.3 1159.08 1409.41 1308.51 1396.95 1297.68Z" fill="#0BB5DD" fill-rule="evenodd"/><path d="M574.286 995.303 582.285 1009.73 409.11 1105.73 401.111 1091.3Z" fill="#0BB5DD" fill-rule="evenodd"/><path d="M649.588 990.676 648.725 1007.15 319.177 989.882 320.04 973.405Z" fill="#0BB5DD" fill-rule="evenodd"/><path d="M1475.47 592.717 1486.07 580.077 1688.31 749.773 1677.7 762.413Z" fill="#0BB5DD" fill-rule="evenodd"/><path d="M1513.38 1182.24 1511.65 1165.83 1642.93 1152.03 1644.65 1168.44Z" fill="#0BB5DD" fill-rule="evenodd"/><path d="M1502.37 646.399 1517.64 640.149 1567.63 762.314 1552.36 768.564Z" fill="#0BB5DD" fill-rule="evenodd"/><path d="M397 502C397 489.85 406.85 480 419 480L435.667 480 435.667 480 493.667 480 607 480C619.15 480 629 489.85 629 502L629 557 629 557 629 590 629 589.999C629 602.15 619.15 612 607 612L493.667 612 444.757 659.424 435.667 612 419 612C406.85 612 397 602.15 397 589.999L397 590 397 557 397 557Z" fill="#24C2BD" fill-rule="evenodd" fill-opacity="0.698039"/><path d="M0 22.0005C-3.708e-15 9.84995 9.84994-3.708e-15 22.0005-7.41601e-15L38.8333 0 38.8333 0 97.0834 0 211 0C223.15-7.41601e-15 233 9.84995 233 22.0005L233 77.0001 233 77.0001 233 110 233 110C233 122.15 223.15 132 211 132L97.0834 132 47.963 179.424 38.8333 132 22.0005 132C9.84994 132 0 122.15 0 110L0 110 0 77.0001 0 77.0001Z" fill="#24C2BD" fill-rule="evenodd" fill-opacity="0.698039" transform="matrix(1 -1.22465e-16 -1.22465e-16 -1 1015 1364)"/><path d="M0 13.1669C-2.03701e-15 5.89502 5.89501 0 13.1669 0L21.3333 0 21.3333 0 53.3333 0 114.833 0C122.105-2.03701e-15 128 5.89502 128 13.1669L128 46.0833 128 46.0833 128 65.8335 128 65.8332C128 73.1051 122.105 79.0001 114.833 79.0001L53.3333 79.0001 26.3487 107.382 21.3333 79.0001 13.1669 79.0001C5.89501 79.0001 0 73.1051 0 65.8332L0 65.8335 0 46.0833 0 46.0833Z" fill="#24C2BD" fill-rule="evenodd" fill-opacity="0.698039" transform="matrix(-1 0 0 1 1525 507)"/><rect x="1079.5" y="467.5" width="2035" height="1380" stroke="#148E7A" stroke-width="4.58333" stroke-miterlimit="8" fill="#9DEFE2"/><rect x="1079.5" y="1693.5" width="313" height="154" stroke="#148E7A" stroke-width="4.58333" stroke-miterlimit="8" fill="#1FC2A7"/><text fill="#FFFFFF" font-family="Calibri,Calibri_MSFontService,sans-serif" font-weight="400" font-size="83" transform="matrix(1 0 0 1 1212.11 1798)">A</text><rect x="1392.5" y="1693.5" width="313" height="154" stroke="#148E7A" stroke-width="4.58333" stroke-miterlimit="8" fill="#6CE7D3"/><text fill="#106153" font-family="Calibri,Calibri_MSFontService,sans-serif" font-weight="400" font-size="83" transform="matrix(1 0 0 1 1526.48 1798)">B</text><rect x="1705.5" y="1693.5" width="313" height="154" stroke="#148E7A" stroke-width="4.58333" stroke-miterlimit="8" fill="#6CE7D3"/><text fill="#106153" font-family="Calibri,Calibri_MSFontService,sans-serif" font-weight="400" font-size="83" transform="matrix(1 0 0 1 1839.7 1798)">C</text><path d="M1159.5 585.167C1159.5 574.305 1168.31 565.5 1179.17 565.5L1522.83 565.5C1533.69 565.5 1542.5 574.305 1542.5 585.167L1542.5 663.833C1542.5 674.695 1533.69 683.5 1522.83 683.5L1179.17 683.5C1168.31 683.5 1159.5 674.695 1159.5 663.833Z" stroke="#0684A2" stroke-width="4.58333" stroke-miterlimit="8" fill="#0BB5DD" fill-rule="evenodd"/><path d="M2662.5 585.167C2662.5 574.305 2671.3 565.5 2682.17 565.5L3025.83 565.5C3036.69 565.5 3045.5 574.305 3045.5 585.167L3045.5 663.833C3045.5 674.695 3036.69 683.5 3025.83 683.5L2682.17 683.5C2671.3 683.5 2662.5 674.695 2662.5 663.833Z" stroke="#0684A2" stroke-width="4.58333" stroke-miterlimit="8" fill="#0BB5DD" fill-rule="evenodd"/><path d="M1159.5 745.334C1159.5 734.38 1168.38 725.5 1179.33 725.5L1522.67 725.5C1533.62 725.5 1542.5 734.38 1542.5 745.334L1542.5 824.667C1542.5 835.62 1533.62 844.5 1522.67 844.5L1179.33 844.5C1168.38 844.5 1159.5 835.62 1159.5 824.667Z" stroke="#148E7A" stroke-width="4.58333" stroke-miterlimit="8" fill="#1FC2A7" fill-rule="evenodd"/><path d="M2662.5 745.334C2662.5 734.38 2671.38 725.5 2682.33 725.5L3025.67 725.5C3036.62 725.5 3045.5 734.38 3045.5 745.334L3045.5 824.667C3045.5 835.62 3036.62 844.5 3025.67 844.5L2682.33 844.5C2671.38 844.5 2662.5 835.62 2662.5 824.667Z" stroke="#148E7A" stroke-width="4.58333" stroke-miterlimit="8" fill="#1FC2A7" fill-rule="evenodd"/><path d="M1159.5 906.167C1159.5 895.305 1168.31 886.5 1179.17 886.5L1522.83 886.5C1533.69 886.5 1542.5 895.305 1542.5 906.167L1542.5 984.833C1542.5 995.695 1533.69 1004.5 1522.83 1004.5L1179.17 1004.5C1168.31 1004.5 1159.5 995.695 1159.5 984.833Z" stroke="#148E7A" stroke-width="4.58333" stroke-miterlimit="8" fill="#1FC2A7" fill-rule="evenodd"/><path d="M2662.5 906.167C2662.5 895.305 2671.3 886.5 2682.17 886.5L3025.83 886.5C3036.69 886.5 3045.5 895.305 3045.5 906.167L3045.5 984.833C3045.5 995.695 3036.69 1004.5 3025.83 1004.5L2682.17 1004.5C2671.3 1004.5 2662.5 995.695 2662.5 984.833Z" stroke="#148E7A" stroke-width="4.58333" stroke-miterlimit="8" fill="#1FC2A7" fill-rule="evenodd"/><rect x="2018.5" y="1693.5" width="313" height="154" stroke="#148E7A" stroke-width="4.58333" stroke-miterlimit="8" fill="#6CE7D3"/><text fill="#106153" font-family="Calibri,Calibri_MSFontService,sans-serif" font-weight="400" font-size="83" transform="matrix(1 0 0 1 2149.2 1798)">D</text><path d="M1159.5 1069.17C1159.5 1058.31 1168.31 1049.5 1179.17 1049.5L1522.83 1049.5C1533.69 1049.5 1542.5 1058.31 1542.5 1069.17L1542.5 1147.83C1542.5 1158.69 1533.69 1167.5 1522.83 1167.5L1179.17 1167.5C1168.31 1167.5 1159.5 1158.69 1159.5 1147.83Z" stroke="#148E7A" stroke-width="4.58333" stroke-miterlimit="8" fill="#1FC2A7" fill-rule="evenodd"/><path d="M2662.5 1069.17C2662.5 1058.31 2671.3 1049.5 2682.17 1049.5L3025.83 1049.5C3036.69 1049.5 3045.5 1058.31 3045.5 1069.17L3045.5 1147.83C3045.5 1158.69 3036.69 1167.5 3025.83 1167.5L2682.17 1167.5C2671.3 1167.5 2662.5 1158.69 2662.5 1147.83Z" stroke="#148E7A" stroke-width="4.58333" stroke-miterlimit="8" fill="#1FC2A7" fill-rule="evenodd"/><path d="M1159.5 1229.17C1159.5 1218.31 1168.31 1209.5 1179.17 1209.5L1522.83 1209.5C1533.69 1209.5 1542.5 1218.31 1542.5 1229.17L1542.5 1307.83C1542.5 1318.69 1533.69 1327.5 1522.83 1327.5L1179.17 1327.5C1168.31 1327.5 1159.5 1318.69 1159.5 1307.83Z" stroke="#148E7A" stroke-width="4.58333" stroke-miterlimit="8" fill="#1FC2A7" fill-rule="evenodd"/><path d="M2662.5 1229.17C2662.5 1218.31 2671.3 1209.5 2682.17 1209.5L3025.83 1209.5C3036.69 1209.5 3045.5 1218.31 3045.5 1229.17L3045.5 1307.83C3045.5 1318.69 3036.69 1327.5 3025.83 1327.5L2682.17 1327.5C2671.3 1327.5 2662.5 1318.69 2662.5 1307.83Z" stroke="#148E7A" stroke-width="4.58333" stroke-miterlimit="8" fill="#1FC2A7" fill-rule="evenodd"/><path d="M1159.5 1389.33C1159.5 1378.38 1168.38 1369.5 1179.33 1369.5L1522.67 1369.5C1533.62 1369.5 1542.5 1378.38 1542.5 1389.33L1542.5 1468.67C1542.5 1479.62 1533.62 1488.5 1522.67 1488.5L1179.33 1488.5C1168.38 1488.5 1159.5 1479.62 1159.5 1468.67Z" stroke="#148E7A" stroke-width="4.58333" stroke-miterlimit="8" fill="#1FC2A7" fill-rule="evenodd"/><path d="M1562.5 585C1562.5 574.23 1571.23 565.5 1582 565.5L2610 565.5C2620.77 565.5 2629.5 574.23 2629.5 585L2629.5 663C2629.5 673.769 2620.77 682.5 2610 682.5L1582 682.5C1571.23 682.5 1562.5 673.769 1562.5 663Z" stroke="#0684A2" stroke-width="4.58333" stroke-miterlimit="8" fill="#0BB5DD" fill-rule="evenodd"/><path d="M1562.5 745C1562.5 734.231 1571.23 725.5 1582 725.5L2610 725.5C2620.77 725.5 2629.5 734.231 2629.5 745L2629.5 823C2629.5 833.77 2620.77 842.5 2610 842.5L1582 842.5C1571.23 842.5 1562.5 833.77 1562.5 823Z" stroke="#148E7A" stroke-width="4.58333" stroke-miterlimit="8" fill="#1FC2A7" fill-rule="evenodd"/><path d="M1562.5 905.833C1562.5 895.156 1571.16 886.5 1581.83 886.5L2610.17 886.5C2620.84 886.5 2629.5 895.156 2629.5 905.833L2629.5 983.167C2629.5 993.844 2620.84 1002.5 2610.17 1002.5L1581.83 1002.5C1571.16 1002.5 1562.5 993.844 1562.5 983.167Z" stroke="#148E7A" stroke-width="4.58333" stroke-miterlimit="8" fill="#1FC2A7" fill-rule="evenodd"/><path d="M1562.5 1068.83C1562.5 1058.16 1571.16 1049.5 1581.83 1049.5L2610.17 1049.5C2620.84 1049.5 2629.5 1058.16 2629.5 1068.83L2629.5 1146.17C2629.5 1156.84 2620.84 1165.5 2610.17 1165.5L1581.83 1165.5C1571.16 1165.5 1562.5 1156.84 1562.5 1146.17Z" stroke="#148E7A" stroke-width="4.58333" stroke-miterlimit="8" fill="#1FC2A7" fill-rule="evenodd"/><path d="M1562.5 1228.83C1562.5 1218.16 1571.16 1209.5 1581.83 1209.5L2610.17 1209.5C2620.84 1209.5 2629.5 1218.16 2629.5 1228.83L2629.5 1306.17C2629.5 1316.84 2620.84 1325.5 2610.17 1325.5L1581.83 1325.5C1571.16 1325.5 1562.5 1316.84 1562.5 1306.17Z" stroke="#148E7A" stroke-width="4.58333" stroke-miterlimit="8" fill="#1FC2A7" fill-rule="evenodd"/><path d="M1562.5 1389C1562.5 1378.23 1571.23 1369.5 1582 1369.5L2610 1369.5C2620.77 1369.5 2629.5 1378.23 2629.5 1389L2629.5 1467C2629.5 1477.77 2620.77 1486.5 2610 1486.5L1582 1486.5C1571.23 1486.5 1562.5 1477.77 1562.5 1467Z" stroke="#148E7A" stroke-width="4.58333" stroke-miterlimit="8" fill="#1FC2A7" fill-rule="evenodd"/><path d="M2662.5 1389.33C2662.5 1378.38 2671.38 1369.5 2682.33 1369.5L3025.67 1369.5C3036.62 1369.5 3045.5 1378.38 3045.5 1389.33L3045.5 1468.67C3045.5 1479.62 3036.62 1488.5 3025.67 1488.5L2682.33 1488.5C2671.38 1488.5 2662.5 1479.62 2662.5 1468.67Z" stroke="#148E7A" stroke-width="4.58333" stroke-miterlimit="8" fill="#1FC2A7" fill-rule="evenodd"/><text fill="#595959" font-family="Calibri,Calibri_MSFontService,sans-serif" font-weight="400" font-size="83" transform="matrix(1 0 0 1 1228.19 649)">S<tspan font-size="83" x="37.8125" y="0">ource</tspan><tspan font-size="83" x="1531.64" y="-1">S</tspan><tspan font-size="83" x="1569.45" y="-1">ink</tspan><tspan font-size="83" x="444.197" y="1">Parameter [</tspan></text><text fill="#595959" font-family="Arial,Arial_MSFontService,sans-serif" font-weight="400" font-size="83" transform="translate(2066.35 650)">´</text><text fill="#595959" font-family="Calibri,Calibri_MSFontService,sans-serif" font-weight="400" font-size="83" transform="matrix(1 0 0 1 2093.85 650)">parent term’]</text><text fill="#595959" font-family="Arial,Arial_MSFontService,sans-serif" font-weight="400" font-size="83" transform="translate(1925.68 812)">´</text><text fill="#595959" font-family="Calibri,Calibri_MSFontService,sans-serif" font-weight="400" font-size="83" transform="matrix(1 0 0 1 1953.18 812)">child term’</text><path d="M273.924 9.6675 293.237 4.5425 312.923 0.280156 332.634-2.97131 352.332-5.26661 371.993-6.54814 391.491-6.93619 410.93-6.43515 430.208-4.98028 449.339-2.63614 468.204 0.532901 486.922 4.66211 505.27 9.54425 523.383 15.2566 541.206 21.8677 558.544 29.1642 575.588 37.2963 592.205 46.2637 608.273 55.8465 623.939 66.2797 639.073 77.3986 653.633 89.1521 667.649 101.691 681.065 114.842 693.805 128.653 705.855 143.175 717.236 158.232 727.883 173.962 737.756 190.252 746.81 207.128 755.033 224.572 762.421 242.51 768.925 261.038 769.92 264.372 756.734 268.271 755.95 265.587 749.704 247.74 742.592 230.428 734.69 213.622 725.994 197.373 716.492 181.663 706.264 166.518 695.27 151.95 683.695 137.972 671.435 124.658 658.476 111.934 644.992 99.8479 630.927 88.4763 616.311 77.7203 601.227 67.6535 585.67 58.3613 569.662 49.7037 553.206 41.8358 536.419 34.7573 519.242 28.3684 501.73 22.8307 483.953 18.0879 465.921 14.0921 447.661 11.0111 429.167 8.73028 410.57 7.31015 391.759 6.81119 372.882 7.17314 353.918 8.39161 334.866 10.5963 315.827 13.7198 296.763 17.8325 277.451 22.9575ZM781.381 221.579 767.196 279.406 723.843 238.594C721.078 235.992 720.947 231.641 723.549 228.876 726.152 226.111 730.503 225.98 733.267 228.582L768.04 261.315 756.65 264.683 768.027 218.303C768.932 214.616 772.655 212.359 776.342 213.264 780.03 214.169 782.286 217.891 781.381 221.579Z" fill="#595959" transform="matrix(0.707107 -0.707107 -0.707107 -0.707107 2072.96 1442.82)"/><text fill="#595959" font-family="Arial,Arial_MSFontService,sans-serif" font-weight="400" font-size="83" transform="translate(1924.51 979)">´</text><text fill="#595959" font-family="Calibri,Calibri_MSFontService,sans-serif" font-weight="400" font-size="83" transform="matrix(1 0 0 1 1952.01 979)">child term’</text><text fill="#595959" font-family="Arial,Arial_MSFontService,sans-serif" font-weight="400" font-size="83" transform="translate(1923.34 1140)">´</text><text fill="#595959" font-family="Calibri,Calibri_MSFontService,sans-serif" font-weight="400" font-size="83" transform="matrix(1 0 0 1 1950.84 1140)">child term’</text><text fill="#595959" font-family="Arial,Arial_MSFontService,sans-serif" font-weight="400" font-size="83" transform="translate(1922.17 1296)">´</text><text fill="#595959" font-family="Calibri,Calibri_MSFontService,sans-serif" font-weight="400" font-size="83" transform="matrix(1 0 0 1 1949.67 1296)">child term’</text><text fill="#595959" font-family="Arial,Arial_MSFontService,sans-serif" font-weight="400" font-size="83" transform="translate(1921 1453)">´</text><text fill="#595959" font-family="Calibri,Calibri_MSFontService,sans-serif" font-weight="400" font-size="83" transform="matrix(1 0 0 1 1948.5 1453)">child term’</text></g></svg>